%TF.GenerationSoftware,KiCad,Pcbnew,10.0.1*%
%TF.CreationDate,2026-06-06T09:12:29-05:00*%
%TF.ProjectId,LUXOMETER,4c55584f-4d45-4544-9552-2e6b69636164,rev?*%
%TF.SameCoordinates,Original*%
%TF.FileFunction,Legend,Top*%
%TF.FilePolarity,Positive*%
%FSLAX46Y46*%
G04 Gerber Fmt 4.6, Leading zero omitted, Abs format (unit mm)*
G04 Created by KiCad (PCBNEW 10.0.1) date 2026-06-06 09:12:29*
%MOMM*%
%LPD*%
G01*
G04 APERTURE LIST*
%ADD10C,0.150000*%
%ADD11C,0.100000*%
%ADD12C,0.000000*%
%ADD13C,0.120000*%
G04 APERTURE END LIST*
D10*
X149238095Y-41304819D02*
X149238095Y-40304819D01*
X149238095Y-40781009D02*
X149809523Y-40781009D01*
X149809523Y-41304819D02*
X149809523Y-40304819D01*
X150238095Y-40400057D02*
X150285714Y-40352438D01*
X150285714Y-40352438D02*
X150380952Y-40304819D01*
X150380952Y-40304819D02*
X150619047Y-40304819D01*
X150619047Y-40304819D02*
X150714285Y-40352438D01*
X150714285Y-40352438D02*
X150761904Y-40400057D01*
X150761904Y-40400057D02*
X150809523Y-40495295D01*
X150809523Y-40495295D02*
X150809523Y-40590533D01*
X150809523Y-40590533D02*
X150761904Y-40733390D01*
X150761904Y-40733390D02*
X150190476Y-41304819D01*
X150190476Y-41304819D02*
X150809523Y-41304819D01*
D11*
X117282419Y-59236904D02*
X118091942Y-59236904D01*
X118091942Y-59236904D02*
X118187180Y-59189285D01*
X118187180Y-59189285D02*
X118234800Y-59141666D01*
X118234800Y-59141666D02*
X118282419Y-59046428D01*
X118282419Y-59046428D02*
X118282419Y-58855952D01*
X118282419Y-58855952D02*
X118234800Y-58760714D01*
X118234800Y-58760714D02*
X118187180Y-58713095D01*
X118187180Y-58713095D02*
X118091942Y-58665476D01*
X118091942Y-58665476D02*
X117282419Y-58665476D01*
X118282419Y-57665476D02*
X118282419Y-58236904D01*
X118282419Y-57951190D02*
X117282419Y-57951190D01*
X117282419Y-57951190D02*
X117425276Y-58046428D01*
X117425276Y-58046428D02*
X117520514Y-58141666D01*
X117520514Y-58141666D02*
X117568133Y-58236904D01*
D10*
X149238095Y-96304819D02*
X149238095Y-95304819D01*
X149238095Y-95781009D02*
X149809523Y-95781009D01*
X149809523Y-96304819D02*
X149809523Y-95304819D01*
X150714285Y-95638152D02*
X150714285Y-96304819D01*
X150476190Y-95257200D02*
X150238095Y-95971485D01*
X150238095Y-95971485D02*
X150857142Y-95971485D01*
X134587619Y-103054819D02*
X134587619Y-102054819D01*
X134587619Y-102054819D02*
X134968571Y-102054819D01*
X134968571Y-102054819D02*
X135063809Y-102102438D01*
X135063809Y-102102438D02*
X135111428Y-102150057D01*
X135111428Y-102150057D02*
X135159047Y-102245295D01*
X135159047Y-102245295D02*
X135159047Y-102388152D01*
X135159047Y-102388152D02*
X135111428Y-102483390D01*
X135111428Y-102483390D02*
X135063809Y-102531009D01*
X135063809Y-102531009D02*
X134968571Y-102578628D01*
X134968571Y-102578628D02*
X134587619Y-102578628D01*
X135492381Y-102054819D02*
X135730476Y-103054819D01*
X135730476Y-103054819D02*
X135920952Y-102340533D01*
X135920952Y-102340533D02*
X136111428Y-103054819D01*
X136111428Y-103054819D02*
X136349524Y-102054819D01*
X137301904Y-103054819D02*
X136968571Y-102578628D01*
X136730476Y-103054819D02*
X136730476Y-102054819D01*
X136730476Y-102054819D02*
X137111428Y-102054819D01*
X137111428Y-102054819D02*
X137206666Y-102102438D01*
X137206666Y-102102438D02*
X137254285Y-102150057D01*
X137254285Y-102150057D02*
X137301904Y-102245295D01*
X137301904Y-102245295D02*
X137301904Y-102388152D01*
X137301904Y-102388152D02*
X137254285Y-102483390D01*
X137254285Y-102483390D02*
X137206666Y-102531009D01*
X137206666Y-102531009D02*
X137111428Y-102578628D01*
X137111428Y-102578628D02*
X136730476Y-102578628D01*
X137492381Y-103150057D02*
X138254285Y-103150057D01*
X138492381Y-103054819D02*
X138492381Y-102054819D01*
X138968571Y-103054819D02*
X138968571Y-102054819D01*
X138968571Y-102054819D02*
X139539999Y-103054819D01*
X139539999Y-103054819D02*
X139539999Y-102054819D01*
X140539999Y-103054819D02*
X139968571Y-103054819D01*
X140254285Y-103054819D02*
X140254285Y-102054819D01*
X140254285Y-102054819D02*
X140159047Y-102197676D01*
X140159047Y-102197676D02*
X140063809Y-102292914D01*
X140063809Y-102292914D02*
X139968571Y-102340533D01*
X141659580Y-78416666D02*
X141707200Y-78464285D01*
X141707200Y-78464285D02*
X141754819Y-78607142D01*
X141754819Y-78607142D02*
X141754819Y-78702380D01*
X141754819Y-78702380D02*
X141707200Y-78845237D01*
X141707200Y-78845237D02*
X141611961Y-78940475D01*
X141611961Y-78940475D02*
X141516723Y-78988094D01*
X141516723Y-78988094D02*
X141326247Y-79035713D01*
X141326247Y-79035713D02*
X141183390Y-79035713D01*
X141183390Y-79035713D02*
X140992914Y-78988094D01*
X140992914Y-78988094D02*
X140897676Y-78940475D01*
X140897676Y-78940475D02*
X140802438Y-78845237D01*
X140802438Y-78845237D02*
X140754819Y-78702380D01*
X140754819Y-78702380D02*
X140754819Y-78607142D01*
X140754819Y-78607142D02*
X140802438Y-78464285D01*
X140802438Y-78464285D02*
X140850057Y-78416666D01*
X140754819Y-77511904D02*
X140754819Y-77988094D01*
X140754819Y-77988094D02*
X141231009Y-78035713D01*
X141231009Y-78035713D02*
X141183390Y-77988094D01*
X141183390Y-77988094D02*
X141135771Y-77892856D01*
X141135771Y-77892856D02*
X141135771Y-77654761D01*
X141135771Y-77654761D02*
X141183390Y-77559523D01*
X141183390Y-77559523D02*
X141231009Y-77511904D01*
X141231009Y-77511904D02*
X141326247Y-77464285D01*
X141326247Y-77464285D02*
X141564342Y-77464285D01*
X141564342Y-77464285D02*
X141659580Y-77511904D01*
X141659580Y-77511904D02*
X141707200Y-77559523D01*
X141707200Y-77559523D02*
X141754819Y-77654761D01*
X141754819Y-77654761D02*
X141754819Y-77892856D01*
X141754819Y-77892856D02*
X141707200Y-77988094D01*
X141707200Y-77988094D02*
X141659580Y-78035713D01*
X89238095Y-96304819D02*
X89238095Y-95304819D01*
X89238095Y-95781009D02*
X89809523Y-95781009D01*
X89809523Y-96304819D02*
X89809523Y-95304819D01*
X90190476Y-95304819D02*
X90809523Y-95304819D01*
X90809523Y-95304819D02*
X90476190Y-95685771D01*
X90476190Y-95685771D02*
X90619047Y-95685771D01*
X90619047Y-95685771D02*
X90714285Y-95733390D01*
X90714285Y-95733390D02*
X90761904Y-95781009D01*
X90761904Y-95781009D02*
X90809523Y-95876247D01*
X90809523Y-95876247D02*
X90809523Y-96114342D01*
X90809523Y-96114342D02*
X90761904Y-96209580D01*
X90761904Y-96209580D02*
X90714285Y-96257200D01*
X90714285Y-96257200D02*
X90619047Y-96304819D01*
X90619047Y-96304819D02*
X90333333Y-96304819D01*
X90333333Y-96304819D02*
X90238095Y-96257200D01*
X90238095Y-96257200D02*
X90190476Y-96209580D01*
X108162143Y-103054819D02*
X108162143Y-102054819D01*
X108162143Y-102054819D02*
X108495476Y-102769104D01*
X108495476Y-102769104D02*
X108828809Y-102054819D01*
X108828809Y-102054819D02*
X108828809Y-103054819D01*
X109495476Y-102054819D02*
X109685952Y-102054819D01*
X109685952Y-102054819D02*
X109781190Y-102102438D01*
X109781190Y-102102438D02*
X109876428Y-102197676D01*
X109876428Y-102197676D02*
X109924047Y-102388152D01*
X109924047Y-102388152D02*
X109924047Y-102721485D01*
X109924047Y-102721485D02*
X109876428Y-102911961D01*
X109876428Y-102911961D02*
X109781190Y-103007200D01*
X109781190Y-103007200D02*
X109685952Y-103054819D01*
X109685952Y-103054819D02*
X109495476Y-103054819D01*
X109495476Y-103054819D02*
X109400238Y-103007200D01*
X109400238Y-103007200D02*
X109305000Y-102911961D01*
X109305000Y-102911961D02*
X109257381Y-102721485D01*
X109257381Y-102721485D02*
X109257381Y-102388152D01*
X109257381Y-102388152D02*
X109305000Y-102197676D01*
X109305000Y-102197676D02*
X109400238Y-102102438D01*
X109400238Y-102102438D02*
X109495476Y-102054819D01*
X110352619Y-103054819D02*
X110352619Y-102054819D01*
X110352619Y-102054819D02*
X110590714Y-102054819D01*
X110590714Y-102054819D02*
X110733571Y-102102438D01*
X110733571Y-102102438D02*
X110828809Y-102197676D01*
X110828809Y-102197676D02*
X110876428Y-102292914D01*
X110876428Y-102292914D02*
X110924047Y-102483390D01*
X110924047Y-102483390D02*
X110924047Y-102626247D01*
X110924047Y-102626247D02*
X110876428Y-102816723D01*
X110876428Y-102816723D02*
X110828809Y-102911961D01*
X110828809Y-102911961D02*
X110733571Y-103007200D01*
X110733571Y-103007200D02*
X110590714Y-103054819D01*
X110590714Y-103054819D02*
X110352619Y-103054819D01*
X111685952Y-102531009D02*
X111828809Y-102578628D01*
X111828809Y-102578628D02*
X111876428Y-102626247D01*
X111876428Y-102626247D02*
X111924047Y-102721485D01*
X111924047Y-102721485D02*
X111924047Y-102864342D01*
X111924047Y-102864342D02*
X111876428Y-102959580D01*
X111876428Y-102959580D02*
X111828809Y-103007200D01*
X111828809Y-103007200D02*
X111733571Y-103054819D01*
X111733571Y-103054819D02*
X111352619Y-103054819D01*
X111352619Y-103054819D02*
X111352619Y-102054819D01*
X111352619Y-102054819D02*
X111685952Y-102054819D01*
X111685952Y-102054819D02*
X111781190Y-102102438D01*
X111781190Y-102102438D02*
X111828809Y-102150057D01*
X111828809Y-102150057D02*
X111876428Y-102245295D01*
X111876428Y-102245295D02*
X111876428Y-102340533D01*
X111876428Y-102340533D02*
X111828809Y-102435771D01*
X111828809Y-102435771D02*
X111781190Y-102483390D01*
X111781190Y-102483390D02*
X111685952Y-102531009D01*
X111685952Y-102531009D02*
X111352619Y-102531009D01*
X112352619Y-102054819D02*
X112352619Y-102864342D01*
X112352619Y-102864342D02*
X112400238Y-102959580D01*
X112400238Y-102959580D02*
X112447857Y-103007200D01*
X112447857Y-103007200D02*
X112543095Y-103054819D01*
X112543095Y-103054819D02*
X112733571Y-103054819D01*
X112733571Y-103054819D02*
X112828809Y-103007200D01*
X112828809Y-103007200D02*
X112876428Y-102959580D01*
X112876428Y-102959580D02*
X112924047Y-102864342D01*
X112924047Y-102864342D02*
X112924047Y-102054819D01*
X113352619Y-103007200D02*
X113495476Y-103054819D01*
X113495476Y-103054819D02*
X113733571Y-103054819D01*
X113733571Y-103054819D02*
X113828809Y-103007200D01*
X113828809Y-103007200D02*
X113876428Y-102959580D01*
X113876428Y-102959580D02*
X113924047Y-102864342D01*
X113924047Y-102864342D02*
X113924047Y-102769104D01*
X113924047Y-102769104D02*
X113876428Y-102673866D01*
X113876428Y-102673866D02*
X113828809Y-102626247D01*
X113828809Y-102626247D02*
X113733571Y-102578628D01*
X113733571Y-102578628D02*
X113543095Y-102531009D01*
X113543095Y-102531009D02*
X113447857Y-102483390D01*
X113447857Y-102483390D02*
X113400238Y-102435771D01*
X113400238Y-102435771D02*
X113352619Y-102340533D01*
X113352619Y-102340533D02*
X113352619Y-102245295D01*
X113352619Y-102245295D02*
X113400238Y-102150057D01*
X113400238Y-102150057D02*
X113447857Y-102102438D01*
X113447857Y-102102438D02*
X113543095Y-102054819D01*
X113543095Y-102054819D02*
X113781190Y-102054819D01*
X113781190Y-102054819D02*
X113924047Y-102102438D01*
X114114524Y-103150057D02*
X114876428Y-103150057D01*
X115305000Y-102054819D02*
X115495476Y-102054819D01*
X115495476Y-102054819D02*
X115590714Y-102102438D01*
X115590714Y-102102438D02*
X115685952Y-102197676D01*
X115685952Y-102197676D02*
X115733571Y-102388152D01*
X115733571Y-102388152D02*
X115733571Y-102721485D01*
X115733571Y-102721485D02*
X115685952Y-102911961D01*
X115685952Y-102911961D02*
X115590714Y-103007200D01*
X115590714Y-103007200D02*
X115495476Y-103054819D01*
X115495476Y-103054819D02*
X115305000Y-103054819D01*
X115305000Y-103054819D02*
X115209762Y-103007200D01*
X115209762Y-103007200D02*
X115114524Y-102911961D01*
X115114524Y-102911961D02*
X115066905Y-102721485D01*
X115066905Y-102721485D02*
X115066905Y-102388152D01*
X115066905Y-102388152D02*
X115114524Y-102197676D01*
X115114524Y-102197676D02*
X115209762Y-102102438D01*
X115209762Y-102102438D02*
X115305000Y-102054819D01*
X116162143Y-102054819D02*
X116162143Y-102864342D01*
X116162143Y-102864342D02*
X116209762Y-102959580D01*
X116209762Y-102959580D02*
X116257381Y-103007200D01*
X116257381Y-103007200D02*
X116352619Y-103054819D01*
X116352619Y-103054819D02*
X116543095Y-103054819D01*
X116543095Y-103054819D02*
X116638333Y-103007200D01*
X116638333Y-103007200D02*
X116685952Y-102959580D01*
X116685952Y-102959580D02*
X116733571Y-102864342D01*
X116733571Y-102864342D02*
X116733571Y-102054819D01*
X117066905Y-102054819D02*
X117638333Y-102054819D01*
X117352619Y-103054819D02*
X117352619Y-102054819D01*
X118495476Y-103054819D02*
X117924048Y-103054819D01*
X118209762Y-103054819D02*
X118209762Y-102054819D01*
X118209762Y-102054819D02*
X118114524Y-102197676D01*
X118114524Y-102197676D02*
X118019286Y-102292914D01*
X118019286Y-102292914D02*
X117924048Y-102340533D01*
X145933333Y-84009580D02*
X145885714Y-84057200D01*
X145885714Y-84057200D02*
X145742857Y-84104819D01*
X145742857Y-84104819D02*
X145647619Y-84104819D01*
X145647619Y-84104819D02*
X145504762Y-84057200D01*
X145504762Y-84057200D02*
X145409524Y-83961961D01*
X145409524Y-83961961D02*
X145361905Y-83866723D01*
X145361905Y-83866723D02*
X145314286Y-83676247D01*
X145314286Y-83676247D02*
X145314286Y-83533390D01*
X145314286Y-83533390D02*
X145361905Y-83342914D01*
X145361905Y-83342914D02*
X145409524Y-83247676D01*
X145409524Y-83247676D02*
X145504762Y-83152438D01*
X145504762Y-83152438D02*
X145647619Y-83104819D01*
X145647619Y-83104819D02*
X145742857Y-83104819D01*
X145742857Y-83104819D02*
X145885714Y-83152438D01*
X145885714Y-83152438D02*
X145933333Y-83200057D01*
X146266667Y-83104819D02*
X146885714Y-83104819D01*
X146885714Y-83104819D02*
X146552381Y-83485771D01*
X146552381Y-83485771D02*
X146695238Y-83485771D01*
X146695238Y-83485771D02*
X146790476Y-83533390D01*
X146790476Y-83533390D02*
X146838095Y-83581009D01*
X146838095Y-83581009D02*
X146885714Y-83676247D01*
X146885714Y-83676247D02*
X146885714Y-83914342D01*
X146885714Y-83914342D02*
X146838095Y-84009580D01*
X146838095Y-84009580D02*
X146790476Y-84057200D01*
X146790476Y-84057200D02*
X146695238Y-84104819D01*
X146695238Y-84104819D02*
X146409524Y-84104819D01*
X146409524Y-84104819D02*
X146314286Y-84057200D01*
X146314286Y-84057200D02*
X146266667Y-84009580D01*
X145835984Y-74909580D02*
X145788365Y-74957200D01*
X145788365Y-74957200D02*
X145645508Y-75004819D01*
X145645508Y-75004819D02*
X145550270Y-75004819D01*
X145550270Y-75004819D02*
X145407413Y-74957200D01*
X145407413Y-74957200D02*
X145312175Y-74861961D01*
X145312175Y-74861961D02*
X145264556Y-74766723D01*
X145264556Y-74766723D02*
X145216937Y-74576247D01*
X145216937Y-74576247D02*
X145216937Y-74433390D01*
X145216937Y-74433390D02*
X145264556Y-74242914D01*
X145264556Y-74242914D02*
X145312175Y-74147676D01*
X145312175Y-74147676D02*
X145407413Y-74052438D01*
X145407413Y-74052438D02*
X145550270Y-74004819D01*
X145550270Y-74004819D02*
X145645508Y-74004819D01*
X145645508Y-74004819D02*
X145788365Y-74052438D01*
X145788365Y-74052438D02*
X145835984Y-74100057D01*
X146693127Y-74338152D02*
X146693127Y-75004819D01*
X146455032Y-73957200D02*
X146216937Y-74671485D01*
X146216937Y-74671485D02*
X146835984Y-74671485D01*
D11*
X114461904Y-83092580D02*
X114461904Y-82283057D01*
X114461904Y-82283057D02*
X114414285Y-82187819D01*
X114414285Y-82187819D02*
X114366666Y-82140200D01*
X114366666Y-82140200D02*
X114271428Y-82092580D01*
X114271428Y-82092580D02*
X114080952Y-82092580D01*
X114080952Y-82092580D02*
X113985714Y-82140200D01*
X113985714Y-82140200D02*
X113938095Y-82187819D01*
X113938095Y-82187819D02*
X113890476Y-82283057D01*
X113890476Y-82283057D02*
X113890476Y-83092580D01*
X113461904Y-82997342D02*
X113414285Y-83044961D01*
X113414285Y-83044961D02*
X113319047Y-83092580D01*
X113319047Y-83092580D02*
X113080952Y-83092580D01*
X113080952Y-83092580D02*
X112985714Y-83044961D01*
X112985714Y-83044961D02*
X112938095Y-82997342D01*
X112938095Y-82997342D02*
X112890476Y-82902104D01*
X112890476Y-82902104D02*
X112890476Y-82806866D01*
X112890476Y-82806866D02*
X112938095Y-82664009D01*
X112938095Y-82664009D02*
X113509523Y-82092580D01*
X113509523Y-82092580D02*
X112890476Y-82092580D01*
D10*
X89238095Y-41304819D02*
X89238095Y-40304819D01*
X89238095Y-40781009D02*
X89809523Y-40781009D01*
X89809523Y-41304819D02*
X89809523Y-40304819D01*
X90809523Y-41304819D02*
X90238095Y-41304819D01*
X90523809Y-41304819D02*
X90523809Y-40304819D01*
X90523809Y-40304819D02*
X90428571Y-40447676D01*
X90428571Y-40447676D02*
X90333333Y-40542914D01*
X90333333Y-40542914D02*
X90238095Y-40590533D01*
D12*
%TO.C,kibuzzard-6A2424FA*%
G36*
X140139217Y-89778433D02*
G01*
X140254292Y-89857296D01*
X140332350Y-89972639D01*
X140358369Y-90108369D01*
X140358369Y-90282189D01*
X139643777Y-90282189D01*
X139643777Y-90110515D01*
X139670064Y-89973176D01*
X139748927Y-89857296D01*
X139864807Y-89778433D01*
X140002146Y-89752146D01*
X140139217Y-89778433D01*
G37*
G36*
X140774857Y-91919528D02*
G01*
X140774857Y-92885193D01*
X140774857Y-93640558D01*
X140774857Y-93640737D01*
X140759968Y-93791904D01*
X140715874Y-93937262D01*
X140644270Y-94071224D01*
X140547907Y-94188643D01*
X140430487Y-94285007D01*
X140296525Y-94356611D01*
X140151167Y-94400705D01*
X140000000Y-94415594D01*
X139848833Y-94400705D01*
X139703475Y-94356611D01*
X139569513Y-94285007D01*
X139452093Y-94188643D01*
X139355730Y-94071224D01*
X139284126Y-93937262D01*
X139240032Y-93791904D01*
X139225143Y-93640737D01*
X139225143Y-93640558D01*
X139225143Y-92870172D01*
X139225322Y-92870172D01*
X139239203Y-93023270D01*
X139280848Y-93164968D01*
X139350255Y-93295266D01*
X139447425Y-93414163D01*
X139564042Y-93513211D01*
X139691792Y-93583959D01*
X139830673Y-93626408D01*
X139980687Y-93640558D01*
X140138010Y-93626609D01*
X140283798Y-93584764D01*
X140418053Y-93515021D01*
X140540773Y-93417382D01*
X140643106Y-93300429D01*
X140716202Y-93172747D01*
X140760059Y-93034335D01*
X140774678Y-92885193D01*
X140765379Y-92720672D01*
X140737482Y-92579041D01*
X140690987Y-92460300D01*
X140641363Y-92381438D01*
X140582618Y-92320815D01*
X140459227Y-92269313D01*
X140019313Y-92269313D01*
X139965665Y-92270386D01*
X139918455Y-92280043D01*
X139875536Y-92305794D01*
X139847639Y-92356223D01*
X139832618Y-92438841D01*
X139832618Y-92814378D01*
X139835837Y-92872318D01*
X139853004Y-92919528D01*
X139903433Y-92959227D01*
X139997854Y-92971030D01*
X140094421Y-92960300D01*
X140144850Y-92923820D01*
X140162017Y-92878755D01*
X140165236Y-92820815D01*
X140165236Y-92662017D01*
X140349785Y-92662017D01*
X140370708Y-92753219D01*
X140377682Y-92876609D01*
X140348176Y-93015558D01*
X140259657Y-93136266D01*
X140131974Y-93219957D01*
X139984979Y-93247854D01*
X139842543Y-93221030D01*
X139724249Y-93140558D01*
X139644582Y-93021996D01*
X139618026Y-92880901D01*
X139633047Y-92748391D01*
X139678112Y-92638412D01*
X139727468Y-92522532D01*
X139699034Y-92443133D01*
X139613734Y-92363734D01*
X139493562Y-92314378D01*
X139431330Y-92334764D01*
X139386266Y-92374464D01*
X139343348Y-92434549D01*
X139293723Y-92526556D01*
X139256438Y-92639485D01*
X139233101Y-92758852D01*
X139225322Y-92870172D01*
X139225143Y-92870172D01*
X139225143Y-90990343D01*
X139253219Y-90990343D01*
X139268240Y-91101931D01*
X139314378Y-91162017D01*
X139371245Y-91183476D01*
X139442060Y-91187768D01*
X140057940Y-91187768D01*
X139336910Y-91724249D01*
X139292918Y-91762876D01*
X139266094Y-91817597D01*
X139253219Y-91915236D01*
X139267167Y-92027897D01*
X139313305Y-92086910D01*
X139370172Y-92108369D01*
X139442060Y-92112661D01*
X140555794Y-92112661D01*
X140630901Y-92108369D01*
X140689914Y-92087983D01*
X140738197Y-92030043D01*
X140753219Y-91919528D01*
X140738197Y-91805794D01*
X140689914Y-91745708D01*
X140631974Y-91725322D01*
X140557940Y-91722103D01*
X139961373Y-91722103D01*
X140695279Y-91166309D01*
X140741416Y-91103004D01*
X140753219Y-90992489D01*
X140738197Y-90878755D01*
X140689914Y-90818670D01*
X140631974Y-90798283D01*
X140557940Y-90795064D01*
X139450644Y-90795064D01*
X139376609Y-90798283D01*
X139317597Y-90818670D01*
X139268240Y-90878755D01*
X139253219Y-90990343D01*
X139225143Y-90990343D01*
X139225143Y-90108369D01*
X139251073Y-90108369D01*
X139251073Y-90477468D01*
X139265021Y-90591202D01*
X139313305Y-90651288D01*
X139372318Y-90671674D01*
X139444206Y-90674893D01*
X140553648Y-90674893D01*
X140629828Y-90669528D01*
X140689914Y-90646996D01*
X140736052Y-90587983D01*
X140751073Y-90479614D01*
X140751073Y-90114807D01*
X140737192Y-89963922D01*
X140695547Y-89824571D01*
X140626140Y-89696754D01*
X140528970Y-89580472D01*
X140412218Y-89483771D01*
X140284067Y-89414700D01*
X140144514Y-89373256D01*
X139993562Y-89359442D01*
X139846567Y-89373256D01*
X139710300Y-89414700D01*
X139584764Y-89483771D01*
X139469957Y-89580472D01*
X139374195Y-89696352D01*
X139305794Y-89822961D01*
X139264753Y-89960300D01*
X139251073Y-90108369D01*
X139225143Y-90108369D01*
X139225143Y-89359442D01*
X139225143Y-89359263D01*
X139240032Y-89208096D01*
X139284126Y-89062738D01*
X139355730Y-88928776D01*
X139452093Y-88811357D01*
X139569513Y-88714993D01*
X139703475Y-88643389D01*
X139848833Y-88599295D01*
X140000000Y-88584406D01*
X140151167Y-88599295D01*
X140296525Y-88643389D01*
X140430487Y-88714993D01*
X140547907Y-88811357D01*
X140644270Y-88928776D01*
X140715874Y-89062738D01*
X140759968Y-89208096D01*
X140774857Y-89359263D01*
X140774857Y-89359442D01*
X140774857Y-90479614D01*
X140774857Y-91919528D01*
G37*
%TO.C,kibuzzard-6A2424EE*%
G36*
X135780222Y-92789700D02*
G01*
X135780222Y-93285408D01*
X135780222Y-93285587D01*
X135765230Y-93437800D01*
X135720831Y-93584164D01*
X135648731Y-93719055D01*
X135551700Y-93837287D01*
X135433468Y-93934317D01*
X135298578Y-94006417D01*
X135152214Y-94050817D01*
X135000000Y-94065808D01*
X134847786Y-94050817D01*
X134701422Y-94006417D01*
X134566532Y-93934317D01*
X134448300Y-93837287D01*
X134351269Y-93719055D01*
X134279169Y-93584164D01*
X134234770Y-93437800D01*
X134219778Y-93285587D01*
X134219778Y-93285408D01*
X134219778Y-92984979D01*
X134245708Y-92984979D01*
X134265021Y-93086910D01*
X134321888Y-93146996D01*
X134380901Y-93171674D01*
X134440987Y-93182403D01*
X135050429Y-93261803D01*
X135112661Y-93234979D01*
X135177039Y-93139485D01*
X135219957Y-93000000D01*
X135168455Y-92879828D01*
X135138412Y-92796137D01*
X135173820Y-92701717D01*
X135262876Y-92663090D01*
X135353004Y-92699571D01*
X135385193Y-92802575D01*
X135350858Y-92927039D01*
X135280043Y-93072961D01*
X135353004Y-93206009D01*
X135498927Y-93285408D01*
X135629828Y-93203863D01*
X135668455Y-93158798D01*
X135742489Y-93012876D01*
X135770655Y-92905579D01*
X135780043Y-92789700D01*
X135762995Y-92650215D01*
X135711850Y-92526466D01*
X135626609Y-92418455D01*
X135516333Y-92335002D01*
X135390081Y-92284931D01*
X135247854Y-92268240D01*
X135120172Y-92285408D01*
X135003219Y-92336910D01*
X134896996Y-92422747D01*
X134812947Y-92531235D01*
X134762518Y-92650691D01*
X134745708Y-92781116D01*
X134745708Y-92791846D01*
X134750000Y-92828326D01*
X134636266Y-92813305D01*
X134636266Y-92482833D01*
X134633047Y-92414163D01*
X134613734Y-92358369D01*
X134556867Y-92312232D01*
X134449571Y-92298283D01*
X134332618Y-92313305D01*
X134272532Y-92361588D01*
X134252146Y-92419528D01*
X134247854Y-92493562D01*
X134245708Y-92984979D01*
X134219778Y-92984979D01*
X134219778Y-91894850D01*
X134241416Y-91894850D01*
X134273605Y-92055794D01*
X134375536Y-92175966D01*
X134524678Y-92154506D01*
X135642704Y-91645923D01*
X135723176Y-91572961D01*
X135750000Y-91452790D01*
X135721030Y-91342275D01*
X135642704Y-91268240D01*
X134524678Y-90759657D01*
X134376609Y-90734979D01*
X134273605Y-90858369D01*
X134242489Y-91017167D01*
X134363734Y-91118026D01*
X135198498Y-91457082D01*
X134363734Y-91796137D01*
X134241416Y-91894850D01*
X134219778Y-91894850D01*
X134219778Y-90714592D01*
X134219778Y-90714413D01*
X134234770Y-90562200D01*
X134279169Y-90415836D01*
X134351269Y-90280945D01*
X134448300Y-90162713D01*
X134566532Y-90065683D01*
X134701422Y-89993583D01*
X134847786Y-89949183D01*
X135000000Y-89934192D01*
X135152214Y-89949183D01*
X135298578Y-89993583D01*
X135433468Y-90065683D01*
X135551700Y-90162713D01*
X135648731Y-90280945D01*
X135720831Y-90415836D01*
X135765230Y-90562200D01*
X135780222Y-90714413D01*
X135780222Y-90714592D01*
X135780222Y-91452790D01*
X135780222Y-92789700D01*
G37*
%TO.C,kibuzzard-6A24252A*%
G36*
X129273784Y-91894850D02*
G01*
X129273784Y-93283262D01*
X129273784Y-93841202D01*
X129273784Y-93841381D01*
X129258916Y-93992338D01*
X129214883Y-94137495D01*
X129143378Y-94271272D01*
X129047148Y-94388528D01*
X128929891Y-94484758D01*
X128796114Y-94556264D01*
X128650958Y-94600296D01*
X128500000Y-94615165D01*
X128349042Y-94600296D01*
X128203886Y-94556264D01*
X128070109Y-94484758D01*
X127952852Y-94388528D01*
X127856622Y-94271272D01*
X127785117Y-94137495D01*
X127741084Y-93992338D01*
X127726216Y-93841381D01*
X127726216Y-93841202D01*
X127726216Y-93302575D01*
X127726395Y-93302575D01*
X127740820Y-93440153D01*
X127784096Y-93561040D01*
X127856223Y-93665236D01*
X127950286Y-93745112D01*
X128059371Y-93793038D01*
X128183476Y-93809013D01*
X128322961Y-93791845D01*
X128438841Y-93740343D01*
X128531116Y-93654506D01*
X128599785Y-93534335D01*
X128629024Y-93453058D01*
X128656652Y-93350858D01*
X128707082Y-93182403D01*
X128773605Y-93126609D01*
X128873391Y-93165236D01*
X128904506Y-93291845D01*
X128884120Y-93376609D01*
X128805794Y-93463519D01*
X128727587Y-93560324D01*
X128713281Y-93653314D01*
X128762876Y-93742489D01*
X128900215Y-93832618D01*
X129039700Y-93778970D01*
X129054721Y-93766094D01*
X129084764Y-93742489D01*
X129122318Y-93704936D01*
X129164163Y-93653433D01*
X129204936Y-93586910D01*
X129240343Y-93504292D01*
X129263948Y-93403433D01*
X129273605Y-93283262D01*
X129257511Y-93140558D01*
X129202790Y-92993562D01*
X129107296Y-92861588D01*
X128962446Y-92768240D01*
X128869635Y-92740880D01*
X128767167Y-92731760D01*
X128606760Y-92751878D01*
X128490343Y-92812232D01*
X128408798Y-92906384D01*
X128353004Y-93027897D01*
X128319742Y-93165236D01*
X128292918Y-93296137D01*
X128255365Y-93380901D01*
X128185622Y-93418455D01*
X128120172Y-93384120D01*
X128093348Y-93304721D01*
X128100858Y-93233906D01*
X128116953Y-93192060D01*
X128141631Y-93162017D01*
X128162017Y-93137339D01*
X128201717Y-92993562D01*
X128097639Y-92866953D01*
X127965665Y-92815451D01*
X127855150Y-92892704D01*
X127783619Y-93004053D01*
X127740701Y-93140677D01*
X127726395Y-93302575D01*
X127726216Y-93302575D01*
X127726216Y-91888412D01*
X127734979Y-91888412D01*
X127741416Y-91983101D01*
X127760730Y-92082618D01*
X127794796Y-92185622D01*
X127845494Y-92290773D01*
X127910944Y-92391363D01*
X127989270Y-92480687D01*
X128085569Y-92556867D01*
X128204936Y-92618026D01*
X128342275Y-92658262D01*
X128492489Y-92671674D01*
X128648605Y-92657994D01*
X128790773Y-92616953D01*
X128913895Y-92554989D01*
X129012876Y-92478541D01*
X129093348Y-92389217D01*
X129160944Y-92288627D01*
X129213251Y-92184013D01*
X129247854Y-92082618D01*
X129267167Y-91985783D01*
X129273605Y-91894850D01*
X129260253Y-91756080D01*
X129220196Y-91623033D01*
X129153433Y-91495708D01*
X129087983Y-91407725D01*
X129009657Y-91377682D01*
X128885193Y-91424893D01*
X128793455Y-91502146D01*
X128762876Y-91575107D01*
X128805794Y-91682403D01*
X128858906Y-91790236D01*
X128876609Y-91903433D01*
X128842275Y-92066524D01*
X128794260Y-92144045D01*
X128718884Y-92213519D01*
X128620440Y-92262607D01*
X128503219Y-92278970D01*
X128412017Y-92269850D01*
X128331545Y-92242489D01*
X128214592Y-92146996D01*
X128151288Y-92025751D01*
X128129828Y-91903433D01*
X128131974Y-91851931D01*
X128139485Y-91809013D01*
X128148069Y-91774678D01*
X128158798Y-91745708D01*
X128170601Y-91725322D01*
X128182403Y-91707082D01*
X128192060Y-91693133D01*
X128241416Y-91577253D01*
X128212446Y-91503219D01*
X128125536Y-91422747D01*
X128005365Y-91375536D01*
X127940987Y-91395923D01*
X127895923Y-91435622D01*
X127855150Y-91493562D01*
X127788388Y-91628994D01*
X127748331Y-91760610D01*
X127734979Y-91888412D01*
X127726216Y-91888412D01*
X127726216Y-91042918D01*
X127750000Y-91042918D01*
X127765021Y-91156652D01*
X127814378Y-91216738D01*
X127873391Y-91237124D01*
X127945279Y-91240343D01*
X129054721Y-91240343D01*
X129128755Y-91237124D01*
X129187768Y-91216738D01*
X129237124Y-91156652D01*
X129252146Y-91045064D01*
X129252146Y-90326180D01*
X129248927Y-90265021D01*
X129230687Y-90213519D01*
X129179185Y-90171674D01*
X129084764Y-90158798D01*
X128988197Y-90171674D01*
X128937768Y-90213519D01*
X128920601Y-90262876D01*
X128917382Y-90324034D01*
X128917382Y-90847639D01*
X127947425Y-90847639D01*
X127873391Y-90850858D01*
X127814378Y-90871245D01*
X127765021Y-90931330D01*
X127750000Y-91042918D01*
X127726216Y-91042918D01*
X127726216Y-90158798D01*
X127726216Y-90158619D01*
X127741084Y-90007662D01*
X127785117Y-89862505D01*
X127856622Y-89728728D01*
X127952852Y-89611472D01*
X128070109Y-89515242D01*
X128203886Y-89443736D01*
X128349042Y-89399704D01*
X128500000Y-89384835D01*
X128650958Y-89399704D01*
X128796114Y-89443736D01*
X128929891Y-89515242D01*
X129047148Y-89611472D01*
X129143378Y-89728728D01*
X129214883Y-89862505D01*
X129258916Y-90007662D01*
X129273784Y-90158619D01*
X129273784Y-90158798D01*
X129273784Y-91045064D01*
X129273784Y-91894850D01*
G37*
%TO.C,kibuzzard-6A24251B*%
G36*
X124280222Y-92642704D02*
G01*
X124280222Y-93479614D01*
X124280222Y-94037554D01*
X124280222Y-94037732D01*
X124265230Y-94189946D01*
X124220831Y-94336310D01*
X124148731Y-94471200D01*
X124051700Y-94589433D01*
X123933468Y-94686463D01*
X123798578Y-94758563D01*
X123652214Y-94802962D01*
X123500000Y-94817954D01*
X123347786Y-94802962D01*
X123201422Y-94758563D01*
X123066532Y-94686463D01*
X122948300Y-94589433D01*
X122851269Y-94471200D01*
X122779169Y-94336310D01*
X122734770Y-94189946D01*
X122719778Y-94037732D01*
X122719778Y-94037554D01*
X122719778Y-93498927D01*
X122719957Y-93498927D01*
X122734382Y-93636505D01*
X122777659Y-93757392D01*
X122849785Y-93861588D01*
X122943848Y-93941464D01*
X123052933Y-93989390D01*
X123177039Y-94005365D01*
X123316524Y-93988197D01*
X123432403Y-93936695D01*
X123524678Y-93850858D01*
X123593348Y-93730687D01*
X123622586Y-93649410D01*
X123650215Y-93547210D01*
X123700644Y-93378755D01*
X123767167Y-93322961D01*
X123866953Y-93361588D01*
X123898069Y-93488197D01*
X123877682Y-93572961D01*
X123799356Y-93659871D01*
X123721149Y-93756676D01*
X123706843Y-93849666D01*
X123756438Y-93938841D01*
X123893777Y-94028970D01*
X124033262Y-93975322D01*
X124048283Y-93962446D01*
X124078326Y-93938841D01*
X124115880Y-93901288D01*
X124157725Y-93849785D01*
X124198498Y-93783262D01*
X124233906Y-93700644D01*
X124257511Y-93599785D01*
X124267167Y-93479614D01*
X124251073Y-93336910D01*
X124196352Y-93189914D01*
X124100858Y-93057940D01*
X123956009Y-92964592D01*
X123863197Y-92937232D01*
X123760730Y-92928112D01*
X123600322Y-92948230D01*
X123483906Y-93008584D01*
X123402361Y-93102736D01*
X123346567Y-93224249D01*
X123313305Y-93361588D01*
X123286481Y-93492489D01*
X123248927Y-93577253D01*
X123179185Y-93614807D01*
X123113734Y-93580472D01*
X123086910Y-93501073D01*
X123094421Y-93430258D01*
X123110515Y-93388412D01*
X123135193Y-93358369D01*
X123155579Y-93333691D01*
X123195279Y-93189914D01*
X123091202Y-93063305D01*
X122959227Y-93011803D01*
X122848712Y-93089056D01*
X122777182Y-93200405D01*
X122734263Y-93337029D01*
X122719957Y-93498927D01*
X122719778Y-93498927D01*
X122719778Y-92271459D01*
X122743562Y-92271459D01*
X122743562Y-92640558D01*
X122757511Y-92754292D01*
X122805794Y-92814378D01*
X122864807Y-92834764D01*
X122936695Y-92837983D01*
X124046137Y-92837983D01*
X124122318Y-92832618D01*
X124182403Y-92810086D01*
X124228541Y-92751073D01*
X124243562Y-92642704D01*
X124243562Y-92277897D01*
X124229681Y-92127012D01*
X124188036Y-91987661D01*
X124118629Y-91859844D01*
X124021459Y-91743562D01*
X123904708Y-91646862D01*
X123776556Y-91577790D01*
X123637004Y-91536347D01*
X123486052Y-91522532D01*
X123339056Y-91536347D01*
X123202790Y-91577790D01*
X123077253Y-91646862D01*
X122962446Y-91743562D01*
X122866685Y-91859442D01*
X122798283Y-91986052D01*
X122757242Y-92123391D01*
X122743562Y-92271459D01*
X122719778Y-92271459D01*
X122719778Y-90728541D01*
X122743562Y-90728541D01*
X122774678Y-90833691D01*
X122857296Y-90908798D01*
X123973176Y-91447425D01*
X124124464Y-91475322D01*
X124228541Y-91355150D01*
X124259657Y-91198498D01*
X124140558Y-91091202D01*
X123934549Y-90992489D01*
X123934549Y-90464592D01*
X124138412Y-90365880D01*
X124261803Y-90260730D01*
X124230687Y-90101931D01*
X124125536Y-89982833D01*
X123973176Y-90011803D01*
X122859442Y-90550429D01*
X122772532Y-90623927D01*
X122743562Y-90728541D01*
X122719778Y-90728541D01*
X122719778Y-89962446D01*
X122719778Y-89962268D01*
X122734770Y-89810054D01*
X122779169Y-89663690D01*
X122851269Y-89528800D01*
X122948300Y-89410567D01*
X123066532Y-89313537D01*
X123201422Y-89241437D01*
X123347786Y-89197038D01*
X123500000Y-89182046D01*
X123652214Y-89197038D01*
X123798578Y-89241437D01*
X123933468Y-89313537D01*
X124051700Y-89410567D01*
X124148731Y-89528800D01*
X124220831Y-89663690D01*
X124265230Y-89810054D01*
X124280222Y-89962268D01*
X124280222Y-89962446D01*
X124280222Y-90260730D01*
X124280222Y-92642704D01*
G37*
G36*
X123631706Y-91941524D02*
G01*
X123746781Y-92020386D01*
X123824839Y-92135730D01*
X123850858Y-92271459D01*
X123850858Y-92445279D01*
X123136266Y-92445279D01*
X123136266Y-92273605D01*
X123162554Y-92136266D01*
X123241416Y-92020386D01*
X123357296Y-91941524D01*
X123494635Y-91915236D01*
X123631706Y-91941524D01*
G37*
G36*
X123599785Y-90831545D02*
G01*
X123391631Y-90730687D01*
X123599785Y-90629828D01*
X123599785Y-90831545D01*
G37*
%TO.C,kibuzzard-6A2424FA*%
G36*
X119274857Y-92419528D02*
G01*
X119274857Y-93385193D01*
X119274857Y-94140558D01*
X119274857Y-94140737D01*
X119259968Y-94291904D01*
X119215874Y-94437262D01*
X119144270Y-94571224D01*
X119047907Y-94688643D01*
X118930487Y-94785007D01*
X118796525Y-94856611D01*
X118651167Y-94900705D01*
X118500000Y-94915594D01*
X118348833Y-94900705D01*
X118203475Y-94856611D01*
X118069513Y-94785007D01*
X117952093Y-94688643D01*
X117855730Y-94571224D01*
X117784126Y-94437262D01*
X117740032Y-94291904D01*
X117725143Y-94140737D01*
X117725143Y-94140558D01*
X117725143Y-93370172D01*
X117725322Y-93370172D01*
X117739203Y-93523270D01*
X117780848Y-93664968D01*
X117850255Y-93795266D01*
X117947425Y-93914163D01*
X118064042Y-94013211D01*
X118191792Y-94083959D01*
X118330673Y-94126408D01*
X118480687Y-94140558D01*
X118638010Y-94126609D01*
X118783798Y-94084764D01*
X118918053Y-94015021D01*
X119040773Y-93917382D01*
X119143106Y-93800429D01*
X119216202Y-93672747D01*
X119260059Y-93534335D01*
X119274678Y-93385193D01*
X119265379Y-93220672D01*
X119237482Y-93079041D01*
X119190987Y-92960300D01*
X119141363Y-92881438D01*
X119082618Y-92820815D01*
X118959227Y-92769313D01*
X118519313Y-92769313D01*
X118465665Y-92770386D01*
X118418455Y-92780043D01*
X118375536Y-92805794D01*
X118347639Y-92856223D01*
X118332618Y-92938841D01*
X118332618Y-93314378D01*
X118335837Y-93372318D01*
X118353004Y-93419528D01*
X118403433Y-93459227D01*
X118497854Y-93471030D01*
X118594421Y-93460300D01*
X118644850Y-93423820D01*
X118662017Y-93378755D01*
X118665236Y-93320815D01*
X118665236Y-93162017D01*
X118849785Y-93162017D01*
X118870708Y-93253219D01*
X118877682Y-93376609D01*
X118848176Y-93515558D01*
X118759657Y-93636266D01*
X118631974Y-93719957D01*
X118484979Y-93747854D01*
X118342543Y-93721030D01*
X118224249Y-93640558D01*
X118144582Y-93521996D01*
X118118026Y-93380901D01*
X118133047Y-93248391D01*
X118178112Y-93138412D01*
X118227468Y-93022532D01*
X118199034Y-92943133D01*
X118113734Y-92863734D01*
X117993562Y-92814378D01*
X117931330Y-92834764D01*
X117886266Y-92874464D01*
X117843348Y-92934549D01*
X117793723Y-93026556D01*
X117756438Y-93139485D01*
X117733101Y-93258852D01*
X117725322Y-93370172D01*
X117725143Y-93370172D01*
X117725143Y-91490343D01*
X117753219Y-91490343D01*
X117768240Y-91601931D01*
X117814378Y-91662017D01*
X117871245Y-91683476D01*
X117942060Y-91687768D01*
X118557940Y-91687768D01*
X117836910Y-92224249D01*
X117792918Y-92262876D01*
X117766094Y-92317597D01*
X117753219Y-92415236D01*
X117767167Y-92527897D01*
X117813305Y-92586910D01*
X117870172Y-92608369D01*
X117942060Y-92612661D01*
X119055794Y-92612661D01*
X119130901Y-92608369D01*
X119189914Y-92587983D01*
X119238197Y-92530043D01*
X119253219Y-92419528D01*
X119238197Y-92305794D01*
X119189914Y-92245708D01*
X119131974Y-92225322D01*
X119057940Y-92222103D01*
X118461373Y-92222103D01*
X119195279Y-91666309D01*
X119241416Y-91603004D01*
X119253219Y-91492489D01*
X119238197Y-91378755D01*
X119189914Y-91318670D01*
X119131974Y-91298283D01*
X119057940Y-91295064D01*
X117950644Y-91295064D01*
X117876609Y-91298283D01*
X117817597Y-91318670D01*
X117768240Y-91378755D01*
X117753219Y-91490343D01*
X117725143Y-91490343D01*
X117725143Y-90608369D01*
X117751073Y-90608369D01*
X117751073Y-90977468D01*
X117765021Y-91091202D01*
X117813305Y-91151288D01*
X117872318Y-91171674D01*
X117944206Y-91174893D01*
X119053648Y-91174893D01*
X119129828Y-91169528D01*
X119189914Y-91146996D01*
X119236052Y-91087983D01*
X119251073Y-90979614D01*
X119251073Y-90614807D01*
X119237192Y-90463922D01*
X119195547Y-90324571D01*
X119126140Y-90196754D01*
X119028970Y-90080472D01*
X118912218Y-89983771D01*
X118784067Y-89914700D01*
X118644514Y-89873256D01*
X118493562Y-89859442D01*
X118346567Y-89873256D01*
X118210300Y-89914700D01*
X118084764Y-89983771D01*
X117969957Y-90080472D01*
X117874195Y-90196352D01*
X117805794Y-90322961D01*
X117764753Y-90460300D01*
X117751073Y-90608369D01*
X117725143Y-90608369D01*
X117725143Y-89859442D01*
X117725143Y-89859263D01*
X117740032Y-89708096D01*
X117784126Y-89562738D01*
X117855730Y-89428776D01*
X117952093Y-89311357D01*
X118069513Y-89214993D01*
X118203475Y-89143389D01*
X118348833Y-89099295D01*
X118500000Y-89084406D01*
X118651167Y-89099295D01*
X118796525Y-89143389D01*
X118930487Y-89214993D01*
X119047907Y-89311357D01*
X119144270Y-89428776D01*
X119215874Y-89562738D01*
X119259968Y-89708096D01*
X119274857Y-89859263D01*
X119274857Y-89859442D01*
X119274857Y-90979614D01*
X119274857Y-92419528D01*
G37*
G36*
X118639217Y-90278433D02*
G01*
X118754292Y-90357296D01*
X118832350Y-90472639D01*
X118858369Y-90608369D01*
X118858369Y-90782189D01*
X118143777Y-90782189D01*
X118143777Y-90610515D01*
X118170064Y-90473176D01*
X118248927Y-90357296D01*
X118364807Y-90278433D01*
X118502146Y-90252146D01*
X118639217Y-90278433D01*
G37*
%TO.C,kibuzzard-6A2424EE*%
G36*
X114280222Y-93289700D02*
G01*
X114280222Y-93785408D01*
X114280222Y-93785587D01*
X114265230Y-93937800D01*
X114220831Y-94084164D01*
X114148731Y-94219055D01*
X114051700Y-94337287D01*
X113933468Y-94434317D01*
X113798578Y-94506417D01*
X113652214Y-94550817D01*
X113500000Y-94565808D01*
X113347786Y-94550817D01*
X113201422Y-94506417D01*
X113066532Y-94434317D01*
X112948300Y-94337287D01*
X112851269Y-94219055D01*
X112779169Y-94084164D01*
X112734770Y-93937800D01*
X112719778Y-93785587D01*
X112719778Y-93785408D01*
X112719778Y-93484979D01*
X112745708Y-93484979D01*
X112765021Y-93586910D01*
X112821888Y-93646996D01*
X112880901Y-93671674D01*
X112940987Y-93682403D01*
X113550429Y-93761803D01*
X113612661Y-93734979D01*
X113677039Y-93639485D01*
X113719957Y-93500000D01*
X113668455Y-93379828D01*
X113638412Y-93296137D01*
X113673820Y-93201717D01*
X113762876Y-93163090D01*
X113853004Y-93199571D01*
X113885193Y-93302575D01*
X113850858Y-93427039D01*
X113780043Y-93572961D01*
X113853004Y-93706009D01*
X113998927Y-93785408D01*
X114129828Y-93703863D01*
X114168455Y-93658798D01*
X114242489Y-93512876D01*
X114270655Y-93405579D01*
X114280043Y-93289700D01*
X114262995Y-93150215D01*
X114211850Y-93026466D01*
X114126609Y-92918455D01*
X114016333Y-92835002D01*
X113890081Y-92784931D01*
X113747854Y-92768240D01*
X113620172Y-92785408D01*
X113503219Y-92836910D01*
X113396996Y-92922747D01*
X113312947Y-93031235D01*
X113262518Y-93150691D01*
X113245708Y-93281116D01*
X113245708Y-93291846D01*
X113250000Y-93328326D01*
X113136266Y-93313305D01*
X113136266Y-92982833D01*
X113133047Y-92914163D01*
X113113734Y-92858369D01*
X113056867Y-92812232D01*
X112949571Y-92798283D01*
X112832618Y-92813305D01*
X112772532Y-92861588D01*
X112752146Y-92919528D01*
X112747854Y-92993562D01*
X112745708Y-93484979D01*
X112719778Y-93484979D01*
X112719778Y-92394850D01*
X112741416Y-92394850D01*
X112773605Y-92555794D01*
X112875536Y-92675966D01*
X113024678Y-92654506D01*
X114142704Y-92145923D01*
X114223176Y-92072961D01*
X114250000Y-91952790D01*
X114221030Y-91842275D01*
X114142704Y-91768240D01*
X113024678Y-91259657D01*
X112876609Y-91234979D01*
X112773605Y-91358369D01*
X112742489Y-91517167D01*
X112863734Y-91618026D01*
X113698498Y-91957082D01*
X112863734Y-92296137D01*
X112741416Y-92394850D01*
X112719778Y-92394850D01*
X112719778Y-91214592D01*
X112719778Y-91214413D01*
X112734770Y-91062200D01*
X112779169Y-90915836D01*
X112851269Y-90780945D01*
X112948300Y-90662713D01*
X113066532Y-90565683D01*
X113201422Y-90493583D01*
X113347786Y-90449183D01*
X113500000Y-90434192D01*
X113652214Y-90449183D01*
X113798578Y-90493583D01*
X113933468Y-90565683D01*
X114051700Y-90662713D01*
X114148731Y-90780945D01*
X114220831Y-90915836D01*
X114265230Y-91062200D01*
X114280222Y-91214413D01*
X114280222Y-91214592D01*
X114280222Y-91952790D01*
X114280222Y-93289700D01*
G37*
%TO.C,kibuzzard-6A2424E2*%
G36*
X108781295Y-91996781D02*
G01*
X108781295Y-92962446D01*
X108781295Y-93717811D01*
X108781295Y-93717990D01*
X108766282Y-93870413D01*
X108721822Y-94016979D01*
X108649623Y-94152054D01*
X108552459Y-94270449D01*
X108434064Y-94367613D01*
X108298989Y-94439812D01*
X108152423Y-94484272D01*
X108000000Y-94499285D01*
X107847577Y-94484272D01*
X107701011Y-94439812D01*
X107565936Y-94367613D01*
X107447541Y-94270449D01*
X107350377Y-94152054D01*
X107278178Y-94016979D01*
X107233718Y-93870413D01*
X107218705Y-93717990D01*
X107218705Y-93717811D01*
X107218705Y-92947425D01*
X107218884Y-92947425D01*
X107232766Y-93100523D01*
X107274410Y-93242221D01*
X107343817Y-93372519D01*
X107440987Y-93491416D01*
X107557605Y-93590464D01*
X107685354Y-93661212D01*
X107824236Y-93703661D01*
X107974249Y-93717811D01*
X108131572Y-93703863D01*
X108277361Y-93662017D01*
X108411615Y-93592275D01*
X108534335Y-93494635D01*
X108636668Y-93377682D01*
X108709764Y-93250000D01*
X108753621Y-93111588D01*
X108768240Y-92962446D01*
X108758941Y-92797926D01*
X108731044Y-92656295D01*
X108684549Y-92537554D01*
X108634925Y-92458691D01*
X108576180Y-92398069D01*
X108452790Y-92346567D01*
X108012876Y-92346567D01*
X107959227Y-92347639D01*
X107912017Y-92357296D01*
X107869099Y-92383047D01*
X107841202Y-92433476D01*
X107826180Y-92516094D01*
X107826180Y-92891631D01*
X107829399Y-92949571D01*
X107846567Y-92996781D01*
X107896996Y-93036481D01*
X107991416Y-93048283D01*
X108087983Y-93037554D01*
X108138412Y-93001073D01*
X108155579Y-92956009D01*
X108158798Y-92898069D01*
X108158798Y-92739270D01*
X108343348Y-92739270D01*
X108364270Y-92830472D01*
X108371245Y-92953863D01*
X108341738Y-93092811D01*
X108253219Y-93213519D01*
X108125536Y-93297210D01*
X107978541Y-93325107D01*
X107836105Y-93298283D01*
X107717811Y-93217811D01*
X107638144Y-93099249D01*
X107611588Y-92958154D01*
X107626609Y-92825644D01*
X107671674Y-92715665D01*
X107721030Y-92599785D01*
X107692597Y-92520386D01*
X107607296Y-92440987D01*
X107487124Y-92391631D01*
X107424893Y-92412017D01*
X107379828Y-92451717D01*
X107336910Y-92511803D01*
X107287285Y-92603809D01*
X107250000Y-92716738D01*
X107226663Y-92836105D01*
X107218884Y-92947425D01*
X107218705Y-92947425D01*
X107218705Y-91067597D01*
X107246781Y-91067597D01*
X107261803Y-91179185D01*
X107307940Y-91239270D01*
X107364807Y-91260730D01*
X107435622Y-91265021D01*
X108051502Y-91265021D01*
X107330472Y-91801502D01*
X107286481Y-91840129D01*
X107259657Y-91894850D01*
X107246781Y-91992489D01*
X107260730Y-92105150D01*
X107306867Y-92164163D01*
X107363734Y-92185622D01*
X107435622Y-92189914D01*
X108549356Y-92189914D01*
X108624464Y-92185622D01*
X108683476Y-92165236D01*
X108731760Y-92107296D01*
X108746781Y-91996781D01*
X108731760Y-91883047D01*
X108683476Y-91822961D01*
X108625536Y-91802575D01*
X108551502Y-91799356D01*
X107954936Y-91799356D01*
X108688841Y-91243562D01*
X108734979Y-91180257D01*
X108746781Y-91069742D01*
X108731760Y-90956009D01*
X108683476Y-90895923D01*
X108625536Y-90875536D01*
X108551502Y-90872318D01*
X107444206Y-90872318D01*
X107370172Y-90875536D01*
X107311159Y-90895923D01*
X107261803Y-90956009D01*
X107246781Y-91067597D01*
X107218705Y-91067597D01*
X107218705Y-90048283D01*
X107244635Y-90048283D01*
X107275751Y-90153433D01*
X107358369Y-90228541D01*
X108474249Y-90767167D01*
X108625536Y-90795064D01*
X108729614Y-90674893D01*
X108760730Y-90518240D01*
X108641631Y-90410944D01*
X108435622Y-90312232D01*
X108435622Y-89784335D01*
X108639485Y-89685622D01*
X108762876Y-89580472D01*
X108731760Y-89421674D01*
X108626609Y-89302575D01*
X108474249Y-89331545D01*
X107360515Y-89870172D01*
X107273605Y-89943670D01*
X107244635Y-90048283D01*
X107218705Y-90048283D01*
X107218705Y-89282189D01*
X107218705Y-89282010D01*
X107233718Y-89129587D01*
X107278178Y-88983021D01*
X107350377Y-88847946D01*
X107447541Y-88729551D01*
X107565936Y-88632387D01*
X107701011Y-88560188D01*
X107847577Y-88515728D01*
X108000000Y-88500715D01*
X108152423Y-88515728D01*
X108298989Y-88560188D01*
X108434064Y-88632387D01*
X108552459Y-88729551D01*
X108649623Y-88847946D01*
X108721822Y-88983021D01*
X108766282Y-89129587D01*
X108781295Y-89282010D01*
X108781295Y-89282189D01*
X108781295Y-89580472D01*
X108781295Y-91996781D01*
G37*
G36*
X108100858Y-90151288D02*
G01*
X107892704Y-90050429D01*
X108100858Y-89949571D01*
X108100858Y-90151288D01*
G37*
%TO.C,kibuzzard-6A2423C2*%
G36*
X98768419Y-92540773D02*
G01*
X98768419Y-93774678D01*
X98768419Y-93774857D01*
X98753654Y-93924768D01*
X98709927Y-94068918D01*
X98638917Y-94201768D01*
X98543354Y-94318211D01*
X98426911Y-94413774D01*
X98294061Y-94484784D01*
X98149911Y-94528511D01*
X98000000Y-94543276D01*
X97850089Y-94528511D01*
X97705939Y-94484784D01*
X97573089Y-94413774D01*
X97456646Y-94318211D01*
X97361083Y-94201768D01*
X97290073Y-94068918D01*
X97246346Y-93924768D01*
X97231581Y-93774857D01*
X97231581Y-93774678D01*
X97231581Y-93008584D01*
X97231760Y-93008584D01*
X97262876Y-93113734D01*
X97345494Y-93188841D01*
X98461373Y-93727468D01*
X98612661Y-93755365D01*
X98716738Y-93635193D01*
X98747854Y-93478541D01*
X98628755Y-93371245D01*
X98422747Y-93272532D01*
X98422747Y-92744635D01*
X98626609Y-92645923D01*
X98750000Y-92540773D01*
X98718884Y-92381974D01*
X98613734Y-92262876D01*
X98461373Y-92291846D01*
X97347639Y-92830472D01*
X97260730Y-92903970D01*
X97231760Y-93008584D01*
X97231581Y-93008584D01*
X97231581Y-91718884D01*
X97673820Y-91718884D01*
X97686695Y-91821888D01*
X97729614Y-91875536D01*
X97782189Y-91893777D01*
X97847639Y-91896996D01*
X97989270Y-91896996D01*
X97989270Y-92036481D01*
X97992489Y-92103004D01*
X98010730Y-92157725D01*
X98064378Y-92202790D01*
X98167382Y-92216738D01*
X98270386Y-92203863D01*
X98324034Y-92162017D01*
X98342275Y-92112661D01*
X98345494Y-92051502D01*
X98345494Y-91896996D01*
X98484979Y-91896996D01*
X98550429Y-91893777D01*
X98604077Y-91875536D01*
X98649142Y-91821888D01*
X98663090Y-91721030D01*
X98649142Y-91618026D01*
X98605150Y-91564378D01*
X98552575Y-91546137D01*
X98487124Y-91542918D01*
X98345494Y-91542918D01*
X98345494Y-91390558D01*
X98342275Y-91329399D01*
X98324034Y-91280043D01*
X98270386Y-91238197D01*
X98169528Y-91225322D01*
X98065451Y-91239270D01*
X98010730Y-91283262D01*
X97992489Y-91335837D01*
X97989270Y-91401288D01*
X97989270Y-91542918D01*
X97849785Y-91542918D01*
X97784335Y-91546137D01*
X97731760Y-91564378D01*
X97687768Y-91618026D01*
X97673820Y-91718884D01*
X97231581Y-91718884D01*
X97231581Y-91225322D01*
X97231581Y-91225143D01*
X97246346Y-91075232D01*
X97290073Y-90931082D01*
X97361083Y-90798232D01*
X97456646Y-90681789D01*
X97573089Y-90586226D01*
X97705939Y-90515216D01*
X97850089Y-90471489D01*
X98000000Y-90456724D01*
X98149911Y-90471489D01*
X98294061Y-90515216D01*
X98426911Y-90586226D01*
X98543354Y-90681789D01*
X98638917Y-90798232D01*
X98709927Y-90931082D01*
X98753654Y-91075232D01*
X98768419Y-91225143D01*
X98768419Y-91225322D01*
X98768419Y-91721030D01*
X98768419Y-92540773D01*
G37*
G36*
X98087983Y-93111588D02*
G01*
X97879828Y-93010730D01*
X98087983Y-92909871D01*
X98087983Y-93111588D01*
G37*
%TO.C,kibuzzard-6A2423AA*%
G36*
X103751252Y-93350858D02*
G01*
X103751252Y-93546137D01*
X103751252Y-93546316D01*
X103736817Y-93692878D01*
X103694066Y-93833808D01*
X103624643Y-93963689D01*
X103531215Y-94077531D01*
X103417373Y-94170959D01*
X103287492Y-94240382D01*
X103146562Y-94283133D01*
X103000000Y-94297568D01*
X102853438Y-94283133D01*
X102712508Y-94240382D01*
X102582627Y-94170959D01*
X102468785Y-94077531D01*
X102375357Y-93963689D01*
X102305934Y-93833808D01*
X102263183Y-93692878D01*
X102248748Y-93546316D01*
X102248748Y-93546137D01*
X102248748Y-92846567D01*
X102248927Y-92846567D01*
X102248927Y-93348712D01*
X102263948Y-93462446D01*
X102313305Y-93522532D01*
X102372318Y-93542918D01*
X102444206Y-93546137D01*
X103551502Y-93546137D01*
X103626609Y-93542918D01*
X103686695Y-93522532D01*
X103736052Y-93462446D01*
X103751073Y-93350858D01*
X103751073Y-92825107D01*
X103735336Y-92701001D01*
X103688126Y-92589056D01*
X103609442Y-92489270D01*
X103508107Y-92410944D01*
X103392942Y-92363376D01*
X103263948Y-92346567D01*
X103099249Y-92375000D01*
X102948498Y-92460300D01*
X102833691Y-92407189D01*
X102708155Y-92389485D01*
X102589294Y-92404268D01*
X102481640Y-92448617D01*
X102385193Y-92522532D01*
X102309490Y-92617668D01*
X102264068Y-92725680D01*
X102248927Y-92846567D01*
X102248748Y-92846567D01*
X102248748Y-91608369D01*
X102710300Y-91608369D01*
X102710300Y-92119099D01*
X102729614Y-92222103D01*
X102781116Y-92262876D01*
X102877682Y-92275751D01*
X102976395Y-92265021D01*
X103031116Y-92217275D01*
X103049356Y-92121245D01*
X103049356Y-91610515D01*
X103030043Y-91503219D01*
X102977468Y-91465665D01*
X102879828Y-91453863D01*
X102781116Y-91466738D01*
X102728004Y-91512876D01*
X102710300Y-91608369D01*
X102248748Y-91608369D01*
X102248748Y-91453863D01*
X102248748Y-91453684D01*
X102263183Y-91307122D01*
X102305934Y-91166192D01*
X102375357Y-91036311D01*
X102468785Y-90922469D01*
X102582627Y-90829041D01*
X102712508Y-90759618D01*
X102853438Y-90716867D01*
X103000000Y-90702432D01*
X103146562Y-90716867D01*
X103287492Y-90759618D01*
X103417373Y-90829041D01*
X103531215Y-90922469D01*
X103624643Y-91036311D01*
X103694066Y-91166192D01*
X103736817Y-91307122D01*
X103751252Y-91453684D01*
X103751252Y-91453863D01*
X103751252Y-91610515D01*
X103751252Y-93350858D01*
G37*
G36*
X103307940Y-92751073D02*
G01*
X103344421Y-92783262D01*
X103356223Y-92816524D01*
X103358369Y-92846567D01*
X103358369Y-93153433D01*
X102641631Y-93153433D01*
X102641631Y-92893777D01*
X102658798Y-92804721D01*
X102725322Y-92782189D01*
X102791845Y-92797210D01*
X102806867Y-92848712D01*
X102806867Y-92874464D01*
X102842275Y-93005365D01*
X102965665Y-93043991D01*
X103093348Y-93007511D01*
X103130901Y-92885193D01*
X103130901Y-92857296D01*
X103151288Y-92767167D01*
X103240343Y-92739270D01*
X103307940Y-92751073D01*
G37*
%TO.C,U1*%
D11*
X134910000Y-45955000D02*
X141410000Y-45955000D01*
X141410000Y-52455000D01*
X134910000Y-52455000D01*
X134910000Y-45955000D01*
X134275000Y3925000D02*
X142045000Y3925000D01*
X142045000Y-45875000D01*
X134275000Y-45875000D01*
X134275000Y3925000D01*
X88590000Y-44975000D02*
X153060000Y-44975000D01*
X153060000Y-71975000D01*
X88590000Y-71975000D01*
X88590000Y-44975000D01*
D13*
%TO.C,PWR_IN1*%
X135440000Y-105330000D02*
X134560000Y-105330000D01*
X135000000Y-104720000D01*
X135440000Y-105330000D01*
G36*
X135440000Y-105330000D02*
G01*
X134560000Y-105330000D01*
X135000000Y-104720000D01*
X135440000Y-105330000D01*
G37*
X142740000Y-104720000D02*
X135300000Y-104720000D01*
X142740000Y-94680000D02*
X142740000Y-104720000D01*
X134700000Y-104720000D02*
X132340000Y-104720000D01*
X132340000Y-104720000D02*
X132340000Y-94680000D01*
X132340000Y-104100000D02*
X142740000Y-104100000D01*
X132340000Y-102600000D02*
X142740000Y-102600000D01*
X132340000Y-97700000D02*
X142740000Y-97700000D01*
X132340000Y-94680000D02*
X142740000Y-94680000D01*
%TO.C,C5*%
X137430000Y-80870000D02*
X137430000Y-75630000D01*
X140170000Y-80870000D02*
X137430000Y-80870000D01*
X137430000Y-75630000D02*
X140170000Y-75630000D01*
X140170000Y-75630000D02*
X140170000Y-80870000D01*
%TO.C,MODBUS_OUT1*%
X98505000Y-105330000D02*
X97625000Y-105330000D01*
X98065000Y-104720000D01*
X98505000Y-105330000D01*
G36*
X98505000Y-105330000D02*
G01*
X97625000Y-105330000D01*
X98065000Y-104720000D01*
X98505000Y-105330000D01*
G37*
X131205000Y-104720000D02*
X98365000Y-104720000D01*
X131205000Y-94680000D02*
X131205000Y-104720000D01*
X97765000Y-104720000D02*
X95405000Y-104720000D01*
X95405000Y-104720000D02*
X95405000Y-94680000D01*
X95405000Y-104100000D02*
X131205000Y-104100000D01*
X95405000Y-102600000D02*
X131205000Y-102600000D01*
X95405000Y-97700000D02*
X131205000Y-97700000D01*
X95405000Y-94680000D02*
X131205000Y-94680000D01*
%TO.C,C3*%
X141690302Y-86585000D02*
X142490302Y-86585000D01*
X142090302Y-86185000D02*
X142090302Y-86985000D01*
X146100000Y-84820000D02*
X146100000Y-92980000D01*
X146140000Y-84820000D02*
X146140000Y-92980000D01*
X146180000Y-84821000D02*
X146180000Y-92979000D01*
X146220000Y-84822000D02*
X146220000Y-92978000D01*
X146260000Y-84823000D02*
X146260000Y-92977000D01*
X146300000Y-84825000D02*
X146300000Y-92975000D01*
X146340000Y-84827000D02*
X146340000Y-92973000D01*
X146380000Y-84830000D02*
X146380000Y-92970000D01*
X146420000Y-84832000D02*
X146420000Y-92968000D01*
X146460000Y-84836000D02*
X146460000Y-92964000D01*
X146500000Y-84839000D02*
X146500000Y-92961000D01*
X146540000Y-84844000D02*
X146540000Y-92956000D01*
X146580000Y-84848000D02*
X146580000Y-92952000D01*
X146620000Y-84853000D02*
X146620000Y-92947000D01*
X146660000Y-84858000D02*
X146660000Y-92942000D01*
X146700000Y-84864000D02*
X146700000Y-92936000D01*
X146740000Y-84870000D02*
X146740000Y-92930000D01*
X146780000Y-84877000D02*
X146780000Y-92923000D01*
X146820000Y-84883000D02*
X146820000Y-92917000D01*
X146860000Y-84891000D02*
X146860000Y-92909000D01*
X146900000Y-84898000D02*
X146900000Y-92902000D01*
X146940000Y-84907000D02*
X146940000Y-92893000D01*
X146980000Y-84915000D02*
X146980000Y-92885000D01*
X147020000Y-84924000D02*
X147020000Y-92876000D01*
X147060000Y-84933000D02*
X147060000Y-92867000D01*
X147100000Y-84943000D02*
X147100000Y-92857000D01*
X147140000Y-84953000D02*
X147140000Y-92847000D01*
X147180000Y-84964000D02*
X147180000Y-92836000D01*
X147220000Y-84975000D02*
X147220000Y-92825000D01*
X147260000Y-84987000D02*
X147260000Y-92813000D01*
X147300000Y-84999000D02*
X147300000Y-92801000D01*
X147340000Y-85011000D02*
X147340000Y-92789000D01*
X147380000Y-85024000D02*
X147380000Y-92776000D01*
X147420000Y-85037000D02*
X147420000Y-92763000D01*
X147460000Y-85051000D02*
X147460000Y-92749000D01*
X147500000Y-85065000D02*
X147500000Y-92735000D01*
X147540000Y-85080000D02*
X147540000Y-92720000D01*
X147580000Y-85095000D02*
X147580000Y-87860000D01*
X147580000Y-89940000D02*
X147580000Y-92705000D01*
X147620000Y-85111000D02*
X147620000Y-87860000D01*
X147620000Y-89940000D02*
X147620000Y-92689000D01*
X147660000Y-85127000D02*
X147660000Y-87860000D01*
X147660000Y-89940000D02*
X147660000Y-92673000D01*
X147700000Y-85143000D02*
X147700000Y-87860000D01*
X147700000Y-89940000D02*
X147700000Y-92657000D01*
X147740000Y-85160000D02*
X147740000Y-87860000D01*
X147740000Y-89940000D02*
X147740000Y-92640000D01*
X147780000Y-85178000D02*
X147780000Y-87860000D01*
X147780000Y-89940000D02*
X147780000Y-92622000D01*
X147820000Y-85196000D02*
X147820000Y-87860000D01*
X147820000Y-89940000D02*
X147820000Y-92604000D01*
X147860000Y-85215000D02*
X147860000Y-87860000D01*
X147860000Y-89940000D02*
X147860000Y-92585000D01*
X147900000Y-85234000D02*
X147900000Y-87860000D01*
X147900000Y-89940000D02*
X147900000Y-92566000D01*
X147940000Y-85254000D02*
X147940000Y-87860000D01*
X147940000Y-89940000D02*
X147940000Y-92546000D01*
X147980000Y-85274000D02*
X147980000Y-87860000D01*
X147980000Y-89940000D02*
X147980000Y-92526000D01*
X148020000Y-85295000D02*
X148020000Y-87860000D01*
X148020000Y-89940000D02*
X148020000Y-92505000D01*
X148060000Y-85316000D02*
X148060000Y-87860000D01*
X148060000Y-89940000D02*
X148060000Y-92484000D01*
X148100000Y-85338000D02*
X148100000Y-87860000D01*
X148100000Y-89940000D02*
X148100000Y-92462000D01*
X148140000Y-85361000D02*
X148140000Y-87860000D01*
X148140000Y-89940000D02*
X148140000Y-92439000D01*
X148180000Y-85384000D02*
X148180000Y-87860000D01*
X148180000Y-89940000D02*
X148180000Y-92416000D01*
X148220000Y-85407000D02*
X148220000Y-87860000D01*
X148220000Y-89940000D02*
X148220000Y-92393000D01*
X148260000Y-85432000D02*
X148260000Y-87860000D01*
X148260000Y-89940000D02*
X148260000Y-92368000D01*
X148300000Y-85457000D02*
X148300000Y-87860000D01*
X148300000Y-89940000D02*
X148300000Y-92343000D01*
X148340000Y-85482000D02*
X148340000Y-87860000D01*
X148340000Y-89940000D02*
X148340000Y-92318000D01*
X148380000Y-85508000D02*
X148380000Y-87860000D01*
X148380000Y-89940000D02*
X148380000Y-92292000D01*
X148420000Y-85535000D02*
X148420000Y-87860000D01*
X148420000Y-89940000D02*
X148420000Y-92265000D01*
X148460000Y-85563000D02*
X148460000Y-87860000D01*
X148460000Y-89940000D02*
X148460000Y-92237000D01*
X148500000Y-85591000D02*
X148500000Y-87860000D01*
X148500000Y-89940000D02*
X148500000Y-92209000D01*
X148540000Y-85620000D02*
X148540000Y-87860000D01*
X148540000Y-89940000D02*
X148540000Y-92180000D01*
X148580000Y-85650000D02*
X148580000Y-87860000D01*
X148580000Y-89940000D02*
X148580000Y-92150000D01*
X148620000Y-85681000D02*
X148620000Y-87860000D01*
X148620000Y-89940000D02*
X148620000Y-92119000D01*
X148660000Y-85712000D02*
X148660000Y-87860000D01*
X148660000Y-89940000D02*
X148660000Y-92088000D01*
X148700000Y-85744000D02*
X148700000Y-87860000D01*
X148700000Y-89940000D02*
X148700000Y-92056000D01*
X148740000Y-85777000D02*
X148740000Y-87860000D01*
X148740000Y-89940000D02*
X148740000Y-92023000D01*
X148780000Y-85811000D02*
X148780000Y-87860000D01*
X148780000Y-89940000D02*
X148780000Y-91989000D01*
X148820000Y-85845000D02*
X148820000Y-87860000D01*
X148820000Y-89940000D02*
X148820000Y-91955000D01*
X148860000Y-85881000D02*
X148860000Y-87860000D01*
X148860000Y-89940000D02*
X148860000Y-91919000D01*
X148900000Y-85918000D02*
X148900000Y-87860000D01*
X148900000Y-89940000D02*
X148900000Y-91882000D01*
X148940000Y-85955000D02*
X148940000Y-87860000D01*
X148940000Y-89940000D02*
X148940000Y-91845000D01*
X148980000Y-85994000D02*
X148980000Y-87860000D01*
X148980000Y-89940000D02*
X148980000Y-91806000D01*
X149020000Y-86033000D02*
X149020000Y-87860000D01*
X149020000Y-89940000D02*
X149020000Y-91767000D01*
X149060000Y-86074000D02*
X149060000Y-87860000D01*
X149060000Y-89940000D02*
X149060000Y-91726000D01*
X149100000Y-86116000D02*
X149100000Y-87860000D01*
X149100000Y-89940000D02*
X149100000Y-91684000D01*
X149140000Y-86159000D02*
X149140000Y-87860000D01*
X149140000Y-89940000D02*
X149140000Y-91641000D01*
X149180000Y-86204000D02*
X149180000Y-87860000D01*
X149180000Y-89940000D02*
X149180000Y-91596000D01*
X149220000Y-86249000D02*
X149220000Y-87860000D01*
X149220000Y-89940000D02*
X149220000Y-91551000D01*
X149260000Y-86296000D02*
X149260000Y-87860000D01*
X149260000Y-89940000D02*
X149260000Y-91504000D01*
X149300000Y-86345000D02*
X149300000Y-87860000D01*
X149300000Y-89940000D02*
X149300000Y-91455000D01*
X149340000Y-86395000D02*
X149340000Y-87860000D01*
X149340000Y-89940000D02*
X149340000Y-91405000D01*
X149380000Y-86447000D02*
X149380000Y-87860000D01*
X149380000Y-89940000D02*
X149380000Y-91353000D01*
X149420000Y-86500000D02*
X149420000Y-87860000D01*
X149420000Y-89940000D02*
X149420000Y-91300000D01*
X149460000Y-86556000D02*
X149460000Y-87860000D01*
X149460000Y-89940000D02*
X149460000Y-91244000D01*
X149500000Y-86613000D02*
X149500000Y-87860000D01*
X149500000Y-89940000D02*
X149500000Y-91187000D01*
X149540000Y-86673000D02*
X149540000Y-87860000D01*
X149540000Y-89940000D02*
X149540000Y-91127000D01*
X149580000Y-86735000D02*
X149580000Y-87860000D01*
X149580000Y-89940000D02*
X149580000Y-91065000D01*
X149620000Y-86799000D02*
X149620000Y-87860000D01*
X149620000Y-89940000D02*
X149620000Y-91001000D01*
X149660000Y-86866000D02*
X149660000Y-90934000D01*
X149700000Y-86936000D02*
X149700000Y-90864000D01*
X149740000Y-87010000D02*
X149740000Y-90790000D01*
X149780000Y-87087000D02*
X149780000Y-90713000D01*
X149820000Y-87169000D02*
X149820000Y-90631000D01*
X149860000Y-87256000D02*
X149860000Y-90544000D01*
X149900000Y-87348000D02*
X149900000Y-90452000D01*
X149940000Y-87447000D02*
X149940000Y-90353000D01*
X149980000Y-87554000D02*
X149980000Y-90246000D01*
X150020000Y-87672000D02*
X150020000Y-90128000D01*
X150060000Y-87803000D02*
X150060000Y-89997000D01*
X150100000Y-87953000D02*
X150100000Y-89847000D01*
X150140000Y-88132000D02*
X150140000Y-89668000D01*
X150180000Y-88367000D02*
X150180000Y-89433000D01*
X150220000Y-88900000D02*
G75*
G02*
X141980000Y-88900000I-4120000J0D01*
G01*
X141980000Y-88900000D02*
G75*
G02*
X150220000Y-88900000I4120000J0D01*
G01*
%TO.C,C4*%
X142132651Y-75680000D02*
X149872651Y-75680000D01*
X142132651Y-80920000D02*
X142132651Y-75680000D01*
X149872651Y-75680000D02*
X149872651Y-80920000D01*
X149872651Y-80920000D02*
X142132651Y-80920000D01*
%TO.C,U2*%
D11*
X92200000Y-75050000D02*
X135200000Y-75050000D01*
X135200000Y-90050000D01*
X92200000Y-90050000D01*
X92200000Y-75050000D01*
%TD*%
M02*
