M48
; DRILL file {KiCad 9.0.3} date 2026-01-21T10:41:07-0500
; FORMAT={-:-/ absolute / metric / decimal}
; #@! TF.CreationDate,2026-01-21T10:41:07-05:00
; #@! TF.GenerationSoftware,Kicad,Pcbnew,9.0.3
; #@! TF.FileFunction,Plated,1,2,PTH
FMAT,2
METRIC
; #@! TA.AperFunction,Plated,PTH,ViaDrill
T1C0.800
; #@! TA.AperFunction,Plated,PTH,ComponentDrill
T2C0.800
; #@! TA.AperFunction,Plated,PTH,ComponentDrill
T3C0.900
; #@! TA.AperFunction,Plated,PTH,ComponentDrill
T4C1.000
; #@! TA.AperFunction,Plated,PTH,ComponentDrill
T5C1.100
; #@! TA.AperFunction,Plated,PTH,ComponentDrill
T6C1.200
; #@! TA.AperFunction,Plated,PTH,ComponentDrill
T7C1.300
%
G90
G05
T1
X45.965Y-51.6
X47.91Y-57.44
X48.085Y-51.535
X50.4Y-44.1
X51.418Y-88.416
X53.265Y-88.525
X53.965Y-95.225
X54.4Y-61.5
X55.1Y-48.9
X59.879Y-85.111
X61.375Y-90.125
X61.505Y-62.415
X62.565Y-87.4
X62.655Y-46.365
X63.065Y-40.425
X66.065Y-40.375
X70.865Y-97.625
X74.0Y-108.5
X76.615Y-81.775
X77.0Y-92.566
X79.1Y-87.8
X80.19Y-82.95
X84.115Y-95.275
X86.455Y-97.865
X89.215Y-95.125
X91.765Y-83.475
X92.665Y-78.025
X95.595Y-95.377
X96.615Y-59.225
X98.215Y-76.575
X103.1Y-106.9
X104.1Y-76.4
T2
X43.295Y-64.625
X45.835Y-64.625
X47.93Y-36.325
X47.93Y-59.525
X48.375Y-64.625
X50.47Y-36.325
X50.47Y-59.525
X50.915Y-64.625
X53.01Y-36.325
X53.01Y-59.525
X53.115Y-44.115
X53.115Y-51.735
X55.55Y-36.325
X55.55Y-59.525
X56.94Y-44.115
X56.94Y-51.735
X57.415Y-64.735
X57.415Y-67.275
X57.415Y-69.815
X57.415Y-72.355
X57.415Y-74.895
X57.415Y-77.435
X57.415Y-79.975
X57.415Y-82.515
X57.415Y-85.055
X57.415Y-87.595
X57.415Y-90.135
X57.415Y-92.675
X57.415Y-95.215
X57.415Y-97.755
X58.09Y-36.325
X58.09Y-59.525
X58.355Y-102.175
X58.355Y-104.675
X60.63Y-36.325
X60.63Y-59.525
X60.765Y-44.115
X60.765Y-51.735
X61.105Y-101.125
X61.105Y-105.175
X63.17Y-36.325
X63.17Y-59.525
X64.34Y-44.115
X64.34Y-51.735
X65.035Y-64.735
X65.035Y-67.275
X65.035Y-69.815
X65.035Y-72.355
X65.035Y-74.895
X65.035Y-77.435
X65.035Y-79.975
X65.035Y-82.515
X65.035Y-85.055
X65.035Y-87.595
X65.035Y-90.135
X65.035Y-92.675
X65.035Y-95.215
X65.035Y-97.755
X65.71Y-36.325
X65.71Y-59.525
X67.665Y-44.115
X67.665Y-51.735
X67.855Y-85.175
X67.855Y-88.175
X67.855Y-91.175
X67.855Y-94.175
X68.25Y-36.325
X68.25Y-59.525
X68.725Y-101.125
X68.725Y-105.175
X70.79Y-36.325
X70.79Y-59.525
X73.33Y-36.325
X73.33Y-59.525
X75.29Y-97.865
X75.29Y-105.485
X75.475Y-85.175
X75.475Y-88.175
X75.475Y-91.175
X75.475Y-94.175
X75.87Y-36.325
X75.87Y-59.525
X78.207Y-97.865
X78.207Y-105.485
X78.41Y-36.325
X78.41Y-59.525
X78.98Y-85.61
X78.98Y-93.23
X81.123Y-97.865
X81.123Y-105.485
X81.52Y-85.61
X81.52Y-93.23
X84.0Y-97.865
X84.0Y-105.485
X84.06Y-85.61
X84.06Y-93.23
X86.6Y-85.61
X86.6Y-93.23
X89.14Y-85.61
X89.14Y-93.23
X89.415Y-97.865
X89.415Y-105.485
X91.68Y-85.61
X91.68Y-93.23
X91.915Y-97.865
X91.915Y-105.485
X94.22Y-85.61
X94.22Y-93.23
X94.415Y-97.865
X94.415Y-105.485
X96.76Y-85.61
X96.76Y-93.23
X96.915Y-97.865
X96.915Y-105.485
X99.665Y-51.615
X99.665Y-59.235
X103.115Y-51.615
X103.115Y-59.235
X103.415Y-87.772
X103.415Y-92.772
X106.165Y-80.175
X106.165Y-82.675
T3
X101.915Y-64.635
X101.915Y-67.175
X101.945Y-71.16
X101.945Y-73.7
X103.165Y-98.425
X103.165Y-100.925
X103.165Y-103.425
T4
X101.665Y-78.925
X101.665Y-83.925
T5
X69.915Y-65.675
X69.915Y-70.175
X69.915Y-73.325
X69.915Y-77.825
X76.415Y-65.675
X76.415Y-70.175
X76.415Y-73.325
X76.415Y-77.825
X79.665Y-65.675
X79.665Y-70.175
X79.665Y-73.325
X79.665Y-77.825
X86.165Y-65.675
X86.165Y-70.175
X86.165Y-73.325
X86.165Y-77.825
X89.465Y-69.6
X89.465Y-74.1
X95.965Y-69.6
X95.965Y-74.1
T6
X42.255Y-104.225
X47.335Y-104.225
X52.415Y-104.225
T7
X45.16Y-112.925
X50.24Y-112.925
X55.32Y-112.925
X60.4Y-112.925
X65.48Y-112.925
X71.62Y-112.925
X76.7Y-112.925
X81.78Y-112.925
X86.86Y-112.925
X91.94Y-112.925
X98.08Y-112.925
X103.16Y-112.925
M30
