  0
SECTION
  2
HEADER
  9
$ACADVER
  1
AC1024
  9
$ACADMAINTVER
 70
6
  9
$DWGCODEPAGE
  3
ANSI_1252
  9
$LASTSAVEDBY
  1
ezdxf
  9
$INSBASE
 10
0.0
 20
0.0
 30
0.0
  9
$EXTMIN
 10
-100
 20
-100
 30
-100
  9
$EXTMAX
 10
100
 20
100
 30
100
  9
$LIMMIN
 10
0.0
 20
0.0
  9
$LIMMAX
 10
420.0
 20
297.0
  9
$ORTHOMODE
 70
0
  9
$REGENMODE
 70
1
  9
$FILLMODE
 70
1
  9
$QTEXTMODE
 70
0
  9
$MIRRTEXT
 70
1
  9
$LTSCALE
 40
1.0
  9
$ATTMODE
 70
1
  9
$TEXTSIZE
 40
2.5
  9
$TRACEWID
 40
1.0
  9
$TEXTSTYLE
  7
Standard
  9
$CLAYER
  8
0
  9
$CELTYPE
  6
ByLayer
  9
$CECOLOR
 62
256
  9
$CELTSCALE
 40
1.0
  9
$DISPSILH
 70
0
  9
$DIMSCALE
 40
1.0
  9
$DIMASZ
 40
2.5
  9
$DIMEXO
 40
0.625
  9
$DIMDLI
 40
3.75
  9
$DIMRND
 40
0.0
  9
$DIMDLE
 40
0.0
  9
$DIMEXE
 40
1.25
  9
$DIMTP
 40
0.0
  9
$DIMTM
 40
0.0
  9
$DIMTXT
 40
2.5
  9
$DIMCEN
 40
2.5
  9
$DIMTSZ
 40
0.0
  9
$DIMTOL
 70
0
  9
$DIMLIM
 70
0
  9
$DIMTIH
 70
0
  9
$DIMTOH
 70
0
  9
$DIMSE1
 70
0
  9
$DIMSE2
 70
0
  9
$DIMTAD
 70
1
  9
$DIMZIN
 70
8
  9
$DIMBLK
  1

  9
$DIMASO
 70
1
  9
$DIMSHO
 70
1
  9
$DIMPOST
  1

  9
$DIMAPOST
  1

  9
$DIMALT
 70
0
  9
$DIMALTD
 70
3
  9
$DIMALTF
 40
0.03937007874
  9
$DIMLFAC
 40
1.0
  9
$DIMTOFL
 70
1
  9
$DIMTVP
 40
0.0
  9
$DIMTIX
 70
0
  9
$DIMSOXD
 70
0
  9
$DIMSAH
 70
0
  9
$DIMBLK1
  1

  9
$DIMBLK2
  1

  9
$DIMSTYLE
  2
ISO-25
  9
$DIMCLRD
 70
0
  9
$DIMCLRE
 70
0
  9
$DIMCLRT
 70
0
  9
$DIMTFAC
 40
1.0
  9
$DIMGAP
 40
0.625
  9
$DIMJUST
 70
0
  9
$DIMSD1
 70
0
  9
$DIMSD2
 70
0
  9
$DIMTOLJ
 70
0
  9
$DIMTZIN
 70
8
  9
$DIMALTZ
 70
0
  9
$DIMALTTZ
 70
0
  9
$DIMUPT
 70
0
  9
$DIMDEC
 70
2
  9
$DIMTDEC
 70
2
  9
$DIMALTU
 70
2
  9
$DIMALTTD
 70
3
  9
$DIMTXSTY
  7
Standard
  9
$DIMAUNIT
 70
0
  9
$DIMADEC
 70
0
  9
$DIMALTRND
 40
0.0
  9
$DIMAZIN
 70
0
  9
$DIMDSEP
 70
44
  9
$DIMATFIT
 70
3
  9
$DIMFRAC
 70
0
  9
$DIMLDRBLK
  1

  9
$DIMLUNIT
 70
2
  9
$DIMLWD
 70
-2
  9
$DIMLWE
 70
-2
  9
$DIMTMOVE
 70
0
  9
$DIMFXL
 40
1.0
  9
$DIMFXLON
 70
0
  9
$DIMJOGANG
 40
0.785398163397
  9
$DIMTFILL
 70
0
  9
$DIMTFILLCLR
 70
0
  9
$DIMARCSYM
 70
0
  9
$DIMLTYPE
  6

  9
$DIMLTEX1
  6

  9
$DIMLTEX2
  6

  9
$DIMTXTDIRECTION
 70
0
  9
$LUNITS
 70
2
  9
$LUPREC
 70
4
  9
$SKETCHINC
 40
1.0
  9
$FILLETRAD
 40
10.0
  9
$AUNITS
 70
0
  9
$AUPREC
 70
2
  9
$MENU
  1
.
  9
$ELEVATION
 40
0.0
  9
$PELEVATION
 40
0.0
  9
$THICKNESS
 40
0.0
  9
$LIMCHECK
 70
0
  9
$CHAMFERA
 40
0.0
  9
$CHAMFERB
 40
0.0
  9
$CHAMFERC
 40
0.0
  9
$CHAMFERD
 40
0.0
  9
$SKPOLY
 70
0
  9
$TDCREATE
 40
2461056.5709837964
  9
$TDUCREATE
 40
2458532.153996898
  9
$TDUPDATE
 40
2461056.5709837964
  9
$TDUUPDATE
 40
2458532.1544311
  9
$TDINDWG
 40
0.0
  9
$TDUSRTIMER
 40
0.0
  9
$USRTIMER
 70
1
  9
$ANGBASE
 50
0.0
  9
$ANGDIR
 70
0
  9
$PDMODE
 70
0
  9
$PDSIZE
 40
0.0
  9
$PLINEWID
 40
0.0
  9
$SPLFRAME
 70
0
  9
$SPLINETYPE
 70
6
  9
$SPLINESEGS
 70
8
  9
$HANDSEED
  5
35
  9
$SURFTAB1
 70
6
  9
$SURFTAB2
 70
6
  9
$SURFTYPE
 70
6
  9
$SURFU
 70
6
  9
$SURFV
 70
6
  9
$UCSBASE
  2

  9
$UCSNAME
  2

  9
$UCSORG
 10
0.0
 20
0.0
 30
0.0
  9
$UCSXDIR
 10
1.0
 20
0.0
 30
0.0
  9
$UCSYDIR
 10
0.0
 20
1.0
 30
0.0
  9
$UCSORTHOREF
  2

  9
$UCSORTHOVIEW
 70
0
  9
$UCSORGTOP
 10
0.0
 20
0.0
 30
0.0
  9
$UCSORGBOTTOM
 10
0.0
 20
0.0
 30
0.0
  9
$UCSORGLEFT
 10
0.0
 20
0.0
 30
0.0
  9
$UCSORGRIGHT
 10
0.0
 20
0.0
 30
0.0
  9
$UCSORGFRONT
 10
0.0
 20
0.0
 30
0.0
  9
$UCSORGBACK
 10
0.0
 20
0.0
 30
0.0
  9
$PUCSBASE
  2

  9
$PUCSNAME
  2

  9
$PUCSORG
 10
0.0
 20
0.0
 30
0.0
  9
$PUCSXDIR
 10
1.0
 20
0.0
 30
0.0
  9
$PUCSYDIR
 10
0.0
 20
1.0
 30
0.0
  9
$PUCSORTHOREF
  2

  9
$PUCSORTHOVIEW
 70
0
  9
$PUCSORGTOP
 10
0.0
 20
0.0
 30
0.0
  9
$PUCSORGBOTTOM
 10
0.0
 20
0.0
 30
0.0
  9
$PUCSORGLEFT
 10
0.0
 20
0.0
 30
0.0
  9
$PUCSORGRIGHT
 10
0.0
 20
0.0
 30
0.0
  9
$PUCSORGFRONT
 10
0.0
 20
0.0
 30
0.0
  9
$PUCSORGBACK
 10
0.0
 20
0.0
 30
0.0
  9
$USERI1
 70
0
  9
$USERI2
 70
0
  9
$USERI3
 70
0
  9
$USERI4
 70
0
  9
$USERI5
 70
0
  9
$USERR1
 40
0.0
  9
$USERR2
 40
0.0
  9
$USERR3
 40
0.0
  9
$USERR4
 40
0.0
  9
$USERR5
 40
0.0
  9
$WORLDVIEW
 70
1
  9
$SHADEDGE
 70
3
  9
$SHADEDIF
 70
70
  9
$TILEMODE
 70
1
  9
$MAXACTVP
 70
64
  9
$PINSBASE
 10
0.0
 20
0.0
 30
0.0
  9
$PLIMCHECK
 70
0
  9
$PEXTMIN
 10
1e+20
 20
1e+20
 30
1e+20
  9
$PEXTMAX
 10
-1e+20
 20
-1e+20
 30
-1e+20
  9
$PLIMMIN
 10
0.0
 20
0.0
  9
$PLIMMAX
 10
420.0
 20
297.0
  9
$UNITMODE
 70
0
  9
$VISRETAIN
 70
1
  9
$PLINEGEN
 70
0
  9
$PSLTSCALE
 70
1
  9
$TREEDEPTH
 70
3020
  9
$CMLSTYLE
  2
Standard
  9
$CMLJUST
 70
0
  9
$CMLSCALE
 40
20.0
  9
$PROXYGRAPHICS
 70
1
  9
$MEASUREMENT
 70
1
  9
$CELWEIGHT
370
-1
  9
$ENDCAPS
280
0
  9
$JOINSTYLE
280
0
  9
$LWDISPLAY
290
0
  9
$INSUNITS
 70
6
  9
$HYPERLINKBASE
  1

  9
$STYLESHEET
  1

  9
$XEDIT
290
1
  9
$CEPSNTYPE
380
0
  9
$PSTYLEMODE
290
1
  9
$FINGERPRINTGUID
  2
E87F7374-F241-11F0-A31F-28392620F3A2
  9
$VERSIONGUID
  2
E881BF58-F241-11F0-80BE-28392620F3A2
  9
$EXTNAMES
290
1
  9
$PSVPSCALE
 40
0.0
  9
$OLESTARTUP
290
0
  9
$SORTENTS
280
127
  9
$INDEXCTL
280
0
  9
$HIDETEXT
280
1
  9
$XCLIPFRAME
280
2
  9
$HALOGAP
280
0
  9
$OBSCOLOR
 70
257
  9
$OBSLTYPE
280
0
  9
$INTERSECTIONDISPLAY
280
0
  9
$INTERSECTIONCOLOR
 70
257
  9
$DIMASSOC
280
2
  9
$PROJECTNAME
  1

  9
$CAMERADISPLAY
290
0
  9
$LENSLENGTH
 40
50.0
  9
$CAMERAHEIGHT
 40
0.0
  9
$STEPSPERSEC
 40
24.0
  9
$STEPSIZE
 40
100.0
  9
$3DDWFPREC
 40
2.0
  9
$PSOLWIDTH
 40
0.005
  9
$PSOLHEIGHT
 40
0.08
  9
$LOFTANG1
 40
1.570796326795
  9
$LOFTANG2
 40
1.570796326795
  9
$LOFTMAG1
 40
0.0
  9
$LOFTMAG2
 40
0.0
  9
$LOFTPARAM
 70
7
  9
$LOFTNORMALS
280
1
  9
$LATITUDE
 40
37.795
  9
$LONGITUDE
 40
-122.394
  9
$NORTHDIRECTION
 40
0.0
  9
$TIMEZONE
 70
-8000
  9
$LIGHTGLYPHDISPLAY
280
1
  9
$TILEMODELIGHTSYNCH
280
1
  9
$CMATERIAL
347
20
  9
$SOLIDHIST
280
0
  9
$SHOWHIST
280
1
  9
$DWFFRAME
280
2
  9
$DGNFRAME
280
2
  9
$REALWORLDSCALE
290
1
  9
$INTERFERECOLOR
 62
256
  9
$CSHADOW
280
0
  9
$SHADOWPLANELOCATION
 40
0.0
  0
ENDSEC
  0
SECTION
  2
CLASSES
  0
CLASS
  1
ACDBDICTIONARYWDFLT
  2
AcDbDictionaryWithDefault
  3
ObjectDBX Classes
 90
0
 91
0
280
0
281
0
  0
CLASS
  1
SUN
  2
AcDbSun
  3
SCENEOE
 90
1153
 91
0
280
0
281
0
  0
CLASS
  1
VISUALSTYLE
  2
AcDbVisualStyle
  3
ObjectDBX Classes
 90
4095
 91
0
280
0
281
0
  0
CLASS
  1
MATERIAL
  2
AcDbMaterial
  3
ObjectDBX Classes
 90
1153
 91
0
280
0
281
0
  0
CLASS
  1
SCALE
  2
AcDbScale
  3
ObjectDBX Classes
 90
1153
 91
0
280
0
281
0
  0
CLASS
  1
TABLESTYLE
  2
AcDbTableStyle
  3
ObjectDBX Classes
 90
4095
 91
0
280
0
281
0
  0
CLASS
  1
MLEADERSTYLE
  2
AcDbMLeaderStyle
  3
ACDB_MLEADERSTYLE_CLASS
 90
4095
 91
0
280
0
281
0
  0
CLASS
  1
DICTIONARYVAR
  2
AcDbDictionaryVar
  3
ObjectDBX Classes
 90
0
 91
0
280
0
281
0
  0
CLASS
  1
CELLSTYLEMAP
  2
AcDbCellStyleMap
  3
ObjectDBX Classes
 90
1152
 91
0
280
0
281
0
  0
CLASS
  1
MENTALRAYRENDERSETTINGS
  2
AcDbMentalRayRenderSettings
  3
SCENEOE
 90
1024
 91
0
280
0
281
0
  0
CLASS
  1
ACDBDETAILVIEWSTYLE
  2
AcDbDetailViewStyle
  3
ObjectDBX Classes
 90
1025
 91
0
280
0
281
0
  0
CLASS
  1
ACDBSECTIONVIEWSTYLE
  2
AcDbSectionViewStyle
  3
ObjectDBX Classes
 90
1025
 91
0
280
0
281
0
  0
CLASS
  1
RASTERVARIABLES
  2
AcDbRasterVariables
  3
ISM
 90
0
 91
0
280
0
281
0
  0
CLASS
  1
ACDBPLACEHOLDER
  2
AcDbPlaceHolder
  3
ObjectDBX Classes
 90
0
 91
0
280
0
281
0
  0
CLASS
  1
LAYOUT
  2
AcDbLayout
  3
ObjectDBX Classes
 90
0
 91
0
280
0
281
0
  0
ENDSEC
  0
SECTION
  2
TABLES
  0
TABLE
  2
VPORT
  5
8
330
0
100
AcDbSymbolTable
 70
1
  0
VPORT
  5
23
330
8
100
AcDbSymbolTableRecord
100
AcDbViewportTableRecord
  2
*Active
 70
0
 10
0.0
 20
0.0
 11
1.0
 21
1.0
 12
70.0
 22
50.0
 13
0.0
 23
0.0
 14
0.5
 24
0.5
 15
0.5
 25
0.5
 16
0.0
 26
0.0
 36
1.0
 17
0.0
 27
0.0
 37
0.0
 40
1.0
 41
1.34
 42
50.0
 43
0.0
 44
0.0
 50
0.0
 51
0.0
 71
0
 72
1000
 73
1
 74
3
 75
0
 76
0
 77
0
 78
0
281
0
 65
0
146
0.0
  0
ENDTAB
  0
TABLE
  2
LTYPE
  5
2
330
0
100
AcDbSymbolTable
 70
3
  0
LTYPE
  5
24
330
2
100
AcDbSymbolTableRecord
100
AcDbLinetypeTableRecord
  2
ByBlock
 70
0
  3

 72
65
 73
0
 40
0.0
  0
LTYPE
  5
25
330
2
100
AcDbSymbolTableRecord
100
AcDbLinetypeTableRecord
  2
ByLayer
 70
0
  3

 72
65
 73
0
 40
0.0
  0
LTYPE
  5
26
330
2
100
AcDbSymbolTableRecord
100
AcDbLinetypeTableRecord
  2
Continuous
 70
0
  3

 72
65
 73
0
 40
0.0
  0
ENDTAB
  0
TABLE
  2
LAYER
  5
1
330
0
100
AcDbSymbolTable
 70
2
  0
LAYER
  5
27
330
1
100
AcDbSymbolTableRecord
100
AcDbLayerTableRecord
  2
0
 70
0
 62
7
  6
Continuous
370
-3
390
13
347
21
  0
LAYER
  5
28
330
1
100
AcDbSymbolTableRecord
100
AcDbLayerTableRecord
  2
Defpoints
 70
0
 62
7
  6
Continuous
290
0
370
-3
390
13
347
21
  0
ENDTAB
  0
TABLE
  2
STYLE
  5
5
330
0
100
AcDbSymbolTable
 70
1
  0
STYLE
  5
29
330
5
100
AcDbSymbolTableRecord
100
AcDbTextStyleTableRecord
  2
Standard
 70
0
 40
0.0
 41
1.0
 50
0.0
 71
0
 42
2.5
  3
txt
  4

  0
ENDTAB
  0
TABLE
  2
VIEW
  5
7
330
0
100
AcDbSymbolTable
 70
0
  0
ENDTAB
  0
TABLE
  2
UCS
  5
6
330
0
100
AcDbSymbolTable
 70
0
  0
ENDTAB
  0
TABLE
  2
APPID
  5
3
330
0
100
AcDbSymbolTable
 70
1
  0
APPID
  5
2A
330
3
100
AcDbSymbolTableRecord
100
AcDbRegAppTableRecord
  2
ACAD
 70
0
  0
ENDTAB
  0
TABLE
  2
DIMSTYLE
  5
4
330
0
100
AcDbSymbolTable
 70
1
100
AcDbDimStyleTable
  0
DIMSTYLE
105
2B
330
4
100
AcDbSymbolTableRecord
100
AcDbDimStyleTableRecord
  2
Standard
 70
0
 40
1.0
 41
2.5
 42
0.625
 43
3.75
 44
1.25
 45
0.0
 46
0.0
 47
0.0
 48
0.0
 49
2.5
140
2.5
141
2.5
142
0.0
143
0.03937007874
144
1.0
145
0.0
146
1.0
147
0.625
148
0.0
 69
0
 70
0
 71
0
 72
0
 73
0
 74
0
 75
0
 76
0
 77
1
 78
8
 79
0
170
0
171
3
172
1
173
0
174
0
175
0
176
0
177
0
178
0
179
0
271
0
272
2
273
2
274
3
275
0
276
0
277
2
278
44
279
0
280
0
281
0
282
0
283
0
284
8
285
0
286
0
288
0
289
3
290
0
371
-2
372
-2
  0
ENDTAB
  0
TABLE
  2
BLOCK_RECORD
  5
9
330
0
100
AcDbSymbolTable
 70
2
  0
BLOCK_RECORD
  5
17
330
9
100
AcDbSymbolTableRecord
100
AcDbBlockTableRecord
  2
*Model_Space
340
1A
 70
0
280
1
281
1
  0
BLOCK_RECORD
  5
1B
330
9
100
AcDbSymbolTableRecord
100
AcDbBlockTableRecord
  2
*Paper_Space
340
1E
 70
0
280
1
281
1
  0
ENDTAB
  0
ENDSEC
  0
SECTION
  2
BLOCKS
  0
BLOCK
  5
18
330
17
100
AcDbEntity
  8
0
100
AcDbBlockBegin
  2
*Model_Space
 70
0
 10
0.0
 20
0.0
 30
0.0
  3
*Model_Space
  1

  0
ENDBLK
  5
19
330
17
100
AcDbEntity
  8
0
100
AcDbBlockEnd
  0
BLOCK
  5
1C
330
1B
100
AcDbEntity
  8
0
100
AcDbBlockBegin
  2
*Paper_Space
 70
0
 10
0.0
 20
0.0
 30
0.0
  3
*Paper_Space
  1

  0
ENDBLK
  5
1D
330
1B
100
AcDbEntity
  8
0
100
AcDbBlockEnd
  0
ENDSEC
  0
SECTION
  2
ENTITIES
  0
LWPOLYLINE
  5
2D
330
17
100
AcDbEntity
  8
0
100
AcDbPolyline
 90
168
 70
0
 10
119.24380334635431
 20
-118.00001240625299
 10
121.66499999766788
 20
-118.0000124062471
 10
121.6662270561876
 20
-117.99999734725326
 10
121.6671899866969
 20
-117.99996188050655
 10
121.66809854837544
 20
-117.99994267529618
 10
121.6692440215369
 20
-117.99989216489617
 10
121.67038803530232
 20
-117.99981540182776
 10
121.67137089313634
 20
-117.99973812277355
 10
121.67251284420088
 20
-117.99963514757762
 10
121.67365213377069
 20
-117.99950601430957
 10
121.6745397788135
 20
-117.9993847292757
 10
121.67542929473709
 20
-117.9992780949801
 10
121.67656430124853
 20
-117.99911555179769
 10
121.67769528217983
 20
-117.99892702540645
 10
121.67866583261298
 20
-117.99875378155772
 10
121.67979219153673
 20
-117.99853937143776
 10
121.68091333784217
 20
-117.99829919007605
 10
121.68178482061917
 20
-117.99809148463406
 10
121.68265960129231
 20
-117.9978981760045
 10
121.68377321041898
 20
-117.99762516541949
 10
121.68488026654994
 20
-117.99732669131775
 10
121.68582916265055
 20
-117.99705915110759
 10
121.68692908198098
 20
-117.99673537095039
 10
121.68802128776986
 20
-117.99638645457298
 10
121.68886821542712
 20
-117.99609432903934
 10
121.68971983623278
 20
-117.99581620774377
 10
121.69080132330998
 20
-117.99543535899741
 10
121.69187379308488
 20
-117.99502981165404
 10
121.69279189646527
 20
-117.9946705516408
 10
121.69385478337853
 20
-117.99424051962613
 10
121.6949075301126
 20
-117.99378622848832
 10
121.69572174627032
 20
-117.9934124961928
 10
121.69654200563599
 20
-117.99305224069086
 10
121.69758095535256
 20
-117.99256722156458
 10
121.69860851030175
 20
-117.99205850662197
 10
121.69948697912417
 20
-117.99161098667608
 10
121.70050259743842
 20
-117.9910788442472
 10
121.70150574659134
 20
-117.99052355342083
 10
121.70227940990549
 20
-117.99007181360871
 10
121.70306040828268
 20
-117.98963289335887
 10
121.70404681498461
 20
-117.98904837485213
 10
121.7050195591919
 20
-117.9884413915134
 10
121.70584993332147
 20
-117.98790992149655
 10
121.7068085020766
 20
-117.98728079347624
 10
121.70775239277309
 20
-117.98662985071587
 10
121.70847805244343
 20
-117.98610445388805
 10
121.70921226839293
 20
-117.98559109593114
 10
121.71013663244422
 20
-117.98491270727682
 10
121.71104519785094
 20
-117.98421330112346
 10
121.71181948033087
 20
-117.98360299938243
 10
121.71271176798604
 20
-117.98288294461727
 10
121.71358731004298
 20
-117.98214261885731
 10
121.7142579775685
 20
-117.98154862487357
 10
121.71493834018811
 20
-117.98096577312825
 10
121.7157917594583
 20
-117.98020004757946
 10
121.71662739608354
 20
-117.97941495427459
 10
121.71733813015038
 20
-117.97873169834868
 10
121.71815554348755
 20
-117.97792765135979
 10
121.71895430495621
 20
-117.97710507234211
 10
121.71956352144275
 20
-117.97644820168865
 10
121.72018347846942
 20
-117.97580146933505
 10
121.72095773406396
 20
-117.97495578124773
 10
121.72171239426977
 20
-117.97409256166938
 10
121.72235273516587
 20
-117.9733429316867
 10
121.72308740204785
 20
-117.97246263588602
 10
121.72380169041871
 20
-117.97156572549616
 10
121.72434358877757
 20
-117.97085230419758
 10
121.72489716968617
 20
-117.97014791962174
 10
121.72558480510006
 20
-117.96923041343499
 10
121.72625122109581
 20
-117.9682973808601
 10
121.72681500198813
 20
-117.96748859616744
 10
121.72745984717145
 20
-117.96654052928454
 10
121.72808278345721
 20
-117.96557792525964
 10
121.72855214491308
 20
-117.96481482395009
 10
121.72903401841629
 20
-117.96405957076118
 10
121.72962841134498
 20
-117.96307908256071
 10
121.73020016518065
 20
-117.96208522260262
 10
121.73068195655115
 20
-117.96122507223848
 10
121.7312307698238
 20
-117.96021836467621
 10
121.73175635480713
 20
-117.95919933741973
 10
121.7321486591504
 20
-117.95839390518543
 10
121.73255418454296
 20
-117.95759505688476
 10
121.73304961065801
 20
-117.95656102930727
 10
121.73352119603202
 20
-117.95551591337995
 10
121.73391635796666
 20
-117.95461268106203
 10
121.73436385395715
 20
-117.95355702796391
 10
121.73478702596766
 20
-117.95249139126474
 10
121.73509849509361
 20
-117.95165138485783
 10
121.73542376694486
 20
-117.95081663479003
 10
121.73581545502172
 20
-117.94973902608655
 10
121.73618233030884
 20
-117.94865271922794
 10
121.73648705718175
 20
-117.94771510357812
 10
121.7368289262586
 20
-117.94662067146173
 10
121.73714560991812
 20
-117.94551868798504
 10
121.73737324420983
 20
-117.9446521971233
 10
121.73761512997352
 20
-117.94378958438902
 10
121.73789930784142
 20
-117.94267877252193
 10
121.7381579398317
 20
-117.9415617364624
 10
121.73836929695675
 20
-117.94059876723146
 10
121.73860224673443
 20
-117.93947609607467
 10
121.73880939220666
 20
-117.93834837852202
 10
121.73895099942051
 20
-117.93746374798907
 10
121.7391071696048
 20
-117.93658158001958
 10
121.73928110047592
 20
-117.93544826271328
 10
121.73942899840227
 20
-117.93431125511961
 10
121.73954495029474
 20
-117.93333220622787
 10
121.73966673733925
 20
-117.9321921079686
 10
121.73976234969979
 20
-117.93104951687748
 10
121.73981656608112
 20
-117.93015526614828
 10
121.73988551668158
 20
-117.92926203870451
 10
121.73994752550662
 20
-117.92811713042352
 10
121.73998326503119
 20
-117.9269711012997
 10
121.74000269501097
 20
-117.92598540152295
 10
121.74001214644647
 20
-117.92483885593077
 10
121.73999530489604
 20
-117.92369239507806
 10
121.73996112386659
 20
-117.92278426543078
 10
121.73993998419259
 20
-117.92182092361192
 10
121.73988296147317
 20
-117.92059509672146
 10
121.5977047673684
 20
-115.50357646469757
 10
121.75861045200607
 20
-115.50195593708817
 10
121.99372695445518
 20
-115.52253375945675
 10
122.22572926588285
 20
-115.56587131806721
 10
122.45241951507289
 20
-115.63155805505833
 10
122.67165015456094
 20
-115.71897168788388
 10
122.88134430541123
 20
-115.82728410450099
 10
123.07951543250188
 20
-115.95546920847896
 10
123.26428616394433
 20
-116.10231263971252
 10
123.4339060763435
 20
-116.26642327864808
 10
123.58676827741449
 20
-116.44624642503938
 10
123.72142462885652
 20
-116.64007852638078
 10
123.8365994652766
 20
-116.84608331649478
 10
123.93120167918887
 20
-117.06230921137575
 10
124.00433505761019
 20
-117.28670779750067
 10
124.05530677232302
 20
-117.51715323745032
 10
124.08363394337526
 20
-117.75146240900423
 10
124.0890482136385
 20
-117.98741558692691
 10
124.07149829108585
 20
-118.22277747150582
 10
124.03115043470629
 20
-118.45531836464025
 10
123.96838687945221
 20
-118.68283529285915
 10
123.88380221514106
 20
-118.90317287716465
 10
123.77819775361543
 20
-119.11424375199122
 10
123.65257393752442
 20
-119.3140483398389
 10
123.50812086264202
 20
-119.50069379424723
 10
123.34620700350861
 20
-119.67241193165466
 10
123.16836624920236
 20
-119.8275759822658
 10
122.97628337205998
 20
-119.9647160012351
 10
122.77177806700428
 20
-120.08253279417343
 10
122.55678771268587
 20
-120.17991022505066
 10
122.33334901774867
 20
-120.25592578989763
 10
122.10357872609424
 20
-120.30985935613677
 10
121.86965356393257
 20
-120.34119998474985
 10
121.6337896185917
 20
-120.34965077065293
 10
121.39822134443901
 20
-120.33513165542311
 10
121.16518039480566
 20
-120.29778018573126
 10
120.93687448044179
 20
-120.23795021029497
 10
120.71546645479614
 20
-120.15620852769705
 10
120.50305382424823
 20
-120.05332951682567
 10
120.3016488774053
 20
-119.93028780080448
 10
120.11315962171037
 20
-119.78824901391233
 10
119.93937170795492
 20
-119.62855875895993
 10
119.78193151393721
 20
-119.45272985973718
 10
119.6423305475208
 20
-119.26242802929467
 10
119.5218913168521
 20
-119.05945608982965
 10
119.421754801595
 20
-118.84573689367178
 10
119.34286964387263
 20
-118.62329510716258
 10
119.28598316131767
 20
-118.3942380300034
 10
119.25163426983777
 20
-118.16073564857098
 10
119.24380334635431
 20
-118.00001240625299
  0
LWPOLYLINE
  5
2E
330
17
100
AcDbEntity
  8
0
100
AcDbPolyline
 90
169
 70
0
 10
26.59001190134103
 20
-117.92647815651863
 10
26.59001255542609
 20
-117.92672942221867
 10
26.590045864585967
 20
-117.92795612183775
 10
26.59010926837886
 20
-117.92918163455275
 10
26.590182654809507
 20
-117.93014241459261
 10
26.590237650185497
 20
-117.93104951510917
 10
26.590333262675856
 20
-117.93219210811047
 10
26.59045504993759
 20
-117.93333220827179
 10
26.590571001929842
 20
-117.93431125774342
 10
26.590718899678123
 20
-117.9354482638249
 10
26.59089283030204
 20
-117.93658157962876
 10
26.591049001721373
 20
-117.93746375480504
 10
26.591190607505865
 20
-117.9383483767736
 10
26.591397753294544
 20
-117.93947609621465
 10
26.59163070347488
 20
-117.94059876924317
 10
26.59184206075606
 20
-117.9415617390413
 10
26.592100692420875
 20
-117.9426787736132
 10
26.59238486989544
 20
-117.94378958400917
 10
26.592626757594637
 20
-117.94465220379449
 10
26.592854389624154
 20
-117.94551868627225
 10
26.593171073783868
 20
-117.94662067159788
 10
26.59351294344511
 20
-117.94771510553818
 10
26.593817670529027
 20
-117.94865272173723
 10
26.594184545346202
 20
-117.9497390271466
 10
26.59457623288717
 20
-117.95081663442393
 10
26.594901507355907
 20
-117.9516513913196
 10
26.595212973409364
 20
-117.95249138960618
 10
26.59563614609856
 20
-117.95355702809546
 10
26.596083642849006
 20
-117.95461268295053
 10
26.596478805047244
 20
-117.95551591579387
 10
26.59695038981161
 20
-117.95656103032525
 10
26.597445815253693
 20
-117.95759505653625
 10
26.5978513439204
 20
-117.95839391137541
 10
26.5982436444098
 20
-117.95919933582918
 10
26.59876923024447
 20
-117.96021836480158
 10
26.599318044446143
 20
-117.96122507403877
 10
26.5997998361309
 20
-117.96208522490069
 10
26.600371589223432
 20
-117.9630790835299
 10
26.600965981348835
 20
-117.96405957043697
 10
26.601447858750383
 20
-117.96481482981042
 10
26.601917215607873
 20
-117.96557792375391
 10
26.602540152908702
 20
-117.96654052940248
 10
26.603184999180367
 20
-117.96748859786061
 10
26.60374878043406
 20
-117.96829738301764
 10
26.60441519555967
 20
-117.9692304143425
 10
26.60510283004705
 20
-117.97014791932045
 10
26.605656415441754
 20
-117.97085230966945
 10
26.606198308503444
 20
-117.97156572408959
 10
26.60691259804405
 20
-117.97246263599628
 10
26.607647266163987
 20
-117.97334293325842
 10
26.608287607465176
 20
-117.97409256366771
 10
26.609042266682195
 20
-117.97495578208692
 10
26.60981652123584
 20
-117.97580146906168
 10
26.610436483293466
 20
-117.97644820672151
 10
26.611045693833013
 20
-117.97710507104765
 10
26.611844456614048
 20
-117.9779276514598
 10
26.612661871326022
 20
-117.97873169978139
 10
26.613372605837803
 20
-117.97941495609217
 10
26.614208241365386
 20
-117.98020004834044
 10
26.61506165949064
 20
-117.98096577288408
 10
26.61574202763783
 20
-117.98154862941763
 10
26.61641268862538
 20
-117.98214261768791
 10
26.61728823212465
 20
-117.98288294470666
 10
26.618180521278173
 20
-117.98360300066301
 10
26.618954804238772
 20
-117.98421330274358
 10
26.619863368450442
 20
-117.98491270795368
 10
26.62078773126471
 20
-117.98559109572057
 10
26.62152195318349
 20
-117.98610445790011
 10
26.622247605786146
 20
-117.98662984968199
 10
26.62319149804175
 20
-117.98728079355396
 10
26.624150068405147
 20
-117.98790992261311
 10
26.624980443046265
 20
-117.9884413929207
 10
26.625953185971355
 20
-117.9890483754376
 10
26.626939591354766
 20
-117.98963289318218
 10
26.627720596087816
 20
-117.99007181705007
 10
26.62849425187449
 20
-117.9905235525337
 10
26.62949740268763
 20
-117.9910788443133
 10
26.630513022703894
 20
-117.99161098761817
 10
26.631391492063926
 20
-117.99205850780328
 10
26.632419045656675
 20
-117.99256722205376
 10
26.63345799398654
 20
-117.99305224055082
 10
26.63427826003019
 20
-117.99341249902957
 10
26.63509246827391
 20
-117.99378622775596
 10
26.63614521675442
 20
-117.99424051967999
 10
26.63720810544815
 20
-117.99467055239992
 10
26.638126209386954
 20
-117.99502981259847
 10
26.63919867774372
 20
-117.99543535938581
 10
26.640280163378826
 20
-117.99581620764175
 10
26.641131791121843
 20
-117.99609433124513
 10
26.641978710551488
 20
-117.99638645400194
 10
26.643070918155377
 20
-117.99673537099059
 10
26.64417083932677
 20
-117.99705915167515
 10
26.64511973600142
 20
-117.99732669201505
 10
26.64622679066673
 20
-117.99762516570249
 10
26.64734039831031
 20
-117.99789817594085
 10
26.64821518611491
 20
-117.99809148618743
 10
26.649086660433294
 20
-117.99829918967271
 10
26.650207808604236
 20
-117.99853937146464
 10
26.651334169411093
 20
-117.99875378192884
 10
26.652304720427747
 20
-117.99892702585032
 10
26.653435699859223
 20
-117.99911555197282
 10
26.65457070486012
 20
-117.99927809495554
 10
26.655460228039072
 20
-117.99938473016135
 10
26.656347864472814
 20
-117.99950601407714
 10
26.657487155941887
 20
-117.99963514759057
 10
26.658629108914766
 20
-117.99973812294454
 10
26.659611967336737
 20
-117.99981540201397
 10
26.660755979583943
 20
-117.99989216496196
 10
26.66190145122329
 20
-117.99994267531132
 10
26.66281002026529
 20
-117.99996188071805
 10
26.663772940191684
 20
-117.99999734716437
 10
26.665000000246323
 20
-118.00001240625312
 10
29.086196722723525
 20
-118.00001251915839
 10
29.078365704359125
 20
-118.16073563954649
 10
29.04401680978529
 20
-118.39423803499584
 10
28.987130326881857
 20
-118.6232951093222
 10
28.908245169088158
 20
-118.8457368929778
 10
28.80810865403735
 20
-119.0594560862889
 10
28.68766942385075
 20
-119.26242802294067
 10
28.548068458187597
 20
-119.45272985063026
 10
28.390628265187363
 20
-119.62855874718608
 10
28.216840352703674
 20
-119.78824899958332
 10
28.028351098523057
 20
-119.93028778405589
 10
27.8269461534223
 20
-120.05332949781626
 10
27.614533524828065
 20
-120.15620850660699
 10
27.393125501329532
 20
-120.23795018732385
 10
27.164819589284946
 20
-120.29778016109684
 10
26.931778642121827
 20
-120.33513162935874
 10
26.696210370566813
 20
-120.34965074340548
 10
26.46034642792617
 20
-120.34119995657753
 10
26.226421268541852
 20
-120.3098593273064
 10
25.996650979715483
 20
-120.25592576068233
 10
25.773212287630816
 20
-120.17991019572735
 10
25.558221936161377
 20
-120.08253276501966
 10
25.353716633924876
 20
-119.96471597252717
 10
25.161633759545133
 20
-119.82757595427577
 10
24.98379300791852
 20
-119.67241190464759
 10
24.821879151356516
 20
-119.500693768479
 10
24.677426078912934
 20
-119.31404831555359
 10
24.55180226510499
 20
-119.11424372941897
 10
24.446197805685067
 20
-118.90317285651923
 10
24.36161314328234
 20
-118.68283527433611
 10
24.29884958972135
 20
-118.45531834841533
 10
24.258501734803406
 20
-118.22277745773239
 10
24.240951813467113
 20
-117.98741557573551
 10
24.246366084689978
 20
-117.75146240050101
 10
24.274693256435953
 20
-117.5171532317156
 10
24.32566497157
 20
-117.2867077945892
 10
24.39879835013618
 20
-117.06230921131481
 10
24.49340056391544
 20
-116.84608331928504
 10
24.608575399926004
 20
-116.64007853199574
 10
24.74323175068591
 20
-116.44624643342576
 10
24.896093950808325
 20
-116.26642328972676
 10
25.065713862002077
 20
-116.10231265337812
 10
25.250484591992837
 20
-115.95546922460244
 10
25.448655717400218
 20
-115.8272841229293
 10
25.658349866350918
 20
-115.7189717084425
 10
25.87758050374114
 20
-115.6315580775526
 10
26.104270750655218
 20
-115.56587134228398
 10
26.336273059650395
 20
-115.52253378516656
 10
26.5713895504495
 20
-115.50195596484255
 10
26.732295283082763
 20
-115.50357656123523
 10
26.590117038551885
 20
-117.92059509639823
 10
26.59006001585666
 20
-117.92182092175156
 10
26.590038593297788
 20
-117.9227971516442
 10
26.590002652952144
 20
-117.9237729385163
 10
26.58998759387952
 20
-117.9249999980019
 10
26.590002652842035
 20
-117.92622705748884
 10
26.59001190134103
 20
-117.92647815651863
  0
LWPOLYLINE
  5
2F
330
17
100
AcDbEntity
  8
0
100
AcDbPolyline
 90
168
 70
0
 10
26.590038875576088
 20
-32.92721571955236
 10
26.59006001453971
 20
-32.928179046514366
 10
26.590117036773886
 20
-32.9294048734784
 10
26.73229426724293
 20
-35.346423503824404
 10
26.571388602443033
 20
-35.34804396763079
 10
26.33627213331441
 20
-35.32746605646935
 10
26.10426986332789
 20
-35.28412841461645
 10
25.877579662940395
 20
-35.21844160065348
 10
25.658349078793886
 20
-35.1310278977515
 10
25.44865498895301
 20
-35.0227154184789
 10
25.25048392762957
 20
-34.89453025968853
 10
25.06571326577448
 20
-34.74768678180134
 10
24.896093425831154
 20
-34.58357610458045
 10
24.743231299129654
 20
-34.40375292837517
 10
24.608575023023324
 20
-34.20992080568785
 10
24.49340026197869
 20
-34.003916002591865
 10
24.398798122584708
 20
-33.787690102888895
 10
24.32566481696874
 20
-33.56329151980513
 10
24.274693172542882
 20
-33.33284609037594
 10
24.246366068512394
 20
-33.098536936356034
 10
24.240951861325964
 20
-32.86258378244442
 10
24.258501842404396
 20
-32.6272219277516
 10
24.298849752232023
 20
-32.39468106972263
 10
24.36161335541399
 20
-32.16716418112773
 10
24.446198061778336
 20
-31.94682664022843
 10
24.551802559218114
 20
-31.735755811830092
 10
24.677426404911284
 20
-31.535951272658465
 10
24.821879503002357
 20
-31.349305868396343
 10
24.983793378960243
 20
-31.177587781834205
 10
25.16163414380371
 20
-31.022423782013924
 10
25.353717025378074
 20
-30.885283813053963
 10
25.55822232902299
 20
-30.76746706865232
 10
25.773212676425207
 20
-30.670089684192675
 10
25.996651359346767
 20
-30.594074163050227
 10
26.226421634354168
 20
-30.540140637268006
 10
26.460346775759202
 20
-30.508800045395486
 10
26.696210696801323
 20
-30.50034929211893
 10
26.931778943716445
 20
-30.514868435538727
 10
27.164819863805377
 20
-30.552219928740005
 10
27.393125746966792
 20
-30.6120499228416
 10
27.61453374040931
 20
-30.693791619178683
 10
27.82694633840944
 20
-30.796670638862512
 10
28.028351253004654
 20
-30.919712358848827
 10
28.21684047737672
 20
-31.061751145016263
 10
28.390628361329423
 20
-31.22144139478603
 10
28.54806852762233
 20
-31.397270284670327
 10
28.687669468904005
 20
-31.587572101985835
 10
28.80810867748716
 20
-31.79054402496076
 10
28.908245174108195
 20
-32.00426320174368
 10
28.987130316978998
 20
-32.22670496651485
 10
29.04401678873276
 20
-32.45576202013192
 10
29.07836567488762
 20
-32.68926438518841
 10
29.086196631128043
 20
-32.849987593747
 10
26.665000002332206
 20
-32.84998759375289
 10
26.6637729438124
 20
-32.85000265274674
 10
26.66281002820411
 20
-32.85003811894461
 10
26.66190147822665
 20
-32.85005732357487
 10
26.660756001724494
 20
-32.85010783377845
 10
26.659611984619865
 20
-32.85018459680323
 10
26.658629116815213
 20
-32.850261876443966
 10
26.657487162419827
 20
-32.850364851748736
 10
26.65634786953114
 20
-32.85049398527778
 10
26.655460236023536
 20
-32.850615268705425
 10
26.65457073162356
 20
-32.850721901289326
 10
26.653435721770098
 20
-32.85088444460346
 10
26.65230473751322
 20
-32.851072971278285
 10
26.651334177215016
 20
-32.85124621668796
 10
26.650207814986814
 20
-32.85146062724275
 10
26.64908666540377
 20
-32.85170080918955
 10
26.64821519394868
 20
-32.85190851190247
 10
26.647340424576857
 20
-32.85210181769883
 10
26.646226812136618
 20
-32.852374828742626
 10
26.645119752723332
 20
-32.85267330345268
 10
26.644170846957795
 20
-32.85294084618334
 10
26.643070924381156
 20
-32.85326462709725
 10
26.641978715387513
 20
-32.8536135443783
 10
26.64113179873164
 20
-32.85390566608579
 10
26.640280188894707
 20
-32.854183783454225
 10
26.639198698564915
 20
-32.85456463298192
 10
26.6381262255832
 20
-32.85497018125238
 10
26.637208112831797
 20
-32.85532944472117
 10
26.636145222762018
 20
-32.85575947780713
 10
26.63509247292705
 20
-32.85621377015841
 10
26.634278267340452
 20
-32.85658749756889
 10
26.633458018507294
 20
-32.85694774808683
 10
26.632419065630398
 20
-32.85743276830948
 10
26.631391507580723
 20
-32.85794148448904
 10
26.630513029771063
 20
-32.8583890087924
 10
26.62949740842106
 20
-32.85892115259651
 10
26.62849425630167
 20
-32.859476444934124
 10
26.62772060302965
 20
-32.85992817884814
 10
26.626939614643412
 20
-32.86036709310693
 10
26.62595320490397
 20
-32.86095161301449
 10
26.62498045773247
 20
-32.86155859788807
 10
26.624150075085957
 20
-32.86209007312238
 10
26.6231915034443
 20
-32.862719202809004
 10
26.622247609943557
 20
-32.86337014736428
 10
26.621521959689986
 20
-32.863895537337335
 10
26.620787753097076
 20
-32.864408888352045
 10
26.619863386159846
 20
-32.86508727869842
 10
26.618954817953295
 20
-32.86578668667001
 10
26.618180527508756
 20
-32.86639699443825
 10
26.61728823714438
 20
-32.867117051144554
 10
26.616412692472704
 20
-32.86785737896556
 10
26.615742033646757
 20
-32.8684513652045
 10
26.615061679657426
 20
-32.869034209124656
 10
26.61420825768137
 20
-32.86979993663994
 10
26.613372618448306
 20
-32.870585032028444
 10
26.612661877046044
 20
-32.87126829473313
 10
26.611844461202896
 20
-32.872072343919434
 10
26.611045697334053
 20
-32.872894925244566
 10
26.61043648874582
 20
-32.87355178733807
 10
26.609816539541317
 20
-32.87419851105779
 10
26.609042281446754
 20
-32.87504420136729
 10
26.60828761884996
 20
-32.875907423274775
 10
26.607647271318253
 20
-32.87665706072251
 10
26.60691260215777
 20
-32.87753735895558
 10
26.606198311624485
 20
-32.87843427187698
 10
26.60565642028615
 20
-32.8791476838836
 10
26.605102846315997
 20
-32.87985205910016
 10
26.604415208631487
 20
-32.880769567744025
 10
26.603748790484165
 20
-32.8817026028718
 10
26.603185003719744
 20
-32.88251139564422
 10
26.60254015650748
 20
-32.88345946517096
 10
26.601917218317997
 20
-32.88442207192699
 10
26.60144786293949
 20
-32.88518516329891
 10
26.600965995423948
 20
-32.88594040649348
 10
26.600371600476272
 20
-32.88692089736197
 10
26.599799844749473
 20
-32.88791476007174
 10
26.599318048327085
 20
-32.88877491905232
 10
26.598769233294256
 20
-32.88978162944481
 10
26.598243646683922
 20
-32.89080065960612
 10
26.597851347413812
 20
-32.89160608135676
 10
26.597445827000374
 20
-32.89240491912456
 10
26.596950399137924
 20
-32.89343894955442
 10
26.596478812151958
 20
-32.89448406840481
 10
26.59608364603453
 20
-32.89538730979233
 10
26.595636148569817
 20
-32.8964429658794
 10
26.59521297522491
 20
-32.89750860562869
 10
26.594901510119744
 20
-32.89834860110615
 10
26.5945762421915
 20
-32.89918334020309
 10
26.59418455265541
 20
-32.90026095191602
 10
26.59381767605073
 20
-32.90134726184117
 10
26.59351294590401
 20
-32.90228488692728
 10
26.59317107565274
 20
-32.90337932216352
 10
26.59285439096401
 20
-32.90448130880724
 10
26.592626759603068
 20
-32.905347788395716
 10
26.592384876667964
 20
-32.906210389828075
 10
26.592100697642515
 20
-32.90732120483438
 10
26.59184206464132
 20
-32.90843824407605
 10
26.5916307051832
 20
-32.90940122301863
 10
26.591397754542804
 20
-32.910523897394256
 10
26.591190608356943
 20
-32.91165161819847
 10
26.59104900295458
 20
-32.91253623722624
 10
26.590892834477554
 20
-32.913418393670625
 10
26.590718902762156
 20
-32.91455171421437
 10
26.590571004141673
 20
-32.91568872507384
 10
26.590455050879264
 20
-32.91666778385924
 10
26.590333263291676
 20
-32.917807885406674
 10
26.590237650539624
 20
-32.91895047980392
 10
26.590183434833396
 20
-32.91984471890552
 10
26.59011448480227
 20
-32.92073793471295
 10
26.59005247545439
 20
-32.921882846298104
 10
26.590016735559153
 20
-32.92302887873958
 10
26.58999730518576
 20
-32.924014588496554
 10
26.58998785353207
 20
-32.925161137414264
 10
26.590004695016923
 20
-32.9263076015955
 10
26.590038875576088
 20
-32.92721571955236
  0
LWPOLYLINE
  5
30
330
17
100
AcDbEntity
  8
0
100
AcDbPolyline
 90
168
 70
0
 10
121.59770568592162
 20
-35.346423430136845
 10
121.73988296320704
 20
-32.92940487370027
 10
121.73993998541276
 20
-32.92817904832458
 10
121.73996112463547
 20
-32.92721571257504
 10
121.7399953049239
 20
-32.92630760336728
 10
121.74001214646681
 20
-32.92516113727139
 10
121.74000269478333
 20
-32.92401458643855
 10
121.73998326436744
 20
-32.92302887609452
 10
121.7399475245012
 20
-32.9218828451763
 10
121.73988551525214
 20
-32.920737935111454
 10
121.7398165646983
 20
-32.91984471201086
 10
121.73976234957505
 20
-32.91895048157164
 10
121.73966673669308
 20
-32.91780788526337
 10
121.73954494888814
 20
-32.916667781813054
 10
121.7394289955259
 20
-32.915688722447776
 10
121.73928109708359
 20
-32.91455171310164
 10
121.73910716561558
 20
-32.91341839406143
 10
121.73895099590372
 20
-32.912536230411604
 10
121.7388093919304
 20
-32.9116516199462
 10
121.73860224542798
 20
-32.91052389725313
 10
121.7383692943848
 20
-32.909401221005304
 10
121.7381579347705
 20
-32.90843824149545
 10
121.73789930209496
 20
-32.90732120374234
 10
121.73761512346307
 20
-32.906210390208074
 10
121.73737323859281
 20
-32.90534778172585
 10
121.73714560949358
 20
-32.90448131051955
 10
121.73682892430486
 20
-32.90337932202762
 10
121.73648705346945
 20
-32.90228488496822
 10
121.73618232311186
 20
-32.90134725933323
 10
121.73581544697701
 20
-32.90026095085694
 10
121.73542375797669
 20
-32.899183340569785
 10
121.73509848743035
 20
-32.89834859464335
 10
121.73478702539802
 20
-32.897508607287186
 10
121.73436385137441
 20
-32.896442965747724
 10
121.73391635314971
 20
-32.89538730790365
 10
121.73352118676858
 20
-32.89448406599047
 10
121.73304960039226
 20
-32.89343894853607
 10
121.73255417320281
 20
-32.89240491947276
 10
121.732148649515
 20
-32.89160607516599
 10
121.7317563540988
 20
-32.89080066119602
 10
121.7312307666374
 20
-32.88978162931934
 10
121.73068195067583
 20
-32.888774917252455
 10
121.73020015393934
 20
-32.88791475777434
 10
121.7296283989561
 20
-32.88692089639413
 10
121.72903400481215
 20
-32.88594040681969
 10
121.7285521333974
 20
-32.88518515743913
 10
121.72808278261626
 20
-32.88442207343166
 10
121.72745984341154
 20
-32.883459465051786
 10
121.72681499511076
 20
-32.88251139394962
 10
121.72625120798493
 20
-32.88170260071282
 10
121.72558479070821
 20
-32.88076956683578
 10
121.72489715395072
 20
-32.8798520594014
 10
121.72434357549443
 20
-32.879147678411634
 10
121.72380168945323
 20
-32.87843427328344
 10
121.72308739775072
 20
-32.87753735884585
 10
121.72235272735284
 20
-32.876657059151924
 10
121.72171237941612
 20
-32.875907421277624
 10
121.7209577178078
 20
-32.875044200528876
 10
121.72018346075379
 20
-32.87419851133157
 10
121.71956350651806
 20
-32.873551782305306
 10
121.71895430387663
 20
-32.87289492653893
 10
121.71815553869534
 20
-32.87207234381926
 10
121.71733812147733
 20
-32.87126829330019
 10
121.71662737963024
 20
-32.87058503021075
 10
121.71579174149454
 20
-32.86979993587859
 10
121.71493832066312
 20
-32.86903420936821
 10
121.7142579611472
 20
-32.86845136066069
 10
121.71358730885859
 20
-32.867857380134666
 10
121.71271176274391
 20
-32.86711705105433
 10
121.71181947088044
 20
-32.866396993156286
 10
121.71104517995548
 20
-32.86578668504875
 10
121.71013661294496
 20
-32.865087278021186
 10
121.70921224724577
 20
-32.864408888563005
 10
121.70847803468403
 20
-32.863895533325945
 10
121.70775239149641
 20
-32.86337014839759
 10
121.70680849643617
 20
-32.862719202730474
 10
121.70584992318581
 20
-32.862090072004776
 10
121.70501954002775
 20
-32.86155859647976
 10
121.7040467941386
 20
-32.86095161242815
 10
121.70306038571783
 20
-32.86036709328289
 10
121.70227939097754
 20
-32.859928175407084
 10
121.70150574523255
 20
-32.85947644582129
 10
121.70050259145255
 20
-32.858921152530236
 10
121.69948696840011
 20
-32.85838900784991
 10
121.69860849005283
 20
-32.85794148330735
 10
121.69758093336007
 20
-32.85743276782018
 10
121.6965419818704
 20
-32.85694774822696
 10
121.69572172635812
 20
-32.856587494731706
 10
121.69490752868613
 20
-32.85621377089065
 10
121.6938547771054
 20
-32.855759477753445
 10
121.69279188525584
 20
-32.85532944396249
 10
121.69187377194615
 20
-32.85497018030841
 10
121.69080130038276
 20
-32.85456463259403
 10
121.68971981149527
 20
-32.854183783556785
 10
121.6888681947191
 20
-32.8539056638799
 10
121.68802128629034
 20
-32.85361354494911
 10
121.68692907548221
 20
-32.85326462705698
 10
121.68582915106516
 20
-32.852940845615876
 10
121.68488024472603
 20
-32.85267330275559
 10
121.68377318677848
 20
-32.85237482845983
 10
121.6826595758214
 20
-32.85210181776269
 10
121.68178479931746
 20
-32.85190851034915
 10
121.68091333632174
 20
-32.8517008095931
 10
121.67979218487292
 20
-32.85146062721599
 10
121.67866582076135
 20
-32.85124621631693
 10
121.67769525987948
 20
-32.85107297083446
 10
121.67656427712197
 20
-32.85088444442829
 10
121.67542926877857
 20
-32.85072190131379
 10
121.6745397571234
 20
-32.850615267819705
 10
121.6736521322263
 20
-32.850493985510326
 10
121.67251283743803
 20
-32.85036485173586
 10
121.67137088113401
 20
-32.85026187627303
 10
121.67038801274133
 20
-32.85018459661707
 10
121.66924399715553
 20
-32.85010783371272
 10
121.66809852217612
 20
-32.85005732355982
 10
121.66718996483546
 20
-32.85003811873317
 10
121.66622705980963
 20
-32.85000265283565
 10
121.66499999975417
 20
-32.849987593746874
 10
119.24380327695519
 20
-32.84998748084159
 10
119.25163429370497
 20
-32.689264380119205
 10
119.2859831825521
 20
-32.455762003776194
 10
119.34286965603191
 20
-32.226704947445086
 10
119.42175480088454
 20
-32.00426318014021
 10
119.52189129972422
 20
-31.790544001028564
 10
119.64233051074197
 20
-31.587572075951492
 10
119.78193145465092
 20
-31.39727025678071
 10
119.9393716237392
 20
-31.22144136530509
 10
120.11315951062862
 20
-31.06175111422343
 10
120.30164873805111
 20
-30.91971232703575
 10
120.50305365578137
 20
-30.796670606330636
 10
120.7154662569718
 20
-30.69379158623608
 10
120.93687425362917
 20
-30.612049889800478
 10
121.16518013999988
 20
-30.552219895913332
 10
121.39822106326214
 20
-30.51486840323747
 10
121.63378931328444
 20
-30.500349260649113
 10
121.8696532373381
 20
-30.508800015055225
 10
122.10357838163073
 20
-30.54014060834475
 10
122.33334865937424
 20
-30.594074135817973
 10
122.55678734485448
 20
-30.67008965890937
 10
122.77177769461387
 20
-30.767467045557527
 10
122.97628300039217
 20
-30.885283792366543
 10
123.16836588385537
 20
-31.02242376392958
 10
123.34620665032612
 20
-31.17758776652466
 10
123.50812052763354
 20
-31.349305856006325
 10
123.65257362678402
 20
-31.535951263305442
 10
123.77819747323629
 20
-31.735755805602636
 10
123.88380197112782
 20
-31.946826637185755
 10
123.9683866776321
 20
-32.16716418129835
 10
124.03115028064094
 20
-32.394681073105176
 10
124.071498189984
 20
-32.62722193431377
 10
124.08904817027107
 20
-32.86258379212426
 10
124.08363396199394
 20
-33.09853694906163
 10
124.05530685658373
 20
-33.33284610598724
 10
124.00433521050222
 20
-33.56329153817408
 10
123.93120190297036
 20
-33.78769012384146
 10
123.83659976141838
 20
-34.00391602592956
 10
123.72142499799416
 20
-34.20992083118953
 10
123.58676871930912
 20
-34.403752955799256
 10
123.43390658985412
 20
-34.58357613366731
 10
123.26428674700888
 20
-34.74768681227517
 10
123.07951608213062
 20
-34.894530291260814
 10
122.88134501769149
 20
-35.022715450850555
 10
122.67165092467233
 20
-35.13102793061566
 10
122.45242033731414
 20
-35.21844163369904
 10
122.22573013371306
 20
-35.284128447530186
 10
121.9937278605408
 20
-35.32746608893952
 10
121.7586114058108
 20
-35.34804399781586
 10
121.59770568592162
 20
-35.346423430136845
  0
LWPOLYLINE
  5
31
330
17
100
AcDbEntity
  8
0
100
AcDbPolyline
 90
151
 70
0
 10
119.3382951828179
 20
-118.09001240625277
 10
121.66499999766809
 20
-118.0900124062471
 10
121.66911234125054
 20
-118.08995199546422
 10
121.6705811305135
 20
-118.08990883279571
 10
121.67401417897017
 20
-118.0897657637748
 10
121.67744268237122
 20
-118.08953848667628
 10
121.67842554020524
 20
-118.08946120762207
 10
121.681847435763
 20
-118.08914985909963
 10
121.68526065983457
 20
-118.0887546268287
 10
121.68671814324162
 20
-118.08856770585564
 10
121.6901206398287
 20
-118.08808882790927
 10
121.69351035939432
 20
-118.08752659274569
 10
121.69448090982748
 20
-118.08735334889697
 10
121.6978558105308
 20
-118.0867080951857
 10
121.70121385945835
 20
-118.08598021160338
 10
121.7026460032254
 20
-118.0856513323502
 10
121.70598517761418
 20
-118.08484125734664
 10
121.7093034660703
 20
-118.08394947888078
 10
121.7102523621709
 20
-118.08368193867062
 10
121.71354776588133
 20
-118.0827089939165
 10
121.71681829981821
 20
-118.08165546893959
 10
121.7182113116177
 20
-118.08118779869329
 10
121.72145500573328
 20
-118.08005432809784
 10
121.72466990614792
 20
-118.07884159464399
 10
121.72558800952831
 20
-118.07848233463075
 10
121.7287721797058
 20
-118.07719106882399
 10
121.73192370162153
 20
-118.07582204847438
 10
121.73326416598806
 20
-118.07522009115524
 10
121.73638114128445
 20
-118.0737741409088
 10
121.73946169241073
 20
-118.07225213175246
 10
121.74034016123315
 20
-118.07180461180657
 10
121.74338243257989
 20
-118.07020746054208
 10
121.74638459159722
 20
-118.06853612923334
 10
121.74765959912668
 20
-118.06780568201914
 10
121.75061983742552
 20
-118.06606117741408
 10
121.75353637186977
 20
-118.06424455033664
 10
121.75436674599935
 20
-118.06371308031979
 10
121.75723781977935
 20
-118.06182542503707
 10
121.76006170346592
 20
-118.05986787860307
 10
121.7612589751386
 20
-118.05901597609987
 10
121.76403396772835
 20
-118.05698971766846
 10
121.76675839767101
 20
-118.05489596778092
 10
121.76753268015095
 20
-118.05428566603989
 10
121.7702049063524
 20
-118.05212568589236
 10
121.7728233191629
 20
-118.04990077657659
 10
121.77393132459784
 20
-118.04893562307142
 10
121.77649434678351
 20
-118.04664712478946
 10
121.77900043447549
 20
-118.04429641604723
 10
121.77971116854233
 20
-118.04361316012132
 10
121.78215881216686
 20
-118.04120165689814
 10
121.7845465373552
 20
-118.03873081179312
 10
121.78555460585467
 20
-118.03766170224155
 10
121.7878809743311
 20
-118.03513300359865
 10
121.79014458477758
 20
-118.03254797461209
 10
121.79078492567368
 20
-118.03179834462941
 10
121.79298441457495
 20
-118.02915854242512
 10
121.79511845704215
 20
-118.02646555712016
 10
121.79601688035528
 20
-118.02530278763177
 10
121.79808419092059
 20
-118.02255824138037
 10
121.80008352431389
 20
-118.019763787394
 10
121.80064730520621
 20
-118.01895500270135
 10
121.80257745710595
 20
-118.01611232425135
 10
121.80443726485852
 20
-118.01322313366408
 10
121.80521739067785
 20
-118.01197790234438
 10
121.80700573400256
 20
-118.00904393996365
 10
121.80872153567046
 20
-118.00606697309533
 10
121.80920332704096
 20
-118.00520682273118
 10
121.81084555351782
 20
-118.00218864458779
 10
121.81241321558724
 20
-117.99913107320799
 10
121.81306753087428
 20
-117.99781537231611
 10
121.81455968423542
 20
-117.99472024946616
 10
121.8159754300707
 20
-117.9915894395327
 10
121.81637059200534
 20
-117.99068620721478
 10
121.81770907752232
 20
-117.98752159608088
 10
121.81896949646747
 20
-117.98432508998974
 10
121.81949169980871
 20
-117.9829515904437
 10
121.8206732929533
 20
-117.97972511484959
 10
121.82177534854922
 20
-117.9764706132622
 10
121.82208007542214
 20
-117.97553299761238
 10
121.82310192963187
 20
-117.97225243042317
 10
121.82404296692917
 20
-117.9689477737218
 10
121.82442802922084
 20
-117.96752970307318
 10
121.82528768275951
 20
-117.9642029474632
 10
121.82606543471698
 20
-117.96085609685588
 10
121.82627679184203
 20
-117.95989312762494
 10
121.82697217373048
 20
-117.95652819803358
 10
121.82758476667676
 20
-117.95314721637025
 10
121.8278289795585
 20
-117.9516982314146
 10
121.82835841455886
 20
-117.94830323426109
 10
121.8288043727024
 20
-117.94489626663191
 10
121.82892032459486
 20
-117.94391721774018
 10
121.82928253725338
 20
-117.94050033186153
 10
121.829560786243
 20
-117.93707558594139
 10
121.82966179781121
 20
-117.93560964119654
 10
121.82985591552509
 20
-117.93217909817515
 10
121.82996578503409
 20
-117.92874482448201
 10
121.82998521501388
 20
-117.92775912470526
 10
121.83001077015149
 20
-117.92432319207158
 10
121.82995199565934
 20
-117.92088766712081
 10
121.82990883311294
 20
-117.91941887809895
 10
121.82972765369153
 20
-117.91531009150046
 10
121.69309823903541
 20
-115.59262029377362
 10
121.75513191540477
 20
-115.5919955347075
 10
121.98151155847475
 20
-115.6118086913104
 10
122.20489273292569
 20
-115.65353583911626
 10
122.42315923979321
 20
-115.71678167647276
 10
122.63424333383956
 20
-115.80094704466842
 10
122.83614531233337
 20
-115.90523460405795
 10
123.02695245920735
 20
-116.02865638764904
 10
123.20485716515502
 20
-116.17004316059739
 10
123.36817405199444
 20
-116.32805549693857
 10
123.51535593908086
 20
-116.50119646862588
 10
123.64500850050258
 20
-116.6878258266587
 10
123.75590347421355
 20
-116.88617553996502
 10
123.84699029795817
 20
-117.09436654482154
 10
123.9174060617614
 20
-117.31042654614292
 10
123.96648368269645
 20
-117.53230870199697
 10
123.99375822448691
 20
-117.75791101433698
 10
123.99897130207546
 20
-117.98509624225693
 10
123.9820735294317
 20
-118.21171214911853
 10
123.94322498740999
 20
-118.43561189173973
 10
123.88279370722549
 20
-118.65467435848898
 10
123.8013521839145
 20
-118.86682426361236
 10
123.69967195280972
 20
-119.07005180742826
 10
123.57871628040844
 20
-119.2624317161429
 10
123.43963103887947
 20
-119.44214148090771
 10
123.28373385065531
 20
-119.60747862333757
 10
123.11250160595216
 20
-119.75687682391889
 10
122.92755647146674
 20
-119.88892076052032
 10
122.73065052279935
 20
-120.00235951643012
 10
122.52364914618506
 20
-120.09611843090168
 10
122.30851336678009
 20
-120.16930927993909
 10
122.08728127091102
 20
-120.22123869087756
 10
121.86204869828859
 20
-120.25141471104101
 10
121.63494938709377
 20
-120.25955146825021
 10
121.40813476003407
 20
-120.2455718790295
 10
121.18375354286485
 20
-120.20960837885622
 10
120.96393140846124
 20
-120.15200166753486
 10
120.75075083927999
 20
-120.07329748158115
 10
120.54623139898678
 20
-119.97424142419389
 10
120.3523106001419
 20
-119.85577190179094
 10
120.17082554919826
 20
-119.71901123402739
 10
120.00349554269494
 20
-119.56525502151364
 10
119.8519057795199
 20
-119.39595987195669
 10
119.71749234354739
 20
-119.21272960100471
 10
119.6015285989143
 20
-119.01730003851813
 10
119.50511312681896
 20
-118.81152258420495
 10
119.42915931812493
 20
-118.59734666840671
 10
119.3743867203638
 20
-118.3768012841942
 10
119.34131422765807
 20
-118.15197581024228
 10
119.3382951828179
 20
-118.09001240625277
  0
LWPOLYLINE
  5
32
330
17
100
AcDbEntity
  8
0
100
AcDbPolyline
 90
152
 70
0
 10
26.50002590738441
 20
-117.92825194927075
 10
26.500026049711458
 20
-117.9282937007665
 10
26.500134286010827
 20
-117.93195371492578
 10
26.500338202533033
 20
-117.93560964665306
 10
26.500439214106866
 20
-117.9370755908091
 10
26.50071746320372
 20
-117.94050033671887
 10
26.501079675969144
 20
-117.94391722258453
 10
26.501195627961398
 20
-117.94489627205616
 10
26.501641586211992
 20
-117.9483032396736
 10
26.502171021319164
 20
-117.95169823681276
 10
26.502415234148703
 20
-117.95314722118138
 10
26.503027827200736
 20
-117.95652820282393
 10
26.503723209194334
 20
-117.95989313239193
 10
26.503934566475515
 20
-117.96085610219006
 10
26.504712318538168
 20
-117.9642029527741
 10
26.505571972181432
 20
-117.96752970835823
 10
26.505957034363604
 20
-117.96894777842775
 10
26.50689807176443
 20
-117.9722524350993
 10
26.50791992607694
 20
-117.97553300225617
 10
26.50822465316086
 20
-117.97647061845522
 10
26.509326708858698
 20
-117.9797251200077
 10
26.510508302104316
 20
-117.98295159556443
 10
26.51103050527992
 20
-117.9843250945452
 10
26.512290924324923
 20
-117.98752160059597
 10
26.513629409940716
 20
-117.99068621168706
 10
26.514024572138954
 20
-117.9915894445304
 10
26.515440318072343
 20
-117.99472025441949
 10
26.51693247153048
 20
-117.9978153772227
 10
26.517586786597363
 20
-117.99913107756848
 10
26.519154448763288
 20
-118.00218864890047
 10
26.520796675335486
 20
-118.00520682699369
 10
26.52127846702024
 20
-118.00606697785561
 10
26.522994268781947
 20
-118.00904394467089
 10
26.524782612199143
 20
-118.01197790699631
 10
26.525562737745535
 20
-118.01322313779352
 10
26.527422545587573
 20
-118.01611232832069
 10
26.52935269757524
 20
-118.01895500670842
 10
26.529916478828934
 20
-118.01976379186546
 10
26.53191581230985
 20
-118.02255824578923
 10
26.533983122961214
 20
-118.02530279197589
 10
26.53488154595161
 20
-118.02646556097126
 10
26.53701558850457
 20
-118.02915854621101
 10
26.539215077490024
 20
-118.03179834834796
 10
26.539855418791213
 20
-118.03254797875725
 10
26.54211902931772
 20
-118.03513300767163
 10
26.544445397872376
 20
-118.03766170624043
 10
26.545453466002346
 20
-118.03873081533297
 10
26.547841191267842
 20
-118.04120166036283
 10
26.550288834967635
 20
-118.043613163509
 10
26.550999569479416
 20
-118.04429641981977
 10
26.55350565724532
 20
-118.04664712848367
 10
26.556068679502967
 20
-118.04893562668549
 10
26.55717668452527
 20
-118.04990077977014
 10
26.55979509740434
 20
-118.05212568900288
 10
26.562467323672305
 20
-118.05428566906573
 10
26.563241606632904
 20
-118.05489597114631
 10
26.565966036643044
 20
-118.05698972094991
 10
26.568741029298224
 20
-118.05901597929572
 10
26.56993830051881
 20
-118.05986788142069
 10
26.572762184264672
 20
-118.0618254277647
 10
26.575633258101696
 20
-118.06371308295606
 10
26.576463632742815
 20
-118.06424455326365
 10
26.579380167246033
 20
-118.066061180251
 10
26.582340405601645
 20
-118.06780568476448
 10
26.58361541264432
 20
-118.0685361316467
 10
26.586617571712317
 20
-118.07020746286035
 10
26.58965984310736
 20
-118.0718046140286
 10
26.59053831246739
 20
-118.0722521342137
 10
26.59361886364244
 20
-118.07377414327405
 10
26.596735838985254
 20
-118.07522009342331
 10
26.598076302834993
 20
-118.07582205045988
 10
26.601227824794666
 20
-118.07719107071112
 10
26.604411995013688
 20
-118.07848233641846
 10
26.605330098952493
 20
-118.07884159661701
 10
26.608544999404003
 20
-118.0800543299696
 10
26.611788693553933
 20
-118.08118780046296
 10
26.613181704810923
 20
-118.08165547047854
 10
26.616452238780653
 20
-118.08270899535286
 10
26.61974764252139
 20
-118.08368194000366
 10
26.62069653919604
 20
-118.08394948034356
 10
26.624014827681474
 20
-118.08484125870577
 10
26.62735400209704
 20
-118.08565133360494
 10
26.628786145302026
 20
-118.08598021268178
 10
26.6321441942515
 20
-118.08670809615859
 10
26.63551909497415
 20
-118.08735334976387
 10
26.636489645990803
 20
-118.08752659368535
 10
26.63987936557295
 20
-118.0880888287425
 10
26.643281862173946
 20
-118.08856770658208
 10
26.644739345004634
 20
-118.08875462743481
 10
26.648152569090136
 20
-118.08914985959896
 10
26.651574464659223
 20
-118.08946120801426
 10
26.652557323081194
 20
-118.08953848708369
 10
26.655985825861077
 20
-118.0897657640408
 10
26.659418873692644
 20
-118.08990883295101
 10
26.660887662125194
 20
-118.08995199556223
 10
26.664999996049442
 20
-118.09001240625312
 10
28.991704827270027
 20
-118.09001251475205
 10
28.988685750656593
 20
-118.15197577309506
 10
28.95561325081462
 20
-118.37680128880413
 10
28.900840652741813
 20
-118.59734667019303
 10
28.82488684401222
 20
-118.81152258315034
 10
28.72847137215751
 20
-119.0173000346329
 10
28.61250762803908
 20
-119.21272959432568
 10
28.478094192850644
 20
-119.39595986254687
 10
28.326504430721116
 20
-119.56525500946246
 10
28.1591744255152
 20
-119.719011219449
 10
27.977689376108863
 20
-119.85577188482316
 10
27.783768579025907
 20
-119.9742414049977
 10
27.57924914070293
 20
-120.07329746033844
 10
27.366068573681837
 20
-120.15200164444671
 10
27.14624644160715
 20
-120.20960835414148
 10
26.921865226914406
 20
-120.24557185292223
 10
26.695050602454437
 20
-120.25955144099774
 10
26.467951293958595
 20
-120.25141468290158
 10
26.24271872410836
 20
-120.22123866211767
 10
26.02148663105895
 20
-120.16930925083128
 10
25.80635085449387
 20
-120.09611840172163
 10
25.599349480713197
 20
-120.00235948745431
 10
25.40244353484605
 20
-119.88892073202322
 10
25.21749840310127
 20
-119.75687679617059
 10
25.046266161052614
 20
-119.60747859660064
 10
24.890368975372454
 20
-119.44214145543587
 10
24.751283736252137
 20
-119.26243169217702
 10
24.630328066101907
 20
-119.07005178519576
 10
24.52864783706884
 20
-118.86682424332355
 10
24.44720631563093
 20
-118.65467434033634
 10
24.38677503710287
 20
-118.435611875895
 10
24.347926496505416
 20
-118.21171213573196
 10
24.33102872504019
 20
-117.98509623145529
 10
24.336241803550433
 20
-117.75791100622246
 10
24.363516345996935
 20
-117.53230869664664
 10
24.412593967316198
 20
-117.31042654360748
 10
24.483009731228208
 20
-117.09436654512484
 10
24.57409655480501
 20
-116.88617554310444
 10
24.68499152807342
 20
-116.68782583260418
 10
24.814644088781765
 20
-116.50119647732126
 10
24.961825974890832
 20
-116.32805550830155
 10
25.12514286049831
 20
-116.17004317452013
 10
25.303047564970793
 20
-116.02865640399988
 10
25.493854710140937
 20
-115.90523462268175
 10
25.695756686717417
 20
-115.80094706538898
 10
25.90684077865219
 20
-115.7167816990936
 10
26.125107283233355
 20
-115.65353586342313
 10
26.34848845524447
 20
-115.61180871707307
 10
26.57486806778403
 20
-115.59199556412908
 10
26.636901811584558
 20
-115.59262035020589
 10
26.50027234645581
 20
-117.9153100890982
 10
26.500091166752274
 20
-117.91941888205798
 10
26.500048004248757
 20
-117.9208876707383
 10
26.499988320982776
 20
-117.92454879255183
 10
26.50002440418389
 20
-117.92821022301386
 10
26.50002590738441
 20
-117.92825194927075
  0
LWPOLYLINE
  5
33
330
17
100
AcDbEntity
  8
0
100
AcDbPolyline
 90
151
 70
0
 10
26.636900830961842
 20
-35.257379637042874
 10
26.57486717426434
 20
-35.25800437139005
 10
26.34848756348616
 20
-35.23819112931211
 10
26.12510642914392
 20
-35.196463901395845
 10
25.906839969467377
 20
-35.13321798998626
 10
25.69575592890173
 20
-35.0490525543962
 10
25.493854009337454
 20
-34.944764934776124
 10
25.303046925963507
 20
-34.82134309852377
 10
25.125142287182317
 20
-34.679956280786534
 10
24.96182547025764
 20
-34.52194390772908
 10
24.8146436549135
 20
-34.34880290749608
 10
24.684991166148226
 20
-34.16217352908358
 10
24.574096265114502
 20
-33.963823803461416
 10
24.483009513203548
 20
-33.755632794155126
 10
24.4125938195655
 20
-33.539572795962066
 10
24.36351626635103
 20
-33.31769065044303
 10
24.336241789117118
 20
-33.092088355194804
 10
24.33102877226629
 20
-32.86490315060391
 10
24.34792660124535
 20
-32.638287272728036
 10
24.386775194693
 20
-32.41438756411538
 10
24.44720652096845
 20
-32.19532513572052
 10
24.528648084694435
 20
-31.98317527258709
 10
24.630328350284604
 20
-31.779947773662446
 10
24.75128405107587
 20
-31.587567911993442
 10
24.890369314822326
 20
-31.40785819567781
 10
25.046266519101177
 20
-31.2425211023572
 10
25.217498773791345
 20
-31.093122950817776
 10
25.402443912372686
 20
-30.9610790624897
 10
25.599349859499288
 20
-30.84764035341808
 10
25.806351229262376
 20
-30.75388148372621
 10
26.021486996898986
 20
-30.680690676837067
 10
26.242719076534573
 20
-30.628761304900262
 10
26.46795162896304
 20
-30.598585320140064
 10
26.695050916551352
 20
-30.590448594352534
 10
26.92186551717574
 20
-30.604428210702768
 10
27.146246705690302
 20
-30.6403917334785
 10
27.36606880984724
 20
-30.697998462718196
 10
27.579249347824394
 20
-30.77670266182756
 10
27.78376875658978
 20
-30.875758727608023
 10
27.97768952420565
 20
-30.99422825371903
 10
28.159174544821955
 20
-31.130988920657888
 10
28.326504522475037
 20
-31.284745128039198
 10
28.478094258815144
 20
-31.45404026844794
 10
28.61250767046224
 20
-31.637270526590743
 10
28.728471393723048
 20
-31.83270007301895
 10
28.824886847785514
 20
-32.0384775084865
 10
28.90084064210945
 20
-32.252653403155975
 10
28.955613229420013
 20
-32.47319876449685
 10
28.988685718442273
 20
-32.698024232495605
 10
28.99170477446301
 20
-32.759987593747226
 10
26.665000002331986
 20
-32.75998759375289
 10
26.66088768669222
 20
-32.76004800371463
 10
26.659418907399957
 20
-32.760091165796595
 10
26.65598585891233
 20
-32.760234234132135
 10
26.652557355463507
 20
-32.760461510546314
 10
26.651574487658856
 20
-32.76053879018705
 10
26.648152592039573
 20
-32.76085013802626
 10
26.644739367889745
 20
-32.76124536961568
 10
26.643281894347677
 20
-32.761432289027795
 10
26.639879397665922
 20
-32.761911166294695
 10
26.636489677988994
 20
-32.76247340078133
 10
26.63551911769079
 20
-32.76264664619101
 10
26.63214421685847
 20
-32.763291899228456
 10
26.62878616778543
 20
-32.76401978214032
 10
26.627354033683115
 20
-32.76434865887307
 10
26.624014859132497
 20
-32.76515873320993
 10
26.62069657049825
 20
-32.766050511013276
 10
26.619747664732714
 20
-32.76631805374393
 10
26.6164522608281
 20
-32.76729099784007
 10
26.61318172668094
 20
-32.76834452216394
 10
26.611788724252673
 20
-32.7688121889546
 10
26.60854502991115
 20
-32.76994565890227
 10
26.605330129254718
 20
-32.771158391714074
 10
26.604412016503314
 20
-32.77151765518287
 10
26.601227846066507
 20
-32.772808920354485
 10
26.598076323875972
 20
-32.77417794007553
 10
26.596735868496495
 20
-32.7747798930373
 10
26.593618892912474
 20
-32.776225842660956
 10
26.590538341483366
 20
-32.77774785120172
 10
26.589659863673702
 20
-32.77819537550508
 10
26.586617592007595
 20
-32.779792526162396
 10
26.583615432656106
 20
-32.781463856872
 10
26.582340433643523
 20
-32.7821942988688
 10
26.579380194995807
 20
-32.78393880288319
 10
26.5764636601883
 20
-32.78575542937872
 10
26.575633277541787
 20
-32.78628690461303
 10
26.572762203385768
 20
-32.78817455932197
 10
26.56993831930919
 20
-32.79013210519159
 10
26.56874105560117
 20
-32.790984001667574
 10
26.56596606260615
 20
-32.79301025954547
 10
26.563241632244768
 20
-32.795104008889616
 10
26.56246734180023
 20
-32.79571431665785
 10
26.55979511516804
 20
-32.79787429627146
 10
26.557176701913846
 20
-32.80009920506403
 10
26.556068703814304
 20
-32.801064351790465
 10
26.55350568117159
 20
-32.80335284956082
 10
26.550999593010143
 20
-32.80570355780282
 10
26.55028885160788
 20
-32.806386820507505
 10
26.547841207501946
 20
-32.80879832324196
 10
26.545453481820346
 20
-32.811269167870215
 10
26.544445419956585
 20
-32.81233826995662
 10
26.542119050975757
 20
-32.81486696813452
 10
26.539855440013625
 20
-32.81745199666859
 10
26.539215092481918
 20
-32.81820163411632
 10
26.5370156030534
 20
-32.82084143588164
 10
26.534881560048355
 20
-32.82353442076072
 10
26.533983142607216
 20
-32.82469718216954
 10
26.531915831492807
 20
-32.8274417280097
 10
26.52991649754052
 20
-32.83023618159847
 10
26.5293527107761
 20
-32.8310449743709
 10
26.527422558310555
 20
-32.833887652433
 10
26.52556274998277
 20
-32.83677684264635
 10
26.524782629215405
 20
-32.838022065349485
 10
26.522994285303852
 20
-32.84095602737483
 10
26.5212784830406
 20
-32.843932993902285
 10
26.520796686618212
 20
-32.844793152882865
 10
26.519154459538807
 20
-32.84781133069831
 10
26.517586796858982
 20
-32.85086890176507
 10
26.516932485754754
 20
-32.8521845935873
 10
26.51544033177574
 20
-32.855279716139194
 10
26.514024585315457
 20
-32.85841052578982
 10
26.51362941919803
 20
-32.85931376717735
 10
26.51229093304903
 20
-32.862478378044486
 10
26.511030513465524
 20
-32.86567488388446
 10
26.510508313398073
 20
-32.8670483739943
 10
26.50932671960994
 20
-32.87027484935078
 10
26.508224663364807
 20
-32.87352935071637
 10
26.507919933218087
 20
-32.874466975802484
 10
26.506898078353235
 20
-32.87774754278788
 10
26.505957040396044
 20
-32.88105219930159
 10
26.50557198043748
 20
-32.88247026023845
 10
26.50471232623409
 20
-32.88579701567871
 10
26.503934573607967
 20
-32.88914386613269
 10
26.503723214149847
 20
-32.890106845075266
 10
26.503027831590117
 20
-32.89347177452532
 10
26.502415237969206
 20
-32.896852756063836
 10
26.502171026457425
 20
-32.89830173112572
 10
26.501641590778814
 20
-32.90169672817593
 10
26.501195631954776
 20
-32.90510369571847
 10
26.501079678692367
 20
-32.90608275450387
 10
26.500717465351812
 20
-32.90949964030898
 10
26.500439215678526
 20
-32.912924386172335
 10
26.5003382045039
 20
-32.91439032093725
 10
26.500144086105067
 20
-32.91782086392033
 10
26.500034215910382
 20
-32.92125513759199
 10
26.50001478553699
 20
-32.92224084734897
 10
26.499989229713385
 20
-32.925676779977636
 10
26.500048003519627
 20
-32.929112304940226
 10
26.50009116547952
 20
-32.93058108399107
 10
26.500272342455936
 20
-32.934689843006595
 10
26.636900830961842
 20
-35.257379637042874
  0
LWPOLYLINE
  5
34
330
17
100
AcDbEntity
  8
0
100
AcDbPolyline
 90
151
 70
0
 10
121.6930991206316
 20
-35.257379624009786
 10
121.82972765741351
 20
-32.93468984512376
 10
121.82990883465527
 20
-32.93058108003209
 10
121.82995199657229
 20
-32.92911230132208
 10
121.83001077030478
 20
-32.9256767757275
 10
121.82998521437648
 20
-32.922240842468966
 10
121.82996578396059
 20
-32.921255132124934
 10
121.82985591365825
 20
-32.91782085845787
 10
121.82966179515194
 20
-32.91439031548203
 10
121.82956078397174
 20
-32.91292438130634
 10
121.82928253419088
 20
-32.909499635449265
 10
121.82892032074287
 20
-32.90608274965307
 10
121.82880436738063
 20
-32.905103690287795
 10
121.82835840845003
 20
-32.90169672276172
 10
121.82782897266537
 20
-32.89830172573059
 10
121.8275847612058
 20
-32.896852751255594
 10
121.8269721674785
 20
-32.89347176973419
 10
121.82627678481279
 20
-32.89010684030387
 10
121.8260654251985
 20
-32.88914386079402
 10
121.82528767246794
 20
-32.88579701036675
 10
121.82442801816084
 20
-32.88247025495574
 10
121.82404295831181
 20
-32.88105219459798
 10
121.82310192025125
 20
-32.877747538114434
 10
121.82208006528381
 20
-32.87446697116173
 10
121.82177533492623
 20
-32.87352934552674
 10
121.8206732785784
 20
-32.87027484419359
 10
121.81949168468834
 20
-32.86704836887209
 10
121.81896948478641
 20
-32.86567487932726
 10
121.81770906510326
 20
-32.86247837352831
 10
121.8163705788557
 20
-32.85931376270462
 10
121.81597541247457
 20
-32.858410520791445
 10
121.81455966591577
 20
-32.85527971118429
 10
121.8130675118393
 20
-32.85218458867829
 10
121.81241320095533
 20
-32.850868897402435
 10
121.81084553817982
 20
-32.84781132638518
 10
121.80920331100599
 20
-32.84479314862155
 10
121.8087215142695
 20
-32.84393298914343
 10
121.80700571191272
 20
-32.84095602266944
 10
121.80521736790898
 20
-32.838022060699835
 10
121.80443724741438
 20
-32.83677683851887
 10
121.80257743899524
 20
-32.83388764836266
 10
121.80064728643974
 20
-32.83104497035995
 10
121.80008349931391
 20
-32.83023617712315
 10
121.79808416527537
 20
-32.82744172359902
 10
121.79601685407637
 20
-32.82469717782556
 10
121.79511843695802
 20
-32.82353441690983
 10
121.79298439386845
 20
-32.82084143209749
 10
121.79078490435708
 20
-32.81820163040095
 10
121.79014455642036
 20
-32.81745199252665
 10
121.7878809453767
 20
-32.81486696406296
 10
121.78555457631609
 20
-32.812338265957436
 10
121.78454651482166
 20
-32.81126916432988
 10
121.78215878906292
 20
-32.80879831977683
 10
121.77971114488174
 20
-32.806386817119446
 10
121.77900040303466
 20
-32.80570355403
 10
121.77649431479915
 20
-32.803352845866215
 10
121.77393129208431
 20
-32.80106434817588
 10
121.77282329439721
 20
-32.800099201869806
 10
121.7702048810726
 20
-32.797874293158785
 10
121.767532654372
 20
-32.79571431362844
 10
121.76675836344704
 20
-32.7951040055209
 10
121.76403393302154
 20
-32.793010256263365
 10
121.76125893996456
 20
-32.79098399847359
 10
121.76006167670843
 20
-32.79013210237566
 10
121.75723779256937
 20
-32.788174556593766
 10
121.75436671835301
 20
-32.786286901974066
 10
121.75353633519495
 20
-32.78575542644905
 10
121.75061980033053
 20
-32.783938800045014
 10
121.74765956162815
 20
-32.78219429612348
 10
121.7463845631024
 20
-32.78146385445868
 10
121.74338240369929
 20
-32.77979252384363
 10
121.7403401319839
 20
-32.77819537328209
 10
121.73946165363662
 20
-32.77774784873953
 10
121.73638110215907
 20
-32.77622584029497
 10
121.73326412652897
 20
-32.77477989076869
 10
121.73192367166651
 20
-32.77417793808961
 10
121.7287721494339
 20
-32.77280891846774
 10
121.72558797895748
 20
-32.77151765339629
 10
121.72466986564778
 20
-32.77115838974221
 10
121.72145496495293
 20
-32.76994565703102
 10
121.71821127057545
 20
-32.76881218718488
 10
121.7168182686892
 20
-32.76834452062478
 10
121.7135477345102
 20
-32.7672909964038
 10
121.7102523305763
 20
-32.76631805241127
 10
121.70930342423716
 20
-32.766050509550986
 10
121.7059851355734
 20
-32.76515873185121
 10
121.70264596099582
 20
-32.76434865761864
 10
121.7012138274555
 20
-32.764019781062224
 10
121.6978557783604
 20
-32.7632918982558
 10
121.69448087750862
 20
-32.76264664532428
 10
121.69351031662676
 20
-32.76247339984181
 10
121.69012059693208
 20
-32.761911165461406
 10
121.68671810023518
 20
-32.76143228830113
 10
121.6852606272698
 20
-32.76124536900941
 10
121.68184740310689
 20
-32.7608501375269
 10
121.67842550747714
 20
-32.760538789794914
 10
121.67744263908446
 20
-32.76046151013895
 10
121.67401413625824
 20
-32.76023423386626
 10
121.67058108839714
 20
-32.76009116564143
 10
121.66911230993567
 20
-32.760048003616724
 10
121.66500000395105
 20
-32.75998759374687
 10
119.33829517202321
 20
-32.75998748524793
 10
119.34131424746109
 20
-32.69802424583816
 10
119.37438674178944
 20
-32.47319874852345
 10
119.42915933078922
 20
-32.25265338445946
 10
119.5051131270592
 20
-32.03847748724365
 10
119.60152858330592
 20
-31.83270004943136
 10
119.71749230896873
 20
-31.63727050088159
 10
119.85190572321258
 20
-31.454040240860948
 10
120.00349546231969
 20
-31.2847450988357
 10
120.17082544288394
 20
-31.130988890114455
 10
120.35231046652773
 20
-30.994228222125127
 10
120.54623123725892
 20
-30.875758695262913
 10
120.75075064919794
 20
-30.776702629037636
 10
120.96393119037693
 20
-30.697998429794115
 10
121.18375329773356
 20
-30.64039170073217
 10
121.40813448941542
 20
-30.604428178444394
 10
121.63494909314463
 20
-30.590448562887737
 10
121.8620483837459
 20
-30.598585289766906
 10
122.08728093906691
 20
-30.6287612759065
 10
122.30851302144733
 20
-30.68069064949737
 10
122.5236487916548
 20
-30.75388145829954
 10
122.73065016379076
 20
-30.847640330145378
 10
122.9275561130696
 20
-30.961079041591443
 10
123.11250125356193
 20
-31.093122932491802
 10
123.28373350990428
 20
-31.24252108677739
 10
123.4396307155603
 20
-31.407858182991536
 10
123.57871598039611
 20
-31.587567902320867
 10
123.69967168197866
 20
-31.77994776709534
 10
123.80135194805443
 20
-31.983175269187644
 10
123.8827935119558
 20
-32.19532513552083
 10
123.94322483809474
 20
-32.414387567117686
 10
123.98207343109519
 20
-32.6382872789034
 10
123.99897125932071
 20
-32.864903159894006
 10
123.99375824141711
 20
-33.09208836751162
 10
123.96648376284114
 20
-33.31769066567015
 10
123.91740620800809
 20
-33.53957281395489
 10
123.84699051249022
 20
-33.75563281474335
 10
123.75590375845603
 20
-33.96382382644998
 10
123.64500885507576
 20
-34.162173554254785
 10
123.51535636376302
 20
-34.348802934611214
 10
123.36817454569433
 20
-34.52194393653149
 10
123.20485772589396
 20
-34.67995631100334
 10
123.02695308411329
 20
-34.821343129868666
 10
122.83614599764431
 20
-34.944764966952214
 10
122.63424407491907
 20
-35.04905258709855
 10
122.42316003115585
 20
-35.13321802290523
 10
122.2048935682763
 20
-35.19646393421944
 10
121.98151243075517
 20
-35.238191161729446
 10
121.75513286303465
 20
-35.25800439905206
 10
121.6930991206316
 20
-35.257379624009786
  0
ENDSEC
  0
SECTION
  2
OBJECTS
  0
DICTIONARY
  5
A
330
0
100
AcDbDictionary
281
1
  3
ACAD_COLOR
350
B
  3
ACAD_GROUP
350
C
  3
ACAD_LAYOUT
350
D
  3
ACAD_MATERIAL
350
E
  3
ACAD_MLEADERSTYLE
350
F
  3
ACAD_MLINESTYLE
350
10
  3
ACAD_PLOTSETTINGS
350
11
  3
ACAD_PLOTSTYLENAME
350
12
  3
ACAD_SCALELIST
350
14
  3
ACAD_TABLESTYLE
350
15
  3
ACAD_VISUALSTYLE
350
16
  0
DICTIONARY
  5
B
330
A
100
AcDbDictionary
281
1
  0
DICTIONARY
  5
C
330
A
100
AcDbDictionary
281
1
  0
DICTIONARY
  5
D
330
A
100
AcDbDictionary
281
1
  3
Model
350
1A
  3
Layout1
350
1E
  0
DICTIONARY
  5
E
330
A
100
AcDbDictionary
281
1
  3
ByBlock
350
1F
  3
ByLayer
350
20
  3
Global
350
21
  0
DICTIONARY
  5
F
330
A
100
AcDbDictionary
281
1
  3
Standard
350
2C
  0
DICTIONARY
  5
10
330
A
100
AcDbDictionary
281
1
  3
Standard
350
22
  0
DICTIONARY
  5
11
330
A
100
AcDbDictionary
281
1
  0
ACDBDICTIONARYWDFLT
  5
12
330
A
100
AcDbDictionary
281
1
  3
Normal
350
13
100
AcDbDictionaryWithDefault
340
13
  0
ACDBPLACEHOLDER
  5
13
330
12
  0
DICTIONARY
  5
14
330
A
100
AcDbDictionary
281
1
  0
DICTIONARY
  5
15
330
A
100
AcDbDictionary
281
1
  0
DICTIONARY
  5
16
330
A
100
AcDbDictionary
281
1
  0
LAYOUT
  5
1A
330
D
100
AcDbPlotSettings
  1

  2
Adobe PDF
  4
A4
  6

 40
3.175
 41
3.175
 42
3.175
 43
3.175
 44
209.91
 45
297.03
 46
0.0
 47
0.0
 48
0.0
 49
0.0
140
0.0
141
0.0
142
1.0
143
1.0
 70
1024
 72
0
 73
1
 74
5
  7

 75
16
 76
0
 77
2
 78
300
147
1.0
148
0.0
149
0.0
100
AcDbLayout
  1
Model
 70
1
 71
0
 10
-3.175
 20
-3.175
 11
293.857
 21
206.735
 12
0.0
 22
0.0
 32
0.0
 14
29.068
 24
20.356
 34
0.0
 15
261.614
 25
183.204
 35
0.0
146
0.0
 13
0.0
 23
0.0
 33
0.0
 16
1.0
 26
0.0
 36
0.0
 17
0.0
 27
1.0
 37
0.0
 76
1
330
17
  0
LAYOUT
  5
1E
330
D
100
AcDbPlotSettings
  1

  2
Adobe PDF
  4
A4
  6

 40
3.175
 41
3.175
 42
3.175
 43
3.175
 44
209.91
 45
297.03
 46
0.0
 47
0.0
 48
0.0
 49
0.0
140
0.0
141
0.0
142
1.0
143
1.0
 70
0
 72
0
 73
1
 74
5
  7

 75
16
 76
0
 77
2
 78
300
147
1.0
148
0.0
149
0.0
100
AcDbLayout
  1
Layout1
 70
1
 71
1
 10
-3.175
 20
-3.175
 11
293.857
 21
206.735
 12
0.0
 22
0.0
 32
0.0
 14
29.068
 24
20.356
 34
0.0
 15
261.614
 25
183.204
 35
0.0
146
0.0
 13
0.0
 23
0.0
 33
0.0
 16
1.0
 26
0.0
 36
0.0
 17
0.0
 27
1.0
 37
0.0
 76
1
330
1B
  0
MATERIAL
  5
1F
102
{ACAD_REACTORS
330
E
102
}
330
E
100
AcDbMaterial
  1
ByBlock
  2

 70
0
 40
1.0
 71
1
 41
1.0
 91
-1023410177
 42
1.0
 72
1
  3

 73
1
 74
1
 75
1
 44
0.5
 73
0
 45
1.0
 46
1.0
 77
1
  4

 78
1
 79
1
170
1
 48
1.0
171
1
  6

172
1
173
1
174
1
140
1.0
141
1.0
175
1
  7

176
1
177
1
178
1
143
1.0
179
1
  8

270
1
271
1
272
1
145
1.0
146
1.0
273
1
  9

274
1
275
1
276
1
 42
1.0
 72
1
  3

 73
1
 74
1
 75
1
 94
63
  0
MATERIAL
  5
20
102
{ACAD_REACTORS
330
E
102
}
330
E
100
AcDbMaterial
  1
ByLayer
  2

 70
0
 40
1.0
 71
1
 41
1.0
 91
-1023410177
 42
1.0
 72
1
  3

 73
1
 74
1
 75
1
 44
0.5
 73
0
 45
1.0
 46
1.0
 77
1
  4

 78
1
 79
1
170
1
 48
1.0
171
1
  6

172
1
173
1
174
1
140
1.0
141
1.0
175
1
  7

176
1
177
1
178
1
143
1.0
179
1
  8

270
1
271
1
272
1
145
1.0
146
1.0
273
1
  9

274
1
275
1
276
1
 42
1.0
 72
1
  3

 73
1
 74
1
 75
1
 94
63
  0
MATERIAL
  5
21
102
{ACAD_REACTORS
330
E
102
}
330
E
100
AcDbMaterial
  1
Global
  2

 70
0
 40
1.0
 71
1
 41
1.0
 91
-1023410177
 42
1.0
 72
1
  3

 73
1
 74
1
 75
1
 44
0.5
 73
0
 45
1.0
 46
1.0
 77
1
  4

 78
1
 79
1
170
1
 48
1.0
171
1
  6

172
1
173
1
174
1
140
1.0
141
1.0
175
1
  7

176
1
177
1
178
1
143
1.0
179
1
  8

270
1
271
1
272
1
145
1.0
146
1.0
273
1
  9

274
1
275
1
276
1
 42
1.0
 72
1
  3

 73
1
 74
1
 75
1
 94
63
  0
MLINESTYLE
  5
22
102
{ACAD_REACTORS
330
10
102
}
330
10
100
AcDbMlineStyle
  2
Standard
 70
0
  3

 62
256
 51
90.0
 52
90.0
 71
2
 49
0.5
 62
256
  6
BYLAYER
 49
-0.5
 62
256
  6
BYLAYER
  0
MLEADERSTYLE
  5
2C
102
{ACAD_REACTORS
330
F
102
}
330
F
100
AcDbMLeaderStyle
179
2
170
2
171
1
172
0
 90
2
 40
0.0
 41
0.0
173
1
 91
-1056964608
 92
-2
290
1
 42
2.0
291
1
 43
8.0
  3
Standard
 44
4.0
300

342
29
174
1
175
1
176
0
178
1
 93
-1056964608
 45
4.0
292
0
297
0
 46
4.0
 94
-1056964608
 47
1.0
 49
0.0
140
1.0
294
1
141
0.0
177
0
142
1.0
295
0
296
0
143
3.75
271
0
272
9
272
9
  0
ENDSEC
  0
EOF
