  0
SECTION
  2
HEADER
  9
$ACADVER
  1
AC1024
  9
$ACADMAINTVER
 70
6
  9
$DWGCODEPAGE
  3
ANSI_1252
  9
$LASTSAVEDBY
  1
ezdxf
  9
$INSBASE
 10
0.0
 20
0.0
 30
0.0
  9
$EXTMIN
 10
-100
 20
-100
 30
-100
  9
$EXTMAX
 10
100
 20
100
 30
100
  9
$LIMMIN
 10
0.0
 20
0.0
  9
$LIMMAX
 10
420.0
 20
297.0
  9
$ORTHOMODE
 70
0
  9
$REGENMODE
 70
1
  9
$FILLMODE
 70
1
  9
$QTEXTMODE
 70
0
  9
$MIRRTEXT
 70
1
  9
$LTSCALE
 40
1.0
  9
$ATTMODE
 70
1
  9
$TEXTSIZE
 40
2.5
  9
$TRACEWID
 40
1.0
  9
$TEXTSTYLE
  7
Standard
  9
$CLAYER
  8
0
  9
$CELTYPE
  6
ByLayer
  9
$CECOLOR
 62
256
  9
$CELTSCALE
 40
1.0
  9
$DISPSILH
 70
0
  9
$DIMSCALE
 40
1.0
  9
$DIMASZ
 40
2.5
  9
$DIMEXO
 40
0.625
  9
$DIMDLI
 40
3.75
  9
$DIMRND
 40
0.0
  9
$DIMDLE
 40
0.0
  9
$DIMEXE
 40
1.25
  9
$DIMTP
 40
0.0
  9
$DIMTM
 40
0.0
  9
$DIMTXT
 40
2.5
  9
$DIMCEN
 40
2.5
  9
$DIMTSZ
 40
0.0
  9
$DIMTOL
 70
0
  9
$DIMLIM
 70
0
  9
$DIMTIH
 70
0
  9
$DIMTOH
 70
0
  9
$DIMSE1
 70
0
  9
$DIMSE2
 70
0
  9
$DIMTAD
 70
1
  9
$DIMZIN
 70
8
  9
$DIMBLK
  1

  9
$DIMASO
 70
1
  9
$DIMSHO
 70
1
  9
$DIMPOST
  1

  9
$DIMAPOST
  1

  9
$DIMALT
 70
0
  9
$DIMALTD
 70
3
  9
$DIMALTF
 40
0.03937007874
  9
$DIMLFAC
 40
1.0
  9
$DIMTOFL
 70
1
  9
$DIMTVP
 40
0.0
  9
$DIMTIX
 70
0
  9
$DIMSOXD
 70
0
  9
$DIMSAH
 70
0
  9
$DIMBLK1
  1

  9
$DIMBLK2
  1

  9
$DIMSTYLE
  2
ISO-25
  9
$DIMCLRD
 70
0
  9
$DIMCLRE
 70
0
  9
$DIMCLRT
 70
0
  9
$DIMTFAC
 40
1.0
  9
$DIMGAP
 40
0.625
  9
$DIMJUST
 70
0
  9
$DIMSD1
 70
0
  9
$DIMSD2
 70
0
  9
$DIMTOLJ
 70
0
  9
$DIMTZIN
 70
8
  9
$DIMALTZ
 70
0
  9
$DIMALTTZ
 70
0
  9
$DIMUPT
 70
0
  9
$DIMDEC
 70
2
  9
$DIMTDEC
 70
2
  9
$DIMALTU
 70
2
  9
$DIMALTTD
 70
3
  9
$DIMTXSTY
  7
Standard
  9
$DIMAUNIT
 70
0
  9
$DIMADEC
 70
0
  9
$DIMALTRND
 40
0.0
  9
$DIMAZIN
 70
0
  9
$DIMDSEP
 70
44
  9
$DIMATFIT
 70
3
  9
$DIMFRAC
 70
0
  9
$DIMLDRBLK
  1

  9
$DIMLUNIT
 70
2
  9
$DIMLWD
 70
-2
  9
$DIMLWE
 70
-2
  9
$DIMTMOVE
 70
0
  9
$DIMFXL
 40
1.0
  9
$DIMFXLON
 70
0
  9
$DIMJOGANG
 40
0.785398163397
  9
$DIMTFILL
 70
0
  9
$DIMTFILLCLR
 70
0
  9
$DIMARCSYM
 70
0
  9
$DIMLTYPE
  6

  9
$DIMLTEX1
  6

  9
$DIMLTEX2
  6

  9
$DIMTXTDIRECTION
 70
0
  9
$LUNITS
 70
2
  9
$LUPREC
 70
4
  9
$SKETCHINC
 40
1.0
  9
$FILLETRAD
 40
10.0
  9
$AUNITS
 70
0
  9
$AUPREC
 70
2
  9
$MENU
  1
.
  9
$ELEVATION
 40
0.0
  9
$PELEVATION
 40
0.0
  9
$THICKNESS
 40
0.0
  9
$LIMCHECK
 70
0
  9
$CHAMFERA
 40
0.0
  9
$CHAMFERB
 40
0.0
  9
$CHAMFERC
 40
0.0
  9
$CHAMFERD
 40
0.0
  9
$SKPOLY
 70
0
  9
$TDCREATE
 40
2461056.4388425928
  9
$TDUCREATE
 40
2458532.153996898
  9
$TDUPDATE
 40
2461056.4388425928
  9
$TDUUPDATE
 40
2458532.1544311
  9
$TDINDWG
 40
0.0
  9
$TDUSRTIMER
 40
0.0
  9
$USRTIMER
 70
1
  9
$ANGBASE
 50
0.0
  9
$ANGDIR
 70
0
  9
$PDMODE
 70
0
  9
$PDSIZE
 40
0.0
  9
$PLINEWID
 40
0.0
  9
$SPLFRAME
 70
0
  9
$SPLINETYPE
 70
6
  9
$SPLINESEGS
 70
8
  9
$HANDSEED
  5
2F
  9
$SURFTAB1
 70
6
  9
$SURFTAB2
 70
6
  9
$SURFTYPE
 70
6
  9
$SURFU
 70
6
  9
$SURFV
 70
6
  9
$UCSBASE
  2

  9
$UCSNAME
  2

  9
$UCSORG
 10
0.0
 20
0.0
 30
0.0
  9
$UCSXDIR
 10
1.0
 20
0.0
 30
0.0
  9
$UCSYDIR
 10
0.0
 20
1.0
 30
0.0
  9
$UCSORTHOREF
  2

  9
$UCSORTHOVIEW
 70
0
  9
$UCSORGTOP
 10
0.0
 20
0.0
 30
0.0
  9
$UCSORGBOTTOM
 10
0.0
 20
0.0
 30
0.0
  9
$UCSORGLEFT
 10
0.0
 20
0.0
 30
0.0
  9
$UCSORGRIGHT
 10
0.0
 20
0.0
 30
0.0
  9
$UCSORGFRONT
 10
0.0
 20
0.0
 30
0.0
  9
$UCSORGBACK
 10
0.0
 20
0.0
 30
0.0
  9
$PUCSBASE
  2

  9
$PUCSNAME
  2

  9
$PUCSORG
 10
0.0
 20
0.0
 30
0.0
  9
$PUCSXDIR
 10
1.0
 20
0.0
 30
0.0
  9
$PUCSYDIR
 10
0.0
 20
1.0
 30
0.0
  9
$PUCSORTHOREF
  2

  9
$PUCSORTHOVIEW
 70
0
  9
$PUCSORGTOP
 10
0.0
 20
0.0
 30
0.0
  9
$PUCSORGBOTTOM
 10
0.0
 20
0.0
 30
0.0
  9
$PUCSORGLEFT
 10
0.0
 20
0.0
 30
0.0
  9
$PUCSORGRIGHT
 10
0.0
 20
0.0
 30
0.0
  9
$PUCSORGFRONT
 10
0.0
 20
0.0
 30
0.0
  9
$PUCSORGBACK
 10
0.0
 20
0.0
 30
0.0
  9
$USERI1
 70
0
  9
$USERI2
 70
0
  9
$USERI3
 70
0
  9
$USERI4
 70
0
  9
$USERI5
 70
0
  9
$USERR1
 40
0.0
  9
$USERR2
 40
0.0
  9
$USERR3
 40
0.0
  9
$USERR4
 40
0.0
  9
$USERR5
 40
0.0
  9
$WORLDVIEW
 70
1
  9
$SHADEDGE
 70
3
  9
$SHADEDIF
 70
70
  9
$TILEMODE
 70
1
  9
$MAXACTVP
 70
64
  9
$PINSBASE
 10
0.0
 20
0.0
 30
0.0
  9
$PLIMCHECK
 70
0
  9
$PEXTMIN
 10
1e+20
 20
1e+20
 30
1e+20
  9
$PEXTMAX
 10
-1e+20
 20
-1e+20
 30
-1e+20
  9
$PLIMMIN
 10
0.0
 20
0.0
  9
$PLIMMAX
 10
420.0
 20
297.0
  9
$UNITMODE
 70
0
  9
$VISRETAIN
 70
1
  9
$PLINEGEN
 70
0
  9
$PSLTSCALE
 70
1
  9
$TREEDEPTH
 70
3020
  9
$CMLSTYLE
  2
Standard
  9
$CMLJUST
 70
0
  9
$CMLSCALE
 40
20.0
  9
$PROXYGRAPHICS
 70
1
  9
$MEASUREMENT
 70
1
  9
$CELWEIGHT
370
-1
  9
$ENDCAPS
280
0
  9
$JOINSTYLE
280
0
  9
$LWDISPLAY
290
0
  9
$INSUNITS
 70
6
  9
$HYPERLINKBASE
  1

  9
$STYLESHEET
  1

  9
$XEDIT
290
1
  9
$CEPSNTYPE
380
0
  9
$PSTYLEMODE
290
1
  9
$FINGERPRINTGUID
  2
5381D7EC-F227-11F0-8790-28392620F3A2
  9
$VERSIONGUID
  2
5383431C-F227-11F0-8AFB-28392620F3A2
  9
$EXTNAMES
290
1
  9
$PSVPSCALE
 40
0.0
  9
$OLESTARTUP
290
0
  9
$SORTENTS
280
127
  9
$INDEXCTL
280
0
  9
$HIDETEXT
280
1
  9
$XCLIPFRAME
280
2
  9
$HALOGAP
280
0
  9
$OBSCOLOR
 70
257
  9
$OBSLTYPE
280
0
  9
$INTERSECTIONDISPLAY
280
0
  9
$INTERSECTIONCOLOR
 70
257
  9
$DIMASSOC
280
2
  9
$PROJECTNAME
  1

  9
$CAMERADISPLAY
290
0
  9
$LENSLENGTH
 40
50.0
  9
$CAMERAHEIGHT
 40
0.0
  9
$STEPSPERSEC
 40
24.0
  9
$STEPSIZE
 40
100.0
  9
$3DDWFPREC
 40
2.0
  9
$PSOLWIDTH
 40
0.005
  9
$PSOLHEIGHT
 40
0.08
  9
$LOFTANG1
 40
1.570796326795
  9
$LOFTANG2
 40
1.570796326795
  9
$LOFTMAG1
 40
0.0
  9
$LOFTMAG2
 40
0.0
  9
$LOFTPARAM
 70
7
  9
$LOFTNORMALS
280
1
  9
$LATITUDE
 40
37.795
  9
$LONGITUDE
 40
-122.394
  9
$NORTHDIRECTION
 40
0.0
  9
$TIMEZONE
 70
-8000
  9
$LIGHTGLYPHDISPLAY
280
1
  9
$TILEMODELIGHTSYNCH
280
1
  9
$CMATERIAL
347
20
  9
$SOLIDHIST
280
0
  9
$SHOWHIST
280
1
  9
$DWFFRAME
280
2
  9
$DGNFRAME
280
2
  9
$REALWORLDSCALE
290
1
  9
$INTERFERECOLOR
 62
256
  9
$CSHADOW
280
0
  9
$SHADOWPLANELOCATION
 40
0.0
  0
ENDSEC
  0
SECTION
  2
CLASSES
  0
CLASS
  1
ACDBDICTIONARYWDFLT
  2
AcDbDictionaryWithDefault
  3
ObjectDBX Classes
 90
0
 91
0
280
0
281
0
  0
CLASS
  1
SUN
  2
AcDbSun
  3
SCENEOE
 90
1153
 91
0
280
0
281
0
  0
CLASS
  1
VISUALSTYLE
  2
AcDbVisualStyle
  3
ObjectDBX Classes
 90
4095
 91
0
280
0
281
0
  0
CLASS
  1
MATERIAL
  2
AcDbMaterial
  3
ObjectDBX Classes
 90
1153
 91
0
280
0
281
0
  0
CLASS
  1
SCALE
  2
AcDbScale
  3
ObjectDBX Classes
 90
1153
 91
0
280
0
281
0
  0
CLASS
  1
TABLESTYLE
  2
AcDbTableStyle
  3
ObjectDBX Classes
 90
4095
 91
0
280
0
281
0
  0
CLASS
  1
MLEADERSTYLE
  2
AcDbMLeaderStyle
  3
ACDB_MLEADERSTYLE_CLASS
 90
4095
 91
0
280
0
281
0
  0
CLASS
  1
DICTIONARYVAR
  2
AcDbDictionaryVar
  3
ObjectDBX Classes
 90
0
 91
0
280
0
281
0
  0
CLASS
  1
CELLSTYLEMAP
  2
AcDbCellStyleMap
  3
ObjectDBX Classes
 90
1152
 91
0
280
0
281
0
  0
CLASS
  1
MENTALRAYRENDERSETTINGS
  2
AcDbMentalRayRenderSettings
  3
SCENEOE
 90
1024
 91
0
280
0
281
0
  0
CLASS
  1
ACDBDETAILVIEWSTYLE
  2
AcDbDetailViewStyle
  3
ObjectDBX Classes
 90
1025
 91
0
280
0
281
0
  0
CLASS
  1
ACDBSECTIONVIEWSTYLE
  2
AcDbSectionViewStyle
  3
ObjectDBX Classes
 90
1025
 91
0
280
0
281
0
  0
CLASS
  1
RASTERVARIABLES
  2
AcDbRasterVariables
  3
ISM
 90
0
 91
0
280
0
281
0
  0
CLASS
  1
LAYOUT
  2
AcDbLayout
  3
ObjectDBX Classes
 90
0
 91
0
280
0
281
0
  0
CLASS
  1
ACDBPLACEHOLDER
  2
AcDbPlaceHolder
  3
ObjectDBX Classes
 90
0
 91
0
280
0
281
0
  0
ENDSEC
  0
SECTION
  2
TABLES
  0
TABLE
  2
VPORT
  5
8
330
0
100
AcDbSymbolTable
 70
1
  0
VPORT
  5
23
330
8
100
AcDbSymbolTableRecord
100
AcDbViewportTableRecord
  2
*Active
 70
0
 10
0.0
 20
0.0
 11
1.0
 21
1.0
 12
70.0
 22
50.0
 13
0.0
 23
0.0
 14
0.5
 24
0.5
 15
0.5
 25
0.5
 16
0.0
 26
0.0
 36
1.0
 17
0.0
 27
0.0
 37
0.0
 40
1.0
 41
1.34
 42
50.0
 43
0.0
 44
0.0
 50
0.0
 51
0.0
 71
0
 72
1000
 73
1
 74
3
 75
0
 76
0
 77
0
 78
0
281
0
 65
0
146
0.0
  0
ENDTAB
  0
TABLE
  2
LTYPE
  5
2
330
0
100
AcDbSymbolTable
 70
3
  0
LTYPE
  5
24
330
2
100
AcDbSymbolTableRecord
100
AcDbLinetypeTableRecord
  2
ByBlock
 70
0
  3

 72
65
 73
0
 40
0.0
  0
LTYPE
  5
25
330
2
100
AcDbSymbolTableRecord
100
AcDbLinetypeTableRecord
  2
ByLayer
 70
0
  3

 72
65
 73
0
 40
0.0
  0
LTYPE
  5
26
330
2
100
AcDbSymbolTableRecord
100
AcDbLinetypeTableRecord
  2
Continuous
 70
0
  3

 72
65
 73
0
 40
0.0
  0
ENDTAB
  0
TABLE
  2
LAYER
  5
1
330
0
100
AcDbSymbolTable
 70
2
  0
LAYER
  5
27
330
1
100
AcDbSymbolTableRecord
100
AcDbLayerTableRecord
  2
0
 70
0
 62
7
  6
Continuous
370
-3
390
13
347
21
  0
LAYER
  5
28
330
1
100
AcDbSymbolTableRecord
100
AcDbLayerTableRecord
  2
Defpoints
 70
0
 62
7
  6
Continuous
290
0
370
-3
390
13
347
21
  0
ENDTAB
  0
TABLE
  2
STYLE
  5
5
330
0
100
AcDbSymbolTable
 70
1
  0
STYLE
  5
29
330
5
100
AcDbSymbolTableRecord
100
AcDbTextStyleTableRecord
  2
Standard
 70
0
 40
0.0
 41
1.0
 50
0.0
 71
0
 42
2.5
  3
txt
  4

  0
ENDTAB
  0
TABLE
  2
VIEW
  5
7
330
0
100
AcDbSymbolTable
 70
0
  0
ENDTAB
  0
TABLE
  2
UCS
  5
6
330
0
100
AcDbSymbolTable
 70
0
  0
ENDTAB
  0
TABLE
  2
APPID
  5
3
330
0
100
AcDbSymbolTable
 70
1
  0
APPID
  5
2A
330
3
100
AcDbSymbolTableRecord
100
AcDbRegAppTableRecord
  2
ACAD
 70
0
  0
ENDTAB
  0
TABLE
  2
DIMSTYLE
  5
4
330
0
100
AcDbSymbolTable
 70
1
100
AcDbDimStyleTable
  0
DIMSTYLE
105
2B
330
4
100
AcDbSymbolTableRecord
100
AcDbDimStyleTableRecord
  2
Standard
 70
0
 40
1.0
 41
2.5
 42
0.625
 43
3.75
 44
1.25
 45
0.0
 46
0.0
 47
0.0
 48
0.0
 49
2.5
140
2.5
141
2.5
142
0.0
143
0.03937007874
144
1.0
145
0.0
146
1.0
147
0.625
148
0.0
 69
0
 70
0
 71
0
 72
0
 73
0
 74
0
 75
0
 76
0
 77
1
 78
8
 79
0
170
0
171
3
172
1
173
0
174
0
175
0
176
0
177
0
178
0
179
0
271
0
272
2
273
2
274
3
275
0
276
0
277
2
278
44
279
0
280
0
281
0
282
0
283
0
284
8
285
0
286
0
288
0
289
3
290
0
371
-2
372
-2
  0
ENDTAB
  0
TABLE
  2
BLOCK_RECORD
  5
9
330
0
100
AcDbSymbolTable
 70
2
  0
BLOCK_RECORD
  5
17
330
9
100
AcDbSymbolTableRecord
100
AcDbBlockTableRecord
  2
*Model_Space
340
1A
 70
0
280
1
281
1
  0
BLOCK_RECORD
  5
1B
330
9
100
AcDbSymbolTableRecord
100
AcDbBlockTableRecord
  2
*Paper_Space
340
1E
 70
0
280
1
281
1
  0
ENDTAB
  0
ENDSEC
  0
SECTION
  2
BLOCKS
  0
BLOCK
  5
18
330
17
100
AcDbEntity
  8
0
100
AcDbBlockBegin
  2
*Model_Space
 70
0
 10
0.0
 20
0.0
 30
0.0
  3
*Model_Space
  1

  0
ENDBLK
  5
19
330
17
100
AcDbEntity
  8
0
100
AcDbBlockEnd
  0
BLOCK
  5
1C
330
1B
100
AcDbEntity
  8
0
100
AcDbBlockBegin
  2
*Paper_Space
 70
0
 10
0.0
 20
0.0
 30
0.0
  3
*Paper_Space
  1

  0
ENDBLK
  5
1D
330
1B
100
AcDbEntity
  8
0
100
AcDbBlockEnd
  0
ENDSEC
  0
SECTION
  2
ENTITIES
  0
LWPOLYLINE
  5
2D
330
17
100
AcDbEntity
  8
0
100
AcDbPolyline
 90
472
 70
0
 10
26.590011901730165
 20
-117.92647816708376
 10
26.590012555913578
 20
-117.92672944335595
 10
26.59004586541923
 20
-117.92795614296539
 10
26.590109269557548
 20
-117.92918165566226
 10
26.590182655457408
 20
-117.93014242518686
 10
26.59023765035453
 20
-117.93104951745214
 10
26.59033326312127
 20
-117.93219211278735
 10
26.590455050766394
 20
-117.93333221526989
 10
26.590571003725668
 20
-117.93431127172516
 10
26.590718901963847
 20
-117.93544828011125
 10
26.590892833183602
 20
-117.93658159819972
 10
26.59104900339782
 20
-117.93746376524066
 10
26.591190607903705
 20
-117.93834837908855
 10
26.591397754196162
 20
-117.93947610082499
 10
26.591630704985516
 20
-117.94059877612581
 10
26.59184206391355
 20
-117.94156175277911
 10
26.592100696291844
 20
-117.94267878959677
 10
26.59238487458338
 20
-117.9437896022082
 10
26.59262676028604
 20
-117.94465221401613
 10
26.592854390247073
 20
-117.94551868853738
 10
26.59317107513323
 20
-117.9466206760983
 10
26.593512945623406
 20
-117.94771511224059
 10
26.59381767501825
 20
-117.94865273510055
 10
26.594184550765466
 20
-117.9497390426745
 10
26.594576239336476
 20
-117.95081665207611
 10
26.594901511035847
 20
-117.95165140122718
 10
26.59521297425125
 20
-117.95249139179921
 10
26.59563614788238
 20
-117.95355703244155
 10
26.596083645673474
 20
-117.95461268940649
 10
26.59647881082436
 20
-117.95551592865212
 10
26.596950396726623
 20
-117.9565610452469
 10
26.59744582340219
 20
-117.95759507347138
 10
26.597851348554126
 20
-117.95839392087537
 10
26.5982436454625
 20
-117.95919933792895
 10
26.59876923244552
 20
-117.96021836895156
 10
26.59931804788954
 20
-117.96122508018631
 10
26.599799843140072
 20
-117.96208523712997
 10
26.600371597567126
 20
-117.96307909770091
 10
26.600965991117288
 20
-117.96405958649066
 10
26.601447864292922
 20
-117.9648148388104
 10
26.601917216861217
 20
-117.96557792574023
 10
26.6025401555058
 20
-117.96654053331656
 10
26.603185003209607
 20
-117.96748860364085
 10
26.603748788608065
 20
-117.9682973945009
 10
26.604415205252327
 20
-117.96923042762764
 10
26.60510284134238
 20
-117.97014793433988
 10
26.6056564218399
 20
-117.97085231808302
 10
26.606198309945448
 20
-117.97156572594349
 10
26.60691260101232
 20
-117.97246263963699
 10
26.60764727074044
 20
-117.97334293861596
 10
26.60828761672551
 20
-117.97409257429463
 10
26.60904227763053
 20
-117.97495579435824
 10
26.609816533949164
 20
-117.97580148290189
 10
26.61043649048519
 20
-117.97644821446714
 10
26.611045695450247
 20
-117.97710507275177
 10
26.611844459925482
 20
-117.97792765479264
 10
26.612661876406328
 20
-117.97873170466528
 10
26.61337261609601
 20
-117.97941496576102
 10
26.614208253464444
 20
-117.98020005948011
 10
26.615061673499763
 20
-117.98096578541187
 10
26.615742035554106
 20
-117.98154863642101
 10
26.6164126904016
 20
-117.98214261922509
 10
26.61728823574696
 20
-117.982882947699
 10
26.61818052681329
 20
-117.98360300502587
 10
26.61895481539582
 20
-117.98421331136079
 10
26.619863381582956
 20
-117.98491271785366
 10
26.62078774643344
 20
-117.98559110681427
 10
26.621521961747487
 20
-117.9861044640934
 10
26.622247607704228
 20
-117.98662985103748
 10
26.62319150193933
 20
-117.98728079617646
 10
26.624150074340317
 20
-117.98790992641185
 10
26.62498045499323
 20
-117.98844140040224
 10
26.62595320001084
 20
-117.98904838400263
 10
26.626939607538525
 20
-117.98963290273608
 10
26.6277206052182
 20
-117.99007182237445
 10
26.62849425391636
 20
-117.99052355369476
 10
26.629497406823827
 20
-117.9910788465413
 10
26.63051302898334
 20
-117.99161099081712
 10
26.631391504687315
 20
-117.99205851407808
 10
26.632419060468223
 20
-117.99256722920148
 10
26.633458011028463
 20
-117.99305224847228
 10
26.63427826963843
 20
-117.99341250343336
 10
26.635092470420002
 20
-117.9937862287114
 10
26.636145221089105
 20
-117.99424052149188
 10
26.637208112010693
 20
-117.99467055496788
 10
26.638126222564424
 20
-117.99502981760568
 10
26.63919869318453
 20
-117.99543536504734
 10
26.640280181115266
 20
-117.99581621385471
 10
26.64113180111557
 20
-117.99609433468598
 10
26.641978712780784
 20
-117.99638645474238
 10
26.643070922646725
 20
-117.99673537236885
 10
26.644170846109418
 20
-117.9970591535875
 10
26.645119749606277
 20
-117.99732669570655
 10
26.64622680658838
 20
-117.99762516982335
 10
26.647340416570813
 20
-117.99789818038553
 10
26.648215196397526
 20
-117.9980914886321
 10
26.64908666272378
 20
-117.99829919019093
 10
26.65020781320812
 20
-117.99853937239585
 10
26.65133417634731
 20
-117.99875378316696
 10
26.652304734327565
 20
-117.99892702819032
 10
26.653435716107527
 20
-117.99911555451318
 10
26.65457072346852
 20
-117.99927809758901
 10
26.65546023851285
 20
-117.99938473158652
 10
26.656347866803298
 20
-117.9995060143684
 10
26.657487160615457
 20
-117.99963514806609
 10
26.65862911593987
 20
-117.9997381234969
 10
26.65961198139992
 20
-117.99981540298033
 10
26.660755996003093
 20
-117.99989216589746
 10
26.661901469999457
 20
-117.99994267610813
 10
26.662810030978658
 20
-117.99996188110957
 10
26.663772941357273
 20
-117.99999734719297
 10
26.665000002577926
 20
-118.00001240625312
 10
121.66499999766775
 20
-118.0000124062471
 10
121.66622705618796
 20
-117.99999734725324
 10
121.66718997530208
 20
-117.99996188092624
 10
121.66809852803375
 20
-117.99994267615943
 10
121.66924400374948
 20
-117.99989216590964
 10
121.67038802006805
 20
-117.99981540287462
 10
121.67137088552651
 20
-117.9997381233719
 10
121.67251283913807
 20
-117.99963514809274
 10
121.67365213124573
 20
-117.99950601462513
 10
121.67453976746751
 20
-117.99938473081954
 10
121.67542927457836
 20
-117.99927809783297
 10
121.67656428364614
 20
-117.99911555454975
 10
121.6776952671212
 20
-117.99892702794153
 10
121.67866582509826
 20
-117.99875378289912
 10
121.67979218654838
 20
-117.99853937244673
 10
121.68091333535966
 20
-117.99829919063771
 10
121.68178480947894
 20
-117.99809148728262
 10
121.68265958151052
 20
-117.99789818081948
 10
121.68377319317077
 20
-117.9976251698837
 10
121.68488025181142
 20
-117.99732669531687
 10
121.6858291553028
 20
-117.9970591531793
 10
121.68692907711558
 20
-117.99673537244344
 10
121.68802128535512
 20
-117.99638645537503
 10
121.68886820459974
 20
-117.9960943327672
 10
121.689719817018
 20
-117.99581621447457
 10
121.69080130658251
 20
-117.9954353651307
 10
121.69187377880971
 20
-117.99502981707836
 10
121.69279188935617
 20
-117.99467055442263
 10
121.69385477868312
 20
-117.99424052158878
 10
121.69490752778833
 20
-117.99378622952307
 10
121.69572173586188
 20
-117.99341250096336
 10
121.69654198717343
 20
-117.99305224927262
 10
121.69758093930646
 20
-117.99256722930808
 10
121.69860849662633
 20
-117.9920585134197
 10
121.69948697232131
 20
-117.99161099014167
 10
121.70050259295716
 20
-117.99107884666107
 10
121.70150574437871
 20
-117.99052355467897
 10
121.70227940001365
 20
-117.99007181937714
 10
121.70306039075061
 20
-117.98963290370875
 10
121.70404679977528
 20
-117.98904838413083
 10
121.70501954624928
 20
-117.98844139961844
 10
121.70584992689172
 20
-117.98790992561183
 10
121.70680849785433
 20
-117.98728079631721
 10
121.70775239069536
 20
-117.98662985218418
 10
121.70847804316476
 20
-117.98610446059816
 10
121.70921225195883
 20
-117.98559110795027
 10
121.71013661821694
 20
-117.98491271800211
 10
121.71104518576462
 20
-117.98421331045843
 10
121.71181947433516
 20
-117.98360300410836
 10
121.71271176406216
 20
-117.98288294785874
 10
121.7135873081187
 20
-117.98214262052262
 10
121.71425796899275
 20
-117.98154863246037
 10
121.71493832501194
 20
-117.9809657866997
 10
121.7157917463511
 20
-117.98020005964732
 10
121.71662738497035
 20
-117.9794149647493
 10
121.71733812464656
 20
-117.97873170363971
 10
121.71815553990021
 20
-117.97792765497033
 10
121.71895430320443
 20
-117.97710507418802
 10
121.71956351365132
 20
-117.97644821008015
 10
121.72018346469639
 20
-117.97580148432887
 10
121.72095772220264
 20
-117.97495579454231
 10
121.72171238423678
 20
-117.97409257318294
 10
121.72235273020718
 20
-117.9733429374917
 10
121.7230873988317
 20
-117.97246263983078
 10
121.72380168885631
 20
-117.97156572750487
 10
121.72434358184675
 20
-117.97085231331161
 10
121.72489715744891
 20
-117.9701479358936
 10
121.72558479459889
 20
-117.96923042782828
 10
121.72625121223969
 20
-117.9682973933016
 10
121.72681499762236
 20
-117.96748860243046
 10
121.72745984435761
 20
-117.96654053352529
 10
121.72808278209952
 20
-117.96557792741133
 10
121.72855213890871
 20
-117.96481483369996
 10
121.72903400783275
 20
-117.96405958815437
 10
121.72962840230515
 20
-117.963079097914
 10
121.73020015758678
 20
-117.96208523585204
 10
121.7306819528204
 20
-117.96122507889903
 10
121.73123076743907
 20
-117.9602183691725
 10
121.7317563536666
 20
-117.9591993396947
 10
121.73214865413055
 20
-117.95839391547702
 10
121.73255417571552
 20
-117.95759507523097
 10
121.7330496031669
 20
-117.95656104547209
 10
121.73352118977365
 20
-117.9555159273093
 10
121.73391635490695
 20
-117.95461268805568
 10
121.73436385202474
 20
-117.953557032672
 10
121.73478702505564
 20
-117.9524913936405
 10
121.73509849110667
 20
-117.95165139559194
 10
121.73542375995801
 20
-117.95081665391356
 10
121.73581544915093
 20
-117.94973904290828
 10
121.73618232544574
 20
-117.94865273370421
 10
121.73648705482215
 20
-117.94771511083837
 10
121.73682892479707
 20
-117.94662067633628
 10
121.7371456092436
 20
-117.94551869043781
 10
121.73737324129416
 20
-117.94465220819664
 10
121.73761512489463
 20
-117.9437896041057
 10
121.73789930364777
 20
-117.94267878983793
 10
121.73815793641113
 20
-117.94156175134488
 10
121.73836929532028
 20
-117.94059877468744
 10
121.73860224575768
 20
-117.93947610106926
 10
121.7388093917756
 20
-117.93834838103021
 10
121.73895099760422
 20
-117.93746375929524
 10
121.73910716648287
 20
-117.93658160013966
 10
121.73928109799971
 20
-117.93544828035719
 10
121.73942899645692
 20
-117.93431127026567
 10
121.73954494939701
 20
-117.93333221380794
 10
121.73966673685682
 20
-117.93219211303413
 10
121.73976234951674
 20
-117.93104951941476
 10
121.73981656538176
 20
-117.93015527757804
 10
121.73988551554685
 20
-117.92926205903262
 10
121.73994752477171
 20
-117.92811714822507
 10
121.73998326457973
 20
-117.92697111656436
 10
121.74000269486052
 20
-117.92598540915577
 10
121.74001214646289
 20
-117.9248388610203
 10
121.73999530496259
 20
-117.92369239762203
 10
121.73996112428564
 20
-117.92278427672491
 10
121.73993998512346
 20
-117.92182094533054
 10
121.73988296268136
 20
-117.92059511726102
 10
119.24014207381066
 20
-75.42499999354098
 10
121.73988296268969
 20
-32.929404882495106
 10
121.73993998503937
 20
-32.92817905712636
 10
121.73996112447144
 20
-32.92721571699484
 10
121.73999530489831
 20
-32.92630760434509
 10
121.7400121464605
 20
-32.92516113922838
 10
121.7400026948412
 20
-32.92401458937383
 10
121.73998326454107
 20
-32.92302888196512
 10
121.73994752478384
 20
-32.921882852022605
 10
121.73988551568854
 20
-32.920737942929506
 10
121.7398165649673
 20
-32.91984471640716
 10
121.73976234964552
 20
-32.9189504825484
 10
121.73966673687873
 20
-32.917807887212604
 10
121.73954494923353
 20
-32.91666778472948
 10
121.73942899627423
 20
-32.91568872827404
 10
121.739281098036
 20
-32.91455171988766
 10
121.73910716681617
 20
-32.913418401798886
 10
121.7389509966021
 20
-32.91253623475897
 10
121.73880939209623
 20
-32.91165162091115
 10
121.73860224580369
 20
-32.910523899174315
 10
121.73836929501424
 20
-32.90940122387311
 10
121.73815793608617
 20
-32.90843824721975
 10
121.73789930370795
 20
-32.907321210402465
 10
121.73761512541648
 20
-32.9062103977914
 10
121.7373732397141
 20
-32.905347785984446
 10
121.73714560975316
 20
-32.904481311463464
 10
121.73682892486703
 20
-32.903379323902556
 10
121.73648705437688
 20
-32.9022848877603
 10
121.73618232498211
 20
-32.90134726490051
 10
121.73581544923479
 20
-32.900260957326196
 10
121.73542376066366
 20
-32.89918334792423
 10
121.73509848896408
 20
-32.89834859877264
 10
121.73478702574894
 20
-32.8975086082013
 10
121.73436385211785
 20
-32.896442967559025
 10
121.7339163543268
 20
-32.89538731059413
 10
121.73352118917595
 20
-32.89448407134856
 10
121.73304960327354
 20
-32.89343895475343
 10
121.73255417659782
 20
-32.8924049265286
 10
121.73214865144567
 20
-32.89160607912422
 10
121.7317563545374
 20
-32.890800662070866
 10
121.73123076755441
 20
-32.88978163104832
 10
121.73068195211042
 20
-32.888774919813635
 10
121.73020015685975
 20
-32.88791476286975
 10
121.72962840243284
 20
-32.88692090229906
 10
121.72903400888282
 20
-32.88594041350954
 10
121.72855213570702
 20
-32.88518516118951
 10
121.72808278313869
 20
-32.88442207425962
 10
121.727459844494
 20
-32.88345946668317
 10
121.7268149967901
 20
-32.88251139635875
 10
121.72625121139131
 20
-32.88170260549826
 10
121.7255847947471
 20
-32.88076957237163
 10
121.72489715865711
 20
-32.879852065659485
 10
121.72434357816027
 20
-32.87914768191722
 10
121.72380169005419
 20
-32.87843427405607
 10
121.72308739898743
 20
-32.87753736036274
 10
121.72235272925944
 20
-32.87665706138392
 10
121.72171238327434
 20
-32.875907425705215
 10
121.7209577223696
 20
-32.87504420564194
 10
121.72018346605128
 20
-32.87419851709862
 10
121.7195635095154
 20
-32.873551785533486
 10
121.71895430455008
 20
-32.87289492724856
 10
121.71815554007468
 20
-32.87207234520751
 10
121.71733812359366
 20
-32.87126829533471
 10
121.71662738390408
 20
-32.87058503423906
 10
121.71579174653571
 20
-32.86979994052004
 10
121.71493832650047
 20
-32.86903421458833
 10
121.71425796444623
 20
-32.86845136357928
 10
121.71358730959867
 20
-32.86785738077513
 10
121.71271176425316
 20
-32.86711705230109
 10
121.71181947318667
 20
-32.86639699497408
 10
121.71104518460425
 20
-32.86578668863925
 10
121.71013661841705
 20
-32.86508728214633
 10
121.7092122535665
 20
-32.86440889318568
 10
121.7084780382523
 20
-32.86389553590643
 10
121.70775239229584
 20
-32.863370148962545
 10
121.70680849806033
 20
-32.862719203823296
 10
121.70584992565892
 20
-32.86209007358766
 10
121.70501954500591
 20
-32.861558599597224
 10
121.70404679998882
 20
-32.86095161599717
 10
121.70306039246168
 20
-32.86036709726403
 10
121.7022793947821
 20
-32.85992817762572
 10
121.70150574608324
 20
-32.859476446305
 10
121.70050259317587
 20
-32.858921153458525
 10
121.69948697101647
 20
-32.858389009182766
 10
121.69860849531264
 20
-32.857941485921884
 10
121.69758093953187
 20
-32.85743277079855
 10
121.69654198897177
 20
-32.85694775152783
 10
121.69572173036144
 20
-32.85658749656657
 10
121.69490752958058
 20
-32.85621377128886
 10
121.6938547789118
 20
-32.8557594785085
 10
121.69279188799055
 20
-32.855329445032595
 10
121.69187377743704
 20
-32.85497018239485
 10
121.69080130681651
 20
-32.854564634953014
 10
121.68971981888534
 20
-32.85418378614547
 10
121.68886819888309
 20
-32.85390566531356
 10
121.68802128721866
 20
-32.853613545257446
 10
121.68692907735284
 20
-32.85326462763102
 10
121.68582915389027
 20
-32.85294084641241
 10
121.68488025039355
 20
-32.852673304293404
 10
121.68377319341158
 20
-32.852374830176636
 10
121.68265958342928
 20
-32.8521018196145
 10
121.68178480360241
 20
-32.85190851136789
 10
121.68091333727641
 20
-32.851700809809095
 10
121.67979218679147
 20
-32.85146062760405
 10
121.67866582365168
 20
-32.851246216832855
 10
121.67769526567119
 20
-32.85107297180947
 10
121.67656428389179
 20
-32.85088444548671
 10
121.67542927653136
 20
-32.85072190241097
 10
121.67453976148705
 20
-32.85061526841346
 10
121.67365213319762
 20
-32.850493985631715
 10
121.67251283938556
 20
-32.85036485193401
 10
121.67137088406125
 20
-32.85026187650319
 10
121.67038801860109
 20
-32.85018459701973
 10
121.669244003997
 20
-32.850107834102516
 10
121.6680985299997
 20
-32.85005732389182
 10
121.6671899690215
 20
-32.850038118890424
 10
121.66622705864413
 20
-32.85000265280704
 10
121.66499999742257
 20
-32.849987593746874
 10
26.665000002332324
 20
-32.84998759375289
 10
26.66377294381241
 20
-32.85000265274674
 10
26.662810024698427
 20
-32.85003811907374
 10
26.661901471967898
 20
-32.850057323840474
 10
26.660755996251442
 20
-32.85010783409029
 10
26.65961197993217
 20
-32.850184597125356
 10
26.65862911447354
 20
-32.85026187662809
 10
26.657487160861834
 20
-32.85036485190726
 10
26.65634786875401
 20
-32.8504939853749
 10
26.655460232532185
 20
-32.850615269180494
 10
26.65457072542034
 20
-32.85072190216721
 10
26.653435716353467
 20
-32.85088444545032
 10
26.652304732879312
 20
-32.85107297205839
 10
26.651334174902484
 20
-32.85124621710075
 10
26.650207813451924
 20
-32.85146062755321
 10
26.649086664640212
 20
-32.851700809362306
 10
26.648215190521206
 20
-32.851908512717344
 10
26.647340418489772
 20
-32.852101819180454
 10
26.646226806829258
 20
-32.85237483011629
 10
26.645119748188343
 20
-32.852673304683194
 10
26.644170844696927
 20
-32.852940846820786
 10
26.643070922883958
 20
-32.8532646275567
 10
26.64197871464424
 20
-32.853613544625176
 10
26.64113179540053
 20
-32.853905667232695
 10
26.64028018298266
 20
-32.85418378552517
 10
26.639198693418003
 20
-32.85456463486908
 10
26.638126221190657
 20
-32.85497018292147
 10
26.63720811064421
 20
-32.85532944557719
 10
26.636145221317207
 20
-32.85575947841105
 10
26.635092472211927
 20
-32.856213770476785
 10
26.63427826413783
 20
-32.856587499036756
 10
26.633458012826555
 20
-32.85694775072736
 10
26.63241906069335
 20
-32.85743277069199
 10
26.631391503373294
 20
-32.85794148658046
 10
26.630513027678198
 20
-32.85838900985857
 10
26.629497407042273
 20
-32.85892115333921
 10
26.628494255620666
 20
-32.859476445321356
 10
26.627720599985704
 20
-32.85992818062322
 10
26.62693960924937
 20
-32.860367096291256
 10
26.625953200224576
 20
-32.86095161586924
 10
26.624980453750478
 20
-32.86155860038171
 10
26.62415007310786
 20
-32.86209007438844
 10
26.62319150214525
 20
-32.86271920368307
 10
26.622247609304207
 20
-32.863370147816106
 10
26.62152195683507
 20
-32.863895539401945
 10
26.620787748040737
 20
-32.864408892050015
 10
26.61986338178241
 20
-32.86508728199836
 10
26.6189548142345
 20
-32.86578668954225
 10
26.61818052566392
 20
-32.86639699589237
 10
26.61728823593703
 20
-32.86711705214193
 10
26.6164126918806
 20
-32.867857379477975
 10
26.615742031007745
 20
-32.86845136753919
 10
26.615061674987842
 20
-32.86903421330048
 10
26.61420825364848
 20
-32.86979994035305
 10
26.61337261502904
 20
-32.87058503525127
 10
26.612661875352735
 20
-32.87126829636097
 10
26.611844460099185
 20
-32.87207234503028
 10
26.61104569679505
 20
-32.87289492581253
 10
26.61043648634848
 20
-32.87355178992005
 10
26.60981653530353
 20
-32.8741985156712
 10
26.609042277797265
 20
-32.875044205457776
 10
26.608287615763103
 20
-32.87590742681717
 10
26.607647269792693
 20
-32.87665706250844
 10
26.60691260116824
 20
-32.87753736016928
 10
26.606198311143686
 20
-32.87843427249513
 10
26.605656418153355
 20
-32.87914768668823
 10
26.60510284255067
 20
-32.87985206410692
 10
26.60441520540046
 20
-32.880769572172596
 10
26.603748787759432
 20
-32.88170260669964
 10
26.603185002376648
 20
-32.882511397570994
 10
26.602540155641737
 20
-32.88345946647571
 10
26.60191721790015
 20
-32.884422072589196
 10
26.601447861091994
 20
-32.88518516629888
 10
26.600965992167612
 20
-32.885940411845006
 10
26.600371597694892
 20
-32.88692090208588
 10
26.599799842412967
 20
-32.88791476414836
 10
26.599318047179217
 20
-32.88877492110162
 10
26.598769232560553
 20
-32.88978163082818
 10
26.598243646333042
 20
-32.890800660306006
 10
26.597851345869323
 20
-32.89160608452325
 10
26.597445824284165
 20
-32.892404924769686
 10
26.596950396832877
 20
-32.89343895452839
 10
26.596478810226206
 20
-32.894484072690986
 10
26.596083645092992
 20
-32.895387311944425
 10
26.59563614797519
 20
-32.89644296732815
 10
26.595212974944285
 20
-32.897508606359686
 10
26.594901508893
 20
-32.89834860440892
 10
26.594576240041683
 20
-32.89918334608729
 10
26.594184550849
 20
-32.900260957091966
 10
26.593817674554387
 20
-32.90134726629542
 10
26.59351294517797
 20
-32.90228488916124
 10
26.593171075203
 20
-32.9033793236635
 10
26.592854390756408
 20
-32.90448130956215
 10
26.592626758705915
 20
-32.90534779180301
 10
26.59238487510527
 20
-32.9062103958946
 10
26.592100696352183
 20
-32.90732121016227
 10
26.59184206358885
 20
-32.90843824865521
 10
26.59163070467968
 20
-32.90940122531272
 10
26.591397754242266
 20
-32.91052389893105
 10
26.591190608224306
 20
-32.91165161897025
 10
26.591049002395778
 20
-32.91253624070474
 10
26.59089283351704
 20
-32.913418399860895
 10
26.590718902000262
 20
-32.914551719643065
 10
26.59057100354308
 20
-32.9156887297343
 10
26.59045505060301
 20
-32.916667786191816
 10
26.59033326314321
 20
-32.91780788696555
 10
26.590237650483285
 20
-32.91895048058487
 10
26.59018343461821
 20
-32.91984472242234
 10
26.59011448445313
 20
-32.92073794096765
 10
26.59005247522827
 20
-32.92188285177535
 10
26.59001673542025
 20
-32.92302888343621
 10
26.58999730513947
 20
-32.924014590844926
 10
26.589987853537114
 20
-32.925161138980165
 10
26.5900046950374
 20
-32.92630760237822
 10
26.590038875714352
 20
-32.92721572327534
 10
26.590060014876514
 20
-32.92817905466903
 10
26.590117037318613
 20
-32.92940488273879
 10
29.08985792618933
 20
-75.42500000645899
 10
26.590117037310275
 20
-117.9205951175055
 10
26.590060014960567
 20
-117.92182094287507
 10
26.59003859290875
 20
-117.92279716220663
 10
26.590002652952148
 20
-117.92377293851612
 10
26.58998759387952
 20
-117.92499999800172
 10
26.59000265284203
 20
-117.92622705748867
 10
26.590011901730165
 20
-117.92647816708376
  0
LWPOLYLINE
  5
2E
330
17
100
AcDbEntity
  8
0
100
AcDbPolyline
 90
404
 70
0
 10
26.500025908136756
 20
-117.92825197251636
 10
26.500026050531464
 20
-117.92829374069304
 10
26.50013428741017
 20
-117.93195374825507
 10
26.50033820416721
 20
-117.93560967338179
 10
26.500439215463196
 20
-117.93707561049301
 10
26.500717465042754
 20
-117.94050035636405
 10
26.5010796782898
 20
-117.94391724217915
 10
26.50119563124907
 20
-117.94489629863443
 10
26.50164158997978
 20
-117.94830326618856
 10
26.502171025565353
 20
-117.95169826325265
 10
26.502415237427872
 20
-117.95314724063762
 10
26.50302783095635
 20
-117.95652822219358
 10
26.503723213424117
 20
-117.95989315166332
 10
26.50393457235215
 20
-117.96085612831662
 10
26.504712324886597
 20
-117.96420297879158
 10
26.505571978998855
 20
-117.96752973425507
 10
26.505957039534174
 20
-117.96894779746943
 10
26.506898077401004
 20
-117.97225245400922
 10
26.507919932176172
 20
-117.97553302102291
 10
26.508224661571017
 20
-117.97647064388288
 10
26.509326717727113
 20
-117.9797251452787
 10
26.51050831142697
 20
-117.98295162066759
 10
26.511030512291647
 20
-117.98432511298745
 10
26.512290931787277
 20
-117.98752161886094
 10
26.51362941784922
 20
-117.99068622976374
 10
26.514024583000108
 20
-117.99158946900937
 10
26.515440329374822
 20
-117.9947202786991
 10
26.51693248326926
 20
-117.99781540129219
 10
26.517586795383494
 20
-117.99913109523568
 10
26.5191544579799
 20
-118.00218866634589
 10
26.520796684976986
 20
-118.00520684420681
 10
26.52127848022752
 20
-118.00606700115047
 10
26.52299428240906
 20
-118.00904396772448
 10
26.52478262624006
 20
-118.01197792979838
 10
26.525562748220676
 20
-118.01322315451385
 10
26.52742255646938
 20
-118.01611234477814
 10
26.529352708857118
 20
-118.0189550228931
 10
26.529916494255577
 20
-118.01976381375314
 10
26.531915828131098
 20
-118.02255826739626
 10
26.533983139170083
 20
-118.02530281329267
 10
26.534881558015712
 20
-118.02646557658503
 10
26.53701560094743
 20
-118.02915856152303
 10
26.539215090304086
 20
-118.03179836334905
 10
26.539855436289155
 20
-118.03254799902773
 10
26.54211904718093
 20
-118.0351330276242
 10
26.544445416092962
 20
-118.03766172586619
 10
26.545453479539052
 20
-118.03873082968934
 10
26.5478412051528
 20
-118.04120167438269
 10
26.550288849192494
 20
-118.04361317718389
 10
26.550999588882178
 20
-118.04429643827963
 10
26.553505676978826
 20
-118.04664714658979
 10
26.556068699558423
 20
-118.04893564442989
 10
26.557176699402824
 20
-118.04990079272957
 10
26.559795112596827
 20
-118.05212570159442
 10
26.56246733917063
 20
-118.05428568128175
 10
26.56324162775316
 20
-118.05489598761667
 10
26.565966058056325
 20
-118.05698973703468
 10
26.568741050994944
 20
-118.05901599498786
 10
26.5699383165936
 20
-118.05986789285848
 10
26.572762200616214
 20
-118.06182543880516
 10
26.575633274720172
 20
-118.0637130935925
 10
26.576463655373086
 20
-118.06424456758289
 10
26.579380190132166
 20
-118.06606119415909
 10
26.582340428733467
 20
-118.06780569825528
 10
26.583615429764347
 20
-118.0685361414547
 10
26.586617589068773
 20
-118.07020747224574
 10
26.589659860689814
 20
-118.07180462298565
 10
26.590538336393788
 20
-118.07225214624661
 10
26.593618887782227
 20
-118.07377415487223
 10
26.596735863327684
 20
-118.07522010458167
 10
26.59807632083348
 20
-118.07582205854239
 10
26.60122784298694
 20
-118.07719107834986
 10
26.604412013388806
 20
-118.07848234360877
 10
26.605330123942537
 20
-118.07884160624657
 10
26.608545024564425
 20
-118.08005433914585
 10
26.611788718873548
 20
-118.08118780918186
 10
26.613181723515613
 20
-118.08165547675819
 10
26.61645225763438
 20
-118.08270900117175
 10
26.619747661512804
 20
-118.08368194535826
 10
26.620696565009663
 20
-118.08394948747731
 10
26.624014853620327
 20
-118.08484126537171
 10
26.6273540281496
 20
-118.08565133980017
 10
26.62878616453238
 20
-118.08598021709786
 10
26.63214421358321
 20
-118.08670810010115
 10
26.63551911439556
 20
-118.0873533532306
 10
26.636489672375816
 20
-118.08752659825396
 10
26.63987939203925
 20
-118.08808883283376
 10
26.643281888709808
 20
-118.08856771019408
 10
26.644739364576893
 20
-118.08875462994493
 10
26.64815258871732
 20
-118.08914986162793
 10
26.651574484329508
 20
-118.08946120956087
 10
26.652557349789557
 20
-118.0895384890443
 10
26.655985852601358
 20
-118.08976576551821
 10
26.659418900452973
 20
-118.08990883394458
 10
26.660887681847445
 20
-118.08995199614179
 10
26.66500000257793
 20
-118.09001240625312
 10
121.66499999766776
 20
-118.0900124062471
 10
121.66911231988408
 20
-118.08995199609211
 10
121.67058110152259
 20
-118.08990883387212
 10
121.67401415000231
 20
-118.0897657653753
 10
121.67744265343926
 20
-118.08953848880013
 10
121.67842551889773
 20
-118.08946120929741
 10
121.68184741450163
 20
-118.08914986129754
 10
121.68526063863214
 20
-118.08875462954789
 10
121.68671811449528
 20
-118.08856770976853
 10
121.69012061115662
 20
-118.0880888323415
 10
121.69351033080919
 20
-118.08752659769524
 10
121.69448088878626
 20
-118.08735335265283
 10
121.69785578958724
 20
-118.08670809945698
 10
121.70121383862505
 20
-118.08598021638755
 10
121.70264597500133
 20
-118.08565133906178
 10
121.70598514951367
 20
-118.08484126456811
 10
121.7093034381058
 20
-118.08394948660894
 10
121.71025234159718
 20
-118.08368194447137
 10
121.7135477454565
 20
-118.08270900022028
 10
121.71681827955457
 20
-118.08165547574262
 10
121.71821128418797
 20
-118.08118780813882
 10
121.72145497847661
 20
-118.08005433803861
 10
121.72466987907643
 20
-118.07884160507561
 10
121.7255879896229
 20
-118.07848234241987
 10
121.72877215999823
 20
-118.07719107709897
 10
121.73192368212366
 20
-118.07582205723021
 10
121.73326413961765
 20
-118.07522010324323
 10
121.73638111513313
 20
-118.07377415347344
 10
121.73946166649014
 20
-118.07225214478828
 10
121.74034014218512
 20
-118.07180462151024
 10
121.74338241377667
 20
-118.07020747070978
 10
121.74638457305012
 20
-118.0685361398589
 10
121.74765957406672
 20
-118.06780569663447
 10
121.75061981263192
 20
-118.06606119248136
 10
121.75353634735356
 20
-118.0642445658492
 10
121.754366727996
 20
-118.06371309184259
 10
121.75723780206408
 20
-118.06182543699832
 10
121.76006168604941
 20
-118.05986789099556
 10
121.76125895163149
 20
-118.0590159931014
 10
121.76403394453031
 20
-118.0569897350939
 10
121.76675837479237
 20
-118.05489598562255
 10
121.76753266336291
 20
-118.05428567927248
 10
121.770204889895
 20
-118.05212569953228
 10
121.77282330304598
 20
-118.04990079061558
 10
121.77393130287156
 20
-118.04893564229408
 10
121.77649432540558
 20
-118.0466471444044
 10
121.77900041345545
 20
-118.04429643604578
 10
121.77971115313166
 20
-118.0436131749362
 10
121.78215879712529
 20
-118.04120167208583
 10
121.78454652269177
 20
-118.03873082734444
 10
121.78555458611694
 20
-118.03766172350144
 10
121.7878809549786
 20
-118.03513302521466
 10
121.79014456581895
 20
-118.03254799657468
 10
121.79078491178934
 20
-118.03179836088343
 10
121.7929844010944
 20
-118.02915855901412
 10
121.79511844397345
 20
-118.0264655740341
 10
121.79601686279624
 20
-118.0253028107242
 10
121.79808417377997
 20
-118.02255826478925
 10
121.80008350759935
 20
-118.01976381110897
 10
121.80064729298202
 20
-118.01895502023784
 10
121.80257744531625
 20
-118.01611234208191
 10
121.80443725351036
 20
-118.01322315177795
 10
121.80521737546657
 20
-118.01197792704711
 10
121.80700571923902
 20
-118.00904396493976
 10
121.80872152136124
 20
-118.00606699833378
 10
121.80920331659486
 20
-118.00520684138077
 10
121.8108455435326
 20
-118.00218866348804
 10
121.8124132060689
 20
-117.99913109234751
 10
121.81306751815728
 20
-117.99781539839134
 10
121.8145596719913
 20
-117.99472027576857
 10
121.81597541830487
 20
-117.99158946605063
 10
121.81637058343817
 20
-117.990686226797
 10
121.81770906943801
 20
-117.98752161586818
 10
121.81896948887092
 20
-117.98432510997021
 10
121.81949168970866
 20
-117.9829516176402
 10
121.82067328334595
 20
-117.97972514222627
 10
121.82177533943886
 20
-117.97647064080694
 10
121.82208006881527
 20
-117.9755330179411
 10
121.82310192352577
 20
-117.9722524509083
 10
121.82404296132752
 20
-117.968947794351
 10
121.82442802183509
 20
-117.96752973112888
 10
121.82528767588201
 20
-117.96420297564893
 10
121.82606542835076
 20
-117.96085612515913
 10
121.82627678725991
 20
-117.95989314850169
 10
121.82697216966159
 20
-117.95652821901899
 10
121.82758476312368
 20
-117.95314723745172
 10
121.8278289749578
 20
-117.95169826006205
 10
121.82835841047704
 20
-117.94830326298629
 10
121.82880436914111
 20
-117.94489629542211
 10
121.8289203220812
 20
-117.94391723896439
 10
121.82928253526126
 20
-117.94050035314204
 10
121.82956078477365
 20
-117.93707560726538
 10
121.82966179604087
 20
-117.93560967015237
 10
121.82985591427847
 20
-117.93217912716138
 10
121.82996578431181
 20
-117.92874485348577
 10
121.8299852145926
 20
-117.92775914607718
 10
121.83001077025482
 20
-117.9243232134464
 10
121.82995199628718
 20
-117.92088768848566
 10
121.82990883418927
 20
-117.91941890708837
 10
121.82972765626721
 20
-117.91531013528699
 10
119.33029764868904
 20
-75.42499999354185
 10
121.82972765627545
 20
-32.93468986447073
 10
121.82990883424127
 20
-32.93058109118264
 10
121.82995199633079
 20
-32.92911230954009
 10
121.83001077026505
 20
-32.92567678394838
 10
121.82998521453848
 20
-32.922240850687764
 10
121.82996578423835
 20
-32.92125514327905
 10
121.8298559141377
 20
-32.9178208696062
 10
121.82966179583288
 20
-32.914390326619625
 10
121.82956078453692
 20
-32.91292438950862
 10
121.82928253495724
 20
-32.90949964363587
 10
121.82892032171
 20
-32.90608275781908
 10
121.8288043687507
 20
-32.905103701363636
 10
121.82835841001999
 20
-32.90169673380982
 10
121.82782897443442
 20
-32.898301736746056
 10
121.82758476257192
 20
-32.896852759361224
 10
121.82697216904324
 20
-32.893471777804365
 10
121.82627678657522
 20
-32.89010684833373
 10
121.82606542764715
 20
-32.88914387168037
 10
121.82528767511326
 20
-32.88579702120796
 10
121.82442802100168
 20
-32.88247026574699
 10
121.82404296046641
 20
-32.881052202532736
 10
121.82310192259969
 20
-32.877747545993095
 10
121.82208006782463
 20
-32.87446697897956
 10
121.82177533842986
 20
-32.87352935611977
 10
121.82067328227325
 20
-32.87027485472229
 10
121.8194916885728
 20
-32.86704837933178
 10
121.81896948770805
 20
-32.86567488701175
 10
121.8177090682129
 20
-32.86247838113953
 10
121.81637058215152
 20
-32.85931377023797
 10
121.81597541700067
 20
-32.858410530992394
 10
121.81455967062523
 20
-32.85527972130098
 10
121.81306751672997
 20
-32.852184598706266
 10
121.81241320461574
 20
-32.850868904762805
 10
121.81084554201959
 20
-32.84781133365319
 10
121.8092033150228
 20
-32.84479315579284
 10
121.80872151977213
 20
-32.843932998848956
 10
121.80700571759093
 20
-32.84095603227553
 10
121.80521737376029
 20
-32.83802207020219
 10
121.80443725177986
 20
-32.836776845487
 10
121.80257744353042
 20
-32.83388765522158
 10
121.8006472911419
 20
-32.83104497710552
 10
121.80008350574312
 20
-32.83023618624503
 10
121.79808417186796
 20
-32.82744173260248
 10
121.79601686082937
 20
-32.82469718670663
 10
121.79511844198397
 20
-32.823534423414586
 10
121.79298439905223
 20
-32.820841438476585
 10
121.79078490969556
 20
-32.81820163665056
 10
121.79014456371046
 20
-32.81745200097185
 10
121.7878809528196
 20
-32.81486697237643
 10
121.78555458390855
 20
-32.812338274135435
 10
121.7845465204625
 20
-32.811269170312286
 10
121.78215879484799
 20
-32.80879832561809
 10
121.77971115080749
 20
-32.80638682281608
 10
121.7790004111179
 20
-32.805703561720435
 10
121.77649432302141
 20
-32.803352853410416
 10
121.77393130044197
 20
-32.80106435557046
 10
121.77282330059737
 20
-32.80009920727059
 10
121.7702048874033
 20
-32.79787429840567
 10
121.76753266082942
 20
-32.79571431871827
 10
121.766758372247
 20
-32.79510401238343
 10
121.76403394194395
 20
-32.79301026296552
 10
121.76125894900547
 20
-32.79098400501242
 10
121.76006168340679
 20
-32.79013210714178
 10
121.75723779938293
 20
-32.788174561194246
 10
121.7543667252777
 20
-32.786286906406126
 10
121.75353634462469
 20
-32.78575543241569
 10
121.7506198098669
 20
-32.78393880584035
 10
121.74765957126695
 20
-32.78219430174495
 10
121.74638457023615
 20
-32.78146385854557
 10
121.74338241093125
 20
-32.77979252775426
 10
121.74034013930971
 20
-32.77819537701409
 10
121.73946166360588
 20
-32.77774785375321
 10
121.73638111221774
 20
-32.776225845127755
 10
121.73326413667259
 20
-32.77477989541844
 10
121.73192367916668
 20
-32.77417794145768
 10
121.72877215701484
 20
-32.77280892165089
 10
121.72558798661464
 20
-32.77151765639258
 10
121.72466987606113
 20
-32.77115839375484
 10
121.72145497543644
 20
-32.76994566085445
 10
121.71821128112447
 20
-32.768812190817464
 10
121.71681827648203
 20
-32.76834452324103
 10
121.71354774236413
 20
-32.76729099882779
 10
121.71025233848658
 20
-32.766318054641566
 10
121.70930343498986
 20
-32.76605051252256
 10
121.70598514638023
 20
-32.765158734628436
 10
121.702645971852
 20
-32.76434866020021
 10
121.70121383546926
 20
-32.764019782902515
 10
121.69785578641618
 20
-32.76329189989872
 10
121.69448088560156
 20
-32.76264664676888
 10
121.69351032762107
 20
-32.762473401745495
 10
121.69012060795939
 20
-32.76191116716603
 10
121.68671811129059
 20
-32.76143228980597
 10
121.68526063542383
 20
-32.76124537005516
 10
121.6818474112845
 20
-32.76085013837226
 10
121.67842551567341
 20
-32.76053879043936
 10
121.67744265021325
 20
-32.7604615109559
 10
121.67401414740004
 20
-32.76023423448184
 10
121.67058109954702
 20
-32.7600911660554
 10
121.66911231815303
 20
-32.7600480038582
 10
121.66499999742256
 20
-32.75998759374687
 10
26.66500000233232
 20
-32.75998759375289
 10
26.660887680118094
 20
-32.76004800390782
 10
26.659418898479807
 20
-32.760091166127786
 10
26.655985849998924
 20
-32.760234234624605
 10
26.652557346560805
 20
-32.76046151119985
 10
26.651574481102177
 20
-32.76053879070258
 10
26.648152585497247
 20
-32.760850138702565
 10
26.644739361365716
 20
-32.76124537045238
 10
26.643281885502272
 20
-32.76143229023181
 10
26.639879388843028
 20
-32.76191116765857
 10
26.636489669192528
 20
-32.76247340230445
 10
26.6355191112157
 20
-32.76264664734681
 10
26.632144210413795
 20
-32.7632919005428
 10
26.62878616137505
 20
-32.76401978361241
 10
26.627354024998613
 20
-32.76434866093822
 10
26.62401485048605
 20
-32.76515873543195
 10
26.62069656189369
 20
-32.76605051339119
 10
26.619747658402275
 20
-32.766318055528785
 10
26.61645225454366
 20
-32.76729099977966
 10
26.613181720446274
 20
-32.76834452425708
 10
26.611788715813052
 20
-32.76881219186081
 10
26.608545021524375
 20
-32.76994566196101
 10
26.60533012092452
 20
-32.771158394923994
 10
26.604412010378073
 20
-32.771517657579714
 10
26.60122784000223
 20
-32.7728089229008
 10
26.59807631787631
 20
-32.774177942769775
 10
26.596735860382267
 20
-32.77477989675679
 10
26.593618884866284
 20
-32.77622584652682
 10
26.590538333508785
 20
-32.77774785521224
 10
26.58965985781369
 20
-32.77819537849035
 10
26.586617586222303
 20
-32.77979252929075
 10
26.58361542694903
 20
-32.781463860141564
 10
26.582340425932554
 20
-32.78219430336595
 10
26.579380187367356
 20
-32.78393880751907
 10
26.576463652645735
 20
-32.78575543415125
 10
26.575633272003117
 20
-32.786286908157976
 10
26.57276219793549
 20
-32.78817456300197
 10
26.5699383139506
 20
-32.790132109004425
 10
26.56874104836862
 20
-32.79098400689852
 10
26.565966055468532
 20
-32.793010264906954
 10
26.563241625205265
 20
-32.795104014379284
 10
26.562467336634686
 20
-32.79571432072941
 10
26.559795110104044
 20
-32.79787430046851
 10
26.557176696954443
 20
-32.80009920938403
 10
26.556068697128943
 20
-32.80106435770545
 10
26.553505674593843
 20
-32.80335285559612
 10
26.55099958654293
 20
-32.80570356395575
 10
26.550288846866625
 20
-32.80638682506545
 10
26.54784120287388
 20
-32.808798327914985
 10
26.545453477308254
 20
-32.81126917265552
 10
26.544445413883196
 20
-32.81233827649839
 10
26.542119045021312
 20
-32.81486697478541
 10
26.53985543418076
 20
-32.81745200342566
 10
26.53921508821035
 20
-32.81820163911693
 10
26.537015598905576
 20
-32.8208414409859
 10
26.534881556026786
 20
-32.82353442596557
 10
26.53398313720401
 20
-32.824697189275454
 10
26.53191582621889
 20
-32.82744173521228
 10
26.529916492398215
 20
-32.830236188894496
 10
26.52935270701543
 20
-32.83104497976585
 10
26.527422554683227
 20
-32.83388765791891
 10
26.525562746490984
 20
-32.83677684821992
 10
26.52478262453498
 20
-32.83802207295037
 10
26.522994280761292
 20
-32.840956035059676
 10
26.521278478637928
 20
-32.84393300166767
 10
26.52079668340418
 20
-32.84479315862093
 10
26.51915445646657
 20
-32.84781133651351
 10
26.517586793930388
 20
-32.8508689076539
 10
26.516932481841945
 20
-32.85218460161022
 10
26.515440328008232
 20
-32.85527972423242
 10
26.51402458169494
 20
-32.85841053394977
 10
26.513629416561727
 20
-32.85931377320321
 10
26.512290930561456
 20
-32.86247838413311
 10
26.511030511128165
 20
-32.86567489003218
 10
26.51050831029041
 20
-32.86704838236232
 10
26.509326716653845
 20
-32.870274857774334
 10
26.508224660561595
 20
-32.87352935919173
 10
26.507919931185178
 20
-32.87446698205755
 10
26.506898076474414
 20
-32.877747549091055
 10
26.50595703867245
 20
-32.881052205649084
 10
26.505571978164934
 20
-32.882470268871
 10
26.50471232411795
 20
-32.885797024351184
 10
26.50393457164916
 20
-32.889143874841224
 10
26.50372321273999
 20
-32.890106851498736
 10
26.503027830338258
 20
-32.89347178098179
 10
26.502415236876118
 20
-32.89685276254943
 10
26.502171025042
 20
-32.89830173993919
 10
26.501641589522897
 20
-32.90169673701418
 10
26.501195630858923
 20
-32.905103704577584
 10
26.501079677918852
 20
-32.9060827610351
 10
26.500717464738802
 20
-32.90949964685736
 10
26.500439215226397
 20
-32.91292439273392
 10
26.50033820395916
 20
-32.914390329847095
 10
26.5001440857215
 20
-32.91782087283908
 10
26.500034215688153
 20
-32.92125514651568
 10
26.500014785407373
 20
-32.9222408539244
 10
26.49998922974518
 20
-32.92567678655439
 10
26.500048003712813
 20
-32.929112311514345
 10
26.50009116581071
 20
-32.930581092911225
 10
26.50027234373277
 20
-32.934689864712816
 10
28.999702351310948
 20
-75.42500000645818
 10
26.500272343724525
 20
-117.91531013552988
 10
26.500091165758683
 20
-117.9194189088189
 10
26.50004800366918
 20
-117.92088769046106
 10
26.499988320940382
 20
-117.92454880570578
 10
26.500024404334695
 20
-117.92821022958893
 10
26.500025908136756
 20
-117.92825197251636
  0
ENDSEC
  0
SECTION
  2
OBJECTS
  0
DICTIONARY
  5
A
330
0
100
AcDbDictionary
281
1
  3
ACAD_COLOR
350
B
  3
ACAD_GROUP
350
C
  3
ACAD_LAYOUT
350
D
  3
ACAD_MATERIAL
350
E
  3
ACAD_MLEADERSTYLE
350
F
  3
ACAD_MLINESTYLE
350
10
  3
ACAD_PLOTSETTINGS
350
11
  3
ACAD_PLOTSTYLENAME
350
12
  3
ACAD_SCALELIST
350
14
  3
ACAD_TABLESTYLE
350
15
  3
ACAD_VISUALSTYLE
350
16
  0
DICTIONARY
  5
B
330
A
100
AcDbDictionary
281
1
  0
DICTIONARY
  5
C
330
A
100
AcDbDictionary
281
1
  0
DICTIONARY
  5
D
330
A
100
AcDbDictionary
281
1
  3
Model
350
1A
  3
Layout1
350
1E
  0
DICTIONARY
  5
E
330
A
100
AcDbDictionary
281
1
  3
ByBlock
350
1F
  3
ByLayer
350
20
  3
Global
350
21
  0
DICTIONARY
  5
F
330
A
100
AcDbDictionary
281
1
  3
Standard
350
2C
  0
DICTIONARY
  5
10
330
A
100
AcDbDictionary
281
1
  3
Standard
350
22
  0
DICTIONARY
  5
11
330
A
100
AcDbDictionary
281
1
  0
ACDBDICTIONARYWDFLT
  5
12
330
A
100
AcDbDictionary
281
1
  3
Normal
350
13
100
AcDbDictionaryWithDefault
340
13
  0
ACDBPLACEHOLDER
  5
13
330
12
  0
DICTIONARY
  5
14
330
A
100
AcDbDictionary
281
1
  0
DICTIONARY
  5
15
330
A
100
AcDbDictionary
281
1
  0
DICTIONARY
  5
16
330
A
100
AcDbDictionary
281
1
  0
LAYOUT
  5
1A
330
D
100
AcDbPlotSettings
  1

  2
Adobe PDF
  4
A4
  6

 40
3.175
 41
3.175
 42
3.175
 43
3.175
 44
209.91
 45
297.03
 46
0.0
 47
0.0
 48
0.0
 49
0.0
140
0.0
141
0.0
142
1.0
143
1.0
 70
1024
 72
0
 73
1
 74
5
  7

 75
16
 76
0
 77
2
 78
300
147
1.0
148
0.0
149
0.0
100
AcDbLayout
  1
Model
 70
1
 71
0
 10
-3.175
 20
-3.175
 11
293.857
 21
206.735
 12
0.0
 22
0.0
 32
0.0
 14
29.068
 24
20.356
 34
0.0
 15
261.614
 25
183.204
 35
0.0
146
0.0
 13
0.0
 23
0.0
 33
0.0
 16
1.0
 26
0.0
 36
0.0
 17
0.0
 27
1.0
 37
0.0
 76
1
330
17
  0
LAYOUT
  5
1E
330
D
100
AcDbPlotSettings
  1

  2
Adobe PDF
  4
A4
  6

 40
3.175
 41
3.175
 42
3.175
 43
3.175
 44
209.91
 45
297.03
 46
0.0
 47
0.0
 48
0.0
 49
0.0
140
0.0
141
0.0
142
1.0
143
1.0
 70
0
 72
0
 73
1
 74
5
  7

 75
16
 76
0
 77
2
 78
300
147
1.0
148
0.0
149
0.0
100
AcDbLayout
  1
Layout1
 70
1
 71
1
 10
-3.175
 20
-3.175
 11
293.857
 21
206.735
 12
0.0
 22
0.0
 32
0.0
 14
29.068
 24
20.356
 34
0.0
 15
261.614
 25
183.204
 35
0.0
146
0.0
 13
0.0
 23
0.0
 33
0.0
 16
1.0
 26
0.0
 36
0.0
 17
0.0
 27
1.0
 37
0.0
 76
1
330
1B
  0
MATERIAL
  5
1F
102
{ACAD_REACTORS
330
E
102
}
330
E
100
AcDbMaterial
  1
ByBlock
  2

 70
0
 40
1.0
 71
1
 41
1.0
 91
-1023410177
 42
1.0
 72
1
  3

 73
1
 74
1
 75
1
 44
0.5
 73
0
 45
1.0
 46
1.0
 77
1
  4

 78
1
 79
1
170
1
 48
1.0
171
1
  6

172
1
173
1
174
1
140
1.0
141
1.0
175
1
  7

176
1
177
1
178
1
143
1.0
179
1
  8

270
1
271
1
272
1
145
1.0
146
1.0
273
1
  9

274
1
275
1
276
1
 42
1.0
 72
1
  3

 73
1
 74
1
 75
1
 94
63
  0
MATERIAL
  5
20
102
{ACAD_REACTORS
330
E
102
}
330
E
100
AcDbMaterial
  1
ByLayer
  2

 70
0
 40
1.0
 71
1
 41
1.0
 91
-1023410177
 42
1.0
 72
1
  3

 73
1
 74
1
 75
1
 44
0.5
 73
0
 45
1.0
 46
1.0
 77
1
  4

 78
1
 79
1
170
1
 48
1.0
171
1
  6

172
1
173
1
174
1
140
1.0
141
1.0
175
1
  7

176
1
177
1
178
1
143
1.0
179
1
  8

270
1
271
1
272
1
145
1.0
146
1.0
273
1
  9

274
1
275
1
276
1
 42
1.0
 72
1
  3

 73
1
 74
1
 75
1
 94
63
  0
MATERIAL
  5
21
102
{ACAD_REACTORS
330
E
102
}
330
E
100
AcDbMaterial
  1
Global
  2

 70
0
 40
1.0
 71
1
 41
1.0
 91
-1023410177
 42
1.0
 72
1
  3

 73
1
 74
1
 75
1
 44
0.5
 73
0
 45
1.0
 46
1.0
 77
1
  4

 78
1
 79
1
170
1
 48
1.0
171
1
  6

172
1
173
1
174
1
140
1.0
141
1.0
175
1
  7

176
1
177
1
178
1
143
1.0
179
1
  8

270
1
271
1
272
1
145
1.0
146
1.0
273
1
  9

274
1
275
1
276
1
 42
1.0
 72
1
  3

 73
1
 74
1
 75
1
 94
63
  0
MLINESTYLE
  5
22
102
{ACAD_REACTORS
330
10
102
}
330
10
100
AcDbMlineStyle
  2
Standard
 70
0
  3

 62
256
 51
90.0
 52
90.0
 71
2
 49
0.5
 62
256
  6
BYLAYER
 49
-0.5
 62
256
  6
BYLAYER
  0
MLEADERSTYLE
  5
2C
102
{ACAD_REACTORS
330
F
102
}
330
F
100
AcDbMLeaderStyle
179
2
170
2
171
1
172
0
 90
2
 40
0.0
 41
0.0
173
1
 91
-1056964608
 92
-2
290
1
 42
2.0
291
1
 43
8.0
  3
Standard
 44
4.0
300

342
29
174
1
175
1
176
0
178
1
 93
-1056964608
 45
4.0
292
0
297
0
 46
4.0
 94
-1056964608
 47
1.0
 49
0.0
140
1.0
294
1
141
0.0
177
0
142
1.0
295
0
296
0
143
3.75
271
0
272
9
272
9
  0
ENDSEC
  0
EOF
