%TF.GenerationSoftware,KiCad,Pcbnew,9.0.3*%
%TF.CreationDate,2026-01-26T07:39:13-05:00*%
%TF.ProjectId,SLAVE_TEMP,534c4156-455f-4544-954d-502e6b696361,rev?*%
%TF.SameCoordinates,Original*%
%TF.FileFunction,Soldermask,Bot*%
%TF.FilePolarity,Negative*%
%FSLAX46Y46*%
G04 Gerber Fmt 4.6, Leading zero omitted, Abs format (unit mm)*
G04 Created by KiCad (PCBNEW 9.0.3) date 2026-01-26 07:39:13*
%MOMM*%
%LPD*%
G01*
G04 APERTURE LIST*
G04 Aperture macros list*
%AMRoundRect*
0 Rectangle with rounded corners*
0 $1 Rounding radius*
0 $2 $3 $4 $5 $6 $7 $8 $9 X,Y pos of 4 corners*
0 Add a 4 corners polygon primitive as box body*
4,1,4,$2,$3,$4,$5,$6,$7,$8,$9,$2,$3,0*
0 Add four circle primitives for the rounded corners*
1,1,$1+$1,$2,$3*
1,1,$1+$1,$4,$5*
1,1,$1+$1,$6,$7*
1,1,$1+$1,$8,$9*
0 Add four rect primitives between the rounded corners*
20,1,$1+$1,$2,$3,$4,$5,0*
20,1,$1+$1,$4,$5,$6,$7,0*
20,1,$1+$1,$6,$7,$8,$9,0*
20,1,$1+$1,$8,$9,$2,$3,0*%
G04 Aperture macros list end*
%ADD10C,1.728000*%
%ADD11R,1.050000X1.500000*%
%ADD12O,1.050000X1.500000*%
%ADD13C,1.600000*%
%ADD14RoundRect,0.102000X-0.644000X-0.644000X0.644000X-0.644000X0.644000X0.644000X-0.644000X0.644000X0*%
%ADD15C,1.492000*%
%ADD16RoundRect,0.250000X-0.750000X0.900000X-0.750000X-0.900000X0.750000X-0.900000X0.750000X0.900000X0*%
%ADD17RoundRect,0.250000X-1.020000X1.020000X-1.020000X-1.020000X1.020000X-1.020000X1.020000X1.020000X0*%
%ADD18R,1.800000X1.800000*%
%ADD19C,1.800000*%
%ADD20C,2.000000*%
%ADD21RoundRect,0.250000X-1.050000X-1.050000X1.050000X-1.050000X1.050000X1.050000X-1.050000X1.050000X0*%
%ADD22C,2.600000*%
%ADD23RoundRect,0.250000X1.050000X1.050000X-1.050000X1.050000X-1.050000X-1.050000X1.050000X-1.050000X0*%
%ADD24RoundRect,0.250000X-0.550000X0.550000X-0.550000X-0.550000X0.550000X-0.550000X0.550000X0.550000X0*%
%ADD25C,3.000000*%
%ADD26RoundRect,0.102000X-1.000000X-1.000000X1.000000X-1.000000X1.000000X1.000000X-1.000000X1.000000X0*%
%ADD27C,2.204000*%
%ADD28RoundRect,0.102000X0.704000X-0.704000X0.704000X0.704000X-0.704000X0.704000X-0.704000X-0.704000X0*%
%ADD29C,1.612000*%
G04 APERTURE END LIST*
D10*
%TO.C,U4*%
X141130000Y-77200000D03*
X143670000Y-77200000D03*
X133510000Y-77200000D03*
X146210000Y-77200000D03*
X148750000Y-77200000D03*
X151290000Y-77200000D03*
X153830000Y-77200000D03*
X130970000Y-77200000D03*
X138590000Y-77200000D03*
X136050000Y-77200000D03*
%TD*%
D11*
%TO.C,Q1*%
X140760000Y-112510000D03*
D12*
X142030000Y-112510000D03*
X143300000Y-112510000D03*
%TD*%
D13*
%TO.C,C1*%
X153400000Y-63200000D03*
X143400000Y-63200000D03*
%TD*%
%TO.C,R3*%
X133480000Y-68400000D03*
X141100000Y-68400000D03*
%TD*%
D14*
%TO.C,PS1*%
X86500000Y-51927000D03*
D15*
X89040000Y-51927000D03*
X94120000Y-51927000D03*
X99200000Y-51927000D03*
%TD*%
D13*
%TO.C,R1*%
X86800000Y-113390000D03*
X86800000Y-121010000D03*
%TD*%
D16*
%TO.C,U10*%
X122850000Y-69850000D03*
X120310000Y-69850000D03*
X117770000Y-69850000D03*
X115230000Y-69850000D03*
D17*
X124350000Y-109450000D03*
X119270000Y-109450000D03*
X114190000Y-109450000D03*
%TD*%
D13*
%TO.C,Rref1*%
X106940000Y-53127500D03*
X114560000Y-53127500D03*
%TD*%
D18*
%TO.C,D7*%
X146960000Y-112600000D03*
D19*
X149500000Y-112600000D03*
%TD*%
D13*
%TO.C,R52*%
X142800000Y-104800000D03*
X142800000Y-97180000D03*
%TD*%
%TO.C,R51*%
X150100000Y-127110000D03*
X150100000Y-119490000D03*
%TD*%
%TO.C,R8*%
X133480000Y-58000000D03*
X141100000Y-58000000D03*
%TD*%
%TO.C,C4*%
X153400000Y-52800000D03*
X143400000Y-52800000D03*
%TD*%
%TO.C,C3*%
X153400000Y-68400000D03*
X143400000Y-68400000D03*
%TD*%
D20*
%TO.C,SW2*%
X129700000Y-109350000D03*
X136200000Y-109350000D03*
X129700000Y-113850000D03*
X136200000Y-113850000D03*
%TD*%
D21*
%TO.C,MODBUS_OUT*%
X91090000Y-127672500D03*
D22*
X96170000Y-127672500D03*
X101250000Y-127672500D03*
X106330000Y-127672500D03*
X111410000Y-127672500D03*
%TD*%
D13*
%TO.C,R9*%
X133480000Y-52800000D03*
X141100000Y-52800000D03*
%TD*%
%TO.C,C2*%
X153400000Y-58000000D03*
X143400000Y-58000000D03*
%TD*%
D23*
%TO.C,PTC_IN*%
X129335000Y-53127500D03*
D22*
X124255000Y-53127500D03*
X119175000Y-53127500D03*
%TD*%
D24*
%TO.C,SW1*%
X138297500Y-97532500D03*
D13*
X135757500Y-97532500D03*
X133217500Y-97532500D03*
X130677500Y-97532500D03*
X130677500Y-105152500D03*
X133217500Y-105152500D03*
X135757500Y-105152500D03*
X138297500Y-105152500D03*
%TD*%
D25*
%TO.C,U3*%
X83170000Y-62475000D03*
X83170000Y-109425000D03*
X107680000Y-62475000D03*
X107680000Y-109425000D03*
D26*
X82750000Y-70435000D03*
D27*
X82750000Y-72975000D03*
X82750000Y-75515000D03*
X82750000Y-78055000D03*
X82750000Y-80595000D03*
X82750000Y-83135000D03*
X82750000Y-85675000D03*
X82750000Y-88215000D03*
X82750000Y-90755000D03*
X82750000Y-93295000D03*
X82750000Y-95835000D03*
X82750000Y-98375000D03*
X82750000Y-100915000D03*
X82750000Y-103455000D03*
X82750000Y-105995000D03*
X108150000Y-105995000D03*
X108150000Y-103455000D03*
X108150000Y-100915000D03*
X108150000Y-98375000D03*
X108150000Y-95835000D03*
X108150000Y-93295000D03*
X108150000Y-90755000D03*
X108150000Y-88215000D03*
X108150000Y-85675000D03*
X108150000Y-83135000D03*
X108150000Y-80595000D03*
X108150000Y-78055000D03*
X108150000Y-75515000D03*
X108150000Y-72975000D03*
X108150000Y-70435000D03*
%TD*%
D21*
%TO.C,MODBUS_IN*%
X125220000Y-127672500D03*
D22*
X130300000Y-127672500D03*
X135380000Y-127672500D03*
X140460000Y-127672500D03*
X145540000Y-127672500D03*
%TD*%
D13*
%TO.C,R7*%
X133480000Y-63200000D03*
X141100000Y-63200000D03*
%TD*%
D28*
%TO.C,S1*%
X82600000Y-120400000D03*
D29*
X82600000Y-117900000D03*
X82600000Y-115400000D03*
%TD*%
M02*
