M48
; DRILL file {KiCad 9.0.3} date 2025-11-12T11:23:38-0500
; FORMAT={-:-/ absolute / metric / decimal}
; #@! TF.CreationDate,2025-11-12T11:23:38-05:00
; #@! TF.GenerationSoftware,Kicad,Pcbnew,9.0.3
; #@! TF.FileFunction,Plated,1,2,PTH
FMAT,2
METRIC
; #@! TA.AperFunction,Plated,PTH,ViaDrill
T1C0.800
; #@! TA.AperFunction,Plated,PTH,ComponentDrill
T2C0.800
; #@! TA.AperFunction,Plated,PTH,ComponentDrill
T3C0.950
; #@! TA.AperFunction,Plated,PTH,ComponentDrill
T4C1.000
; #@! TA.AperFunction,Plated,PTH,ComponentDrill
T5C1.100
; #@! TA.AperFunction,Plated,PTH,ComponentDrill
T6C1.200
; #@! TA.AperFunction,Plated,PTH,ComponentDrill
T7C1.300
%
G90
G05
T1
X82.5Y-89.8
X89.4Y-89.8
X105.0Y-103.1
X105.0Y-107.4
X121.7Y-112.4
X121.7Y-116.7
T2
X49.92Y-83.685
X50.6Y-74.7
X50.6Y-77.2
X52.4Y-67.9
X52.4Y-70.4
X52.46Y-83.685
X55.0Y-83.685
X60.55Y-99.52
X60.55Y-102.06
X60.65Y-91.84
X61.52Y-78.86
X61.52Y-86.48
X62.5Y-56.2
X62.5Y-63.82
X64.06Y-78.86
X64.06Y-86.48
X64.5Y-104.1
X64.5Y-111.72
X66.5Y-56.2
X66.5Y-63.82
X66.6Y-78.86
X66.6Y-86.48
X68.17Y-99.52
X68.17Y-102.06
X68.27Y-91.84
X69.14Y-78.86
X69.14Y-86.48
X73.3Y-92.55
X73.3Y-95.05
X75.66Y-85.16
X76.86Y-93.46
X78.2Y-85.16
X79.36Y-93.46
X79.96Y-50.9
X79.96Y-74.1
X80.74Y-85.16
X82.5Y-50.9
X82.5Y-74.1
X85.04Y-50.9
X85.04Y-74.1
X87.58Y-50.9
X87.58Y-74.1
X89.716Y-92.88
X89.716Y-100.5
X90.12Y-50.9
X90.12Y-74.1
X92.256Y-92.88
X92.256Y-100.5
X92.66Y-50.9
X92.66Y-74.1
X94.796Y-92.88
X94.796Y-100.5
X95.2Y-50.9
X95.2Y-74.1
X95.414Y-79.29
X95.414Y-86.91
X97.336Y-92.88
X97.336Y-100.5
X97.74Y-50.9
X97.74Y-74.1
X99.464Y-79.29
X99.464Y-86.91
X99.876Y-92.88
X99.876Y-100.5
X100.28Y-50.9
X100.28Y-74.1
X102.416Y-92.88
X102.416Y-100.5
X102.82Y-50.9
X102.82Y-74.1
X103.514Y-79.29
X103.514Y-86.91
X104.956Y-92.88
X104.956Y-100.5
X105.36Y-50.9
X105.36Y-74.1
X107.496Y-92.88
X107.496Y-100.5
X107.564Y-79.29
X107.564Y-86.91
X107.9Y-50.9
X107.9Y-74.1
X110.44Y-50.9
X110.44Y-74.1
X113.614Y-79.29
X113.614Y-86.91
X117.664Y-79.29
X117.664Y-86.91
X121.714Y-79.29
X121.714Y-86.91
X125.764Y-79.29
X125.764Y-86.91
X129.9Y-108.98
X129.9Y-111.52
X129.9Y-114.06
X129.9Y-116.6
T3
X52.56Y-111.7
X52.56Y-114.2
X52.56Y-116.7
X52.56Y-119.2
X52.56Y-121.7
T4
X55.16Y-77.26
X57.7Y-77.26
X73.3Y-103.3
X75.8Y-103.3
X111.956Y-93.0
X111.956Y-100.62
X114.496Y-93.0
X114.496Y-100.62
X117.036Y-93.0
X117.036Y-100.62
X119.576Y-93.0
X119.576Y-100.62
X122.116Y-93.0
X122.116Y-100.62
X124.656Y-93.0
X124.656Y-100.62
X127.196Y-93.0
X127.196Y-100.62
X129.736Y-93.0
X129.736Y-100.62
T5
X57.1Y-72.06
X67.26Y-67.26
X67.26Y-72.06
X77.42Y-67.26
T6
X90.3Y-107.94
X90.3Y-113.02
X90.3Y-118.1
T7
X52.56Y-91.9
X52.56Y-96.98
X52.56Y-102.06
M30
