%TF.GenerationSoftware,KiCad,Pcbnew,9.0.3*%
%TF.CreationDate,2025-11-12T11:23:42-05:00*%
%TF.ProjectId,monitor REV2,6d6f6e69-746f-4722-9052-4556322e6b69,rev?*%
%TF.SameCoordinates,Original*%
%TF.FileFunction,Copper,L2,Bot*%
%TF.FilePolarity,Positive*%
%FSLAX46Y46*%
G04 Gerber Fmt 4.6, Leading zero omitted, Abs format (unit mm)*
G04 Created by KiCad (PCBNEW 9.0.3) date 2025-11-12 11:23:42*
%MOMM*%
%LPD*%
G01*
G04 APERTURE LIST*
G04 Aperture macros list*
%AMRoundRect*
0 Rectangle with rounded corners*
0 $1 Rounding radius*
0 $2 $3 $4 $5 $6 $7 $8 $9 X,Y pos of 4 corners*
0 Add a 4 corners polygon primitive as box body*
4,1,4,$2,$3,$4,$5,$6,$7,$8,$9,$2,$3,0*
0 Add four circle primitives for the rounded corners*
1,1,$1+$1,$2,$3*
1,1,$1+$1,$4,$5*
1,1,$1+$1,$6,$7*
1,1,$1+$1,$8,$9*
0 Add four rect primitives between the rounded corners*
20,1,$1+$1,$2,$3,$4,$5,0*
20,1,$1+$1,$4,$5,$6,$7,0*
20,1,$1+$1,$6,$7,$8,$9,0*
20,1,$1+$1,$8,$9,$2,$3,0*%
G04 Aperture macros list end*
%TA.AperFunction,ComponentPad*%
%ADD10C,1.600000*%
%TD*%
%TA.AperFunction,ComponentPad*%
%ADD11RoundRect,0.249999X0.850001X0.850001X-0.850001X0.850001X-0.850001X-0.850001X0.850001X-0.850001X0*%
%TD*%
%TA.AperFunction,ComponentPad*%
%ADD12C,2.200000*%
%TD*%
%TA.AperFunction,ComponentPad*%
%ADD13RoundRect,0.250000X0.550000X-0.550000X0.550000X0.550000X-0.550000X0.550000X-0.550000X-0.550000X0*%
%TD*%
%TA.AperFunction,ComponentPad*%
%ADD14C,1.440000*%
%TD*%
%TA.AperFunction,ComponentPad*%
%ADD15RoundRect,0.250000X-1.050000X1.050000X-1.050000X-1.050000X1.050000X-1.050000X1.050000X1.050000X0*%
%TD*%
%TA.AperFunction,ComponentPad*%
%ADD16C,2.600000*%
%TD*%
%TA.AperFunction,ComponentPad*%
%ADD17RoundRect,0.250000X0.725000X-0.600000X0.725000X0.600000X-0.725000X0.600000X-0.725000X-0.600000X0*%
%TD*%
%TA.AperFunction,ComponentPad*%
%ADD18O,1.950000X1.700000*%
%TD*%
%TA.AperFunction,ComponentPad*%
%ADD19RoundRect,0.250000X0.900000X0.750000X-0.900000X0.750000X-0.900000X-0.750000X0.900000X-0.750000X0*%
%TD*%
%TA.AperFunction,ComponentPad*%
%ADD20RoundRect,0.250000X1.020000X1.020000X-1.020000X1.020000X-1.020000X-1.020000X1.020000X-1.020000X0*%
%TD*%
%TA.AperFunction,ComponentPad*%
%ADD21RoundRect,0.250000X-0.550000X0.950000X-0.550000X-0.950000X0.550000X-0.950000X0.550000X0.950000X0*%
%TD*%
%TA.AperFunction,ComponentPad*%
%ADD22O,1.600000X2.400000*%
%TD*%
%TA.AperFunction,ComponentPad*%
%ADD23RoundRect,0.250000X-0.950000X-0.550000X0.950000X-0.550000X0.950000X0.550000X-0.950000X0.550000X0*%
%TD*%
%TA.AperFunction,ComponentPad*%
%ADD24O,2.400000X1.600000*%
%TD*%
%TA.AperFunction,ComponentPad*%
%ADD25RoundRect,0.250000X-0.550000X-0.550000X0.550000X-0.550000X0.550000X0.550000X-0.550000X0.550000X0*%
%TD*%
%TA.AperFunction,ComponentPad*%
%ADD26R,1.700000X1.700000*%
%TD*%
%TA.AperFunction,ComponentPad*%
%ADD27C,1.700000*%
%TD*%
%TA.AperFunction,ComponentPad*%
%ADD28RoundRect,0.249999X-0.850001X-0.850001X0.850001X-0.850001X0.850001X0.850001X-0.850001X0.850001X0*%
%TD*%
%TA.AperFunction,ComponentPad*%
%ADD29RoundRect,0.250000X-0.550000X0.550000X-0.550000X-0.550000X0.550000X-0.550000X0.550000X0.550000X0*%
%TD*%
%TA.AperFunction,ComponentPad*%
%ADD30RoundRect,0.250000X0.600000X0.750000X-0.600000X0.750000X-0.600000X-0.750000X0.600000X-0.750000X0*%
%TD*%
%TA.AperFunction,ComponentPad*%
%ADD31O,1.700000X2.000000*%
%TD*%
%TA.AperFunction,ComponentPad*%
%ADD32C,1.580000*%
%TD*%
%TA.AperFunction,ComponentPad*%
%ADD33R,1.580000X1.580000*%
%TD*%
%TA.AperFunction,ComponentPad*%
%ADD34C,1.800000*%
%TD*%
%TA.AperFunction,ViaPad*%
%ADD35C,2.000000*%
%TD*%
%TA.AperFunction,Conductor*%
%ADD36C,1.000000*%
%TD*%
%TA.AperFunction,Conductor*%
%ADD37C,0.500000*%
%TD*%
%TA.AperFunction,Conductor*%
%ADD38C,1.500000*%
%TD*%
G04 APERTURE END LIST*
D10*
%TO.P,R11,2*%
%TO.N,+3.3V*%
X64500000Y-111720000D03*
%TO.P,R11,1*%
%TO.N,PLANTA_ON*%
X64500000Y-104100000D03*
%TD*%
%TO.P,R8,1*%
%TO.N,Net-(D2-K)*%
X62500000Y-56200000D03*
%TO.P,R8,2*%
%TO.N,Net-(D1-A)*%
X62500000Y-63820000D03*
%TD*%
D11*
%TO.P,D1,1,K*%
%TO.N,Net-(D1-K)*%
X77420000Y-67260000D03*
D12*
%TO.P,D1,2,A*%
%TO.N,Net-(D1-A)*%
X67260000Y-67260000D03*
%TD*%
D13*
%TO.P,C4,1*%
%TO.N,Net-(J1-Pin_1)*%
X52400000Y-70400000D03*
D10*
%TO.P,C4,2*%
%TO.N,GND*%
X52400000Y-67900000D03*
%TD*%
%TO.P,C2,1*%
%TO.N,+5V*%
X73300000Y-95050000D03*
%TO.P,C2,2*%
%TO.N,GND*%
X73300000Y-92550000D03*
%TD*%
%TO.P,R6,1*%
%TO.N,+3.3V*%
X99463604Y-79290000D03*
%TO.P,R6,2*%
%TO.N,Pin_5*%
X99463604Y-86910000D03*
%TD*%
%TO.P,R4,1*%
%TO.N,+3.3V*%
X107563604Y-79290000D03*
%TO.P,R4,2*%
%TO.N,Pin_7*%
X107563604Y-86910000D03*
%TD*%
D14*
%TO.P,RV1,1,1*%
%TO.N,BATERIA*%
X55000000Y-83685000D03*
%TO.P,RV1,2,2*%
%TO.N,Net-(J1-Pin_1)*%
X52460000Y-83685000D03*
%TO.P,RV1,3,3*%
%TO.N,GND*%
X49920000Y-83685000D03*
%TD*%
D10*
%TO.P,R9,1*%
%TO.N,Net-(D1-A)*%
X66500000Y-63820000D03*
%TO.P,R9,2*%
%TO.N,NIVEL_BATERIA*%
X66500000Y-56200000D03*
%TD*%
D15*
%TO.P,PLANTA1,1,Pin_1*%
%TO.N,BATERIA*%
X52560000Y-91900000D03*
D16*
%TO.P,PLANTA1,2,Pin_2*%
%TO.N,GND*%
X52560000Y-96980000D03*
%TO.P,PLANTA1,3,Pin_3*%
%TO.N,PLANTA_IGN*%
X52560000Y-102060000D03*
%TD*%
D10*
%TO.P,R5,1*%
%TO.N,+3.3V*%
X103513604Y-79290000D03*
%TO.P,R5,2*%
%TO.N,Pin_6*%
X103513604Y-86910000D03*
%TD*%
D17*
%TO.P,J2,1,Pin_1*%
%TO.N,+5V*%
X52560000Y-121700000D03*
D18*
%TO.P,J2,2,Pin_2*%
%TO.N,GND*%
X52560000Y-119200000D03*
%TO.P,J2,3,Pin_3*%
%TO.N,A+*%
X52560000Y-116700000D03*
%TO.P,J2,4,Pin_4*%
%TO.N,B-*%
X52560000Y-114200000D03*
%TO.P,J2,5,Pin_5*%
%TO.N,E*%
X52560000Y-111700000D03*
%TD*%
D19*
%TO.P,U4,1,VCC*%
%TO.N,+3.3V*%
X129900000Y-116600000D03*
%TO.P,U4,2,TXD*%
%TO.N,TX*%
X129900000Y-114060000D03*
%TO.P,U4,3,RXD*%
%TO.N,RX*%
X129900000Y-111520000D03*
%TO.P,U4,4,GND*%
%TO.N,GND*%
X129900000Y-108980000D03*
D20*
%TO.P,U4,5,A*%
%TO.N,A+*%
X90300000Y-118100000D03*
%TO.P,U4,6,B*%
%TO.N,B-*%
X90300000Y-113020000D03*
%TO.P,U4,7,GND*%
%TO.N,E*%
X90300000Y-107940000D03*
%TD*%
D21*
%TO.P,U3,1*%
%TO.N,Net-(D2-A)*%
X69140000Y-78860000D03*
D22*
%TO.P,U3,2,-*%
%TO.N,Net-(D2-K)*%
X66600000Y-78860000D03*
%TO.P,U3,3,+*%
%TO.N,Net-(J1-Pin_2)*%
X64060000Y-78860000D03*
%TO.P,U3,4,V-*%
%TO.N,GND*%
X61520000Y-78860000D03*
%TO.P,U3,5*%
%TO.N,N/C*%
X61520000Y-86480000D03*
%TO.P,U3,6*%
X64060000Y-86480000D03*
%TO.P,U3,7*%
X66600000Y-86480000D03*
%TO.P,U3,8,V+*%
%TO.N,+5V*%
X69140000Y-86480000D03*
%TD*%
D23*
%TO.P,U2,1*%
%TO.N,Net-(R10-Pad2)*%
X60550000Y-99520000D03*
D24*
%TO.P,U2,2*%
%TO.N,PLANTA_IGN*%
X60550000Y-102060000D03*
%TO.P,U2,3*%
%TO.N,GND*%
X68170000Y-102060000D03*
%TO.P,U2,4*%
%TO.N,PLANTA_ON*%
X68170000Y-99520000D03*
%TD*%
D25*
%TO.P,C1,1*%
%TO.N,+5V*%
X76860000Y-93460000D03*
D10*
%TO.P,C1,2*%
%TO.N,GND*%
X79360000Y-93460000D03*
%TD*%
D26*
%TO.P,J1,1,Pin_1*%
%TO.N,Net-(J1-Pin_1)*%
X55160000Y-77260000D03*
D27*
%TO.P,J1,2,Pin_2*%
%TO.N,Net-(J1-Pin_2)*%
X57700000Y-77260000D03*
%TD*%
D10*
%TO.P,R1,1*%
%TO.N,+3.3V*%
X121713604Y-79290000D03*
%TO.P,R1,2*%
%TO.N,Pin_1*%
X121713604Y-86910000D03*
%TD*%
D28*
%TO.P,D2,1,K*%
%TO.N,Net-(D2-K)*%
X57100000Y-72060000D03*
D12*
%TO.P,D2,2,A*%
%TO.N,Net-(D2-A)*%
X67260000Y-72060000D03*
%TD*%
D29*
%TO.P,U1,1,~{PL}*%
%TO.N,latchPin*%
X107496396Y-92880000D03*
D10*
%TO.P,U1,2,CP*%
%TO.N,clockPin*%
X104956396Y-92880000D03*
%TO.P,U1,3,D4*%
%TO.N,Pin_7*%
X102416396Y-92880000D03*
%TO.P,U1,4,D5*%
%TO.N,Pin_6*%
X99876396Y-92880000D03*
%TO.P,U1,5,D6*%
%TO.N,Pin_5*%
X97336396Y-92880000D03*
%TO.P,U1,6,D7*%
%TO.N,Pin_4*%
X94796396Y-92880000D03*
%TO.P,U1,7,~{Q7}*%
%TO.N,unconnected-(U1-~{Q7}-Pad7)*%
X92256396Y-92880000D03*
%TO.P,U1,8,GND*%
%TO.N,GND*%
X89716396Y-92880000D03*
%TO.P,U1,9,Q7*%
%TO.N,PIN_DATA*%
X89716396Y-100500000D03*
%TO.P,U1,10,DS*%
%TO.N,unconnected-(U1-DS-Pad10)*%
X92256396Y-100500000D03*
%TO.P,U1,11,D0*%
%TO.N,Pin_3*%
X94796396Y-100500000D03*
%TO.P,U1,12,D1*%
%TO.N,Pin_2*%
X97336396Y-100500000D03*
%TO.P,U1,13,D2*%
%TO.N,Pin_1*%
X99876396Y-100500000D03*
%TO.P,U1,14,D3*%
%TO.N,Pin_0*%
X102416396Y-100500000D03*
%TO.P,U1,15,~{CE}*%
%TO.N,GND*%
X104956396Y-100500000D03*
%TO.P,U1,16,VCC*%
%TO.N,+3.3V*%
X107496396Y-100500000D03*
%TD*%
%TO.P,R7,1*%
%TO.N,+3.3V*%
X95413604Y-79290000D03*
%TO.P,R7,2*%
%TO.N,Pin_4*%
X95413604Y-86910000D03*
%TD*%
%TO.P,R3,1*%
%TO.N,+3.3V*%
X113613604Y-79290000D03*
%TO.P,R3,2*%
%TO.N,Pin_3*%
X113613604Y-86910000D03*
%TD*%
%TO.P,R2,1*%
%TO.N,+3.3V*%
X117663604Y-79290000D03*
%TO.P,R2,2*%
%TO.N,Pin_2*%
X117663604Y-86910000D03*
%TD*%
%TO.P,R10,1*%
%TO.N,+5V*%
X68270000Y-91840000D03*
%TO.P,R10,2*%
%TO.N,Net-(R10-Pad2)*%
X60650000Y-91840000D03*
%TD*%
%TO.P,C3,1*%
%TO.N,GND*%
X50600000Y-74700000D03*
%TO.P,C3,2*%
%TO.N,Net-(J1-Pin_1)*%
X50600000Y-77200000D03*
%TD*%
%TO.P,R0,1*%
%TO.N,+3.3V*%
X125763604Y-79290000D03*
%TO.P,R0,2*%
%TO.N,Pin_0*%
X125763604Y-86910000D03*
%TD*%
D30*
%TO.P,JST_5V1,1,Pin_1*%
%TO.N,+5V*%
X75800000Y-103300000D03*
D31*
%TO.P,JST_5V1,2,Pin_2*%
%TO.N,GND*%
X73300000Y-103300000D03*
%TD*%
D32*
%TO.P,SW1,1*%
%TO.N,Pin_7*%
X111956396Y-93000000D03*
%TO.P,SW1,2*%
%TO.N,Pin_6*%
X114496396Y-93000000D03*
%TO.P,SW1,3*%
%TO.N,Pin_5*%
X117036396Y-93000000D03*
%TO.P,SW1,4*%
%TO.N,Pin_4*%
X119576396Y-93000000D03*
%TO.P,SW1,5*%
%TO.N,Pin_3*%
X122116396Y-93000000D03*
%TO.P,SW1,6*%
%TO.N,Pin_2*%
X124656396Y-93000000D03*
%TO.P,SW1,7*%
%TO.N,Pin_1*%
X127196396Y-93000000D03*
%TO.P,SW1,8*%
%TO.N,Pin_0*%
X129736396Y-93000000D03*
%TO.P,SW1,9*%
%TO.N,GND*%
X129736396Y-100620000D03*
%TO.P,SW1,10*%
X127196396Y-100620000D03*
%TO.P,SW1,11*%
X124656396Y-100620000D03*
%TO.P,SW1,12*%
X122116396Y-100620000D03*
%TO.P,SW1,13*%
X119576396Y-100620000D03*
%TO.P,SW1,14*%
X117036396Y-100620000D03*
%TO.P,SW1,15*%
X114496396Y-100620000D03*
D33*
%TO.P,SW1,16*%
X111956396Y-100620000D03*
%TD*%
D34*
%TO.P,ESP32,1,21*%
%TO.N,unconnected-(ESP32-21-Pad1)*%
X79960000Y-74100000D03*
%TO.P,ESP32,2,TXD*%
%TO.N,unconnected-(ESP32-TXD-Pad2)*%
X82500000Y-74100000D03*
%TO.P,ESP32,3,RXD*%
%TO.N,unconnected-(ESP32-RXD-Pad3)*%
X85040000Y-74100000D03*
%TO.P,ESP32,4,22*%
%TO.N,unconnected-(ESP32-22-Pad4)*%
X87580000Y-74100000D03*
%TO.P,ESP32,5,23*%
%TO.N,unconnected-(ESP32-23-Pad5)*%
X90120000Y-74100000D03*
%TO.P,ESP32,6,19*%
%TO.N,unconnected-(ESP32-19-Pad6)*%
X92660000Y-74100000D03*
%TO.P,ESP32,7,LoRa2*%
%TO.N,unconnected-(ESP32-LoRa2-Pad7)*%
X95200000Y-74100000D03*
%TO.P,ESP32,8,LoRa1*%
%TO.N,unconnected-(ESP32-LoRa1-Pad8)*%
X97740000Y-74100000D03*
%TO.P,ESP32,9,26*%
%TO.N,unconnected-(ESP32-26-Pad9)*%
X100280000Y-74100000D03*
%TO.P,ESP32,10,GND*%
%TO.N,unconnected-(ESP32-GND-Pad10)*%
X102820000Y-74100000D03*
%TO.P,ESP32,11,3.3V*%
%TO.N,+3.3V*%
X105360000Y-74100000D03*
%TO.P,ESP32,12,GND*%
%TO.N,GND*%
X107900000Y-74100000D03*
%TO.P,ESP32,13,5V*%
%TO.N,+5V*%
X110440000Y-74100000D03*
%TO.P,ESP32,14,36*%
%TO.N,unconnected-(ESP32-36-Pad14)*%
X79960000Y-50900000D03*
%TO.P,ESP32,15,39*%
%TO.N,unconnected-(ESP32-39-Pad15)*%
X82500000Y-50900000D03*
%TO.P,ESP32,16,RST*%
%TO.N,unconnected-(ESP32-RST-Pad16)*%
X85040000Y-50900000D03*
%TO.P,ESP32,17,34*%
%TO.N,PLANTA_ON*%
X87580000Y-50900000D03*
%TO.P,ESP32,18,35*%
%TO.N,NIVEL_BATERIA*%
X90120000Y-50900000D03*
%TO.P,ESP32,19,14*%
%TO.N,PIN_DATA*%
X92660000Y-50900000D03*
%TO.P,ESP32,20,12*%
%TO.N,TX*%
X95200000Y-50900000D03*
%TO.P,ESP32,21,13*%
%TO.N,RX*%
X97740000Y-50900000D03*
%TO.P,ESP32,22,15*%
%TO.N,unconnected-(ESP32-15-Pad22)*%
X100280000Y-50900000D03*
%TO.P,ESP32,23,02*%
%TO.N,unconnected-(ESP32-02-Pad23)*%
X102820000Y-50900000D03*
%TO.P,ESP32,24,00*%
%TO.N,unconnected-(ESP32-00-Pad24)*%
X105360000Y-50900000D03*
%TO.P,ESP32,25,04*%
%TO.N,latchPin*%
X107900000Y-50900000D03*
%TO.P,ESP32,26,25*%
%TO.N,clockPin*%
X110440000Y-50900000D03*
%TD*%
D14*
%TO.P,RV2,1,1*%
%TO.N,+5V*%
X75660000Y-85160000D03*
%TO.P,RV2,2,2*%
%TO.N,Net-(D1-K)*%
X78200000Y-85160000D03*
%TO.P,RV2,3,3*%
%TO.N,GND*%
X80740000Y-85160000D03*
%TD*%
D35*
%TO.N,GND*%
X82500000Y-89800000D03*
X89399999Y-89800001D03*
X121700000Y-116700000D03*
X105000000Y-103100000D03*
X105000000Y-107400000D03*
X121700000Y-112400000D03*
%TD*%
D36*
%TO.N,PLANTA_ON*%
X64475000Y-90075000D02*
X64475000Y-98005000D01*
X64475000Y-98005000D02*
X65990000Y-99520000D01*
X63350000Y-88950000D02*
X64475000Y-90075000D01*
X60550000Y-88950000D02*
X63350000Y-88950000D01*
X59560000Y-87960000D02*
X60550000Y-88950000D01*
X59560000Y-85040000D02*
X59560000Y-87960000D01*
X70500000Y-84200000D02*
X60400000Y-84200000D01*
X74700000Y-53000000D02*
X71900000Y-55800000D01*
X71900000Y-82800000D02*
X70500000Y-84200000D01*
X86700000Y-53000000D02*
X74700000Y-53000000D01*
X60400000Y-84200000D02*
X59560000Y-85040000D01*
X87580000Y-52120000D02*
X86700000Y-53000000D01*
X87580000Y-50900000D02*
X87580000Y-52120000D01*
X71900000Y-55800000D02*
X71900000Y-82800000D01*
%TO.N,+5V*%
X72300000Y-85700000D02*
X73400000Y-85700000D01*
X70550000Y-87450000D02*
X72300000Y-85700000D01*
%TO.N,clockPin*%
X109600000Y-88236396D02*
X104956396Y-92880000D01*
X127100000Y-83300000D02*
X110700000Y-83300000D01*
X109600000Y-84400000D02*
X109600000Y-88236396D01*
X130000000Y-80400000D02*
X127100000Y-83300000D01*
X130000000Y-62000000D02*
X130000000Y-80400000D01*
X110440000Y-50900000D02*
X118900000Y-50900000D01*
X118900000Y-50900000D02*
X130000000Y-62000000D01*
X110700000Y-83300000D02*
X109600000Y-84400000D01*
%TO.N,latchPin*%
X109800000Y-49000000D02*
X107900000Y-50900000D01*
X131600000Y-81000000D02*
X131600000Y-61600000D01*
X127600000Y-85000000D02*
X131600000Y-81000000D01*
X111600000Y-85800000D02*
X112400000Y-85000000D01*
X112400000Y-85000000D02*
X127600000Y-85000000D01*
X131600000Y-61600000D02*
X119000000Y-49000000D01*
X111600000Y-88776396D02*
X111600000Y-85800000D01*
X119000000Y-49000000D02*
X109800000Y-49000000D01*
X107496396Y-92880000D02*
X111600000Y-88776396D01*
D37*
%TO.N,Pin_3*%
X118116396Y-97000000D02*
X122116396Y-93000000D01*
X97900000Y-97000000D02*
X118116396Y-97000000D01*
X94796396Y-100103604D02*
X97900000Y-97000000D01*
X94796396Y-100500000D02*
X94796396Y-100103604D01*
%TO.N,Pin_7*%
X102416396Y-92880000D02*
X103667396Y-94131000D01*
X110825396Y-94131000D02*
X111956396Y-93000000D01*
X103667396Y-94131000D02*
X110825396Y-94131000D01*
D36*
%TO.N,+5V*%
X75800000Y-97550000D02*
X75800000Y-98120000D01*
X73300000Y-95050000D02*
X75800000Y-97550000D01*
X75800000Y-98720116D02*
X75800000Y-100800000D01*
%TO.N,B-*%
X84100000Y-117200000D02*
X88280000Y-113020000D01*
X57900000Y-117200000D02*
X84100000Y-117200000D01*
X54700000Y-114000000D02*
X57900000Y-117200000D01*
X88280000Y-113020000D02*
X90300000Y-113020000D01*
%TO.N,A+*%
X88000000Y-117900000D02*
X85400000Y-120500000D01*
X57700000Y-120500000D02*
X53900000Y-116700000D01*
X90100000Y-117900000D02*
X88000000Y-117900000D01*
X85400000Y-120500000D02*
X57700000Y-120500000D01*
X53900000Y-116700000D02*
X52560000Y-116700000D01*
%TO.N,+3.3V*%
X74700000Y-111500000D02*
X64720000Y-111500000D01*
X85400000Y-100800000D02*
X74700000Y-111500000D01*
%TO.N,+5V*%
X75800000Y-100800000D02*
X75800000Y-103300000D01*
X70160000Y-95160000D02*
X75800000Y-100800000D01*
%TO.N,+3.3V*%
X64720000Y-111500000D02*
X64500000Y-111720000D01*
%TO.N,+5V*%
X75800000Y-98720116D02*
X75800000Y-98120000D01*
D37*
%TO.N,Pin_5*%
X114505401Y-95530995D02*
X117036396Y-93000000D01*
X97336396Y-92880000D02*
X99987391Y-95530995D01*
X99987391Y-95530995D02*
X114505401Y-95530995D01*
%TO.N,Pin_6*%
X99876396Y-92880000D02*
X101827396Y-94831000D01*
X101827396Y-94831000D02*
X112665396Y-94831000D01*
X112665396Y-94831000D02*
X114496396Y-93000000D01*
D36*
%TO.N,PLANTA_ON*%
X64400000Y-101110000D02*
X65990000Y-99520000D01*
X64400000Y-104000000D02*
X64400000Y-101110000D01*
X64500000Y-104100000D02*
X64400000Y-104000000D01*
%TO.N,+3.3V*%
X127600000Y-116600000D02*
X129900000Y-116600000D01*
X116400000Y-114700000D02*
X125700000Y-114700000D01*
X125700000Y-114700000D02*
X127600000Y-116600000D01*
X106900000Y-105200000D02*
X116400000Y-114700000D01*
%TO.N,TX*%
X134140000Y-114060000D02*
X129900000Y-114060000D01*
X135600000Y-45400000D02*
X138500000Y-48300000D01*
X100700000Y-45400000D02*
X135600000Y-45400000D01*
X138500000Y-48300000D02*
X138500000Y-109700000D01*
X95200000Y-50900000D02*
X100700000Y-45400000D01*
X138500000Y-109700000D02*
X134140000Y-114060000D01*
%TO.N,RX*%
X137000000Y-107600000D02*
X133080000Y-111520000D01*
X133080000Y-111520000D02*
X129900000Y-111520000D01*
X134900000Y-46800000D02*
X137000000Y-48900000D01*
X101840000Y-46800000D02*
X134900000Y-46800000D01*
X97740000Y-50900000D02*
X101840000Y-46800000D01*
X137000000Y-48900000D02*
X137000000Y-107600000D01*
D38*
%TO.N,A+*%
X90300000Y-118100000D02*
X90100000Y-117900000D01*
%TO.N,B-*%
X52760000Y-114000000D02*
X54700000Y-114000000D01*
X52560000Y-114200000D02*
X52760000Y-114000000D01*
D36*
%TO.N,E*%
X55900000Y-111700000D02*
X52560000Y-111700000D01*
X59000000Y-114800000D02*
X55900000Y-111700000D01*
X80600000Y-114800000D02*
X59000000Y-114800000D01*
X87460000Y-107940000D02*
X80600000Y-114800000D01*
X90300000Y-107940000D02*
X87460000Y-107940000D01*
%TO.N,+5V*%
X49300000Y-120300000D02*
X50700000Y-121700000D01*
X50700000Y-107500000D02*
X49300000Y-108900000D01*
X49300000Y-108900000D02*
X49300000Y-120300000D01*
X72350000Y-107500000D02*
X50700000Y-107500000D01*
X75800000Y-104050000D02*
X72350000Y-107500000D01*
X50700000Y-121700000D02*
X52560000Y-121700000D01*
X75800000Y-103300000D02*
X75800000Y-104050000D01*
X75800000Y-98120000D02*
X76860000Y-97060000D01*
%TO.N,+3.3V*%
X85400000Y-100800000D02*
X85200000Y-100600000D01*
%TO.N,Pin_4*%
X94796396Y-87527208D02*
X95413604Y-86910000D01*
X94796396Y-92880000D02*
X94796396Y-87527208D01*
%TO.N,+5V*%
X73700000Y-85400000D02*
X73400000Y-85700000D01*
X75500000Y-54700000D02*
X73700000Y-56500000D01*
X104900000Y-54700000D02*
X75500000Y-54700000D01*
X110440000Y-60240000D02*
X104900000Y-54700000D01*
X73700000Y-56500000D02*
X73700000Y-85400000D01*
X110440000Y-74100000D02*
X110440000Y-60240000D01*
X73400000Y-85500000D02*
X73740000Y-85160000D01*
X73740000Y-85160000D02*
X75660000Y-85160000D01*
X73400000Y-85700000D02*
X73400000Y-85500000D01*
%TO.N,Net-(R10-Pad2)*%
X60650000Y-91840000D02*
X59960000Y-91840000D01*
X59960000Y-91840000D02*
X58900000Y-92900000D01*
X58900000Y-97870000D02*
X60550000Y-99520000D01*
X58900000Y-92900000D02*
X58900000Y-97870000D01*
%TO.N,+3.3V*%
X102900000Y-103900000D02*
X102900000Y-104800000D01*
X101800000Y-102800000D02*
X102900000Y-103900000D01*
X92700000Y-77700000D02*
X95800000Y-77700000D01*
X85200000Y-85200000D02*
X92700000Y-77700000D01*
X85200000Y-100600000D02*
X85200000Y-85200000D01*
X87400000Y-102800000D02*
X85400000Y-100800000D01*
X101800000Y-102800000D02*
X87400000Y-102800000D01*
X103300000Y-105200000D02*
X102900000Y-104800000D01*
X106900000Y-105200000D02*
X103300000Y-105200000D01*
X105360000Y-76540000D02*
X104200000Y-77700000D01*
X105360000Y-74100000D02*
X105360000Y-76540000D01*
%TO.N,NIVEL_BATERIA*%
X66500000Y-50600000D02*
X66500000Y-56200000D01*
X69100000Y-48000000D02*
X66500000Y-50600000D01*
X88550000Y-48000000D02*
X69100000Y-48000000D01*
X90120000Y-49570000D02*
X88550000Y-48000000D01*
X90120000Y-50900000D02*
X90120000Y-49570000D01*
D37*
%TO.N,Net-(J1-Pin_1)*%
X52460000Y-79060000D02*
X52460000Y-79960000D01*
X52460000Y-78260000D02*
X52460000Y-74560000D01*
D36*
X50600000Y-77200000D02*
X52460000Y-79060000D01*
X52460000Y-83685000D02*
X52460000Y-82400000D01*
D37*
X52460000Y-78260000D02*
X52460000Y-79960000D01*
D36*
X52460000Y-74560000D02*
X52460000Y-82400000D01*
X52460000Y-79960000D02*
X55160000Y-77260000D01*
X52460000Y-74560000D02*
X52460000Y-70640000D01*
D37*
X52460000Y-70640000D02*
X52600000Y-70500000D01*
D36*
X52460000Y-82400000D02*
X52460000Y-79960000D01*
%TO.N,+5V*%
X76860000Y-97060000D02*
X76860000Y-93460000D01*
X69140000Y-87040000D02*
X70160000Y-88060000D01*
X70160000Y-88740000D02*
X70160000Y-90500000D01*
X70160000Y-88760000D02*
X70160000Y-88060000D01*
D37*
X70160000Y-88940000D02*
X70160000Y-89500000D01*
D36*
X70160000Y-95160000D02*
X68270000Y-93270000D01*
X68270000Y-93270000D02*
X68270000Y-91840000D01*
X70160000Y-90500000D02*
X70160000Y-89500000D01*
D37*
X69140000Y-86480000D02*
X69140000Y-87040000D01*
X70160000Y-89500000D02*
X70160000Y-88760000D01*
D36*
X70160000Y-95160000D02*
X70160000Y-90500000D01*
%TO.N,Net-(D1-K)*%
X78200000Y-85160000D02*
X77301751Y-84261751D01*
X77301751Y-84261751D02*
X77301751Y-67378249D01*
D37*
X77301751Y-67378249D02*
X77420000Y-67260000D01*
D36*
%TO.N,Net-(D1-A)*%
X62460000Y-63820000D02*
X64000000Y-63820000D01*
D37*
X67260000Y-66540000D02*
X67260000Y-67260000D01*
D36*
X66510000Y-66510000D02*
X67260000Y-67260000D01*
X65780000Y-65600000D02*
X66510000Y-65600000D01*
X66500000Y-63830000D02*
X66500000Y-65590000D01*
X64000000Y-63820000D02*
X65780000Y-65600000D01*
X66500000Y-65590000D02*
X66510000Y-65600000D01*
X66510000Y-65600000D02*
X66510000Y-66510000D01*
D37*
X66510000Y-63820000D02*
X66500000Y-63830000D01*
D36*
%TO.N,+3.3V*%
X101760000Y-77700000D02*
X95800000Y-77700000D01*
X95800000Y-77700000D02*
X100300000Y-77700000D01*
X104200000Y-77700000D02*
X108300000Y-77700000D01*
X107563604Y-79290000D02*
X107563604Y-78436396D01*
X125763604Y-78863604D02*
X124600000Y-77700000D01*
X99463604Y-79290000D02*
X100300000Y-78453604D01*
X114300000Y-77700000D02*
X118200000Y-77700000D01*
X118200000Y-77700000D02*
X122200000Y-77700000D01*
X113613604Y-78386396D02*
X114300000Y-77700000D01*
X122200000Y-77700000D02*
X124600000Y-77700000D01*
D37*
X98918636Y-79290000D02*
X99463604Y-79290000D01*
X95413604Y-78086396D02*
X95800000Y-77700000D01*
D36*
X125763604Y-79290000D02*
X125763604Y-78863604D01*
X103700000Y-77700000D02*
X104200000Y-77700000D01*
X117663604Y-79290000D02*
X117663604Y-78236396D01*
X100300000Y-78453604D02*
X100300000Y-77700000D01*
X121713604Y-78186396D02*
X122200000Y-77700000D01*
X117663604Y-78236396D02*
X118200000Y-77700000D01*
X100300000Y-77700000D02*
X103700000Y-77700000D01*
X113613604Y-79290000D02*
X113613604Y-78386396D01*
X121713604Y-79290000D02*
X121713604Y-78186396D01*
X103513604Y-79290000D02*
X103513604Y-78386396D01*
X108300000Y-77700000D02*
X114300000Y-77700000D01*
X107563604Y-78436396D02*
X108300000Y-77700000D01*
X107496396Y-104603604D02*
X106900000Y-105200000D01*
X107496396Y-100500000D02*
X107496396Y-104603604D01*
X95413604Y-79290000D02*
X95413604Y-78086396D01*
X103513604Y-78386396D02*
X104200000Y-77700000D01*
%TO.N,Net-(D2-K)*%
X60100000Y-58600000D02*
X60100000Y-70600000D01*
X62500000Y-56200000D02*
X60100000Y-58600000D01*
D37*
X61560000Y-72060000D02*
X61600000Y-72060000D01*
D36*
X62760000Y-72060000D02*
X61600000Y-72060000D01*
X66600000Y-75900000D02*
X62760000Y-72060000D01*
X60100000Y-70600000D02*
X61560000Y-72060000D01*
X61600000Y-72060000D02*
X57100000Y-72060000D01*
X66600000Y-78860000D02*
X66600000Y-75900000D01*
%TO.N,Net-(D2-A)*%
X69140000Y-73940000D02*
X67260000Y-72060000D01*
D37*
X69260000Y-78740000D02*
X69140000Y-78860000D01*
D36*
X69140000Y-78860000D02*
X69140000Y-73940000D01*
%TO.N,Pin_0*%
X125763604Y-87000000D02*
X129736396Y-90972792D01*
D37*
X125763604Y-86910000D02*
X125763604Y-87000000D01*
D36*
X129736396Y-90972792D02*
X129736396Y-93000000D01*
%TO.N,Pin_1*%
X121713604Y-86910000D02*
X122573604Y-86910000D01*
X127196396Y-91532792D02*
X127196396Y-93000000D01*
X122573604Y-86910000D02*
X127196396Y-91532792D01*
%TO.N,Pin_2*%
X118973604Y-86910000D02*
X124656396Y-92592792D01*
X117663604Y-86910000D02*
X118973604Y-86910000D01*
D37*
X124656396Y-92592792D02*
X124656396Y-93000000D01*
D36*
%TO.N,Pin_3*%
X122116396Y-93000000D02*
X118516396Y-89400000D01*
X118516396Y-89400000D02*
X117463604Y-89400000D01*
D37*
X122116396Y-93000000D02*
X122116396Y-92760000D01*
D36*
X117463604Y-89400000D02*
X114973604Y-86910000D01*
X114973604Y-86910000D02*
X113613604Y-86910000D01*
D37*
%TO.N,Pin_4*%
X119576396Y-93000000D02*
X119576396Y-92812792D01*
X94796396Y-92880000D02*
X98147386Y-96230990D01*
X98147386Y-96230990D02*
X116345406Y-96230990D01*
X116345406Y-96230990D02*
X119576396Y-93000000D01*
D36*
%TO.N,Pin_5*%
X97336396Y-87727208D02*
X98153604Y-86910000D01*
X98153604Y-86910000D02*
X99463604Y-86910000D01*
X97336396Y-92880000D02*
X97336396Y-87727208D01*
%TO.N,Pin_6*%
X99876396Y-92880000D02*
X99876396Y-89287208D01*
X102253604Y-86910000D02*
X103513604Y-86910000D01*
X99876396Y-89287208D02*
X102253604Y-86910000D01*
%TO.N,Pin_7*%
X102416396Y-90847208D02*
X102416396Y-92880000D01*
X106353604Y-86910000D02*
X102416396Y-90847208D01*
X107563604Y-86910000D02*
X106353604Y-86910000D01*
D38*
%TO.N,BATERIA*%
X55000000Y-89460000D02*
X52560000Y-91900000D01*
X55000000Y-83685000D02*
X55000000Y-89460000D01*
D36*
%TO.N,PLANTA_ON*%
X65990000Y-99520000D02*
X68170000Y-99520000D01*
%TO.N,PLANTA_IGN*%
X60550000Y-102060000D02*
X52560000Y-102060000D01*
%TO.N,Net-(J1-Pin_2)*%
X62800000Y-74600000D02*
X58400000Y-74600000D01*
X64060000Y-75860000D02*
X62800000Y-74600000D01*
X57700000Y-75300000D02*
X58400000Y-74600000D01*
X64060000Y-78860000D02*
X64060000Y-75860000D01*
X57700000Y-77260000D02*
X57700000Y-75300000D01*
D37*
%TO.N,Pin_0*%
X123536396Y-99200000D02*
X129736396Y-93000000D01*
X103716396Y-99200000D02*
X123536396Y-99200000D01*
X102416396Y-100500000D02*
X103716396Y-99200000D01*
%TO.N,Pin_1*%
X121696396Y-98500000D02*
X127196396Y-93000000D01*
X101876396Y-98500000D02*
X121696396Y-98500000D01*
X99876396Y-100500000D02*
X101876396Y-98500000D01*
%TO.N,Pin_2*%
X100036396Y-97800000D02*
X97336396Y-100500000D01*
X124656396Y-93000000D02*
X124656396Y-93507208D01*
X120363604Y-97800000D02*
X100036396Y-97800000D01*
X124656396Y-93507208D02*
X120363604Y-97800000D01*
D36*
%TO.N,PIN_DATA*%
X86800000Y-99500000D02*
X87800000Y-100500000D01*
X93200000Y-81300000D02*
X86800000Y-87700000D01*
X126700000Y-81300000D02*
X93200000Y-81300000D01*
X128100000Y-79900000D02*
X126700000Y-81300000D01*
X128100000Y-62100000D02*
X128100000Y-79900000D01*
X94700000Y-52940000D02*
X94700000Y-53050000D01*
X92660000Y-50900000D02*
X94700000Y-52940000D01*
X86800000Y-87700000D02*
X86800000Y-99500000D01*
X94700000Y-53050000D02*
X119050000Y-53050000D01*
X87800000Y-100500000D02*
X89716396Y-100500000D01*
X119050000Y-53050000D02*
X128100000Y-62100000D01*
%TD*%
%TA.AperFunction,Conductor*%
%TO.N,GND*%
G36*
X134501257Y-47820185D02*
G01*
X134521899Y-47836819D01*
X135963181Y-49278101D01*
X135996666Y-49339424D01*
X135999500Y-49365782D01*
X135999500Y-107134218D01*
X135979815Y-107201257D01*
X135963181Y-107221899D01*
X132701899Y-110483181D01*
X132640576Y-110516666D01*
X132614218Y-110519500D01*
X131595908Y-110519500D01*
X131585948Y-110516575D01*
X131575645Y-110517833D01*
X131552996Y-110506899D01*
X131528869Y-110499815D01*
X131520401Y-110491164D01*
X131512723Y-110487458D01*
X131500310Y-110470640D01*
X131490185Y-110460297D01*
X131485439Y-110452554D01*
X131484814Y-110450666D01*
X131400716Y-110314320D01*
X131391641Y-110280783D01*
X131382460Y-110247227D01*
X131382513Y-110247046D01*
X131382467Y-110246876D01*
X131383772Y-110242756D01*
X131400901Y-110184426D01*
X131484353Y-110049130D01*
X131484358Y-110049119D01*
X131539505Y-109882697D01*
X131539506Y-109882690D01*
X131549999Y-109779986D01*
X131550000Y-109779973D01*
X131550000Y-109230000D01*
X130215686Y-109230000D01*
X130220080Y-109225606D01*
X130272741Y-109134394D01*
X130300000Y-109032661D01*
X130300000Y-108927339D01*
X130272741Y-108825606D01*
X130220080Y-108734394D01*
X130215686Y-108730000D01*
X131549999Y-108730000D01*
X131549999Y-108180028D01*
X131549998Y-108180013D01*
X131539505Y-108077302D01*
X131484358Y-107910880D01*
X131484356Y-107910875D01*
X131392315Y-107761654D01*
X131268345Y-107637684D01*
X131119124Y-107545643D01*
X131119119Y-107545641D01*
X130952697Y-107490494D01*
X130952690Y-107490493D01*
X130849986Y-107480000D01*
X130150000Y-107480000D01*
X130150000Y-108664314D01*
X130145606Y-108659920D01*
X130054394Y-108607259D01*
X129952661Y-108580000D01*
X129847339Y-108580000D01*
X129745606Y-108607259D01*
X129654394Y-108659920D01*
X129650000Y-108664314D01*
X129650000Y-107480000D01*
X128950028Y-107480000D01*
X128950012Y-107480001D01*
X128847302Y-107490494D01*
X128680880Y-107545641D01*
X128680875Y-107545643D01*
X128531654Y-107637684D01*
X128407684Y-107761654D01*
X128315643Y-107910875D01*
X128315641Y-107910880D01*
X128260494Y-108077302D01*
X128260493Y-108077309D01*
X128250000Y-108180013D01*
X128250000Y-108730000D01*
X129584314Y-108730000D01*
X129579920Y-108734394D01*
X129527259Y-108825606D01*
X129500000Y-108927339D01*
X129500000Y-109032661D01*
X129527259Y-109134394D01*
X129579920Y-109225606D01*
X129584314Y-109230000D01*
X128250001Y-109230000D01*
X128250001Y-109779986D01*
X128260494Y-109882697D01*
X128315641Y-110049119D01*
X128315643Y-110049124D01*
X128399099Y-110184427D01*
X128417539Y-110251820D01*
X128399099Y-110314620D01*
X128315189Y-110450659D01*
X128315185Y-110450668D01*
X128296552Y-110506899D01*
X128260001Y-110617203D01*
X128260001Y-110617204D01*
X128260000Y-110617204D01*
X128249500Y-110719983D01*
X128249500Y-112320001D01*
X128249501Y-112320018D01*
X128260001Y-112422795D01*
X128260001Y-112422797D01*
X128315185Y-112589331D01*
X128315189Y-112589340D01*
X128398805Y-112724904D01*
X128417245Y-112792296D01*
X128398805Y-112855096D01*
X128315189Y-112990659D01*
X128315185Y-112990668D01*
X128297198Y-113044949D01*
X128260001Y-113157203D01*
X128260001Y-113157204D01*
X128260000Y-113157204D01*
X128249500Y-113259983D01*
X128249500Y-114860001D01*
X128249501Y-114860018D01*
X128260000Y-114962796D01*
X128260001Y-114962799D01*
X128315185Y-115129331D01*
X128315189Y-115129340D01*
X128398805Y-115264904D01*
X128402869Y-115279757D01*
X128411470Y-115292532D01*
X128411902Y-115312770D01*
X128417245Y-115332296D01*
X128412654Y-115348010D01*
X128412962Y-115362385D01*
X128399104Y-115394403D01*
X128398990Y-115394796D01*
X128398866Y-115394997D01*
X128315186Y-115530666D01*
X128314559Y-115532555D01*
X128309816Y-115540296D01*
X128288924Y-115559194D01*
X128270313Y-115580337D01*
X128263313Y-115582362D01*
X128258001Y-115587168D01*
X128231584Y-115591544D01*
X128204092Y-115599500D01*
X128065783Y-115599500D01*
X127998744Y-115579815D01*
X127978102Y-115563181D01*
X126484209Y-114069289D01*
X126484206Y-114069285D01*
X126484206Y-114069286D01*
X126477139Y-114062219D01*
X126477139Y-114062218D01*
X126337782Y-113922861D01*
X126337781Y-113922860D01*
X126337780Y-113922859D01*
X126173920Y-113813371D01*
X126173911Y-113813366D01*
X126081854Y-113775235D01*
X126045165Y-113760038D01*
X125991836Y-113737949D01*
X125837115Y-113707173D01*
X125833638Y-113706481D01*
X125833629Y-113706479D01*
X125798542Y-113699500D01*
X125798541Y-113699500D01*
X116865782Y-113699500D01*
X116798743Y-113679815D01*
X116778101Y-113663181D01*
X108378646Y-105263726D01*
X108363436Y-105235872D01*
X108346750Y-105208869D01*
X108346810Y-105205424D01*
X108345161Y-105202403D01*
X108347425Y-105170743D01*
X108347987Y-105139010D01*
X108349994Y-105134812D01*
X108350145Y-105132711D01*
X108363211Y-105107174D01*
X108367030Y-105101460D01*
X108383028Y-105077518D01*
X108436999Y-104947219D01*
X108437002Y-104947213D01*
X108458445Y-104895444D01*
X108458447Y-104895440D01*
X108496896Y-104702145D01*
X108496896Y-104505064D01*
X108496896Y-101375761D01*
X108516581Y-101308722D01*
X108520561Y-101302899D01*
X108608683Y-101181610D01*
X108701616Y-100999219D01*
X108764873Y-100804534D01*
X108796896Y-100602352D01*
X108796896Y-100397648D01*
X108764873Y-100195466D01*
X108764872Y-100195462D01*
X108764872Y-100195461D01*
X108738020Y-100112818D01*
X108736025Y-100042977D01*
X108772106Y-99983144D01*
X108834807Y-99952316D01*
X108855951Y-99950500D01*
X110542396Y-99950500D01*
X110609435Y-99970185D01*
X110655190Y-100022989D01*
X110666396Y-100074500D01*
X110666396Y-100370000D01*
X111523384Y-100370000D01*
X111490471Y-100427007D01*
X111456396Y-100554174D01*
X111456396Y-100685826D01*
X111490471Y-100812993D01*
X111523384Y-100870000D01*
X110666396Y-100870000D01*
X110666396Y-101457844D01*
X110672797Y-101517372D01*
X110672799Y-101517379D01*
X110723041Y-101652086D01*
X110723045Y-101652093D01*
X110809205Y-101767187D01*
X110809208Y-101767190D01*
X110924302Y-101853350D01*
X110924309Y-101853354D01*
X111059016Y-101903596D01*
X111059023Y-101903598D01*
X111118551Y-101909999D01*
X111118568Y-101910000D01*
X111706396Y-101910000D01*
X111706396Y-101053012D01*
X111763403Y-101085925D01*
X111890570Y-101120000D01*
X112022222Y-101120000D01*
X112149389Y-101085925D01*
X112206396Y-101053012D01*
X112206396Y-101910000D01*
X112794224Y-101910000D01*
X112794240Y-101909999D01*
X112853768Y-101903598D01*
X112853775Y-101903596D01*
X112988482Y-101853354D01*
X112988489Y-101853350D01*
X113103583Y-101767190D01*
X113103586Y-101767187D01*
X113189746Y-101652093D01*
X113189750Y-101652086D01*
X113206010Y-101608491D01*
X113249969Y-101429366D01*
X113260292Y-101411594D01*
X113266081Y-101391881D01*
X113277484Y-101382000D01*
X113285065Y-101368950D01*
X113303356Y-101359581D01*
X113318885Y-101346126D01*
X113335287Y-101343226D01*
X113347252Y-101337099D01*
X113361850Y-101338532D01*
X113380126Y-101335302D01*
X113424081Y-101338761D01*
X114013433Y-100749408D01*
X114030471Y-100812993D01*
X114096297Y-100927007D01*
X114189389Y-101020099D01*
X114303403Y-101085925D01*
X114366986Y-101102962D01*
X113777632Y-101692314D01*
X113820289Y-101723307D01*
X114001203Y-101815488D01*
X114194319Y-101878236D01*
X114394866Y-101910000D01*
X114597926Y-101910000D01*
X114798472Y-101878236D01*
X114991588Y-101815488D01*
X115172502Y-101723306D01*
X115215157Y-101692315D01*
X115215157Y-101692314D01*
X114625805Y-101102962D01*
X114689389Y-101085925D01*
X114803403Y-101020099D01*
X114896495Y-100927007D01*
X114962321Y-100812993D01*
X114979358Y-100749409D01*
X115568710Y-101338761D01*
X115568711Y-101338761D01*
X115599702Y-101296107D01*
X115655911Y-101185792D01*
X115703885Y-101134996D01*
X115771706Y-101118201D01*
X115837841Y-101140738D01*
X115876881Y-101185792D01*
X115933089Y-101296107D01*
X115964080Y-101338761D01*
X115964080Y-101338762D01*
X116553433Y-100749408D01*
X116570471Y-100812993D01*
X116636297Y-100927007D01*
X116729389Y-101020099D01*
X116843403Y-101085925D01*
X116906986Y-101102962D01*
X116317632Y-101692314D01*
X116360289Y-101723307D01*
X116541203Y-101815488D01*
X116734319Y-101878236D01*
X116934866Y-101910000D01*
X117137926Y-101910000D01*
X117338472Y-101878236D01*
X117531588Y-101815488D01*
X117712502Y-101723306D01*
X117755157Y-101692315D01*
X117755157Y-101692314D01*
X117165805Y-101102962D01*
X117229389Y-101085925D01*
X117343403Y-101020099D01*
X117436495Y-100927007D01*
X117502321Y-100812993D01*
X117519358Y-100749409D01*
X118108710Y-101338761D01*
X118108711Y-101338761D01*
X118139702Y-101296107D01*
X118195911Y-101185792D01*
X118243885Y-101134996D01*
X118311706Y-101118201D01*
X118377841Y-101140738D01*
X118416881Y-101185792D01*
X118473089Y-101296107D01*
X118504080Y-101338761D01*
X118504080Y-101338762D01*
X119093433Y-100749408D01*
X119110471Y-100812993D01*
X119176297Y-100927007D01*
X119269389Y-101020099D01*
X119383403Y-101085925D01*
X119446986Y-101102962D01*
X118857632Y-101692314D01*
X118900289Y-101723307D01*
X119081203Y-101815488D01*
X119274319Y-101878236D01*
X119474866Y-101910000D01*
X119677926Y-101910000D01*
X119878472Y-101878236D01*
X120071588Y-101815488D01*
X120252502Y-101723306D01*
X120295157Y-101692315D01*
X120295157Y-101692314D01*
X119705805Y-101102962D01*
X119769389Y-101085925D01*
X119883403Y-101020099D01*
X119976495Y-100927007D01*
X120042321Y-100812993D01*
X120059358Y-100749409D01*
X120648710Y-101338761D01*
X120648711Y-101338761D01*
X120679702Y-101296107D01*
X120735911Y-101185792D01*
X120783885Y-101134996D01*
X120851706Y-101118201D01*
X120917841Y-101140738D01*
X120956881Y-101185792D01*
X121013089Y-101296107D01*
X121044080Y-101338761D01*
X121044080Y-101338762D01*
X121633433Y-100749408D01*
X121650471Y-100812993D01*
X121716297Y-100927007D01*
X121809389Y-101020099D01*
X121923403Y-101085925D01*
X121986986Y-101102962D01*
X121397632Y-101692314D01*
X121440289Y-101723307D01*
X121621203Y-101815488D01*
X121814319Y-101878236D01*
X122014866Y-101910000D01*
X122217926Y-101910000D01*
X122418472Y-101878236D01*
X122611588Y-101815488D01*
X122792502Y-101723306D01*
X122835157Y-101692315D01*
X122835157Y-101692314D01*
X122245805Y-101102962D01*
X122309389Y-101085925D01*
X122423403Y-101020099D01*
X122516495Y-100927007D01*
X122582321Y-100812993D01*
X122599358Y-100749409D01*
X123188710Y-101338761D01*
X123188711Y-101338761D01*
X123219702Y-101296107D01*
X123275911Y-101185792D01*
X123323885Y-101134996D01*
X123391706Y-101118201D01*
X123457841Y-101140738D01*
X123496881Y-101185792D01*
X123553089Y-101296107D01*
X123584080Y-101338761D01*
X123584080Y-101338762D01*
X124173433Y-100749408D01*
X124190471Y-100812993D01*
X124256297Y-100927007D01*
X124349389Y-101020099D01*
X124463403Y-101085925D01*
X124526986Y-101102962D01*
X123937632Y-101692314D01*
X123980289Y-101723307D01*
X124161203Y-101815488D01*
X124354319Y-101878236D01*
X124554866Y-101910000D01*
X124757926Y-101910000D01*
X124958472Y-101878236D01*
X125151588Y-101815488D01*
X125332502Y-101723306D01*
X125375157Y-101692315D01*
X125375157Y-101692314D01*
X124785805Y-101102962D01*
X124849389Y-101085925D01*
X124963403Y-101020099D01*
X125056495Y-100927007D01*
X125122321Y-100812993D01*
X125139358Y-100749409D01*
X125728710Y-101338761D01*
X125728711Y-101338761D01*
X125759702Y-101296107D01*
X125815911Y-101185792D01*
X125863885Y-101134996D01*
X125931706Y-101118201D01*
X125997841Y-101140738D01*
X126036881Y-101185792D01*
X126093089Y-101296107D01*
X126124080Y-101338761D01*
X126124080Y-101338762D01*
X126713433Y-100749409D01*
X126730471Y-100812993D01*
X126796297Y-100927007D01*
X126889389Y-101020099D01*
X127003403Y-101085925D01*
X127066986Y-101102962D01*
X126477632Y-101692314D01*
X126520289Y-101723307D01*
X126701203Y-101815488D01*
X126894319Y-101878236D01*
X127094866Y-101910000D01*
X127297926Y-101910000D01*
X127498472Y-101878236D01*
X127691588Y-101815488D01*
X127872502Y-101723306D01*
X127915157Y-101692315D01*
X127915157Y-101692314D01*
X127325805Y-101102962D01*
X127389389Y-101085925D01*
X127503403Y-101020099D01*
X127596495Y-100927007D01*
X127662321Y-100812993D01*
X127679358Y-100749409D01*
X128268710Y-101338761D01*
X128268711Y-101338761D01*
X128299702Y-101296107D01*
X128355911Y-101185792D01*
X128403885Y-101134996D01*
X128471706Y-101118201D01*
X128537841Y-101140738D01*
X128576881Y-101185792D01*
X128633089Y-101296107D01*
X128664080Y-101338761D01*
X128664080Y-101338762D01*
X129253433Y-100749409D01*
X129270471Y-100812993D01*
X129336297Y-100927007D01*
X129429389Y-101020099D01*
X129543403Y-101085925D01*
X129606986Y-101102962D01*
X129017632Y-101692314D01*
X129060289Y-101723307D01*
X129241203Y-101815488D01*
X129434319Y-101878236D01*
X129634866Y-101910000D01*
X129837926Y-101910000D01*
X130038472Y-101878236D01*
X130231588Y-101815488D01*
X130412502Y-101723306D01*
X130455157Y-101692315D01*
X130455157Y-101692314D01*
X129865805Y-101102962D01*
X129929389Y-101085925D01*
X130043403Y-101020099D01*
X130136495Y-100927007D01*
X130202321Y-100812993D01*
X130219358Y-100749409D01*
X130808710Y-101338761D01*
X130808711Y-101338761D01*
X130839702Y-101296106D01*
X130931884Y-101115192D01*
X130994632Y-100922076D01*
X131026396Y-100721530D01*
X131026396Y-100518469D01*
X130994632Y-100317923D01*
X130931884Y-100124807D01*
X130839703Y-99943893D01*
X130808710Y-99901237D01*
X130808710Y-99901236D01*
X130219358Y-100490589D01*
X130202321Y-100427007D01*
X130136495Y-100312993D01*
X130043403Y-100219901D01*
X129929389Y-100154075D01*
X129865804Y-100137037D01*
X130455158Y-99547684D01*
X130412503Y-99516693D01*
X130231588Y-99424511D01*
X130038472Y-99361763D01*
X129837926Y-99330000D01*
X129634866Y-99330000D01*
X129434319Y-99361763D01*
X129241203Y-99424511D01*
X129060292Y-99516691D01*
X129017633Y-99547684D01*
X129017633Y-99547685D01*
X129606986Y-100137037D01*
X129543403Y-100154075D01*
X129429389Y-100219901D01*
X129336297Y-100312993D01*
X129270471Y-100427007D01*
X129253433Y-100490590D01*
X128664081Y-99901237D01*
X128664080Y-99901237D01*
X128633087Y-99943896D01*
X128576881Y-100054207D01*
X128528906Y-100105003D01*
X128461085Y-100121798D01*
X128394950Y-100099260D01*
X128355911Y-100054207D01*
X128299703Y-99943893D01*
X128268710Y-99901237D01*
X128268710Y-99901236D01*
X127679358Y-100490589D01*
X127662321Y-100427007D01*
X127596495Y-100312993D01*
X127503403Y-100219901D01*
X127389389Y-100154075D01*
X127325804Y-100137037D01*
X127915158Y-99547684D01*
X127872503Y-99516693D01*
X127691588Y-99424511D01*
X127498472Y-99361763D01*
X127297926Y-99330000D01*
X127094866Y-99330000D01*
X126894319Y-99361763D01*
X126701203Y-99424511D01*
X126520292Y-99516691D01*
X126477633Y-99547684D01*
X126477633Y-99547685D01*
X127066986Y-100137037D01*
X127003403Y-100154075D01*
X126889389Y-100219901D01*
X126796297Y-100312993D01*
X126730471Y-100427007D01*
X126713433Y-100490590D01*
X126124081Y-99901237D01*
X126124080Y-99901237D01*
X126093087Y-99943896D01*
X126036881Y-100054207D01*
X125988906Y-100105003D01*
X125921085Y-100121798D01*
X125854950Y-100099260D01*
X125815911Y-100054207D01*
X125759703Y-99943893D01*
X125728710Y-99901237D01*
X125728710Y-99901236D01*
X125139358Y-100490589D01*
X125122321Y-100427007D01*
X125056495Y-100312993D01*
X124963403Y-100219901D01*
X124849389Y-100154075D01*
X124785804Y-100137037D01*
X125375158Y-99547684D01*
X125332503Y-99516693D01*
X125151588Y-99424511D01*
X124958472Y-99361763D01*
X124757921Y-99329999D01*
X124757068Y-99329932D01*
X124756763Y-99329815D01*
X124753109Y-99329237D01*
X124753230Y-99328469D01*
X124691782Y-99305042D01*
X124650317Y-99248807D01*
X124645837Y-99179081D01*
X124679125Y-99118637D01*
X129480030Y-94317731D01*
X129541351Y-94284248D01*
X129587107Y-94282941D01*
X129634831Y-94290500D01*
X129837960Y-94290500D01*
X129837961Y-94290500D01*
X130038589Y-94258723D01*
X130038592Y-94258722D01*
X130038593Y-94258722D01*
X130231773Y-94195954D01*
X130231773Y-94195953D01*
X130231776Y-94195953D01*
X130412765Y-94103734D01*
X130577100Y-93984338D01*
X130720734Y-93840704D01*
X130840130Y-93676369D01*
X130932349Y-93495380D01*
X130970153Y-93379031D01*
X130995118Y-93302197D01*
X130995118Y-93302196D01*
X130995119Y-93302193D01*
X131026896Y-93101565D01*
X131026896Y-92898435D01*
X130995119Y-92697807D01*
X130995118Y-92697803D01*
X130995118Y-92697802D01*
X130932350Y-92504622D01*
X130923989Y-92488212D01*
X130840130Y-92323631D01*
X130790444Y-92255244D01*
X130760578Y-92214136D01*
X130737098Y-92148330D01*
X130736896Y-92141251D01*
X130736896Y-90874250D01*
X130736895Y-90874247D01*
X130729916Y-90839163D01*
X130711916Y-90748667D01*
X130698447Y-90680956D01*
X130636195Y-90530666D01*
X130636194Y-90530663D01*
X130623031Y-90498884D01*
X130623024Y-90498871D01*
X130513535Y-90335010D01*
X130453171Y-90274646D01*
X130374178Y-90195653D01*
X130374177Y-90195652D01*
X127100423Y-86921898D01*
X127066938Y-86860575D01*
X127064104Y-86834217D01*
X127064104Y-86807648D01*
X127032081Y-86605465D01*
X126968822Y-86410776D01*
X126898224Y-86272221D01*
X126875891Y-86228390D01*
X126864114Y-86212180D01*
X126853365Y-86197384D01*
X126829886Y-86131577D01*
X126845712Y-86063524D01*
X126895819Y-86014829D01*
X126953684Y-86000500D01*
X127698542Y-86000500D01*
X127734050Y-85993436D01*
X127795188Y-85981275D01*
X127891836Y-85962051D01*
X127977347Y-85926631D01*
X128073914Y-85886632D01*
X128237782Y-85777139D01*
X128377139Y-85637782D01*
X128377139Y-85637780D01*
X128387347Y-85627573D01*
X128387348Y-85627570D01*
X132377139Y-81637782D01*
X132407839Y-81591836D01*
X132486632Y-81473914D01*
X132562051Y-81291835D01*
X132600500Y-81098541D01*
X132600500Y-61501459D01*
X132600500Y-61501456D01*
X132562052Y-61308170D01*
X132562051Y-61308169D01*
X132562051Y-61308165D01*
X132562049Y-61308160D01*
X132486635Y-61126092D01*
X132486628Y-61126079D01*
X132377139Y-60962218D01*
X132377136Y-60962214D01*
X132234686Y-60819764D01*
X132234655Y-60819735D01*
X124237864Y-52822944D01*
X127195873Y-52822944D01*
X127195873Y-53177055D01*
X127230581Y-53529472D01*
X127299662Y-53876769D01*
X127299663Y-53876775D01*
X127402464Y-54215662D01*
X127537979Y-54542823D01*
X127537981Y-54542828D01*
X127704902Y-54855114D01*
X127704913Y-54855132D01*
X127901650Y-55149570D01*
X128126301Y-55423308D01*
X128376691Y-55673698D01*
X128650429Y-55898349D01*
X128650435Y-55898353D01*
X128944874Y-56095091D01*
X128944883Y-56095096D01*
X128944885Y-56095097D01*
X129257171Y-56262018D01*
X129257173Y-56262018D01*
X129257179Y-56262022D01*
X129584342Y-56397537D01*
X129923212Y-56500333D01*
X129923218Y-56500334D01*
X129923224Y-56500336D01*
X129923230Y-56500337D01*
X130270527Y-56569418D01*
X130622941Y-56604127D01*
X130622944Y-56604127D01*
X130977056Y-56604127D01*
X130977059Y-56604127D01*
X131329473Y-56569418D01*
X131494112Y-56536669D01*
X131676769Y-56500337D01*
X131676775Y-56500336D01*
X131676778Y-56500334D01*
X131676788Y-56500333D01*
X132015658Y-56397537D01*
X132342821Y-56262022D01*
X132655126Y-56095091D01*
X132949565Y-55898353D01*
X132953081Y-55895468D01*
X132977868Y-55875125D01*
X133223303Y-55673703D01*
X133473703Y-55423303D01*
X133698353Y-55149565D01*
X133895091Y-54855126D01*
X134062022Y-54542821D01*
X134197537Y-54215658D01*
X134300333Y-53876788D01*
X134369418Y-53529473D01*
X134404127Y-53177059D01*
X134404127Y-52822941D01*
X134369418Y-52470527D01*
X134328738Y-52266014D01*
X134300337Y-52123230D01*
X134300336Y-52123224D01*
X134300334Y-52123218D01*
X134300333Y-52123212D01*
X134197537Y-51784342D01*
X134062022Y-51457179D01*
X134051558Y-51437603D01*
X133895097Y-51144885D01*
X133895096Y-51144883D01*
X133895091Y-51144874D01*
X133698353Y-50850435D01*
X133698349Y-50850429D01*
X133473698Y-50576691D01*
X133223308Y-50326301D01*
X132949570Y-50101650D01*
X132655132Y-49904913D01*
X132655131Y-49904912D01*
X132655126Y-49904909D01*
X132655121Y-49904906D01*
X132655114Y-49904902D01*
X132342828Y-49737981D01*
X132342823Y-49737979D01*
X132015662Y-49602464D01*
X131676775Y-49499663D01*
X131676769Y-49499662D01*
X131329472Y-49430581D01*
X131044670Y-49402532D01*
X130977059Y-49395873D01*
X130622941Y-49395873D01*
X130555330Y-49402532D01*
X130270527Y-49430581D01*
X129923230Y-49499662D01*
X129923224Y-49499663D01*
X129584337Y-49602464D01*
X129257176Y-49737979D01*
X129257171Y-49737981D01*
X128944885Y-49904902D01*
X128944867Y-49904913D01*
X128650429Y-50101650D01*
X128376691Y-50326301D01*
X128126301Y-50576691D01*
X127901650Y-50850429D01*
X127704913Y-51144867D01*
X127704902Y-51144885D01*
X127537981Y-51457171D01*
X127537979Y-51457176D01*
X127402464Y-51784337D01*
X127299663Y-52123224D01*
X127299662Y-52123230D01*
X127230581Y-52470527D01*
X127218429Y-52593920D01*
X127202291Y-52757782D01*
X127195873Y-52822944D01*
X124237864Y-52822944D01*
X119781479Y-48366559D01*
X119781459Y-48366537D01*
X119637785Y-48222863D01*
X119637781Y-48222860D01*
X119473920Y-48113371D01*
X119473911Y-48113366D01*
X119390683Y-48078892D01*
X119345165Y-48060038D01*
X119294521Y-48039061D01*
X119240118Y-47995220D01*
X119218053Y-47928926D01*
X119235332Y-47861227D01*
X119286469Y-47813616D01*
X119341974Y-47800500D01*
X134434218Y-47800500D01*
X134501257Y-47820185D01*
G37*
%TD.AperFunction*%
%TA.AperFunction,Conductor*%
G36*
X104556396Y-100552661D02*
G01*
X104583655Y-100654394D01*
X104636316Y-100745606D01*
X104710790Y-100820080D01*
X104802002Y-100872741D01*
X104903735Y-100900000D01*
X104909949Y-100900000D01*
X104230472Y-101579474D01*
X104275046Y-101611859D01*
X104457364Y-101704755D01*
X104651978Y-101767990D01*
X104854079Y-101800000D01*
X105058713Y-101800000D01*
X105260813Y-101767990D01*
X105455427Y-101704755D01*
X105637745Y-101611859D01*
X105682317Y-101579474D01*
X105002843Y-100900000D01*
X105009057Y-100900000D01*
X105110790Y-100872741D01*
X105202002Y-100820080D01*
X105276476Y-100745606D01*
X105329137Y-100654394D01*
X105356396Y-100552661D01*
X105356396Y-100546447D01*
X106035870Y-101225921D01*
X106068257Y-101181347D01*
X106068257Y-101181346D01*
X106115630Y-101088371D01*
X106163604Y-101037575D01*
X106231424Y-101020779D01*
X106297560Y-101043316D01*
X106336599Y-101088369D01*
X106383981Y-101181359D01*
X106384109Y-101181610D01*
X106472215Y-101302877D01*
X106495694Y-101368681D01*
X106495896Y-101375761D01*
X106495896Y-104075500D01*
X106476211Y-104142539D01*
X106423407Y-104188294D01*
X106371896Y-104199500D01*
X104024500Y-104199500D01*
X103957461Y-104179815D01*
X103911706Y-104127011D01*
X103900500Y-104075500D01*
X103900500Y-103801456D01*
X103900499Y-103801454D01*
X103862053Y-103608174D01*
X103862052Y-103608171D01*
X103862051Y-103608165D01*
X103858992Y-103600781D01*
X103801598Y-103462218D01*
X103786632Y-103426086D01*
X103721412Y-103328477D01*
X103677139Y-103262217D01*
X103534686Y-103119764D01*
X103534655Y-103119735D01*
X102581648Y-102166728D01*
X102577141Y-102162221D01*
X102577139Y-102162218D01*
X102437782Y-102022861D01*
X102433803Y-102020202D01*
X102426105Y-102012573D01*
X102411921Y-101986872D01*
X102395392Y-101962605D01*
X102395232Y-101956632D01*
X102392345Y-101951401D01*
X102394308Y-101922106D01*
X102393523Y-101892761D01*
X102396617Y-101887650D01*
X102397017Y-101881688D01*
X102414505Y-101858105D01*
X102429711Y-101832993D01*
X102435077Y-101830366D01*
X102438637Y-101825567D01*
X102466097Y-101815184D01*
X102492468Y-101802278D01*
X102502484Y-101801426D01*
X102503992Y-101800857D01*
X102505475Y-101801172D01*
X102513392Y-101800500D01*
X102518747Y-101800500D01*
X102518748Y-101800500D01*
X102720930Y-101768477D01*
X102915615Y-101705220D01*
X103098006Y-101612287D01*
X103228637Y-101517379D01*
X103263609Y-101491971D01*
X103263611Y-101491968D01*
X103263615Y-101491966D01*
X103408362Y-101347219D01*
X103408364Y-101347215D01*
X103408367Y-101347213D01*
X103506036Y-101212781D01*
X103528683Y-101181610D01*
X103576191Y-101088369D01*
X103624165Y-101037573D01*
X103691986Y-101020778D01*
X103758121Y-101043315D01*
X103797161Y-101088369D01*
X103844537Y-101181350D01*
X103844543Y-101181359D01*
X103876919Y-101225921D01*
X103876920Y-101225922D01*
X104556396Y-100546446D01*
X104556396Y-100552661D01*
G37*
%TD.AperFunction*%
%TA.AperFunction,Conductor*%
G36*
X110008118Y-82306816D02*
G01*
X110030477Y-82308519D01*
X110040997Y-82316470D01*
X110053647Y-82320185D01*
X110068326Y-82337126D01*
X110086217Y-82350648D01*
X110090768Y-82363025D01*
X110099402Y-82372989D01*
X110102592Y-82395178D01*
X110110332Y-82416225D01*
X110107469Y-82429096D01*
X110109346Y-82442147D01*
X110100032Y-82462541D01*
X110095165Y-82484428D01*
X110082207Y-82501572D01*
X110080321Y-82505703D01*
X110075643Y-82510257D01*
X110073884Y-82512585D01*
X110066193Y-82520204D01*
X110062218Y-82522861D01*
X109922861Y-82662218D01*
X109922858Y-82662221D01*
X109922672Y-82662406D01*
X109922564Y-82662514D01*
X109421898Y-83163181D01*
X108962221Y-83622858D01*
X108962218Y-83622861D01*
X108900080Y-83684999D01*
X108822859Y-83762219D01*
X108713369Y-83926082D01*
X108673036Y-84023456D01*
X108670774Y-84028918D01*
X108637949Y-84108164D01*
X108622341Y-84186631D01*
X108621116Y-84192786D01*
X108621114Y-84192795D01*
X108599500Y-84301456D01*
X108599500Y-85811751D01*
X108579815Y-85878790D01*
X108527011Y-85924545D01*
X108457853Y-85934489D01*
X108402615Y-85912070D01*
X108245213Y-85797712D01*
X108062827Y-85704781D01*
X107868138Y-85641522D01*
X107693599Y-85613878D01*
X107665956Y-85609500D01*
X107461252Y-85609500D01*
X107436933Y-85613351D01*
X107259069Y-85641522D01*
X107064380Y-85704781D01*
X106881990Y-85797715D01*
X106760727Y-85885818D01*
X106694921Y-85909298D01*
X106687842Y-85909500D01*
X106255061Y-85909500D01*
X106171804Y-85926061D01*
X106171793Y-85926063D01*
X106168941Y-85926631D01*
X106061768Y-85947949D01*
X106037472Y-85958013D01*
X106028918Y-85961555D01*
X106028910Y-85961558D01*
X105879692Y-86023366D01*
X105879683Y-86023371D01*
X105715823Y-86132859D01*
X105680929Y-86167754D01*
X105576465Y-86272218D01*
X105576462Y-86272221D01*
X105017215Y-86831467D01*
X104955892Y-86864952D01*
X104886200Y-86859968D01*
X104830267Y-86818096D01*
X104807061Y-86763184D01*
X104782081Y-86605466D01*
X104718824Y-86410781D01*
X104718822Y-86410778D01*
X104718822Y-86410776D01*
X104678023Y-86330705D01*
X104625891Y-86228390D01*
X104602953Y-86196818D01*
X104505575Y-86062786D01*
X104360817Y-85918028D01*
X104195217Y-85797715D01*
X104195216Y-85797714D01*
X104195214Y-85797713D01*
X104138257Y-85768691D01*
X104012827Y-85704781D01*
X103818138Y-85641522D01*
X103643599Y-85613878D01*
X103615956Y-85609500D01*
X103411252Y-85609500D01*
X103386933Y-85613351D01*
X103209069Y-85641522D01*
X103014380Y-85704781D01*
X102831990Y-85797715D01*
X102710727Y-85885818D01*
X102644921Y-85909298D01*
X102637842Y-85909500D01*
X102155061Y-85909500D01*
X102071804Y-85926061D01*
X102071793Y-85926063D01*
X102068941Y-85926631D01*
X101961768Y-85947949D01*
X101937472Y-85958013D01*
X101928918Y-85961555D01*
X101928910Y-85961558D01*
X101779692Y-86023366D01*
X101779683Y-86023371D01*
X101615823Y-86132859D01*
X101580929Y-86167754D01*
X101476465Y-86272218D01*
X100960379Y-86788304D01*
X100899056Y-86821789D01*
X100829364Y-86816805D01*
X100773431Y-86774933D01*
X100750225Y-86720021D01*
X100732081Y-86605465D01*
X100668822Y-86410776D01*
X100628023Y-86330705D01*
X100575891Y-86228390D01*
X100552953Y-86196818D01*
X100455575Y-86062786D01*
X100310817Y-85918028D01*
X100145217Y-85797715D01*
X100145216Y-85797714D01*
X100145214Y-85797713D01*
X100088257Y-85768691D01*
X99962827Y-85704781D01*
X99768138Y-85641522D01*
X99593599Y-85613878D01*
X99565956Y-85609500D01*
X99361252Y-85609500D01*
X99336933Y-85613351D01*
X99159069Y-85641522D01*
X98964380Y-85704781D01*
X98781990Y-85797715D01*
X98660727Y-85885818D01*
X98594921Y-85909298D01*
X98587842Y-85909500D01*
X98055058Y-85909500D01*
X98022995Y-85915876D01*
X98022996Y-85915877D01*
X97861774Y-85947946D01*
X97861768Y-85947948D01*
X97679692Y-86023366D01*
X97679683Y-86023371D01*
X97515823Y-86132859D01*
X97515819Y-86132862D01*
X96903542Y-86745140D01*
X96842219Y-86778625D01*
X96772527Y-86773641D01*
X96716594Y-86731769D01*
X96693388Y-86676856D01*
X96690643Y-86659527D01*
X96682081Y-86605466D01*
X96682080Y-86605464D01*
X96618822Y-86410776D01*
X96578023Y-86330705D01*
X96525891Y-86228390D01*
X96502953Y-86196818D01*
X96405575Y-86062786D01*
X96260817Y-85918028D01*
X96095217Y-85797715D01*
X96095216Y-85797714D01*
X96095214Y-85797713D01*
X96038257Y-85768691D01*
X95912827Y-85704781D01*
X95718138Y-85641522D01*
X95543599Y-85613878D01*
X95515956Y-85609500D01*
X95311252Y-85609500D01*
X95286933Y-85613351D01*
X95109069Y-85641522D01*
X94914380Y-85704781D01*
X94731990Y-85797715D01*
X94566390Y-85918028D01*
X94421632Y-86062786D01*
X94301319Y-86228386D01*
X94208385Y-86410778D01*
X94145126Y-86605468D01*
X94121677Y-86753513D01*
X94091747Y-86816648D01*
X94086887Y-86821793D01*
X94019258Y-86889423D01*
X94019254Y-86889429D01*
X93909767Y-87053288D01*
X93909760Y-87053301D01*
X93866326Y-87158163D01*
X93866326Y-87158164D01*
X93834345Y-87235371D01*
X93834343Y-87235377D01*
X93826592Y-87274346D01*
X93795896Y-87428662D01*
X93795896Y-92004237D01*
X93776211Y-92071276D01*
X93772214Y-92077122D01*
X93684111Y-92198386D01*
X93636881Y-92291080D01*
X93588906Y-92341876D01*
X93521085Y-92358671D01*
X93454950Y-92336134D01*
X93415911Y-92291080D01*
X93415279Y-92289840D01*
X93368683Y-92198390D01*
X93353331Y-92177259D01*
X93248367Y-92032786D01*
X93103609Y-91888028D01*
X92938009Y-91767715D01*
X92938008Y-91767714D01*
X92938006Y-91767713D01*
X92875548Y-91735889D01*
X92755619Y-91674781D01*
X92560930Y-91611522D01*
X92373086Y-91581771D01*
X92358748Y-91579500D01*
X92154044Y-91579500D01*
X92139706Y-91581771D01*
X91951861Y-91611522D01*
X91757172Y-91674781D01*
X91574782Y-91767715D01*
X91409182Y-91888028D01*
X91264424Y-92032786D01*
X91144109Y-92198388D01*
X91096599Y-92291630D01*
X91048624Y-92342426D01*
X90980803Y-92359220D01*
X90914668Y-92336682D01*
X90875630Y-92291628D01*
X90828257Y-92198652D01*
X90795870Y-92154077D01*
X90795870Y-92154076D01*
X90116396Y-92833551D01*
X90116396Y-92827339D01*
X90089137Y-92725606D01*
X90036476Y-92634394D01*
X89962002Y-92559920D01*
X89870790Y-92507259D01*
X89769057Y-92480000D01*
X89762842Y-92480000D01*
X90442318Y-91800524D01*
X90442317Y-91800523D01*
X90397755Y-91768147D01*
X90397746Y-91768141D01*
X90215427Y-91675244D01*
X90020813Y-91612009D01*
X89818713Y-91580000D01*
X89614079Y-91580000D01*
X89411978Y-91612009D01*
X89217364Y-91675244D01*
X89035040Y-91768143D01*
X88990473Y-91800523D01*
X88990473Y-91800524D01*
X89669950Y-92480000D01*
X89663735Y-92480000D01*
X89562002Y-92507259D01*
X89470790Y-92559920D01*
X89396316Y-92634394D01*
X89343655Y-92725606D01*
X89316396Y-92827339D01*
X89316396Y-92833553D01*
X88636920Y-92154077D01*
X88636919Y-92154077D01*
X88604539Y-92198644D01*
X88511640Y-92380968D01*
X88448405Y-92575582D01*
X88416396Y-92777682D01*
X88416396Y-92982317D01*
X88448405Y-93184417D01*
X88511640Y-93379031D01*
X88604537Y-93561350D01*
X88604543Y-93561359D01*
X88636919Y-93605921D01*
X88636920Y-93605922D01*
X89316396Y-92926446D01*
X89316396Y-92932661D01*
X89343655Y-93034394D01*
X89396316Y-93125606D01*
X89470790Y-93200080D01*
X89562002Y-93252741D01*
X89663735Y-93280000D01*
X89669949Y-93280000D01*
X88990472Y-93959474D01*
X89035046Y-93991859D01*
X89217364Y-94084755D01*
X89411978Y-94147990D01*
X89614079Y-94180000D01*
X89818713Y-94180000D01*
X90020813Y-94147990D01*
X90215427Y-94084755D01*
X90397745Y-93991859D01*
X90442317Y-93959474D01*
X89762843Y-93280000D01*
X89769057Y-93280000D01*
X89870790Y-93252741D01*
X89962002Y-93200080D01*
X90036476Y-93125606D01*
X90089137Y-93034394D01*
X90116396Y-92932661D01*
X90116396Y-92926447D01*
X90795870Y-93605921D01*
X90828257Y-93561347D01*
X90828257Y-93561346D01*
X90875630Y-93468371D01*
X90923604Y-93417575D01*
X90991424Y-93400779D01*
X91057560Y-93423316D01*
X91096599Y-93468369D01*
X91144109Y-93561611D01*
X91264424Y-93727213D01*
X91409182Y-93871971D01*
X91529622Y-93959474D01*
X91574786Y-93992287D01*
X91682439Y-94047139D01*
X91757172Y-94085218D01*
X91757174Y-94085218D01*
X91757177Y-94085220D01*
X91861533Y-94119127D01*
X91951861Y-94148477D01*
X92035960Y-94161797D01*
X92154044Y-94180500D01*
X92154045Y-94180500D01*
X92358747Y-94180500D01*
X92358748Y-94180500D01*
X92560930Y-94148477D01*
X92755615Y-94085220D01*
X92938006Y-93992287D01*
X93054321Y-93907780D01*
X93103609Y-93871971D01*
X93103611Y-93871968D01*
X93103615Y-93871966D01*
X93248362Y-93727219D01*
X93248364Y-93727215D01*
X93248367Y-93727213D01*
X93368680Y-93561614D01*
X93368682Y-93561611D01*
X93368683Y-93561610D01*
X93415912Y-93468917D01*
X93463885Y-93418123D01*
X93531706Y-93401328D01*
X93597841Y-93423865D01*
X93636881Y-93468919D01*
X93684111Y-93561614D01*
X93804424Y-93727213D01*
X93949182Y-93871971D01*
X94069622Y-93959474D01*
X94114786Y-93992287D01*
X94222439Y-94047139D01*
X94297172Y-94085218D01*
X94297174Y-94085218D01*
X94297177Y-94085220D01*
X94401533Y-94119127D01*
X94491861Y-94148477D01*
X94575960Y-94161797D01*
X94694044Y-94180500D01*
X94694045Y-94180500D01*
X94898746Y-94180500D01*
X94898748Y-94180500D01*
X94954423Y-94171681D01*
X95023715Y-94180635D01*
X95061502Y-94206473D01*
X97259149Y-96404120D01*
X97292634Y-96465443D01*
X97287650Y-96535135D01*
X97259149Y-96579482D01*
X94657286Y-99181344D01*
X94595963Y-99214829D01*
X94589004Y-99216136D01*
X94491864Y-99231522D01*
X94297174Y-99294781D01*
X94114782Y-99387715D01*
X93949182Y-99508028D01*
X93804424Y-99652786D01*
X93684111Y-99818386D01*
X93636881Y-99911080D01*
X93588906Y-99961876D01*
X93521085Y-99978671D01*
X93454950Y-99956134D01*
X93415911Y-99911080D01*
X93410895Y-99901236D01*
X93368683Y-99818390D01*
X93342936Y-99782952D01*
X93248367Y-99652786D01*
X93103609Y-99508028D01*
X92938009Y-99387715D01*
X92938008Y-99387714D01*
X92938006Y-99387713D01*
X92881049Y-99358691D01*
X92755619Y-99294781D01*
X92560930Y-99231522D01*
X92386391Y-99203878D01*
X92358748Y-99199500D01*
X92154044Y-99199500D01*
X92129725Y-99203351D01*
X91951861Y-99231522D01*
X91757172Y-99294781D01*
X91574782Y-99387715D01*
X91409182Y-99508028D01*
X91264424Y-99652786D01*
X91144111Y-99818386D01*
X91096881Y-99911080D01*
X91048906Y-99961876D01*
X90981085Y-99978671D01*
X90914950Y-99956134D01*
X90875911Y-99911080D01*
X90870895Y-99901236D01*
X90828683Y-99818390D01*
X90802936Y-99782952D01*
X90708367Y-99652786D01*
X90563609Y-99508028D01*
X90398009Y-99387715D01*
X90398008Y-99387714D01*
X90398006Y-99387713D01*
X90341049Y-99358691D01*
X90215619Y-99294781D01*
X90020930Y-99231522D01*
X89846391Y-99203878D01*
X89818748Y-99199500D01*
X89614044Y-99199500D01*
X89589725Y-99203351D01*
X89411861Y-99231522D01*
X89217172Y-99294781D01*
X89034782Y-99387715D01*
X88913519Y-99475818D01*
X88847713Y-99499298D01*
X88840634Y-99499500D01*
X88265783Y-99499500D01*
X88198744Y-99479815D01*
X88178102Y-99463181D01*
X87836819Y-99121898D01*
X87803334Y-99060575D01*
X87800500Y-99034217D01*
X87800500Y-88165782D01*
X87820185Y-88098743D01*
X87836819Y-88078101D01*
X93578101Y-82336819D01*
X93639424Y-82303334D01*
X93665782Y-82300500D01*
X109986608Y-82300500D01*
X110008118Y-82306816D01*
G37*
%TD.AperFunction*%
%TA.AperFunction,Conductor*%
G36*
X118651257Y-54070185D02*
G01*
X118671899Y-54086819D01*
X127063181Y-62478101D01*
X127096666Y-62539424D01*
X127099500Y-62565782D01*
X127099500Y-78534528D01*
X127079815Y-78601567D01*
X127027011Y-78647322D01*
X126957853Y-78657266D01*
X126894297Y-78628241D01*
X126875182Y-78607413D01*
X126755575Y-78442786D01*
X126610824Y-78298035D01*
X126586312Y-78280226D01*
X126556096Y-78248799D01*
X126540742Y-78225820D01*
X126540739Y-78225817D01*
X125384209Y-77069289D01*
X125384206Y-77069285D01*
X125384206Y-77069286D01*
X125377139Y-77062219D01*
X125377139Y-77062218D01*
X125237782Y-76922861D01*
X125237781Y-76922860D01*
X125237780Y-76922859D01*
X125073920Y-76813371D01*
X125073911Y-76813366D01*
X124972358Y-76771302D01*
X124945165Y-76760038D01*
X124891836Y-76737949D01*
X124891832Y-76737948D01*
X124891828Y-76737946D01*
X124795188Y-76718724D01*
X124698544Y-76699500D01*
X124698541Y-76699500D01*
X122298541Y-76699500D01*
X118298541Y-76699500D01*
X114398546Y-76699500D01*
X114398541Y-76699499D01*
X114201460Y-76699499D01*
X114201455Y-76699500D01*
X108398541Y-76699500D01*
X106484500Y-76699500D01*
X106417461Y-76679815D01*
X106371706Y-76627011D01*
X106360500Y-76575500D01*
X106360500Y-75131469D01*
X106380185Y-75064430D01*
X106396819Y-75043788D01*
X106428242Y-75012365D01*
X106529991Y-74872317D01*
X106585320Y-74829653D01*
X106654933Y-74823674D01*
X106716729Y-74856279D01*
X106730628Y-74872319D01*
X106748932Y-74897513D01*
X107500000Y-74146445D01*
X107500000Y-74152661D01*
X107527259Y-74254394D01*
X107579920Y-74345606D01*
X107654394Y-74420080D01*
X107745606Y-74472741D01*
X107847339Y-74500000D01*
X107853553Y-74500000D01*
X107102485Y-75251065D01*
X107102485Y-75251066D01*
X107166243Y-75297388D01*
X107362589Y-75397432D01*
X107572164Y-75465526D01*
X107789819Y-75500000D01*
X108010181Y-75500000D01*
X108227835Y-75465526D01*
X108437410Y-75397432D01*
X108633760Y-75297386D01*
X108697513Y-75251066D01*
X108697514Y-75251066D01*
X107946447Y-74500000D01*
X107952661Y-74500000D01*
X108054394Y-74472741D01*
X108145606Y-74420080D01*
X108220080Y-74345606D01*
X108272741Y-74254394D01*
X108300000Y-74152661D01*
X108300000Y-74146448D01*
X109051066Y-74897514D01*
X109051066Y-74897513D01*
X109069372Y-74872319D01*
X109124701Y-74829653D01*
X109194315Y-74823674D01*
X109256110Y-74856279D01*
X109270008Y-74872319D01*
X109371752Y-75012358D01*
X109371756Y-75012363D01*
X109527636Y-75168243D01*
X109527641Y-75168247D01*
X109683192Y-75281260D01*
X109705978Y-75297815D01*
X109834375Y-75363237D01*
X109902393Y-75397895D01*
X109902396Y-75397896D01*
X109989140Y-75426080D01*
X110112049Y-75466015D01*
X110329778Y-75500500D01*
X110329779Y-75500500D01*
X110550221Y-75500500D01*
X110550222Y-75500500D01*
X110767951Y-75466015D01*
X110977606Y-75397895D01*
X111174022Y-75297815D01*
X111352365Y-75168242D01*
X111508242Y-75012365D01*
X111637815Y-74834022D01*
X111737895Y-74637606D01*
X111806015Y-74427951D01*
X111840500Y-74210222D01*
X111840500Y-73989778D01*
X111806015Y-73772049D01*
X111756782Y-73620523D01*
X111737896Y-73562396D01*
X111737895Y-73562393D01*
X111684628Y-73457853D01*
X111637815Y-73365978D01*
X111591491Y-73302218D01*
X111508247Y-73187641D01*
X111508243Y-73187636D01*
X111476819Y-73156212D01*
X111443334Y-73094889D01*
X111440500Y-73068531D01*
X111440500Y-60141456D01*
X111402052Y-59948170D01*
X111402051Y-59948169D01*
X111402051Y-59948165D01*
X111402049Y-59948160D01*
X111326635Y-59766092D01*
X111326628Y-59766079D01*
X111217139Y-59602218D01*
X111217136Y-59602214D01*
X111074686Y-59459764D01*
X111074655Y-59459735D01*
X105877101Y-54262181D01*
X105843616Y-54200858D01*
X105848600Y-54131166D01*
X105890472Y-54075233D01*
X105955936Y-54050816D01*
X105964782Y-54050500D01*
X118584218Y-54050500D01*
X118651257Y-54070185D01*
G37*
%TD.AperFunction*%
%TA.AperFunction,Conductor*%
G36*
X140242539Y-43520185D02*
G01*
X140288294Y-43572989D01*
X140299500Y-43624500D01*
X140299500Y-137375500D01*
X140279815Y-137442539D01*
X140227011Y-137488294D01*
X140175500Y-137499500D01*
X46424500Y-137499500D01*
X46357461Y-137479815D01*
X46311706Y-137427011D01*
X46300500Y-137375500D01*
X46300500Y-127822944D01*
X52195873Y-127822944D01*
X52195873Y-128177055D01*
X52230581Y-128529472D01*
X52299662Y-128876769D01*
X52299663Y-128876775D01*
X52402464Y-129215662D01*
X52537979Y-129542823D01*
X52537981Y-129542828D01*
X52704902Y-129855114D01*
X52704913Y-129855132D01*
X52901650Y-130149570D01*
X53126301Y-130423308D01*
X53376691Y-130673698D01*
X53650429Y-130898349D01*
X53650435Y-130898353D01*
X53944874Y-131095091D01*
X53944883Y-131095096D01*
X53944885Y-131095097D01*
X54257171Y-131262018D01*
X54257173Y-131262018D01*
X54257179Y-131262022D01*
X54584342Y-131397537D01*
X54923212Y-131500333D01*
X54923218Y-131500334D01*
X54923224Y-131500336D01*
X54923230Y-131500337D01*
X55270527Y-131569418D01*
X55622941Y-131604127D01*
X55622944Y-131604127D01*
X55977056Y-131604127D01*
X55977059Y-131604127D01*
X56329473Y-131569418D01*
X56494112Y-131536669D01*
X56676769Y-131500337D01*
X56676775Y-131500336D01*
X56676778Y-131500334D01*
X56676788Y-131500333D01*
X57015658Y-131397537D01*
X57342821Y-131262022D01*
X57655126Y-131095091D01*
X57949565Y-130898353D01*
X58223303Y-130673703D01*
X58473703Y-130423303D01*
X58698353Y-130149565D01*
X58895091Y-129855126D01*
X59062022Y-129542821D01*
X59197537Y-129215658D01*
X59300333Y-128876788D01*
X59369418Y-128529473D01*
X59404127Y-128177059D01*
X59404127Y-127822944D01*
X127292246Y-127822944D01*
X127292246Y-128177055D01*
X127326954Y-128529472D01*
X127396035Y-128876769D01*
X127396036Y-128876775D01*
X127498837Y-129215662D01*
X127634352Y-129542823D01*
X127634354Y-129542828D01*
X127801275Y-129855114D01*
X127801286Y-129855132D01*
X127998023Y-130149570D01*
X128222674Y-130423308D01*
X128473064Y-130673698D01*
X128746802Y-130898349D01*
X128746808Y-130898353D01*
X129041247Y-131095091D01*
X129041256Y-131095096D01*
X129041258Y-131095097D01*
X129353544Y-131262018D01*
X129353546Y-131262018D01*
X129353552Y-131262022D01*
X129680715Y-131397537D01*
X130019585Y-131500333D01*
X130019591Y-131500334D01*
X130019597Y-131500336D01*
X130019603Y-131500337D01*
X130366900Y-131569418D01*
X130719314Y-131604127D01*
X130719317Y-131604127D01*
X131073429Y-131604127D01*
X131073432Y-131604127D01*
X131425846Y-131569418D01*
X131590485Y-131536669D01*
X131773142Y-131500337D01*
X131773148Y-131500336D01*
X131773151Y-131500334D01*
X131773161Y-131500333D01*
X132112031Y-131397537D01*
X132439194Y-131262022D01*
X132751499Y-131095091D01*
X133045938Y-130898353D01*
X133319676Y-130673703D01*
X133570076Y-130423303D01*
X133794726Y-130149565D01*
X133991464Y-129855126D01*
X134158395Y-129542821D01*
X134293910Y-129215658D01*
X134396706Y-128876788D01*
X134465791Y-128529473D01*
X134500500Y-128177059D01*
X134500500Y-127822941D01*
X134465791Y-127470527D01*
X134396710Y-127123230D01*
X134396709Y-127123224D01*
X134396707Y-127123218D01*
X134396706Y-127123212D01*
X134293910Y-126784342D01*
X134158395Y-126457179D01*
X133991464Y-126144874D01*
X133794726Y-125850435D01*
X133794722Y-125850429D01*
X133570071Y-125576691D01*
X133319681Y-125326301D01*
X133045943Y-125101650D01*
X132751505Y-124904913D01*
X132751504Y-124904912D01*
X132751499Y-124904909D01*
X132751494Y-124904906D01*
X132751487Y-124904902D01*
X132439201Y-124737981D01*
X132439196Y-124737979D01*
X132112035Y-124602464D01*
X131773148Y-124499663D01*
X131773142Y-124499662D01*
X131425845Y-124430581D01*
X131160421Y-124404440D01*
X131073432Y-124395873D01*
X130719314Y-124395873D01*
X130638938Y-124403789D01*
X130366900Y-124430581D01*
X130019603Y-124499662D01*
X130019597Y-124499663D01*
X129680710Y-124602464D01*
X129353549Y-124737979D01*
X129353544Y-124737981D01*
X129041258Y-124904902D01*
X129041240Y-124904913D01*
X128746802Y-125101650D01*
X128473064Y-125326301D01*
X128222674Y-125576691D01*
X127998023Y-125850429D01*
X127801286Y-126144867D01*
X127801275Y-126144885D01*
X127634354Y-126457171D01*
X127634352Y-126457176D01*
X127498837Y-126784337D01*
X127396036Y-127123224D01*
X127396035Y-127123230D01*
X127326954Y-127470527D01*
X127292246Y-127822944D01*
X59404127Y-127822944D01*
X59404127Y-127822941D01*
X59369418Y-127470527D01*
X59300337Y-127123230D01*
X59300336Y-127123224D01*
X59300334Y-127123218D01*
X59300333Y-127123212D01*
X59197537Y-126784342D01*
X59062022Y-126457179D01*
X58895091Y-126144874D01*
X58698353Y-125850435D01*
X58698349Y-125850429D01*
X58473698Y-125576691D01*
X58223308Y-125326301D01*
X57949570Y-125101650D01*
X57655132Y-124904913D01*
X57655131Y-124904912D01*
X57655126Y-124904909D01*
X57655121Y-124904906D01*
X57655114Y-124904902D01*
X57342828Y-124737981D01*
X57342823Y-124737979D01*
X57015662Y-124602464D01*
X56676775Y-124499663D01*
X56676769Y-124499662D01*
X56329472Y-124430581D01*
X56064048Y-124404440D01*
X55977059Y-124395873D01*
X55622941Y-124395873D01*
X55542565Y-124403789D01*
X55270527Y-124430581D01*
X54923230Y-124499662D01*
X54923224Y-124499663D01*
X54584337Y-124602464D01*
X54257176Y-124737979D01*
X54257171Y-124737981D01*
X53944885Y-124904902D01*
X53944867Y-124904913D01*
X53650429Y-125101650D01*
X53376691Y-125326301D01*
X53126301Y-125576691D01*
X52901650Y-125850429D01*
X52704913Y-126144867D01*
X52704902Y-126144885D01*
X52537981Y-126457171D01*
X52537979Y-126457176D01*
X52402464Y-126784337D01*
X52299663Y-127123224D01*
X52299662Y-127123230D01*
X52230581Y-127470527D01*
X52195873Y-127822944D01*
X46300500Y-127822944D01*
X46300500Y-108801456D01*
X48299500Y-108801456D01*
X48299500Y-108801459D01*
X48299500Y-120398541D01*
X48300078Y-120401446D01*
X48300079Y-120401460D01*
X48300081Y-120401460D01*
X48337947Y-120591828D01*
X48337949Y-120591836D01*
X48354314Y-120631344D01*
X48354314Y-120631345D01*
X48413364Y-120773907D01*
X48413371Y-120773920D01*
X48522860Y-120937781D01*
X48522863Y-120937785D01*
X48666537Y-121081459D01*
X48666559Y-121081479D01*
X49919735Y-122334655D01*
X49919764Y-122334686D01*
X50062214Y-122477136D01*
X50062218Y-122477139D01*
X50226079Y-122586628D01*
X50226092Y-122586635D01*
X50344272Y-122635586D01*
X50350129Y-122638012D01*
X50408164Y-122662051D01*
X50475777Y-122675500D01*
X50548901Y-122690045D01*
X50601456Y-122700500D01*
X50601459Y-122700500D01*
X50601460Y-122700500D01*
X50798540Y-122700500D01*
X51131042Y-122700500D01*
X51198081Y-122720185D01*
X51236580Y-122759402D01*
X51242288Y-122768656D01*
X51366344Y-122892712D01*
X51515666Y-122984814D01*
X51682203Y-123039999D01*
X51784991Y-123050500D01*
X53335008Y-123050499D01*
X53437797Y-123039999D01*
X53604334Y-122984814D01*
X53753656Y-122892712D01*
X53877712Y-122768656D01*
X53969814Y-122619334D01*
X54024999Y-122452797D01*
X54035500Y-122350009D01*
X54035499Y-121049992D01*
X54024999Y-120947203D01*
X53969814Y-120780666D01*
X53877712Y-120631344D01*
X53753656Y-120507288D01*
X53604334Y-120415186D01*
X53604332Y-120415185D01*
X53598440Y-120411551D01*
X53551716Y-120359603D01*
X53540493Y-120290641D01*
X53568337Y-120226558D01*
X53575856Y-120218330D01*
X53714728Y-120079458D01*
X53839620Y-119907557D01*
X53936095Y-119718217D01*
X54001757Y-119516129D01*
X54001757Y-119516126D01*
X54012231Y-119450000D01*
X52964146Y-119450000D01*
X53002630Y-119383343D01*
X53035000Y-119262535D01*
X53035000Y-119137465D01*
X53002630Y-119016657D01*
X52964146Y-118950000D01*
X54012231Y-118950000D01*
X54001757Y-118883873D01*
X54001757Y-118883870D01*
X53936095Y-118681782D01*
X53839620Y-118492442D01*
X53714727Y-118320540D01*
X53714723Y-118320535D01*
X53564464Y-118170276D01*
X53564459Y-118170272D01*
X53399781Y-118050627D01*
X53357115Y-117995297D01*
X53351136Y-117925684D01*
X53383741Y-117863889D01*
X53399779Y-117849992D01*
X53450381Y-117813227D01*
X53516183Y-117789748D01*
X53584237Y-117805572D01*
X53610945Y-117825865D01*
X57062215Y-121277137D01*
X57062219Y-121277140D01*
X57226079Y-121386628D01*
X57226085Y-121386631D01*
X57226086Y-121386632D01*
X57408165Y-121462052D01*
X57601455Y-121500500D01*
X57601458Y-121500501D01*
X57601460Y-121500501D01*
X57804655Y-121500501D01*
X57804675Y-121500500D01*
X85498542Y-121500500D01*
X85529566Y-121494328D01*
X85595188Y-121481275D01*
X85691836Y-121462051D01*
X85745165Y-121439961D01*
X85873914Y-121386632D01*
X86037782Y-121277139D01*
X86177139Y-121137782D01*
X86177139Y-121137780D01*
X86187347Y-121127573D01*
X86187348Y-121127570D01*
X88317822Y-118997098D01*
X88379143Y-118963615D01*
X88448835Y-118968599D01*
X88504768Y-119010471D01*
X88529185Y-119075935D01*
X88529501Y-119084781D01*
X88529501Y-119170018D01*
X88540000Y-119272796D01*
X88540001Y-119272799D01*
X88576632Y-119383343D01*
X88595186Y-119439334D01*
X88687288Y-119588656D01*
X88811344Y-119712712D01*
X88960666Y-119804814D01*
X89127203Y-119859999D01*
X89229991Y-119870500D01*
X91370008Y-119870499D01*
X91472797Y-119859999D01*
X91639334Y-119804814D01*
X91788656Y-119712712D01*
X91912712Y-119588656D01*
X92004814Y-119439334D01*
X92059999Y-119272797D01*
X92070500Y-119170009D01*
X92070499Y-117029992D01*
X92059999Y-116927203D01*
X92004814Y-116760666D01*
X91912712Y-116611344D01*
X91788656Y-116487288D01*
X91639334Y-116395186D01*
X91472797Y-116340001D01*
X91472795Y-116340000D01*
X91370010Y-116329500D01*
X89229998Y-116329500D01*
X89229981Y-116329501D01*
X89127203Y-116340000D01*
X89127200Y-116340001D01*
X88960668Y-116395185D01*
X88960663Y-116395187D01*
X88811342Y-116487289D01*
X88687289Y-116611342D01*
X88595187Y-116760663D01*
X88595185Y-116760668D01*
X88577346Y-116814504D01*
X88537573Y-116871949D01*
X88473057Y-116898772D01*
X88459640Y-116899500D01*
X87901458Y-116899500D01*
X87879681Y-116903832D01*
X87857903Y-116908164D01*
X87857902Y-116908164D01*
X87708167Y-116937947D01*
X87708159Y-116937950D01*
X87654834Y-116960037D01*
X87654834Y-116960038D01*
X87609315Y-116978892D01*
X87526089Y-117013366D01*
X87526079Y-117013371D01*
X87394247Y-117101460D01*
X87394246Y-117101461D01*
X87362215Y-117122862D01*
X87362214Y-117122863D01*
X85021899Y-119463181D01*
X84960576Y-119496666D01*
X84934218Y-119499500D01*
X58165783Y-119499500D01*
X58098744Y-119479815D01*
X58078102Y-119463181D01*
X54684209Y-116069289D01*
X54684206Y-116069285D01*
X54684206Y-116069286D01*
X54677139Y-116062219D01*
X54677139Y-116062218D01*
X54537782Y-115922861D01*
X54537781Y-115922860D01*
X54537780Y-115922859D01*
X54373920Y-115813371D01*
X54373911Y-115813366D01*
X54295614Y-115780935D01*
X54245165Y-115760038D01*
X54191836Y-115737949D01*
X54068259Y-115713368D01*
X54064252Y-115712571D01*
X54064245Y-115712569D01*
X53998543Y-115699500D01*
X53998541Y-115699500D01*
X53645200Y-115699500D01*
X53622229Y-115692754D01*
X53598410Y-115690333D01*
X53583906Y-115681502D01*
X53578161Y-115679815D01*
X53574838Y-115675980D01*
X53568983Y-115672415D01*
X53568734Y-115672759D01*
X53400206Y-115550317D01*
X53357540Y-115494987D01*
X53351561Y-115425374D01*
X53384166Y-115363579D01*
X53400198Y-115349687D01*
X53496450Y-115279757D01*
X53504125Y-115274181D01*
X53529894Y-115264986D01*
X53554288Y-115252599D01*
X53562323Y-115253416D01*
X53569931Y-115250702D01*
X53577009Y-115250500D01*
X54484218Y-115250500D01*
X54551257Y-115270185D01*
X54571898Y-115286818D01*
X57122860Y-117837781D01*
X57122861Y-117837782D01*
X57210763Y-117925684D01*
X57262219Y-117977140D01*
X57426080Y-118086628D01*
X57426086Y-118086632D01*
X57532745Y-118130811D01*
X57608164Y-118162051D01*
X57801454Y-118200499D01*
X57801457Y-118200500D01*
X57801459Y-118200500D01*
X84198542Y-118200500D01*
X84229566Y-118194328D01*
X84295188Y-118181275D01*
X84391836Y-118162051D01*
X84445165Y-118139961D01*
X84573914Y-118086632D01*
X84737782Y-117977139D01*
X84877139Y-117837782D01*
X84877139Y-117837780D01*
X84887347Y-117827573D01*
X84887348Y-117827570D01*
X88393770Y-114321149D01*
X88455091Y-114287666D01*
X88524783Y-114292650D01*
X88580716Y-114334522D01*
X88593834Y-114356433D01*
X88595185Y-114359331D01*
X88595186Y-114359334D01*
X88687288Y-114508656D01*
X88811344Y-114632712D01*
X88960666Y-114724814D01*
X89127203Y-114779999D01*
X89229991Y-114790500D01*
X91370008Y-114790499D01*
X91472797Y-114779999D01*
X91639334Y-114724814D01*
X91788656Y-114632712D01*
X91912712Y-114508656D01*
X92004814Y-114359334D01*
X92059999Y-114192797D01*
X92070500Y-114090009D01*
X92070499Y-111949992D01*
X92059999Y-111847203D01*
X92004814Y-111680666D01*
X91912712Y-111531344D01*
X91788656Y-111407288D01*
X91639334Y-111315186D01*
X91472797Y-111260001D01*
X91472795Y-111260000D01*
X91370010Y-111249500D01*
X89229998Y-111249500D01*
X89229981Y-111249501D01*
X89127203Y-111260000D01*
X89127200Y-111260001D01*
X88960668Y-111315185D01*
X88960663Y-111315187D01*
X88811342Y-111407289D01*
X88687289Y-111531342D01*
X88595187Y-111680663D01*
X88595185Y-111680668D01*
X88540001Y-111847204D01*
X88540000Y-111847205D01*
X88533779Y-111908103D01*
X88507382Y-111972795D01*
X88450201Y-112012946D01*
X88410421Y-112019500D01*
X88181459Y-112019500D01*
X88156152Y-112024534D01*
X88043904Y-112046861D01*
X87988163Y-112057948D01*
X87806088Y-112133366D01*
X87806079Y-112133371D01*
X87642219Y-112242859D01*
X87642215Y-112242862D01*
X83721899Y-116163181D01*
X83660576Y-116196666D01*
X83634218Y-116199500D01*
X58365783Y-116199500D01*
X58298744Y-116179815D01*
X58278102Y-116163181D01*
X55966568Y-113851648D01*
X55933083Y-113790325D01*
X55931776Y-113783364D01*
X55919709Y-113707173D01*
X55858882Y-113519970D01*
X55769523Y-113344594D01*
X55751809Y-113320213D01*
X55738741Y-113302226D01*
X55715262Y-113236422D01*
X55731087Y-113168368D01*
X55781192Y-113119673D01*
X55849670Y-113105797D01*
X55914780Y-113131146D01*
X55926741Y-113141661D01*
X58219735Y-115434655D01*
X58219764Y-115434686D01*
X58362214Y-115577136D01*
X58362218Y-115577139D01*
X58526079Y-115686628D01*
X58526083Y-115686630D01*
X58526086Y-115686632D01*
X58649977Y-115737949D01*
X58708164Y-115762051D01*
X58804812Y-115781275D01*
X58877628Y-115795759D01*
X58901458Y-115800500D01*
X58901459Y-115800500D01*
X80698542Y-115800500D01*
X80722539Y-115795726D01*
X80795188Y-115781275D01*
X80891836Y-115762051D01*
X80950023Y-115737949D01*
X81073914Y-115686632D01*
X81237782Y-115577139D01*
X81377139Y-115437782D01*
X81377140Y-115437780D01*
X81384206Y-115430714D01*
X81384208Y-115430710D01*
X87838101Y-108976819D01*
X87899424Y-108943334D01*
X87925782Y-108940500D01*
X88410422Y-108940500D01*
X88477461Y-108960185D01*
X88523216Y-109012989D01*
X88533780Y-109051898D01*
X88540001Y-109112797D01*
X88540001Y-109112799D01*
X88595185Y-109279331D01*
X88595187Y-109279336D01*
X88607157Y-109298743D01*
X88687288Y-109428656D01*
X88811344Y-109552712D01*
X88960666Y-109644814D01*
X89127203Y-109699999D01*
X89229991Y-109710500D01*
X91370008Y-109710499D01*
X91472797Y-109699999D01*
X91639334Y-109644814D01*
X91788656Y-109552712D01*
X91912712Y-109428656D01*
X92004814Y-109279334D01*
X92059999Y-109112797D01*
X92070500Y-109010009D01*
X92070499Y-106869992D01*
X92059999Y-106767203D01*
X92004814Y-106600666D01*
X91912712Y-106451344D01*
X91788656Y-106327288D01*
X91639334Y-106235186D01*
X91472797Y-106180001D01*
X91472795Y-106180000D01*
X91370010Y-106169500D01*
X89229998Y-106169500D01*
X89229981Y-106169501D01*
X89127203Y-106180000D01*
X89127200Y-106180001D01*
X88960668Y-106235185D01*
X88960663Y-106235187D01*
X88811342Y-106327289D01*
X88687289Y-106451342D01*
X88595187Y-106600663D01*
X88595185Y-106600668D01*
X88540001Y-106767204D01*
X88540000Y-106767205D01*
X88533779Y-106828103D01*
X88507382Y-106892795D01*
X88450201Y-106932946D01*
X88410421Y-106939500D01*
X87361455Y-106939500D01*
X87269300Y-106957831D01*
X87269296Y-106957832D01*
X87264812Y-106958724D01*
X87168164Y-106977949D01*
X87117903Y-106998768D01*
X87110870Y-107001680D01*
X87110863Y-107001683D01*
X86986092Y-107053364D01*
X86986079Y-107053371D01*
X86822219Y-107162859D01*
X86783822Y-107201257D01*
X86682861Y-107302218D01*
X86682858Y-107302221D01*
X83440129Y-110544951D01*
X80221899Y-113763181D01*
X80160576Y-113796666D01*
X80134218Y-113799500D01*
X59465782Y-113799500D01*
X59398743Y-113779815D01*
X59378101Y-113763181D01*
X56681479Y-111066559D01*
X56681459Y-111066537D01*
X56537785Y-110922863D01*
X56537781Y-110922860D01*
X56373920Y-110813371D01*
X56373907Y-110813364D01*
X56212896Y-110746672D01*
X56212892Y-110746671D01*
X56203694Y-110742861D01*
X56191836Y-110737949D01*
X56095188Y-110718724D01*
X56093001Y-110718289D01*
X56092980Y-110718284D01*
X55998544Y-110699500D01*
X55998541Y-110699500D01*
X53645200Y-110699500D01*
X53578161Y-110679815D01*
X53565634Y-110670506D01*
X53392820Y-110544951D01*
X53203414Y-110448444D01*
X53203413Y-110448443D01*
X53203412Y-110448443D01*
X53001243Y-110382754D01*
X53001241Y-110382753D01*
X53001240Y-110382753D01*
X52839957Y-110357208D01*
X52791287Y-110349500D01*
X52328713Y-110349500D01*
X52280042Y-110357208D01*
X52118760Y-110382753D01*
X51916585Y-110448444D01*
X51727179Y-110544951D01*
X51555213Y-110669890D01*
X51404890Y-110820213D01*
X51279951Y-110992179D01*
X51183444Y-111181585D01*
X51117753Y-111383760D01*
X51094379Y-111531342D01*
X51084500Y-111593713D01*
X51084500Y-111806287D01*
X51090980Y-111847200D01*
X51117231Y-112012946D01*
X51117754Y-112016243D01*
X51161446Y-112150714D01*
X51183444Y-112218414D01*
X51279951Y-112407820D01*
X51404890Y-112579786D01*
X51555209Y-112730105D01*
X51555214Y-112730109D01*
X51719793Y-112849682D01*
X51762459Y-112905011D01*
X51768438Y-112974625D01*
X51735833Y-113036420D01*
X51719793Y-113050318D01*
X51555214Y-113169890D01*
X51555209Y-113169894D01*
X51404890Y-113320213D01*
X51279951Y-113492179D01*
X51183444Y-113681585D01*
X51117753Y-113883760D01*
X51111560Y-113922861D01*
X51084500Y-114093713D01*
X51084500Y-114306287D01*
X51117754Y-114516243D01*
X51174443Y-114690714D01*
X51183444Y-114718414D01*
X51279951Y-114907820D01*
X51404890Y-115079786D01*
X51555209Y-115230105D01*
X51555214Y-115230109D01*
X51719793Y-115349682D01*
X51762459Y-115405011D01*
X51768438Y-115474625D01*
X51735833Y-115536420D01*
X51719793Y-115550318D01*
X51555214Y-115669890D01*
X51555209Y-115669894D01*
X51404890Y-115820213D01*
X51279951Y-115992179D01*
X51183444Y-116181585D01*
X51117753Y-116383760D01*
X51101356Y-116487288D01*
X51084500Y-116593713D01*
X51084500Y-116806287D01*
X51094534Y-116869644D01*
X51117298Y-117013368D01*
X51117754Y-117016243D01*
X51152396Y-117122861D01*
X51183444Y-117218414D01*
X51279951Y-117407820D01*
X51404890Y-117579786D01*
X51555209Y-117730105D01*
X51555214Y-117730109D01*
X51720218Y-117849991D01*
X51762884Y-117905320D01*
X51768863Y-117974934D01*
X51736258Y-118036729D01*
X51720218Y-118050627D01*
X51555540Y-118170272D01*
X51555535Y-118170276D01*
X51405276Y-118320535D01*
X51405272Y-118320540D01*
X51280379Y-118492442D01*
X51183904Y-118681782D01*
X51118242Y-118883870D01*
X51118242Y-118883873D01*
X51107769Y-118950000D01*
X52155854Y-118950000D01*
X52117370Y-119016657D01*
X52085000Y-119137465D01*
X52085000Y-119262535D01*
X52117370Y-119383343D01*
X52155854Y-119450000D01*
X51107769Y-119450000D01*
X51118242Y-119516126D01*
X51118242Y-119516129D01*
X51183904Y-119718217D01*
X51280379Y-119907557D01*
X51405272Y-120079459D01*
X51405276Y-120079464D01*
X51544143Y-120218331D01*
X51577628Y-120279654D01*
X51572644Y-120349346D01*
X51530772Y-120405279D01*
X51521559Y-120411551D01*
X51366342Y-120507289D01*
X51242287Y-120631345D01*
X51242145Y-120631524D01*
X51242018Y-120631613D01*
X51237181Y-120636451D01*
X51236353Y-120635623D01*
X51185119Y-120671895D01*
X51115320Y-120675028D01*
X51057205Y-120642285D01*
X50336819Y-119921899D01*
X50303334Y-119860576D01*
X50300500Y-119834218D01*
X50300500Y-109365782D01*
X50320185Y-109298743D01*
X50336819Y-109278101D01*
X51078101Y-108536819D01*
X51139424Y-108503334D01*
X51165782Y-108500500D01*
X72448542Y-108500500D01*
X72479566Y-108494328D01*
X72545188Y-108481275D01*
X72641836Y-108462051D01*
X72695165Y-108439961D01*
X72823914Y-108386632D01*
X72987782Y-108277139D01*
X73127139Y-108137782D01*
X73127140Y-108137779D01*
X73134206Y-108130714D01*
X73134209Y-108130710D01*
X76434859Y-104830060D01*
X76434889Y-104830031D01*
X76454340Y-104819415D01*
X76452668Y-104816740D01*
X76452676Y-104816735D01*
X76454348Y-104819411D01*
X76464986Y-104813605D01*
X76496176Y-104796570D01*
X76496212Y-104796564D01*
X76496220Y-104796560D01*
X76496232Y-104796560D01*
X76509936Y-104794377D01*
X76552797Y-104789999D01*
X76719334Y-104734814D01*
X76868656Y-104642712D01*
X76992712Y-104518656D01*
X77084814Y-104369334D01*
X77139999Y-104202797D01*
X77150500Y-104100009D01*
X77150499Y-102499992D01*
X77139999Y-102397203D01*
X77084814Y-102230666D01*
X76992712Y-102081344D01*
X76868656Y-101957288D01*
X76868655Y-101957287D01*
X76859402Y-101951580D01*
X76812678Y-101899632D01*
X76800500Y-101846042D01*
X76800500Y-98585782D01*
X76820185Y-98518743D01*
X76836819Y-98498101D01*
X77231378Y-98103543D01*
X77637139Y-97697782D01*
X77713866Y-97582952D01*
X77746632Y-97533914D01*
X77820531Y-97355502D01*
X77820540Y-97355492D01*
X77820537Y-97355491D01*
X77822050Y-97351838D01*
X77822049Y-97351838D01*
X77822051Y-97351836D01*
X77860500Y-97158541D01*
X77860500Y-96961460D01*
X77860500Y-94672230D01*
X77867920Y-94646957D01*
X77871633Y-94620878D01*
X77878477Y-94611004D01*
X77880185Y-94605191D01*
X77890672Y-94591160D01*
X77893620Y-94587747D01*
X78002712Y-94478656D01*
X78094814Y-94329334D01*
X78118102Y-94259054D01*
X78122110Y-94251050D01*
X78140060Y-94231772D01*
X78155055Y-94210116D01*
X78163495Y-94206606D01*
X78169725Y-94199917D01*
X78195249Y-94193404D01*
X78219571Y-94183292D01*
X78235834Y-94183048D01*
X78237425Y-94182643D01*
X78238523Y-94183008D01*
X78242719Y-94182946D01*
X78280525Y-94185921D01*
X78960000Y-93506446D01*
X78960000Y-93512661D01*
X78987259Y-93614394D01*
X79039920Y-93705606D01*
X79114394Y-93780080D01*
X79205606Y-93832741D01*
X79307339Y-93860000D01*
X79313553Y-93860000D01*
X78634076Y-94539474D01*
X78678650Y-94571859D01*
X78860968Y-94664755D01*
X79055582Y-94727990D01*
X79257683Y-94760000D01*
X79462317Y-94760000D01*
X79664417Y-94727990D01*
X79859031Y-94664755D01*
X80041349Y-94571859D01*
X80085921Y-94539474D01*
X79406447Y-93860000D01*
X79412661Y-93860000D01*
X79514394Y-93832741D01*
X79605606Y-93780080D01*
X79680080Y-93705606D01*
X79732741Y-93614394D01*
X79760000Y-93512661D01*
X79760000Y-93506447D01*
X80439474Y-94185921D01*
X80471859Y-94141349D01*
X80564755Y-93959031D01*
X80627990Y-93764417D01*
X80660000Y-93562317D01*
X80660000Y-93357682D01*
X80627990Y-93155582D01*
X80564755Y-92960968D01*
X80471859Y-92778650D01*
X80439474Y-92734077D01*
X80439474Y-92734076D01*
X79760000Y-93413551D01*
X79760000Y-93407339D01*
X79732741Y-93305606D01*
X79680080Y-93214394D01*
X79605606Y-93139920D01*
X79514394Y-93087259D01*
X79412661Y-93060000D01*
X79406446Y-93060000D01*
X80085922Y-92380524D01*
X80085921Y-92380523D01*
X80041359Y-92348147D01*
X80041350Y-92348141D01*
X79859031Y-92255244D01*
X79664417Y-92192009D01*
X79462317Y-92160000D01*
X79257683Y-92160000D01*
X79055582Y-92192009D01*
X78860968Y-92255244D01*
X78678644Y-92348143D01*
X78634077Y-92380523D01*
X78634077Y-92380524D01*
X79313554Y-93060000D01*
X79307339Y-93060000D01*
X79205606Y-93087259D01*
X79114394Y-93139920D01*
X79039920Y-93214394D01*
X78987259Y-93305606D01*
X78960000Y-93407339D01*
X78960000Y-93413553D01*
X78280524Y-92734077D01*
X78242719Y-92737053D01*
X78174341Y-92722689D01*
X78124584Y-92673638D01*
X78122110Y-92668949D01*
X78118101Y-92660942D01*
X78094814Y-92590666D01*
X78002712Y-92441344D01*
X77878656Y-92317288D01*
X77778066Y-92255244D01*
X77729336Y-92225187D01*
X77729331Y-92225185D01*
X77678345Y-92208290D01*
X77562797Y-92170001D01*
X77562795Y-92170000D01*
X77460010Y-92159500D01*
X76259998Y-92159500D01*
X76259981Y-92159501D01*
X76157203Y-92170000D01*
X76157200Y-92170001D01*
X75990668Y-92225185D01*
X75990663Y-92225187D01*
X75841342Y-92317289D01*
X75717289Y-92441342D01*
X75625187Y-92590663D01*
X75625185Y-92590668D01*
X75604757Y-92652317D01*
X75570001Y-92757203D01*
X75570001Y-92757204D01*
X75570000Y-92757204D01*
X75559500Y-92859983D01*
X75559500Y-94060001D01*
X75559501Y-94060018D01*
X75570000Y-94162796D01*
X75570001Y-94162799D01*
X75625185Y-94329331D01*
X75625187Y-94329336D01*
X75717289Y-94478657D01*
X75823181Y-94584549D01*
X75856666Y-94645872D01*
X75859500Y-94672230D01*
X75859500Y-95895218D01*
X75839815Y-95962257D01*
X75787011Y-96008012D01*
X75717853Y-96017956D01*
X75654297Y-95988931D01*
X75647819Y-95982899D01*
X74626717Y-94961797D01*
X74593232Y-94900474D01*
X74591925Y-94893513D01*
X74568477Y-94745466D01*
X74568477Y-94745465D01*
X74525732Y-94613910D01*
X74505220Y-94550781D01*
X74505218Y-94550778D01*
X74505218Y-94550776D01*
X74453839Y-94449940D01*
X74412287Y-94368390D01*
X74383913Y-94329336D01*
X74291971Y-94202786D01*
X74147213Y-94058028D01*
X73981611Y-93937713D01*
X73927621Y-93910203D01*
X73876825Y-93862228D01*
X73860031Y-93794407D01*
X73882569Y-93728272D01*
X73927624Y-93689233D01*
X73981349Y-93661859D01*
X74025921Y-93629474D01*
X73346447Y-92950000D01*
X73352661Y-92950000D01*
X73454394Y-92922741D01*
X73545606Y-92870080D01*
X73620080Y-92795606D01*
X73672741Y-92704394D01*
X73700000Y-92602661D01*
X73700000Y-92596447D01*
X74379474Y-93275921D01*
X74411859Y-93231349D01*
X74504755Y-93049031D01*
X74567990Y-92854417D01*
X74600000Y-92652317D01*
X74600000Y-92447682D01*
X74567990Y-92245582D01*
X74504755Y-92050968D01*
X74411859Y-91868650D01*
X74379474Y-91824077D01*
X74379474Y-91824076D01*
X73700000Y-92503551D01*
X73700000Y-92497339D01*
X73672741Y-92395606D01*
X73620080Y-92304394D01*
X73545606Y-92229920D01*
X73454394Y-92177259D01*
X73352661Y-92150000D01*
X73346446Y-92150000D01*
X74025922Y-91470524D01*
X74025921Y-91470523D01*
X73981359Y-91438147D01*
X73981350Y-91438141D01*
X73799031Y-91345244D01*
X73604417Y-91282009D01*
X73402317Y-91250000D01*
X73197683Y-91250000D01*
X72995582Y-91282009D01*
X72800968Y-91345244D01*
X72618644Y-91438143D01*
X72574077Y-91470523D01*
X72574077Y-91470524D01*
X73253554Y-92150000D01*
X73247339Y-92150000D01*
X73145606Y-92177259D01*
X73054394Y-92229920D01*
X72979920Y-92304394D01*
X72927259Y-92395606D01*
X72900000Y-92497339D01*
X72900000Y-92503553D01*
X72220524Y-91824077D01*
X72220523Y-91824077D01*
X72188143Y-91868644D01*
X72095244Y-92050968D01*
X72032009Y-92245582D01*
X72000000Y-92447682D01*
X72000000Y-92652317D01*
X72032009Y-92854417D01*
X72095244Y-93049031D01*
X72188141Y-93231350D01*
X72188147Y-93231359D01*
X72220523Y-93275921D01*
X72220524Y-93275922D01*
X72900000Y-92596446D01*
X72900000Y-92602661D01*
X72927259Y-92704394D01*
X72979920Y-92795606D01*
X73054394Y-92870080D01*
X73145606Y-92922741D01*
X73247339Y-92950000D01*
X73253553Y-92950000D01*
X72574076Y-93629474D01*
X72618652Y-93661861D01*
X72672376Y-93689234D01*
X72723172Y-93737208D01*
X72739968Y-93805028D01*
X72717431Y-93871164D01*
X72672379Y-93910203D01*
X72618386Y-93937714D01*
X72452786Y-94058028D01*
X72308028Y-94202786D01*
X72187715Y-94368386D01*
X72094781Y-94550776D01*
X72031522Y-94745465D01*
X71999500Y-94947648D01*
X71999500Y-95152351D01*
X72021141Y-95288987D01*
X72012186Y-95358281D01*
X71967190Y-95411733D01*
X71900439Y-95432372D01*
X71833125Y-95413647D01*
X71810987Y-95396066D01*
X71196819Y-94781898D01*
X71163334Y-94720575D01*
X71160500Y-94694217D01*
X71160500Y-88305782D01*
X71180185Y-88238743D01*
X71196819Y-88218101D01*
X72678102Y-86736819D01*
X72739425Y-86703334D01*
X72765783Y-86700500D01*
X73498542Y-86700500D01*
X73529566Y-86694328D01*
X73595188Y-86681275D01*
X73691836Y-86662051D01*
X73745165Y-86639961D01*
X73873914Y-86586632D01*
X74037782Y-86477139D01*
X74177139Y-86337782D01*
X74177141Y-86337778D01*
X74318102Y-86196816D01*
X74379423Y-86163334D01*
X74405781Y-86160500D01*
X74920342Y-86160500D01*
X74987381Y-86180185D01*
X74993220Y-86184177D01*
X75020319Y-86203865D01*
X75162986Y-86276558D01*
X75191493Y-86291083D01*
X75282845Y-86320764D01*
X75374199Y-86350447D01*
X75563945Y-86380500D01*
X75563946Y-86380500D01*
X75756054Y-86380500D01*
X75756055Y-86380500D01*
X75945801Y-86350447D01*
X76128509Y-86291082D01*
X76299681Y-86203865D01*
X76455102Y-86090945D01*
X76590945Y-85955102D01*
X76703865Y-85799681D01*
X76791082Y-85628509D01*
X76812068Y-85563918D01*
X76851504Y-85506245D01*
X76915862Y-85479045D01*
X76984709Y-85490959D01*
X77036185Y-85538202D01*
X77047930Y-85563918D01*
X77064340Y-85614420D01*
X77068918Y-85628509D01*
X77156135Y-85799681D01*
X77269055Y-85955102D01*
X77404898Y-86090945D01*
X77560319Y-86203865D01*
X77702986Y-86276558D01*
X77731493Y-86291083D01*
X77822845Y-86320764D01*
X77914199Y-86350447D01*
X78103945Y-86380500D01*
X78103946Y-86380500D01*
X78296054Y-86380500D01*
X78296055Y-86380500D01*
X78485801Y-86350447D01*
X78668509Y-86291082D01*
X78839681Y-86203865D01*
X78995102Y-86090945D01*
X79130945Y-85955102D01*
X79243865Y-85799681D01*
X79331082Y-85628509D01*
X79335660Y-85614420D01*
X79352332Y-85563109D01*
X79391769Y-85505433D01*
X79456127Y-85478234D01*
X79524973Y-85490148D01*
X79576450Y-85537392D01*
X79588194Y-85563107D01*
X79609383Y-85628321D01*
X79696561Y-85799415D01*
X79717798Y-85828646D01*
X80340000Y-85206445D01*
X80340000Y-85212661D01*
X80367259Y-85314394D01*
X80419920Y-85405606D01*
X80494394Y-85480080D01*
X80585606Y-85532741D01*
X80687339Y-85560000D01*
X80693554Y-85560000D01*
X80071351Y-86182200D01*
X80071352Y-86182201D01*
X80100577Y-86203434D01*
X80271678Y-86290616D01*
X80454315Y-86349959D01*
X80643985Y-86380000D01*
X80836015Y-86380000D01*
X81025684Y-86349959D01*
X81208321Y-86290616D01*
X81379419Y-86203436D01*
X81408646Y-86182201D01*
X81408646Y-86182200D01*
X80786447Y-85560000D01*
X80792661Y-85560000D01*
X80894394Y-85532741D01*
X80985606Y-85480080D01*
X81060080Y-85405606D01*
X81112741Y-85314394D01*
X81140000Y-85212661D01*
X81140000Y-85206446D01*
X81762200Y-85828646D01*
X81762201Y-85828646D01*
X81783436Y-85799419D01*
X81870616Y-85628321D01*
X81929959Y-85445684D01*
X81960000Y-85256015D01*
X81960000Y-85063984D01*
X81929959Y-84874315D01*
X81870616Y-84691678D01*
X81783434Y-84520577D01*
X81762201Y-84491352D01*
X81762200Y-84491351D01*
X81140000Y-85113552D01*
X81140000Y-85107339D01*
X81112741Y-85005606D01*
X81060080Y-84914394D01*
X80985606Y-84839920D01*
X80894394Y-84787259D01*
X80792661Y-84760000D01*
X80786447Y-84760000D01*
X81408646Y-84137798D01*
X81379415Y-84116561D01*
X81208321Y-84029383D01*
X81025684Y-83970040D01*
X80836015Y-83940000D01*
X80643985Y-83940000D01*
X80454315Y-83970040D01*
X80271678Y-84029383D01*
X80100578Y-84116564D01*
X80071352Y-84137798D01*
X80071351Y-84137798D01*
X80693554Y-84760000D01*
X80687339Y-84760000D01*
X80585606Y-84787259D01*
X80494394Y-84839920D01*
X80419920Y-84914394D01*
X80367259Y-85005606D01*
X80340000Y-85107339D01*
X80340000Y-85113553D01*
X79717798Y-84491351D01*
X79717798Y-84491352D01*
X79696564Y-84520578D01*
X79609384Y-84691677D01*
X79588194Y-84756893D01*
X79548755Y-84814568D01*
X79484396Y-84841765D01*
X79415550Y-84829850D01*
X79364075Y-84782605D01*
X79352332Y-84756890D01*
X79331084Y-84691495D01*
X79328327Y-84686085D01*
X79243865Y-84520319D01*
X79130945Y-84364898D01*
X78995102Y-84229055D01*
X78839681Y-84116135D01*
X78824037Y-84108164D01*
X78668506Y-84028916D01*
X78485806Y-83969554D01*
X78485802Y-83969553D01*
X78485801Y-83969553D01*
X78474560Y-83967772D01*
X78452721Y-83964313D01*
X78389587Y-83934382D01*
X78384441Y-83929521D01*
X78338570Y-83883650D01*
X78305085Y-83822327D01*
X78302251Y-83795969D01*
X78302251Y-68974291D01*
X78321936Y-68907252D01*
X78374740Y-68861497D01*
X78413647Y-68850933D01*
X78422798Y-68849999D01*
X78589335Y-68794814D01*
X78738656Y-68702712D01*
X78862712Y-68578656D01*
X78954814Y-68429335D01*
X79009999Y-68262798D01*
X79020500Y-68160010D01*
X79020500Y-66359990D01*
X79009999Y-66257202D01*
X78954814Y-66090665D01*
X78862712Y-65941344D01*
X78738656Y-65817288D01*
X78589335Y-65725186D01*
X78422798Y-65670001D01*
X78422796Y-65670000D01*
X78320017Y-65659500D01*
X78320010Y-65659500D01*
X76519990Y-65659500D01*
X76519982Y-65659500D01*
X76417203Y-65670000D01*
X76417202Y-65670001D01*
X76339370Y-65695792D01*
X76250667Y-65725185D01*
X76250662Y-65725187D01*
X76101342Y-65817289D01*
X75977289Y-65941342D01*
X75885187Y-66090662D01*
X75885186Y-66090665D01*
X75830001Y-66257202D01*
X75830001Y-66257203D01*
X75830000Y-66257203D01*
X75819500Y-66359982D01*
X75819500Y-68160017D01*
X75830000Y-68262796D01*
X75875144Y-68399031D01*
X75885186Y-68429335D01*
X75977288Y-68578656D01*
X76101344Y-68702712D01*
X76242350Y-68789685D01*
X76289072Y-68841631D01*
X76301251Y-68895222D01*
X76301251Y-83914890D01*
X76281566Y-83981929D01*
X76228762Y-84027684D01*
X76159604Y-84037628D01*
X76133159Y-84030373D01*
X76133143Y-84030423D01*
X76132080Y-84030077D01*
X76129803Y-84029453D01*
X76128511Y-84028918D01*
X75945802Y-83969553D01*
X75850928Y-83954526D01*
X75756055Y-83939500D01*
X75563945Y-83939500D01*
X75500696Y-83949517D01*
X75374197Y-83969553D01*
X75191493Y-84028916D01*
X75020318Y-84116135D01*
X74993228Y-84135818D01*
X74973181Y-84142970D01*
X74955277Y-84154477D01*
X74931252Y-84157931D01*
X74927422Y-84159298D01*
X74920342Y-84159500D01*
X74824500Y-84159500D01*
X74757461Y-84139815D01*
X74711706Y-84087011D01*
X74700500Y-84035500D01*
X74700500Y-56965782D01*
X74720185Y-56898743D01*
X74736819Y-56878101D01*
X75878102Y-55736819D01*
X75939425Y-55703334D01*
X75965783Y-55700500D01*
X104434218Y-55700500D01*
X104501257Y-55720185D01*
X104521899Y-55736819D01*
X109403181Y-60618101D01*
X109436666Y-60679424D01*
X109439500Y-60705782D01*
X109439500Y-73068531D01*
X109432896Y-73091019D01*
X109430720Y-73114361D01*
X109422273Y-73127196D01*
X109419815Y-73135570D01*
X109413141Y-73144966D01*
X109408505Y-73150887D01*
X109371758Y-73187635D01*
X109268718Y-73329457D01*
X109267331Y-73331230D01*
X109240648Y-73350320D01*
X109214678Y-73370346D01*
X109212382Y-73370543D01*
X109210507Y-73371885D01*
X109177739Y-73373518D01*
X109145065Y-73376325D01*
X109143026Y-73375249D01*
X109140724Y-73375364D01*
X109112280Y-73359026D01*
X109083270Y-73343719D01*
X109080930Y-73341019D01*
X109080138Y-73340564D01*
X109079545Y-73339421D01*
X109069371Y-73327680D01*
X109051066Y-73302485D01*
X109051065Y-73302485D01*
X108300000Y-74053551D01*
X108300000Y-74047339D01*
X108272741Y-73945606D01*
X108220080Y-73854394D01*
X108145606Y-73779920D01*
X108054394Y-73727259D01*
X107952661Y-73700000D01*
X107946445Y-73700000D01*
X108697513Y-72948932D01*
X108633756Y-72902611D01*
X108437410Y-72802567D01*
X108227835Y-72734473D01*
X108010181Y-72700000D01*
X107789819Y-72700000D01*
X107572164Y-72734473D01*
X107362589Y-72802567D01*
X107166233Y-72902616D01*
X107102485Y-72948931D01*
X107102485Y-72948932D01*
X107853553Y-73700000D01*
X107847339Y-73700000D01*
X107745606Y-73727259D01*
X107654394Y-73779920D01*
X107579920Y-73854394D01*
X107527259Y-73945606D01*
X107500000Y-74047339D01*
X107500000Y-74053553D01*
X106748932Y-73302485D01*
X106748930Y-73302485D01*
X106730626Y-73327679D01*
X106675296Y-73370345D01*
X106605683Y-73376324D01*
X106543888Y-73343718D01*
X106529990Y-73327679D01*
X106428247Y-73187640D01*
X106272363Y-73031756D01*
X106272358Y-73031752D01*
X106094025Y-72902187D01*
X106094024Y-72902186D01*
X106094022Y-72902185D01*
X106031096Y-72870122D01*
X105897606Y-72802104D01*
X105897603Y-72802103D01*
X105687952Y-72733985D01*
X105579086Y-72716742D01*
X105470222Y-72699500D01*
X105249778Y-72699500D01*
X105177201Y-72710995D01*
X105032047Y-72733985D01*
X104822396Y-72802103D01*
X104822393Y-72802104D01*
X104625974Y-72902187D01*
X104447641Y-73031752D01*
X104447636Y-73031756D01*
X104291756Y-73187636D01*
X104291752Y-73187641D01*
X104190318Y-73327254D01*
X104134988Y-73369920D01*
X104065375Y-73375899D01*
X104003580Y-73343293D01*
X103989682Y-73327254D01*
X103888247Y-73187641D01*
X103888243Y-73187636D01*
X103732363Y-73031756D01*
X103732358Y-73031752D01*
X103554025Y-72902187D01*
X103554024Y-72902186D01*
X103554022Y-72902185D01*
X103491096Y-72870122D01*
X103357606Y-72802104D01*
X103357603Y-72802103D01*
X103147952Y-72733985D01*
X103039086Y-72716742D01*
X102930222Y-72699500D01*
X102709778Y-72699500D01*
X102637201Y-72710995D01*
X102492047Y-72733985D01*
X102282396Y-72802103D01*
X102282393Y-72802104D01*
X102085974Y-72902187D01*
X101907641Y-73031752D01*
X101907636Y-73031756D01*
X101751756Y-73187636D01*
X101751752Y-73187641D01*
X101650318Y-73327254D01*
X101594988Y-73369920D01*
X101525375Y-73375899D01*
X101463580Y-73343293D01*
X101449682Y-73327254D01*
X101348247Y-73187641D01*
X101348243Y-73187636D01*
X101192363Y-73031756D01*
X101192358Y-73031752D01*
X101014025Y-72902187D01*
X101014024Y-72902186D01*
X101014022Y-72902185D01*
X100951096Y-72870122D01*
X100817606Y-72802104D01*
X100817603Y-72802103D01*
X100607952Y-72733985D01*
X100499086Y-72716742D01*
X100390222Y-72699500D01*
X100169778Y-72699500D01*
X100097201Y-72710995D01*
X99952047Y-72733985D01*
X99742396Y-72802103D01*
X99742393Y-72802104D01*
X99545974Y-72902187D01*
X99367641Y-73031752D01*
X99367636Y-73031756D01*
X99211756Y-73187636D01*
X99211752Y-73187641D01*
X99110318Y-73327254D01*
X99054988Y-73369920D01*
X98985375Y-73375899D01*
X98923580Y-73343293D01*
X98909682Y-73327254D01*
X98808247Y-73187641D01*
X98808243Y-73187636D01*
X98652363Y-73031756D01*
X98652358Y-73031752D01*
X98474025Y-72902187D01*
X98474024Y-72902186D01*
X98474022Y-72902185D01*
X98411096Y-72870122D01*
X98277606Y-72802104D01*
X98277603Y-72802103D01*
X98067952Y-72733985D01*
X97959086Y-72716742D01*
X97850222Y-72699500D01*
X97629778Y-72699500D01*
X97557201Y-72710995D01*
X97412047Y-72733985D01*
X97202396Y-72802103D01*
X97202393Y-72802104D01*
X97005974Y-72902187D01*
X96827641Y-73031752D01*
X96827636Y-73031756D01*
X96671756Y-73187636D01*
X96671752Y-73187641D01*
X96570318Y-73327254D01*
X96514988Y-73369920D01*
X96445375Y-73375899D01*
X96383580Y-73343293D01*
X96369682Y-73327254D01*
X96268247Y-73187641D01*
X96268243Y-73187636D01*
X96112363Y-73031756D01*
X96112358Y-73031752D01*
X95934025Y-72902187D01*
X95934024Y-72902186D01*
X95934022Y-72902185D01*
X95871096Y-72870122D01*
X95737606Y-72802104D01*
X95737603Y-72802103D01*
X95527952Y-72733985D01*
X95419086Y-72716742D01*
X95310222Y-72699500D01*
X95089778Y-72699500D01*
X95017201Y-72710995D01*
X94872047Y-72733985D01*
X94662396Y-72802103D01*
X94662393Y-72802104D01*
X94465974Y-72902187D01*
X94287641Y-73031752D01*
X94287636Y-73031756D01*
X94131756Y-73187636D01*
X94131752Y-73187641D01*
X94030318Y-73327254D01*
X93974988Y-73369920D01*
X93905375Y-73375899D01*
X93843580Y-73343293D01*
X93829682Y-73327254D01*
X93728247Y-73187641D01*
X93728243Y-73187636D01*
X93572363Y-73031756D01*
X93572358Y-73031752D01*
X93394025Y-72902187D01*
X93394024Y-72902186D01*
X93394022Y-72902185D01*
X93331096Y-72870122D01*
X93197606Y-72802104D01*
X93197603Y-72802103D01*
X92987952Y-72733985D01*
X92879086Y-72716742D01*
X92770222Y-72699500D01*
X92549778Y-72699500D01*
X92477201Y-72710995D01*
X92332047Y-72733985D01*
X92122396Y-72802103D01*
X92122393Y-72802104D01*
X91925974Y-72902187D01*
X91747641Y-73031752D01*
X91747636Y-73031756D01*
X91591756Y-73187636D01*
X91591752Y-73187641D01*
X91490318Y-73327254D01*
X91434988Y-73369920D01*
X91365375Y-73375899D01*
X91303580Y-73343293D01*
X91289682Y-73327254D01*
X91188247Y-73187641D01*
X91188243Y-73187636D01*
X91032363Y-73031756D01*
X91032358Y-73031752D01*
X90854025Y-72902187D01*
X90854024Y-72902186D01*
X90854022Y-72902185D01*
X90791096Y-72870122D01*
X90657606Y-72802104D01*
X90657603Y-72802103D01*
X90447952Y-72733985D01*
X90339086Y-72716742D01*
X90230222Y-72699500D01*
X90009778Y-72699500D01*
X89937201Y-72710995D01*
X89792047Y-72733985D01*
X89582396Y-72802103D01*
X89582393Y-72802104D01*
X89385974Y-72902187D01*
X89207641Y-73031752D01*
X89207636Y-73031756D01*
X89051756Y-73187636D01*
X89051752Y-73187641D01*
X88950318Y-73327254D01*
X88894988Y-73369920D01*
X88825375Y-73375899D01*
X88763580Y-73343293D01*
X88749682Y-73327254D01*
X88648247Y-73187641D01*
X88648243Y-73187636D01*
X88492363Y-73031756D01*
X88492358Y-73031752D01*
X88314025Y-72902187D01*
X88314024Y-72902186D01*
X88314022Y-72902185D01*
X88251096Y-72870122D01*
X88117606Y-72802104D01*
X88117603Y-72802103D01*
X87907952Y-72733985D01*
X87799086Y-72716742D01*
X87690222Y-72699500D01*
X87469778Y-72699500D01*
X87397201Y-72710995D01*
X87252047Y-72733985D01*
X87042396Y-72802103D01*
X87042393Y-72802104D01*
X86845974Y-72902187D01*
X86667641Y-73031752D01*
X86667636Y-73031756D01*
X86511756Y-73187636D01*
X86511752Y-73187641D01*
X86410318Y-73327254D01*
X86354988Y-73369920D01*
X86285375Y-73375899D01*
X86223580Y-73343293D01*
X86209682Y-73327254D01*
X86108247Y-73187641D01*
X86108243Y-73187636D01*
X85952363Y-73031756D01*
X85952358Y-73031752D01*
X85774025Y-72902187D01*
X85774024Y-72902186D01*
X85774022Y-72902185D01*
X85711096Y-72870122D01*
X85577606Y-72802104D01*
X85577603Y-72802103D01*
X85367952Y-72733985D01*
X85259086Y-72716742D01*
X85150222Y-72699500D01*
X84929778Y-72699500D01*
X84857201Y-72710995D01*
X84712047Y-72733985D01*
X84502396Y-72802103D01*
X84502393Y-72802104D01*
X84305974Y-72902187D01*
X84127641Y-73031752D01*
X84127636Y-73031756D01*
X83971756Y-73187636D01*
X83971752Y-73187641D01*
X83870318Y-73327254D01*
X83814988Y-73369920D01*
X83745375Y-73375899D01*
X83683580Y-73343293D01*
X83669682Y-73327254D01*
X83568247Y-73187641D01*
X83568243Y-73187636D01*
X83412363Y-73031756D01*
X83412358Y-73031752D01*
X83234025Y-72902187D01*
X83234024Y-72902186D01*
X83234022Y-72902185D01*
X83171096Y-72870122D01*
X83037606Y-72802104D01*
X83037603Y-72802103D01*
X82827952Y-72733985D01*
X82719086Y-72716742D01*
X82610222Y-72699500D01*
X82389778Y-72699500D01*
X82317201Y-72710995D01*
X82172047Y-72733985D01*
X81962396Y-72802103D01*
X81962393Y-72802104D01*
X81765974Y-72902187D01*
X81587641Y-73031752D01*
X81587636Y-73031756D01*
X81431756Y-73187636D01*
X81431752Y-73187641D01*
X81330318Y-73327254D01*
X81274988Y-73369920D01*
X81205375Y-73375899D01*
X81143580Y-73343293D01*
X81129682Y-73327254D01*
X81028247Y-73187641D01*
X81028243Y-73187636D01*
X80872363Y-73031756D01*
X80872358Y-73031752D01*
X80694025Y-72902187D01*
X80694024Y-72902186D01*
X80694022Y-72902185D01*
X80631096Y-72870122D01*
X80497606Y-72802104D01*
X80497603Y-72802103D01*
X80287952Y-72733985D01*
X80179086Y-72716742D01*
X80070222Y-72699500D01*
X79849778Y-72699500D01*
X79777201Y-72710995D01*
X79632047Y-72733985D01*
X79422396Y-72802103D01*
X79422393Y-72802104D01*
X79225974Y-72902187D01*
X79047641Y-73031752D01*
X79047636Y-73031756D01*
X78891756Y-73187636D01*
X78891752Y-73187641D01*
X78762187Y-73365974D01*
X78662104Y-73562393D01*
X78662103Y-73562396D01*
X78593985Y-73772047D01*
X78566496Y-73945606D01*
X78559500Y-73989778D01*
X78559500Y-74210222D01*
X78576586Y-74318101D01*
X78593985Y-74427952D01*
X78662103Y-74637603D01*
X78662104Y-74637606D01*
X78693897Y-74700001D01*
X78758141Y-74826086D01*
X78762187Y-74834025D01*
X78891752Y-75012358D01*
X78891756Y-75012363D01*
X79047636Y-75168243D01*
X79047641Y-75168247D01*
X79203192Y-75281260D01*
X79225978Y-75297815D01*
X79354375Y-75363237D01*
X79422393Y-75397895D01*
X79422396Y-75397896D01*
X79509140Y-75426080D01*
X79632049Y-75466015D01*
X79849778Y-75500500D01*
X79849779Y-75500500D01*
X80070221Y-75500500D01*
X80070222Y-75500500D01*
X80287951Y-75466015D01*
X80497606Y-75397895D01*
X80694022Y-75297815D01*
X80872365Y-75168242D01*
X81028242Y-75012365D01*
X81095269Y-74920110D01*
X81129682Y-74872745D01*
X81185011Y-74830079D01*
X81254625Y-74824100D01*
X81316420Y-74856705D01*
X81330318Y-74872745D01*
X81431752Y-75012358D01*
X81431756Y-75012363D01*
X81587636Y-75168243D01*
X81587641Y-75168247D01*
X81743192Y-75281260D01*
X81765978Y-75297815D01*
X81894375Y-75363237D01*
X81962393Y-75397895D01*
X81962396Y-75397896D01*
X82049140Y-75426080D01*
X82172049Y-75466015D01*
X82389778Y-75500500D01*
X82389779Y-75500500D01*
X82610221Y-75500500D01*
X82610222Y-75500500D01*
X82827951Y-75466015D01*
X83037606Y-75397895D01*
X83234022Y-75297815D01*
X83412365Y-75168242D01*
X83568242Y-75012365D01*
X83635269Y-74920110D01*
X83669682Y-74872745D01*
X83725011Y-74830079D01*
X83794625Y-74824100D01*
X83856420Y-74856705D01*
X83870318Y-74872745D01*
X83971752Y-75012358D01*
X83971756Y-75012363D01*
X84127636Y-75168243D01*
X84127641Y-75168247D01*
X84283192Y-75281260D01*
X84305978Y-75297815D01*
X84434375Y-75363237D01*
X84502393Y-75397895D01*
X84502396Y-75397896D01*
X84589140Y-75426080D01*
X84712049Y-75466015D01*
X84929778Y-75500500D01*
X84929779Y-75500500D01*
X85150221Y-75500500D01*
X85150222Y-75500500D01*
X85367951Y-75466015D01*
X85577606Y-75397895D01*
X85774022Y-75297815D01*
X85952365Y-75168242D01*
X86108242Y-75012365D01*
X86175269Y-74920110D01*
X86209682Y-74872745D01*
X86265011Y-74830079D01*
X86334625Y-74824100D01*
X86396420Y-74856705D01*
X86410318Y-74872745D01*
X86511752Y-75012358D01*
X86511756Y-75012363D01*
X86667636Y-75168243D01*
X86667641Y-75168247D01*
X86823192Y-75281260D01*
X86845978Y-75297815D01*
X86974375Y-75363237D01*
X87042393Y-75397895D01*
X87042396Y-75397896D01*
X87129140Y-75426080D01*
X87252049Y-75466015D01*
X87469778Y-75500500D01*
X87469779Y-75500500D01*
X87690221Y-75500500D01*
X87690222Y-75500500D01*
X87907951Y-75466015D01*
X88117606Y-75397895D01*
X88314022Y-75297815D01*
X88492365Y-75168242D01*
X88648242Y-75012365D01*
X88715269Y-74920110D01*
X88749682Y-74872745D01*
X88805011Y-74830079D01*
X88874625Y-74824100D01*
X88936420Y-74856705D01*
X88950318Y-74872745D01*
X89051752Y-75012358D01*
X89051756Y-75012363D01*
X89207636Y-75168243D01*
X89207641Y-75168247D01*
X89363192Y-75281260D01*
X89385978Y-75297815D01*
X89514375Y-75363237D01*
X89582393Y-75397895D01*
X89582396Y-75397896D01*
X89669140Y-75426080D01*
X89792049Y-75466015D01*
X90009778Y-75500500D01*
X90009779Y-75500500D01*
X90230221Y-75500500D01*
X90230222Y-75500500D01*
X90447951Y-75466015D01*
X90657606Y-75397895D01*
X90854022Y-75297815D01*
X91032365Y-75168242D01*
X91188242Y-75012365D01*
X91255269Y-74920110D01*
X91289682Y-74872745D01*
X91345011Y-74830079D01*
X91414625Y-74824100D01*
X91476420Y-74856705D01*
X91490318Y-74872745D01*
X91591752Y-75012358D01*
X91591756Y-75012363D01*
X91747636Y-75168243D01*
X91747641Y-75168247D01*
X91903192Y-75281260D01*
X91925978Y-75297815D01*
X92054375Y-75363237D01*
X92122393Y-75397895D01*
X92122396Y-75397896D01*
X92209140Y-75426080D01*
X92332049Y-75466015D01*
X92549778Y-75500500D01*
X92549779Y-75500500D01*
X92770221Y-75500500D01*
X92770222Y-75500500D01*
X92987951Y-75466015D01*
X93197606Y-75397895D01*
X93394022Y-75297815D01*
X93572365Y-75168242D01*
X93728242Y-75012365D01*
X93795269Y-74920110D01*
X93829682Y-74872745D01*
X93885011Y-74830079D01*
X93954625Y-74824100D01*
X94016420Y-74856705D01*
X94030318Y-74872745D01*
X94131752Y-75012358D01*
X94131756Y-75012363D01*
X94287636Y-75168243D01*
X94287641Y-75168247D01*
X94443192Y-75281260D01*
X94465978Y-75297815D01*
X94594375Y-75363237D01*
X94662393Y-75397895D01*
X94662396Y-75397896D01*
X94749140Y-75426080D01*
X94872049Y-75466015D01*
X95089778Y-75500500D01*
X95089779Y-75500500D01*
X95310221Y-75500500D01*
X95310222Y-75500500D01*
X95527951Y-75466015D01*
X95737606Y-75397895D01*
X95934022Y-75297815D01*
X96112365Y-75168242D01*
X96268242Y-75012365D01*
X96335269Y-74920110D01*
X96369682Y-74872745D01*
X96425011Y-74830079D01*
X96494625Y-74824100D01*
X96556420Y-74856705D01*
X96570318Y-74872745D01*
X96671752Y-75012358D01*
X96671756Y-75012363D01*
X96827636Y-75168243D01*
X96827641Y-75168247D01*
X96983192Y-75281260D01*
X97005978Y-75297815D01*
X97134375Y-75363237D01*
X97202393Y-75397895D01*
X97202396Y-75397896D01*
X97289140Y-75426080D01*
X97412049Y-75466015D01*
X97629778Y-75500500D01*
X97629779Y-75500500D01*
X97850221Y-75500500D01*
X97850222Y-75500500D01*
X98067951Y-75466015D01*
X98277606Y-75397895D01*
X98474022Y-75297815D01*
X98652365Y-75168242D01*
X98808242Y-75012365D01*
X98875269Y-74920110D01*
X98909682Y-74872745D01*
X98965011Y-74830079D01*
X99034625Y-74824100D01*
X99096420Y-74856705D01*
X99110318Y-74872745D01*
X99211752Y-75012358D01*
X99211756Y-75012363D01*
X99367636Y-75168243D01*
X99367641Y-75168247D01*
X99523192Y-75281260D01*
X99545978Y-75297815D01*
X99674375Y-75363237D01*
X99742393Y-75397895D01*
X99742396Y-75397896D01*
X99829140Y-75426080D01*
X99952049Y-75466015D01*
X100169778Y-75500500D01*
X100169779Y-75500500D01*
X100390221Y-75500500D01*
X100390222Y-75500500D01*
X100607951Y-75466015D01*
X100817606Y-75397895D01*
X101014022Y-75297815D01*
X101192365Y-75168242D01*
X101348242Y-75012365D01*
X101415269Y-74920110D01*
X101449682Y-74872745D01*
X101505011Y-74830079D01*
X101574625Y-74824100D01*
X101636420Y-74856705D01*
X101650318Y-74872745D01*
X101751752Y-75012358D01*
X101751756Y-75012363D01*
X101907636Y-75168243D01*
X101907641Y-75168247D01*
X102063192Y-75281260D01*
X102085978Y-75297815D01*
X102214375Y-75363237D01*
X102282393Y-75397895D01*
X102282396Y-75397896D01*
X102369140Y-75426080D01*
X102492049Y-75466015D01*
X102709778Y-75500500D01*
X102709779Y-75500500D01*
X102930221Y-75500500D01*
X102930222Y-75500500D01*
X103147951Y-75466015D01*
X103357606Y-75397895D01*
X103554022Y-75297815D01*
X103732365Y-75168242D01*
X103888242Y-75012365D01*
X103955269Y-74920110D01*
X103989682Y-74872745D01*
X104010259Y-74856877D01*
X104028231Y-74838110D01*
X104037478Y-74835887D01*
X104045011Y-74830079D01*
X104070898Y-74827855D01*
X104096166Y-74821783D01*
X104105149Y-74824913D01*
X104114625Y-74824100D01*
X104137604Y-74836224D01*
X104162144Y-74844777D01*
X104171595Y-74854159D01*
X104176420Y-74856705D01*
X104187635Y-74869188D01*
X104189015Y-74870951D01*
X104291758Y-75012365D01*
X104328500Y-75049107D01*
X104333135Y-75055027D01*
X104343383Y-75080785D01*
X104356666Y-75105111D01*
X104358000Y-75117526D01*
X104358964Y-75119947D01*
X104358510Y-75122270D01*
X104359500Y-75131469D01*
X104359500Y-76074217D01*
X104339815Y-76141256D01*
X104323181Y-76161898D01*
X103821899Y-76663181D01*
X103760576Y-76696666D01*
X103734218Y-76699500D01*
X92601454Y-76699500D01*
X92569391Y-76705876D01*
X92569392Y-76705877D01*
X92408170Y-76737946D01*
X92408164Y-76737948D01*
X92327640Y-76771302D01*
X92327629Y-76771307D01*
X92322450Y-76773453D01*
X92226086Y-76813368D01*
X92153227Y-76862051D01*
X92147778Y-76865691D01*
X92147770Y-76865696D01*
X92062216Y-76922861D01*
X92062213Y-76922864D01*
X86430696Y-82554383D01*
X84562220Y-84422859D01*
X84562218Y-84422861D01*
X84504977Y-84480102D01*
X84422859Y-84562219D01*
X84313371Y-84726080D01*
X84313364Y-84726093D01*
X84276091Y-84816081D01*
X84252018Y-84874199D01*
X84239053Y-84905500D01*
X84237949Y-84908165D01*
X84237948Y-84908168D01*
X84237946Y-84908175D01*
X84199500Y-85101454D01*
X84199500Y-100534218D01*
X84179815Y-100601257D01*
X84163181Y-100621899D01*
X74321899Y-110463181D01*
X74260576Y-110496666D01*
X74234218Y-110499500D01*
X64971832Y-110499500D01*
X64933514Y-110493431D01*
X64914214Y-110487160D01*
X64804534Y-110451522D01*
X64629995Y-110423878D01*
X64602352Y-110419500D01*
X64397648Y-110419500D01*
X64373329Y-110423351D01*
X64195465Y-110451522D01*
X64000776Y-110514781D01*
X63818386Y-110607715D01*
X63652786Y-110728028D01*
X63508028Y-110872786D01*
X63387715Y-111038386D01*
X63294781Y-111220776D01*
X63231522Y-111415465D01*
X63213169Y-111531344D01*
X63199500Y-111617648D01*
X63199500Y-111822352D01*
X63223328Y-111972795D01*
X63231523Y-112024534D01*
X63231522Y-112024534D01*
X63294781Y-112219223D01*
X63346140Y-112320018D01*
X63380081Y-112386632D01*
X63387715Y-112401613D01*
X63508028Y-112567213D01*
X63652786Y-112711971D01*
X63803335Y-112821349D01*
X63818390Y-112832287D01*
X63934607Y-112891503D01*
X64000776Y-112925218D01*
X64000778Y-112925218D01*
X64000781Y-112925220D01*
X64077046Y-112950000D01*
X64195465Y-112988477D01*
X64270087Y-113000296D01*
X64397648Y-113020500D01*
X64397649Y-113020500D01*
X64602351Y-113020500D01*
X64602352Y-113020500D01*
X64804534Y-112988477D01*
X64999219Y-112925220D01*
X65181610Y-112832287D01*
X65274590Y-112764732D01*
X65347213Y-112711971D01*
X65347215Y-112711968D01*
X65347219Y-112711966D01*
X65491966Y-112567219D01*
X65492808Y-112566059D01*
X65503304Y-112551615D01*
X65558634Y-112508949D01*
X65603622Y-112500500D01*
X74798542Y-112500500D01*
X74811262Y-112497969D01*
X74895188Y-112481275D01*
X74991836Y-112462051D01*
X75086603Y-112422797D01*
X75173914Y-112386632D01*
X75337782Y-112277139D01*
X75477139Y-112137782D01*
X75477140Y-112137779D01*
X75484206Y-112130714D01*
X75484208Y-112130710D01*
X85312322Y-102302597D01*
X85373641Y-102269115D01*
X85443333Y-102274099D01*
X85487680Y-102302600D01*
X86619735Y-103434655D01*
X86619764Y-103434686D01*
X86762214Y-103577136D01*
X86762218Y-103577139D01*
X86926079Y-103686628D01*
X86926092Y-103686635D01*
X87054833Y-103739961D01*
X87097744Y-103757735D01*
X87108164Y-103762051D01*
X87204812Y-103781275D01*
X87253135Y-103790887D01*
X87301458Y-103800500D01*
X87301459Y-103800500D01*
X87301460Y-103800500D01*
X87498540Y-103800500D01*
X101334218Y-103800500D01*
X101401257Y-103820185D01*
X101421899Y-103836819D01*
X101863181Y-104278101D01*
X101896666Y-104339424D01*
X101899500Y-104365782D01*
X101899500Y-104898542D01*
X101909183Y-104947221D01*
X101917022Y-104986631D01*
X101937949Y-105091836D01*
X101960038Y-105145165D01*
X101962981Y-105152269D01*
X102013366Y-105273911D01*
X102013371Y-105273920D01*
X102122859Y-105437780D01*
X102122860Y-105437781D01*
X102122861Y-105437782D01*
X102262218Y-105577139D01*
X102262219Y-105577139D01*
X102269286Y-105584206D01*
X102269285Y-105584206D01*
X102269288Y-105584208D01*
X102522860Y-105837781D01*
X102522861Y-105837782D01*
X102662218Y-105977139D01*
X102826086Y-106086632D01*
X102932745Y-106130811D01*
X103008164Y-106162051D01*
X103201454Y-106200499D01*
X103201457Y-106200500D01*
X103201459Y-106200500D01*
X106434218Y-106200500D01*
X106501257Y-106220185D01*
X106521899Y-106236819D01*
X115619735Y-115334655D01*
X115619764Y-115334686D01*
X115762214Y-115477136D01*
X115762218Y-115477139D01*
X115926079Y-115586628D01*
X115926083Y-115586630D01*
X115926086Y-115586632D01*
X116049977Y-115637949D01*
X116108164Y-115662051D01*
X116204812Y-115681275D01*
X116262519Y-115692754D01*
X116301458Y-115700500D01*
X116301459Y-115700500D01*
X116301460Y-115700500D01*
X116498540Y-115700500D01*
X125234218Y-115700500D01*
X125301257Y-115720185D01*
X125321898Y-115736818D01*
X126822860Y-117237781D01*
X126822861Y-117237782D01*
X126962218Y-117377139D01*
X126962219Y-117377140D01*
X127008129Y-117407816D01*
X127126086Y-117486632D01*
X127214399Y-117523212D01*
X127308164Y-117562051D01*
X127397354Y-117579792D01*
X127459389Y-117592131D01*
X127501456Y-117600500D01*
X127501459Y-117600500D01*
X127501460Y-117600500D01*
X127698540Y-117600500D01*
X128204092Y-117600500D01*
X128271131Y-117620185D01*
X128309636Y-117664271D01*
X128311395Y-117663187D01*
X128315185Y-117669331D01*
X128315186Y-117669334D01*
X128407288Y-117818656D01*
X128531344Y-117942712D01*
X128680666Y-118034814D01*
X128847203Y-118089999D01*
X128949991Y-118100500D01*
X130850008Y-118100499D01*
X130952797Y-118089999D01*
X131119334Y-118034814D01*
X131268656Y-117942712D01*
X131392712Y-117818656D01*
X131484814Y-117669334D01*
X131539999Y-117502797D01*
X131550500Y-117400009D01*
X131550499Y-115799992D01*
X131548685Y-115782238D01*
X131539999Y-115697203D01*
X131539998Y-115697200D01*
X131538525Y-115692754D01*
X131484814Y-115530666D01*
X131401193Y-115395094D01*
X131397129Y-115380242D01*
X131388529Y-115367468D01*
X131388096Y-115347230D01*
X131382754Y-115327704D01*
X131387344Y-115311989D01*
X131387037Y-115297614D01*
X131400898Y-115265585D01*
X131401010Y-115265204D01*
X131401194Y-115264904D01*
X131484814Y-115129334D01*
X131485439Y-115127447D01*
X131490185Y-115119704D01*
X131511074Y-115100806D01*
X131529687Y-115079663D01*
X131536685Y-115077637D01*
X131541999Y-115072831D01*
X131568419Y-115068454D01*
X131595908Y-115060500D01*
X134238542Y-115060500D01*
X134270995Y-115054044D01*
X134335188Y-115041275D01*
X134431836Y-115022051D01*
X134504783Y-114991835D01*
X134613914Y-114946632D01*
X134777782Y-114837139D01*
X134917139Y-114697782D01*
X134917140Y-114697779D01*
X134924206Y-114690714D01*
X134924209Y-114690710D01*
X139137778Y-110477141D01*
X139137782Y-110477139D01*
X139277139Y-110337782D01*
X139386632Y-110173914D01*
X139446242Y-110030001D01*
X139462051Y-109991836D01*
X139500500Y-109798540D01*
X139500500Y-109601460D01*
X139500500Y-48201459D01*
X139482978Y-48113369D01*
X139462051Y-48008164D01*
X139417041Y-47899500D01*
X139391078Y-47836819D01*
X139386635Y-47826092D01*
X139386628Y-47826079D01*
X139277140Y-47662219D01*
X139277139Y-47662218D01*
X139137782Y-47522861D01*
X139137781Y-47522860D01*
X136384208Y-44769288D01*
X136384206Y-44769285D01*
X136384206Y-44769286D01*
X136377139Y-44762219D01*
X136377139Y-44762218D01*
X136237782Y-44622861D01*
X136237781Y-44622860D01*
X136237780Y-44622859D01*
X136073920Y-44513371D01*
X136073911Y-44513366D01*
X136001315Y-44483296D01*
X135945165Y-44460038D01*
X135891836Y-44437949D01*
X135891832Y-44437948D01*
X135891828Y-44437946D01*
X135795188Y-44418724D01*
X135698544Y-44399500D01*
X135698541Y-44399500D01*
X100804675Y-44399500D01*
X100804655Y-44399499D01*
X100798541Y-44399499D01*
X100601460Y-44399499D01*
X100601457Y-44399499D01*
X100408172Y-44437946D01*
X100408164Y-44437948D01*
X100226088Y-44513366D01*
X100226079Y-44513371D01*
X100062219Y-44622859D01*
X100062215Y-44622862D01*
X95221899Y-49463181D01*
X95160576Y-49496666D01*
X95134218Y-49499500D01*
X95089778Y-49499500D01*
X95017201Y-49510995D01*
X94872047Y-49533985D01*
X94662396Y-49602103D01*
X94662393Y-49602104D01*
X94465974Y-49702187D01*
X94287641Y-49831752D01*
X94287636Y-49831756D01*
X94131756Y-49987636D01*
X94131752Y-49987641D01*
X94030318Y-50127254D01*
X93974988Y-50169920D01*
X93905375Y-50175899D01*
X93843580Y-50143293D01*
X93829682Y-50127254D01*
X93728247Y-49987641D01*
X93728243Y-49987636D01*
X93572363Y-49831756D01*
X93572358Y-49831752D01*
X93394025Y-49702187D01*
X93394024Y-49702186D01*
X93394022Y-49702185D01*
X93331096Y-49670122D01*
X93197606Y-49602104D01*
X93197603Y-49602103D01*
X92987952Y-49533985D01*
X92879086Y-49516742D01*
X92770222Y-49499500D01*
X92549778Y-49499500D01*
X92477201Y-49510995D01*
X92332047Y-49533985D01*
X92122396Y-49602103D01*
X92122393Y-49602104D01*
X91925974Y-49702187D01*
X91747641Y-49831752D01*
X91747636Y-49831756D01*
X91591756Y-49987636D01*
X91591752Y-49987641D01*
X91490318Y-50127254D01*
X91469741Y-50143120D01*
X91451769Y-50161889D01*
X91442520Y-50164111D01*
X91434988Y-50169920D01*
X91409101Y-50172143D01*
X91383834Y-50178216D01*
X91374850Y-50175085D01*
X91365375Y-50175899D01*
X91342397Y-50163774D01*
X91317856Y-50155222D01*
X91308402Y-50145837D01*
X91303580Y-50143293D01*
X91292365Y-50130811D01*
X91290974Y-50129035D01*
X91188242Y-49987635D01*
X91151500Y-49950893D01*
X91146865Y-49944973D01*
X91136616Y-49919214D01*
X91123334Y-49894889D01*
X91121999Y-49882473D01*
X91121036Y-49880053D01*
X91121489Y-49877729D01*
X91120500Y-49868531D01*
X91120500Y-49471456D01*
X91094236Y-49339424D01*
X91086494Y-49300500D01*
X91082051Y-49278164D01*
X91046292Y-49191835D01*
X91006632Y-49096086D01*
X90897139Y-48932218D01*
X90757782Y-48792861D01*
X90757781Y-48792860D01*
X89334208Y-47369288D01*
X89334206Y-47369285D01*
X89334206Y-47369286D01*
X89327139Y-47362219D01*
X89327139Y-47362218D01*
X89187782Y-47222861D01*
X89187781Y-47222860D01*
X89187780Y-47222859D01*
X89023920Y-47113371D01*
X89023911Y-47113366D01*
X88951315Y-47083296D01*
X88895165Y-47060038D01*
X88841836Y-47037949D01*
X88841832Y-47037948D01*
X88841828Y-47037946D01*
X88745188Y-47018724D01*
X88648544Y-46999500D01*
X88648541Y-46999500D01*
X69001459Y-46999500D01*
X69001455Y-46999500D01*
X68904812Y-47018724D01*
X68808167Y-47037947D01*
X68808161Y-47037949D01*
X68754834Y-47060037D01*
X68754834Y-47060038D01*
X68709315Y-47078892D01*
X68626089Y-47113366D01*
X68626079Y-47113371D01*
X68462218Y-47222860D01*
X68462214Y-47222863D01*
X66496040Y-49189039D01*
X65862220Y-49822859D01*
X65862218Y-49822861D01*
X65816548Y-49868531D01*
X65722859Y-49962219D01*
X65613371Y-50126079D01*
X65613364Y-50126092D01*
X65584131Y-50196669D01*
X65584127Y-50196678D01*
X65582530Y-50200536D01*
X65537949Y-50308164D01*
X65527162Y-50362394D01*
X65525601Y-50370240D01*
X65525601Y-50370241D01*
X65499500Y-50501456D01*
X65499500Y-55324237D01*
X65479815Y-55391276D01*
X65475818Y-55397122D01*
X65387715Y-55518386D01*
X65294781Y-55700776D01*
X65231522Y-55895465D01*
X65199500Y-56097648D01*
X65199500Y-56302351D01*
X65231522Y-56504534D01*
X65294781Y-56699223D01*
X65358691Y-56824653D01*
X65385925Y-56878101D01*
X65387715Y-56881613D01*
X65508028Y-57047213D01*
X65652786Y-57191971D01*
X65807749Y-57304556D01*
X65818390Y-57312287D01*
X65934607Y-57371503D01*
X66000776Y-57405218D01*
X66000778Y-57405218D01*
X66000781Y-57405220D01*
X66105137Y-57439127D01*
X66195465Y-57468477D01*
X66296557Y-57484488D01*
X66397648Y-57500500D01*
X66397649Y-57500500D01*
X66602351Y-57500500D01*
X66602352Y-57500500D01*
X66804534Y-57468477D01*
X66999219Y-57405220D01*
X67181610Y-57312287D01*
X67274590Y-57244732D01*
X67347213Y-57191971D01*
X67347215Y-57191968D01*
X67347219Y-57191966D01*
X67491966Y-57047219D01*
X67491968Y-57047215D01*
X67491971Y-57047213D01*
X67599839Y-56898743D01*
X67612287Y-56881610D01*
X67705220Y-56699219D01*
X67768477Y-56504534D01*
X67800500Y-56302352D01*
X67800500Y-56097648D01*
X67768477Y-55895466D01*
X67705220Y-55700781D01*
X67705218Y-55700778D01*
X67705218Y-55700776D01*
X67653376Y-55599032D01*
X67612287Y-55518390D01*
X67529888Y-55404976D01*
X67524182Y-55397122D01*
X67500702Y-55331316D01*
X67500500Y-55324237D01*
X67500500Y-51065782D01*
X67520185Y-50998743D01*
X67536819Y-50978101D01*
X69478102Y-49036819D01*
X69539425Y-49003334D01*
X69565783Y-49000500D01*
X88084218Y-49000500D01*
X88151257Y-49020185D01*
X88171899Y-49036819D01*
X89006730Y-49871650D01*
X89040215Y-49932973D01*
X89035231Y-50002665D01*
X89019368Y-50032216D01*
X88950320Y-50127254D01*
X88950319Y-50127255D01*
X88894989Y-50169921D01*
X88825376Y-50175900D01*
X88763580Y-50143295D01*
X88749682Y-50127255D01*
X88648247Y-49987641D01*
X88648243Y-49987636D01*
X88492363Y-49831756D01*
X88492358Y-49831752D01*
X88314025Y-49702187D01*
X88314024Y-49702186D01*
X88314022Y-49702185D01*
X88251096Y-49670122D01*
X88117606Y-49602104D01*
X88117603Y-49602103D01*
X87907952Y-49533985D01*
X87799086Y-49516742D01*
X87690222Y-49499500D01*
X87469778Y-49499500D01*
X87397201Y-49510995D01*
X87252047Y-49533985D01*
X87042396Y-49602103D01*
X87042393Y-49602104D01*
X86845974Y-49702187D01*
X86667641Y-49831752D01*
X86667636Y-49831756D01*
X86511756Y-49987636D01*
X86511752Y-49987641D01*
X86410318Y-50127254D01*
X86354988Y-50169920D01*
X86285375Y-50175899D01*
X86223580Y-50143293D01*
X86209682Y-50127254D01*
X86108247Y-49987641D01*
X86108243Y-49987636D01*
X85952363Y-49831756D01*
X85952358Y-49831752D01*
X85774025Y-49702187D01*
X85774024Y-49702186D01*
X85774022Y-49702185D01*
X85711096Y-49670122D01*
X85577606Y-49602104D01*
X85577603Y-49602103D01*
X85367952Y-49533985D01*
X85259086Y-49516742D01*
X85150222Y-49499500D01*
X84929778Y-49499500D01*
X84857201Y-49510995D01*
X84712047Y-49533985D01*
X84502396Y-49602103D01*
X84502393Y-49602104D01*
X84305974Y-49702187D01*
X84127641Y-49831752D01*
X84127636Y-49831756D01*
X83971756Y-49987636D01*
X83971752Y-49987641D01*
X83870318Y-50127254D01*
X83814988Y-50169920D01*
X83745375Y-50175899D01*
X83683580Y-50143293D01*
X83669682Y-50127254D01*
X83568247Y-49987641D01*
X83568243Y-49987636D01*
X83412363Y-49831756D01*
X83412358Y-49831752D01*
X83234025Y-49702187D01*
X83234024Y-49702186D01*
X83234022Y-49702185D01*
X83171096Y-49670122D01*
X83037606Y-49602104D01*
X83037603Y-49602103D01*
X82827952Y-49533985D01*
X82719086Y-49516742D01*
X82610222Y-49499500D01*
X82389778Y-49499500D01*
X82317201Y-49510995D01*
X82172047Y-49533985D01*
X81962396Y-49602103D01*
X81962393Y-49602104D01*
X81765974Y-49702187D01*
X81587641Y-49831752D01*
X81587636Y-49831756D01*
X81431756Y-49987636D01*
X81431752Y-49987641D01*
X81330318Y-50127254D01*
X81274988Y-50169920D01*
X81205375Y-50175899D01*
X81143580Y-50143293D01*
X81129682Y-50127254D01*
X81028247Y-49987641D01*
X81028243Y-49987636D01*
X80872363Y-49831756D01*
X80872358Y-49831752D01*
X80694025Y-49702187D01*
X80694024Y-49702186D01*
X80694022Y-49702185D01*
X80631096Y-49670122D01*
X80497606Y-49602104D01*
X80497603Y-49602103D01*
X80287952Y-49533985D01*
X80179086Y-49516742D01*
X80070222Y-49499500D01*
X79849778Y-49499500D01*
X79777201Y-49510995D01*
X79632047Y-49533985D01*
X79422396Y-49602103D01*
X79422393Y-49602104D01*
X79225974Y-49702187D01*
X79047641Y-49831752D01*
X79047636Y-49831756D01*
X78891756Y-49987636D01*
X78891752Y-49987641D01*
X78762187Y-50165974D01*
X78662105Y-50362393D01*
X78593985Y-50572047D01*
X78559500Y-50789778D01*
X78559500Y-51010221D01*
X78593985Y-51227952D01*
X78662103Y-51437603D01*
X78662104Y-51437606D01*
X78730122Y-51571096D01*
X78759390Y-51628537D01*
X78762187Y-51634025D01*
X78884673Y-51802615D01*
X78908153Y-51868422D01*
X78892327Y-51936475D01*
X78842221Y-51985170D01*
X78784355Y-51999500D01*
X74601455Y-51999500D01*
X74508118Y-52018066D01*
X74508110Y-52018067D01*
X74504812Y-52018724D01*
X74408164Y-52037949D01*
X74380278Y-52049500D01*
X74372128Y-52052875D01*
X74372123Y-52052877D01*
X74226088Y-52113366D01*
X74226079Y-52113371D01*
X74062219Y-52222859D01*
X74019928Y-52265151D01*
X73922861Y-52362218D01*
X73922858Y-52362221D01*
X71262221Y-55022858D01*
X71262218Y-55022861D01*
X71197366Y-55087713D01*
X71122859Y-55162219D01*
X71013371Y-55326080D01*
X71013364Y-55326093D01*
X71003574Y-55349728D01*
X71003565Y-55349753D01*
X71002311Y-55352781D01*
X70937949Y-55508164D01*
X70927197Y-55562218D01*
X70925463Y-55570932D01*
X70925463Y-55570934D01*
X70899500Y-55701456D01*
X70899500Y-82334218D01*
X70879815Y-82401257D01*
X70863181Y-82421899D01*
X70121899Y-83163181D01*
X70060576Y-83196666D01*
X70034218Y-83199500D01*
X60301456Y-83199500D01*
X60108171Y-83237946D01*
X60108167Y-83237948D01*
X60108165Y-83237948D01*
X60108164Y-83237949D01*
X60059145Y-83258253D01*
X60032743Y-83269189D01*
X59926089Y-83313366D01*
X59926079Y-83313371D01*
X59797632Y-83399197D01*
X59797631Y-83399199D01*
X59789973Y-83404316D01*
X59762212Y-83422865D01*
X59127338Y-84057741D01*
X58922220Y-84262859D01*
X58922218Y-84262861D01*
X58884579Y-84300500D01*
X58782859Y-84402219D01*
X58673371Y-84566079D01*
X58673364Y-84566092D01*
X58623663Y-84686085D01*
X58602180Y-84737950D01*
X58602179Y-84737952D01*
X58597951Y-84748156D01*
X58597946Y-84748175D01*
X58559500Y-84941454D01*
X58559500Y-84941459D01*
X58559500Y-88058541D01*
X58560630Y-88064224D01*
X58564807Y-88085218D01*
X58564807Y-88085221D01*
X58597947Y-88251828D01*
X58597949Y-88251836D01*
X58619700Y-88304347D01*
X58619700Y-88304348D01*
X58673364Y-88433907D01*
X58673371Y-88433920D01*
X58782859Y-88597780D01*
X58782860Y-88597781D01*
X58782861Y-88597782D01*
X58922218Y-88737139D01*
X58922219Y-88737139D01*
X58929286Y-88744206D01*
X58929285Y-88744206D01*
X58929288Y-88744208D01*
X59772860Y-89587781D01*
X59772861Y-89587782D01*
X59850388Y-89665309D01*
X59912219Y-89727140D01*
X59996065Y-89783164D01*
X60076086Y-89836632D01*
X60182745Y-89880811D01*
X60258164Y-89912051D01*
X60451454Y-89950499D01*
X60451457Y-89950500D01*
X60451459Y-89950500D01*
X60648540Y-89950500D01*
X62884218Y-89950500D01*
X62951257Y-89970185D01*
X62971899Y-89986819D01*
X63438181Y-90453101D01*
X63471666Y-90514424D01*
X63474500Y-90540782D01*
X63474500Y-98103541D01*
X63474500Y-98103543D01*
X63474499Y-98103543D01*
X63512947Y-98296829D01*
X63512950Y-98296839D01*
X63588364Y-98478907D01*
X63588371Y-98478920D01*
X63697859Y-98642780D01*
X63697860Y-98642781D01*
X63697861Y-98642782D01*
X63837218Y-98782139D01*
X63837219Y-98782139D01*
X63844286Y-98789206D01*
X63844285Y-98789206D01*
X63844289Y-98789209D01*
X64487398Y-99432318D01*
X64520883Y-99493641D01*
X64515899Y-99563333D01*
X64487398Y-99607680D01*
X64121479Y-99973600D01*
X63762220Y-100332859D01*
X63762218Y-100332861D01*
X63725079Y-100370000D01*
X63622859Y-100472219D01*
X63513371Y-100636080D01*
X63513364Y-100636093D01*
X63478157Y-100721092D01*
X63478153Y-100721102D01*
X63476448Y-100725220D01*
X63437949Y-100818164D01*
X63427578Y-100870301D01*
X63426073Y-100877866D01*
X63426070Y-100877876D01*
X63399500Y-101011455D01*
X63399500Y-103365487D01*
X63385985Y-103421780D01*
X63353534Y-103485468D01*
X63294783Y-103600774D01*
X63294782Y-103600777D01*
X63294780Y-103600781D01*
X63272398Y-103669665D01*
X63231522Y-103795465D01*
X63221222Y-103860500D01*
X63199500Y-103997648D01*
X63199500Y-104202352D01*
X63203878Y-104229995D01*
X63231522Y-104404534D01*
X63294781Y-104599223D01*
X63387715Y-104781613D01*
X63508028Y-104947213D01*
X63652786Y-105091971D01*
X63761209Y-105170743D01*
X63818390Y-105212287D01*
X63919345Y-105263726D01*
X64000776Y-105305218D01*
X64000778Y-105305218D01*
X64000781Y-105305220D01*
X64105137Y-105339127D01*
X64195465Y-105368477D01*
X64296557Y-105384488D01*
X64397648Y-105400500D01*
X64397649Y-105400500D01*
X64602351Y-105400500D01*
X64602352Y-105400500D01*
X64804534Y-105368477D01*
X64999219Y-105305220D01*
X65181610Y-105212287D01*
X65291138Y-105132711D01*
X65347213Y-105091971D01*
X65347215Y-105091968D01*
X65347219Y-105091966D01*
X65491966Y-104947219D01*
X65491968Y-104947215D01*
X65491971Y-104947213D01*
X65544732Y-104874590D01*
X65612287Y-104781610D01*
X65705220Y-104599219D01*
X65768477Y-104404534D01*
X65800500Y-104202352D01*
X65800500Y-103997648D01*
X65769426Y-103801456D01*
X65768477Y-103795465D01*
X65737490Y-103700099D01*
X65705220Y-103600781D01*
X65705217Y-103600777D01*
X65705217Y-103600774D01*
X65681860Y-103554934D01*
X65681859Y-103554933D01*
X65612287Y-103418390D01*
X65612285Y-103418387D01*
X65612284Y-103418385D01*
X65491971Y-103252786D01*
X65436819Y-103197634D01*
X65403334Y-103136311D01*
X65400500Y-103109953D01*
X65400500Y-101575782D01*
X65420185Y-101508743D01*
X65436819Y-101488101D01*
X66368102Y-100556819D01*
X66429425Y-100523334D01*
X66455783Y-100520500D01*
X66894238Y-100520500D01*
X66961277Y-100540185D01*
X66967119Y-100544179D01*
X67088390Y-100632287D01*
X67160424Y-100668990D01*
X67181629Y-100679795D01*
X67232425Y-100727770D01*
X67249220Y-100795591D01*
X67226682Y-100861726D01*
X67181629Y-100900765D01*
X67088650Y-100948140D01*
X66923105Y-101068417D01*
X66923104Y-101068417D01*
X66778417Y-101213104D01*
X66778417Y-101213105D01*
X66658140Y-101378650D01*
X66565244Y-101560970D01*
X66502009Y-101755586D01*
X66493391Y-101810000D01*
X67854314Y-101810000D01*
X67849920Y-101814394D01*
X67797259Y-101905606D01*
X67770000Y-102007339D01*
X67770000Y-102112661D01*
X67797259Y-102214394D01*
X67849920Y-102305606D01*
X67854314Y-102310000D01*
X66493391Y-102310000D01*
X66502009Y-102364413D01*
X66565244Y-102559029D01*
X66658140Y-102741349D01*
X66778417Y-102906894D01*
X66778417Y-102906895D01*
X66923104Y-103051582D01*
X67088650Y-103171859D01*
X67270968Y-103264755D01*
X67465582Y-103327990D01*
X67667683Y-103360000D01*
X67920000Y-103360000D01*
X67920000Y-102375686D01*
X67924394Y-102380080D01*
X68015606Y-102432741D01*
X68117339Y-102460000D01*
X68222661Y-102460000D01*
X68324394Y-102432741D01*
X68415606Y-102380080D01*
X68420000Y-102375686D01*
X68420000Y-103360000D01*
X68672317Y-103360000D01*
X68874417Y-103327990D01*
X69069031Y-103264755D01*
X69251349Y-103171859D01*
X69416894Y-103051582D01*
X69416895Y-103051582D01*
X69517278Y-102951200D01*
X69561582Y-102906895D01*
X69561582Y-102906894D01*
X69681859Y-102741349D01*
X69774755Y-102559029D01*
X69837990Y-102364413D01*
X69846609Y-102310000D01*
X68485686Y-102310000D01*
X68490080Y-102305606D01*
X68542741Y-102214394D01*
X68570000Y-102112661D01*
X68570000Y-102007339D01*
X68542741Y-101905606D01*
X68490080Y-101814394D01*
X68485686Y-101810000D01*
X69846609Y-101810000D01*
X69837990Y-101755586D01*
X69774755Y-101560970D01*
X69681859Y-101378650D01*
X69561582Y-101213105D01*
X69561582Y-101213104D01*
X69416895Y-101068417D01*
X69251349Y-100948140D01*
X69158370Y-100900765D01*
X69107574Y-100852790D01*
X69090779Y-100784969D01*
X69113316Y-100718835D01*
X69158370Y-100679795D01*
X69251610Y-100632287D01*
X69292814Y-100602351D01*
X69417213Y-100511971D01*
X69417215Y-100511968D01*
X69417219Y-100511966D01*
X69561966Y-100367219D01*
X69561968Y-100367215D01*
X69561971Y-100367213D01*
X69640227Y-100259501D01*
X69682287Y-100201610D01*
X69775220Y-100019219D01*
X69838477Y-99824534D01*
X69870500Y-99622352D01*
X69870500Y-99417648D01*
X69852665Y-99305042D01*
X69838477Y-99215465D01*
X69807014Y-99118634D01*
X69775220Y-99020781D01*
X69775218Y-99020778D01*
X69775218Y-99020776D01*
X69723865Y-98919992D01*
X69682287Y-98838390D01*
X69666892Y-98817200D01*
X69561971Y-98672786D01*
X69417213Y-98528028D01*
X69251613Y-98407715D01*
X69251612Y-98407714D01*
X69251610Y-98407713D01*
X69191354Y-98377011D01*
X69069223Y-98314781D01*
X68874534Y-98251522D01*
X68699995Y-98223878D01*
X68672352Y-98219500D01*
X67667648Y-98219500D01*
X67643329Y-98223351D01*
X67465465Y-98251522D01*
X67270776Y-98314781D01*
X67088386Y-98407715D01*
X66967123Y-98495818D01*
X66901317Y-98519298D01*
X66894238Y-98519500D01*
X66455783Y-98519500D01*
X66388744Y-98499815D01*
X66368102Y-98483181D01*
X65511819Y-97626898D01*
X65478334Y-97565575D01*
X65475500Y-97539217D01*
X65475500Y-89976456D01*
X65461356Y-89905355D01*
X65452776Y-89862218D01*
X65437051Y-89783164D01*
X65410437Y-89718913D01*
X65407957Y-89712926D01*
X65407956Y-89712922D01*
X65361635Y-89601093D01*
X65361634Y-89601092D01*
X65361632Y-89601086D01*
X65252139Y-89437218D01*
X65112782Y-89297861D01*
X65112781Y-89297860D01*
X64190326Y-88375406D01*
X64156842Y-88314084D01*
X64161826Y-88244393D01*
X64203698Y-88188459D01*
X64258604Y-88165254D01*
X64364534Y-88148477D01*
X64559219Y-88085220D01*
X64741610Y-87992287D01*
X64835633Y-87923976D01*
X64907213Y-87871971D01*
X64907215Y-87871968D01*
X64907219Y-87871966D01*
X65051966Y-87727219D01*
X65051968Y-87727215D01*
X65051971Y-87727213D01*
X65172284Y-87561614D01*
X65172283Y-87561614D01*
X65172287Y-87561610D01*
X65219516Y-87468917D01*
X65267489Y-87418123D01*
X65335310Y-87401328D01*
X65401445Y-87423865D01*
X65440485Y-87468919D01*
X65487715Y-87561614D01*
X65608028Y-87727213D01*
X65752786Y-87871971D01*
X65856949Y-87947648D01*
X65918390Y-87992287D01*
X66034607Y-88051503D01*
X66100776Y-88085218D01*
X66100778Y-88085218D01*
X66100781Y-88085220D01*
X66203212Y-88118502D01*
X66295465Y-88148477D01*
X66396557Y-88164488D01*
X66497648Y-88180500D01*
X66497649Y-88180500D01*
X66702351Y-88180500D01*
X66702352Y-88180500D01*
X66904534Y-88148477D01*
X67099219Y-88085220D01*
X67281610Y-87992287D01*
X67375633Y-87923976D01*
X67447213Y-87871971D01*
X67447215Y-87871968D01*
X67447219Y-87871966D01*
X67591966Y-87727219D01*
X67591968Y-87727215D01*
X67591971Y-87727213D01*
X67712284Y-87561614D01*
X67712283Y-87561614D01*
X67712287Y-87561610D01*
X67759516Y-87468917D01*
X67807489Y-87418123D01*
X67875310Y-87401328D01*
X67941445Y-87423865D01*
X67980485Y-87468919D01*
X68027715Y-87561614D01*
X68148028Y-87727213D01*
X68292786Y-87871971D01*
X68396949Y-87947648D01*
X68458390Y-87992287D01*
X68640781Y-88085220D01*
X68804326Y-88138359D01*
X68853688Y-88168608D01*
X69123181Y-88438101D01*
X69156666Y-88499424D01*
X69159500Y-88525782D01*
X69159500Y-90635389D01*
X69139815Y-90702428D01*
X69087011Y-90748183D01*
X69017853Y-90758127D01*
X68962619Y-90735710D01*
X68951614Y-90727715D01*
X68769223Y-90634781D01*
X68574534Y-90571522D01*
X68399995Y-90543878D01*
X68372352Y-90539500D01*
X68167648Y-90539500D01*
X68143329Y-90543351D01*
X67965465Y-90571522D01*
X67770776Y-90634781D01*
X67588386Y-90727715D01*
X67422786Y-90848028D01*
X67278028Y-90992786D01*
X67157715Y-91158386D01*
X67064781Y-91340776D01*
X67001522Y-91535465D01*
X66969500Y-91737648D01*
X66969500Y-91942351D01*
X67001522Y-92144534D01*
X67064781Y-92339223D01*
X67138500Y-92483902D01*
X67157713Y-92521610D01*
X67245819Y-92642877D01*
X67269298Y-92708681D01*
X67269500Y-92715761D01*
X67269500Y-93368544D01*
X67307946Y-93561828D01*
X67307948Y-93561834D01*
X67307949Y-93561836D01*
X67316695Y-93582951D01*
X67383364Y-93743907D01*
X67383371Y-93743920D01*
X67492859Y-93907780D01*
X67492860Y-93907781D01*
X67492861Y-93907782D01*
X67632218Y-94047139D01*
X67632219Y-94047139D01*
X67639286Y-94054206D01*
X67639285Y-94054206D01*
X67639289Y-94054209D01*
X69529284Y-95944205D01*
X69529290Y-95944210D01*
X74763181Y-101178101D01*
X74796666Y-101239424D01*
X74799500Y-101265782D01*
X74799500Y-101846042D01*
X74779815Y-101913081D01*
X74740598Y-101951580D01*
X74731344Y-101957287D01*
X74607289Y-102081342D01*
X74511551Y-102236559D01*
X74459603Y-102283283D01*
X74390640Y-102294506D01*
X74326558Y-102266662D01*
X74318331Y-102259143D01*
X74179464Y-102120276D01*
X74179459Y-102120272D01*
X74007557Y-101995379D01*
X73818215Y-101898903D01*
X73616124Y-101833241D01*
X73550000Y-101822768D01*
X73550000Y-102866988D01*
X73492993Y-102834075D01*
X73365826Y-102800000D01*
X73234174Y-102800000D01*
X73107007Y-102834075D01*
X73050000Y-102866988D01*
X73050000Y-101822768D01*
X73049999Y-101822768D01*
X72983875Y-101833241D01*
X72781784Y-101898903D01*
X72592442Y-101995379D01*
X72420540Y-102120272D01*
X72420535Y-102120276D01*
X72270276Y-102270535D01*
X72270272Y-102270540D01*
X72145379Y-102442442D01*
X72048904Y-102631782D01*
X71983242Y-102833869D01*
X71983242Y-102833872D01*
X71950000Y-103043753D01*
X71950000Y-103050000D01*
X72866988Y-103050000D01*
X72834075Y-103107007D01*
X72800000Y-103234174D01*
X72800000Y-103365826D01*
X72834075Y-103492993D01*
X72866988Y-103550000D01*
X71950000Y-103550000D01*
X71950000Y-103556246D01*
X71983242Y-103766127D01*
X71983242Y-103766130D01*
X72048904Y-103968217D01*
X72145379Y-104157557D01*
X72270272Y-104329459D01*
X72270276Y-104329464D01*
X72420535Y-104479723D01*
X72420540Y-104479727D01*
X72592442Y-104604620D01*
X72781782Y-104701095D01*
X72983871Y-104766757D01*
X73050000Y-104777231D01*
X73050000Y-103733012D01*
X73107007Y-103765925D01*
X73234174Y-103800000D01*
X73365826Y-103800000D01*
X73492993Y-103765925D01*
X73550000Y-103733012D01*
X73550000Y-104833716D01*
X73530315Y-104900755D01*
X73513681Y-104921397D01*
X71971899Y-106463181D01*
X71910576Y-106496666D01*
X71884218Y-106499500D01*
X50601455Y-106499500D01*
X50504812Y-106518724D01*
X50408167Y-106537947D01*
X50408161Y-106537949D01*
X50354834Y-106560037D01*
X50354834Y-106560038D01*
X50309315Y-106578892D01*
X50226089Y-106613366D01*
X50226079Y-106613371D01*
X50062219Y-106722859D01*
X50017879Y-106767200D01*
X49922861Y-106862218D01*
X49922858Y-106862221D01*
X48662221Y-108122858D01*
X48662218Y-108122861D01*
X48605066Y-108180013D01*
X48522859Y-108262219D01*
X48413371Y-108426079D01*
X48413364Y-108426092D01*
X48337950Y-108608160D01*
X48337947Y-108608170D01*
X48299500Y-108801456D01*
X46300500Y-108801456D01*
X46300500Y-101941995D01*
X50759500Y-101941995D01*
X50759500Y-102178004D01*
X50759501Y-102178020D01*
X50790306Y-102412010D01*
X50851394Y-102639993D01*
X50941714Y-102858045D01*
X50941719Y-102858056D01*
X50970104Y-102907219D01*
X51059727Y-103062450D01*
X51059729Y-103062453D01*
X51059730Y-103062454D01*
X51203406Y-103249697D01*
X51203412Y-103249704D01*
X51370295Y-103416587D01*
X51370302Y-103416593D01*
X51397911Y-103437778D01*
X51557550Y-103560273D01*
X51688918Y-103636118D01*
X51761943Y-103678280D01*
X51761948Y-103678282D01*
X51761951Y-103678284D01*
X51980007Y-103768606D01*
X52207986Y-103829693D01*
X52441989Y-103860500D01*
X52441996Y-103860500D01*
X52678004Y-103860500D01*
X52678011Y-103860500D01*
X52912014Y-103829693D01*
X53139993Y-103768606D01*
X53358049Y-103678284D01*
X53562450Y-103560273D01*
X53749699Y-103416592D01*
X53916592Y-103249699D01*
X54024543Y-103109013D01*
X54080971Y-103067811D01*
X54122919Y-103060500D01*
X59274238Y-103060500D01*
X59341277Y-103080185D01*
X59347119Y-103084179D01*
X59468390Y-103172287D01*
X59584607Y-103231503D01*
X59650776Y-103265218D01*
X59650778Y-103265218D01*
X59650781Y-103265220D01*
X59755137Y-103299127D01*
X59845465Y-103328477D01*
X59946557Y-103344488D01*
X60047648Y-103360500D01*
X60047649Y-103360500D01*
X61052351Y-103360500D01*
X61052352Y-103360500D01*
X61254534Y-103328477D01*
X61449219Y-103265220D01*
X61631610Y-103172287D01*
X61758379Y-103080185D01*
X61797213Y-103051971D01*
X61797215Y-103051968D01*
X61797219Y-103051966D01*
X61941966Y-102907219D01*
X61941968Y-102907215D01*
X61941971Y-102907213D01*
X61995257Y-102833869D01*
X62062287Y-102741610D01*
X62155220Y-102559219D01*
X62218477Y-102364534D01*
X62250500Y-102162352D01*
X62250500Y-101957648D01*
X62227936Y-101815184D01*
X62218477Y-101755465D01*
X62161844Y-101581167D01*
X62155220Y-101560781D01*
X62155218Y-101560778D01*
X62155218Y-101560776D01*
X62118188Y-101488101D01*
X62062287Y-101378390D01*
X62007423Y-101302875D01*
X61941971Y-101212786D01*
X61797219Y-101068034D01*
X61763196Y-101043315D01*
X61703546Y-100999977D01*
X61660882Y-100944649D01*
X61654903Y-100875036D01*
X61687508Y-100813240D01*
X61737426Y-100781955D01*
X61819334Y-100754814D01*
X61968656Y-100662712D01*
X62092712Y-100538656D01*
X62184814Y-100389334D01*
X62239999Y-100222797D01*
X62250500Y-100120009D01*
X62250499Y-98919992D01*
X62239999Y-98817203D01*
X62184814Y-98650666D01*
X62092712Y-98501344D01*
X61968656Y-98377288D01*
X61838220Y-98296835D01*
X61819336Y-98285187D01*
X61819331Y-98285185D01*
X61817862Y-98284698D01*
X61652797Y-98230001D01*
X61652795Y-98230000D01*
X61550016Y-98219500D01*
X61550009Y-98219500D01*
X60715783Y-98219500D01*
X60648744Y-98199815D01*
X60628102Y-98183181D01*
X59936819Y-97491898D01*
X59903334Y-97430575D01*
X59900500Y-97404217D01*
X59900500Y-93365781D01*
X59909144Y-93336340D01*
X59915668Y-93306354D01*
X59919422Y-93301338D01*
X59920185Y-93298742D01*
X59936815Y-93278104D01*
X60111330Y-93103588D01*
X60172651Y-93070105D01*
X60237326Y-93073339D01*
X60345466Y-93108477D01*
X60547648Y-93140500D01*
X60547649Y-93140500D01*
X60752351Y-93140500D01*
X60752352Y-93140500D01*
X60954534Y-93108477D01*
X61149219Y-93045220D01*
X61331610Y-92952287D01*
X61444759Y-92870080D01*
X61497213Y-92831971D01*
X61497215Y-92831968D01*
X61497219Y-92831966D01*
X61641966Y-92687219D01*
X61641968Y-92687215D01*
X61641971Y-92687213D01*
X61723074Y-92575582D01*
X61762287Y-92521610D01*
X61855220Y-92339219D01*
X61918477Y-92144534D01*
X61950500Y-91942352D01*
X61950500Y-91737648D01*
X61931578Y-91618182D01*
X61918477Y-91535465D01*
X61870306Y-91387212D01*
X61855220Y-91340781D01*
X61855218Y-91340778D01*
X61855218Y-91340776D01*
X61814889Y-91261628D01*
X61762287Y-91158390D01*
X61754556Y-91147749D01*
X61641971Y-90992786D01*
X61497213Y-90848028D01*
X61331613Y-90727715D01*
X61331612Y-90727714D01*
X61331610Y-90727713D01*
X61271731Y-90697203D01*
X61149223Y-90634781D01*
X60954534Y-90571522D01*
X60779995Y-90543878D01*
X60752352Y-90539500D01*
X60547648Y-90539500D01*
X60523329Y-90543351D01*
X60345465Y-90571522D01*
X60150776Y-90634781D01*
X59968386Y-90727715D01*
X59818845Y-90836362D01*
X59812963Y-90839163D01*
X59810384Y-90841995D01*
X59791945Y-90849174D01*
X59777925Y-90855853D01*
X59774061Y-90856883D01*
X59668164Y-90877949D01*
X59626973Y-90895011D01*
X59619405Y-90898145D01*
X59619400Y-90898147D01*
X59486088Y-90953366D01*
X59353458Y-91041987D01*
X59353457Y-91041988D01*
X59322215Y-91062862D01*
X59322214Y-91062863D01*
X58517105Y-91867974D01*
X58262220Y-92122859D01*
X58262218Y-92122861D01*
X58225783Y-92159296D01*
X58122859Y-92262219D01*
X58013371Y-92426079D01*
X58013366Y-92426089D01*
X57960037Y-92554836D01*
X57946234Y-92588163D01*
X57946231Y-92588171D01*
X57937950Y-92608160D01*
X57937947Y-92608169D01*
X57899500Y-92801456D01*
X57899500Y-92801459D01*
X57899500Y-97968541D01*
X57917792Y-98060500D01*
X57936687Y-98155494D01*
X57936688Y-98155501D01*
X57937949Y-98161835D01*
X57937949Y-98161837D01*
X58013364Y-98343907D01*
X58013371Y-98343920D01*
X58122859Y-98507780D01*
X58122860Y-98507781D01*
X58122861Y-98507782D01*
X58262218Y-98647139D01*
X58262219Y-98647139D01*
X58269286Y-98654206D01*
X58269285Y-98654206D01*
X58269289Y-98654209D01*
X58813181Y-99198101D01*
X58846666Y-99259424D01*
X58849500Y-99285782D01*
X58849500Y-100120001D01*
X58849501Y-100120019D01*
X58860000Y-100222796D01*
X58860001Y-100222799D01*
X58896473Y-100332862D01*
X58915186Y-100389334D01*
X59007288Y-100538656D01*
X59131344Y-100662712D01*
X59280666Y-100754814D01*
X59362570Y-100781954D01*
X59372626Y-100788916D01*
X59384539Y-100791687D01*
X59400813Y-100808432D01*
X59420015Y-100821727D01*
X59424710Y-100833020D01*
X59433235Y-100841792D01*
X59437872Y-100864679D01*
X59446838Y-100886243D01*
X59444682Y-100898282D01*
X59447111Y-100910269D01*
X59438639Y-100932029D01*
X59434523Y-100955018D01*
X59425576Y-100965583D01*
X59421763Y-100975379D01*
X59396453Y-100999977D01*
X59380650Y-101011459D01*
X59347123Y-101035817D01*
X59281319Y-101059298D01*
X59274238Y-101059500D01*
X54122919Y-101059500D01*
X54055880Y-101039815D01*
X54024543Y-101010986D01*
X53916592Y-100870300D01*
X53749704Y-100703412D01*
X53749697Y-100703406D01*
X53562454Y-100559730D01*
X53562453Y-100559729D01*
X53562450Y-100559727D01*
X53458998Y-100499999D01*
X53358056Y-100441719D01*
X53358045Y-100441714D01*
X53139993Y-100351394D01*
X52912010Y-100290306D01*
X52678020Y-100259501D01*
X52678017Y-100259500D01*
X52678011Y-100259500D01*
X52441989Y-100259500D01*
X52441983Y-100259500D01*
X52441979Y-100259501D01*
X52207989Y-100290306D01*
X51980006Y-100351394D01*
X51761954Y-100441714D01*
X51761943Y-100441719D01*
X51557545Y-100559730D01*
X51370302Y-100703406D01*
X51370295Y-100703412D01*
X51203412Y-100870295D01*
X51203408Y-100870300D01*
X51059730Y-101057545D01*
X50941719Y-101261943D01*
X50941714Y-101261954D01*
X50851394Y-101480006D01*
X50790306Y-101707989D01*
X50759501Y-101941979D01*
X50759500Y-101941995D01*
X46300500Y-101941995D01*
X46300500Y-96862014D01*
X50760000Y-96862014D01*
X50760000Y-97097985D01*
X50790799Y-97331914D01*
X50851870Y-97559837D01*
X50942160Y-97777819D01*
X50942165Y-97777828D01*
X51060144Y-97982171D01*
X51060145Y-97982172D01*
X51122721Y-98063723D01*
X51958958Y-97227487D01*
X51983978Y-97287890D01*
X52055112Y-97394351D01*
X52145649Y-97484888D01*
X52252110Y-97556022D01*
X52312511Y-97581041D01*
X51476275Y-98417277D01*
X51557827Y-98479854D01*
X51557828Y-98479855D01*
X51762171Y-98597834D01*
X51762180Y-98597839D01*
X51980163Y-98688129D01*
X51980161Y-98688129D01*
X52208085Y-98749200D01*
X52442014Y-98779999D01*
X52442029Y-98780000D01*
X52677971Y-98780000D01*
X52677985Y-98779999D01*
X52911914Y-98749200D01*
X53139837Y-98688129D01*
X53357819Y-98597839D01*
X53357828Y-98597834D01*
X53562181Y-98479850D01*
X53643723Y-98417279D01*
X53643723Y-98417276D01*
X52807487Y-97581041D01*
X52867890Y-97556022D01*
X52974351Y-97484888D01*
X53064888Y-97394351D01*
X53136022Y-97287890D01*
X53161041Y-97227487D01*
X53997276Y-98063723D01*
X53997279Y-98063723D01*
X54059850Y-97982181D01*
X54177834Y-97777828D01*
X54177839Y-97777819D01*
X54268129Y-97559837D01*
X54329200Y-97331914D01*
X54359999Y-97097985D01*
X54360000Y-97097971D01*
X54360000Y-96862028D01*
X54359999Y-96862014D01*
X54329200Y-96628085D01*
X54268129Y-96400162D01*
X54177839Y-96182180D01*
X54177834Y-96182171D01*
X54059855Y-95977828D01*
X54059854Y-95977827D01*
X53997277Y-95896275D01*
X53161041Y-96732511D01*
X53136022Y-96672110D01*
X53064888Y-96565649D01*
X52974351Y-96475112D01*
X52867890Y-96403978D01*
X52807488Y-96378958D01*
X53643723Y-95542721D01*
X53562172Y-95480145D01*
X53562171Y-95480144D01*
X53357828Y-95362165D01*
X53357819Y-95362160D01*
X53139836Y-95271870D01*
X53139838Y-95271870D01*
X52911914Y-95210799D01*
X52677985Y-95180000D01*
X52442014Y-95180000D01*
X52208085Y-95210799D01*
X51980162Y-95271870D01*
X51762180Y-95362160D01*
X51762171Y-95362165D01*
X51557828Y-95480144D01*
X51557818Y-95480150D01*
X51476275Y-95542720D01*
X51476275Y-95542721D01*
X52312512Y-96378958D01*
X52252110Y-96403978D01*
X52145649Y-96475112D01*
X52055112Y-96565649D01*
X51983978Y-96672110D01*
X51958958Y-96732512D01*
X51122721Y-95896275D01*
X51122720Y-95896275D01*
X51060150Y-95977818D01*
X51060144Y-95977828D01*
X50942165Y-96182171D01*
X50942160Y-96182180D01*
X50851870Y-96400162D01*
X50790799Y-96628085D01*
X50760000Y-96862014D01*
X46300500Y-96862014D01*
X46300500Y-83588984D01*
X48700000Y-83588984D01*
X48700000Y-83781015D01*
X48730040Y-83970684D01*
X48789383Y-84153321D01*
X48876561Y-84324415D01*
X48897798Y-84353646D01*
X49520000Y-83731445D01*
X49520000Y-83737661D01*
X49547259Y-83839394D01*
X49599920Y-83930606D01*
X49674394Y-84005080D01*
X49765606Y-84057741D01*
X49867339Y-84085000D01*
X49873554Y-84085000D01*
X49251351Y-84707200D01*
X49251352Y-84707201D01*
X49280577Y-84728434D01*
X49451678Y-84815616D01*
X49634315Y-84874959D01*
X49823985Y-84905000D01*
X50016015Y-84905000D01*
X50205684Y-84874959D01*
X50388321Y-84815616D01*
X50559419Y-84728436D01*
X50588646Y-84707201D01*
X50588646Y-84707200D01*
X49966447Y-84085000D01*
X49972661Y-84085000D01*
X50074394Y-84057741D01*
X50165606Y-84005080D01*
X50240080Y-83930606D01*
X50292741Y-83839394D01*
X50320000Y-83737661D01*
X50320000Y-83731446D01*
X50942200Y-84353646D01*
X50942201Y-84353646D01*
X50963436Y-84324419D01*
X51050616Y-84153319D01*
X51071805Y-84088108D01*
X51111242Y-84030433D01*
X51175600Y-84003234D01*
X51244447Y-84015148D01*
X51295923Y-84062392D01*
X51307667Y-84088108D01*
X51328916Y-84153505D01*
X51328917Y-84153508D01*
X51328918Y-84153509D01*
X51416135Y-84324681D01*
X51529055Y-84480102D01*
X51664898Y-84615945D01*
X51820319Y-84728865D01*
X51986163Y-84813367D01*
X51991493Y-84816083D01*
X52058265Y-84837778D01*
X52174199Y-84875447D01*
X52363945Y-84905500D01*
X52363946Y-84905500D01*
X52556054Y-84905500D01*
X52556055Y-84905500D01*
X52745801Y-84875447D01*
X52928509Y-84816082D01*
X53099681Y-84728865D01*
X53255102Y-84615945D01*
X53390945Y-84480102D01*
X53503865Y-84324681D01*
X53515015Y-84302797D01*
X53562989Y-84252002D01*
X53630809Y-84235206D01*
X53696945Y-84257743D01*
X53740397Y-84312457D01*
X53749500Y-84359092D01*
X53749500Y-88890663D01*
X53729815Y-88957702D01*
X53713181Y-88978344D01*
X52628343Y-90063181D01*
X52567020Y-90096666D01*
X52540662Y-90099500D01*
X51459998Y-90099500D01*
X51459981Y-90099501D01*
X51357203Y-90110000D01*
X51357200Y-90110001D01*
X51190668Y-90165185D01*
X51190663Y-90165187D01*
X51041342Y-90257289D01*
X50917289Y-90381342D01*
X50825187Y-90530663D01*
X50825185Y-90530668D01*
X50811647Y-90571523D01*
X50770001Y-90697203D01*
X50770001Y-90697204D01*
X50770000Y-90697204D01*
X50759500Y-90799983D01*
X50759500Y-93000001D01*
X50759501Y-93000018D01*
X50770000Y-93102796D01*
X50770001Y-93102799D01*
X50808367Y-93218579D01*
X50825186Y-93269334D01*
X50917288Y-93418656D01*
X51041344Y-93542712D01*
X51190666Y-93634814D01*
X51357203Y-93689999D01*
X51459991Y-93700500D01*
X53660008Y-93700499D01*
X53762797Y-93689999D01*
X53929334Y-93634814D01*
X54078656Y-93542712D01*
X54202712Y-93418656D01*
X54294814Y-93269334D01*
X54349999Y-93102797D01*
X54360500Y-93000009D01*
X54360499Y-91919334D01*
X54380184Y-91852296D01*
X54396813Y-91831659D01*
X55953828Y-90274646D01*
X56069524Y-90115405D01*
X56158884Y-89940026D01*
X56219709Y-89752826D01*
X56230301Y-89685951D01*
X56250500Y-89558422D01*
X56250500Y-83586577D01*
X56219709Y-83392173D01*
X56183876Y-83281891D01*
X56158884Y-83204975D01*
X56158882Y-83204972D01*
X56158882Y-83204970D01*
X56111743Y-83112455D01*
X56069524Y-83029595D01*
X55953828Y-82870354D01*
X55814646Y-82731172D01*
X55655405Y-82615476D01*
X55480029Y-82526117D01*
X55292826Y-82465290D01*
X55098422Y-82434500D01*
X55098417Y-82434500D01*
X54901583Y-82434500D01*
X54901578Y-82434500D01*
X54707173Y-82465290D01*
X54519970Y-82526117D01*
X54344594Y-82615476D01*
X54280256Y-82662221D01*
X54185354Y-82731172D01*
X54185352Y-82731174D01*
X54185351Y-82731174D01*
X54046174Y-82870351D01*
X54046174Y-82870352D01*
X54046172Y-82870354D01*
X53996485Y-82938741D01*
X53930476Y-83029594D01*
X53841116Y-83204973D01*
X53832158Y-83232543D01*
X53792719Y-83290218D01*
X53728360Y-83317414D01*
X53659514Y-83305498D01*
X53608039Y-83258253D01*
X53596296Y-83232538D01*
X53591082Y-83216491D01*
X53563919Y-83163181D01*
X53503865Y-83045319D01*
X53484181Y-83018227D01*
X53460702Y-82952422D01*
X53460500Y-82945342D01*
X53460500Y-80425782D01*
X53480185Y-80358743D01*
X53496819Y-80338101D01*
X55188102Y-78646818D01*
X55249425Y-78613333D01*
X55275783Y-78610499D01*
X56057871Y-78610499D01*
X56057872Y-78610499D01*
X56117483Y-78604091D01*
X56252331Y-78553796D01*
X56367546Y-78467546D01*
X56453796Y-78352331D01*
X56502810Y-78220916D01*
X56544681Y-78164984D01*
X56610145Y-78140566D01*
X56678418Y-78155417D01*
X56706673Y-78176569D01*
X56820213Y-78290109D01*
X56992179Y-78415048D01*
X56992181Y-78415049D01*
X56992184Y-78415051D01*
X57181588Y-78511557D01*
X57383757Y-78577246D01*
X57593713Y-78610500D01*
X57593714Y-78610500D01*
X57806286Y-78610500D01*
X57806287Y-78610500D01*
X58016243Y-78577246D01*
X58218412Y-78511557D01*
X58407816Y-78415051D01*
X58429789Y-78399086D01*
X58579786Y-78290109D01*
X58579788Y-78290106D01*
X58579792Y-78290104D01*
X58730104Y-78139792D01*
X58730106Y-78139788D01*
X58730109Y-78139786D01*
X58855048Y-77967820D01*
X58855047Y-77967820D01*
X58855051Y-77967816D01*
X58951557Y-77778412D01*
X59017246Y-77576243D01*
X59050500Y-77366287D01*
X59050500Y-77153713D01*
X59017246Y-76943757D01*
X58951557Y-76741588D01*
X58855051Y-76552184D01*
X58855049Y-76552181D01*
X58855048Y-76552179D01*
X58727241Y-76376266D01*
X58728108Y-76375635D01*
X58701641Y-76316581D01*
X58700500Y-76299800D01*
X58700500Y-75765783D01*
X58709146Y-75736337D01*
X58715669Y-75706355D01*
X58719422Y-75701341D01*
X58720185Y-75698744D01*
X58736820Y-75678101D01*
X58778104Y-75636818D01*
X58839427Y-75603333D01*
X58865784Y-75600500D01*
X62334218Y-75600500D01*
X62401257Y-75620185D01*
X62421899Y-75636819D01*
X63023181Y-76238101D01*
X63056666Y-76299424D01*
X63059500Y-76325782D01*
X63059500Y-77584237D01*
X63039815Y-77651276D01*
X63035818Y-77657122D01*
X62947713Y-77778388D01*
X62900203Y-77871630D01*
X62852228Y-77922426D01*
X62784407Y-77939220D01*
X62718272Y-77916682D01*
X62679234Y-77871628D01*
X62631861Y-77778652D01*
X62511582Y-77613105D01*
X62511582Y-77613104D01*
X62366895Y-77468417D01*
X62201349Y-77348140D01*
X62019029Y-77255244D01*
X61824413Y-77192009D01*
X61770000Y-77183390D01*
X61770000Y-78544314D01*
X61765606Y-78539920D01*
X61674394Y-78487259D01*
X61572661Y-78460000D01*
X61467339Y-78460000D01*
X61365606Y-78487259D01*
X61274394Y-78539920D01*
X61270000Y-78544314D01*
X61270000Y-77183390D01*
X61215586Y-77192009D01*
X61020970Y-77255244D01*
X60838650Y-77348140D01*
X60673105Y-77468417D01*
X60673104Y-77468417D01*
X60528417Y-77613104D01*
X60528417Y-77613105D01*
X60408140Y-77778650D01*
X60315244Y-77960968D01*
X60252009Y-78155582D01*
X60220000Y-78357682D01*
X60220000Y-78610000D01*
X61204314Y-78610000D01*
X61199920Y-78614394D01*
X61147259Y-78705606D01*
X61120000Y-78807339D01*
X61120000Y-78912661D01*
X61147259Y-79014394D01*
X61199920Y-79105606D01*
X61204314Y-79110000D01*
X60220000Y-79110000D01*
X60220000Y-79362317D01*
X60252009Y-79564417D01*
X60315244Y-79759031D01*
X60408140Y-79941349D01*
X60528417Y-80106894D01*
X60528417Y-80106895D01*
X60673104Y-80251582D01*
X60838650Y-80371859D01*
X61020968Y-80464754D01*
X61215578Y-80527988D01*
X61270000Y-80536607D01*
X61270000Y-79175686D01*
X61274394Y-79180080D01*
X61365606Y-79232741D01*
X61467339Y-79260000D01*
X61572661Y-79260000D01*
X61674394Y-79232741D01*
X61765606Y-79180080D01*
X61770000Y-79175686D01*
X61770000Y-80536606D01*
X61824421Y-80527988D01*
X62019031Y-80464754D01*
X62201349Y-80371859D01*
X62366894Y-80251582D01*
X62366895Y-80251582D01*
X62511582Y-80106895D01*
X62511582Y-80106894D01*
X62631861Y-79941347D01*
X62679234Y-79848371D01*
X62727208Y-79797575D01*
X62795028Y-79780779D01*
X62861164Y-79803316D01*
X62900203Y-79848369D01*
X62947713Y-79941611D01*
X63068028Y-80107213D01*
X63212786Y-80251971D01*
X63367749Y-80364556D01*
X63378390Y-80372287D01*
X63459016Y-80413368D01*
X63560776Y-80465218D01*
X63560778Y-80465218D01*
X63560781Y-80465220D01*
X63651856Y-80494812D01*
X63755465Y-80528477D01*
X63856557Y-80544488D01*
X63957648Y-80560500D01*
X63957649Y-80560500D01*
X64162351Y-80560500D01*
X64162352Y-80560500D01*
X64364534Y-80528477D01*
X64559219Y-80465220D01*
X64741610Y-80372287D01*
X64841794Y-80299500D01*
X64907213Y-80251971D01*
X64907215Y-80251968D01*
X64907219Y-80251966D01*
X65051966Y-80107219D01*
X65051968Y-80107215D01*
X65051971Y-80107213D01*
X65172284Y-79941614D01*
X65172286Y-79941611D01*
X65172287Y-79941610D01*
X65219516Y-79848917D01*
X65267489Y-79798123D01*
X65335310Y-79781328D01*
X65401445Y-79803865D01*
X65440483Y-79848917D01*
X65446139Y-79860016D01*
X65487715Y-79941614D01*
X65608028Y-80107213D01*
X65752786Y-80251971D01*
X65907749Y-80364556D01*
X65918390Y-80372287D01*
X65999016Y-80413368D01*
X66100776Y-80465218D01*
X66100778Y-80465218D01*
X66100781Y-80465220D01*
X66191856Y-80494812D01*
X66295465Y-80528477D01*
X66396557Y-80544488D01*
X66497648Y-80560500D01*
X66497649Y-80560500D01*
X66702351Y-80560500D01*
X66702352Y-80560500D01*
X66904534Y-80528477D01*
X67099219Y-80465220D01*
X67281610Y-80372287D01*
X67381794Y-80299500D01*
X67447213Y-80251971D01*
X67447215Y-80251968D01*
X67447219Y-80251966D01*
X67591966Y-80107219D01*
X67660021Y-80013547D01*
X67715349Y-79970882D01*
X67784963Y-79964902D01*
X67846758Y-79997507D01*
X67878044Y-80047427D01*
X67897856Y-80107215D01*
X67905186Y-80129333D01*
X67905187Y-80129336D01*
X67940069Y-80185888D01*
X67997288Y-80278656D01*
X68121344Y-80402712D01*
X68270666Y-80494814D01*
X68437203Y-80549999D01*
X68539991Y-80560500D01*
X69740008Y-80560499D01*
X69842797Y-80549999D01*
X70009334Y-80494814D01*
X70158656Y-80402712D01*
X70282712Y-80278656D01*
X70374814Y-80129334D01*
X70429999Y-79962797D01*
X70440500Y-79860009D01*
X70440499Y-77859992D01*
X70429999Y-77757203D01*
X70374814Y-77590666D01*
X70282712Y-77441344D01*
X70176818Y-77335450D01*
X70143334Y-77274127D01*
X70140500Y-77247769D01*
X70140500Y-73841456D01*
X70140499Y-73841454D01*
X70102053Y-73648175D01*
X70102052Y-73648174D01*
X70102051Y-73648165D01*
X70097819Y-73637949D01*
X70051434Y-73525965D01*
X70026632Y-73466086D01*
X70015310Y-73449142D01*
X69917140Y-73302219D01*
X69895714Y-73280793D01*
X69777782Y-73162861D01*
X69777781Y-73162860D01*
X68896570Y-72281650D01*
X68863086Y-72220328D01*
X68861088Y-72190834D01*
X68860500Y-72190834D01*
X68860500Y-71934038D01*
X68821090Y-71685215D01*
X68743241Y-71445621D01*
X68743239Y-71445618D01*
X68743239Y-71445616D01*
X68701747Y-71364184D01*
X68628870Y-71221155D01*
X68542878Y-71102797D01*
X68480798Y-71017350D01*
X68480794Y-71017345D01*
X68302654Y-70839205D01*
X68302649Y-70839201D01*
X68098848Y-70691132D01*
X68098847Y-70691131D01*
X68098845Y-70691130D01*
X68028747Y-70655413D01*
X67874383Y-70576760D01*
X67634785Y-70498910D01*
X67385962Y-70459500D01*
X67134038Y-70459500D01*
X67067738Y-70470001D01*
X66885214Y-70498910D01*
X66645616Y-70576760D01*
X66421151Y-70691132D01*
X66217350Y-70839201D01*
X66217345Y-70839205D01*
X66039205Y-71017345D01*
X66039201Y-71017350D01*
X65891132Y-71221151D01*
X65776760Y-71445616D01*
X65729549Y-71590918D01*
X65698910Y-71685215D01*
X65659500Y-71934038D01*
X65659500Y-72185962D01*
X65674656Y-72281651D01*
X65698910Y-72434785D01*
X65776760Y-72674383D01*
X65891132Y-72898848D01*
X66039201Y-73102649D01*
X66039205Y-73102654D01*
X66217345Y-73280794D01*
X66217350Y-73280798D01*
X66364653Y-73387819D01*
X66421155Y-73428870D01*
X66564184Y-73501747D01*
X66645616Y-73543239D01*
X66645618Y-73543239D01*
X66645621Y-73543241D01*
X66885215Y-73621090D01*
X67134038Y-73660500D01*
X67134039Y-73660500D01*
X67390834Y-73660500D01*
X67390834Y-73662030D01*
X67452577Y-73674976D01*
X67481651Y-73696571D01*
X68103181Y-74318101D01*
X68136666Y-74379424D01*
X68139500Y-74405782D01*
X68139500Y-77247769D01*
X68119815Y-77314808D01*
X68103182Y-77335450D01*
X67997287Y-77441345D01*
X67905187Y-77590663D01*
X67905186Y-77590666D01*
X67878045Y-77672571D01*
X67871081Y-77682628D01*
X67868311Y-77694542D01*
X67851564Y-77710816D01*
X67838271Y-77730016D01*
X67826976Y-77734711D01*
X67818205Y-77743236D01*
X67795317Y-77747873D01*
X67773755Y-77756838D01*
X67761715Y-77754681D01*
X67749727Y-77757111D01*
X67727965Y-77748638D01*
X67704979Y-77744522D01*
X67694412Y-77735574D01*
X67684618Y-77731761D01*
X67660022Y-77706453D01*
X67624180Y-77657120D01*
X67600702Y-77591315D01*
X67600500Y-77584237D01*
X67600500Y-75801456D01*
X67600499Y-75801454D01*
X67595320Y-75775420D01*
X67562051Y-75608165D01*
X67555287Y-75591836D01*
X67533609Y-75539500D01*
X67486632Y-75426086D01*
X67467796Y-75397896D01*
X67377139Y-75262217D01*
X67234686Y-75119764D01*
X67234655Y-75119735D01*
X63541479Y-71426559D01*
X63541459Y-71426537D01*
X63397785Y-71282863D01*
X63397781Y-71282860D01*
X63233920Y-71173371D01*
X63233907Y-71173364D01*
X63108839Y-71121560D01*
X63108834Y-71121558D01*
X63101247Y-71118416D01*
X63051836Y-71097949D01*
X62931004Y-71073914D01*
X62927098Y-71073137D01*
X62858543Y-71059500D01*
X62858541Y-71059500D01*
X62025782Y-71059500D01*
X61958743Y-71039815D01*
X61938101Y-71023181D01*
X61136819Y-70221899D01*
X61103334Y-70160576D01*
X61100500Y-70134218D01*
X61100500Y-64454420D01*
X61120185Y-64387381D01*
X61172989Y-64341626D01*
X61242147Y-64331682D01*
X61305703Y-64360707D01*
X61334984Y-64398123D01*
X61382146Y-64490684D01*
X61387715Y-64501614D01*
X61508028Y-64667213D01*
X61652786Y-64811971D01*
X61807749Y-64924556D01*
X61818390Y-64932287D01*
X61934607Y-64991503D01*
X62000776Y-65025218D01*
X62000778Y-65025218D01*
X62000781Y-65025220D01*
X62105137Y-65059127D01*
X62195465Y-65088477D01*
X62296557Y-65104488D01*
X62397648Y-65120500D01*
X62397649Y-65120500D01*
X62602351Y-65120500D01*
X62602352Y-65120500D01*
X62804534Y-65088477D01*
X62999219Y-65025220D01*
X63181610Y-64932287D01*
X63302877Y-64844181D01*
X63322921Y-64837029D01*
X63340827Y-64825523D01*
X63364853Y-64822068D01*
X63368683Y-64820702D01*
X63375762Y-64820500D01*
X63534218Y-64820500D01*
X63601257Y-64840185D01*
X63621899Y-64856819D01*
X64999735Y-66234655D01*
X64999764Y-66234686D01*
X65142214Y-66377136D01*
X65142218Y-66377139D01*
X65306079Y-66486628D01*
X65306083Y-66486630D01*
X65306086Y-66486632D01*
X65430926Y-66538342D01*
X65440112Y-66542147D01*
X65469415Y-66565765D01*
X65494505Y-66585982D01*
X65494507Y-66585988D01*
X65494511Y-66585991D01*
X65494518Y-66586014D01*
X65514267Y-66632512D01*
X65547947Y-66801829D01*
X65547950Y-66801839D01*
X65623364Y-66983906D01*
X65623370Y-66983917D01*
X65644834Y-67016040D01*
X65665711Y-67082717D01*
X65664205Y-67104325D01*
X65659500Y-67134036D01*
X65659500Y-67385961D01*
X65698910Y-67634785D01*
X65776760Y-67874383D01*
X65891132Y-68098848D01*
X66039201Y-68302649D01*
X66039205Y-68302654D01*
X66217345Y-68480794D01*
X66217350Y-68480798D01*
X66395117Y-68609952D01*
X66421155Y-68628870D01*
X66564184Y-68701747D01*
X66645616Y-68743239D01*
X66645618Y-68743239D01*
X66645621Y-68743241D01*
X66885215Y-68821090D01*
X67134038Y-68860500D01*
X67134039Y-68860500D01*
X67385961Y-68860500D01*
X67385962Y-68860500D01*
X67634785Y-68821090D01*
X67874379Y-68743241D01*
X68098845Y-68628870D01*
X68302656Y-68480793D01*
X68480793Y-68302656D01*
X68628870Y-68098845D01*
X68743241Y-67874379D01*
X68821090Y-67634785D01*
X68860500Y-67385962D01*
X68860500Y-67134038D01*
X68821090Y-66885215D01*
X68743241Y-66645621D01*
X68743239Y-66645618D01*
X68743239Y-66645616D01*
X68688580Y-66538342D01*
X68628870Y-66421155D01*
X68584425Y-66359982D01*
X68480798Y-66217350D01*
X68480794Y-66217345D01*
X68302654Y-66039205D01*
X68302649Y-66039201D01*
X68098848Y-65891132D01*
X68098847Y-65891131D01*
X68098845Y-65891130D01*
X67874379Y-65776759D01*
X67715651Y-65725185D01*
X67634783Y-65698909D01*
X67615100Y-65695792D01*
X67588295Y-65683084D01*
X67560478Y-65672801D01*
X67557076Y-65668284D01*
X67551966Y-65665862D01*
X67536287Y-65640681D01*
X67518444Y-65616989D01*
X67517167Y-65609973D01*
X67515036Y-65606550D01*
X67510842Y-65582524D01*
X67510500Y-65577929D01*
X67510500Y-65501459D01*
X67501404Y-65455731D01*
X67500842Y-65448179D01*
X67501228Y-65446374D01*
X67500500Y-65438974D01*
X67500500Y-64695761D01*
X67520185Y-64628722D01*
X67524165Y-64622899D01*
X67612287Y-64501610D01*
X67705220Y-64319219D01*
X67768477Y-64124534D01*
X67800500Y-63922352D01*
X67800500Y-63717648D01*
X67768477Y-63515466D01*
X67705220Y-63320781D01*
X67705218Y-63320778D01*
X67705218Y-63320776D01*
X67636819Y-63186537D01*
X67612287Y-63138390D01*
X67604556Y-63127749D01*
X67491971Y-62972786D01*
X67347213Y-62828028D01*
X67181613Y-62707715D01*
X67181612Y-62707714D01*
X67181610Y-62707713D01*
X67124653Y-62678691D01*
X66999223Y-62614781D01*
X66804534Y-62551522D01*
X66629995Y-62523878D01*
X66602352Y-62519500D01*
X66397648Y-62519500D01*
X66373329Y-62523351D01*
X66195465Y-62551522D01*
X66000776Y-62614781D01*
X65818386Y-62707715D01*
X65652786Y-62828028D01*
X65508028Y-62972786D01*
X65387715Y-63138386D01*
X65294781Y-63320776D01*
X65264345Y-63414451D01*
X65224907Y-63472126D01*
X65160548Y-63499324D01*
X65091702Y-63487409D01*
X65058733Y-63463813D01*
X64781479Y-63186559D01*
X64781459Y-63186537D01*
X64637785Y-63042863D01*
X64637781Y-63042860D01*
X64473920Y-62933371D01*
X64473907Y-62933364D01*
X64345377Y-62880126D01*
X64345373Y-62880125D01*
X64338167Y-62877140D01*
X64291836Y-62857949D01*
X64195188Y-62838724D01*
X64190897Y-62837870D01*
X64190888Y-62837868D01*
X64098544Y-62819500D01*
X64098541Y-62819500D01*
X63375762Y-62819500D01*
X63308723Y-62799815D01*
X63302877Y-62795818D01*
X63181613Y-62707715D01*
X63181612Y-62707714D01*
X63181610Y-62707713D01*
X63124653Y-62678691D01*
X62999223Y-62614781D01*
X62804534Y-62551522D01*
X62629995Y-62523878D01*
X62602352Y-62519500D01*
X62397648Y-62519500D01*
X62373329Y-62523351D01*
X62195465Y-62551522D01*
X62000776Y-62614781D01*
X61818386Y-62707715D01*
X61652786Y-62828028D01*
X61508028Y-62972786D01*
X61387715Y-63138386D01*
X61334985Y-63241874D01*
X61287010Y-63292670D01*
X61219189Y-63309465D01*
X61153054Y-63286927D01*
X61109603Y-63232212D01*
X61100500Y-63185579D01*
X61100500Y-59065782D01*
X61120185Y-58998743D01*
X61136819Y-58978101D01*
X61806760Y-58308160D01*
X62588204Y-57526715D01*
X62649525Y-57493232D01*
X62656475Y-57491926D01*
X62804534Y-57468477D01*
X62999219Y-57405220D01*
X63181610Y-57312287D01*
X63274590Y-57244732D01*
X63347213Y-57191971D01*
X63347215Y-57191968D01*
X63347219Y-57191966D01*
X63491966Y-57047219D01*
X63491968Y-57047215D01*
X63491971Y-57047213D01*
X63599839Y-56898743D01*
X63612287Y-56881610D01*
X63705220Y-56699219D01*
X63768477Y-56504534D01*
X63800500Y-56302352D01*
X63800500Y-56097648D01*
X63768477Y-55895466D01*
X63705220Y-55700781D01*
X63705218Y-55700778D01*
X63705218Y-55700776D01*
X63653376Y-55599032D01*
X63612287Y-55518390D01*
X63599936Y-55501390D01*
X63491971Y-55352786D01*
X63347213Y-55208028D01*
X63181613Y-55087715D01*
X63181612Y-55087714D01*
X63181610Y-55087713D01*
X63124653Y-55058691D01*
X62999223Y-54994781D01*
X62804534Y-54931522D01*
X62629995Y-54903878D01*
X62602352Y-54899500D01*
X62397648Y-54899500D01*
X62373329Y-54903351D01*
X62195465Y-54931522D01*
X62000776Y-54994781D01*
X61818386Y-55087715D01*
X61652786Y-55208028D01*
X61652782Y-55208032D01*
X61508035Y-55352780D01*
X61508028Y-55352786D01*
X61387715Y-55518386D01*
X61294781Y-55700778D01*
X61294780Y-55700780D01*
X61294780Y-55700781D01*
X61290527Y-55713868D01*
X61231522Y-55895468D01*
X61208073Y-56043514D01*
X61178143Y-56106649D01*
X61173281Y-56111796D01*
X59879861Y-57405218D01*
X59462220Y-57822859D01*
X59462218Y-57822861D01*
X59392538Y-57892540D01*
X59322859Y-57962219D01*
X59213371Y-58126079D01*
X59213364Y-58126092D01*
X59137950Y-58308160D01*
X59137947Y-58308170D01*
X59099500Y-58501456D01*
X59099500Y-70698544D01*
X59127480Y-70839208D01*
X59137946Y-70891827D01*
X59139716Y-70897659D01*
X59137487Y-70898335D01*
X59139887Y-70920669D01*
X59144557Y-70953147D01*
X59143601Y-70955239D01*
X59143847Y-70957525D01*
X59129164Y-70986852D01*
X59115532Y-71016703D01*
X59113597Y-71017946D01*
X59112568Y-71020002D01*
X59084364Y-71036733D01*
X59056754Y-71054477D01*
X59053717Y-71054913D01*
X59052476Y-71055650D01*
X59021819Y-71059500D01*
X58780301Y-71059500D01*
X58713262Y-71039815D01*
X58667507Y-70987011D01*
X58662598Y-70974512D01*
X58634814Y-70890665D01*
X58542712Y-70741344D01*
X58418656Y-70617288D01*
X58269335Y-70525186D01*
X58102798Y-70470001D01*
X58102796Y-70470000D01*
X58000017Y-70459500D01*
X58000010Y-70459500D01*
X56199990Y-70459500D01*
X56199982Y-70459500D01*
X56097203Y-70470000D01*
X56097202Y-70470001D01*
X56014669Y-70497349D01*
X55930667Y-70525185D01*
X55930662Y-70525187D01*
X55781342Y-70617289D01*
X55657289Y-70741342D01*
X55565187Y-70890662D01*
X55565185Y-70890667D01*
X55544481Y-70953147D01*
X55510001Y-71057202D01*
X55510001Y-71057203D01*
X55510000Y-71057203D01*
X55499500Y-71159982D01*
X55499500Y-72960017D01*
X55510000Y-73062796D01*
X55527087Y-73114361D01*
X55565186Y-73229335D01*
X55657288Y-73378656D01*
X55781344Y-73502712D01*
X55930665Y-73594814D01*
X56097202Y-73649999D01*
X56199990Y-73660500D01*
X56199995Y-73660500D01*
X57625216Y-73660500D01*
X57692255Y-73680185D01*
X57738010Y-73732989D01*
X57747954Y-73802147D01*
X57718929Y-73865703D01*
X57712897Y-73872181D01*
X57384111Y-74200968D01*
X57062220Y-74522859D01*
X57062218Y-74522861D01*
X57018522Y-74566557D01*
X56922859Y-74662219D01*
X56813371Y-74826080D01*
X56813364Y-74826093D01*
X56783692Y-74897730D01*
X56783689Y-74897739D01*
X56781903Y-74902051D01*
X56737949Y-75008164D01*
X56724870Y-75073915D01*
X56723405Y-75081277D01*
X56723404Y-75081282D01*
X56699500Y-75201457D01*
X56699500Y-76139140D01*
X56679815Y-76206179D01*
X56627011Y-76251934D01*
X56557853Y-76261878D01*
X56494297Y-76232853D01*
X56459318Y-76182473D01*
X56453797Y-76167671D01*
X56453793Y-76167664D01*
X56367547Y-76052455D01*
X56367544Y-76052452D01*
X56252335Y-75966206D01*
X56252328Y-75966202D01*
X56117482Y-75915908D01*
X56117483Y-75915908D01*
X56057883Y-75909501D01*
X56057881Y-75909500D01*
X56057873Y-75909500D01*
X56057864Y-75909500D01*
X54262129Y-75909500D01*
X54262123Y-75909501D01*
X54202516Y-75915908D01*
X54067671Y-75966202D01*
X54067664Y-75966206D01*
X53952455Y-76052452D01*
X53952452Y-76052455D01*
X53866206Y-76167664D01*
X53866202Y-76167671D01*
X53815908Y-76302517D01*
X53809501Y-76362116D01*
X53809500Y-76362135D01*
X53809500Y-77144216D01*
X53800855Y-77173656D01*
X53794332Y-77203643D01*
X53790577Y-77208658D01*
X53789815Y-77211255D01*
X53773181Y-77231897D01*
X53672181Y-77332897D01*
X53610858Y-77366382D01*
X53541166Y-77361398D01*
X53485233Y-77319526D01*
X53460816Y-77254062D01*
X53460500Y-77245216D01*
X53460500Y-71552230D01*
X53480185Y-71485191D01*
X53496819Y-71464549D01*
X53515752Y-71445616D01*
X53542712Y-71418656D01*
X53634814Y-71269334D01*
X53689999Y-71102797D01*
X53700500Y-71000009D01*
X53700499Y-69799992D01*
X53689999Y-69697203D01*
X53634814Y-69530666D01*
X53542712Y-69381344D01*
X53418656Y-69257288D01*
X53269334Y-69165186D01*
X53207558Y-69144715D01*
X53150115Y-69104943D01*
X53123292Y-69040427D01*
X53122946Y-69017280D01*
X53125921Y-68979473D01*
X52446447Y-68300000D01*
X52452661Y-68300000D01*
X52554394Y-68272741D01*
X52645606Y-68220080D01*
X52720080Y-68145606D01*
X52772741Y-68054394D01*
X52800000Y-67952661D01*
X52800000Y-67946447D01*
X53479474Y-68625921D01*
X53511859Y-68581349D01*
X53604755Y-68399031D01*
X53667990Y-68204417D01*
X53700000Y-68002317D01*
X53700000Y-67797682D01*
X53667990Y-67595582D01*
X53604755Y-67400968D01*
X53511859Y-67218650D01*
X53479474Y-67174077D01*
X53479474Y-67174076D01*
X52800000Y-67853551D01*
X52800000Y-67847339D01*
X52772741Y-67745606D01*
X52720080Y-67654394D01*
X52645606Y-67579920D01*
X52554394Y-67527259D01*
X52452661Y-67500000D01*
X52446446Y-67500000D01*
X53125922Y-66820524D01*
X53125921Y-66820523D01*
X53081359Y-66788147D01*
X53081350Y-66788141D01*
X52899031Y-66695244D01*
X52704417Y-66632009D01*
X52502317Y-66600000D01*
X52297683Y-66600000D01*
X52095582Y-66632009D01*
X51900968Y-66695244D01*
X51718644Y-66788143D01*
X51674077Y-66820523D01*
X51674077Y-66820524D01*
X52353554Y-67500000D01*
X52347339Y-67500000D01*
X52245606Y-67527259D01*
X52154394Y-67579920D01*
X52079920Y-67654394D01*
X52027259Y-67745606D01*
X52000000Y-67847339D01*
X52000000Y-67853553D01*
X51320524Y-67174077D01*
X51320523Y-67174077D01*
X51288143Y-67218644D01*
X51195244Y-67400968D01*
X51132009Y-67595582D01*
X51100000Y-67797682D01*
X51100000Y-68002317D01*
X51132009Y-68204417D01*
X51195244Y-68399031D01*
X51288141Y-68581350D01*
X51288147Y-68581359D01*
X51320523Y-68625921D01*
X51320524Y-68625922D01*
X52000000Y-67946446D01*
X52000000Y-67952661D01*
X52027259Y-68054394D01*
X52079920Y-68145606D01*
X52154394Y-68220080D01*
X52245606Y-68272741D01*
X52347339Y-68300000D01*
X52353553Y-68300000D01*
X51674076Y-68979474D01*
X51677052Y-69017282D01*
X51662687Y-69085659D01*
X51613636Y-69135415D01*
X51592440Y-69144715D01*
X51530672Y-69165184D01*
X51530663Y-69165187D01*
X51381342Y-69257289D01*
X51257289Y-69381342D01*
X51165187Y-69530663D01*
X51165186Y-69530666D01*
X51110001Y-69697203D01*
X51110001Y-69697204D01*
X51110000Y-69697204D01*
X51099500Y-69799983D01*
X51099500Y-71000001D01*
X51099501Y-71000018D01*
X51110000Y-71102796D01*
X51110001Y-71102799D01*
X51133386Y-71173368D01*
X51165186Y-71269334D01*
X51257288Y-71418656D01*
X51381344Y-71542712D01*
X51400594Y-71554585D01*
X51447320Y-71606530D01*
X51459500Y-71660125D01*
X51459500Y-73476562D01*
X51439815Y-73543601D01*
X51387011Y-73589356D01*
X51317853Y-73599300D01*
X51279206Y-73587047D01*
X51099034Y-73495245D01*
X50904417Y-73432009D01*
X50702317Y-73400000D01*
X50497683Y-73400000D01*
X50295582Y-73432009D01*
X50100968Y-73495244D01*
X49918644Y-73588143D01*
X49874077Y-73620523D01*
X49874077Y-73620524D01*
X50553553Y-74300000D01*
X50547339Y-74300000D01*
X50445606Y-74327259D01*
X50354394Y-74379920D01*
X50279920Y-74454394D01*
X50227259Y-74545606D01*
X50200000Y-74647339D01*
X50200000Y-74653553D01*
X49520524Y-73974077D01*
X49520523Y-73974077D01*
X49488143Y-74018644D01*
X49395244Y-74200968D01*
X49332009Y-74395582D01*
X49300000Y-74597682D01*
X49300000Y-74802317D01*
X49332009Y-75004417D01*
X49395244Y-75199031D01*
X49488141Y-75381350D01*
X49488147Y-75381359D01*
X49520523Y-75425921D01*
X49520524Y-75425922D01*
X50200000Y-74746446D01*
X50200000Y-74752661D01*
X50227259Y-74854394D01*
X50279920Y-74945606D01*
X50354394Y-75020080D01*
X50445606Y-75072741D01*
X50547339Y-75100000D01*
X50553552Y-75100000D01*
X49874076Y-75779474D01*
X49918652Y-75811861D01*
X49972376Y-75839234D01*
X50023172Y-75887208D01*
X50039968Y-75955028D01*
X50017431Y-76021164D01*
X49972379Y-76060203D01*
X49918386Y-76087714D01*
X49752786Y-76208028D01*
X49608028Y-76352786D01*
X49487715Y-76518386D01*
X49394781Y-76700776D01*
X49331522Y-76895465D01*
X49299500Y-77097648D01*
X49299500Y-77302351D01*
X49331522Y-77504534D01*
X49394781Y-77699223D01*
X49435131Y-77778412D01*
X49476692Y-77859981D01*
X49487715Y-77881613D01*
X49608028Y-78047213D01*
X49752786Y-78191971D01*
X49874261Y-78280226D01*
X49918390Y-78312287D01*
X49996975Y-78352328D01*
X50100776Y-78405218D01*
X50100778Y-78405218D01*
X50100781Y-78405220D01*
X50205137Y-78439127D01*
X50295465Y-78468477D01*
X50372966Y-78480751D01*
X50443513Y-78491925D01*
X50506648Y-78521854D01*
X50511797Y-78526717D01*
X51423181Y-79438101D01*
X51456666Y-79499424D01*
X51459500Y-79525782D01*
X51459500Y-82945342D01*
X51439815Y-83012381D01*
X51435818Y-83018228D01*
X51416135Y-83045318D01*
X51328917Y-83216492D01*
X51307667Y-83281892D01*
X51268229Y-83339567D01*
X51203870Y-83366765D01*
X51135024Y-83354850D01*
X51083548Y-83307605D01*
X51071805Y-83281891D01*
X51050616Y-83216680D01*
X50963434Y-83045577D01*
X50942201Y-83016352D01*
X50942200Y-83016351D01*
X50320000Y-83638552D01*
X50320000Y-83632339D01*
X50292741Y-83530606D01*
X50240080Y-83439394D01*
X50165606Y-83364920D01*
X50074394Y-83312259D01*
X49972661Y-83285000D01*
X49966447Y-83285000D01*
X50588646Y-82662798D01*
X50559415Y-82641561D01*
X50388321Y-82554383D01*
X50205684Y-82495040D01*
X50016015Y-82465000D01*
X49823985Y-82465000D01*
X49634315Y-82495040D01*
X49451678Y-82554383D01*
X49280578Y-82641564D01*
X49251352Y-82662798D01*
X49251351Y-82662798D01*
X49873554Y-83285000D01*
X49867339Y-83285000D01*
X49765606Y-83312259D01*
X49674394Y-83364920D01*
X49599920Y-83439394D01*
X49547259Y-83530606D01*
X49520000Y-83632339D01*
X49520000Y-83638553D01*
X48897798Y-83016351D01*
X48897798Y-83016352D01*
X48876564Y-83045578D01*
X48789383Y-83216678D01*
X48730040Y-83399315D01*
X48700000Y-83588984D01*
X46300500Y-83588984D01*
X46300500Y-52822944D01*
X52292246Y-52822944D01*
X52292246Y-53177055D01*
X52326954Y-53529472D01*
X52396035Y-53876769D01*
X52396036Y-53876775D01*
X52498837Y-54215662D01*
X52634352Y-54542823D01*
X52634354Y-54542828D01*
X52801275Y-54855114D01*
X52801286Y-54855132D01*
X52998023Y-55149570D01*
X53222674Y-55423308D01*
X53473064Y-55673698D01*
X53746802Y-55898349D01*
X53746808Y-55898353D01*
X54041247Y-56095091D01*
X54041256Y-56095096D01*
X54041258Y-56095097D01*
X54353544Y-56262018D01*
X54353546Y-56262018D01*
X54353552Y-56262022D01*
X54680715Y-56397537D01*
X55019585Y-56500333D01*
X55019591Y-56500334D01*
X55019597Y-56500336D01*
X55019603Y-56500337D01*
X55366900Y-56569418D01*
X55719314Y-56604127D01*
X55719317Y-56604127D01*
X56073429Y-56604127D01*
X56073432Y-56604127D01*
X56425846Y-56569418D01*
X56590485Y-56536669D01*
X56773142Y-56500337D01*
X56773148Y-56500336D01*
X56773151Y-56500334D01*
X56773161Y-56500333D01*
X57112031Y-56397537D01*
X57439194Y-56262022D01*
X57751499Y-56095091D01*
X58045938Y-55898353D01*
X58049454Y-55895468D01*
X58074241Y-55875125D01*
X58319676Y-55673703D01*
X58570076Y-55423303D01*
X58794726Y-55149565D01*
X58991464Y-54855126D01*
X59158395Y-54542821D01*
X59293910Y-54215658D01*
X59396706Y-53876788D01*
X59465791Y-53529473D01*
X59500500Y-53177059D01*
X59500500Y-52822941D01*
X59465791Y-52470527D01*
X59425111Y-52266014D01*
X59396710Y-52123230D01*
X59396709Y-52123224D01*
X59396707Y-52123218D01*
X59396706Y-52123212D01*
X59293910Y-51784342D01*
X59158395Y-51457179D01*
X59147931Y-51437603D01*
X58991470Y-51144885D01*
X58991469Y-51144883D01*
X58991464Y-51144874D01*
X58794726Y-50850435D01*
X58794722Y-50850429D01*
X58570071Y-50576691D01*
X58319681Y-50326301D01*
X58045943Y-50101650D01*
X57751505Y-49904913D01*
X57751504Y-49904912D01*
X57751499Y-49904909D01*
X57751494Y-49904906D01*
X57751487Y-49904902D01*
X57439201Y-49737981D01*
X57439196Y-49737979D01*
X57112035Y-49602464D01*
X56773148Y-49499663D01*
X56773142Y-49499662D01*
X56425845Y-49430581D01*
X56141043Y-49402532D01*
X56073432Y-49395873D01*
X55719314Y-49395873D01*
X55651703Y-49402532D01*
X55366900Y-49430581D01*
X55019603Y-49499662D01*
X55019597Y-49499663D01*
X54680710Y-49602464D01*
X54353549Y-49737979D01*
X54353544Y-49737981D01*
X54041258Y-49904902D01*
X54041240Y-49904913D01*
X53746802Y-50101650D01*
X53473064Y-50326301D01*
X53222674Y-50576691D01*
X52998023Y-50850429D01*
X52801286Y-51144867D01*
X52801275Y-51144885D01*
X52634354Y-51457171D01*
X52634352Y-51457176D01*
X52498837Y-51784337D01*
X52396036Y-52123224D01*
X52396035Y-52123230D01*
X52326954Y-52470527D01*
X52314802Y-52593920D01*
X52298664Y-52757782D01*
X52292246Y-52822944D01*
X46300500Y-52822944D01*
X46300500Y-43624500D01*
X46320185Y-43557461D01*
X46372989Y-43511706D01*
X46424500Y-43500500D01*
X140175500Y-43500500D01*
X140242539Y-43520185D01*
G37*
%TD.AperFunction*%
%TD*%
M02*
