M48
; DRILL file KiCad 10.0.1 date 2026-06-06T09:12:34
; FORMAT={-:-/ absolute / metric / decimal}
; #@! TF.CreationDate,2026-06-06T09:12:34-05:00
; #@! TF.GenerationSoftware,Kicad,Pcbnew,10.0.1
; #@! TF.FileFunction,Plated,1,2,PTH
FMAT,2
METRIC
; #@! TA.AperFunction,Plated,PTH,ViaDrill
T1C0.700
; #@! TA.AperFunction,Plated,PTH,ComponentDrill
T2C0.800
; #@! TA.AperFunction,Plated,PTH,ComponentDrill
T3C1.000
; #@! TA.AperFunction,Plated,PTH,ComponentDrill
T4C1.200
; #@! TA.AperFunction,Plated,PTH,ComponentDrill
T5C1.300
%
G90
G05
T1
X126.0Y-74.6
X134.0Y-74.6
T2
X94.52Y-46.8
X94.52Y-70.0
X97.06Y-46.8
X97.06Y-70.0
X99.6Y-46.8
X99.6Y-70.0
X102.14Y-46.8
X102.14Y-70.0
X104.68Y-46.8
X104.68Y-70.0
X107.22Y-46.8
X107.22Y-70.0
X109.76Y-46.8
X109.76Y-70.0
X112.3Y-46.8
X112.3Y-70.0
X114.84Y-46.8
X114.84Y-70.0
X117.38Y-46.8
X117.38Y-70.0
X119.92Y-46.8
X119.92Y-70.0
X122.46Y-46.8
X122.46Y-70.0
X125.0Y-46.8
X125.0Y-70.0
X134.0Y-78.43
X134.0Y-80.97
X134.0Y-83.51
X134.0Y-86.05
X138.8Y-77.0
X138.8Y-79.5
X143.6Y-88.9
X148.6Y-88.9
T3
X143.503Y-78.3
X148.503Y-78.3
T4
X94.4Y-77.39
X94.4Y-82.47
X94.4Y-87.55
T5
X98.065Y-100.0
X103.145Y-100.0
X108.225Y-100.0
X113.305Y-100.0
X118.385Y-100.0
X123.465Y-100.0
X128.545Y-100.0
X135.0Y-100.0
X140.08Y-100.0
M30
