%TF.GenerationSoftware,KiCad,Pcbnew,9.0.3*%
%TF.CreationDate,2026-01-26T07:40:47-05:00*%
%TF.ProjectId,VOLTAGE-SENSOR,564f4c54-4147-4452-9d53-454e534f522e,rev?*%
%TF.SameCoordinates,Original*%
%TF.FileFunction,Legend,Top*%
%TF.FilePolarity,Positive*%
%FSLAX46Y46*%
G04 Gerber Fmt 4.6, Leading zero omitted, Abs format (unit mm)*
G04 Created by KiCad (PCBNEW 9.0.3) date 2026-01-26 07:40:47*
%MOMM*%
%LPD*%
G01*
G04 APERTURE LIST*
%ADD10C,0.150000*%
%ADD11C,0.100000*%
%ADD12C,0.120000*%
G04 APERTURE END LIST*
D10*
X134870238Y-61489104D02*
X135346428Y-61489104D01*
X134775000Y-61774819D02*
X135108333Y-60774819D01*
X135108333Y-60774819D02*
X135441666Y-61774819D01*
X135775000Y-61774819D02*
X135775000Y-60774819D01*
X135775000Y-60774819D02*
X136346428Y-61774819D01*
X136346428Y-61774819D02*
X136346428Y-60774819D01*
X136775000Y-61489104D02*
X137251190Y-61489104D01*
X136679762Y-61774819D02*
X137013095Y-60774819D01*
X137013095Y-60774819D02*
X137346428Y-61774819D01*
X138155952Y-61774819D02*
X137679762Y-61774819D01*
X137679762Y-61774819D02*
X137679762Y-60774819D01*
X138679762Y-60774819D02*
X138870238Y-60774819D01*
X138870238Y-60774819D02*
X138965476Y-60822438D01*
X138965476Y-60822438D02*
X139060714Y-60917676D01*
X139060714Y-60917676D02*
X139108333Y-61108152D01*
X139108333Y-61108152D02*
X139108333Y-61441485D01*
X139108333Y-61441485D02*
X139060714Y-61631961D01*
X139060714Y-61631961D02*
X138965476Y-61727200D01*
X138965476Y-61727200D02*
X138870238Y-61774819D01*
X138870238Y-61774819D02*
X138679762Y-61774819D01*
X138679762Y-61774819D02*
X138584524Y-61727200D01*
X138584524Y-61727200D02*
X138489286Y-61631961D01*
X138489286Y-61631961D02*
X138441667Y-61441485D01*
X138441667Y-61441485D02*
X138441667Y-61108152D01*
X138441667Y-61108152D02*
X138489286Y-60917676D01*
X138489286Y-60917676D02*
X138584524Y-60822438D01*
X138584524Y-60822438D02*
X138679762Y-60774819D01*
X140060714Y-60822438D02*
X139965476Y-60774819D01*
X139965476Y-60774819D02*
X139822619Y-60774819D01*
X139822619Y-60774819D02*
X139679762Y-60822438D01*
X139679762Y-60822438D02*
X139584524Y-60917676D01*
X139584524Y-60917676D02*
X139536905Y-61012914D01*
X139536905Y-61012914D02*
X139489286Y-61203390D01*
X139489286Y-61203390D02*
X139489286Y-61346247D01*
X139489286Y-61346247D02*
X139536905Y-61536723D01*
X139536905Y-61536723D02*
X139584524Y-61631961D01*
X139584524Y-61631961D02*
X139679762Y-61727200D01*
X139679762Y-61727200D02*
X139822619Y-61774819D01*
X139822619Y-61774819D02*
X139917857Y-61774819D01*
X139917857Y-61774819D02*
X140060714Y-61727200D01*
X140060714Y-61727200D02*
X140108333Y-61679580D01*
X140108333Y-61679580D02*
X140108333Y-61346247D01*
X140108333Y-61346247D02*
X139917857Y-61346247D01*
X140298810Y-61870057D02*
X141060714Y-61870057D01*
X141489286Y-60774819D02*
X141679762Y-60774819D01*
X141679762Y-60774819D02*
X141775000Y-60822438D01*
X141775000Y-60822438D02*
X141870238Y-60917676D01*
X141870238Y-60917676D02*
X141917857Y-61108152D01*
X141917857Y-61108152D02*
X141917857Y-61441485D01*
X141917857Y-61441485D02*
X141870238Y-61631961D01*
X141870238Y-61631961D02*
X141775000Y-61727200D01*
X141775000Y-61727200D02*
X141679762Y-61774819D01*
X141679762Y-61774819D02*
X141489286Y-61774819D01*
X141489286Y-61774819D02*
X141394048Y-61727200D01*
X141394048Y-61727200D02*
X141298810Y-61631961D01*
X141298810Y-61631961D02*
X141251191Y-61441485D01*
X141251191Y-61441485D02*
X141251191Y-61108152D01*
X141251191Y-61108152D02*
X141298810Y-60917676D01*
X141298810Y-60917676D02*
X141394048Y-60822438D01*
X141394048Y-60822438D02*
X141489286Y-60774819D01*
X142346429Y-60774819D02*
X142346429Y-61584342D01*
X142346429Y-61584342D02*
X142394048Y-61679580D01*
X142394048Y-61679580D02*
X142441667Y-61727200D01*
X142441667Y-61727200D02*
X142536905Y-61774819D01*
X142536905Y-61774819D02*
X142727381Y-61774819D01*
X142727381Y-61774819D02*
X142822619Y-61727200D01*
X142822619Y-61727200D02*
X142870238Y-61679580D01*
X142870238Y-61679580D02*
X142917857Y-61584342D01*
X142917857Y-61584342D02*
X142917857Y-60774819D01*
X143251191Y-60774819D02*
X143822619Y-60774819D01*
X143536905Y-61774819D02*
X143536905Y-60774819D01*
X144679762Y-61774819D02*
X144108334Y-61774819D01*
X144394048Y-61774819D02*
X144394048Y-60774819D01*
X144394048Y-60774819D02*
X144298810Y-60917676D01*
X144298810Y-60917676D02*
X144203572Y-61012914D01*
X144203572Y-61012914D02*
X144108334Y-61060533D01*
X176147142Y-109254819D02*
X175813809Y-108778628D01*
X175575714Y-109254819D02*
X175575714Y-108254819D01*
X175575714Y-108254819D02*
X175956666Y-108254819D01*
X175956666Y-108254819D02*
X176051904Y-108302438D01*
X176051904Y-108302438D02*
X176099523Y-108350057D01*
X176099523Y-108350057D02*
X176147142Y-108445295D01*
X176147142Y-108445295D02*
X176147142Y-108588152D01*
X176147142Y-108588152D02*
X176099523Y-108683390D01*
X176099523Y-108683390D02*
X176051904Y-108731009D01*
X176051904Y-108731009D02*
X175956666Y-108778628D01*
X175956666Y-108778628D02*
X175575714Y-108778628D01*
X177099523Y-109254819D02*
X176528095Y-109254819D01*
X176813809Y-109254819D02*
X176813809Y-108254819D01*
X176813809Y-108254819D02*
X176718571Y-108397676D01*
X176718571Y-108397676D02*
X176623333Y-108492914D01*
X176623333Y-108492914D02*
X176528095Y-108540533D01*
X177480476Y-108350057D02*
X177528095Y-108302438D01*
X177528095Y-108302438D02*
X177623333Y-108254819D01*
X177623333Y-108254819D02*
X177861428Y-108254819D01*
X177861428Y-108254819D02*
X177956666Y-108302438D01*
X177956666Y-108302438D02*
X178004285Y-108350057D01*
X178004285Y-108350057D02*
X178051904Y-108445295D01*
X178051904Y-108445295D02*
X178051904Y-108540533D01*
X178051904Y-108540533D02*
X178004285Y-108683390D01*
X178004285Y-108683390D02*
X177432857Y-109254819D01*
X177432857Y-109254819D02*
X178051904Y-109254819D01*
X100561905Y-125664819D02*
X100561905Y-124664819D01*
X100561905Y-124664819D02*
X100800000Y-124664819D01*
X100800000Y-124664819D02*
X100942857Y-124712438D01*
X100942857Y-124712438D02*
X101038095Y-124807676D01*
X101038095Y-124807676D02*
X101085714Y-124902914D01*
X101085714Y-124902914D02*
X101133333Y-125093390D01*
X101133333Y-125093390D02*
X101133333Y-125236247D01*
X101133333Y-125236247D02*
X101085714Y-125426723D01*
X101085714Y-125426723D02*
X101038095Y-125521961D01*
X101038095Y-125521961D02*
X100942857Y-125617200D01*
X100942857Y-125617200D02*
X100800000Y-125664819D01*
X100800000Y-125664819D02*
X100561905Y-125664819D01*
X101990476Y-124664819D02*
X101800000Y-124664819D01*
X101800000Y-124664819D02*
X101704762Y-124712438D01*
X101704762Y-124712438D02*
X101657143Y-124760057D01*
X101657143Y-124760057D02*
X101561905Y-124902914D01*
X101561905Y-124902914D02*
X101514286Y-125093390D01*
X101514286Y-125093390D02*
X101514286Y-125474342D01*
X101514286Y-125474342D02*
X101561905Y-125569580D01*
X101561905Y-125569580D02*
X101609524Y-125617200D01*
X101609524Y-125617200D02*
X101704762Y-125664819D01*
X101704762Y-125664819D02*
X101895238Y-125664819D01*
X101895238Y-125664819D02*
X101990476Y-125617200D01*
X101990476Y-125617200D02*
X102038095Y-125569580D01*
X102038095Y-125569580D02*
X102085714Y-125474342D01*
X102085714Y-125474342D02*
X102085714Y-125236247D01*
X102085714Y-125236247D02*
X102038095Y-125141009D01*
X102038095Y-125141009D02*
X101990476Y-125093390D01*
X101990476Y-125093390D02*
X101895238Y-125045771D01*
X101895238Y-125045771D02*
X101704762Y-125045771D01*
X101704762Y-125045771D02*
X101609524Y-125093390D01*
X101609524Y-125093390D02*
X101561905Y-125141009D01*
X101561905Y-125141009D02*
X101514286Y-125236247D01*
X147697142Y-83354819D02*
X147363809Y-82878628D01*
X147125714Y-83354819D02*
X147125714Y-82354819D01*
X147125714Y-82354819D02*
X147506666Y-82354819D01*
X147506666Y-82354819D02*
X147601904Y-82402438D01*
X147601904Y-82402438D02*
X147649523Y-82450057D01*
X147649523Y-82450057D02*
X147697142Y-82545295D01*
X147697142Y-82545295D02*
X147697142Y-82688152D01*
X147697142Y-82688152D02*
X147649523Y-82783390D01*
X147649523Y-82783390D02*
X147601904Y-82831009D01*
X147601904Y-82831009D02*
X147506666Y-82878628D01*
X147506666Y-82878628D02*
X147125714Y-82878628D01*
X148649523Y-83354819D02*
X148078095Y-83354819D01*
X148363809Y-83354819D02*
X148363809Y-82354819D01*
X148363809Y-82354819D02*
X148268571Y-82497676D01*
X148268571Y-82497676D02*
X148173333Y-82592914D01*
X148173333Y-82592914D02*
X148078095Y-82640533D01*
X149125714Y-83354819D02*
X149316190Y-83354819D01*
X149316190Y-83354819D02*
X149411428Y-83307200D01*
X149411428Y-83307200D02*
X149459047Y-83259580D01*
X149459047Y-83259580D02*
X149554285Y-83116723D01*
X149554285Y-83116723D02*
X149601904Y-82926247D01*
X149601904Y-82926247D02*
X149601904Y-82545295D01*
X149601904Y-82545295D02*
X149554285Y-82450057D01*
X149554285Y-82450057D02*
X149506666Y-82402438D01*
X149506666Y-82402438D02*
X149411428Y-82354819D01*
X149411428Y-82354819D02*
X149220952Y-82354819D01*
X149220952Y-82354819D02*
X149125714Y-82402438D01*
X149125714Y-82402438D02*
X149078095Y-82450057D01*
X149078095Y-82450057D02*
X149030476Y-82545295D01*
X149030476Y-82545295D02*
X149030476Y-82783390D01*
X149030476Y-82783390D02*
X149078095Y-82878628D01*
X149078095Y-82878628D02*
X149125714Y-82926247D01*
X149125714Y-82926247D02*
X149220952Y-82973866D01*
X149220952Y-82973866D02*
X149411428Y-82973866D01*
X149411428Y-82973866D02*
X149506666Y-82926247D01*
X149506666Y-82926247D02*
X149554285Y-82878628D01*
X149554285Y-82878628D02*
X149601904Y-82783390D01*
X148057142Y-105979819D02*
X147723809Y-105503628D01*
X147485714Y-105979819D02*
X147485714Y-104979819D01*
X147485714Y-104979819D02*
X147866666Y-104979819D01*
X147866666Y-104979819D02*
X147961904Y-105027438D01*
X147961904Y-105027438D02*
X148009523Y-105075057D01*
X148009523Y-105075057D02*
X148057142Y-105170295D01*
X148057142Y-105170295D02*
X148057142Y-105313152D01*
X148057142Y-105313152D02*
X148009523Y-105408390D01*
X148009523Y-105408390D02*
X147961904Y-105456009D01*
X147961904Y-105456009D02*
X147866666Y-105503628D01*
X147866666Y-105503628D02*
X147485714Y-105503628D01*
X148438095Y-105075057D02*
X148485714Y-105027438D01*
X148485714Y-105027438D02*
X148580952Y-104979819D01*
X148580952Y-104979819D02*
X148819047Y-104979819D01*
X148819047Y-104979819D02*
X148914285Y-105027438D01*
X148914285Y-105027438D02*
X148961904Y-105075057D01*
X148961904Y-105075057D02*
X149009523Y-105170295D01*
X149009523Y-105170295D02*
X149009523Y-105265533D01*
X149009523Y-105265533D02*
X148961904Y-105408390D01*
X148961904Y-105408390D02*
X148390476Y-105979819D01*
X148390476Y-105979819D02*
X149009523Y-105979819D01*
X149580952Y-105408390D02*
X149485714Y-105360771D01*
X149485714Y-105360771D02*
X149438095Y-105313152D01*
X149438095Y-105313152D02*
X149390476Y-105217914D01*
X149390476Y-105217914D02*
X149390476Y-105170295D01*
X149390476Y-105170295D02*
X149438095Y-105075057D01*
X149438095Y-105075057D02*
X149485714Y-105027438D01*
X149485714Y-105027438D02*
X149580952Y-104979819D01*
X149580952Y-104979819D02*
X149771428Y-104979819D01*
X149771428Y-104979819D02*
X149866666Y-105027438D01*
X149866666Y-105027438D02*
X149914285Y-105075057D01*
X149914285Y-105075057D02*
X149961904Y-105170295D01*
X149961904Y-105170295D02*
X149961904Y-105217914D01*
X149961904Y-105217914D02*
X149914285Y-105313152D01*
X149914285Y-105313152D02*
X149866666Y-105360771D01*
X149866666Y-105360771D02*
X149771428Y-105408390D01*
X149771428Y-105408390D02*
X149580952Y-105408390D01*
X149580952Y-105408390D02*
X149485714Y-105456009D01*
X149485714Y-105456009D02*
X149438095Y-105503628D01*
X149438095Y-105503628D02*
X149390476Y-105598866D01*
X149390476Y-105598866D02*
X149390476Y-105789342D01*
X149390476Y-105789342D02*
X149438095Y-105884580D01*
X149438095Y-105884580D02*
X149485714Y-105932200D01*
X149485714Y-105932200D02*
X149580952Y-105979819D01*
X149580952Y-105979819D02*
X149771428Y-105979819D01*
X149771428Y-105979819D02*
X149866666Y-105932200D01*
X149866666Y-105932200D02*
X149914285Y-105884580D01*
X149914285Y-105884580D02*
X149961904Y-105789342D01*
X149961904Y-105789342D02*
X149961904Y-105598866D01*
X149961904Y-105598866D02*
X149914285Y-105503628D01*
X149914285Y-105503628D02*
X149866666Y-105456009D01*
X149866666Y-105456009D02*
X149771428Y-105408390D01*
X129488333Y-92109580D02*
X129440714Y-92157200D01*
X129440714Y-92157200D02*
X129297857Y-92204819D01*
X129297857Y-92204819D02*
X129202619Y-92204819D01*
X129202619Y-92204819D02*
X129059762Y-92157200D01*
X129059762Y-92157200D02*
X128964524Y-92061961D01*
X128964524Y-92061961D02*
X128916905Y-91966723D01*
X128916905Y-91966723D02*
X128869286Y-91776247D01*
X128869286Y-91776247D02*
X128869286Y-91633390D01*
X128869286Y-91633390D02*
X128916905Y-91442914D01*
X128916905Y-91442914D02*
X128964524Y-91347676D01*
X128964524Y-91347676D02*
X129059762Y-91252438D01*
X129059762Y-91252438D02*
X129202619Y-91204819D01*
X129202619Y-91204819D02*
X129297857Y-91204819D01*
X129297857Y-91204819D02*
X129440714Y-91252438D01*
X129440714Y-91252438D02*
X129488333Y-91300057D01*
X129821667Y-91204819D02*
X130488333Y-91204819D01*
X130488333Y-91204819D02*
X130059762Y-92204819D01*
D11*
X114488095Y-98957419D02*
X114488095Y-99766942D01*
X114488095Y-99766942D02*
X114535714Y-99862180D01*
X114535714Y-99862180D02*
X114583333Y-99909800D01*
X114583333Y-99909800D02*
X114678571Y-99957419D01*
X114678571Y-99957419D02*
X114869047Y-99957419D01*
X114869047Y-99957419D02*
X114964285Y-99909800D01*
X114964285Y-99909800D02*
X115011904Y-99862180D01*
X115011904Y-99862180D02*
X115059523Y-99766942D01*
X115059523Y-99766942D02*
X115059523Y-98957419D01*
X115678571Y-99385990D02*
X115583333Y-99338371D01*
X115583333Y-99338371D02*
X115535714Y-99290752D01*
X115535714Y-99290752D02*
X115488095Y-99195514D01*
X115488095Y-99195514D02*
X115488095Y-99147895D01*
X115488095Y-99147895D02*
X115535714Y-99052657D01*
X115535714Y-99052657D02*
X115583333Y-99005038D01*
X115583333Y-99005038D02*
X115678571Y-98957419D01*
X115678571Y-98957419D02*
X115869047Y-98957419D01*
X115869047Y-98957419D02*
X115964285Y-99005038D01*
X115964285Y-99005038D02*
X116011904Y-99052657D01*
X116011904Y-99052657D02*
X116059523Y-99147895D01*
X116059523Y-99147895D02*
X116059523Y-99195514D01*
X116059523Y-99195514D02*
X116011904Y-99290752D01*
X116011904Y-99290752D02*
X115964285Y-99338371D01*
X115964285Y-99338371D02*
X115869047Y-99385990D01*
X115869047Y-99385990D02*
X115678571Y-99385990D01*
X115678571Y-99385990D02*
X115583333Y-99433609D01*
X115583333Y-99433609D02*
X115535714Y-99481228D01*
X115535714Y-99481228D02*
X115488095Y-99576466D01*
X115488095Y-99576466D02*
X115488095Y-99766942D01*
X115488095Y-99766942D02*
X115535714Y-99862180D01*
X115535714Y-99862180D02*
X115583333Y-99909800D01*
X115583333Y-99909800D02*
X115678571Y-99957419D01*
X115678571Y-99957419D02*
X115869047Y-99957419D01*
X115869047Y-99957419D02*
X115964285Y-99909800D01*
X115964285Y-99909800D02*
X116011904Y-99862180D01*
X116011904Y-99862180D02*
X116059523Y-99766942D01*
X116059523Y-99766942D02*
X116059523Y-99576466D01*
X116059523Y-99576466D02*
X116011904Y-99481228D01*
X116011904Y-99481228D02*
X115964285Y-99433609D01*
X115964285Y-99433609D02*
X115869047Y-99385990D01*
D10*
X166123333Y-83354819D02*
X165790000Y-82878628D01*
X165551905Y-83354819D02*
X165551905Y-82354819D01*
X165551905Y-82354819D02*
X165932857Y-82354819D01*
X165932857Y-82354819D02*
X166028095Y-82402438D01*
X166028095Y-82402438D02*
X166075714Y-82450057D01*
X166075714Y-82450057D02*
X166123333Y-82545295D01*
X166123333Y-82545295D02*
X166123333Y-82688152D01*
X166123333Y-82688152D02*
X166075714Y-82783390D01*
X166075714Y-82783390D02*
X166028095Y-82831009D01*
X166028095Y-82831009D02*
X165932857Y-82878628D01*
X165932857Y-82878628D02*
X165551905Y-82878628D01*
X167075714Y-83354819D02*
X166504286Y-83354819D01*
X166790000Y-83354819D02*
X166790000Y-82354819D01*
X166790000Y-82354819D02*
X166694762Y-82497676D01*
X166694762Y-82497676D02*
X166599524Y-82592914D01*
X166599524Y-82592914D02*
X166504286Y-82640533D01*
D11*
X142988095Y-98207419D02*
X142988095Y-99016942D01*
X142988095Y-99016942D02*
X143035714Y-99112180D01*
X143035714Y-99112180D02*
X143083333Y-99159800D01*
X143083333Y-99159800D02*
X143178571Y-99207419D01*
X143178571Y-99207419D02*
X143369047Y-99207419D01*
X143369047Y-99207419D02*
X143464285Y-99159800D01*
X143464285Y-99159800D02*
X143511904Y-99112180D01*
X143511904Y-99112180D02*
X143559523Y-99016942D01*
X143559523Y-99016942D02*
X143559523Y-98207419D01*
X144464285Y-98207419D02*
X144273809Y-98207419D01*
X144273809Y-98207419D02*
X144178571Y-98255038D01*
X144178571Y-98255038D02*
X144130952Y-98302657D01*
X144130952Y-98302657D02*
X144035714Y-98445514D01*
X144035714Y-98445514D02*
X143988095Y-98635990D01*
X143988095Y-98635990D02*
X143988095Y-99016942D01*
X143988095Y-99016942D02*
X144035714Y-99112180D01*
X144035714Y-99112180D02*
X144083333Y-99159800D01*
X144083333Y-99159800D02*
X144178571Y-99207419D01*
X144178571Y-99207419D02*
X144369047Y-99207419D01*
X144369047Y-99207419D02*
X144464285Y-99159800D01*
X144464285Y-99159800D02*
X144511904Y-99112180D01*
X144511904Y-99112180D02*
X144559523Y-99016942D01*
X144559523Y-99016942D02*
X144559523Y-98778847D01*
X144559523Y-98778847D02*
X144511904Y-98683609D01*
X144511904Y-98683609D02*
X144464285Y-98635990D01*
X144464285Y-98635990D02*
X144369047Y-98588371D01*
X144369047Y-98588371D02*
X144178571Y-98588371D01*
X144178571Y-98588371D02*
X144083333Y-98635990D01*
X144083333Y-98635990D02*
X144035714Y-98683609D01*
X144035714Y-98683609D02*
X143988095Y-98778847D01*
D10*
X129333333Y-79109580D02*
X129285714Y-79157200D01*
X129285714Y-79157200D02*
X129142857Y-79204819D01*
X129142857Y-79204819D02*
X129047619Y-79204819D01*
X129047619Y-79204819D02*
X128904762Y-79157200D01*
X128904762Y-79157200D02*
X128809524Y-79061961D01*
X128809524Y-79061961D02*
X128761905Y-78966723D01*
X128761905Y-78966723D02*
X128714286Y-78776247D01*
X128714286Y-78776247D02*
X128714286Y-78633390D01*
X128714286Y-78633390D02*
X128761905Y-78442914D01*
X128761905Y-78442914D02*
X128809524Y-78347676D01*
X128809524Y-78347676D02*
X128904762Y-78252438D01*
X128904762Y-78252438D02*
X129047619Y-78204819D01*
X129047619Y-78204819D02*
X129142857Y-78204819D01*
X129142857Y-78204819D02*
X129285714Y-78252438D01*
X129285714Y-78252438D02*
X129333333Y-78300057D01*
X129904762Y-78633390D02*
X129809524Y-78585771D01*
X129809524Y-78585771D02*
X129761905Y-78538152D01*
X129761905Y-78538152D02*
X129714286Y-78442914D01*
X129714286Y-78442914D02*
X129714286Y-78395295D01*
X129714286Y-78395295D02*
X129761905Y-78300057D01*
X129761905Y-78300057D02*
X129809524Y-78252438D01*
X129809524Y-78252438D02*
X129904762Y-78204819D01*
X129904762Y-78204819D02*
X130095238Y-78204819D01*
X130095238Y-78204819D02*
X130190476Y-78252438D01*
X130190476Y-78252438D02*
X130238095Y-78300057D01*
X130238095Y-78300057D02*
X130285714Y-78395295D01*
X130285714Y-78395295D02*
X130285714Y-78442914D01*
X130285714Y-78442914D02*
X130238095Y-78538152D01*
X130238095Y-78538152D02*
X130190476Y-78585771D01*
X130190476Y-78585771D02*
X130095238Y-78633390D01*
X130095238Y-78633390D02*
X129904762Y-78633390D01*
X129904762Y-78633390D02*
X129809524Y-78681009D01*
X129809524Y-78681009D02*
X129761905Y-78728628D01*
X129761905Y-78728628D02*
X129714286Y-78823866D01*
X129714286Y-78823866D02*
X129714286Y-79014342D01*
X129714286Y-79014342D02*
X129761905Y-79109580D01*
X129761905Y-79109580D02*
X129809524Y-79157200D01*
X129809524Y-79157200D02*
X129904762Y-79204819D01*
X129904762Y-79204819D02*
X130095238Y-79204819D01*
X130095238Y-79204819D02*
X130190476Y-79157200D01*
X130190476Y-79157200D02*
X130238095Y-79109580D01*
X130238095Y-79109580D02*
X130285714Y-79014342D01*
X130285714Y-79014342D02*
X130285714Y-78823866D01*
X130285714Y-78823866D02*
X130238095Y-78728628D01*
X130238095Y-78728628D02*
X130190476Y-78681009D01*
X130190476Y-78681009D02*
X130095238Y-78633390D01*
X137482142Y-83354819D02*
X137148809Y-82878628D01*
X136910714Y-83354819D02*
X136910714Y-82354819D01*
X136910714Y-82354819D02*
X137291666Y-82354819D01*
X137291666Y-82354819D02*
X137386904Y-82402438D01*
X137386904Y-82402438D02*
X137434523Y-82450057D01*
X137434523Y-82450057D02*
X137482142Y-82545295D01*
X137482142Y-82545295D02*
X137482142Y-82688152D01*
X137482142Y-82688152D02*
X137434523Y-82783390D01*
X137434523Y-82783390D02*
X137386904Y-82831009D01*
X137386904Y-82831009D02*
X137291666Y-82878628D01*
X137291666Y-82878628D02*
X136910714Y-82878628D01*
X137863095Y-82450057D02*
X137910714Y-82402438D01*
X137910714Y-82402438D02*
X138005952Y-82354819D01*
X138005952Y-82354819D02*
X138244047Y-82354819D01*
X138244047Y-82354819D02*
X138339285Y-82402438D01*
X138339285Y-82402438D02*
X138386904Y-82450057D01*
X138386904Y-82450057D02*
X138434523Y-82545295D01*
X138434523Y-82545295D02*
X138434523Y-82640533D01*
X138434523Y-82640533D02*
X138386904Y-82783390D01*
X138386904Y-82783390D02*
X137815476Y-83354819D01*
X137815476Y-83354819D02*
X138434523Y-83354819D01*
X139053571Y-82354819D02*
X139148809Y-82354819D01*
X139148809Y-82354819D02*
X139244047Y-82402438D01*
X139244047Y-82402438D02*
X139291666Y-82450057D01*
X139291666Y-82450057D02*
X139339285Y-82545295D01*
X139339285Y-82545295D02*
X139386904Y-82735771D01*
X139386904Y-82735771D02*
X139386904Y-82973866D01*
X139386904Y-82973866D02*
X139339285Y-83164342D01*
X139339285Y-83164342D02*
X139291666Y-83259580D01*
X139291666Y-83259580D02*
X139244047Y-83307200D01*
X139244047Y-83307200D02*
X139148809Y-83354819D01*
X139148809Y-83354819D02*
X139053571Y-83354819D01*
X139053571Y-83354819D02*
X138958333Y-83307200D01*
X138958333Y-83307200D02*
X138910714Y-83259580D01*
X138910714Y-83259580D02*
X138863095Y-83164342D01*
X138863095Y-83164342D02*
X138815476Y-82973866D01*
X138815476Y-82973866D02*
X138815476Y-82735771D01*
X138815476Y-82735771D02*
X138863095Y-82545295D01*
X138863095Y-82545295D02*
X138910714Y-82450057D01*
X138910714Y-82450057D02*
X138958333Y-82402438D01*
X138958333Y-82402438D02*
X139053571Y-82354819D01*
X165251905Y-109254819D02*
X165251905Y-108254819D01*
X165251905Y-108254819D02*
X165490000Y-108254819D01*
X165490000Y-108254819D02*
X165632857Y-108302438D01*
X165632857Y-108302438D02*
X165728095Y-108397676D01*
X165728095Y-108397676D02*
X165775714Y-108492914D01*
X165775714Y-108492914D02*
X165823333Y-108683390D01*
X165823333Y-108683390D02*
X165823333Y-108826247D01*
X165823333Y-108826247D02*
X165775714Y-109016723D01*
X165775714Y-109016723D02*
X165728095Y-109111961D01*
X165728095Y-109111961D02*
X165632857Y-109207200D01*
X165632857Y-109207200D02*
X165490000Y-109254819D01*
X165490000Y-109254819D02*
X165251905Y-109254819D01*
X166775714Y-109254819D02*
X166204286Y-109254819D01*
X166490000Y-109254819D02*
X166490000Y-108254819D01*
X166490000Y-108254819D02*
X166394762Y-108397676D01*
X166394762Y-108397676D02*
X166299524Y-108492914D01*
X166299524Y-108492914D02*
X166204286Y-108540533D01*
X161918095Y-107954819D02*
X161918095Y-106954819D01*
X162489523Y-107954819D02*
X162060952Y-107383390D01*
X162489523Y-106954819D02*
X161918095Y-107526247D01*
X160884819Y-67071904D02*
X161694342Y-67071904D01*
X161694342Y-67071904D02*
X161789580Y-67024285D01*
X161789580Y-67024285D02*
X161837200Y-66976666D01*
X161837200Y-66976666D02*
X161884819Y-66881428D01*
X161884819Y-66881428D02*
X161884819Y-66690952D01*
X161884819Y-66690952D02*
X161837200Y-66595714D01*
X161837200Y-66595714D02*
X161789580Y-66548095D01*
X161789580Y-66548095D02*
X161694342Y-66500476D01*
X161694342Y-66500476D02*
X160884819Y-66500476D01*
X161884819Y-65500476D02*
X161884819Y-66071904D01*
X161884819Y-65786190D02*
X160884819Y-65786190D01*
X160884819Y-65786190D02*
X161027676Y-65881428D01*
X161027676Y-65881428D02*
X161122914Y-65976666D01*
X161122914Y-65976666D02*
X161170533Y-66071904D01*
X143454819Y-90867857D02*
X142978628Y-91201190D01*
X143454819Y-91439285D02*
X142454819Y-91439285D01*
X142454819Y-91439285D02*
X142454819Y-91058333D01*
X142454819Y-91058333D02*
X142502438Y-90963095D01*
X142502438Y-90963095D02*
X142550057Y-90915476D01*
X142550057Y-90915476D02*
X142645295Y-90867857D01*
X142645295Y-90867857D02*
X142788152Y-90867857D01*
X142788152Y-90867857D02*
X142883390Y-90915476D01*
X142883390Y-90915476D02*
X142931009Y-90963095D01*
X142931009Y-90963095D02*
X142978628Y-91058333D01*
X142978628Y-91058333D02*
X142978628Y-91439285D01*
X142550057Y-90486904D02*
X142502438Y-90439285D01*
X142502438Y-90439285D02*
X142454819Y-90344047D01*
X142454819Y-90344047D02*
X142454819Y-90105952D01*
X142454819Y-90105952D02*
X142502438Y-90010714D01*
X142502438Y-90010714D02*
X142550057Y-89963095D01*
X142550057Y-89963095D02*
X142645295Y-89915476D01*
X142645295Y-89915476D02*
X142740533Y-89915476D01*
X142740533Y-89915476D02*
X142883390Y-89963095D01*
X142883390Y-89963095D02*
X143454819Y-90534523D01*
X143454819Y-90534523D02*
X143454819Y-89915476D01*
X142454819Y-89582142D02*
X142454819Y-88963095D01*
X142454819Y-88963095D02*
X142835771Y-89296428D01*
X142835771Y-89296428D02*
X142835771Y-89153571D01*
X142835771Y-89153571D02*
X142883390Y-89058333D01*
X142883390Y-89058333D02*
X142931009Y-89010714D01*
X142931009Y-89010714D02*
X143026247Y-88963095D01*
X143026247Y-88963095D02*
X143264342Y-88963095D01*
X143264342Y-88963095D02*
X143359580Y-89010714D01*
X143359580Y-89010714D02*
X143407200Y-89058333D01*
X143407200Y-89058333D02*
X143454819Y-89153571D01*
X143454819Y-89153571D02*
X143454819Y-89439285D01*
X143454819Y-89439285D02*
X143407200Y-89534523D01*
X143407200Y-89534523D02*
X143359580Y-89582142D01*
X137557142Y-112904819D02*
X137223809Y-112428628D01*
X136985714Y-112904819D02*
X136985714Y-111904819D01*
X136985714Y-111904819D02*
X137366666Y-111904819D01*
X137366666Y-111904819D02*
X137461904Y-111952438D01*
X137461904Y-111952438D02*
X137509523Y-112000057D01*
X137509523Y-112000057D02*
X137557142Y-112095295D01*
X137557142Y-112095295D02*
X137557142Y-112238152D01*
X137557142Y-112238152D02*
X137509523Y-112333390D01*
X137509523Y-112333390D02*
X137461904Y-112381009D01*
X137461904Y-112381009D02*
X137366666Y-112428628D01*
X137366666Y-112428628D02*
X136985714Y-112428628D01*
X137890476Y-111904819D02*
X138509523Y-111904819D01*
X138509523Y-111904819D02*
X138176190Y-112285771D01*
X138176190Y-112285771D02*
X138319047Y-112285771D01*
X138319047Y-112285771D02*
X138414285Y-112333390D01*
X138414285Y-112333390D02*
X138461904Y-112381009D01*
X138461904Y-112381009D02*
X138509523Y-112476247D01*
X138509523Y-112476247D02*
X138509523Y-112714342D01*
X138509523Y-112714342D02*
X138461904Y-112809580D01*
X138461904Y-112809580D02*
X138414285Y-112857200D01*
X138414285Y-112857200D02*
X138319047Y-112904819D01*
X138319047Y-112904819D02*
X138033333Y-112904819D01*
X138033333Y-112904819D02*
X137938095Y-112857200D01*
X137938095Y-112857200D02*
X137890476Y-112809580D01*
X139461904Y-112904819D02*
X138890476Y-112904819D01*
X139176190Y-112904819D02*
X139176190Y-111904819D01*
X139176190Y-111904819D02*
X139080952Y-112047676D01*
X139080952Y-112047676D02*
X138985714Y-112142914D01*
X138985714Y-112142914D02*
X138890476Y-112190533D01*
X104584819Y-67071904D02*
X105394342Y-67071904D01*
X105394342Y-67071904D02*
X105489580Y-67024285D01*
X105489580Y-67024285D02*
X105537200Y-66976666D01*
X105537200Y-66976666D02*
X105584819Y-66881428D01*
X105584819Y-66881428D02*
X105584819Y-66690952D01*
X105584819Y-66690952D02*
X105537200Y-66595714D01*
X105537200Y-66595714D02*
X105489580Y-66548095D01*
X105489580Y-66548095D02*
X105394342Y-66500476D01*
X105394342Y-66500476D02*
X104584819Y-66500476D01*
X105584819Y-65976666D02*
X105584819Y-65786190D01*
X105584819Y-65786190D02*
X105537200Y-65690952D01*
X105537200Y-65690952D02*
X105489580Y-65643333D01*
X105489580Y-65643333D02*
X105346723Y-65548095D01*
X105346723Y-65548095D02*
X105156247Y-65500476D01*
X105156247Y-65500476D02*
X104775295Y-65500476D01*
X104775295Y-65500476D02*
X104680057Y-65548095D01*
X104680057Y-65548095D02*
X104632438Y-65595714D01*
X104632438Y-65595714D02*
X104584819Y-65690952D01*
X104584819Y-65690952D02*
X104584819Y-65881428D01*
X104584819Y-65881428D02*
X104632438Y-65976666D01*
X104632438Y-65976666D02*
X104680057Y-66024285D01*
X104680057Y-66024285D02*
X104775295Y-66071904D01*
X104775295Y-66071904D02*
X105013390Y-66071904D01*
X105013390Y-66071904D02*
X105108628Y-66024285D01*
X105108628Y-66024285D02*
X105156247Y-65976666D01*
X105156247Y-65976666D02*
X105203866Y-65881428D01*
X105203866Y-65881428D02*
X105203866Y-65690952D01*
X105203866Y-65690952D02*
X105156247Y-65595714D01*
X105156247Y-65595714D02*
X105108628Y-65548095D01*
X105108628Y-65548095D02*
X105013390Y-65500476D01*
X137557142Y-102231486D02*
X137223809Y-101755295D01*
X136985714Y-102231486D02*
X136985714Y-101231486D01*
X136985714Y-101231486D02*
X137366666Y-101231486D01*
X137366666Y-101231486D02*
X137461904Y-101279105D01*
X137461904Y-101279105D02*
X137509523Y-101326724D01*
X137509523Y-101326724D02*
X137557142Y-101421962D01*
X137557142Y-101421962D02*
X137557142Y-101564819D01*
X137557142Y-101564819D02*
X137509523Y-101660057D01*
X137509523Y-101660057D02*
X137461904Y-101707676D01*
X137461904Y-101707676D02*
X137366666Y-101755295D01*
X137366666Y-101755295D02*
X136985714Y-101755295D01*
X137938095Y-101326724D02*
X137985714Y-101279105D01*
X137985714Y-101279105D02*
X138080952Y-101231486D01*
X138080952Y-101231486D02*
X138319047Y-101231486D01*
X138319047Y-101231486D02*
X138414285Y-101279105D01*
X138414285Y-101279105D02*
X138461904Y-101326724D01*
X138461904Y-101326724D02*
X138509523Y-101421962D01*
X138509523Y-101421962D02*
X138509523Y-101517200D01*
X138509523Y-101517200D02*
X138461904Y-101660057D01*
X138461904Y-101660057D02*
X137890476Y-102231486D01*
X137890476Y-102231486D02*
X138509523Y-102231486D01*
X139414285Y-101231486D02*
X138938095Y-101231486D01*
X138938095Y-101231486D02*
X138890476Y-101707676D01*
X138890476Y-101707676D02*
X138938095Y-101660057D01*
X138938095Y-101660057D02*
X139033333Y-101612438D01*
X139033333Y-101612438D02*
X139271428Y-101612438D01*
X139271428Y-101612438D02*
X139366666Y-101660057D01*
X139366666Y-101660057D02*
X139414285Y-101707676D01*
X139414285Y-101707676D02*
X139461904Y-101802914D01*
X139461904Y-101802914D02*
X139461904Y-102041009D01*
X139461904Y-102041009D02*
X139414285Y-102136247D01*
X139414285Y-102136247D02*
X139366666Y-102183867D01*
X139366666Y-102183867D02*
X139271428Y-102231486D01*
X139271428Y-102231486D02*
X139033333Y-102231486D01*
X139033333Y-102231486D02*
X138938095Y-102183867D01*
X138938095Y-102183867D02*
X138890476Y-102136247D01*
X167154819Y-90266666D02*
X166678628Y-90599999D01*
X167154819Y-90838094D02*
X166154819Y-90838094D01*
X166154819Y-90838094D02*
X166154819Y-90457142D01*
X166154819Y-90457142D02*
X166202438Y-90361904D01*
X166202438Y-90361904D02*
X166250057Y-90314285D01*
X166250057Y-90314285D02*
X166345295Y-90266666D01*
X166345295Y-90266666D02*
X166488152Y-90266666D01*
X166488152Y-90266666D02*
X166583390Y-90314285D01*
X166583390Y-90314285D02*
X166631009Y-90361904D01*
X166631009Y-90361904D02*
X166678628Y-90457142D01*
X166678628Y-90457142D02*
X166678628Y-90838094D01*
X166154819Y-89361904D02*
X166154819Y-89838094D01*
X166154819Y-89838094D02*
X166631009Y-89885713D01*
X166631009Y-89885713D02*
X166583390Y-89838094D01*
X166583390Y-89838094D02*
X166535771Y-89742856D01*
X166535771Y-89742856D02*
X166535771Y-89504761D01*
X166535771Y-89504761D02*
X166583390Y-89409523D01*
X166583390Y-89409523D02*
X166631009Y-89361904D01*
X166631009Y-89361904D02*
X166726247Y-89314285D01*
X166726247Y-89314285D02*
X166964342Y-89314285D01*
X166964342Y-89314285D02*
X167059580Y-89361904D01*
X167059580Y-89361904D02*
X167107200Y-89409523D01*
X167107200Y-89409523D02*
X167154819Y-89504761D01*
X167154819Y-89504761D02*
X167154819Y-89742856D01*
X167154819Y-89742856D02*
X167107200Y-89838094D01*
X167107200Y-89838094D02*
X167059580Y-89885713D01*
X154954819Y-102371905D02*
X154478628Y-102705238D01*
X154954819Y-102943333D02*
X153954819Y-102943333D01*
X153954819Y-102943333D02*
X153954819Y-102562381D01*
X153954819Y-102562381D02*
X154002438Y-102467143D01*
X154002438Y-102467143D02*
X154050057Y-102419524D01*
X154050057Y-102419524D02*
X154145295Y-102371905D01*
X154145295Y-102371905D02*
X154288152Y-102371905D01*
X154288152Y-102371905D02*
X154383390Y-102419524D01*
X154383390Y-102419524D02*
X154431009Y-102467143D01*
X154431009Y-102467143D02*
X154478628Y-102562381D01*
X154478628Y-102562381D02*
X154478628Y-102943333D01*
X153954819Y-102086190D02*
X154954819Y-101752857D01*
X154954819Y-101752857D02*
X153954819Y-101419524D01*
X154954819Y-100562381D02*
X154954819Y-101133809D01*
X154954819Y-100848095D02*
X153954819Y-100848095D01*
X153954819Y-100848095D02*
X154097676Y-100943333D01*
X154097676Y-100943333D02*
X154192914Y-101038571D01*
X154192914Y-101038571D02*
X154240533Y-101133809D01*
X154954819Y-113788571D02*
X154478628Y-114121904D01*
X154954819Y-114359999D02*
X153954819Y-114359999D01*
X153954819Y-114359999D02*
X153954819Y-113979047D01*
X153954819Y-113979047D02*
X154002438Y-113883809D01*
X154002438Y-113883809D02*
X154050057Y-113836190D01*
X154050057Y-113836190D02*
X154145295Y-113788571D01*
X154145295Y-113788571D02*
X154288152Y-113788571D01*
X154288152Y-113788571D02*
X154383390Y-113836190D01*
X154383390Y-113836190D02*
X154431009Y-113883809D01*
X154431009Y-113883809D02*
X154478628Y-113979047D01*
X154478628Y-113979047D02*
X154478628Y-114359999D01*
X153954819Y-113502856D02*
X154954819Y-113169523D01*
X154954819Y-113169523D02*
X153954819Y-112836190D01*
X154050057Y-112550475D02*
X154002438Y-112502856D01*
X154002438Y-112502856D02*
X153954819Y-112407618D01*
X153954819Y-112407618D02*
X153954819Y-112169523D01*
X153954819Y-112169523D02*
X154002438Y-112074285D01*
X154002438Y-112074285D02*
X154050057Y-112026666D01*
X154050057Y-112026666D02*
X154145295Y-111979047D01*
X154145295Y-111979047D02*
X154240533Y-111979047D01*
X154240533Y-111979047D02*
X154383390Y-112026666D01*
X154383390Y-112026666D02*
X154954819Y-112598094D01*
X154954819Y-112598094D02*
X154954819Y-111979047D01*
X130511905Y-119704819D02*
X130511905Y-118704819D01*
X130511905Y-118704819D02*
X130750000Y-118704819D01*
X130750000Y-118704819D02*
X130892857Y-118752438D01*
X130892857Y-118752438D02*
X130988095Y-118847676D01*
X130988095Y-118847676D02*
X131035714Y-118942914D01*
X131035714Y-118942914D02*
X131083333Y-119133390D01*
X131083333Y-119133390D02*
X131083333Y-119276247D01*
X131083333Y-119276247D02*
X131035714Y-119466723D01*
X131035714Y-119466723D02*
X130988095Y-119561961D01*
X130988095Y-119561961D02*
X130892857Y-119657200D01*
X130892857Y-119657200D02*
X130750000Y-119704819D01*
X130750000Y-119704819D02*
X130511905Y-119704819D01*
X131940476Y-119038152D02*
X131940476Y-119704819D01*
X131702381Y-118657200D02*
X131464286Y-119371485D01*
X131464286Y-119371485D02*
X132083333Y-119371485D01*
X165257142Y-112454819D02*
X164923809Y-111978628D01*
X164685714Y-112454819D02*
X164685714Y-111454819D01*
X164685714Y-111454819D02*
X165066666Y-111454819D01*
X165066666Y-111454819D02*
X165161904Y-111502438D01*
X165161904Y-111502438D02*
X165209523Y-111550057D01*
X165209523Y-111550057D02*
X165257142Y-111645295D01*
X165257142Y-111645295D02*
X165257142Y-111788152D01*
X165257142Y-111788152D02*
X165209523Y-111883390D01*
X165209523Y-111883390D02*
X165161904Y-111931009D01*
X165161904Y-111931009D02*
X165066666Y-111978628D01*
X165066666Y-111978628D02*
X164685714Y-111978628D01*
X166209523Y-112454819D02*
X165638095Y-112454819D01*
X165923809Y-112454819D02*
X165923809Y-111454819D01*
X165923809Y-111454819D02*
X165828571Y-111597676D01*
X165828571Y-111597676D02*
X165733333Y-111692914D01*
X165733333Y-111692914D02*
X165638095Y-111740533D01*
X167066666Y-111788152D02*
X167066666Y-112454819D01*
X166828571Y-111407200D02*
X166590476Y-112121485D01*
X166590476Y-112121485D02*
X167209523Y-112121485D01*
X137557142Y-98379819D02*
X137223809Y-97903628D01*
X136985714Y-98379819D02*
X136985714Y-97379819D01*
X136985714Y-97379819D02*
X137366666Y-97379819D01*
X137366666Y-97379819D02*
X137461904Y-97427438D01*
X137461904Y-97427438D02*
X137509523Y-97475057D01*
X137509523Y-97475057D02*
X137557142Y-97570295D01*
X137557142Y-97570295D02*
X137557142Y-97713152D01*
X137557142Y-97713152D02*
X137509523Y-97808390D01*
X137509523Y-97808390D02*
X137461904Y-97856009D01*
X137461904Y-97856009D02*
X137366666Y-97903628D01*
X137366666Y-97903628D02*
X136985714Y-97903628D01*
X137938095Y-97475057D02*
X137985714Y-97427438D01*
X137985714Y-97427438D02*
X138080952Y-97379819D01*
X138080952Y-97379819D02*
X138319047Y-97379819D01*
X138319047Y-97379819D02*
X138414285Y-97427438D01*
X138414285Y-97427438D02*
X138461904Y-97475057D01*
X138461904Y-97475057D02*
X138509523Y-97570295D01*
X138509523Y-97570295D02*
X138509523Y-97665533D01*
X138509523Y-97665533D02*
X138461904Y-97808390D01*
X138461904Y-97808390D02*
X137890476Y-98379819D01*
X137890476Y-98379819D02*
X138509523Y-98379819D01*
X139366666Y-97713152D02*
X139366666Y-98379819D01*
X139128571Y-97332200D02*
X138890476Y-98046485D01*
X138890476Y-98046485D02*
X139509523Y-98046485D01*
X100657142Y-91859580D02*
X100609523Y-91907200D01*
X100609523Y-91907200D02*
X100466666Y-91954819D01*
X100466666Y-91954819D02*
X100371428Y-91954819D01*
X100371428Y-91954819D02*
X100228571Y-91907200D01*
X100228571Y-91907200D02*
X100133333Y-91811961D01*
X100133333Y-91811961D02*
X100085714Y-91716723D01*
X100085714Y-91716723D02*
X100038095Y-91526247D01*
X100038095Y-91526247D02*
X100038095Y-91383390D01*
X100038095Y-91383390D02*
X100085714Y-91192914D01*
X100085714Y-91192914D02*
X100133333Y-91097676D01*
X100133333Y-91097676D02*
X100228571Y-91002438D01*
X100228571Y-91002438D02*
X100371428Y-90954819D01*
X100371428Y-90954819D02*
X100466666Y-90954819D01*
X100466666Y-90954819D02*
X100609523Y-91002438D01*
X100609523Y-91002438D02*
X100657142Y-91050057D01*
X101609523Y-91954819D02*
X101038095Y-91954819D01*
X101323809Y-91954819D02*
X101323809Y-90954819D01*
X101323809Y-90954819D02*
X101228571Y-91097676D01*
X101228571Y-91097676D02*
X101133333Y-91192914D01*
X101133333Y-91192914D02*
X101038095Y-91240533D01*
X102561904Y-91954819D02*
X101990476Y-91954819D01*
X102276190Y-91954819D02*
X102276190Y-90954819D01*
X102276190Y-90954819D02*
X102180952Y-91097676D01*
X102180952Y-91097676D02*
X102085714Y-91192914D01*
X102085714Y-91192914D02*
X101990476Y-91240533D01*
X109147142Y-83754819D02*
X108813809Y-83278628D01*
X108575714Y-83754819D02*
X108575714Y-82754819D01*
X108575714Y-82754819D02*
X108956666Y-82754819D01*
X108956666Y-82754819D02*
X109051904Y-82802438D01*
X109051904Y-82802438D02*
X109099523Y-82850057D01*
X109099523Y-82850057D02*
X109147142Y-82945295D01*
X109147142Y-82945295D02*
X109147142Y-83088152D01*
X109147142Y-83088152D02*
X109099523Y-83183390D01*
X109099523Y-83183390D02*
X109051904Y-83231009D01*
X109051904Y-83231009D02*
X108956666Y-83278628D01*
X108956666Y-83278628D02*
X108575714Y-83278628D01*
X109480476Y-82754819D02*
X110099523Y-82754819D01*
X110099523Y-82754819D02*
X109766190Y-83135771D01*
X109766190Y-83135771D02*
X109909047Y-83135771D01*
X109909047Y-83135771D02*
X110004285Y-83183390D01*
X110004285Y-83183390D02*
X110051904Y-83231009D01*
X110051904Y-83231009D02*
X110099523Y-83326247D01*
X110099523Y-83326247D02*
X110099523Y-83564342D01*
X110099523Y-83564342D02*
X110051904Y-83659580D01*
X110051904Y-83659580D02*
X110004285Y-83707200D01*
X110004285Y-83707200D02*
X109909047Y-83754819D01*
X109909047Y-83754819D02*
X109623333Y-83754819D01*
X109623333Y-83754819D02*
X109528095Y-83707200D01*
X109528095Y-83707200D02*
X109480476Y-83659580D01*
X110432857Y-82754819D02*
X111099523Y-82754819D01*
X111099523Y-82754819D02*
X110670952Y-83754819D01*
X100607142Y-61109580D02*
X100559523Y-61157200D01*
X100559523Y-61157200D02*
X100416666Y-61204819D01*
X100416666Y-61204819D02*
X100321428Y-61204819D01*
X100321428Y-61204819D02*
X100178571Y-61157200D01*
X100178571Y-61157200D02*
X100083333Y-61061961D01*
X100083333Y-61061961D02*
X100035714Y-60966723D01*
X100035714Y-60966723D02*
X99988095Y-60776247D01*
X99988095Y-60776247D02*
X99988095Y-60633390D01*
X99988095Y-60633390D02*
X100035714Y-60442914D01*
X100035714Y-60442914D02*
X100083333Y-60347676D01*
X100083333Y-60347676D02*
X100178571Y-60252438D01*
X100178571Y-60252438D02*
X100321428Y-60204819D01*
X100321428Y-60204819D02*
X100416666Y-60204819D01*
X100416666Y-60204819D02*
X100559523Y-60252438D01*
X100559523Y-60252438D02*
X100607142Y-60300057D01*
X101559523Y-61204819D02*
X100988095Y-61204819D01*
X101273809Y-61204819D02*
X101273809Y-60204819D01*
X101273809Y-60204819D02*
X101178571Y-60347676D01*
X101178571Y-60347676D02*
X101083333Y-60442914D01*
X101083333Y-60442914D02*
X100988095Y-60490533D01*
X102178571Y-60204819D02*
X102273809Y-60204819D01*
X102273809Y-60204819D02*
X102369047Y-60252438D01*
X102369047Y-60252438D02*
X102416666Y-60300057D01*
X102416666Y-60300057D02*
X102464285Y-60395295D01*
X102464285Y-60395295D02*
X102511904Y-60585771D01*
X102511904Y-60585771D02*
X102511904Y-60823866D01*
X102511904Y-60823866D02*
X102464285Y-61014342D01*
X102464285Y-61014342D02*
X102416666Y-61109580D01*
X102416666Y-61109580D02*
X102369047Y-61157200D01*
X102369047Y-61157200D02*
X102273809Y-61204819D01*
X102273809Y-61204819D02*
X102178571Y-61204819D01*
X102178571Y-61204819D02*
X102083333Y-61157200D01*
X102083333Y-61157200D02*
X102035714Y-61109580D01*
X102035714Y-61109580D02*
X101988095Y-61014342D01*
X101988095Y-61014342D02*
X101940476Y-60823866D01*
X101940476Y-60823866D02*
X101940476Y-60585771D01*
X101940476Y-60585771D02*
X101988095Y-60395295D01*
X101988095Y-60395295D02*
X102035714Y-60300057D01*
X102035714Y-60300057D02*
X102083333Y-60252438D01*
X102083333Y-60252438D02*
X102178571Y-60204819D01*
X106954819Y-120742857D02*
X106478628Y-121076190D01*
X106954819Y-121314285D02*
X105954819Y-121314285D01*
X105954819Y-121314285D02*
X105954819Y-120933333D01*
X105954819Y-120933333D02*
X106002438Y-120838095D01*
X106002438Y-120838095D02*
X106050057Y-120790476D01*
X106050057Y-120790476D02*
X106145295Y-120742857D01*
X106145295Y-120742857D02*
X106288152Y-120742857D01*
X106288152Y-120742857D02*
X106383390Y-120790476D01*
X106383390Y-120790476D02*
X106431009Y-120838095D01*
X106431009Y-120838095D02*
X106478628Y-120933333D01*
X106478628Y-120933333D02*
X106478628Y-121314285D01*
X105954819Y-119838095D02*
X105954819Y-120314285D01*
X105954819Y-120314285D02*
X106431009Y-120361904D01*
X106431009Y-120361904D02*
X106383390Y-120314285D01*
X106383390Y-120314285D02*
X106335771Y-120219047D01*
X106335771Y-120219047D02*
X106335771Y-119980952D01*
X106335771Y-119980952D02*
X106383390Y-119885714D01*
X106383390Y-119885714D02*
X106431009Y-119838095D01*
X106431009Y-119838095D02*
X106526247Y-119790476D01*
X106526247Y-119790476D02*
X106764342Y-119790476D01*
X106764342Y-119790476D02*
X106859580Y-119838095D01*
X106859580Y-119838095D02*
X106907200Y-119885714D01*
X106907200Y-119885714D02*
X106954819Y-119980952D01*
X106954819Y-119980952D02*
X106954819Y-120219047D01*
X106954819Y-120219047D02*
X106907200Y-120314285D01*
X106907200Y-120314285D02*
X106859580Y-120361904D01*
X105954819Y-119171428D02*
X105954819Y-119076190D01*
X105954819Y-119076190D02*
X106002438Y-118980952D01*
X106002438Y-118980952D02*
X106050057Y-118933333D01*
X106050057Y-118933333D02*
X106145295Y-118885714D01*
X106145295Y-118885714D02*
X106335771Y-118838095D01*
X106335771Y-118838095D02*
X106573866Y-118838095D01*
X106573866Y-118838095D02*
X106764342Y-118885714D01*
X106764342Y-118885714D02*
X106859580Y-118933333D01*
X106859580Y-118933333D02*
X106907200Y-118980952D01*
X106907200Y-118980952D02*
X106954819Y-119076190D01*
X106954819Y-119076190D02*
X106954819Y-119171428D01*
X106954819Y-119171428D02*
X106907200Y-119266666D01*
X106907200Y-119266666D02*
X106859580Y-119314285D01*
X106859580Y-119314285D02*
X106764342Y-119361904D01*
X106764342Y-119361904D02*
X106573866Y-119409523D01*
X106573866Y-119409523D02*
X106335771Y-119409523D01*
X106335771Y-119409523D02*
X106145295Y-119361904D01*
X106145295Y-119361904D02*
X106050057Y-119314285D01*
X106050057Y-119314285D02*
X106002438Y-119266666D01*
X106002438Y-119266666D02*
X105954819Y-119171428D01*
X170954819Y-90466666D02*
X170478628Y-90799999D01*
X170954819Y-91038094D02*
X169954819Y-91038094D01*
X169954819Y-91038094D02*
X169954819Y-90657142D01*
X169954819Y-90657142D02*
X170002438Y-90561904D01*
X170002438Y-90561904D02*
X170050057Y-90514285D01*
X170050057Y-90514285D02*
X170145295Y-90466666D01*
X170145295Y-90466666D02*
X170288152Y-90466666D01*
X170288152Y-90466666D02*
X170383390Y-90514285D01*
X170383390Y-90514285D02*
X170431009Y-90561904D01*
X170431009Y-90561904D02*
X170478628Y-90657142D01*
X170478628Y-90657142D02*
X170478628Y-91038094D01*
X169954819Y-89609523D02*
X169954819Y-89799999D01*
X169954819Y-89799999D02*
X170002438Y-89895237D01*
X170002438Y-89895237D02*
X170050057Y-89942856D01*
X170050057Y-89942856D02*
X170192914Y-90038094D01*
X170192914Y-90038094D02*
X170383390Y-90085713D01*
X170383390Y-90085713D02*
X170764342Y-90085713D01*
X170764342Y-90085713D02*
X170859580Y-90038094D01*
X170859580Y-90038094D02*
X170907200Y-89990475D01*
X170907200Y-89990475D02*
X170954819Y-89895237D01*
X170954819Y-89895237D02*
X170954819Y-89704761D01*
X170954819Y-89704761D02*
X170907200Y-89609523D01*
X170907200Y-89609523D02*
X170859580Y-89561904D01*
X170859580Y-89561904D02*
X170764342Y-89514285D01*
X170764342Y-89514285D02*
X170526247Y-89514285D01*
X170526247Y-89514285D02*
X170431009Y-89561904D01*
X170431009Y-89561904D02*
X170383390Y-89609523D01*
X170383390Y-89609523D02*
X170335771Y-89704761D01*
X170335771Y-89704761D02*
X170335771Y-89895237D01*
X170335771Y-89895237D02*
X170383390Y-89990475D01*
X170383390Y-89990475D02*
X170431009Y-90038094D01*
X170431009Y-90038094D02*
X170526247Y-90085713D01*
X112104819Y-90942857D02*
X111628628Y-91276190D01*
X112104819Y-91514285D02*
X111104819Y-91514285D01*
X111104819Y-91514285D02*
X111104819Y-91133333D01*
X111104819Y-91133333D02*
X111152438Y-91038095D01*
X111152438Y-91038095D02*
X111200057Y-90990476D01*
X111200057Y-90990476D02*
X111295295Y-90942857D01*
X111295295Y-90942857D02*
X111438152Y-90942857D01*
X111438152Y-90942857D02*
X111533390Y-90990476D01*
X111533390Y-90990476D02*
X111581009Y-91038095D01*
X111581009Y-91038095D02*
X111628628Y-91133333D01*
X111628628Y-91133333D02*
X111628628Y-91514285D01*
X111104819Y-90609523D02*
X111104819Y-89990476D01*
X111104819Y-89990476D02*
X111485771Y-90323809D01*
X111485771Y-90323809D02*
X111485771Y-90180952D01*
X111485771Y-90180952D02*
X111533390Y-90085714D01*
X111533390Y-90085714D02*
X111581009Y-90038095D01*
X111581009Y-90038095D02*
X111676247Y-89990476D01*
X111676247Y-89990476D02*
X111914342Y-89990476D01*
X111914342Y-89990476D02*
X112009580Y-90038095D01*
X112009580Y-90038095D02*
X112057200Y-90085714D01*
X112057200Y-90085714D02*
X112104819Y-90180952D01*
X112104819Y-90180952D02*
X112104819Y-90466666D01*
X112104819Y-90466666D02*
X112057200Y-90561904D01*
X112057200Y-90561904D02*
X112009580Y-90609523D01*
X112104819Y-89514285D02*
X112104819Y-89323809D01*
X112104819Y-89323809D02*
X112057200Y-89228571D01*
X112057200Y-89228571D02*
X112009580Y-89180952D01*
X112009580Y-89180952D02*
X111866723Y-89085714D01*
X111866723Y-89085714D02*
X111676247Y-89038095D01*
X111676247Y-89038095D02*
X111295295Y-89038095D01*
X111295295Y-89038095D02*
X111200057Y-89085714D01*
X111200057Y-89085714D02*
X111152438Y-89133333D01*
X111152438Y-89133333D02*
X111104819Y-89228571D01*
X111104819Y-89228571D02*
X111104819Y-89419047D01*
X111104819Y-89419047D02*
X111152438Y-89514285D01*
X111152438Y-89514285D02*
X111200057Y-89561904D01*
X111200057Y-89561904D02*
X111295295Y-89609523D01*
X111295295Y-89609523D02*
X111533390Y-89609523D01*
X111533390Y-89609523D02*
X111628628Y-89561904D01*
X111628628Y-89561904D02*
X111676247Y-89514285D01*
X111676247Y-89514285D02*
X111723866Y-89419047D01*
X111723866Y-89419047D02*
X111723866Y-89228571D01*
X111723866Y-89228571D02*
X111676247Y-89133333D01*
X111676247Y-89133333D02*
X111628628Y-89085714D01*
X111628628Y-89085714D02*
X111533390Y-89038095D01*
X98089819Y-102005238D02*
X97613628Y-102338571D01*
X98089819Y-102576666D02*
X97089819Y-102576666D01*
X97089819Y-102576666D02*
X97089819Y-102195714D01*
X97089819Y-102195714D02*
X97137438Y-102100476D01*
X97137438Y-102100476D02*
X97185057Y-102052857D01*
X97185057Y-102052857D02*
X97280295Y-102005238D01*
X97280295Y-102005238D02*
X97423152Y-102005238D01*
X97423152Y-102005238D02*
X97518390Y-102052857D01*
X97518390Y-102052857D02*
X97566009Y-102100476D01*
X97566009Y-102100476D02*
X97613628Y-102195714D01*
X97613628Y-102195714D02*
X97613628Y-102576666D01*
X97089819Y-101719523D02*
X98089819Y-101386190D01*
X98089819Y-101386190D02*
X97089819Y-101052857D01*
X97089819Y-100243333D02*
X97089819Y-100719523D01*
X97089819Y-100719523D02*
X97566009Y-100767142D01*
X97566009Y-100767142D02*
X97518390Y-100719523D01*
X97518390Y-100719523D02*
X97470771Y-100624285D01*
X97470771Y-100624285D02*
X97470771Y-100386190D01*
X97470771Y-100386190D02*
X97518390Y-100290952D01*
X97518390Y-100290952D02*
X97566009Y-100243333D01*
X97566009Y-100243333D02*
X97661247Y-100195714D01*
X97661247Y-100195714D02*
X97899342Y-100195714D01*
X97899342Y-100195714D02*
X97994580Y-100243333D01*
X97994580Y-100243333D02*
X98042200Y-100290952D01*
X98042200Y-100290952D02*
X98089819Y-100386190D01*
X98089819Y-100386190D02*
X98089819Y-100624285D01*
X98089819Y-100624285D02*
X98042200Y-100719523D01*
X98042200Y-100719523D02*
X97994580Y-100767142D01*
X137507142Y-79954819D02*
X137173809Y-79478628D01*
X136935714Y-79954819D02*
X136935714Y-78954819D01*
X136935714Y-78954819D02*
X137316666Y-78954819D01*
X137316666Y-78954819D02*
X137411904Y-79002438D01*
X137411904Y-79002438D02*
X137459523Y-79050057D01*
X137459523Y-79050057D02*
X137507142Y-79145295D01*
X137507142Y-79145295D02*
X137507142Y-79288152D01*
X137507142Y-79288152D02*
X137459523Y-79383390D01*
X137459523Y-79383390D02*
X137411904Y-79431009D01*
X137411904Y-79431009D02*
X137316666Y-79478628D01*
X137316666Y-79478628D02*
X136935714Y-79478628D01*
X138459523Y-79954819D02*
X137888095Y-79954819D01*
X138173809Y-79954819D02*
X138173809Y-78954819D01*
X138173809Y-78954819D02*
X138078571Y-79097676D01*
X138078571Y-79097676D02*
X137983333Y-79192914D01*
X137983333Y-79192914D02*
X137888095Y-79240533D01*
X139030952Y-79383390D02*
X138935714Y-79335771D01*
X138935714Y-79335771D02*
X138888095Y-79288152D01*
X138888095Y-79288152D02*
X138840476Y-79192914D01*
X138840476Y-79192914D02*
X138840476Y-79145295D01*
X138840476Y-79145295D02*
X138888095Y-79050057D01*
X138888095Y-79050057D02*
X138935714Y-79002438D01*
X138935714Y-79002438D02*
X139030952Y-78954819D01*
X139030952Y-78954819D02*
X139221428Y-78954819D01*
X139221428Y-78954819D02*
X139316666Y-79002438D01*
X139316666Y-79002438D02*
X139364285Y-79050057D01*
X139364285Y-79050057D02*
X139411904Y-79145295D01*
X139411904Y-79145295D02*
X139411904Y-79192914D01*
X139411904Y-79192914D02*
X139364285Y-79288152D01*
X139364285Y-79288152D02*
X139316666Y-79335771D01*
X139316666Y-79335771D02*
X139221428Y-79383390D01*
X139221428Y-79383390D02*
X139030952Y-79383390D01*
X139030952Y-79383390D02*
X138935714Y-79431009D01*
X138935714Y-79431009D02*
X138888095Y-79478628D01*
X138888095Y-79478628D02*
X138840476Y-79573866D01*
X138840476Y-79573866D02*
X138840476Y-79764342D01*
X138840476Y-79764342D02*
X138888095Y-79859580D01*
X138888095Y-79859580D02*
X138935714Y-79907200D01*
X138935714Y-79907200D02*
X139030952Y-79954819D01*
X139030952Y-79954819D02*
X139221428Y-79954819D01*
X139221428Y-79954819D02*
X139316666Y-79907200D01*
X139316666Y-79907200D02*
X139364285Y-79859580D01*
X139364285Y-79859580D02*
X139411904Y-79764342D01*
X139411904Y-79764342D02*
X139411904Y-79573866D01*
X139411904Y-79573866D02*
X139364285Y-79478628D01*
X139364285Y-79478628D02*
X139316666Y-79431009D01*
X139316666Y-79431009D02*
X139221428Y-79383390D01*
X176633333Y-102154819D02*
X176300000Y-101678628D01*
X176061905Y-102154819D02*
X176061905Y-101154819D01*
X176061905Y-101154819D02*
X176442857Y-101154819D01*
X176442857Y-101154819D02*
X176538095Y-101202438D01*
X176538095Y-101202438D02*
X176585714Y-101250057D01*
X176585714Y-101250057D02*
X176633333Y-101345295D01*
X176633333Y-101345295D02*
X176633333Y-101488152D01*
X176633333Y-101488152D02*
X176585714Y-101583390D01*
X176585714Y-101583390D02*
X176538095Y-101631009D01*
X176538095Y-101631009D02*
X176442857Y-101678628D01*
X176442857Y-101678628D02*
X176061905Y-101678628D01*
X177109524Y-102154819D02*
X177300000Y-102154819D01*
X177300000Y-102154819D02*
X177395238Y-102107200D01*
X177395238Y-102107200D02*
X177442857Y-102059580D01*
X177442857Y-102059580D02*
X177538095Y-101916723D01*
X177538095Y-101916723D02*
X177585714Y-101726247D01*
X177585714Y-101726247D02*
X177585714Y-101345295D01*
X177585714Y-101345295D02*
X177538095Y-101250057D01*
X177538095Y-101250057D02*
X177490476Y-101202438D01*
X177490476Y-101202438D02*
X177395238Y-101154819D01*
X177395238Y-101154819D02*
X177204762Y-101154819D01*
X177204762Y-101154819D02*
X177109524Y-101202438D01*
X177109524Y-101202438D02*
X177061905Y-101250057D01*
X177061905Y-101250057D02*
X177014286Y-101345295D01*
X177014286Y-101345295D02*
X177014286Y-101583390D01*
X177014286Y-101583390D02*
X177061905Y-101678628D01*
X177061905Y-101678628D02*
X177109524Y-101726247D01*
X177109524Y-101726247D02*
X177204762Y-101773866D01*
X177204762Y-101773866D02*
X177395238Y-101773866D01*
X177395238Y-101773866D02*
X177490476Y-101726247D01*
X177490476Y-101726247D02*
X177538095Y-101678628D01*
X177538095Y-101678628D02*
X177585714Y-101583390D01*
X165457142Y-105854819D02*
X165123809Y-105378628D01*
X164885714Y-105854819D02*
X164885714Y-104854819D01*
X164885714Y-104854819D02*
X165266666Y-104854819D01*
X165266666Y-104854819D02*
X165361904Y-104902438D01*
X165361904Y-104902438D02*
X165409523Y-104950057D01*
X165409523Y-104950057D02*
X165457142Y-105045295D01*
X165457142Y-105045295D02*
X165457142Y-105188152D01*
X165457142Y-105188152D02*
X165409523Y-105283390D01*
X165409523Y-105283390D02*
X165361904Y-105331009D01*
X165361904Y-105331009D02*
X165266666Y-105378628D01*
X165266666Y-105378628D02*
X164885714Y-105378628D01*
X166409523Y-105854819D02*
X165838095Y-105854819D01*
X166123809Y-105854819D02*
X166123809Y-104854819D01*
X166123809Y-104854819D02*
X166028571Y-104997676D01*
X166028571Y-104997676D02*
X165933333Y-105092914D01*
X165933333Y-105092914D02*
X165838095Y-105140533D01*
X167028571Y-104854819D02*
X167123809Y-104854819D01*
X167123809Y-104854819D02*
X167219047Y-104902438D01*
X167219047Y-104902438D02*
X167266666Y-104950057D01*
X167266666Y-104950057D02*
X167314285Y-105045295D01*
X167314285Y-105045295D02*
X167361904Y-105235771D01*
X167361904Y-105235771D02*
X167361904Y-105473866D01*
X167361904Y-105473866D02*
X167314285Y-105664342D01*
X167314285Y-105664342D02*
X167266666Y-105759580D01*
X167266666Y-105759580D02*
X167219047Y-105807200D01*
X167219047Y-105807200D02*
X167123809Y-105854819D01*
X167123809Y-105854819D02*
X167028571Y-105854819D01*
X167028571Y-105854819D02*
X166933333Y-105807200D01*
X166933333Y-105807200D02*
X166885714Y-105759580D01*
X166885714Y-105759580D02*
X166838095Y-105664342D01*
X166838095Y-105664342D02*
X166790476Y-105473866D01*
X166790476Y-105473866D02*
X166790476Y-105235771D01*
X166790476Y-105235771D02*
X166838095Y-105045295D01*
X166838095Y-105045295D02*
X166885714Y-104950057D01*
X166885714Y-104950057D02*
X166933333Y-104902438D01*
X166933333Y-104902438D02*
X167028571Y-104854819D01*
X101083333Y-74109580D02*
X101035714Y-74157200D01*
X101035714Y-74157200D02*
X100892857Y-74204819D01*
X100892857Y-74204819D02*
X100797619Y-74204819D01*
X100797619Y-74204819D02*
X100654762Y-74157200D01*
X100654762Y-74157200D02*
X100559524Y-74061961D01*
X100559524Y-74061961D02*
X100511905Y-73966723D01*
X100511905Y-73966723D02*
X100464286Y-73776247D01*
X100464286Y-73776247D02*
X100464286Y-73633390D01*
X100464286Y-73633390D02*
X100511905Y-73442914D01*
X100511905Y-73442914D02*
X100559524Y-73347676D01*
X100559524Y-73347676D02*
X100654762Y-73252438D01*
X100654762Y-73252438D02*
X100797619Y-73204819D01*
X100797619Y-73204819D02*
X100892857Y-73204819D01*
X100892857Y-73204819D02*
X101035714Y-73252438D01*
X101035714Y-73252438D02*
X101083333Y-73300057D01*
X101559524Y-74204819D02*
X101750000Y-74204819D01*
X101750000Y-74204819D02*
X101845238Y-74157200D01*
X101845238Y-74157200D02*
X101892857Y-74109580D01*
X101892857Y-74109580D02*
X101988095Y-73966723D01*
X101988095Y-73966723D02*
X102035714Y-73776247D01*
X102035714Y-73776247D02*
X102035714Y-73395295D01*
X102035714Y-73395295D02*
X101988095Y-73300057D01*
X101988095Y-73300057D02*
X101940476Y-73252438D01*
X101940476Y-73252438D02*
X101845238Y-73204819D01*
X101845238Y-73204819D02*
X101654762Y-73204819D01*
X101654762Y-73204819D02*
X101559524Y-73252438D01*
X101559524Y-73252438D02*
X101511905Y-73300057D01*
X101511905Y-73300057D02*
X101464286Y-73395295D01*
X101464286Y-73395295D02*
X101464286Y-73633390D01*
X101464286Y-73633390D02*
X101511905Y-73728628D01*
X101511905Y-73728628D02*
X101559524Y-73776247D01*
X101559524Y-73776247D02*
X101654762Y-73823866D01*
X101654762Y-73823866D02*
X101845238Y-73823866D01*
X101845238Y-73823866D02*
X101940476Y-73776247D01*
X101940476Y-73776247D02*
X101988095Y-73728628D01*
X101988095Y-73728628D02*
X102035714Y-73633390D01*
X162904819Y-120742857D02*
X162428628Y-121076190D01*
X162904819Y-121314285D02*
X161904819Y-121314285D01*
X161904819Y-121314285D02*
X161904819Y-120933333D01*
X161904819Y-120933333D02*
X161952438Y-120838095D01*
X161952438Y-120838095D02*
X162000057Y-120790476D01*
X162000057Y-120790476D02*
X162095295Y-120742857D01*
X162095295Y-120742857D02*
X162238152Y-120742857D01*
X162238152Y-120742857D02*
X162333390Y-120790476D01*
X162333390Y-120790476D02*
X162381009Y-120838095D01*
X162381009Y-120838095D02*
X162428628Y-120933333D01*
X162428628Y-120933333D02*
X162428628Y-121314285D01*
X162904819Y-119790476D02*
X162904819Y-120361904D01*
X162904819Y-120076190D02*
X161904819Y-120076190D01*
X161904819Y-120076190D02*
X162047676Y-120171428D01*
X162047676Y-120171428D02*
X162142914Y-120266666D01*
X162142914Y-120266666D02*
X162190533Y-120361904D01*
X161904819Y-118933333D02*
X161904819Y-119123809D01*
X161904819Y-119123809D02*
X161952438Y-119219047D01*
X161952438Y-119219047D02*
X162000057Y-119266666D01*
X162000057Y-119266666D02*
X162142914Y-119361904D01*
X162142914Y-119361904D02*
X162333390Y-119409523D01*
X162333390Y-119409523D02*
X162714342Y-119409523D01*
X162714342Y-119409523D02*
X162809580Y-119361904D01*
X162809580Y-119361904D02*
X162857200Y-119314285D01*
X162857200Y-119314285D02*
X162904819Y-119219047D01*
X162904819Y-119219047D02*
X162904819Y-119028571D01*
X162904819Y-119028571D02*
X162857200Y-118933333D01*
X162857200Y-118933333D02*
X162809580Y-118885714D01*
X162809580Y-118885714D02*
X162714342Y-118838095D01*
X162714342Y-118838095D02*
X162476247Y-118838095D01*
X162476247Y-118838095D02*
X162381009Y-118885714D01*
X162381009Y-118885714D02*
X162333390Y-118933333D01*
X162333390Y-118933333D02*
X162285771Y-119028571D01*
X162285771Y-119028571D02*
X162285771Y-119219047D01*
X162285771Y-119219047D02*
X162333390Y-119314285D01*
X162333390Y-119314285D02*
X162381009Y-119361904D01*
X162381009Y-119361904D02*
X162476247Y-119409523D01*
X108754819Y-90942857D02*
X108278628Y-91276190D01*
X108754819Y-91514285D02*
X107754819Y-91514285D01*
X107754819Y-91514285D02*
X107754819Y-91133333D01*
X107754819Y-91133333D02*
X107802438Y-91038095D01*
X107802438Y-91038095D02*
X107850057Y-90990476D01*
X107850057Y-90990476D02*
X107945295Y-90942857D01*
X107945295Y-90942857D02*
X108088152Y-90942857D01*
X108088152Y-90942857D02*
X108183390Y-90990476D01*
X108183390Y-90990476D02*
X108231009Y-91038095D01*
X108231009Y-91038095D02*
X108278628Y-91133333D01*
X108278628Y-91133333D02*
X108278628Y-91514285D01*
X107754819Y-90609523D02*
X107754819Y-89990476D01*
X107754819Y-89990476D02*
X108135771Y-90323809D01*
X108135771Y-90323809D02*
X108135771Y-90180952D01*
X108135771Y-90180952D02*
X108183390Y-90085714D01*
X108183390Y-90085714D02*
X108231009Y-90038095D01*
X108231009Y-90038095D02*
X108326247Y-89990476D01*
X108326247Y-89990476D02*
X108564342Y-89990476D01*
X108564342Y-89990476D02*
X108659580Y-90038095D01*
X108659580Y-90038095D02*
X108707200Y-90085714D01*
X108707200Y-90085714D02*
X108754819Y-90180952D01*
X108754819Y-90180952D02*
X108754819Y-90466666D01*
X108754819Y-90466666D02*
X108707200Y-90561904D01*
X108707200Y-90561904D02*
X108659580Y-90609523D01*
X108183390Y-89419047D02*
X108135771Y-89514285D01*
X108135771Y-89514285D02*
X108088152Y-89561904D01*
X108088152Y-89561904D02*
X107992914Y-89609523D01*
X107992914Y-89609523D02*
X107945295Y-89609523D01*
X107945295Y-89609523D02*
X107850057Y-89561904D01*
X107850057Y-89561904D02*
X107802438Y-89514285D01*
X107802438Y-89514285D02*
X107754819Y-89419047D01*
X107754819Y-89419047D02*
X107754819Y-89228571D01*
X107754819Y-89228571D02*
X107802438Y-89133333D01*
X107802438Y-89133333D02*
X107850057Y-89085714D01*
X107850057Y-89085714D02*
X107945295Y-89038095D01*
X107945295Y-89038095D02*
X107992914Y-89038095D01*
X107992914Y-89038095D02*
X108088152Y-89085714D01*
X108088152Y-89085714D02*
X108135771Y-89133333D01*
X108135771Y-89133333D02*
X108183390Y-89228571D01*
X108183390Y-89228571D02*
X108183390Y-89419047D01*
X108183390Y-89419047D02*
X108231009Y-89514285D01*
X108231009Y-89514285D02*
X108278628Y-89561904D01*
X108278628Y-89561904D02*
X108373866Y-89609523D01*
X108373866Y-89609523D02*
X108564342Y-89609523D01*
X108564342Y-89609523D02*
X108659580Y-89561904D01*
X108659580Y-89561904D02*
X108707200Y-89514285D01*
X108707200Y-89514285D02*
X108754819Y-89419047D01*
X108754819Y-89419047D02*
X108754819Y-89228571D01*
X108754819Y-89228571D02*
X108707200Y-89133333D01*
X108707200Y-89133333D02*
X108659580Y-89085714D01*
X108659580Y-89085714D02*
X108564342Y-89038095D01*
X108564342Y-89038095D02*
X108373866Y-89038095D01*
X108373866Y-89038095D02*
X108278628Y-89085714D01*
X108278628Y-89085714D02*
X108231009Y-89133333D01*
X108231009Y-89133333D02*
X108183390Y-89228571D01*
X176733333Y-79954819D02*
X176400000Y-79478628D01*
X176161905Y-79954819D02*
X176161905Y-78954819D01*
X176161905Y-78954819D02*
X176542857Y-78954819D01*
X176542857Y-78954819D02*
X176638095Y-79002438D01*
X176638095Y-79002438D02*
X176685714Y-79050057D01*
X176685714Y-79050057D02*
X176733333Y-79145295D01*
X176733333Y-79145295D02*
X176733333Y-79288152D01*
X176733333Y-79288152D02*
X176685714Y-79383390D01*
X176685714Y-79383390D02*
X176638095Y-79431009D01*
X176638095Y-79431009D02*
X176542857Y-79478628D01*
X176542857Y-79478628D02*
X176161905Y-79478628D01*
X177066667Y-78954819D02*
X177685714Y-78954819D01*
X177685714Y-78954819D02*
X177352381Y-79335771D01*
X177352381Y-79335771D02*
X177495238Y-79335771D01*
X177495238Y-79335771D02*
X177590476Y-79383390D01*
X177590476Y-79383390D02*
X177638095Y-79431009D01*
X177638095Y-79431009D02*
X177685714Y-79526247D01*
X177685714Y-79526247D02*
X177685714Y-79764342D01*
X177685714Y-79764342D02*
X177638095Y-79859580D01*
X177638095Y-79859580D02*
X177590476Y-79907200D01*
X177590476Y-79907200D02*
X177495238Y-79954819D01*
X177495238Y-79954819D02*
X177209524Y-79954819D01*
X177209524Y-79954819D02*
X177114286Y-79907200D01*
X177114286Y-79907200D02*
X177066667Y-79859580D01*
X115534819Y-90942857D02*
X115058628Y-91276190D01*
X115534819Y-91514285D02*
X114534819Y-91514285D01*
X114534819Y-91514285D02*
X114534819Y-91133333D01*
X114534819Y-91133333D02*
X114582438Y-91038095D01*
X114582438Y-91038095D02*
X114630057Y-90990476D01*
X114630057Y-90990476D02*
X114725295Y-90942857D01*
X114725295Y-90942857D02*
X114868152Y-90942857D01*
X114868152Y-90942857D02*
X114963390Y-90990476D01*
X114963390Y-90990476D02*
X115011009Y-91038095D01*
X115011009Y-91038095D02*
X115058628Y-91133333D01*
X115058628Y-91133333D02*
X115058628Y-91514285D01*
X114868152Y-90085714D02*
X115534819Y-90085714D01*
X114487200Y-90323809D02*
X115201485Y-90561904D01*
X115201485Y-90561904D02*
X115201485Y-89942857D01*
X114534819Y-89371428D02*
X114534819Y-89276190D01*
X114534819Y-89276190D02*
X114582438Y-89180952D01*
X114582438Y-89180952D02*
X114630057Y-89133333D01*
X114630057Y-89133333D02*
X114725295Y-89085714D01*
X114725295Y-89085714D02*
X114915771Y-89038095D01*
X114915771Y-89038095D02*
X115153866Y-89038095D01*
X115153866Y-89038095D02*
X115344342Y-89085714D01*
X115344342Y-89085714D02*
X115439580Y-89133333D01*
X115439580Y-89133333D02*
X115487200Y-89180952D01*
X115487200Y-89180952D02*
X115534819Y-89276190D01*
X115534819Y-89276190D02*
X115534819Y-89371428D01*
X115534819Y-89371428D02*
X115487200Y-89466666D01*
X115487200Y-89466666D02*
X115439580Y-89514285D01*
X115439580Y-89514285D02*
X115344342Y-89561904D01*
X115344342Y-89561904D02*
X115153866Y-89609523D01*
X115153866Y-89609523D02*
X114915771Y-89609523D01*
X114915771Y-89609523D02*
X114725295Y-89561904D01*
X114725295Y-89561904D02*
X114630057Y-89514285D01*
X114630057Y-89514285D02*
X114582438Y-89466666D01*
X114582438Y-89466666D02*
X114534819Y-89371428D01*
X109051905Y-109398569D02*
X109051905Y-108398569D01*
X109051905Y-108398569D02*
X109290000Y-108398569D01*
X109290000Y-108398569D02*
X109432857Y-108446188D01*
X109432857Y-108446188D02*
X109528095Y-108541426D01*
X109528095Y-108541426D02*
X109575714Y-108636664D01*
X109575714Y-108636664D02*
X109623333Y-108827140D01*
X109623333Y-108827140D02*
X109623333Y-108969997D01*
X109623333Y-108969997D02*
X109575714Y-109160473D01*
X109575714Y-109160473D02*
X109528095Y-109255711D01*
X109528095Y-109255711D02*
X109432857Y-109350950D01*
X109432857Y-109350950D02*
X109290000Y-109398569D01*
X109290000Y-109398569D02*
X109051905Y-109398569D01*
X110528095Y-108398569D02*
X110051905Y-108398569D01*
X110051905Y-108398569D02*
X110004286Y-108874759D01*
X110004286Y-108874759D02*
X110051905Y-108827140D01*
X110051905Y-108827140D02*
X110147143Y-108779521D01*
X110147143Y-108779521D02*
X110385238Y-108779521D01*
X110385238Y-108779521D02*
X110480476Y-108827140D01*
X110480476Y-108827140D02*
X110528095Y-108874759D01*
X110528095Y-108874759D02*
X110575714Y-108969997D01*
X110575714Y-108969997D02*
X110575714Y-109208092D01*
X110575714Y-109208092D02*
X110528095Y-109303330D01*
X110528095Y-109303330D02*
X110480476Y-109350950D01*
X110480476Y-109350950D02*
X110385238Y-109398569D01*
X110385238Y-109398569D02*
X110147143Y-109398569D01*
X110147143Y-109398569D02*
X110051905Y-109350950D01*
X110051905Y-109350950D02*
X110004286Y-109303330D01*
X105718095Y-107598569D02*
X105718095Y-106598569D01*
X106289523Y-107598569D02*
X105860952Y-107027140D01*
X106289523Y-106598569D02*
X105718095Y-107169997D01*
X114357142Y-116204819D02*
X114023809Y-115728628D01*
X113785714Y-116204819D02*
X113785714Y-115204819D01*
X113785714Y-115204819D02*
X114166666Y-115204819D01*
X114166666Y-115204819D02*
X114261904Y-115252438D01*
X114261904Y-115252438D02*
X114309523Y-115300057D01*
X114309523Y-115300057D02*
X114357142Y-115395295D01*
X114357142Y-115395295D02*
X114357142Y-115538152D01*
X114357142Y-115538152D02*
X114309523Y-115633390D01*
X114309523Y-115633390D02*
X114261904Y-115681009D01*
X114261904Y-115681009D02*
X114166666Y-115728628D01*
X114166666Y-115728628D02*
X113785714Y-115728628D01*
X115214285Y-115538152D02*
X115214285Y-116204819D01*
X114976190Y-115157200D02*
X114738095Y-115871485D01*
X114738095Y-115871485D02*
X115357142Y-115871485D01*
X115785714Y-116204819D02*
X115976190Y-116204819D01*
X115976190Y-116204819D02*
X116071428Y-116157200D01*
X116071428Y-116157200D02*
X116119047Y-116109580D01*
X116119047Y-116109580D02*
X116214285Y-115966723D01*
X116214285Y-115966723D02*
X116261904Y-115776247D01*
X116261904Y-115776247D02*
X116261904Y-115395295D01*
X116261904Y-115395295D02*
X116214285Y-115300057D01*
X116214285Y-115300057D02*
X116166666Y-115252438D01*
X116166666Y-115252438D02*
X116071428Y-115204819D01*
X116071428Y-115204819D02*
X115880952Y-115204819D01*
X115880952Y-115204819D02*
X115785714Y-115252438D01*
X115785714Y-115252438D02*
X115738095Y-115300057D01*
X115738095Y-115300057D02*
X115690476Y-115395295D01*
X115690476Y-115395295D02*
X115690476Y-115633390D01*
X115690476Y-115633390D02*
X115738095Y-115728628D01*
X115738095Y-115728628D02*
X115785714Y-115776247D01*
X115785714Y-115776247D02*
X115880952Y-115823866D01*
X115880952Y-115823866D02*
X116071428Y-115823866D01*
X116071428Y-115823866D02*
X116166666Y-115776247D01*
X116166666Y-115776247D02*
X116214285Y-115728628D01*
X116214285Y-115728628D02*
X116261904Y-115633390D01*
X165523333Y-80304819D02*
X165190000Y-79828628D01*
X164951905Y-80304819D02*
X164951905Y-79304819D01*
X164951905Y-79304819D02*
X165332857Y-79304819D01*
X165332857Y-79304819D02*
X165428095Y-79352438D01*
X165428095Y-79352438D02*
X165475714Y-79400057D01*
X165475714Y-79400057D02*
X165523333Y-79495295D01*
X165523333Y-79495295D02*
X165523333Y-79638152D01*
X165523333Y-79638152D02*
X165475714Y-79733390D01*
X165475714Y-79733390D02*
X165428095Y-79781009D01*
X165428095Y-79781009D02*
X165332857Y-79828628D01*
X165332857Y-79828628D02*
X164951905Y-79828628D01*
X166380476Y-79638152D02*
X166380476Y-80304819D01*
X166142381Y-79257200D02*
X165904286Y-79971485D01*
X165904286Y-79971485D02*
X166523333Y-79971485D01*
X132754819Y-67071904D02*
X133564342Y-67071904D01*
X133564342Y-67071904D02*
X133659580Y-67024285D01*
X133659580Y-67024285D02*
X133707200Y-66976666D01*
X133707200Y-66976666D02*
X133754819Y-66881428D01*
X133754819Y-66881428D02*
X133754819Y-66690952D01*
X133754819Y-66690952D02*
X133707200Y-66595714D01*
X133707200Y-66595714D02*
X133659580Y-66548095D01*
X133659580Y-66548095D02*
X133564342Y-66500476D01*
X133564342Y-66500476D02*
X132754819Y-66500476D01*
X132754819Y-66119523D02*
X132754819Y-65452857D01*
X132754819Y-65452857D02*
X133754819Y-65881428D01*
X150583333Y-133704819D02*
X150916666Y-134704819D01*
X150916666Y-134704819D02*
X151249999Y-133704819D01*
X151773809Y-133704819D02*
X151964285Y-133704819D01*
X151964285Y-133704819D02*
X152059523Y-133752438D01*
X152059523Y-133752438D02*
X152154761Y-133847676D01*
X152154761Y-133847676D02*
X152202380Y-134038152D01*
X152202380Y-134038152D02*
X152202380Y-134371485D01*
X152202380Y-134371485D02*
X152154761Y-134561961D01*
X152154761Y-134561961D02*
X152059523Y-134657200D01*
X152059523Y-134657200D02*
X151964285Y-134704819D01*
X151964285Y-134704819D02*
X151773809Y-134704819D01*
X151773809Y-134704819D02*
X151678571Y-134657200D01*
X151678571Y-134657200D02*
X151583333Y-134561961D01*
X151583333Y-134561961D02*
X151535714Y-134371485D01*
X151535714Y-134371485D02*
X151535714Y-134038152D01*
X151535714Y-134038152D02*
X151583333Y-133847676D01*
X151583333Y-133847676D02*
X151678571Y-133752438D01*
X151678571Y-133752438D02*
X151773809Y-133704819D01*
X153107142Y-134704819D02*
X152630952Y-134704819D01*
X152630952Y-134704819D02*
X152630952Y-133704819D01*
X153297619Y-133704819D02*
X153869047Y-133704819D01*
X153583333Y-134704819D02*
X153583333Y-133704819D01*
X154154762Y-134419104D02*
X154630952Y-134419104D01*
X154059524Y-134704819D02*
X154392857Y-133704819D01*
X154392857Y-133704819D02*
X154726190Y-134704819D01*
X155583333Y-133752438D02*
X155488095Y-133704819D01*
X155488095Y-133704819D02*
X155345238Y-133704819D01*
X155345238Y-133704819D02*
X155202381Y-133752438D01*
X155202381Y-133752438D02*
X155107143Y-133847676D01*
X155107143Y-133847676D02*
X155059524Y-133942914D01*
X155059524Y-133942914D02*
X155011905Y-134133390D01*
X155011905Y-134133390D02*
X155011905Y-134276247D01*
X155011905Y-134276247D02*
X155059524Y-134466723D01*
X155059524Y-134466723D02*
X155107143Y-134561961D01*
X155107143Y-134561961D02*
X155202381Y-134657200D01*
X155202381Y-134657200D02*
X155345238Y-134704819D01*
X155345238Y-134704819D02*
X155440476Y-134704819D01*
X155440476Y-134704819D02*
X155583333Y-134657200D01*
X155583333Y-134657200D02*
X155630952Y-134609580D01*
X155630952Y-134609580D02*
X155630952Y-134276247D01*
X155630952Y-134276247D02*
X155440476Y-134276247D01*
X156059524Y-134181009D02*
X156392857Y-134181009D01*
X156535714Y-134704819D02*
X156059524Y-134704819D01*
X156059524Y-134704819D02*
X156059524Y-133704819D01*
X156059524Y-133704819D02*
X156535714Y-133704819D01*
X156726191Y-134800057D02*
X157488095Y-134800057D01*
X157726191Y-134704819D02*
X157726191Y-133704819D01*
X158202381Y-134704819D02*
X158202381Y-133704819D01*
X158202381Y-133704819D02*
X158773809Y-134704819D01*
X158773809Y-134704819D02*
X158773809Y-133704819D01*
X126954819Y-102095238D02*
X126478628Y-102428571D01*
X126954819Y-102666666D02*
X125954819Y-102666666D01*
X125954819Y-102666666D02*
X125954819Y-102285714D01*
X125954819Y-102285714D02*
X126002438Y-102190476D01*
X126002438Y-102190476D02*
X126050057Y-102142857D01*
X126050057Y-102142857D02*
X126145295Y-102095238D01*
X126145295Y-102095238D02*
X126288152Y-102095238D01*
X126288152Y-102095238D02*
X126383390Y-102142857D01*
X126383390Y-102142857D02*
X126431009Y-102190476D01*
X126431009Y-102190476D02*
X126478628Y-102285714D01*
X126478628Y-102285714D02*
X126478628Y-102666666D01*
X125954819Y-101809523D02*
X126954819Y-101476190D01*
X126954819Y-101476190D02*
X125954819Y-101142857D01*
X125954819Y-100904761D02*
X125954819Y-100285714D01*
X125954819Y-100285714D02*
X126335771Y-100619047D01*
X126335771Y-100619047D02*
X126335771Y-100476190D01*
X126335771Y-100476190D02*
X126383390Y-100380952D01*
X126383390Y-100380952D02*
X126431009Y-100333333D01*
X126431009Y-100333333D02*
X126526247Y-100285714D01*
X126526247Y-100285714D02*
X126764342Y-100285714D01*
X126764342Y-100285714D02*
X126859580Y-100333333D01*
X126859580Y-100333333D02*
X126907200Y-100380952D01*
X126907200Y-100380952D02*
X126954819Y-100476190D01*
X126954819Y-100476190D02*
X126954819Y-100761904D01*
X126954819Y-100761904D02*
X126907200Y-100857142D01*
X126907200Y-100857142D02*
X126859580Y-100904761D01*
X119807142Y-102136069D02*
X119473809Y-101659878D01*
X119235714Y-102136069D02*
X119235714Y-101136069D01*
X119235714Y-101136069D02*
X119616666Y-101136069D01*
X119616666Y-101136069D02*
X119711904Y-101183688D01*
X119711904Y-101183688D02*
X119759523Y-101231307D01*
X119759523Y-101231307D02*
X119807142Y-101326545D01*
X119807142Y-101326545D02*
X119807142Y-101469402D01*
X119807142Y-101469402D02*
X119759523Y-101564640D01*
X119759523Y-101564640D02*
X119711904Y-101612259D01*
X119711904Y-101612259D02*
X119616666Y-101659878D01*
X119616666Y-101659878D02*
X119235714Y-101659878D01*
X120664285Y-101469402D02*
X120664285Y-102136069D01*
X120426190Y-101088450D02*
X120188095Y-101802735D01*
X120188095Y-101802735D02*
X120807142Y-101802735D01*
X121092857Y-101136069D02*
X121711904Y-101136069D01*
X121711904Y-101136069D02*
X121378571Y-101517021D01*
X121378571Y-101517021D02*
X121521428Y-101517021D01*
X121521428Y-101517021D02*
X121616666Y-101564640D01*
X121616666Y-101564640D02*
X121664285Y-101612259D01*
X121664285Y-101612259D02*
X121711904Y-101707497D01*
X121711904Y-101707497D02*
X121711904Y-101945592D01*
X121711904Y-101945592D02*
X121664285Y-102040830D01*
X121664285Y-102040830D02*
X121616666Y-102088450D01*
X121616666Y-102088450D02*
X121521428Y-102136069D01*
X121521428Y-102136069D02*
X121235714Y-102136069D01*
X121235714Y-102136069D02*
X121140476Y-102088450D01*
X121140476Y-102088450D02*
X121092857Y-102040830D01*
X157833333Y-60859580D02*
X157785714Y-60907200D01*
X157785714Y-60907200D02*
X157642857Y-60954819D01*
X157642857Y-60954819D02*
X157547619Y-60954819D01*
X157547619Y-60954819D02*
X157404762Y-60907200D01*
X157404762Y-60907200D02*
X157309524Y-60811961D01*
X157309524Y-60811961D02*
X157261905Y-60716723D01*
X157261905Y-60716723D02*
X157214286Y-60526247D01*
X157214286Y-60526247D02*
X157214286Y-60383390D01*
X157214286Y-60383390D02*
X157261905Y-60192914D01*
X157261905Y-60192914D02*
X157309524Y-60097676D01*
X157309524Y-60097676D02*
X157404762Y-60002438D01*
X157404762Y-60002438D02*
X157547619Y-59954819D01*
X157547619Y-59954819D02*
X157642857Y-59954819D01*
X157642857Y-59954819D02*
X157785714Y-60002438D01*
X157785714Y-60002438D02*
X157833333Y-60050057D01*
X158785714Y-60954819D02*
X158214286Y-60954819D01*
X158500000Y-60954819D02*
X158500000Y-59954819D01*
X158500000Y-59954819D02*
X158404762Y-60097676D01*
X158404762Y-60097676D02*
X158309524Y-60192914D01*
X158309524Y-60192914D02*
X158214286Y-60240533D01*
X157333333Y-78859580D02*
X157285714Y-78907200D01*
X157285714Y-78907200D02*
X157142857Y-78954819D01*
X157142857Y-78954819D02*
X157047619Y-78954819D01*
X157047619Y-78954819D02*
X156904762Y-78907200D01*
X156904762Y-78907200D02*
X156809524Y-78811961D01*
X156809524Y-78811961D02*
X156761905Y-78716723D01*
X156761905Y-78716723D02*
X156714286Y-78526247D01*
X156714286Y-78526247D02*
X156714286Y-78383390D01*
X156714286Y-78383390D02*
X156761905Y-78192914D01*
X156761905Y-78192914D02*
X156809524Y-78097676D01*
X156809524Y-78097676D02*
X156904762Y-78002438D01*
X156904762Y-78002438D02*
X157047619Y-77954819D01*
X157047619Y-77954819D02*
X157142857Y-77954819D01*
X157142857Y-77954819D02*
X157285714Y-78002438D01*
X157285714Y-78002438D02*
X157333333Y-78050057D01*
X157666667Y-77954819D02*
X158285714Y-77954819D01*
X158285714Y-77954819D02*
X157952381Y-78335771D01*
X157952381Y-78335771D02*
X158095238Y-78335771D01*
X158095238Y-78335771D02*
X158190476Y-78383390D01*
X158190476Y-78383390D02*
X158238095Y-78431009D01*
X158238095Y-78431009D02*
X158285714Y-78526247D01*
X158285714Y-78526247D02*
X158285714Y-78764342D01*
X158285714Y-78764342D02*
X158238095Y-78859580D01*
X158238095Y-78859580D02*
X158190476Y-78907200D01*
X158190476Y-78907200D02*
X158095238Y-78954819D01*
X158095238Y-78954819D02*
X157809524Y-78954819D01*
X157809524Y-78954819D02*
X157714286Y-78907200D01*
X157714286Y-78907200D02*
X157666667Y-78859580D01*
X98089819Y-113330238D02*
X97613628Y-113663571D01*
X98089819Y-113901666D02*
X97089819Y-113901666D01*
X97089819Y-113901666D02*
X97089819Y-113520714D01*
X97089819Y-113520714D02*
X97137438Y-113425476D01*
X97137438Y-113425476D02*
X97185057Y-113377857D01*
X97185057Y-113377857D02*
X97280295Y-113330238D01*
X97280295Y-113330238D02*
X97423152Y-113330238D01*
X97423152Y-113330238D02*
X97518390Y-113377857D01*
X97518390Y-113377857D02*
X97566009Y-113425476D01*
X97566009Y-113425476D02*
X97613628Y-113520714D01*
X97613628Y-113520714D02*
X97613628Y-113901666D01*
X97089819Y-113044523D02*
X98089819Y-112711190D01*
X98089819Y-112711190D02*
X97089819Y-112377857D01*
X97089819Y-111615952D02*
X97089819Y-111806428D01*
X97089819Y-111806428D02*
X97137438Y-111901666D01*
X97137438Y-111901666D02*
X97185057Y-111949285D01*
X97185057Y-111949285D02*
X97327914Y-112044523D01*
X97327914Y-112044523D02*
X97518390Y-112092142D01*
X97518390Y-112092142D02*
X97899342Y-112092142D01*
X97899342Y-112092142D02*
X97994580Y-112044523D01*
X97994580Y-112044523D02*
X98042200Y-111996904D01*
X98042200Y-111996904D02*
X98089819Y-111901666D01*
X98089819Y-111901666D02*
X98089819Y-111711190D01*
X98089819Y-111711190D02*
X98042200Y-111615952D01*
X98042200Y-111615952D02*
X97994580Y-111568333D01*
X97994580Y-111568333D02*
X97899342Y-111520714D01*
X97899342Y-111520714D02*
X97661247Y-111520714D01*
X97661247Y-111520714D02*
X97566009Y-111568333D01*
X97566009Y-111568333D02*
X97518390Y-111615952D01*
X97518390Y-111615952D02*
X97470771Y-111711190D01*
X97470771Y-111711190D02*
X97470771Y-111901666D01*
X97470771Y-111901666D02*
X97518390Y-111996904D01*
X97518390Y-111996904D02*
X97566009Y-112044523D01*
X97566009Y-112044523D02*
X97661247Y-112092142D01*
X137557142Y-105979819D02*
X137223809Y-105503628D01*
X136985714Y-105979819D02*
X136985714Y-104979819D01*
X136985714Y-104979819D02*
X137366666Y-104979819D01*
X137366666Y-104979819D02*
X137461904Y-105027438D01*
X137461904Y-105027438D02*
X137509523Y-105075057D01*
X137509523Y-105075057D02*
X137557142Y-105170295D01*
X137557142Y-105170295D02*
X137557142Y-105313152D01*
X137557142Y-105313152D02*
X137509523Y-105408390D01*
X137509523Y-105408390D02*
X137461904Y-105456009D01*
X137461904Y-105456009D02*
X137366666Y-105503628D01*
X137366666Y-105503628D02*
X136985714Y-105503628D01*
X137938095Y-105075057D02*
X137985714Y-105027438D01*
X137985714Y-105027438D02*
X138080952Y-104979819D01*
X138080952Y-104979819D02*
X138319047Y-104979819D01*
X138319047Y-104979819D02*
X138414285Y-105027438D01*
X138414285Y-105027438D02*
X138461904Y-105075057D01*
X138461904Y-105075057D02*
X138509523Y-105170295D01*
X138509523Y-105170295D02*
X138509523Y-105265533D01*
X138509523Y-105265533D02*
X138461904Y-105408390D01*
X138461904Y-105408390D02*
X137890476Y-105979819D01*
X137890476Y-105979819D02*
X138509523Y-105979819D01*
X138842857Y-104979819D02*
X139509523Y-104979819D01*
X139509523Y-104979819D02*
X139080952Y-105979819D01*
X158761905Y-119704819D02*
X158761905Y-118704819D01*
X158761905Y-118704819D02*
X159000000Y-118704819D01*
X159000000Y-118704819D02*
X159142857Y-118752438D01*
X159142857Y-118752438D02*
X159238095Y-118847676D01*
X159238095Y-118847676D02*
X159285714Y-118942914D01*
X159285714Y-118942914D02*
X159333333Y-119133390D01*
X159333333Y-119133390D02*
X159333333Y-119276247D01*
X159333333Y-119276247D02*
X159285714Y-119466723D01*
X159285714Y-119466723D02*
X159238095Y-119561961D01*
X159238095Y-119561961D02*
X159142857Y-119657200D01*
X159142857Y-119657200D02*
X159000000Y-119704819D01*
X159000000Y-119704819D02*
X158761905Y-119704819D01*
X159714286Y-118800057D02*
X159761905Y-118752438D01*
X159761905Y-118752438D02*
X159857143Y-118704819D01*
X159857143Y-118704819D02*
X160095238Y-118704819D01*
X160095238Y-118704819D02*
X160190476Y-118752438D01*
X160190476Y-118752438D02*
X160238095Y-118800057D01*
X160238095Y-118800057D02*
X160285714Y-118895295D01*
X160285714Y-118895295D02*
X160285714Y-118990533D01*
X160285714Y-118990533D02*
X160238095Y-119133390D01*
X160238095Y-119133390D02*
X159666667Y-119704819D01*
X159666667Y-119704819D02*
X160285714Y-119704819D01*
X129583333Y-61359580D02*
X129535714Y-61407200D01*
X129535714Y-61407200D02*
X129392857Y-61454819D01*
X129392857Y-61454819D02*
X129297619Y-61454819D01*
X129297619Y-61454819D02*
X129154762Y-61407200D01*
X129154762Y-61407200D02*
X129059524Y-61311961D01*
X129059524Y-61311961D02*
X129011905Y-61216723D01*
X129011905Y-61216723D02*
X128964286Y-61026247D01*
X128964286Y-61026247D02*
X128964286Y-60883390D01*
X128964286Y-60883390D02*
X129011905Y-60692914D01*
X129011905Y-60692914D02*
X129059524Y-60597676D01*
X129059524Y-60597676D02*
X129154762Y-60502438D01*
X129154762Y-60502438D02*
X129297619Y-60454819D01*
X129297619Y-60454819D02*
X129392857Y-60454819D01*
X129392857Y-60454819D02*
X129535714Y-60502438D01*
X129535714Y-60502438D02*
X129583333Y-60550057D01*
X130440476Y-60454819D02*
X130250000Y-60454819D01*
X130250000Y-60454819D02*
X130154762Y-60502438D01*
X130154762Y-60502438D02*
X130107143Y-60550057D01*
X130107143Y-60550057D02*
X130011905Y-60692914D01*
X130011905Y-60692914D02*
X129964286Y-60883390D01*
X129964286Y-60883390D02*
X129964286Y-61264342D01*
X129964286Y-61264342D02*
X130011905Y-61359580D01*
X130011905Y-61359580D02*
X130059524Y-61407200D01*
X130059524Y-61407200D02*
X130154762Y-61454819D01*
X130154762Y-61454819D02*
X130345238Y-61454819D01*
X130345238Y-61454819D02*
X130440476Y-61407200D01*
X130440476Y-61407200D02*
X130488095Y-61359580D01*
X130488095Y-61359580D02*
X130535714Y-61264342D01*
X130535714Y-61264342D02*
X130535714Y-61026247D01*
X130535714Y-61026247D02*
X130488095Y-60931009D01*
X130488095Y-60931009D02*
X130440476Y-60883390D01*
X130440476Y-60883390D02*
X130345238Y-60835771D01*
X130345238Y-60835771D02*
X130154762Y-60835771D01*
X130154762Y-60835771D02*
X130059524Y-60883390D01*
X130059524Y-60883390D02*
X130011905Y-60931009D01*
X130011905Y-60931009D02*
X129964286Y-61026247D01*
X163354819Y-90376666D02*
X162878628Y-90709999D01*
X163354819Y-90948094D02*
X162354819Y-90948094D01*
X162354819Y-90948094D02*
X162354819Y-90567142D01*
X162354819Y-90567142D02*
X162402438Y-90471904D01*
X162402438Y-90471904D02*
X162450057Y-90424285D01*
X162450057Y-90424285D02*
X162545295Y-90376666D01*
X162545295Y-90376666D02*
X162688152Y-90376666D01*
X162688152Y-90376666D02*
X162783390Y-90424285D01*
X162783390Y-90424285D02*
X162831009Y-90471904D01*
X162831009Y-90471904D02*
X162878628Y-90567142D01*
X162878628Y-90567142D02*
X162878628Y-90948094D01*
X162450057Y-89995713D02*
X162402438Y-89948094D01*
X162402438Y-89948094D02*
X162354819Y-89852856D01*
X162354819Y-89852856D02*
X162354819Y-89614761D01*
X162354819Y-89614761D02*
X162402438Y-89519523D01*
X162402438Y-89519523D02*
X162450057Y-89471904D01*
X162450057Y-89471904D02*
X162545295Y-89424285D01*
X162545295Y-89424285D02*
X162640533Y-89424285D01*
X162640533Y-89424285D02*
X162783390Y-89471904D01*
X162783390Y-89471904D02*
X163354819Y-90043332D01*
X163354819Y-90043332D02*
X163354819Y-89424285D01*
X109147142Y-105892319D02*
X108813809Y-105416128D01*
X108575714Y-105892319D02*
X108575714Y-104892319D01*
X108575714Y-104892319D02*
X108956666Y-104892319D01*
X108956666Y-104892319D02*
X109051904Y-104939938D01*
X109051904Y-104939938D02*
X109099523Y-104987557D01*
X109099523Y-104987557D02*
X109147142Y-105082795D01*
X109147142Y-105082795D02*
X109147142Y-105225652D01*
X109147142Y-105225652D02*
X109099523Y-105320890D01*
X109099523Y-105320890D02*
X109051904Y-105368509D01*
X109051904Y-105368509D02*
X108956666Y-105416128D01*
X108956666Y-105416128D02*
X108575714Y-105416128D01*
X110004285Y-105225652D02*
X110004285Y-105892319D01*
X109766190Y-104844700D02*
X109528095Y-105558985D01*
X109528095Y-105558985D02*
X110147142Y-105558985D01*
X110956666Y-105225652D02*
X110956666Y-105892319D01*
X110718571Y-104844700D02*
X110480476Y-105558985D01*
X110480476Y-105558985D02*
X111099523Y-105558985D01*
X129083333Y-74359580D02*
X129035714Y-74407200D01*
X129035714Y-74407200D02*
X128892857Y-74454819D01*
X128892857Y-74454819D02*
X128797619Y-74454819D01*
X128797619Y-74454819D02*
X128654762Y-74407200D01*
X128654762Y-74407200D02*
X128559524Y-74311961D01*
X128559524Y-74311961D02*
X128511905Y-74216723D01*
X128511905Y-74216723D02*
X128464286Y-74026247D01*
X128464286Y-74026247D02*
X128464286Y-73883390D01*
X128464286Y-73883390D02*
X128511905Y-73692914D01*
X128511905Y-73692914D02*
X128559524Y-73597676D01*
X128559524Y-73597676D02*
X128654762Y-73502438D01*
X128654762Y-73502438D02*
X128797619Y-73454819D01*
X128797619Y-73454819D02*
X128892857Y-73454819D01*
X128892857Y-73454819D02*
X129035714Y-73502438D01*
X129035714Y-73502438D02*
X129083333Y-73550057D01*
X129988095Y-73454819D02*
X129511905Y-73454819D01*
X129511905Y-73454819D02*
X129464286Y-73931009D01*
X129464286Y-73931009D02*
X129511905Y-73883390D01*
X129511905Y-73883390D02*
X129607143Y-73835771D01*
X129607143Y-73835771D02*
X129845238Y-73835771D01*
X129845238Y-73835771D02*
X129940476Y-73883390D01*
X129940476Y-73883390D02*
X129988095Y-73931009D01*
X129988095Y-73931009D02*
X130035714Y-74026247D01*
X130035714Y-74026247D02*
X130035714Y-74264342D01*
X130035714Y-74264342D02*
X129988095Y-74359580D01*
X129988095Y-74359580D02*
X129940476Y-74407200D01*
X129940476Y-74407200D02*
X129845238Y-74454819D01*
X129845238Y-74454819D02*
X129607143Y-74454819D01*
X129607143Y-74454819D02*
X129511905Y-74407200D01*
X129511905Y-74407200D02*
X129464286Y-74359580D01*
X147932142Y-112904819D02*
X147598809Y-112428628D01*
X147360714Y-112904819D02*
X147360714Y-111904819D01*
X147360714Y-111904819D02*
X147741666Y-111904819D01*
X147741666Y-111904819D02*
X147836904Y-111952438D01*
X147836904Y-111952438D02*
X147884523Y-112000057D01*
X147884523Y-112000057D02*
X147932142Y-112095295D01*
X147932142Y-112095295D02*
X147932142Y-112238152D01*
X147932142Y-112238152D02*
X147884523Y-112333390D01*
X147884523Y-112333390D02*
X147836904Y-112381009D01*
X147836904Y-112381009D02*
X147741666Y-112428628D01*
X147741666Y-112428628D02*
X147360714Y-112428628D01*
X148265476Y-111904819D02*
X148884523Y-111904819D01*
X148884523Y-111904819D02*
X148551190Y-112285771D01*
X148551190Y-112285771D02*
X148694047Y-112285771D01*
X148694047Y-112285771D02*
X148789285Y-112333390D01*
X148789285Y-112333390D02*
X148836904Y-112381009D01*
X148836904Y-112381009D02*
X148884523Y-112476247D01*
X148884523Y-112476247D02*
X148884523Y-112714342D01*
X148884523Y-112714342D02*
X148836904Y-112809580D01*
X148836904Y-112809580D02*
X148789285Y-112857200D01*
X148789285Y-112857200D02*
X148694047Y-112904819D01*
X148694047Y-112904819D02*
X148408333Y-112904819D01*
X148408333Y-112904819D02*
X148313095Y-112857200D01*
X148313095Y-112857200D02*
X148265476Y-112809580D01*
X149503571Y-111904819D02*
X149598809Y-111904819D01*
X149598809Y-111904819D02*
X149694047Y-111952438D01*
X149694047Y-111952438D02*
X149741666Y-112000057D01*
X149741666Y-112000057D02*
X149789285Y-112095295D01*
X149789285Y-112095295D02*
X149836904Y-112285771D01*
X149836904Y-112285771D02*
X149836904Y-112523866D01*
X149836904Y-112523866D02*
X149789285Y-112714342D01*
X149789285Y-112714342D02*
X149741666Y-112809580D01*
X149741666Y-112809580D02*
X149694047Y-112857200D01*
X149694047Y-112857200D02*
X149598809Y-112904819D01*
X149598809Y-112904819D02*
X149503571Y-112904819D01*
X149503571Y-112904819D02*
X149408333Y-112857200D01*
X149408333Y-112857200D02*
X149360714Y-112809580D01*
X149360714Y-112809580D02*
X149313095Y-112714342D01*
X149313095Y-112714342D02*
X149265476Y-112523866D01*
X149265476Y-112523866D02*
X149265476Y-112285771D01*
X149265476Y-112285771D02*
X149313095Y-112095295D01*
X149313095Y-112095295D02*
X149360714Y-112000057D01*
X149360714Y-112000057D02*
X149408333Y-111952438D01*
X149408333Y-111952438D02*
X149503571Y-111904819D01*
X176157142Y-105854819D02*
X175823809Y-105378628D01*
X175585714Y-105854819D02*
X175585714Y-104854819D01*
X175585714Y-104854819D02*
X175966666Y-104854819D01*
X175966666Y-104854819D02*
X176061904Y-104902438D01*
X176061904Y-104902438D02*
X176109523Y-104950057D01*
X176109523Y-104950057D02*
X176157142Y-105045295D01*
X176157142Y-105045295D02*
X176157142Y-105188152D01*
X176157142Y-105188152D02*
X176109523Y-105283390D01*
X176109523Y-105283390D02*
X176061904Y-105331009D01*
X176061904Y-105331009D02*
X175966666Y-105378628D01*
X175966666Y-105378628D02*
X175585714Y-105378628D01*
X177109523Y-105854819D02*
X176538095Y-105854819D01*
X176823809Y-105854819D02*
X176823809Y-104854819D01*
X176823809Y-104854819D02*
X176728571Y-104997676D01*
X176728571Y-104997676D02*
X176633333Y-105092914D01*
X176633333Y-105092914D02*
X176538095Y-105140533D01*
X178061904Y-105854819D02*
X177490476Y-105854819D01*
X177776190Y-105854819D02*
X177776190Y-104854819D01*
X177776190Y-104854819D02*
X177680952Y-104997676D01*
X177680952Y-104997676D02*
X177585714Y-105092914D01*
X177585714Y-105092914D02*
X177490476Y-105140533D01*
X119807142Y-105725652D02*
X119473809Y-105249461D01*
X119235714Y-105725652D02*
X119235714Y-104725652D01*
X119235714Y-104725652D02*
X119616666Y-104725652D01*
X119616666Y-104725652D02*
X119711904Y-104773271D01*
X119711904Y-104773271D02*
X119759523Y-104820890D01*
X119759523Y-104820890D02*
X119807142Y-104916128D01*
X119807142Y-104916128D02*
X119807142Y-105058985D01*
X119807142Y-105058985D02*
X119759523Y-105154223D01*
X119759523Y-105154223D02*
X119711904Y-105201842D01*
X119711904Y-105201842D02*
X119616666Y-105249461D01*
X119616666Y-105249461D02*
X119235714Y-105249461D01*
X120664285Y-105058985D02*
X120664285Y-105725652D01*
X120426190Y-104678033D02*
X120188095Y-105392318D01*
X120188095Y-105392318D02*
X120807142Y-105392318D01*
X121664285Y-104725652D02*
X121188095Y-104725652D01*
X121188095Y-104725652D02*
X121140476Y-105201842D01*
X121140476Y-105201842D02*
X121188095Y-105154223D01*
X121188095Y-105154223D02*
X121283333Y-105106604D01*
X121283333Y-105106604D02*
X121521428Y-105106604D01*
X121521428Y-105106604D02*
X121616666Y-105154223D01*
X121616666Y-105154223D02*
X121664285Y-105201842D01*
X121664285Y-105201842D02*
X121711904Y-105297080D01*
X121711904Y-105297080D02*
X121711904Y-105535175D01*
X121711904Y-105535175D02*
X121664285Y-105630413D01*
X121664285Y-105630413D02*
X121616666Y-105678033D01*
X121616666Y-105678033D02*
X121521428Y-105725652D01*
X121521428Y-105725652D02*
X121283333Y-105725652D01*
X121283333Y-105725652D02*
X121188095Y-105678033D01*
X121188095Y-105678033D02*
X121140476Y-105630413D01*
X100607142Y-78609580D02*
X100559523Y-78657200D01*
X100559523Y-78657200D02*
X100416666Y-78704819D01*
X100416666Y-78704819D02*
X100321428Y-78704819D01*
X100321428Y-78704819D02*
X100178571Y-78657200D01*
X100178571Y-78657200D02*
X100083333Y-78561961D01*
X100083333Y-78561961D02*
X100035714Y-78466723D01*
X100035714Y-78466723D02*
X99988095Y-78276247D01*
X99988095Y-78276247D02*
X99988095Y-78133390D01*
X99988095Y-78133390D02*
X100035714Y-77942914D01*
X100035714Y-77942914D02*
X100083333Y-77847676D01*
X100083333Y-77847676D02*
X100178571Y-77752438D01*
X100178571Y-77752438D02*
X100321428Y-77704819D01*
X100321428Y-77704819D02*
X100416666Y-77704819D01*
X100416666Y-77704819D02*
X100559523Y-77752438D01*
X100559523Y-77752438D02*
X100607142Y-77800057D01*
X101559523Y-78704819D02*
X100988095Y-78704819D01*
X101273809Y-78704819D02*
X101273809Y-77704819D01*
X101273809Y-77704819D02*
X101178571Y-77847676D01*
X101178571Y-77847676D02*
X101083333Y-77942914D01*
X101083333Y-77942914D02*
X100988095Y-77990533D01*
X101940476Y-77800057D02*
X101988095Y-77752438D01*
X101988095Y-77752438D02*
X102083333Y-77704819D01*
X102083333Y-77704819D02*
X102321428Y-77704819D01*
X102321428Y-77704819D02*
X102416666Y-77752438D01*
X102416666Y-77752438D02*
X102464285Y-77800057D01*
X102464285Y-77800057D02*
X102511904Y-77895295D01*
X102511904Y-77895295D02*
X102511904Y-77990533D01*
X102511904Y-77990533D02*
X102464285Y-78133390D01*
X102464285Y-78133390D02*
X101892857Y-78704819D01*
X101892857Y-78704819D02*
X102511904Y-78704819D01*
X126954819Y-113663571D02*
X126478628Y-113996904D01*
X126954819Y-114234999D02*
X125954819Y-114234999D01*
X125954819Y-114234999D02*
X125954819Y-113854047D01*
X125954819Y-113854047D02*
X126002438Y-113758809D01*
X126002438Y-113758809D02*
X126050057Y-113711190D01*
X126050057Y-113711190D02*
X126145295Y-113663571D01*
X126145295Y-113663571D02*
X126288152Y-113663571D01*
X126288152Y-113663571D02*
X126383390Y-113711190D01*
X126383390Y-113711190D02*
X126431009Y-113758809D01*
X126431009Y-113758809D02*
X126478628Y-113854047D01*
X126478628Y-113854047D02*
X126478628Y-114234999D01*
X125954819Y-113377856D02*
X126954819Y-113044523D01*
X126954819Y-113044523D02*
X125954819Y-112711190D01*
X126288152Y-111949285D02*
X126954819Y-111949285D01*
X125907200Y-112187380D02*
X126621485Y-112425475D01*
X126621485Y-112425475D02*
X126621485Y-111806428D01*
X119807142Y-109315236D02*
X119473809Y-108839045D01*
X119235714Y-109315236D02*
X119235714Y-108315236D01*
X119235714Y-108315236D02*
X119616666Y-108315236D01*
X119616666Y-108315236D02*
X119711904Y-108362855D01*
X119711904Y-108362855D02*
X119759523Y-108410474D01*
X119759523Y-108410474D02*
X119807142Y-108505712D01*
X119807142Y-108505712D02*
X119807142Y-108648569D01*
X119807142Y-108648569D02*
X119759523Y-108743807D01*
X119759523Y-108743807D02*
X119711904Y-108791426D01*
X119711904Y-108791426D02*
X119616666Y-108839045D01*
X119616666Y-108839045D02*
X119235714Y-108839045D01*
X120664285Y-108648569D02*
X120664285Y-109315236D01*
X120426190Y-108267617D02*
X120188095Y-108981902D01*
X120188095Y-108981902D02*
X120807142Y-108981902D01*
X121616666Y-108315236D02*
X121426190Y-108315236D01*
X121426190Y-108315236D02*
X121330952Y-108362855D01*
X121330952Y-108362855D02*
X121283333Y-108410474D01*
X121283333Y-108410474D02*
X121188095Y-108553331D01*
X121188095Y-108553331D02*
X121140476Y-108743807D01*
X121140476Y-108743807D02*
X121140476Y-109124759D01*
X121140476Y-109124759D02*
X121188095Y-109219997D01*
X121188095Y-109219997D02*
X121235714Y-109267617D01*
X121235714Y-109267617D02*
X121330952Y-109315236D01*
X121330952Y-109315236D02*
X121521428Y-109315236D01*
X121521428Y-109315236D02*
X121616666Y-109267617D01*
X121616666Y-109267617D02*
X121664285Y-109219997D01*
X121664285Y-109219997D02*
X121711904Y-109124759D01*
X121711904Y-109124759D02*
X121711904Y-108886664D01*
X121711904Y-108886664D02*
X121664285Y-108791426D01*
X121664285Y-108791426D02*
X121616666Y-108743807D01*
X121616666Y-108743807D02*
X121521428Y-108696188D01*
X121521428Y-108696188D02*
X121330952Y-108696188D01*
X121330952Y-108696188D02*
X121235714Y-108743807D01*
X121235714Y-108743807D02*
X121188095Y-108791426D01*
X121188095Y-108791426D02*
X121140476Y-108886664D01*
X171207142Y-115454819D02*
X170873809Y-114978628D01*
X170635714Y-115454819D02*
X170635714Y-114454819D01*
X170635714Y-114454819D02*
X171016666Y-114454819D01*
X171016666Y-114454819D02*
X171111904Y-114502438D01*
X171111904Y-114502438D02*
X171159523Y-114550057D01*
X171159523Y-114550057D02*
X171207142Y-114645295D01*
X171207142Y-114645295D02*
X171207142Y-114788152D01*
X171207142Y-114788152D02*
X171159523Y-114883390D01*
X171159523Y-114883390D02*
X171111904Y-114931009D01*
X171111904Y-114931009D02*
X171016666Y-114978628D01*
X171016666Y-114978628D02*
X170635714Y-114978628D01*
X172159523Y-115454819D02*
X171588095Y-115454819D01*
X171873809Y-115454819D02*
X171873809Y-114454819D01*
X171873809Y-114454819D02*
X171778571Y-114597676D01*
X171778571Y-114597676D02*
X171683333Y-114692914D01*
X171683333Y-114692914D02*
X171588095Y-114740533D01*
X172492857Y-114454819D02*
X173111904Y-114454819D01*
X173111904Y-114454819D02*
X172778571Y-114835771D01*
X172778571Y-114835771D02*
X172921428Y-114835771D01*
X172921428Y-114835771D02*
X173016666Y-114883390D01*
X173016666Y-114883390D02*
X173064285Y-114931009D01*
X173064285Y-114931009D02*
X173111904Y-115026247D01*
X173111904Y-115026247D02*
X173111904Y-115264342D01*
X173111904Y-115264342D02*
X173064285Y-115359580D01*
X173064285Y-115359580D02*
X173016666Y-115407200D01*
X173016666Y-115407200D02*
X172921428Y-115454819D01*
X172921428Y-115454819D02*
X172635714Y-115454819D01*
X172635714Y-115454819D02*
X172540476Y-115407200D01*
X172540476Y-115407200D02*
X172492857Y-115359580D01*
X147732142Y-79954819D02*
X147398809Y-79478628D01*
X147160714Y-79954819D02*
X147160714Y-78954819D01*
X147160714Y-78954819D02*
X147541666Y-78954819D01*
X147541666Y-78954819D02*
X147636904Y-79002438D01*
X147636904Y-79002438D02*
X147684523Y-79050057D01*
X147684523Y-79050057D02*
X147732142Y-79145295D01*
X147732142Y-79145295D02*
X147732142Y-79288152D01*
X147732142Y-79288152D02*
X147684523Y-79383390D01*
X147684523Y-79383390D02*
X147636904Y-79431009D01*
X147636904Y-79431009D02*
X147541666Y-79478628D01*
X147541666Y-79478628D02*
X147160714Y-79478628D01*
X148684523Y-79954819D02*
X148113095Y-79954819D01*
X148398809Y-79954819D02*
X148398809Y-78954819D01*
X148398809Y-78954819D02*
X148303571Y-79097676D01*
X148303571Y-79097676D02*
X148208333Y-79192914D01*
X148208333Y-79192914D02*
X148113095Y-79240533D01*
X149017857Y-78954819D02*
X149684523Y-78954819D01*
X149684523Y-78954819D02*
X149255952Y-79954819D01*
X176733333Y-83354819D02*
X176400000Y-82878628D01*
X176161905Y-83354819D02*
X176161905Y-82354819D01*
X176161905Y-82354819D02*
X176542857Y-82354819D01*
X176542857Y-82354819D02*
X176638095Y-82402438D01*
X176638095Y-82402438D02*
X176685714Y-82450057D01*
X176685714Y-82450057D02*
X176733333Y-82545295D01*
X176733333Y-82545295D02*
X176733333Y-82688152D01*
X176733333Y-82688152D02*
X176685714Y-82783390D01*
X176685714Y-82783390D02*
X176638095Y-82831009D01*
X176638095Y-82831009D02*
X176542857Y-82878628D01*
X176542857Y-82878628D02*
X176161905Y-82878628D01*
X177352381Y-82354819D02*
X177447619Y-82354819D01*
X177447619Y-82354819D02*
X177542857Y-82402438D01*
X177542857Y-82402438D02*
X177590476Y-82450057D01*
X177590476Y-82450057D02*
X177638095Y-82545295D01*
X177638095Y-82545295D02*
X177685714Y-82735771D01*
X177685714Y-82735771D02*
X177685714Y-82973866D01*
X177685714Y-82973866D02*
X177638095Y-83164342D01*
X177638095Y-83164342D02*
X177590476Y-83259580D01*
X177590476Y-83259580D02*
X177542857Y-83307200D01*
X177542857Y-83307200D02*
X177447619Y-83354819D01*
X177447619Y-83354819D02*
X177352381Y-83354819D01*
X177352381Y-83354819D02*
X177257143Y-83307200D01*
X177257143Y-83307200D02*
X177209524Y-83259580D01*
X177209524Y-83259580D02*
X177161905Y-83164342D01*
X177161905Y-83164342D02*
X177114286Y-82973866D01*
X177114286Y-82973866D02*
X177114286Y-82735771D01*
X177114286Y-82735771D02*
X177161905Y-82545295D01*
X177161905Y-82545295D02*
X177209524Y-82450057D01*
X177209524Y-82450057D02*
X177257143Y-82402438D01*
X177257143Y-82402438D02*
X177352381Y-82354819D01*
X109147142Y-112904819D02*
X108813809Y-112428628D01*
X108575714Y-112904819D02*
X108575714Y-111904819D01*
X108575714Y-111904819D02*
X108956666Y-111904819D01*
X108956666Y-111904819D02*
X109051904Y-111952438D01*
X109051904Y-111952438D02*
X109099523Y-112000057D01*
X109099523Y-112000057D02*
X109147142Y-112095295D01*
X109147142Y-112095295D02*
X109147142Y-112238152D01*
X109147142Y-112238152D02*
X109099523Y-112333390D01*
X109099523Y-112333390D02*
X109051904Y-112381009D01*
X109051904Y-112381009D02*
X108956666Y-112428628D01*
X108956666Y-112428628D02*
X108575714Y-112428628D01*
X110004285Y-112238152D02*
X110004285Y-112904819D01*
X109766190Y-111857200D02*
X109528095Y-112571485D01*
X109528095Y-112571485D02*
X110147142Y-112571485D01*
X110670952Y-112333390D02*
X110575714Y-112285771D01*
X110575714Y-112285771D02*
X110528095Y-112238152D01*
X110528095Y-112238152D02*
X110480476Y-112142914D01*
X110480476Y-112142914D02*
X110480476Y-112095295D01*
X110480476Y-112095295D02*
X110528095Y-112000057D01*
X110528095Y-112000057D02*
X110575714Y-111952438D01*
X110575714Y-111952438D02*
X110670952Y-111904819D01*
X110670952Y-111904819D02*
X110861428Y-111904819D01*
X110861428Y-111904819D02*
X110956666Y-111952438D01*
X110956666Y-111952438D02*
X111004285Y-112000057D01*
X111004285Y-112000057D02*
X111051904Y-112095295D01*
X111051904Y-112095295D02*
X111051904Y-112142914D01*
X111051904Y-112142914D02*
X111004285Y-112238152D01*
X111004285Y-112238152D02*
X110956666Y-112285771D01*
X110956666Y-112285771D02*
X110861428Y-112333390D01*
X110861428Y-112333390D02*
X110670952Y-112333390D01*
X110670952Y-112333390D02*
X110575714Y-112381009D01*
X110575714Y-112381009D02*
X110528095Y-112428628D01*
X110528095Y-112428628D02*
X110480476Y-112523866D01*
X110480476Y-112523866D02*
X110480476Y-112714342D01*
X110480476Y-112714342D02*
X110528095Y-112809580D01*
X110528095Y-112809580D02*
X110575714Y-112857200D01*
X110575714Y-112857200D02*
X110670952Y-112904819D01*
X110670952Y-112904819D02*
X110861428Y-112904819D01*
X110861428Y-112904819D02*
X110956666Y-112857200D01*
X110956666Y-112857200D02*
X111004285Y-112809580D01*
X111004285Y-112809580D02*
X111051904Y-112714342D01*
X111051904Y-112714342D02*
X111051904Y-112523866D01*
X111051904Y-112523866D02*
X111004285Y-112428628D01*
X111004285Y-112428628D02*
X110956666Y-112381009D01*
X110956666Y-112381009D02*
X110861428Y-112333390D01*
X119807142Y-80354819D02*
X119473809Y-79878628D01*
X119235714Y-80354819D02*
X119235714Y-79354819D01*
X119235714Y-79354819D02*
X119616666Y-79354819D01*
X119616666Y-79354819D02*
X119711904Y-79402438D01*
X119711904Y-79402438D02*
X119759523Y-79450057D01*
X119759523Y-79450057D02*
X119807142Y-79545295D01*
X119807142Y-79545295D02*
X119807142Y-79688152D01*
X119807142Y-79688152D02*
X119759523Y-79783390D01*
X119759523Y-79783390D02*
X119711904Y-79831009D01*
X119711904Y-79831009D02*
X119616666Y-79878628D01*
X119616666Y-79878628D02*
X119235714Y-79878628D01*
X120140476Y-79354819D02*
X120759523Y-79354819D01*
X120759523Y-79354819D02*
X120426190Y-79735771D01*
X120426190Y-79735771D02*
X120569047Y-79735771D01*
X120569047Y-79735771D02*
X120664285Y-79783390D01*
X120664285Y-79783390D02*
X120711904Y-79831009D01*
X120711904Y-79831009D02*
X120759523Y-79926247D01*
X120759523Y-79926247D02*
X120759523Y-80164342D01*
X120759523Y-80164342D02*
X120711904Y-80259580D01*
X120711904Y-80259580D02*
X120664285Y-80307200D01*
X120664285Y-80307200D02*
X120569047Y-80354819D01*
X120569047Y-80354819D02*
X120283333Y-80354819D01*
X120283333Y-80354819D02*
X120188095Y-80307200D01*
X120188095Y-80307200D02*
X120140476Y-80259580D01*
X121616666Y-79688152D02*
X121616666Y-80354819D01*
X121378571Y-79307200D02*
X121140476Y-80021485D01*
X121140476Y-80021485D02*
X121759523Y-80021485D01*
X137461905Y-109404819D02*
X137461905Y-108404819D01*
X137461905Y-108404819D02*
X137700000Y-108404819D01*
X137700000Y-108404819D02*
X137842857Y-108452438D01*
X137842857Y-108452438D02*
X137938095Y-108547676D01*
X137938095Y-108547676D02*
X137985714Y-108642914D01*
X137985714Y-108642914D02*
X138033333Y-108833390D01*
X138033333Y-108833390D02*
X138033333Y-108976247D01*
X138033333Y-108976247D02*
X137985714Y-109166723D01*
X137985714Y-109166723D02*
X137938095Y-109261961D01*
X137938095Y-109261961D02*
X137842857Y-109357200D01*
X137842857Y-109357200D02*
X137700000Y-109404819D01*
X137700000Y-109404819D02*
X137461905Y-109404819D01*
X138366667Y-108404819D02*
X138985714Y-108404819D01*
X138985714Y-108404819D02*
X138652381Y-108785771D01*
X138652381Y-108785771D02*
X138795238Y-108785771D01*
X138795238Y-108785771D02*
X138890476Y-108833390D01*
X138890476Y-108833390D02*
X138938095Y-108881009D01*
X138938095Y-108881009D02*
X138985714Y-108976247D01*
X138985714Y-108976247D02*
X138985714Y-109214342D01*
X138985714Y-109214342D02*
X138938095Y-109309580D01*
X138938095Y-109309580D02*
X138890476Y-109357200D01*
X138890476Y-109357200D02*
X138795238Y-109404819D01*
X138795238Y-109404819D02*
X138509524Y-109404819D01*
X138509524Y-109404819D02*
X138414286Y-109357200D01*
X138414286Y-109357200D02*
X138366667Y-109309580D01*
X134128095Y-107604819D02*
X134128095Y-106604819D01*
X134699523Y-107604819D02*
X134270952Y-107033390D01*
X134699523Y-106604819D02*
X134128095Y-107176247D01*
X135154819Y-120742857D02*
X134678628Y-121076190D01*
X135154819Y-121314285D02*
X134154819Y-121314285D01*
X134154819Y-121314285D02*
X134154819Y-120933333D01*
X134154819Y-120933333D02*
X134202438Y-120838095D01*
X134202438Y-120838095D02*
X134250057Y-120790476D01*
X134250057Y-120790476D02*
X134345295Y-120742857D01*
X134345295Y-120742857D02*
X134488152Y-120742857D01*
X134488152Y-120742857D02*
X134583390Y-120790476D01*
X134583390Y-120790476D02*
X134631009Y-120838095D01*
X134631009Y-120838095D02*
X134678628Y-120933333D01*
X134678628Y-120933333D02*
X134678628Y-121314285D01*
X134154819Y-120409523D02*
X134154819Y-119790476D01*
X134154819Y-119790476D02*
X134535771Y-120123809D01*
X134535771Y-120123809D02*
X134535771Y-119980952D01*
X134535771Y-119980952D02*
X134583390Y-119885714D01*
X134583390Y-119885714D02*
X134631009Y-119838095D01*
X134631009Y-119838095D02*
X134726247Y-119790476D01*
X134726247Y-119790476D02*
X134964342Y-119790476D01*
X134964342Y-119790476D02*
X135059580Y-119838095D01*
X135059580Y-119838095D02*
X135107200Y-119885714D01*
X135107200Y-119885714D02*
X135154819Y-119980952D01*
X135154819Y-119980952D02*
X135154819Y-120266666D01*
X135154819Y-120266666D02*
X135107200Y-120361904D01*
X135107200Y-120361904D02*
X135059580Y-120409523D01*
X134154819Y-119457142D02*
X134154819Y-118838095D01*
X134154819Y-118838095D02*
X134535771Y-119171428D01*
X134535771Y-119171428D02*
X134535771Y-119028571D01*
X134535771Y-119028571D02*
X134583390Y-118933333D01*
X134583390Y-118933333D02*
X134631009Y-118885714D01*
X134631009Y-118885714D02*
X134726247Y-118838095D01*
X134726247Y-118838095D02*
X134964342Y-118838095D01*
X134964342Y-118838095D02*
X135059580Y-118885714D01*
X135059580Y-118885714D02*
X135107200Y-118933333D01*
X135107200Y-118933333D02*
X135154819Y-119028571D01*
X135154819Y-119028571D02*
X135154819Y-119314285D01*
X135154819Y-119314285D02*
X135107200Y-119409523D01*
X135107200Y-119409523D02*
X135059580Y-119457142D01*
X157333333Y-92109580D02*
X157285714Y-92157200D01*
X157285714Y-92157200D02*
X157142857Y-92204819D01*
X157142857Y-92204819D02*
X157047619Y-92204819D01*
X157047619Y-92204819D02*
X156904762Y-92157200D01*
X156904762Y-92157200D02*
X156809524Y-92061961D01*
X156809524Y-92061961D02*
X156761905Y-91966723D01*
X156761905Y-91966723D02*
X156714286Y-91776247D01*
X156714286Y-91776247D02*
X156714286Y-91633390D01*
X156714286Y-91633390D02*
X156761905Y-91442914D01*
X156761905Y-91442914D02*
X156809524Y-91347676D01*
X156809524Y-91347676D02*
X156904762Y-91252438D01*
X156904762Y-91252438D02*
X157047619Y-91204819D01*
X157047619Y-91204819D02*
X157142857Y-91204819D01*
X157142857Y-91204819D02*
X157285714Y-91252438D01*
X157285714Y-91252438D02*
X157333333Y-91300057D01*
X158190476Y-91538152D02*
X158190476Y-92204819D01*
X157952381Y-91157200D02*
X157714286Y-91871485D01*
X157714286Y-91871485D02*
X158333333Y-91871485D01*
X119807142Y-83754819D02*
X119473809Y-83278628D01*
X119235714Y-83754819D02*
X119235714Y-82754819D01*
X119235714Y-82754819D02*
X119616666Y-82754819D01*
X119616666Y-82754819D02*
X119711904Y-82802438D01*
X119711904Y-82802438D02*
X119759523Y-82850057D01*
X119759523Y-82850057D02*
X119807142Y-82945295D01*
X119807142Y-82945295D02*
X119807142Y-83088152D01*
X119807142Y-83088152D02*
X119759523Y-83183390D01*
X119759523Y-83183390D02*
X119711904Y-83231009D01*
X119711904Y-83231009D02*
X119616666Y-83278628D01*
X119616666Y-83278628D02*
X119235714Y-83278628D01*
X120140476Y-82754819D02*
X120759523Y-82754819D01*
X120759523Y-82754819D02*
X120426190Y-83135771D01*
X120426190Y-83135771D02*
X120569047Y-83135771D01*
X120569047Y-83135771D02*
X120664285Y-83183390D01*
X120664285Y-83183390D02*
X120711904Y-83231009D01*
X120711904Y-83231009D02*
X120759523Y-83326247D01*
X120759523Y-83326247D02*
X120759523Y-83564342D01*
X120759523Y-83564342D02*
X120711904Y-83659580D01*
X120711904Y-83659580D02*
X120664285Y-83707200D01*
X120664285Y-83707200D02*
X120569047Y-83754819D01*
X120569047Y-83754819D02*
X120283333Y-83754819D01*
X120283333Y-83754819D02*
X120188095Y-83707200D01*
X120188095Y-83707200D02*
X120140476Y-83659580D01*
X121616666Y-82754819D02*
X121426190Y-82754819D01*
X121426190Y-82754819D02*
X121330952Y-82802438D01*
X121330952Y-82802438D02*
X121283333Y-82850057D01*
X121283333Y-82850057D02*
X121188095Y-82992914D01*
X121188095Y-82992914D02*
X121140476Y-83183390D01*
X121140476Y-83183390D02*
X121140476Y-83564342D01*
X121140476Y-83564342D02*
X121188095Y-83659580D01*
X121188095Y-83659580D02*
X121235714Y-83707200D01*
X121235714Y-83707200D02*
X121330952Y-83754819D01*
X121330952Y-83754819D02*
X121521428Y-83754819D01*
X121521428Y-83754819D02*
X121616666Y-83707200D01*
X121616666Y-83707200D02*
X121664285Y-83659580D01*
X121664285Y-83659580D02*
X121711904Y-83564342D01*
X121711904Y-83564342D02*
X121711904Y-83326247D01*
X121711904Y-83326247D02*
X121664285Y-83231009D01*
X121664285Y-83231009D02*
X121616666Y-83183390D01*
X121616666Y-83183390D02*
X121521428Y-83135771D01*
X121521428Y-83135771D02*
X121330952Y-83135771D01*
X121330952Y-83135771D02*
X121235714Y-83183390D01*
X121235714Y-83183390D02*
X121188095Y-83231009D01*
X121188095Y-83231009D02*
X121140476Y-83326247D01*
X166023333Y-102254819D02*
X165690000Y-101778628D01*
X165451905Y-102254819D02*
X165451905Y-101254819D01*
X165451905Y-101254819D02*
X165832857Y-101254819D01*
X165832857Y-101254819D02*
X165928095Y-101302438D01*
X165928095Y-101302438D02*
X165975714Y-101350057D01*
X165975714Y-101350057D02*
X166023333Y-101445295D01*
X166023333Y-101445295D02*
X166023333Y-101588152D01*
X166023333Y-101588152D02*
X165975714Y-101683390D01*
X165975714Y-101683390D02*
X165928095Y-101731009D01*
X165928095Y-101731009D02*
X165832857Y-101778628D01*
X165832857Y-101778628D02*
X165451905Y-101778628D01*
X166594762Y-101683390D02*
X166499524Y-101635771D01*
X166499524Y-101635771D02*
X166451905Y-101588152D01*
X166451905Y-101588152D02*
X166404286Y-101492914D01*
X166404286Y-101492914D02*
X166404286Y-101445295D01*
X166404286Y-101445295D02*
X166451905Y-101350057D01*
X166451905Y-101350057D02*
X166499524Y-101302438D01*
X166499524Y-101302438D02*
X166594762Y-101254819D01*
X166594762Y-101254819D02*
X166785238Y-101254819D01*
X166785238Y-101254819D02*
X166880476Y-101302438D01*
X166880476Y-101302438D02*
X166928095Y-101350057D01*
X166928095Y-101350057D02*
X166975714Y-101445295D01*
X166975714Y-101445295D02*
X166975714Y-101492914D01*
X166975714Y-101492914D02*
X166928095Y-101588152D01*
X166928095Y-101588152D02*
X166880476Y-101635771D01*
X166880476Y-101635771D02*
X166785238Y-101683390D01*
X166785238Y-101683390D02*
X166594762Y-101683390D01*
X166594762Y-101683390D02*
X166499524Y-101731009D01*
X166499524Y-101731009D02*
X166451905Y-101778628D01*
X166451905Y-101778628D02*
X166404286Y-101873866D01*
X166404286Y-101873866D02*
X166404286Y-102064342D01*
X166404286Y-102064342D02*
X166451905Y-102159580D01*
X166451905Y-102159580D02*
X166499524Y-102207200D01*
X166499524Y-102207200D02*
X166594762Y-102254819D01*
X166594762Y-102254819D02*
X166785238Y-102254819D01*
X166785238Y-102254819D02*
X166880476Y-102207200D01*
X166880476Y-102207200D02*
X166928095Y-102159580D01*
X166928095Y-102159580D02*
X166975714Y-102064342D01*
X166975714Y-102064342D02*
X166975714Y-101873866D01*
X166975714Y-101873866D02*
X166928095Y-101778628D01*
X166928095Y-101778628D02*
X166880476Y-101731009D01*
X166880476Y-101731009D02*
X166785238Y-101683390D01*
X109147142Y-80304819D02*
X108813809Y-79828628D01*
X108575714Y-80304819D02*
X108575714Y-79304819D01*
X108575714Y-79304819D02*
X108956666Y-79304819D01*
X108956666Y-79304819D02*
X109051904Y-79352438D01*
X109051904Y-79352438D02*
X109099523Y-79400057D01*
X109099523Y-79400057D02*
X109147142Y-79495295D01*
X109147142Y-79495295D02*
X109147142Y-79638152D01*
X109147142Y-79638152D02*
X109099523Y-79733390D01*
X109099523Y-79733390D02*
X109051904Y-79781009D01*
X109051904Y-79781009D02*
X108956666Y-79828628D01*
X108956666Y-79828628D02*
X108575714Y-79828628D01*
X109480476Y-79304819D02*
X110099523Y-79304819D01*
X110099523Y-79304819D02*
X109766190Y-79685771D01*
X109766190Y-79685771D02*
X109909047Y-79685771D01*
X109909047Y-79685771D02*
X110004285Y-79733390D01*
X110004285Y-79733390D02*
X110051904Y-79781009D01*
X110051904Y-79781009D02*
X110099523Y-79876247D01*
X110099523Y-79876247D02*
X110099523Y-80114342D01*
X110099523Y-80114342D02*
X110051904Y-80209580D01*
X110051904Y-80209580D02*
X110004285Y-80257200D01*
X110004285Y-80257200D02*
X109909047Y-80304819D01*
X109909047Y-80304819D02*
X109623333Y-80304819D01*
X109623333Y-80304819D02*
X109528095Y-80257200D01*
X109528095Y-80257200D02*
X109480476Y-80209580D01*
X111004285Y-79304819D02*
X110528095Y-79304819D01*
X110528095Y-79304819D02*
X110480476Y-79781009D01*
X110480476Y-79781009D02*
X110528095Y-79733390D01*
X110528095Y-79733390D02*
X110623333Y-79685771D01*
X110623333Y-79685771D02*
X110861428Y-79685771D01*
X110861428Y-79685771D02*
X110956666Y-79733390D01*
X110956666Y-79733390D02*
X111004285Y-79781009D01*
X111004285Y-79781009D02*
X111051904Y-79876247D01*
X111051904Y-79876247D02*
X111051904Y-80114342D01*
X111051904Y-80114342D02*
X111004285Y-80209580D01*
X111004285Y-80209580D02*
X110956666Y-80257200D01*
X110956666Y-80257200D02*
X110861428Y-80304819D01*
X110861428Y-80304819D02*
X110623333Y-80304819D01*
X110623333Y-80304819D02*
X110528095Y-80257200D01*
X110528095Y-80257200D02*
X110480476Y-80209580D01*
X176147142Y-112454819D02*
X175813809Y-111978628D01*
X175575714Y-112454819D02*
X175575714Y-111454819D01*
X175575714Y-111454819D02*
X175956666Y-111454819D01*
X175956666Y-111454819D02*
X176051904Y-111502438D01*
X176051904Y-111502438D02*
X176099523Y-111550057D01*
X176099523Y-111550057D02*
X176147142Y-111645295D01*
X176147142Y-111645295D02*
X176147142Y-111788152D01*
X176147142Y-111788152D02*
X176099523Y-111883390D01*
X176099523Y-111883390D02*
X176051904Y-111931009D01*
X176051904Y-111931009D02*
X175956666Y-111978628D01*
X175956666Y-111978628D02*
X175575714Y-111978628D01*
X177099523Y-112454819D02*
X176528095Y-112454819D01*
X176813809Y-112454819D02*
X176813809Y-111454819D01*
X176813809Y-111454819D02*
X176718571Y-111597676D01*
X176718571Y-111597676D02*
X176623333Y-111692914D01*
X176623333Y-111692914D02*
X176528095Y-111740533D01*
X178004285Y-111454819D02*
X177528095Y-111454819D01*
X177528095Y-111454819D02*
X177480476Y-111931009D01*
X177480476Y-111931009D02*
X177528095Y-111883390D01*
X177528095Y-111883390D02*
X177623333Y-111835771D01*
X177623333Y-111835771D02*
X177861428Y-111835771D01*
X177861428Y-111835771D02*
X177956666Y-111883390D01*
X177956666Y-111883390D02*
X178004285Y-111931009D01*
X178004285Y-111931009D02*
X178051904Y-112026247D01*
X178051904Y-112026247D02*
X178051904Y-112264342D01*
X178051904Y-112264342D02*
X178004285Y-112359580D01*
X178004285Y-112359580D02*
X177956666Y-112407200D01*
X177956666Y-112407200D02*
X177861428Y-112454819D01*
X177861428Y-112454819D02*
X177623333Y-112454819D01*
X177623333Y-112454819D02*
X177528095Y-112407200D01*
X177528095Y-112407200D02*
X177480476Y-112359580D01*
X157233333Y-74359580D02*
X157185714Y-74407200D01*
X157185714Y-74407200D02*
X157042857Y-74454819D01*
X157042857Y-74454819D02*
X156947619Y-74454819D01*
X156947619Y-74454819D02*
X156804762Y-74407200D01*
X156804762Y-74407200D02*
X156709524Y-74311961D01*
X156709524Y-74311961D02*
X156661905Y-74216723D01*
X156661905Y-74216723D02*
X156614286Y-74026247D01*
X156614286Y-74026247D02*
X156614286Y-73883390D01*
X156614286Y-73883390D02*
X156661905Y-73692914D01*
X156661905Y-73692914D02*
X156709524Y-73597676D01*
X156709524Y-73597676D02*
X156804762Y-73502438D01*
X156804762Y-73502438D02*
X156947619Y-73454819D01*
X156947619Y-73454819D02*
X157042857Y-73454819D01*
X157042857Y-73454819D02*
X157185714Y-73502438D01*
X157185714Y-73502438D02*
X157233333Y-73550057D01*
X157614286Y-73550057D02*
X157661905Y-73502438D01*
X157661905Y-73502438D02*
X157757143Y-73454819D01*
X157757143Y-73454819D02*
X157995238Y-73454819D01*
X157995238Y-73454819D02*
X158090476Y-73502438D01*
X158090476Y-73502438D02*
X158138095Y-73550057D01*
X158138095Y-73550057D02*
X158185714Y-73645295D01*
X158185714Y-73645295D02*
X158185714Y-73740533D01*
X158185714Y-73740533D02*
X158138095Y-73883390D01*
X158138095Y-73883390D02*
X157566667Y-74454819D01*
X157566667Y-74454819D02*
X158185714Y-74454819D01*
X119807142Y-112904819D02*
X119473809Y-112428628D01*
X119235714Y-112904819D02*
X119235714Y-111904819D01*
X119235714Y-111904819D02*
X119616666Y-111904819D01*
X119616666Y-111904819D02*
X119711904Y-111952438D01*
X119711904Y-111952438D02*
X119759523Y-112000057D01*
X119759523Y-112000057D02*
X119807142Y-112095295D01*
X119807142Y-112095295D02*
X119807142Y-112238152D01*
X119807142Y-112238152D02*
X119759523Y-112333390D01*
X119759523Y-112333390D02*
X119711904Y-112381009D01*
X119711904Y-112381009D02*
X119616666Y-112428628D01*
X119616666Y-112428628D02*
X119235714Y-112428628D01*
X120664285Y-112238152D02*
X120664285Y-112904819D01*
X120426190Y-111857200D02*
X120188095Y-112571485D01*
X120188095Y-112571485D02*
X120807142Y-112571485D01*
X121092857Y-111904819D02*
X121759523Y-111904819D01*
X121759523Y-111904819D02*
X121330952Y-112904819D01*
X139754819Y-90942857D02*
X139278628Y-91276190D01*
X139754819Y-91514285D02*
X138754819Y-91514285D01*
X138754819Y-91514285D02*
X138754819Y-91133333D01*
X138754819Y-91133333D02*
X138802438Y-91038095D01*
X138802438Y-91038095D02*
X138850057Y-90990476D01*
X138850057Y-90990476D02*
X138945295Y-90942857D01*
X138945295Y-90942857D02*
X139088152Y-90942857D01*
X139088152Y-90942857D02*
X139183390Y-90990476D01*
X139183390Y-90990476D02*
X139231009Y-91038095D01*
X139231009Y-91038095D02*
X139278628Y-91133333D01*
X139278628Y-91133333D02*
X139278628Y-91514285D01*
X138850057Y-90561904D02*
X138802438Y-90514285D01*
X138802438Y-90514285D02*
X138754819Y-90419047D01*
X138754819Y-90419047D02*
X138754819Y-90180952D01*
X138754819Y-90180952D02*
X138802438Y-90085714D01*
X138802438Y-90085714D02*
X138850057Y-90038095D01*
X138850057Y-90038095D02*
X138945295Y-89990476D01*
X138945295Y-89990476D02*
X139040533Y-89990476D01*
X139040533Y-89990476D02*
X139183390Y-90038095D01*
X139183390Y-90038095D02*
X139754819Y-90609523D01*
X139754819Y-90609523D02*
X139754819Y-89990476D01*
X138850057Y-89609523D02*
X138802438Y-89561904D01*
X138802438Y-89561904D02*
X138754819Y-89466666D01*
X138754819Y-89466666D02*
X138754819Y-89228571D01*
X138754819Y-89228571D02*
X138802438Y-89133333D01*
X138802438Y-89133333D02*
X138850057Y-89085714D01*
X138850057Y-89085714D02*
X138945295Y-89038095D01*
X138945295Y-89038095D02*
X139040533Y-89038095D01*
X139040533Y-89038095D02*
X139183390Y-89085714D01*
X139183390Y-89085714D02*
X139754819Y-89657142D01*
X139754819Y-89657142D02*
X139754819Y-89038095D01*
X136179819Y-90942857D02*
X135703628Y-91276190D01*
X136179819Y-91514285D02*
X135179819Y-91514285D01*
X135179819Y-91514285D02*
X135179819Y-91133333D01*
X135179819Y-91133333D02*
X135227438Y-91038095D01*
X135227438Y-91038095D02*
X135275057Y-90990476D01*
X135275057Y-90990476D02*
X135370295Y-90942857D01*
X135370295Y-90942857D02*
X135513152Y-90942857D01*
X135513152Y-90942857D02*
X135608390Y-90990476D01*
X135608390Y-90990476D02*
X135656009Y-91038095D01*
X135656009Y-91038095D02*
X135703628Y-91133333D01*
X135703628Y-91133333D02*
X135703628Y-91514285D01*
X135275057Y-90561904D02*
X135227438Y-90514285D01*
X135227438Y-90514285D02*
X135179819Y-90419047D01*
X135179819Y-90419047D02*
X135179819Y-90180952D01*
X135179819Y-90180952D02*
X135227438Y-90085714D01*
X135227438Y-90085714D02*
X135275057Y-90038095D01*
X135275057Y-90038095D02*
X135370295Y-89990476D01*
X135370295Y-89990476D02*
X135465533Y-89990476D01*
X135465533Y-89990476D02*
X135608390Y-90038095D01*
X135608390Y-90038095D02*
X136179819Y-90609523D01*
X136179819Y-90609523D02*
X136179819Y-89990476D01*
X136179819Y-89038095D02*
X136179819Y-89609523D01*
X136179819Y-89323809D02*
X135179819Y-89323809D01*
X135179819Y-89323809D02*
X135322676Y-89419047D01*
X135322676Y-89419047D02*
X135417914Y-89514285D01*
X135417914Y-89514285D02*
X135465533Y-89609523D01*
D11*
X170618095Y-98507419D02*
X170618095Y-99316942D01*
X170618095Y-99316942D02*
X170665714Y-99412180D01*
X170665714Y-99412180D02*
X170713333Y-99459800D01*
X170713333Y-99459800D02*
X170808571Y-99507419D01*
X170808571Y-99507419D02*
X170999047Y-99507419D01*
X170999047Y-99507419D02*
X171094285Y-99459800D01*
X171094285Y-99459800D02*
X171141904Y-99412180D01*
X171141904Y-99412180D02*
X171189523Y-99316942D01*
X171189523Y-99316942D02*
X171189523Y-98507419D01*
X171618095Y-98602657D02*
X171665714Y-98555038D01*
X171665714Y-98555038D02*
X171760952Y-98507419D01*
X171760952Y-98507419D02*
X171999047Y-98507419D01*
X171999047Y-98507419D02*
X172094285Y-98555038D01*
X172094285Y-98555038D02*
X172141904Y-98602657D01*
X172141904Y-98602657D02*
X172189523Y-98697895D01*
X172189523Y-98697895D02*
X172189523Y-98793133D01*
X172189523Y-98793133D02*
X172141904Y-98935990D01*
X172141904Y-98935990D02*
X171570476Y-99507419D01*
X171570476Y-99507419D02*
X172189523Y-99507419D01*
D10*
X109147142Y-102136069D02*
X108813809Y-101659878D01*
X108575714Y-102136069D02*
X108575714Y-101136069D01*
X108575714Y-101136069D02*
X108956666Y-101136069D01*
X108956666Y-101136069D02*
X109051904Y-101183688D01*
X109051904Y-101183688D02*
X109099523Y-101231307D01*
X109099523Y-101231307D02*
X109147142Y-101326545D01*
X109147142Y-101326545D02*
X109147142Y-101469402D01*
X109147142Y-101469402D02*
X109099523Y-101564640D01*
X109099523Y-101564640D02*
X109051904Y-101612259D01*
X109051904Y-101612259D02*
X108956666Y-101659878D01*
X108956666Y-101659878D02*
X108575714Y-101659878D01*
X110004285Y-101469402D02*
X110004285Y-102136069D01*
X109766190Y-101088450D02*
X109528095Y-101802735D01*
X109528095Y-101802735D02*
X110147142Y-101802735D01*
X110480476Y-101231307D02*
X110528095Y-101183688D01*
X110528095Y-101183688D02*
X110623333Y-101136069D01*
X110623333Y-101136069D02*
X110861428Y-101136069D01*
X110861428Y-101136069D02*
X110956666Y-101183688D01*
X110956666Y-101183688D02*
X111004285Y-101231307D01*
X111004285Y-101231307D02*
X111051904Y-101326545D01*
X111051904Y-101326545D02*
X111051904Y-101421783D01*
X111051904Y-101421783D02*
X111004285Y-101564640D01*
X111004285Y-101564640D02*
X110432857Y-102136069D01*
X110432857Y-102136069D02*
X111051904Y-102136069D01*
X166033333Y-98554819D02*
X165700000Y-98078628D01*
X165461905Y-98554819D02*
X165461905Y-97554819D01*
X165461905Y-97554819D02*
X165842857Y-97554819D01*
X165842857Y-97554819D02*
X165938095Y-97602438D01*
X165938095Y-97602438D02*
X165985714Y-97650057D01*
X165985714Y-97650057D02*
X166033333Y-97745295D01*
X166033333Y-97745295D02*
X166033333Y-97888152D01*
X166033333Y-97888152D02*
X165985714Y-97983390D01*
X165985714Y-97983390D02*
X165938095Y-98031009D01*
X165938095Y-98031009D02*
X165842857Y-98078628D01*
X165842857Y-98078628D02*
X165461905Y-98078628D01*
X166366667Y-97554819D02*
X167033333Y-97554819D01*
X167033333Y-97554819D02*
X166604762Y-98554819D01*
X148057142Y-109404819D02*
X147723809Y-108928628D01*
X147485714Y-109404819D02*
X147485714Y-108404819D01*
X147485714Y-108404819D02*
X147866666Y-108404819D01*
X147866666Y-108404819D02*
X147961904Y-108452438D01*
X147961904Y-108452438D02*
X148009523Y-108500057D01*
X148009523Y-108500057D02*
X148057142Y-108595295D01*
X148057142Y-108595295D02*
X148057142Y-108738152D01*
X148057142Y-108738152D02*
X148009523Y-108833390D01*
X148009523Y-108833390D02*
X147961904Y-108881009D01*
X147961904Y-108881009D02*
X147866666Y-108928628D01*
X147866666Y-108928628D02*
X147485714Y-108928628D01*
X148438095Y-108500057D02*
X148485714Y-108452438D01*
X148485714Y-108452438D02*
X148580952Y-108404819D01*
X148580952Y-108404819D02*
X148819047Y-108404819D01*
X148819047Y-108404819D02*
X148914285Y-108452438D01*
X148914285Y-108452438D02*
X148961904Y-108500057D01*
X148961904Y-108500057D02*
X149009523Y-108595295D01*
X149009523Y-108595295D02*
X149009523Y-108690533D01*
X149009523Y-108690533D02*
X148961904Y-108833390D01*
X148961904Y-108833390D02*
X148390476Y-109404819D01*
X148390476Y-109404819D02*
X149009523Y-109404819D01*
X149485714Y-109404819D02*
X149676190Y-109404819D01*
X149676190Y-109404819D02*
X149771428Y-109357200D01*
X149771428Y-109357200D02*
X149819047Y-109309580D01*
X149819047Y-109309580D02*
X149914285Y-109166723D01*
X149914285Y-109166723D02*
X149961904Y-108976247D01*
X149961904Y-108976247D02*
X149961904Y-108595295D01*
X149961904Y-108595295D02*
X149914285Y-108500057D01*
X149914285Y-108500057D02*
X149866666Y-108452438D01*
X149866666Y-108452438D02*
X149771428Y-108404819D01*
X149771428Y-108404819D02*
X149580952Y-108404819D01*
X149580952Y-108404819D02*
X149485714Y-108452438D01*
X149485714Y-108452438D02*
X149438095Y-108500057D01*
X149438095Y-108500057D02*
X149390476Y-108595295D01*
X149390476Y-108595295D02*
X149390476Y-108833390D01*
X149390476Y-108833390D02*
X149438095Y-108928628D01*
X149438095Y-108928628D02*
X149485714Y-108976247D01*
X149485714Y-108976247D02*
X149580952Y-109023866D01*
X149580952Y-109023866D02*
X149771428Y-109023866D01*
X149771428Y-109023866D02*
X149866666Y-108976247D01*
X149866666Y-108976247D02*
X149914285Y-108928628D01*
X149914285Y-108928628D02*
X149961904Y-108833390D01*
X148007142Y-102231486D02*
X147673809Y-101755295D01*
X147435714Y-102231486D02*
X147435714Y-101231486D01*
X147435714Y-101231486D02*
X147816666Y-101231486D01*
X147816666Y-101231486D02*
X147911904Y-101279105D01*
X147911904Y-101279105D02*
X147959523Y-101326724D01*
X147959523Y-101326724D02*
X148007142Y-101421962D01*
X148007142Y-101421962D02*
X148007142Y-101564819D01*
X148007142Y-101564819D02*
X147959523Y-101660057D01*
X147959523Y-101660057D02*
X147911904Y-101707676D01*
X147911904Y-101707676D02*
X147816666Y-101755295D01*
X147816666Y-101755295D02*
X147435714Y-101755295D01*
X148388095Y-101326724D02*
X148435714Y-101279105D01*
X148435714Y-101279105D02*
X148530952Y-101231486D01*
X148530952Y-101231486D02*
X148769047Y-101231486D01*
X148769047Y-101231486D02*
X148864285Y-101279105D01*
X148864285Y-101279105D02*
X148911904Y-101326724D01*
X148911904Y-101326724D02*
X148959523Y-101421962D01*
X148959523Y-101421962D02*
X148959523Y-101517200D01*
X148959523Y-101517200D02*
X148911904Y-101660057D01*
X148911904Y-101660057D02*
X148340476Y-102231486D01*
X148340476Y-102231486D02*
X148959523Y-102231486D01*
X149816666Y-101231486D02*
X149626190Y-101231486D01*
X149626190Y-101231486D02*
X149530952Y-101279105D01*
X149530952Y-101279105D02*
X149483333Y-101326724D01*
X149483333Y-101326724D02*
X149388095Y-101469581D01*
X149388095Y-101469581D02*
X149340476Y-101660057D01*
X149340476Y-101660057D02*
X149340476Y-102041009D01*
X149340476Y-102041009D02*
X149388095Y-102136247D01*
X149388095Y-102136247D02*
X149435714Y-102183867D01*
X149435714Y-102183867D02*
X149530952Y-102231486D01*
X149530952Y-102231486D02*
X149721428Y-102231486D01*
X149721428Y-102231486D02*
X149816666Y-102183867D01*
X149816666Y-102183867D02*
X149864285Y-102136247D01*
X149864285Y-102136247D02*
X149911904Y-102041009D01*
X149911904Y-102041009D02*
X149911904Y-101802914D01*
X149911904Y-101802914D02*
X149864285Y-101707676D01*
X149864285Y-101707676D02*
X149816666Y-101660057D01*
X149816666Y-101660057D02*
X149721428Y-101612438D01*
X149721428Y-101612438D02*
X149530952Y-101612438D01*
X149530952Y-101612438D02*
X149435714Y-101660057D01*
X149435714Y-101660057D02*
X149388095Y-101707676D01*
X149388095Y-101707676D02*
X149340476Y-101802914D01*
X109147142Y-98379819D02*
X108813809Y-97903628D01*
X108575714Y-98379819D02*
X108575714Y-97379819D01*
X108575714Y-97379819D02*
X108956666Y-97379819D01*
X108956666Y-97379819D02*
X109051904Y-97427438D01*
X109051904Y-97427438D02*
X109099523Y-97475057D01*
X109099523Y-97475057D02*
X109147142Y-97570295D01*
X109147142Y-97570295D02*
X109147142Y-97713152D01*
X109147142Y-97713152D02*
X109099523Y-97808390D01*
X109099523Y-97808390D02*
X109051904Y-97856009D01*
X109051904Y-97856009D02*
X108956666Y-97903628D01*
X108956666Y-97903628D02*
X108575714Y-97903628D01*
X110004285Y-97713152D02*
X110004285Y-98379819D01*
X109766190Y-97332200D02*
X109528095Y-98046485D01*
X109528095Y-98046485D02*
X110147142Y-98046485D01*
X111051904Y-98379819D02*
X110480476Y-98379819D01*
X110766190Y-98379819D02*
X110766190Y-97379819D01*
X110766190Y-97379819D02*
X110670952Y-97522676D01*
X110670952Y-97522676D02*
X110575714Y-97617914D01*
X110575714Y-97617914D02*
X110480476Y-97665533D01*
X142707142Y-116004819D02*
X142373809Y-115528628D01*
X142135714Y-116004819D02*
X142135714Y-115004819D01*
X142135714Y-115004819D02*
X142516666Y-115004819D01*
X142516666Y-115004819D02*
X142611904Y-115052438D01*
X142611904Y-115052438D02*
X142659523Y-115100057D01*
X142659523Y-115100057D02*
X142707142Y-115195295D01*
X142707142Y-115195295D02*
X142707142Y-115338152D01*
X142707142Y-115338152D02*
X142659523Y-115433390D01*
X142659523Y-115433390D02*
X142611904Y-115481009D01*
X142611904Y-115481009D02*
X142516666Y-115528628D01*
X142516666Y-115528628D02*
X142135714Y-115528628D01*
X143040476Y-115004819D02*
X143659523Y-115004819D01*
X143659523Y-115004819D02*
X143326190Y-115385771D01*
X143326190Y-115385771D02*
X143469047Y-115385771D01*
X143469047Y-115385771D02*
X143564285Y-115433390D01*
X143564285Y-115433390D02*
X143611904Y-115481009D01*
X143611904Y-115481009D02*
X143659523Y-115576247D01*
X143659523Y-115576247D02*
X143659523Y-115814342D01*
X143659523Y-115814342D02*
X143611904Y-115909580D01*
X143611904Y-115909580D02*
X143564285Y-115957200D01*
X143564285Y-115957200D02*
X143469047Y-116004819D01*
X143469047Y-116004819D02*
X143183333Y-116004819D01*
X143183333Y-116004819D02*
X143088095Y-115957200D01*
X143088095Y-115957200D02*
X143040476Y-115909580D01*
X144040476Y-115100057D02*
X144088095Y-115052438D01*
X144088095Y-115052438D02*
X144183333Y-115004819D01*
X144183333Y-115004819D02*
X144421428Y-115004819D01*
X144421428Y-115004819D02*
X144516666Y-115052438D01*
X144516666Y-115052438D02*
X144564285Y-115100057D01*
X144564285Y-115100057D02*
X144611904Y-115195295D01*
X144611904Y-115195295D02*
X144611904Y-115290533D01*
X144611904Y-115290533D02*
X144564285Y-115433390D01*
X144564285Y-115433390D02*
X143992857Y-116004819D01*
X143992857Y-116004819D02*
X144611904Y-116004819D01*
D12*
%TO.C,ANALOG_OUT1*%
X126955000Y-50280000D02*
X149635000Y-50280000D01*
X126955000Y-60320000D02*
X126955000Y-50280000D01*
X150235000Y-50280000D02*
X152595000Y-50280000D01*
X152595000Y-50280000D02*
X152595000Y-60320000D01*
X152595000Y-50900000D02*
X126955000Y-50900000D01*
X152595000Y-52400000D02*
X126955000Y-52400000D01*
X152595000Y-57300000D02*
X126955000Y-57300000D01*
X152595000Y-60320000D02*
X126955000Y-60320000D01*
X149935000Y-50280000D02*
X149495000Y-49670000D01*
X150375000Y-49670000D01*
X149935000Y-50280000D01*
G36*
X149935000Y-50280000D02*
G01*
X149495000Y-49670000D01*
X150375000Y-49670000D01*
X149935000Y-50280000D01*
G37*
%TO.C,R12*%
X173520000Y-107430000D02*
X180060000Y-107430000D01*
X173520000Y-107760000D02*
X173520000Y-107430000D01*
X173520000Y-109840000D02*
X173520000Y-110170000D01*
X173520000Y-110170000D02*
X180060000Y-110170000D01*
X180060000Y-107430000D02*
X180060000Y-107760000D01*
X180060000Y-110170000D02*
X180060000Y-109840000D01*
%TO.C,D6*%
X103360000Y-120670000D02*
X103360000Y-120351000D01*
X103360000Y-123149000D02*
X103360000Y-122830000D01*
X99056409Y-120670000D02*
G75*
G02*
X103360000Y-120351251I2243591J-1080000D01*
G01*
X99616670Y-120670000D02*
G75*
G02*
X102983330Y-120670000I1683330J-1080000D01*
G01*
X102983330Y-122830000D02*
G75*
G02*
X99616670Y-122830000I-1683330J1080000D01*
G01*
X103360000Y-123148749D02*
G75*
G02*
X99056409Y-122830000I-2060000J1398749D01*
G01*
%TO.C,R19*%
X145070000Y-81530000D02*
X145070000Y-81860000D01*
X145070000Y-84270000D02*
X145070000Y-83940000D01*
X151610000Y-81530000D02*
X145070000Y-81530000D01*
X151610000Y-81860000D02*
X151610000Y-81530000D01*
X151610000Y-83940000D02*
X151610000Y-84270000D01*
X151610000Y-84270000D02*
X145070000Y-84270000D01*
%TO.C,R28*%
X145430000Y-104155000D02*
X145430000Y-104485000D01*
X145430000Y-106895000D02*
X145430000Y-106565000D01*
X151970000Y-104155000D02*
X145430000Y-104155000D01*
X151970000Y-104485000D02*
X151970000Y-104155000D01*
X151970000Y-106565000D02*
X151970000Y-106895000D01*
X151970000Y-106895000D02*
X145430000Y-106895000D01*
%TO.C,C7*%
X126035000Y-92435000D02*
X133275000Y-92435000D01*
X126035000Y-95175000D02*
X126035000Y-92435000D01*
X133275000Y-92435000D02*
X133275000Y-95175000D01*
X133275000Y-95175000D02*
X126035000Y-95175000D01*
%TO.C,U8*%
D11*
X125580000Y-73550000D02*
X104580000Y-73550000D01*
X104580000Y-124550000D01*
X125580000Y-124550000D01*
X125580000Y-73550000D01*
D12*
%TO.C,R1*%
X163020000Y-81530000D02*
X169560000Y-81530000D01*
X163020000Y-81860000D02*
X163020000Y-81530000D01*
X163020000Y-83940000D02*
X163020000Y-84270000D01*
X163020000Y-84270000D02*
X169560000Y-84270000D01*
X169560000Y-81530000D02*
X169560000Y-81860000D01*
X169560000Y-84270000D02*
X169560000Y-83940000D01*
%TO.C,U6*%
D11*
X153750000Y-73550000D02*
X132750000Y-73550000D01*
X132750000Y-124550000D01*
X153750000Y-124550000D01*
X153750000Y-73550000D01*
D12*
%TO.C,C8*%
X127385000Y-79283333D02*
X128820000Y-79283333D01*
X127385000Y-90523333D02*
X127385000Y-79283333D01*
X128820000Y-90523333D02*
X127385000Y-90523333D01*
X130490000Y-79283333D02*
X131925000Y-79283333D01*
X131925000Y-79283333D02*
X131925000Y-90523333D01*
X131925000Y-90523333D02*
X130490000Y-90523333D01*
%TO.C,R20*%
X134855000Y-81530000D02*
X141395000Y-81530000D01*
X134855000Y-81860000D02*
X134855000Y-81530000D01*
X134855000Y-83940000D02*
X134855000Y-84270000D01*
X134855000Y-84270000D02*
X141395000Y-84270000D01*
X141395000Y-81530000D02*
X141395000Y-81860000D01*
X141395000Y-84270000D02*
X141395000Y-83940000D01*
%TO.C,D1*%
X163220000Y-108800000D02*
X163870000Y-108800000D01*
X164470000Y-107680000D02*
X164470000Y-109920000D01*
X164590000Y-107680000D02*
X164590000Y-109920000D01*
X164710000Y-107680000D02*
X164710000Y-109920000D01*
X168760000Y-108800000D02*
X168110000Y-108800000D01*
X163870000Y-107680000D02*
X168110000Y-107680000D01*
X168110000Y-109920000D01*
X163870000Y-109920000D01*
X163870000Y-107680000D01*
%TO.C,U1*%
X162430000Y-64060000D02*
X162430000Y-65310000D01*
X162430000Y-67310000D02*
X162430000Y-68560000D01*
X162430000Y-68560000D02*
X180330000Y-68560000D01*
X180330000Y-64060000D02*
X162430000Y-64060000D01*
X180330000Y-68560000D02*
X180330000Y-64060000D01*
X162430000Y-65310000D02*
G75*
G02*
X162430000Y-67310000I0J-1000000D01*
G01*
%TO.C,R23*%
X141630000Y-86955000D02*
X141630000Y-93495000D01*
X141630000Y-93495000D02*
X141960000Y-93495000D01*
X141960000Y-86955000D02*
X141630000Y-86955000D01*
X144040000Y-86955000D02*
X144370000Y-86955000D01*
X144370000Y-86955000D02*
X144370000Y-93495000D01*
X144370000Y-93495000D02*
X144040000Y-93495000D01*
%TO.C,R31*%
X134930000Y-111080000D02*
X134930000Y-111410000D01*
X134930000Y-113820000D02*
X134930000Y-113490000D01*
X141470000Y-111080000D02*
X134930000Y-111080000D01*
X141470000Y-111410000D02*
X141470000Y-111080000D01*
X141470000Y-113490000D02*
X141470000Y-113820000D01*
X141470000Y-113820000D02*
X134930000Y-113820000D01*
%TO.C,U9*%
X106130000Y-64060000D02*
X106130000Y-65310000D01*
X106130000Y-67310000D02*
X106130000Y-68560000D01*
X106130000Y-68560000D02*
X124030000Y-68560000D01*
X124030000Y-64060000D02*
X106130000Y-64060000D01*
X124030000Y-68560000D02*
X124030000Y-64060000D01*
X106130000Y-65310000D02*
G75*
G02*
X106130000Y-67310000I0J-1000000D01*
G01*
%TO.C,R25*%
X134930000Y-100406667D02*
X141470000Y-100406667D01*
X134930000Y-100736667D02*
X134930000Y-100406667D01*
X134930000Y-102816667D02*
X134930000Y-103146667D01*
X134930000Y-103146667D02*
X141470000Y-103146667D01*
X141470000Y-100406667D02*
X141470000Y-100736667D01*
X141470000Y-103146667D02*
X141470000Y-102816667D01*
%TO.C,R5*%
X165330000Y-86830000D02*
X165330000Y-93370000D01*
X165330000Y-93370000D02*
X165660000Y-93370000D01*
X165660000Y-86830000D02*
X165330000Y-86830000D01*
X167740000Y-86830000D02*
X168070000Y-86830000D01*
X168070000Y-86830000D02*
X168070000Y-93370000D01*
X168070000Y-93370000D02*
X167740000Y-93370000D01*
%TO.C,RV1*%
X155075000Y-96901667D02*
X160125000Y-96901667D01*
X155075000Y-106651667D02*
X155075000Y-96901667D01*
X160125000Y-96901667D02*
X160125000Y-106651667D01*
X160125000Y-106651667D02*
X155075000Y-106651667D01*
%TO.C,RV2*%
X154980000Y-108318333D02*
X160030000Y-108318333D01*
X154980000Y-118068333D02*
X154980000Y-108318333D01*
X160030000Y-108318333D02*
X160030000Y-118068333D01*
X160030000Y-118068333D02*
X154980000Y-118068333D01*
%TO.C,D4*%
X131715000Y-121070000D02*
X131715000Y-120751000D01*
X131715000Y-123549000D02*
X131715000Y-123230000D01*
X127411409Y-121070000D02*
G75*
G02*
X131715000Y-120751251I2243591J-1080000D01*
G01*
X127971670Y-121070000D02*
G75*
G02*
X131338330Y-121070000I1683330J-1080000D01*
G01*
X131338330Y-123230000D02*
G75*
G02*
X127971670Y-123230000I-1683330J1080000D01*
G01*
X131715000Y-123548749D02*
G75*
G02*
X127411409Y-123230000I-2060000J1398749D01*
G01*
%TO.C,R14*%
X162630000Y-110630000D02*
X162630000Y-110960000D01*
X162630000Y-113370000D02*
X162630000Y-113040000D01*
X169170000Y-110630000D02*
X162630000Y-110630000D01*
X169170000Y-110960000D02*
X169170000Y-110630000D01*
X169170000Y-113040000D02*
X169170000Y-113370000D01*
X169170000Y-113370000D02*
X162630000Y-113370000D01*
%TO.C,R24*%
X134930000Y-96555000D02*
X134930000Y-96885000D01*
X134930000Y-99295000D02*
X134930000Y-98965000D01*
X141470000Y-96555000D02*
X134930000Y-96555000D01*
X141470000Y-96885000D02*
X141470000Y-96555000D01*
X141470000Y-98965000D02*
X141470000Y-99295000D01*
X141470000Y-99295000D02*
X134930000Y-99295000D01*
%TO.C,C11*%
X97680000Y-92235000D02*
X104920000Y-92235000D01*
X97680000Y-94975000D02*
X97680000Y-92235000D01*
X104920000Y-92235000D02*
X104920000Y-94975000D01*
X104920000Y-94975000D02*
X97680000Y-94975000D01*
%TO.C,R37*%
X106520000Y-81930000D02*
X113060000Y-81930000D01*
X106520000Y-82260000D02*
X106520000Y-81930000D01*
X106520000Y-84340000D02*
X106520000Y-84670000D01*
X106520000Y-84670000D02*
X113060000Y-84670000D01*
X113060000Y-81930000D02*
X113060000Y-82260000D01*
X113060000Y-84670000D02*
X113060000Y-84340000D01*
%TO.C,C10*%
X99030000Y-61480000D02*
X100465000Y-61480000D01*
X99030000Y-72720000D02*
X99030000Y-61480000D01*
X100465000Y-72720000D02*
X99030000Y-72720000D01*
X102135000Y-61480000D02*
X103570000Y-61480000D01*
X103570000Y-61480000D02*
X103570000Y-72720000D01*
X103570000Y-72720000D02*
X102135000Y-72720000D01*
%TO.C,R50*%
X105130000Y-116830000D02*
X105130000Y-123370000D01*
X105130000Y-123370000D02*
X105460000Y-123370000D01*
X105460000Y-116830000D02*
X105130000Y-116830000D01*
X107540000Y-116830000D02*
X107870000Y-116830000D01*
X107870000Y-116830000D02*
X107870000Y-123370000D01*
X107870000Y-123370000D02*
X107540000Y-123370000D01*
%TO.C,R6*%
X169130000Y-87030000D02*
X169130000Y-93570000D01*
X169130000Y-93570000D02*
X169460000Y-93570000D01*
X169460000Y-87030000D02*
X169130000Y-87030000D01*
X171540000Y-87030000D02*
X171870000Y-87030000D01*
X171870000Y-87030000D02*
X171870000Y-93570000D01*
X171870000Y-93570000D02*
X171540000Y-93570000D01*
%TO.C,R39*%
X110280000Y-87030000D02*
X110280000Y-93570000D01*
X110280000Y-93570000D02*
X110610000Y-93570000D01*
X110610000Y-87030000D02*
X110280000Y-87030000D01*
X112690000Y-87030000D02*
X113020000Y-87030000D01*
X113020000Y-87030000D02*
X113020000Y-93570000D01*
X113020000Y-93570000D02*
X112690000Y-93570000D01*
%TO.C,RV5*%
X98775000Y-96535000D02*
X103825000Y-96535000D01*
X98775000Y-106285000D02*
X98775000Y-96535000D01*
X103825000Y-96535000D02*
X103825000Y-106285000D01*
X103825000Y-106285000D02*
X98775000Y-106285000D01*
%TO.C,R18*%
X134880000Y-78130000D02*
X134880000Y-78460000D01*
X134880000Y-80870000D02*
X134880000Y-80540000D01*
X141420000Y-78130000D02*
X134880000Y-78130000D01*
X141420000Y-78460000D02*
X141420000Y-78130000D01*
X141420000Y-80540000D02*
X141420000Y-80870000D01*
X141420000Y-80870000D02*
X134880000Y-80870000D01*
%TO.C,R9*%
X173530000Y-100330000D02*
X173530000Y-100660000D01*
X173530000Y-103070000D02*
X173530000Y-102740000D01*
X180070000Y-100330000D02*
X173530000Y-100330000D01*
X180070000Y-100660000D02*
X180070000Y-100330000D01*
X180070000Y-102740000D02*
X180070000Y-103070000D01*
X180070000Y-103070000D02*
X173530000Y-103070000D01*
%TO.C,R10*%
X162830000Y-104030000D02*
X169370000Y-104030000D01*
X162830000Y-104360000D02*
X162830000Y-104030000D01*
X162830000Y-106440000D02*
X162830000Y-106770000D01*
X162830000Y-106770000D02*
X169370000Y-106770000D01*
X169370000Y-104030000D02*
X169370000Y-104360000D01*
X169370000Y-106770000D02*
X169370000Y-106440000D01*
%TO.C,C9*%
X97680000Y-74565000D02*
X104920000Y-74565000D01*
X97680000Y-77305000D02*
X97680000Y-74565000D01*
X104920000Y-74565000D02*
X104920000Y-77305000D01*
X104920000Y-77305000D02*
X97680000Y-77305000D01*
%TO.C,R16*%
X161080000Y-116830000D02*
X161080000Y-123370000D01*
X161080000Y-123370000D02*
X161410000Y-123370000D01*
X161410000Y-116830000D02*
X161080000Y-116830000D01*
X163490000Y-116830000D02*
X163820000Y-116830000D01*
X163820000Y-116830000D02*
X163820000Y-123370000D01*
X163820000Y-123370000D02*
X163490000Y-123370000D01*
%TO.C,R38*%
X106930000Y-87030000D02*
X106930000Y-93570000D01*
X106930000Y-93570000D02*
X107260000Y-93570000D01*
X107260000Y-87030000D02*
X106930000Y-87030000D01*
X109340000Y-87030000D02*
X109670000Y-87030000D01*
X109670000Y-87030000D02*
X109670000Y-93570000D01*
X109670000Y-93570000D02*
X109340000Y-93570000D01*
%TO.C,R3*%
X173630000Y-78130000D02*
X173630000Y-78460000D01*
X173630000Y-80870000D02*
X173630000Y-80540000D01*
X180170000Y-78130000D02*
X173630000Y-78130000D01*
X180170000Y-78460000D02*
X180170000Y-78130000D01*
X180170000Y-80540000D02*
X180170000Y-80870000D01*
X180170000Y-80870000D02*
X173630000Y-80870000D01*
%TO.C,R40*%
X113710000Y-87030000D02*
X113710000Y-93570000D01*
X113710000Y-93570000D02*
X114040000Y-93570000D01*
X114040000Y-87030000D02*
X113710000Y-87030000D01*
X116120000Y-87030000D02*
X116450000Y-87030000D01*
X116450000Y-87030000D02*
X116450000Y-93570000D01*
X116450000Y-93570000D02*
X116120000Y-93570000D01*
%TO.C,D5*%
X107020000Y-108943750D02*
X107670000Y-108943750D01*
X108270000Y-107823750D02*
X108270000Y-110063750D01*
X108390000Y-107823750D02*
X108390000Y-110063750D01*
X108510000Y-107823750D02*
X108510000Y-110063750D01*
X112560000Y-108943750D02*
X111910000Y-108943750D01*
X107670000Y-107823750D02*
X111910000Y-107823750D01*
X111910000Y-110063750D01*
X107670000Y-110063750D01*
X107670000Y-107823750D01*
%TO.C,R49*%
X111680000Y-114430000D02*
X111680000Y-114760000D01*
X111680000Y-117170000D02*
X111680000Y-116840000D01*
X118220000Y-114430000D02*
X111680000Y-114430000D01*
X118220000Y-114760000D02*
X118220000Y-114430000D01*
X118220000Y-116840000D02*
X118220000Y-117170000D01*
X118220000Y-117170000D02*
X111680000Y-117170000D01*
%TO.C,R4*%
X162420000Y-78480000D02*
X162420000Y-78810000D01*
X162420000Y-81220000D02*
X162420000Y-80890000D01*
X168960000Y-78480000D02*
X162420000Y-78480000D01*
X168960000Y-78810000D02*
X168960000Y-78480000D01*
X168960000Y-80890000D02*
X168960000Y-81220000D01*
X168960000Y-81220000D02*
X162420000Y-81220000D01*
%TO.C,U7*%
X134300000Y-64060000D02*
X134300000Y-65310000D01*
X134300000Y-67310000D02*
X134300000Y-68560000D01*
X134300000Y-68560000D02*
X152200000Y-68560000D01*
X152200000Y-64060000D02*
X134300000Y-64060000D01*
X152200000Y-68560000D02*
X152200000Y-64060000D01*
X134300000Y-65310000D02*
G75*
G02*
X134300000Y-67310000I0J-1000000D01*
G01*
%TO.C,VOLTAGE_IN*%
X129495000Y-124930000D02*
X150055000Y-124930000D01*
X129495000Y-127950000D02*
X150055000Y-127950000D01*
X129495000Y-132850000D02*
X150055000Y-132850000D01*
X129495000Y-134350000D02*
X150055000Y-134350000D01*
X129495000Y-134970000D02*
X129495000Y-124930000D01*
X131855000Y-134970000D02*
X129495000Y-134970000D01*
X150055000Y-124930000D02*
X150055000Y-134970000D01*
X150055000Y-134970000D02*
X132455000Y-134970000D01*
X132595000Y-135580000D02*
X131715000Y-135580000D01*
X132155000Y-134970000D01*
X132595000Y-135580000D01*
G36*
X132595000Y-135580000D02*
G01*
X131715000Y-135580000D01*
X132155000Y-134970000D01*
X132595000Y-135580000D01*
G37*
%TO.C,RV3*%
X127130000Y-96801667D02*
X132180000Y-96801667D01*
X127130000Y-106551667D02*
X127130000Y-96801667D01*
X132180000Y-96801667D02*
X132180000Y-106551667D01*
X132180000Y-106551667D02*
X127130000Y-106551667D01*
%TO.C,R43*%
X117180000Y-100311250D02*
X117180000Y-100641250D01*
X117180000Y-103051250D02*
X117180000Y-102721250D01*
X123720000Y-100311250D02*
X117180000Y-100311250D01*
X123720000Y-100641250D02*
X123720000Y-100311250D01*
X123720000Y-102721250D02*
X123720000Y-103051250D01*
X123720000Y-103051250D02*
X117180000Y-103051250D01*
%TO.C,C1*%
X155630000Y-61480000D02*
X157065000Y-61480000D01*
X155630000Y-72720000D02*
X155630000Y-61480000D01*
X157065000Y-72720000D02*
X155630000Y-72720000D01*
X158735000Y-61480000D02*
X160170000Y-61480000D01*
X160170000Y-61480000D02*
X160170000Y-72720000D01*
X160170000Y-72720000D02*
X158735000Y-72720000D01*
%TO.C,C3*%
X155430000Y-79333333D02*
X156865000Y-79333333D01*
X155430000Y-90573333D02*
X155430000Y-79333333D01*
X156865000Y-90573333D02*
X155430000Y-90573333D01*
X158535000Y-79333333D02*
X159970000Y-79333333D01*
X159970000Y-79333333D02*
X159970000Y-90573333D01*
X159970000Y-90573333D02*
X158535000Y-90573333D01*
%TO.C,RV6*%
X98775000Y-107860000D02*
X103825000Y-107860000D01*
X98775000Y-117610000D02*
X98775000Y-107860000D01*
X103825000Y-107860000D02*
X103825000Y-117610000D01*
X103825000Y-117610000D02*
X98775000Y-117610000D01*
%TO.C,R27*%
X134930000Y-104155000D02*
X141470000Y-104155000D01*
X134930000Y-104485000D02*
X134930000Y-104155000D01*
X134930000Y-106565000D02*
X134930000Y-106895000D01*
X134930000Y-106895000D02*
X141470000Y-106895000D01*
X141470000Y-104155000D02*
X141470000Y-104485000D01*
X141470000Y-106895000D02*
X141470000Y-106565000D01*
%TO.C,D2*%
X159660000Y-121070000D02*
X159660000Y-120751000D01*
X159660000Y-123549000D02*
X159660000Y-123230000D01*
X155356409Y-121070000D02*
G75*
G02*
X159660000Y-120751251I2243591J-1080000D01*
G01*
X155916670Y-121070000D02*
G75*
G02*
X159283330Y-121070000I1683330J-1080000D01*
G01*
X159283330Y-123230000D02*
G75*
G02*
X155916670Y-123230000I-1683330J1080000D01*
G01*
X159660000Y-123548749D02*
G75*
G02*
X155356409Y-123230000I-2060000J1398749D01*
G01*
%TO.C,C6*%
X127385000Y-61480000D02*
X128820000Y-61480000D01*
X127385000Y-72720000D02*
X127385000Y-61480000D01*
X128820000Y-72720000D02*
X127385000Y-72720000D01*
X130490000Y-61480000D02*
X131925000Y-61480000D01*
X131925000Y-61480000D02*
X131925000Y-72720000D01*
X131925000Y-72720000D02*
X130490000Y-72720000D01*
%TO.C,R2*%
X161530000Y-86940000D02*
X161530000Y-93480000D01*
X161530000Y-93480000D02*
X161860000Y-93480000D01*
X161860000Y-86940000D02*
X161530000Y-86940000D01*
X163940000Y-86940000D02*
X164270000Y-86940000D01*
X164270000Y-86940000D02*
X164270000Y-93480000D01*
X164270000Y-93480000D02*
X163940000Y-93480000D01*
%TO.C,R44*%
X106520000Y-104067500D02*
X113060000Y-104067500D01*
X106520000Y-104397500D02*
X106520000Y-104067500D01*
X106520000Y-106477500D02*
X106520000Y-106807500D01*
X106520000Y-106807500D02*
X113060000Y-106807500D01*
X113060000Y-104067500D02*
X113060000Y-104397500D01*
X113060000Y-106807500D02*
X113060000Y-106477500D01*
%TO.C,C5*%
X125555000Y-74580000D02*
X132795000Y-74580000D01*
X125555000Y-77320000D02*
X125555000Y-74580000D01*
X132795000Y-74580000D02*
X132795000Y-77320000D01*
X132795000Y-77320000D02*
X125555000Y-77320000D01*
%TO.C,R30*%
X145305000Y-111080000D02*
X145305000Y-111410000D01*
X145305000Y-113820000D02*
X145305000Y-113490000D01*
X151845000Y-111080000D02*
X145305000Y-111080000D01*
X151845000Y-111410000D02*
X151845000Y-111080000D01*
X151845000Y-113490000D02*
X151845000Y-113820000D01*
X151845000Y-113820000D02*
X145305000Y-113820000D01*
%TO.C,R11*%
X173530000Y-104030000D02*
X173530000Y-104360000D01*
X173530000Y-106770000D02*
X173530000Y-106440000D01*
X180070000Y-104030000D02*
X173530000Y-104030000D01*
X180070000Y-104360000D02*
X180070000Y-104030000D01*
X180070000Y-106440000D02*
X180070000Y-106770000D01*
X180070000Y-106770000D02*
X173530000Y-106770000D01*
%TO.C,R45*%
X117180000Y-103900833D02*
X117180000Y-104230833D01*
X117180000Y-106640833D02*
X117180000Y-106310833D01*
X123720000Y-103900833D02*
X117180000Y-103900833D01*
X123720000Y-104230833D02*
X123720000Y-103900833D01*
X123720000Y-106310833D02*
X123720000Y-106640833D01*
X123720000Y-106640833D02*
X117180000Y-106640833D01*
%TO.C,C12*%
X99030000Y-79150000D02*
X100465000Y-79150000D01*
X99030000Y-90390000D02*
X99030000Y-79150000D01*
X100465000Y-90390000D02*
X99030000Y-90390000D01*
X102135000Y-79150000D02*
X103570000Y-79150000D01*
X103570000Y-79150000D02*
X103570000Y-90390000D01*
X103570000Y-90390000D02*
X102135000Y-90390000D01*
%TO.C,RV4*%
X127130000Y-108193333D02*
X132180000Y-108193333D01*
X127130000Y-117943333D02*
X127130000Y-108193333D01*
X132180000Y-108193333D02*
X132180000Y-117943333D01*
X132180000Y-117943333D02*
X127130000Y-117943333D01*
%TO.C,R46*%
X117180000Y-107490417D02*
X123720000Y-107490417D01*
X117180000Y-107820417D02*
X117180000Y-107490417D01*
X117180000Y-109900417D02*
X117180000Y-110230417D01*
X117180000Y-110230417D02*
X123720000Y-110230417D01*
X123720000Y-107490417D02*
X123720000Y-107820417D01*
X123720000Y-110230417D02*
X123720000Y-109900417D01*
%TO.C,R13*%
X168580000Y-113630000D02*
X168580000Y-113960000D01*
X168580000Y-116370000D02*
X168580000Y-116040000D01*
X175120000Y-113630000D02*
X168580000Y-113630000D01*
X175120000Y-113960000D02*
X175120000Y-113630000D01*
X175120000Y-116040000D02*
X175120000Y-116370000D01*
X175120000Y-116370000D02*
X168580000Y-116370000D01*
%TO.C,R17*%
X145105000Y-78130000D02*
X145105000Y-78460000D01*
X145105000Y-80870000D02*
X145105000Y-80540000D01*
X151645000Y-78130000D02*
X145105000Y-78130000D01*
X151645000Y-78460000D02*
X151645000Y-78130000D01*
X151645000Y-80540000D02*
X151645000Y-80870000D01*
X151645000Y-80870000D02*
X145105000Y-80870000D01*
%TO.C,R0*%
X173630000Y-81530000D02*
X173630000Y-81860000D01*
X173630000Y-84270000D02*
X173630000Y-83940000D01*
X180170000Y-81530000D02*
X173630000Y-81530000D01*
X180170000Y-81860000D02*
X180170000Y-81530000D01*
X180170000Y-83940000D02*
X180170000Y-84270000D01*
X180170000Y-84270000D02*
X173630000Y-84270000D01*
%TO.C,R48*%
X106520000Y-111080000D02*
X106520000Y-111410000D01*
X106520000Y-113820000D02*
X106520000Y-113490000D01*
X113060000Y-111080000D02*
X106520000Y-111080000D01*
X113060000Y-111410000D02*
X113060000Y-111080000D01*
X113060000Y-113490000D02*
X113060000Y-113820000D01*
X113060000Y-113820000D02*
X106520000Y-113820000D01*
%TO.C,R34*%
X117180000Y-78530000D02*
X117180000Y-78860000D01*
X117180000Y-81270000D02*
X117180000Y-80940000D01*
X123720000Y-78530000D02*
X117180000Y-78530000D01*
X123720000Y-78860000D02*
X123720000Y-78530000D01*
X123720000Y-80940000D02*
X123720000Y-81270000D01*
X123720000Y-81270000D02*
X117180000Y-81270000D01*
%TO.C,D3*%
X135430000Y-108950000D02*
X136080000Y-108950000D01*
X136680000Y-107830000D02*
X136680000Y-110070000D01*
X136800000Y-107830000D02*
X136800000Y-110070000D01*
X136920000Y-107830000D02*
X136920000Y-110070000D01*
X140970000Y-108950000D02*
X140320000Y-108950000D01*
X136080000Y-107830000D02*
X140320000Y-107830000D01*
X140320000Y-110070000D01*
X136080000Y-110070000D01*
X136080000Y-107830000D01*
%TO.C,R33*%
X133330000Y-116830000D02*
X133330000Y-123370000D01*
X133330000Y-123370000D02*
X133660000Y-123370000D01*
X133660000Y-116830000D02*
X133330000Y-116830000D01*
X135740000Y-116830000D02*
X136070000Y-116830000D01*
X136070000Y-116830000D02*
X136070000Y-123370000D01*
X136070000Y-123370000D02*
X135740000Y-123370000D01*
%TO.C,C4*%
X153780000Y-92510000D02*
X161020000Y-92510000D01*
X153780000Y-95250000D02*
X153780000Y-92510000D01*
X161020000Y-92510000D02*
X161020000Y-95250000D01*
X161020000Y-95250000D02*
X153780000Y-95250000D01*
%TO.C,R36*%
X117180000Y-81930000D02*
X117180000Y-82260000D01*
X117180000Y-84670000D02*
X117180000Y-84340000D01*
X123720000Y-81930000D02*
X117180000Y-81930000D01*
X123720000Y-82260000D02*
X123720000Y-81930000D01*
X123720000Y-84340000D02*
X123720000Y-84670000D01*
X123720000Y-84670000D02*
X117180000Y-84670000D01*
%TO.C,R8*%
X162920000Y-100430000D02*
X169460000Y-100430000D01*
X162920000Y-100760000D02*
X162920000Y-100430000D01*
X162920000Y-102840000D02*
X162920000Y-103170000D01*
X162920000Y-103170000D02*
X169460000Y-103170000D01*
X169460000Y-100430000D02*
X169460000Y-100760000D01*
X169460000Y-103170000D02*
X169460000Y-102840000D01*
%TO.C,R35*%
X106520000Y-78480000D02*
X106520000Y-78810000D01*
X106520000Y-81220000D02*
X106520000Y-80890000D01*
X113060000Y-78480000D02*
X106520000Y-78480000D01*
X113060000Y-78810000D02*
X113060000Y-78480000D01*
X113060000Y-80890000D02*
X113060000Y-81220000D01*
X113060000Y-81220000D02*
X106520000Y-81220000D01*
%TO.C,R15*%
X173520000Y-110630000D02*
X173520000Y-110960000D01*
X173520000Y-113370000D02*
X173520000Y-113040000D01*
X180060000Y-110630000D02*
X173520000Y-110630000D01*
X180060000Y-110960000D02*
X180060000Y-110630000D01*
X180060000Y-113040000D02*
X180060000Y-113370000D01*
X180060000Y-113370000D02*
X173520000Y-113370000D01*
%TO.C,C2*%
X153780000Y-74656667D02*
X161020000Y-74656667D01*
X153780000Y-77396667D02*
X153780000Y-74656667D01*
X161020000Y-74656667D02*
X161020000Y-77396667D01*
X161020000Y-77396667D02*
X153780000Y-77396667D01*
%TO.C,R47*%
X117180000Y-111080000D02*
X117180000Y-111410000D01*
X117180000Y-113820000D02*
X117180000Y-113490000D01*
X123720000Y-111080000D02*
X117180000Y-111080000D01*
X123720000Y-111410000D02*
X123720000Y-111080000D01*
X123720000Y-113490000D02*
X123720000Y-113820000D01*
X123720000Y-113820000D02*
X117180000Y-113820000D01*
%TO.C,R22*%
X137930000Y-87030000D02*
X137930000Y-93570000D01*
X137930000Y-93570000D02*
X138260000Y-93570000D01*
X138260000Y-87030000D02*
X137930000Y-87030000D01*
X140340000Y-87030000D02*
X140670000Y-87030000D01*
X140670000Y-87030000D02*
X140670000Y-93570000D01*
X140670000Y-93570000D02*
X140340000Y-93570000D01*
%TO.C,R21*%
X134355000Y-87030000D02*
X134355000Y-93570000D01*
X134355000Y-93570000D02*
X134685000Y-93570000D01*
X134685000Y-87030000D02*
X134355000Y-87030000D01*
X136765000Y-87030000D02*
X137095000Y-87030000D01*
X137095000Y-87030000D02*
X137095000Y-93570000D01*
X137095000Y-93570000D02*
X136765000Y-93570000D01*
%TO.C,U2*%
D11*
X181880000Y-73550000D02*
X160880000Y-73550000D01*
X160880000Y-124550000D01*
X181880000Y-124550000D01*
X181880000Y-73550000D01*
D12*
%TO.C,R42*%
X106520000Y-100311250D02*
X113060000Y-100311250D01*
X106520000Y-100641250D02*
X106520000Y-100311250D01*
X106520000Y-102721250D02*
X106520000Y-103051250D01*
X106520000Y-103051250D02*
X113060000Y-103051250D01*
X113060000Y-100311250D02*
X113060000Y-100641250D01*
X113060000Y-103051250D02*
X113060000Y-102721250D01*
%TO.C,R7*%
X162930000Y-96730000D02*
X162930000Y-97060000D01*
X162930000Y-99470000D02*
X162930000Y-99140000D01*
X169470000Y-96730000D02*
X162930000Y-96730000D01*
X169470000Y-97060000D02*
X169470000Y-96730000D01*
X169470000Y-99140000D02*
X169470000Y-99470000D01*
X169470000Y-99470000D02*
X162930000Y-99470000D01*
%TO.C,R29*%
X145430000Y-107580000D02*
X151970000Y-107580000D01*
X145430000Y-107910000D02*
X145430000Y-107580000D01*
X145430000Y-109990000D02*
X145430000Y-110320000D01*
X145430000Y-110320000D02*
X151970000Y-110320000D01*
X151970000Y-107580000D02*
X151970000Y-107910000D01*
X151970000Y-110320000D02*
X151970000Y-109990000D01*
%TO.C,R26*%
X145380000Y-100406667D02*
X145380000Y-100736667D01*
X145380000Y-103146667D02*
X145380000Y-102816667D01*
X151920000Y-100406667D02*
X145380000Y-100406667D01*
X151920000Y-100736667D02*
X151920000Y-100406667D01*
X151920000Y-102816667D02*
X151920000Y-103146667D01*
X151920000Y-103146667D02*
X145380000Y-103146667D01*
%TO.C,R41*%
X106520000Y-96555000D02*
X106520000Y-96885000D01*
X106520000Y-99295000D02*
X106520000Y-98965000D01*
X113060000Y-96555000D02*
X106520000Y-96555000D01*
X113060000Y-96885000D02*
X113060000Y-96555000D01*
X113060000Y-98965000D02*
X113060000Y-99295000D01*
X113060000Y-99295000D02*
X106520000Y-99295000D01*
%TO.C,R32*%
X140080000Y-114180000D02*
X140080000Y-114510000D01*
X140080000Y-116920000D02*
X140080000Y-116590000D01*
X146620000Y-114180000D02*
X140080000Y-114180000D01*
X146620000Y-114510000D02*
X146620000Y-114180000D01*
X146620000Y-116590000D02*
X146620000Y-116920000D01*
X146620000Y-116920000D02*
X140080000Y-116920000D01*
%TD*%
M02*
