  0
SECTION
  2
HEADER
  9
$ACADVER
  1
AC1024
  9
$ACADMAINTVER
 70
6
  9
$DWGCODEPAGE
  3
ANSI_1252
  9
$LASTSAVEDBY
  1
ezdxf
  9
$INSBASE
 10
0.0
 20
0.0
 30
0.0
  9
$EXTMIN
 10
-100
 20
-100
 30
-100
  9
$EXTMAX
 10
100
 20
100
 30
100
  9
$LIMMIN
 10
0.0
 20
0.0
  9
$LIMMAX
 10
420.0
 20
297.0
  9
$ORTHOMODE
 70
0
  9
$REGENMODE
 70
1
  9
$FILLMODE
 70
1
  9
$QTEXTMODE
 70
0
  9
$MIRRTEXT
 70
1
  9
$LTSCALE
 40
1.0
  9
$ATTMODE
 70
1
  9
$TEXTSIZE
 40
2.5
  9
$TRACEWID
 40
1.0
  9
$TEXTSTYLE
  7
Standard
  9
$CLAYER
  8
0
  9
$CELTYPE
  6
ByLayer
  9
$CECOLOR
 62
256
  9
$CELTSCALE
 40
1.0
  9
$DISPSILH
 70
0
  9
$DIMSCALE
 40
1.0
  9
$DIMASZ
 40
2.5
  9
$DIMEXO
 40
0.625
  9
$DIMDLI
 40
3.75
  9
$DIMRND
 40
0.0
  9
$DIMDLE
 40
0.0
  9
$DIMEXE
 40
1.25
  9
$DIMTP
 40
0.0
  9
$DIMTM
 40
0.0
  9
$DIMTXT
 40
2.5
  9
$DIMCEN
 40
2.5
  9
$DIMTSZ
 40
0.0
  9
$DIMTOL
 70
0
  9
$DIMLIM
 70
0
  9
$DIMTIH
 70
0
  9
$DIMTOH
 70
0
  9
$DIMSE1
 70
0
  9
$DIMSE2
 70
0
  9
$DIMTAD
 70
1
  9
$DIMZIN
 70
8
  9
$DIMBLK
  1

  9
$DIMASO
 70
1
  9
$DIMSHO
 70
1
  9
$DIMPOST
  1

  9
$DIMAPOST
  1

  9
$DIMALT
 70
0
  9
$DIMALTD
 70
3
  9
$DIMALTF
 40
0.03937007874
  9
$DIMLFAC
 40
1.0
  9
$DIMTOFL
 70
1
  9
$DIMTVP
 40
0.0
  9
$DIMTIX
 70
0
  9
$DIMSOXD
 70
0
  9
$DIMSAH
 70
0
  9
$DIMBLK1
  1

  9
$DIMBLK2
  1

  9
$DIMSTYLE
  2
ISO-25
  9
$DIMCLRD
 70
0
  9
$DIMCLRE
 70
0
  9
$DIMCLRT
 70
0
  9
$DIMTFAC
 40
1.0
  9
$DIMGAP
 40
0.625
  9
$DIMJUST
 70
0
  9
$DIMSD1
 70
0
  9
$DIMSD2
 70
0
  9
$DIMTOLJ
 70
0
  9
$DIMTZIN
 70
8
  9
$DIMALTZ
 70
0
  9
$DIMALTTZ
 70
0
  9
$DIMUPT
 70
0
  9
$DIMDEC
 70
2
  9
$DIMTDEC
 70
2
  9
$DIMALTU
 70
2
  9
$DIMALTTD
 70
3
  9
$DIMTXSTY
  7
Standard
  9
$DIMAUNIT
 70
0
  9
$DIMADEC
 70
0
  9
$DIMALTRND
 40
0.0
  9
$DIMAZIN
 70
0
  9
$DIMDSEP
 70
44
  9
$DIMATFIT
 70
3
  9
$DIMFRAC
 70
0
  9
$DIMLDRBLK
  1

  9
$DIMLUNIT
 70
2
  9
$DIMLWD
 70
-2
  9
$DIMLWE
 70
-2
  9
$DIMTMOVE
 70
0
  9
$DIMFXL
 40
1.0
  9
$DIMFXLON
 70
0
  9
$DIMJOGANG
 40
0.785398163397
  9
$DIMTFILL
 70
0
  9
$DIMTFILLCLR
 70
0
  9
$DIMARCSYM
 70
0
  9
$DIMLTYPE
  6

  9
$DIMLTEX1
  6

  9
$DIMLTEX2
  6

  9
$DIMTXTDIRECTION
 70
0
  9
$LUNITS
 70
2
  9
$LUPREC
 70
4
  9
$SKETCHINC
 40
1.0
  9
$FILLETRAD
 40
10.0
  9
$AUNITS
 70
0
  9
$AUPREC
 70
2
  9
$MENU
  1
.
  9
$ELEVATION
 40
0.0
  9
$PELEVATION
 40
0.0
  9
$THICKNESS
 40
0.0
  9
$LIMCHECK
 70
0
  9
$CHAMFERA
 40
0.0
  9
$CHAMFERB
 40
0.0
  9
$CHAMFERC
 40
0.0
  9
$CHAMFERD
 40
0.0
  9
$SKPOLY
 70
0
  9
$TDCREATE
 40
2461054.4387847222
  9
$TDUCREATE
 40
2458532.153996898
  9
$TDUPDATE
 40
2461054.4387847222
  9
$TDUUPDATE
 40
2458532.1544311
  9
$TDINDWG
 40
0.0
  9
$TDUSRTIMER
 40
0.0
  9
$USRTIMER
 70
1
  9
$ANGBASE
 50
0.0
  9
$ANGDIR
 70
0
  9
$PDMODE
 70
0
  9
$PDSIZE
 40
0.0
  9
$PLINEWID
 40
0.0
  9
$SPLFRAME
 70
0
  9
$SPLINETYPE
 70
6
  9
$SPLINESEGS
 70
8
  9
$HANDSEED
  5
2F
  9
$SURFTAB1
 70
6
  9
$SURFTAB2
 70
6
  9
$SURFTYPE
 70
6
  9
$SURFU
 70
6
  9
$SURFV
 70
6
  9
$UCSBASE
  2

  9
$UCSNAME
  2

  9
$UCSORG
 10
0.0
 20
0.0
 30
0.0
  9
$UCSXDIR
 10
1.0
 20
0.0
 30
0.0
  9
$UCSYDIR
 10
0.0
 20
1.0
 30
0.0
  9
$UCSORTHOREF
  2

  9
$UCSORTHOVIEW
 70
0
  9
$UCSORGTOP
 10
0.0
 20
0.0
 30
0.0
  9
$UCSORGBOTTOM
 10
0.0
 20
0.0
 30
0.0
  9
$UCSORGLEFT
 10
0.0
 20
0.0
 30
0.0
  9
$UCSORGRIGHT
 10
0.0
 20
0.0
 30
0.0
  9
$UCSORGFRONT
 10
0.0
 20
0.0
 30
0.0
  9
$UCSORGBACK
 10
0.0
 20
0.0
 30
0.0
  9
$PUCSBASE
  2

  9
$PUCSNAME
  2

  9
$PUCSORG
 10
0.0
 20
0.0
 30
0.0
  9
$PUCSXDIR
 10
1.0
 20
0.0
 30
0.0
  9
$PUCSYDIR
 10
0.0
 20
1.0
 30
0.0
  9
$PUCSORTHOREF
  2

  9
$PUCSORTHOVIEW
 70
0
  9
$PUCSORGTOP
 10
0.0
 20
0.0
 30
0.0
  9
$PUCSORGBOTTOM
 10
0.0
 20
0.0
 30
0.0
  9
$PUCSORGLEFT
 10
0.0
 20
0.0
 30
0.0
  9
$PUCSORGRIGHT
 10
0.0
 20
0.0
 30
0.0
  9
$PUCSORGFRONT
 10
0.0
 20
0.0
 30
0.0
  9
$PUCSORGBACK
 10
0.0
 20
0.0
 30
0.0
  9
$USERI1
 70
0
  9
$USERI2
 70
0
  9
$USERI3
 70
0
  9
$USERI4
 70
0
  9
$USERI5
 70
0
  9
$USERR1
 40
0.0
  9
$USERR2
 40
0.0
  9
$USERR3
 40
0.0
  9
$USERR4
 40
0.0
  9
$USERR5
 40
0.0
  9
$WORLDVIEW
 70
1
  9
$SHADEDGE
 70
3
  9
$SHADEDIF
 70
70
  9
$TILEMODE
 70
1
  9
$MAXACTVP
 70
64
  9
$PINSBASE
 10
0.0
 20
0.0
 30
0.0
  9
$PLIMCHECK
 70
0
  9
$PEXTMIN
 10
1e+20
 20
1e+20
 30
1e+20
  9
$PEXTMAX
 10
-1e+20
 20
-1e+20
 30
-1e+20
  9
$PLIMMIN
 10
0.0
 20
0.0
  9
$PLIMMAX
 10
420.0
 20
297.0
  9
$UNITMODE
 70
0
  9
$VISRETAIN
 70
1
  9
$PLINEGEN
 70
0
  9
$PSLTSCALE
 70
1
  9
$TREEDEPTH
 70
3020
  9
$CMLSTYLE
  2
Standard
  9
$CMLJUST
 70
0
  9
$CMLSCALE
 40
20.0
  9
$PROXYGRAPHICS
 70
1
  9
$MEASUREMENT
 70
1
  9
$CELWEIGHT
370
-1
  9
$ENDCAPS
280
0
  9
$JOINSTYLE
280
0
  9
$LWDISPLAY
290
0
  9
$INSUNITS
 70
6
  9
$HYPERLINKBASE
  1

  9
$STYLESHEET
  1

  9
$XEDIT
290
1
  9
$CEPSNTYPE
380
0
  9
$PSTYLEMODE
290
1
  9
$FINGERPRINTGUID
  2
FB99886E-F094-11F0-B7C2-28392620F3A2
  9
$VERSIONGUID
  2
FB9AD6D0-F094-11F0-B8DA-28392620F3A2
  9
$EXTNAMES
290
1
  9
$PSVPSCALE
 40
0.0
  9
$OLESTARTUP
290
0
  9
$SORTENTS
280
127
  9
$INDEXCTL
280
0
  9
$HIDETEXT
280
1
  9
$XCLIPFRAME
280
2
  9
$HALOGAP
280
0
  9
$OBSCOLOR
 70
257
  9
$OBSLTYPE
280
0
  9
$INTERSECTIONDISPLAY
280
0
  9
$INTERSECTIONCOLOR
 70
257
  9
$DIMASSOC
280
2
  9
$PROJECTNAME
  1

  9
$CAMERADISPLAY
290
0
  9
$LENSLENGTH
 40
50.0
  9
$CAMERAHEIGHT
 40
0.0
  9
$STEPSPERSEC
 40
24.0
  9
$STEPSIZE
 40
100.0
  9
$3DDWFPREC
 40
2.0
  9
$PSOLWIDTH
 40
0.005
  9
$PSOLHEIGHT
 40
0.08
  9
$LOFTANG1
 40
1.570796326795
  9
$LOFTANG2
 40
1.570796326795
  9
$LOFTMAG1
 40
0.0
  9
$LOFTMAG2
 40
0.0
  9
$LOFTPARAM
 70
7
  9
$LOFTNORMALS
280
1
  9
$LATITUDE
 40
37.795
  9
$LONGITUDE
 40
-122.394
  9
$NORTHDIRECTION
 40
0.0
  9
$TIMEZONE
 70
-8000
  9
$LIGHTGLYPHDISPLAY
280
1
  9
$TILEMODELIGHTSYNCH
280
1
  9
$CMATERIAL
347
20
  9
$SOLIDHIST
280
0
  9
$SHOWHIST
280
1
  9
$DWFFRAME
280
2
  9
$DGNFRAME
280
2
  9
$REALWORLDSCALE
290
1
  9
$INTERFERECOLOR
 62
256
  9
$CSHADOW
280
0
  9
$SHADOWPLANELOCATION
 40
0.0
  0
ENDSEC
  0
SECTION
  2
CLASSES
  0
CLASS
  1
ACDBDICTIONARYWDFLT
  2
AcDbDictionaryWithDefault
  3
ObjectDBX Classes
 90
0
 91
0
280
0
281
0
  0
CLASS
  1
SUN
  2
AcDbSun
  3
SCENEOE
 90
1153
 91
0
280
0
281
0
  0
CLASS
  1
VISUALSTYLE
  2
AcDbVisualStyle
  3
ObjectDBX Classes
 90
4095
 91
0
280
0
281
0
  0
CLASS
  1
MATERIAL
  2
AcDbMaterial
  3
ObjectDBX Classes
 90
1153
 91
0
280
0
281
0
  0
CLASS
  1
SCALE
  2
AcDbScale
  3
ObjectDBX Classes
 90
1153
 91
0
280
0
281
0
  0
CLASS
  1
TABLESTYLE
  2
AcDbTableStyle
  3
ObjectDBX Classes
 90
4095
 91
0
280
0
281
0
  0
CLASS
  1
MLEADERSTYLE
  2
AcDbMLeaderStyle
  3
ACDB_MLEADERSTYLE_CLASS
 90
4095
 91
0
280
0
281
0
  0
CLASS
  1
DICTIONARYVAR
  2
AcDbDictionaryVar
  3
ObjectDBX Classes
 90
0
 91
0
280
0
281
0
  0
CLASS
  1
CELLSTYLEMAP
  2
AcDbCellStyleMap
  3
ObjectDBX Classes
 90
1152
 91
0
280
0
281
0
  0
CLASS
  1
MENTALRAYRENDERSETTINGS
  2
AcDbMentalRayRenderSettings
  3
SCENEOE
 90
1024
 91
0
280
0
281
0
  0
CLASS
  1
ACDBDETAILVIEWSTYLE
  2
AcDbDetailViewStyle
  3
ObjectDBX Classes
 90
1025
 91
0
280
0
281
0
  0
CLASS
  1
ACDBSECTIONVIEWSTYLE
  2
AcDbSectionViewStyle
  3
ObjectDBX Classes
 90
1025
 91
0
280
0
281
0
  0
CLASS
  1
RASTERVARIABLES
  2
AcDbRasterVariables
  3
ISM
 90
0
 91
0
280
0
281
0
  0
CLASS
  1
ACDBPLACEHOLDER
  2
AcDbPlaceHolder
  3
ObjectDBX Classes
 90
0
 91
0
280
0
281
0
  0
CLASS
  1
LAYOUT
  2
AcDbLayout
  3
ObjectDBX Classes
 90
0
 91
0
280
0
281
0
  0
ENDSEC
  0
SECTION
  2
TABLES
  0
TABLE
  2
VPORT
  5
8
330
0
100
AcDbSymbolTable
 70
1
  0
VPORT
  5
23
330
8
100
AcDbSymbolTableRecord
100
AcDbViewportTableRecord
  2
*Active
 70
0
 10
0.0
 20
0.0
 11
1.0
 21
1.0
 12
70.0
 22
50.0
 13
0.0
 23
0.0
 14
0.5
 24
0.5
 15
0.5
 25
0.5
 16
0.0
 26
0.0
 36
1.0
 17
0.0
 27
0.0
 37
0.0
 40
1.0
 41
1.34
 42
50.0
 43
0.0
 44
0.0
 50
0.0
 51
0.0
 71
0
 72
1000
 73
1
 74
3
 75
0
 76
0
 77
0
 78
0
281
0
 65
0
146
0.0
  0
ENDTAB
  0
TABLE
  2
LTYPE
  5
2
330
0
100
AcDbSymbolTable
 70
3
  0
LTYPE
  5
24
330
2
100
AcDbSymbolTableRecord
100
AcDbLinetypeTableRecord
  2
ByBlock
 70
0
  3

 72
65
 73
0
 40
0.0
  0
LTYPE
  5
25
330
2
100
AcDbSymbolTableRecord
100
AcDbLinetypeTableRecord
  2
ByLayer
 70
0
  3

 72
65
 73
0
 40
0.0
  0
LTYPE
  5
26
330
2
100
AcDbSymbolTableRecord
100
AcDbLinetypeTableRecord
  2
Continuous
 70
0
  3

 72
65
 73
0
 40
0.0
  0
ENDTAB
  0
TABLE
  2
LAYER
  5
1
330
0
100
AcDbSymbolTable
 70
2
  0
LAYER
  5
27
330
1
100
AcDbSymbolTableRecord
100
AcDbLayerTableRecord
  2
0
 70
0
 62
7
  6
Continuous
370
-3
390
13
347
21
  0
LAYER
  5
28
330
1
100
AcDbSymbolTableRecord
100
AcDbLayerTableRecord
  2
Defpoints
 70
0
 62
7
  6
Continuous
290
0
370
-3
390
13
347
21
  0
ENDTAB
  0
TABLE
  2
STYLE
  5
5
330
0
100
AcDbSymbolTable
 70
1
  0
STYLE
  5
29
330
5
100
AcDbSymbolTableRecord
100
AcDbTextStyleTableRecord
  2
Standard
 70
0
 40
0.0
 41
1.0
 50
0.0
 71
0
 42
2.5
  3
txt
  4

  0
ENDTAB
  0
TABLE
  2
VIEW
  5
7
330
0
100
AcDbSymbolTable
 70
0
  0
ENDTAB
  0
TABLE
  2
UCS
  5
6
330
0
100
AcDbSymbolTable
 70
0
  0
ENDTAB
  0
TABLE
  2
APPID
  5
3
330
0
100
AcDbSymbolTable
 70
1
  0
APPID
  5
2A
330
3
100
AcDbSymbolTableRecord
100
AcDbRegAppTableRecord
  2
ACAD
 70
0
  0
ENDTAB
  0
TABLE
  2
DIMSTYLE
  5
4
330
0
100
AcDbSymbolTable
 70
1
100
AcDbDimStyleTable
  0
DIMSTYLE
105
2B
330
4
100
AcDbSymbolTableRecord
100
AcDbDimStyleTableRecord
  2
Standard
 70
0
 40
1.0
 41
2.5
 42
0.625
 43
3.75
 44
1.25
 45
0.0
 46
0.0
 47
0.0
 48
0.0
 49
2.5
140
2.5
141
2.5
142
0.0
143
0.03937007874
144
1.0
145
0.0
146
1.0
147
0.625
148
0.0
 69
0
 70
0
 71
0
 72
0
 73
0
 74
0
 75
0
 76
0
 77
1
 78
8
 79
0
170
0
171
3
172
1
173
0
174
0
175
0
176
0
177
0
178
0
179
0
271
0
272
2
273
2
274
3
275
0
276
0
277
2
278
44
279
0
280
0
281
0
282
0
283
0
284
8
285
0
286
0
288
0
289
3
290
0
371
-2
372
-2
  0
ENDTAB
  0
TABLE
  2
BLOCK_RECORD
  5
9
330
0
100
AcDbSymbolTable
 70
2
  0
BLOCK_RECORD
  5
17
330
9
100
AcDbSymbolTableRecord
100
AcDbBlockTableRecord
  2
*Model_Space
340
1A
 70
0
280
1
281
1
  0
BLOCK_RECORD
  5
1B
330
9
100
AcDbSymbolTableRecord
100
AcDbBlockTableRecord
  2
*Paper_Space
340
1E
 70
0
280
1
281
1
  0
ENDTAB
  0
ENDSEC
  0
SECTION
  2
BLOCKS
  0
BLOCK
  5
18
330
17
100
AcDbEntity
  8
0
100
AcDbBlockBegin
  2
*Model_Space
 70
0
 10
0.0
 20
0.0
 30
0.0
  3
*Model_Space
  1

  0
ENDBLK
  5
19
330
17
100
AcDbEntity
  8
0
100
AcDbBlockEnd
  0
BLOCK
  5
1C
330
1B
100
AcDbEntity
  8
0
100
AcDbBlockBegin
  2
*Paper_Space
 70
0
 10
0.0
 20
0.0
 30
0.0
  3
*Paper_Space
  1

  0
ENDBLK
  5
1D
330
1B
100
AcDbEntity
  8
0
100
AcDbBlockEnd
  0
ENDSEC
  0
SECTION
  2
ENTITIES
  0
LWPOLYLINE
  5
2D
330
17
100
AcDbEntity
  8
0
100
AcDbPolyline
 90
472
 70
0
 10
61.42501190173019
 20
-121.0014781670843
 10
61.425012555913604
 20
-121.00172944335694
 10
61.425045865419264
 20
-121.00295614296611
 10
61.42510926955758
 20
-121.00418165566272
 10
61.42518265545738
 20
-121.00514242518639
 10
61.425237650354454
 20
-121.00604951745123
 10
61.425333263121196
 20
-121.0071921127866
 10
61.425455050766324
 20
-121.0083322152693
 10
61.425571003725594
 20
-121.00931127172463
 10
61.4257189019638
 20
-121.01044828011099
 10
61.425892833183596
 20
-121.01158159819974
 10
61.42604900339795
 20
-121.01246376524142
 10
61.426190607903656
 20
-121.01334837908824
 10
61.42639775419612
 20
-121.01447610082477
 10
61.426630704985484
 20
-121.01559877612567
 10
61.426842063913526
 20
-121.01656175277901
 10
61.427100696291824
 20
-121.0176787895967
 10
61.427384874583375
 20
-121.01878960220817
 10
61.42762676028606
 20
-121.0196522140162
 10
61.42785439024707
 20
-121.02051868853735
 10
61.42817107513316
 20
-121.02162067609804
 10
61.42851294562324
 20
-121.02271511224006
 10
61.428817675018045
 20
-121.02365273509994
 10
61.42918455076535
 20
-121.02473904267418
 10
61.42957623933646
 20
-121.02581665207607
 10
61.42990151103584
 20
-121.02665140122716
 10
61.43021297425123
 20
-121.02749139179917
 10
61.43063614788245
 20
-121.02855703244174
 10
61.43108364567366
 20
-121.02961268940692
 10
61.431478810824544
 20
-121.03051592865252
 10
61.431950396726776
 20
-121.03156104524723
 10
61.43244582340232
 20
-121.03259507347164
 10
61.43285134855401
 20
-121.03339392087513
 10
61.433243645462575
 20
-121.03419933792911
 10
61.4337692324457
 20
-121.0352183689519
 10
61.434318047889825
 20
-121.03622508018684
 10
61.43479984314041
 20
-121.03708523713057
 10
61.43537159756744
 20
-121.03807909770143
 10
61.43596599111757
 20
-121.0390595864911
 10
61.43644786429291
 20
-121.03981483881039
 10
61.436917216861126
 20
-121.04057792574011
 10
61.43754015550597
 20
-121.04154053331682
 10
61.43818500321005
 20
-121.0424886036415
 10
61.43874878860862
 20
-121.04329739450168
 10
61.4394152052526
 20
-121.044230427628
 10
61.440102841342345
 20
-121.04514793433981
 10
61.44065642183989
 20
-121.045852318083
 10
61.441198309945634
 20
-121.04656572594372
 10
61.441912601012454
 20
-121.04746263963715
 10
61.44264727074053
 20
-121.04834293861605
 10
61.44328761672566
 20
-121.04909257429479
 10
61.444042277630814
 20
-121.04995579435855
 10
61.4448165339496
 20
-121.05080148290234
 10
61.44543649048527
 20
-121.05144821446721
 10
61.44604569545008
 20
-121.0521050727516
 10
61.44684445992554
 20
-121.05292765479271
 10
61.44766187640663
 20
-121.05373170466558
 10
61.44837261609632
 20
-121.05441496576132
 10
61.44920825346458
 20
-121.05520005948023
 10
61.45006167349971
 20
-121.05596578541183
 10
61.45074203555387
 20
-121.05654863642081
 10
61.451412690401526
 20
-121.05714261922503
 10
61.45228823574709
 20
-121.05788294769911
 10
61.45318052681364
 20
-121.05860300502616
 10
61.4539548153962
 20
-121.05921331136109
 10
61.45486338158323
 20
-121.05991271785388
 10
61.45578774643361
 20
-121.06059110681439
 10
61.456521961747804
 20
-121.06110446409363
 10
61.457247607704524
 20
-121.0616298510377
 10
61.45819150193962
 20
-121.06228079617665
 10
61.45915007434061
 20
-121.06290992641203
 10
61.45998045499347
 20
-121.06344140040238
 10
61.460953200010856
 20
-121.06404838400263
 10
61.461939607538305
 20
-121.06463290273595
 10
61.462720605217925
 20
-121.06507182237429
 10
61.4634942539164
 20
-121.06552355369479
 10
61.464497406823966
 20
-121.06607884654139
 10
61.46551302898358
 20
-121.06661099081727
 10
61.46639150468751
 20
-121.0670585140782
 10
61.467419060468565
 20
-121.06756722920166
 10
61.46845801102896
 20
-121.0680522484725
 10
61.46927826963875
 20
-121.0684125034335
 10
61.47009247041968
 20
-121.06878622871126
 10
61.4711452210887
 20
-121.0692405214917
 10
61.47220811201019
 20
-121.06967055496769
 10
61.473126222563856
 20
-121.07002981760547
 10
61.47419869318427
 20
-121.07043536504726
 10
61.47528018111533
 20
-121.07081621385476
 10
61.47613180111605
 20
-121.07109433468615
 10
61.47697871278118
 20
-121.07138645474251
 10
61.47807092264702
 20
-121.07173537236895
 10
61.47917084610961
 20
-121.07205915358756
 10
61.48011974960648
 20
-121.07232669570661
 10
61.48122680658856
 20
-121.0726251698234
 10
61.48234041657096
 20
-121.07289818038556
 10
61.48321519639727
 20
-121.07309148863204
 10
61.48408666272362
 20
-121.07329919019091
 10
61.48520781320841
 20
-121.07353937239593
 10
61.48633417634806
 20
-121.0737537831671
 10
61.48730473432832
 20
-121.07392702819045
 10
61.48843571610796
 20
-121.07411555451324
 10
61.48957072346863
 20
-121.07427809758903
 10
61.4904602385124
 20
-121.07438473158646
 10
61.49134786680328
 20
-121.0745060143684
 10
61.49248716061546
 20
-121.0746351480661
 10
61.493629115939896
 20
-121.0747381234969
 10
61.494611981399956
 20
-121.07481540298033
 10
61.49575599600312
 20
-121.07489216589747
 10
61.496901469999464
 20
-121.07494267610814
 10
61.49781003097862
 20
-121.07496188110957
 10
61.49877294135726
 20
-121.07499734719298
 10
61.50000000257792
 20
-121.07501240625312
 10
156.49999999766771
 20
-121.0750124062471
 10
156.50122705618787
 20
-121.07499734725324
 10
156.50218997530303
 20
-121.07496188092621
 10
156.50309852803426
 20
-121.07494267615941
 10
156.50424400374953
 20
-121.07489216590963
 10
156.5053880200676
 20
-121.07481540287463
 10
156.50637088552602
 20
-121.07473812337193
 10
156.50751283913766
 20
-121.07463514809278
 10
156.50865213124538
 20
-121.07450601462517
 10
156.5095397674671
 20
-121.0743847308196
 10
156.51042927457843
 20
-121.07427809783297
 10
156.51156428364604
 20
-121.07411555454976
 10
156.51269526712096
 20
-121.07392702794158
 10
156.51366582509806
 20
-121.07375378289916
 10
156.51479218654856
 20
-121.0735393724467
 10
156.51591333536024
 20
-121.0732991906376
 10
156.51678480947922
 20
-121.07309148728257
 10
156.51765958151051
 20
-121.07289818081948
 10
156.51877319317103
 20
-121.07262516988364
 10
156.51988025181194
 20
-121.07232669531673
 10
156.5208291553035
 20
-121.0720591531791
 10
156.52192907711603
 20
-121.0717353724433
 10
156.52302128535533
 20
-121.07138645537496
 10
156.52386820460072
 20
-121.07109433276688
 10
156.5247198170186
 20
-121.07081621447438
 10
156.52580130658265
 20
-121.07043536513066
 10
156.5268737788094
 20
-121.07002981707849
 10
156.5277918893557
 20
-121.06967055442283
 10
156.52885477868256
 20
-121.06924052158904
 10
156.52990752778766
 20
-121.06878622952338
 10
156.53072173586185
 20
-121.06841250096339
 10
156.5315419871743
 20
-121.06805224927224
 10
156.53258093930756
 20
-121.06756722930757
 10
156.53360849662766
 20
-121.06705851341904
 10
156.53448697232258
 20
-121.066610990141
 10
156.53550259295807
 20
-121.06607884666059
 10
156.5365057443792
 20
-121.06552355467869
 10
156.5372794000139
 20
-121.06507181937701
 10
156.5380603907502
 20
-121.064632903709
 10
156.53904679977515
 20
-121.06404838413091
 10
156.54001954624943
 20
-121.06344139961834
 10
156.54084992689192
 20
-121.06290992561169
 10
156.54180849785448
 20
-121.06228079631711
 10
156.54275239069545
 20
-121.06162985218411
 10
156.54347804316603
 20
-121.06110446059724
 10
156.54421225195995
 20
-121.06059110794946
 10
156.5451366182179
 20
-121.05991271800139
 10
156.54604518576545
 20
-121.05921331045778
 10
156.54681947433573
 20
-121.0586030041079
 10
156.54771176406194
 20
-121.0578829478589
 10
156.54858730811773
 20
-121.05714262052345
 10
156.5492579689929
 20
-121.05654863246026
 10
156.54993832501256
 20
-121.05596578669913
 10
156.55079174635085
 20
-121.05520005964753
 10
156.55162738496927
 20
-121.05441496475034
 10
156.55233812464542
 20
-121.05373170364085
 10
156.55315553989954
 20
-121.05292765497104
 10
156.55395430320422
 20
-121.05210507418828
 10
156.55456351365183
 20
-121.05144821007966
 10
156.55518346469628
 20
-121.05080148432903
 10
156.55595772220292
 20
-121.04995579454204
 10
156.55671238423744
 20
-121.04909257318222
 10
156.55735273020798
 20
-121.04834293749077
 10
156.5580873988324
 20
-121.04746263982993
 10
156.55880168885693
 20
-121.04656572750409
 10
156.55934358184717
 20
-121.04585231331107
 10
156.55989715744846
 20
-121.04514793589418
 10
156.56058479459816
 20
-121.04423042782925
 10
156.56125121223872
 20
-121.04329739330298
 10
156.56181499762167
 20
-121.04248860243149
 10
156.56245984435762
 20
-121.0415405335253
 10
156.5630827821002
 20
-121.04057792741031
 10
156.5635521389088
 20
-121.03981483369991
 10
156.56403400783208
 20
-121.0390595881555
 10
156.56462840230478
 20
-121.03807909791468
 10
156.56520015758667
 20
-121.03708523585226
 10
156.56568195282037
 20
-121.03622507889912
 10
156.5662307674391
 20
-121.03521836917248
 10
156.56675635366668
 20
-121.03419933969458
 10
156.56714865413142
 20
-121.03339391547524
 10
156.5675541757164
 20
-121.03259507522908
 10
156.56804960316722
 20
-121.0315610454713
 10
156.56852118977346
 20
-121.03051592730965
 10
156.56891635490678
 20
-121.02961268805602
 10
156.5693638520246
 20
-121.02855703267231
 10
156.56978702505552
 20
-121.02749139364079
 10
156.5700984911074
 20
-121.02665139558998
 10
156.5704237599588
 20
-121.0258166539113
 10
156.57081544915096
 20
-121.02473904290805
 10
156.5711823254451
 20
-121.02365273370604
 10
156.5714870548217
 20
-121.02271511083983
 10
156.57182892479696
 20
-121.02162067633668
 10
156.57214560924382
 20
-121.02051869043714
 10
156.57237324129412
 20
-121.01965220819697
 10
156.57261512489478
 20
-121.01878960410518
 10
156.5728993036478
 20
-121.01767878983782
 10
156.57315793641106
 20
-121.01656175134518
 10
156.57336929532033
 20
-121.01559877468723
 10
156.57360224575783
 20
-121.01447610106847
 10
156.57380939177585
 20
-121.01334838102882
 10
156.57395099760421
 20
-121.01246375929527
 10
156.57410716648278
 20
-121.01158160014022
 10
156.57428109799957
 20
-121.01044828035808
 10
156.57442899645676
 20
-121.00931127026686
 10
156.57454494939688
 20
-121.00833221380906
 10
156.57466673685678
 20
-121.00719211303439
 10
156.5747623495168
 20
-121.00604951941415
 10
156.5748165653817
 20
-121.0051552775789
 10
156.57488551554692
 20
-121.00426205903138
 10
156.57494752477174
 20
-121.0031171482243
 10
156.57498326457974
 20
-121.00197111656408
 10
156.57500269486053
 20
-121.00098540915555
 10
156.57501214646288
 20
-120.99983886101985
 10
156.57499530496258
 20
-120.99869239762134
 10
156.57496112428566
 20
-120.99778427672518
 10
156.57493998512354
 20
-120.9968209453324
 10
156.57488296268141
 20
-120.99559511726183
 10
154.07514207381064
 20
-78.49999999354098
 10
156.5748829626897
 20
-36.00440488249476
 10
156.5749399850394
 20
-36.003179057125294
 10
156.57496112447146
 20
-36.00221571699454
 10
156.57499530489832
 20
-36.001307604344625
 10
156.5750121464605
 20
-36.0001611392281
 10
156.5750026948412
 20
-35.99901458937374
 10
156.5749832645411
 20
-35.99802888196555
 10
156.5749475247839
 20
-35.99688285202357
 10
156.57488551568863
 20
-35.99573794293099
 10
156.5748165649672
 20
-35.99484471640573
 10
156.57476234964554
 20
-35.99395048254877
 10
156.5746667368788
 20
-35.99280788721349
 10
156.57454494923368
 20
-35.99166778473087
 10
156.57442899627446
 20
-35.99068872827593
 10
156.5742810980364
 20
-35.989551719890486
 10
156.57410716681676
 20
-35.98841840180264
 10
156.5739509966023
 20
-35.987536234759915
 10
156.57380939209636
 20
-35.986651620911836
 10
156.5736022458038
 20
-35.985523899174815
 10
156.57336929501432
 20
-35.984401223873434
 10
156.57315793608615
 20
-35.98343824721962
 10
156.57289930370797
 20
-35.98232121040255
 10
156.57261512541658
 20
-35.981210397791706
 10
156.5723732397142
 20
-35.98034778598476
 10
156.57214560975245
 20
-35.97948131146091
 10
156.57182892486648
 20
-35.97837932390079
 10
156.57148705437658
 20
-35.9772848877593
 10
156.57118232498192
 20
-35.9763472648999
 10
156.57081544923474
 20
-35.975260957326064
 10
156.57042376066377
 20
-35.97418334792455
 10
156.57009848896385
 20
-35.97334859877201
 10
156.56978702574824
 20
-35.972508608199504
 10
156.5693638521173
 20
-35.971442967557714
 10
156.56891635432643
 20
-35.97038731059331
 10
156.5685211891756
 20
-35.969484071347836
 10
156.56804960327338
 20
-35.96843895475314
 10
156.56755417659787
 20
-35.96740492652873
 10
156.56714865144622
 20
-35.96660607912533
 10
156.56675635453726
 20
-35.96580066207061
 10
156.5662307675549
 20
-35.964781631049256
 10
156.5656819521116
 20
-35.96377491981573
 10
156.56520015686135
 20
-35.962914762872494
 10
156.56462840243415
 20
-35.961920902301195
 10
156.56403400888382
 20
-35.960940413511075
 10
156.56355213570694
 20
-35.96018516118933
 10
156.56308278313793
 20
-35.95942207425838
 10
156.5624598444931
 20
-35.9584594666818
 10
156.56181499678908
 20
-35.95751139635727
 10
156.5612512113904
 20
-35.956702605497
 10
156.56058479474657
 20
-35.955769572370905
 10
156.55989715865695
 20
-35.954852065659296
 10
156.55934357816017
 20
-35.95414768191711
 10
156.5588016900538
 20
-35.95343427405559
 10
156.55808739898802
 20
-35.95253736036348
 10
156.55735272926105
 20
-35.95165706138584
 10
156.5567123832761
 20
-35.95090742570723
 10
156.55595772237035
 20
-35.95004420564272
 10
156.55518346605098
 20
-35.94919851709822
 10
156.55456350951505
 20
-35.94855178553308
 10
156.55395430455107
 20
-35.94789492724956
 10
156.55315554007512
 20
-35.94707234520792
 10
156.55233812359353
 20
-35.94626829533454
 10
156.5516273839037
 20
-35.945585034238675
 10
156.55079174653497
 20
-35.94479994051933
 10
156.54993832649933
 20
-35.94403421458732
 10
156.54925796444584
 20
-35.94345136357893
 10
156.54858730959802
 20
-35.94285738077459
 10
156.54771176425285
 20
-35.94211705230086
 10
156.5468194731867
 20
-35.941396994974134
 10
156.54604518460408
 20
-35.94078668863914
 10
156.54513661841673
 20
-35.94008728214611
 10
156.54421225356603
 20
-35.93940889318536
 10
156.5434780382525
 20
-35.93889553590658
 10
156.54275239229509
 20
-35.938370148962036
 10
156.54180849805957
 20
-35.93771920382279
 10
156.54084992565814
 20
-35.93709007358714
 10
156.5400195450052
 20
-35.93655859959678
 10
156.53904679998826
 20
-35.935951615996835
 10
156.53806039246123
 20
-35.935367097263786
 10
156.5372793947829
 20
-35.93492817762617
 10
156.53650574608443
 20
-35.934476446305645
 10
156.5355025931761
 20
-35.93392115345861
 10
156.53448697101567
 20
-35.933389009182335
 10
156.5336084953116
 20
-35.932941485921354
 10
156.53258093953096
 20
-35.9324327707981
 10
156.531541988971
 20
-35.93194775152746
 10
156.53072173036222
 20
-35.931587496566905
 10
156.52990752958115
 20
-35.93121377128909
 10
156.5288547789119
 20
-35.93075947850853
 10
156.52779188799013
 20
-35.93032944503242
 10
156.52687377743635
 20
-35.929970182394584
 10
156.5258013068156
 20
-35.929564634952676
 10
156.52471981888417
 20
-35.929183786145074
 10
156.5238681988837
 20
-35.92890566531376
 10
156.52302128721942
 20
-35.92861354525768
 10
156.52192907735306
 20
-35.92826462763107
 10
156.52082915388993
 20
-35.927940846412305
 10
156.51988025039316
 20
-35.92767330429329
 10
156.51877319341125
 20
-35.927374830176554
 10
156.517659583429
 20
-35.927101819614435
 10
156.5167848036026
 20
-35.926908511367934
 10
156.5159133372762
 20
-35.926700809809056
 10
156.51479218679157
 20
-35.92646062760407
 10
156.51366582365205
 20
-35.92624621683292
 10
156.5126952656716
 20
-35.92607297180954
 10
156.51156428389206
 20
-35.92588444548676
 10
156.5104292765315
 20
-35.925721902410984
 10
156.5095397614869
 20
-35.925615268413445
 10
156.5086521331975
 20
-35.925493985631704
 10
156.50751283938547
 20
-35.925364851934006
 10
156.5063708840612
 20
-35.925261876503185
 10
156.50538801860102
 20
-35.92518459701972
 10
156.50424400399694
 20
-35.92510783410252
 10
156.50309852999968
 20
-35.92505732389182
 10
156.50218996902137
 20
-35.92503811889042
 10
156.5012270586442
 20
-35.925002652807045
 10
156.49999999742258
 20
-35.92498759374688
 10
61.50000000233233
 20
-35.924987593752896
 10
61.49877294381242
 20
-35.92500265274674
 10
61.4978100246981
 20
-35.92503811907375
 10
61.4969014719679
 20
-35.92505732384048
 10
61.495755996251454
 20
-35.92510783409029
 10
61.49461197993219
 20
-35.92518459712536
 10
61.493629114473556
 20
-35.92526187662809
 10
61.49248716086189
 20
-35.925364851907254
 10
61.491347868754104
 20
-35.925493985374885
 10
61.49046023253246
 20
-35.92561526918046
 10
61.48957072542042
 20
-35.9257219021672
 10
61.48843571635328
 20
-35.92588444545035
 10
61.48730473287886
 20
-35.92607297205846
 10
61.486334174902005
 20
-35.92624621710084
 10
61.48520781345165
 20
-35.92646062755327
 10
61.484086664640145
 20
-35.92670080936232
 10
61.48321519052073
 20
-35.92690851271746
 10
61.48234041848938
 20
-35.92710181918056
 10
61.481226806829284
 20
-35.92737483011629
 10
61.48011974818878
 20
-35.927673304683076
 10
61.47917084469745
 20
-35.92794084682063
 10
61.478070922884314
 20
-35.92826462755659
 10
61.476978714644424
 20
-35.928613544625115
 10
61.476131795400384
 20
-35.92890566723275
 10
61.47528018298218
 20
-35.929183785525346
 10
61.47419869341786
 20
-35.92956463486914
 10
61.47312622119085
 20
-35.9299701829214
 10
61.47220811064448
 20
-35.93032944557709
 10
61.471145221317386
 20
-35.930759478410984
 10
61.47009247221201
 20
-35.931213770476745
 10
61.4692782641379
 20
-35.93158749903672
 10
61.4684580128264
 20
-35.931947750727424
 10
61.467419060693054
 20
-35.93243277069214
 10
61.46639150337285
 20
-35.93294148658068
 10
61.46551302767773
 20
-35.933389009858814
 10
61.464497407041975
 20
-35.93392115333938
 10
61.46349425562053
 20
-35.93447644532144
 10
61.46272059998603
 20
-35.93492818062303
 10
61.46193960924942
 20
-35.93536709629122
 10
61.460953200224495
 20
-35.935951615869286
 10
61.45998045375027
 20
-35.936558600381844
 10
61.459150073107594
 20
-35.937090074388614
 10
61.45819150214488
 20
-35.93771920368332
 10
61.45724760930372
 20
-35.93837014781645
 10
61.45652195683529
 20
-35.93889553940179
 10
61.45578774804093
 20
-35.939408892049876
 10
61.45486338178243
 20
-35.94008728199835
 10
61.45395481423435
 20
-35.94078668954237
 10
61.4531805256638
 20
-35.94139699589248
 10
61.45228823593696
 20
-35.942117052141995
 10
61.45141269188059
 20
-35.942857379478
 10
61.45074203100779
 20
-35.943451367539154
 10
61.45006167498768
 20
-35.94403421330063
 10
61.44920825364846
 20
-35.94479994035308
 10
61.44837261502914
 20
-35.94558503525117
 10
61.447661875352914
 20
-35.94626829636079
 10
61.44684446009931
 20
-35.94707234503016
 10
61.44604569679512
 20
-35.947894925812456
 10
61.445436486348335
 20
-35.94855178992021
 10
61.44481653530343
 20
-35.94919851567132
 10
61.44404227779722
 20
-35.950044205457836
 10
61.44328761576311
 20
-35.95090742681717
 10
61.44264726979274
 20
-35.951657062508396
 10
61.441912601168276
 20
-35.952537360169245
 10
61.441198311143715
 20
-35.953434272495095
 10
61.440656418153566
 20
-35.95414768668796
 10
61.44010284255093
 20
-35.954852064106575
 10
61.43941520540047
 20
-35.95576957217257
 10
61.438748787759216
 20
-35.95670260669995
 10
61.43818500237646
 20
-35.95751139757128
 10
61.43754015564182
 20
-35.958459466475595
 10
61.43691721790049
 20
-35.95942207258867
 10
61.43644786109186
 20
-35.96018516629911
 10
61.43596599216757
 20
-35.9609404118451
 10
61.43537159769511
 20
-35.96192090208553
 10
61.434799842413426
 20
-35.962914764147556
 10
61.43431804717973
 20
-35.96377492110068
 10
61.43376923256087
 20
-35.96478163082756
 10
61.43324364633318
 20
-35.96580066030571
 10
61.43285134586935
 20
-35.966606084523185
 10
61.43244582428409
 20
-35.96740492476984
 10
61.43195039683274
 20
-35.96843895452868
 10
61.43147881022602
 20
-35.96948407269141
 10
61.43108364509285
 20
-35.97038731194477
 10
61.43063614797513
 20
-35.9714429673283
 10
61.430212974944304
 20
-35.97250860635965
 10
61.42990150889306
 20
-35.97334860440877
 10
61.429576240041726
 20
-35.974183346087166
 10
61.429184550848966
 20
-35.975260957092054
 10
61.42881767455429
 20
-35.97634726629572
 10
61.42851294517788
 20
-35.97728488916154
 10
61.42817107520299
 20
-35.978379323663546
 10
61.42785439075647
 20
-35.97948130956193
 10
61.42762675870599
 20
-35.98034779180273
 10
61.427384875105346
 20
-35.98121039589427
 10
61.42710069635217
 20
-35.98232121016229
 10
61.42684206358876
 20
-35.983438248655574
 10
61.426630704679624
 20
-35.98440122531296
 10
61.42639775424227
 20
-35.98552389893105
 10
61.426190608224346
 20
-35.98665161897002
 10
61.42604900239574
 20
-35.98753624070494
 10
61.42589283351701
 20
-35.98841839986109
 10
61.4257189020003
 20
-35.989551719642826
 10
61.42557100354316
 20
-35.99068872973362
 10
61.42545505060309
 20
-35.991667786191016
 10
61.42533326314326
 20
-35.99280788696499
 10
61.425237650483304
 20
-35.993950480584544
 10
61.4251834346182
 20
-35.99484472242259
 10
61.425114484453125
 20
-35.99573794096781
 10
61.42505247522829
 20
-35.99688285177504
 10
61.42501673542027
 20
-35.998028883435424
 10
61.42499730513948
 20
-35.999014590844034
 10
61.424987853537104
 20
-36.00016113897964
 10
61.42500469503739
 20
-36.00130760237807
 10
61.425038875714364
 20
-36.002215723275725
 10
61.42506001487652
 20
-36.00317905466922
 10
61.42511703731862
 20
-36.004404882738854
 10
63.92485792618933
 20
-78.50000000645896
 10
61.42511703731028
 20
-120.99559511750549
 10
61.42506001496058
 20
-120.99682094287492
 10
61.42503859290877
 20
-120.99779716220584
 10
61.42500265295216
 20
-120.9987729385152
 10
61.424987593879514
 20
-120.99999999800073
 10
61.425002652842
 20
-121.0012270574876
 10
61.42501190173019
 20
-121.0014781670843
  0
LWPOLYLINE
  5
2E
330
17
100
AcDbEntity
  8
0
100
AcDbPolyline
 90
404
 70
0
 10
61.33502590813679
 20
-121.00325197251668
 10
61.3350260505315
 20
-121.00329374069486
 10
61.33513428741019
 20
-121.00695374825536
 10
61.33533820416713
 20
-121.01060967338056
 10
61.33543921546308
 20
-121.01207561049152
 10
61.33571746504261
 20
-121.01550035636264
 10
61.336079678289636
 20
-121.0189172421778
 10
61.336195631248906
 20
-121.01989629863313
 10
61.33664158997972
 20
-121.02330326618825
 10
61.33717102556545
 20
-121.02669826325332
 10
61.33741523742799
 20
-121.02814724063835
 10
61.338027830956385
 20
-121.03152822219377
 10
61.338723213424046
 20
-121.03489315166298
 10
61.33893457235209
 20
-121.03585612831633
 10
61.339712324886605
 20
-121.0392029787916
 10
61.340571978998945
 20
-121.0425297342554
 10
61.34095703953427
 20
-121.04394779746976
 10
61.341898077400835
 20
-121.04725245400866
 10
61.3429199321757
 20
-121.05053302102145
 10
61.3432246615705
 20
-121.05147064388133
 10
61.34432671772681
 20
-121.05472514527787
 10
61.34550831142691
 20
-121.05795162066745
 10
61.34603051229164
 20
-121.05932511298745
 10
61.347290931787505
 20
-121.0625216188615
 10
61.3486294178497
 20
-121.06568622976485
 10
61.349024583000585
 20
-121.06658946901045
 10
61.35044032937502
 20
-121.06972027869952
 10
61.35193248326914
 20
-121.07281540129193
 10
61.35258679538335
 20
-121.0741310952354
 10
61.354154457980215
 20
-121.07718866634649
 10
61.355796684977804
 20
-121.08020684420828
 10
61.35627848022839
 20
-121.08106700115201
 10
61.35799428240925
 20
-121.0840439677248
 10
61.35978262623951
 20
-121.0869779297975
 10
61.36056274822002
 20
-121.08822315451283
 10
61.36242255646969
 20
-121.09111234477862
 10
61.36435270885846
 20
-121.09395502289503
 10
61.36491649425703
 20
-121.09476381375521
 10
61.366915828131745
 20
-121.09755826739713
 10
61.36898313916987
 20
-121.10030281329237
 10
61.36988155801545
 20
-121.10146557658467
 10
61.37201560094741
 20
-121.104158561523
 10
61.374215090304325
 20
-121.10679836334931
 10
61.37485543628946
 20
-121.10754799902806
 10
61.37711904718098
 20
-121.11013302762424
 10
61.37944541609275
 20
-121.11266172586596
 10
61.380453479538794
 20
-121.11373082968908
 10
61.38284120515305
 20
-121.11620167438295
 10
61.38528884919327
 20
-121.11861317718464
 10
61.38599958888297
 20
-121.11929643828039
 10
61.38850567697897
 20
-121.12164714658992
 10
61.39106869955789
 20
-121.12393564442942
 10
61.39217669940226
 20
-121.1249007927291
 10
61.394795112597016
 20
-121.1271257015946
 10
61.3974673391716
 20
-121.12928568128252
 10
61.39824162775416
 20
-121.12989598761746
 10
61.400966058057044
 20
-121.13198973703521
 10
61.403741050995365
 20
-121.13401599498816
 10
61.40493831659405
 20
-121.1348678928588
 10
61.40776220061679
 20
-121.13682543880554
 10
61.41063327472087
 20
-121.13871309359294
 10
61.41146365537373
 20
-121.13924456758329
 10
61.41438019013214
 20
-121.14106119415906
 10
61.41734042873276
 20
-121.14280569825488
 10
61.41861542976367
 20
-121.14353614145432
 10
61.421617589068724
 20
-121.14520747224572
 10
61.42465986069041
 20
-121.14680462298597
 10
61.42553833639434
 20
-121.1472521462469
 10
61.4286188877827
 20
-121.14877415487246
 10
61.43173586332807
 20
-121.15022010458185
 10
61.43307632083391
 20
-121.15082205854257
 10
61.43622784298643
 20
-121.15219107834965
 10
61.43941201338734
 20
-121.15348234360819
 10
61.440330123941
 20
-121.15384160624598
 10
61.443545024564195
 20
-121.15505433914578
 10
61.44678871887465
 20
-121.15618780918224
 10
61.4481817235168
 20
-121.15665547675859
 10
61.4514522576352
 20
-121.15770900117201
 10
61.45474766151325
 20
-121.15868194535838
 10
61.45569656501012
 20
-121.15894948747743
 10
61.45901485362011
 20
-121.15984126537165
 10
61.4623540281487
 20
-121.16065133979995
 10
61.463786164531435
 20
-121.16098021709765
 10
61.46714421358376
 20
-121.16170810010128
 10
61.47051911439762
 20
-121.16235335323098
 10
61.47148967237788
 20
-121.16252659825433
 10
61.47487939204009
 20
-121.16308883283388
 10
61.478281888709404
 20
-121.16356771019403
 10
61.47973936457645
 20
-121.16375462994488
 10
61.483152588717154
 20
-121.1641498616279
 10
61.486574484329616
 20
-121.16446120956088
 10
61.487557349789675
 20
-121.16453848904432
 10
61.49098585260141
 20
-121.16476576551821
 10
61.49441890045297
 20
-121.16490883394458
 10
61.49588768184744
 20
-121.1649519961418
 10
61.50000000257793
 20
-121.16501240625313
 10
156.49999999766771
 20
-121.1650124062471
 10
156.5041123198851
 20
-121.16495199609207
 10
156.50558110152372
 20
-121.16490883387206
 10
156.5090141500022
 20
-121.16476576537531
 10
156.51244265343794
 20
-121.16453848880022
 10
156.51342551889636
 20
-121.16446120929751
 10
156.51684741450094
 20
-121.16414986129762
 10
156.52026063863215
 20
-121.1637546295479
 10
156.5217181144953
 20
-121.16356770976853
 10
156.52512061115627
 20
-121.16308883234156
 10
156.5285103308085
 20
-121.16252659769538
 10
156.5294808887856
 20
-121.16235335265296
 10
156.53285578958733
 20
-121.16170809945697
 10
156.53621383862588
 20
-121.16098021638739
 10
156.53764597500225
 20
-121.16065133906159
 10
156.54098514951477
 20
-121.15984126456783
 10
156.54430343810708
 20
-121.15894948660859
 10
156.54525234159863
 20
-121.15868194447096
 10
156.548547745458
 20
-121.15770900021982
 10
156.55181827955613
 20
-121.15665547574211
 10
156.55321128418936
 20
-121.15618780813836
 10
156.55645497847675
 20
-121.15505433803857
 10
156.55966987907533
 20
-121.15384160507605
 10
156.56058798962164
 20
-121.15348234242039
 10
156.56377215999774
 20
-121.1521910770992
 10
156.56692368212393
 20
-121.15082205723012
 10
156.56826413961812
 20
-121.15022010324303
 10
156.5713811151351
 20
-121.1487741534725
 10
156.5744616664936
 20
-121.14725214478655
 10
156.5753401421885
 20
-121.14680462150851
 10
156.57838241377814
 20
-121.145207470709
 10
156.5813845730497
 20
-121.14353613985917
 10
156.5826595740661
 20
-121.14280569663484
 10
156.5856198126319
 20
-121.14106119248137
 10
156.58853634735414
 20
-121.13924456584884
 10
156.58936672799663
 20
-121.13871309184219
 10
156.592237802065
 20
-121.1368254369977
 10
156.5950616860506
 20
-121.1348678909947
 10
156.596258951633
 20
-121.13401599310029
 10
156.59903394453198
 20
-121.13198973509265
 10
156.60175837479417
 20
-121.12989598562115
 10
156.60253266336446
 20
-121.12928567927126
 10
156.60520488989593
 20
-121.1271256995315
 10
156.60782330304633
 20
-121.12490079061527
 10
156.60893130287195
 20
-121.12393564229373
 10
156.61149432540412
 20
-121.12164714440571
 10
156.61400041345223
 20
-121.11929643604887
 10
156.61471115312838
 20
-121.11861317493938
 10
156.6171587971235
 20
-121.1162016720877
 10
156.61954652269137
 20
-121.11373082734491
 10
156.62055458611647
 20
-121.112661723502
 10
156.62288095497937
 20
-121.11013302521388
 10
156.62514456582085
 20
-121.10754799657248
 10
156.62578491179138
 20
-121.10679836088103
 10
156.62798440109609
 20
-121.10415855901206
 10
156.6301184439748
 20
-121.10146557403242
 10
156.63101686279737
 20
-121.10030281072275
 10
156.6330841737792
 20
-121.09755826479028
 10
156.63508350759682
 20
-121.0947638111126
 10
156.63564729297977
 20
-121.09395502024111
 10
156.63757744531523
 20
-121.09111234208349
 10
156.6394372535105
 20
-121.08822315177777
 10
156.64021737546642
 20
-121.08697792704739
 10
156.6420057192389
 20
-121.08404396494
 10
156.64372152136116
 20
-121.08106699833395
 10
156.64420331659485
 20
-121.08020684138081
 10
156.64584554353382
 20
-121.07718866348574
 10
156.64741320607126
 20
-121.07413109234281
 10
156.64806751815976
 20
-121.07281539838628
 10
156.64955967199214
 20
-121.06972027576671
 10
156.65097541830423
 20
-121.06658946605206
 10
156.65137058343754
 20
-121.06568622679843
 10
156.6527090694388
 20
-121.0625216158662
 10
156.65396948887297
 20
-121.05932510996477
 10
156.65449168971065
 20
-121.05795161763474
 10
156.6556732833459
 20
-121.05472514222632
 10
156.65677533943696
 20
-121.05147064081255
 10
156.65708006881354
 20
-121.05053301794634
 10
156.65810192352532
 20
-121.0472524509099
 10
156.6590429613281
 20
-121.04394779434888
 10
156.65942802183542
 20
-121.04252973112764
 10
156.66028767588213
 20
-121.03920297564852
 10
156.66106542835067
 20
-121.03585612515955
 10
156.66127678725994
 20
-121.03489314850161
 10
156.6619721696618
 20
-121.03152821901799
 10
156.66258476312402
 20
-121.02814723744977
 10
156.66282897495802
 20
-121.02669826006067
 10
156.66335841047692
 20
-121.02330326298701
 10
156.66380436914076
 20
-121.01989629542496
 10
156.66392032208088
 20
-121.01891723896715
 10
156.66428253526115
 20
-121.0155003531431
 10
156.6645607847737
 20
-121.01207560726475
 10
156.66466179604095
 20
-121.0106096701512
 10
156.6648559142785
 20
-121.0071791271607
 10
156.66496578431182
 20
-121.00374485348559
 10
156.6649852145926
 20
-121.00275914607705
 10
156.66501077025484
 20
-120.99932321344602
 10
156.66495199628716
 20
-120.99588768848503
 10
156.66490883418928
 20
-120.99441890708883
 10
156.66472765626725
 20
-120.9903101352878
 10
154.16529764868903
 20
-78.49999999354185
 10
156.66472765627546
 20
-36.00968986447038
 10
156.66490883424126
 20
-36.00558109118245
 10
156.66495199633079
 20
-36.004112309539956
 10
156.66501077026504
 20
-36.00067678394845
 10
156.6649852145385
 20
-35.99724085068802
 10
156.66496578423838
 20
-35.99625514327983
 10
156.6648559141377
 20
-35.9928208696059
 10
156.66466179583279
 20
-35.989390326618235
 10
156.6645607845368
 20
-35.987924389507064
 10
156.66428253495732
 20
-35.98449964363698
 10
156.66392032171044
 20
-35.98108275782284
 10
156.66380436875122
 20
-35.980103701367895
 10
156.66335841002063
 20
-35.976696733814286
 10
156.6628289744352
 20
-35.97330173675073
 10
156.6625847625727
 20
-35.97185275936563
 10
156.66197216904374
 20
-35.968471777806734
 10
156.6612767865753
 20
-35.96510684833408
 10
156.66106542764715
 20
-35.964143871680264
 10
156.66028767511287
 20
-35.96079702120632
 10
156.65942802100085
 20
-35.95747026574384
 10
156.65904296046548
 20
-35.95605220252934
 10
156.65810192259886
 20
-35.952747545990356
 10
156.65708006782396
 20
-35.94946697897746
 10
156.6567753384293
 20
-35.94852935611806
 10
156.6556732822729
 20
-35.94527485472129
 10
156.65449168857268
 20
-35.94204837933149
 10
156.65396948770785
 20
-35.94067488701128
 10
156.6527090682124
 20
-35.937478381138305
 10
156.65137058215066
 20
-35.934313770235995
 10
156.65097541699984
 20
-35.93341053099052
 10
156.64955967062488
 20
-35.93027972130027
 10
156.64806751673018
 20
-35.9271845987067
 10
156.64741320461587
 20
-35.925868904763085
 10
156.64584554202136
 20
-35.922811333656504
 10
156.64420331502632
 20
-35.91979315579911
 10
156.64372151977608
 20
-35.91893299885588
 10
156.64200571759258
 20
-35.915956032278224
 10
156.64021737375944
 20
-35.91302207020079
 10
156.63943725177865
 20
-35.91177684548505
 10
156.6375774435285
 20
-35.90888765521862
 10
156.63564729113918
 20
-35.90604497710159
 10
156.6350835057405
 20
-35.90523618624132
 10
156.63308417186633
 20
-35.902441732600295
 10
156.6310168608288
 20
-35.899697186705936
 10
156.63011844198317
 20
-35.898534423413615
 10
156.62798439905416
 20
-35.895841438478996
 10
156.62578490970037
 20
-35.89320163665623
 10
156.62514456371542
 20
-35.89245200097762
 10
156.62288095282196
 20
-35.88986697237898
 10
156.6205545839081
 20
-35.88733827413491
 10
156.61954652046225
 20
-35.886269170311984
 10
156.6171587948475
 20
-35.883798325617576
 10
156.61471115080678
 20
-35.88138682281537
 10
156.61400041111696
 20
-35.88070356171951
 10
156.61149432301974
 20
-35.87835285340888
 10
156.60893130043956
 20
-35.876064355568346
 10
156.60782330059507
 20
-35.87509920726862
 10
156.60520488740212
 20
-35.87287429840472
 10
156.6025326608294
 20
-35.8707143187183
 10
156.6017583722468
 20
-35.87010401238331
 10
156.59903394194362
 20
-35.86801026296529
 10
156.596258949005
 20
-35.8659840050121
 10
156.59506168340627
 20
-35.86513210714143
 10
156.59223779938176
 20
-35.86317456119345
 10
156.58936672527582
 20
-35.86128690640493
 10
156.5885363446229
 20
-35.860755432414564
 10
156.58561980986738
 20
-35.85893880584065
 10
156.58265957126977
 20
-35.857194301746574
 10
156.58138457023924
 20
-35.85646385854731
 10
156.57838241093157
 20
-35.85479252775441
 10
156.5753401393072
 20
-35.85319537701279
 10
156.57446166360313
 20
-35.85274785375181
 10
156.5713811122169
 20
-35.85122584512735
 10
156.56826413667372
 20
-35.84977989541894
 10
156.56692367916807
 20
-35.84917794145828
 10
156.56377215701482
 20
-35.847808921650866
 10
156.56058798661317
 20
-35.846517656391995
 10
156.5596698760594
 20
-35.84615839375416
 10
156.55645497543594
 20
-35.844945660854265
 10
156.55321128112521
 20
-35.84381219081771
 10
156.55181827648298
 20
-35.843344523241335
 10
156.54854774236406
 20
-35.84229099882776
 10
156.5452523384855
 20
-35.841318054641256
 10
156.54430343498873
 20
-35.841050512522244
 10
156.54098514637943
 20
-35.840158734628226
 10
156.5376459718515
 20
-35.839348660200095
 10
156.53621383546871
 20
-35.83901978290239
 10
156.53285578641643
 20
-35.83829189989877
 10
156.5294808856026
 20
-35.837646646769066
 10
156.52851032762214
 20
-35.83747340174568
 10
156.52512060795985
 20
-35.83691116716611
 10
156.52171811129045
 20
-35.83643228980594
 10
156.52026063542368
 20
-35.83624537005513
 10
156.51684741128435
 20
-35.835850138372244
 10
156.51342551567325
 20
-35.83553879043935
 10
156.51244265021307
 20
-35.83546151095589
 10
156.50901414739997
 20
-35.835234234481845
 10
156.50558109954704
 20
-35.835091166055406
 10
156.50411231815306
 20
-35.835048003858205
 10
156.49999999742258
 20
-35.834987593746874
 10
61.50000000233232
 20
-35.83498759375289
 10
61.495887680118095
 20
-35.83504800390782
 10
61.49441889847981
 20
-35.83509116612779
 10
61.49098584999895
 20
-35.8352342346246
 10
61.48755734656085
 20
-35.835461511199846
 10
61.48657448110222
 20
-35.83553879070258
 10
61.48315258549758
 20
-35.83585013870253
 10
61.479739361366335
 20
-35.836245370452296
 10
61.478281885502895
 20
-35.83643229023172
 10
61.47487938884271
 20
-35.83691116765861
 10
61.47148966919127
 20
-35.83747340230467
 10
61.470519111214415
 20
-35.83764664734704
 10
61.46714421041279
 20
-35.838291900543005
 10
61.46378616137433
 20
-35.839019783612585
 10
61.462354024997865
 20
-35.839348660938406
 10
61.45901485048634
 20
-35.840158735431885
 10
61.45569656189502
 20
-35.841050513390826
 10
61.45474765840369
 20
-35.84131805552838
 10
61.45145225454388
 20
-35.84229099977959
 10
61.44818172044532
 20
-35.843344524257404
 10
61.446788715811984
 20
-35.84381219186118
 10
61.443545021524194
 20
-35.844945661961084
 10
61.44033012092522
 20
-35.84615839492373
 10
61.439412010378845
 20
-35.84651765757941
 10
61.436227840002644
 20
-35.847808922900626
 10
61.43307631787637
 20
-35.84917794276975
 10
61.43173586038231
 20
-35.84977989675677
 10
61.4286188848657
 20
-35.8512258465271
 10
61.42553833350758
 20
-35.852747855212854
 10
61.424659857812465
 20
-35.85319537849099
 10
61.42161758622196
 20
-35.85479252929094
 10
61.41861542694956
 20
-35.85646386014127
 10
61.41734042593314
 20
-35.85719430336561
 10
61.41438018736733
 20
-35.85893880751908
 10
61.41146365264512
 20
-35.86075543415164
 10
61.41063327200244
 20
-35.86128690815841
 10
61.40776219793513
 20
-35.86317456300222
 10
61.40493831395054
 20
-35.86513210900447
 10
61.403741048368616
 20
-35.86598400689852
 10
61.4009660554683
 20
-35.868010264907134
 10
61.39824162520481
 20
-35.87010401437965
 10
61.39746733663426
 20
-35.87071432072976
 10
61.394795110103864
 20
-35.872874300468666
 10
61.39217669695451
 20
-35.87509920938398
 10
61.3910686971289
 20
-35.876064357705495
 10
61.388505674594036
 20
-35.87835285559595
 10
61.38599958654334
 20
-35.880703563955365
 10
61.38528884686711
 20
-35.881386825064986
 10
61.38284120287391
 20
-35.88379832791495
 10
61.38045347730785
 20
-35.88626917265594
 10
61.37944541388277
 20
-35.887338276498845
 10
61.37711904502113
 20
-35.88986697478562
 10
61.37485543418081
 20
-35.8924520034256
 10
61.374215088210434
 20
-35.89320163911683
 10
61.372015598905975
 20
-35.89584144098542
 10
61.36988155602748
 20
-35.898534425964684
 10
61.3689831372047
 20
-35.899697189274555
 10
61.366915826218886
 20
-35.90244173521228
 10
61.36491649239757
 20
-35.90523618889542
 10
61.36435270701481
 20
-35.906044979766754
 10
61.36242255468289
 20
-35.908887657919436
 10
61.360562746490906
 20
-35.91177684822006
 10
61.35978262453484
 20
-35.91302207295062
 10
61.35799428076192
 20
-35.915956035058635
 10
61.35627847863926
 20
-35.918933001665316
 10
61.355796683405565
 20
-35.91979315861844
 10
61.354154456467114
 20
-35.92281133651246
 10
61.352586793930165
 20
-35.925868907654326
 10
61.35193248184166
 20
-35.92718460161079
 10
61.35044032800785
 20
-35.93027972423323
 10
61.34902458169447
 20
-35.933410533950834
 10
61.3486294165613
 20
-35.934313773204195
 10
61.347290930561364
 20
-35.93747838413334
 10
61.346030511128376
 20
-35.940674890031644
 10
61.34550831029062
 20
-35.942048382361776
 10
61.34432671665378
 20
-35.9452748577745
 10
61.343224660561305
 20
-35.94852935919262
 10
61.342919931184895
 20
-35.94946698205844
 10
61.341898076474514
 20
-35.95274754909074
 10
61.340957038672876
 20
-35.95605220564754
 10
61.340571978165336
 20
-35.957470268869486
 10
61.339712324118004
 20
-35.960797024350924
 10
61.33893457164893
 20
-35.964143874842236
 10
61.338723212739794
 20
-35.96510685149962
 10
61.33802783033817
 20
-35.96847178098224
 10
61.33741523687612
 20
-35.97185276254944
 10
61.337171025041975
 20
-35.97330173993936
 10
61.33664158952303
 20
-35.97669673701328
 10
61.33619563085916
 20
-35.98010370457561
 10
61.33607967791909
 20
-35.98108276103301
 10
61.33571746473884
 20
-35.984499646856854
 10
61.335439215226316
 20
-35.987924392735
 10
61.33533820395908
 20
-35.989390329848305
 10
61.33514408572153
 20
-35.99282087283855
 10
61.335034215688204
 20
-35.996255146513406
 10
61.33501478540741
 20
-35.997240853922015
 10
61.33498922974517
 20
-36.000676786553655
 10
61.335048003712835
 20
-36.00411231151525
 10
61.335091165810745
 20
-36.005581092912266
 10
61.335272343732775
 20
-36.00968986471288
 10
63.834702351310945
 20
-78.50000000645815
 10
61.335272343724526
 20
-120.99031013552987
 10
61.33509116575873
 20
-120.99441890881738
 10
61.335048003669215
 20
-120.99588769045948
 10
61.334988320940376
 20
-120.9995488057037
 10
61.335024404334625
 20
-121.00321022958632
 10
61.33502590813679
 20
-121.00325197251668
  0
ENDSEC
  0
SECTION
  2
OBJECTS
  0
DICTIONARY
  5
A
330
0
100
AcDbDictionary
281
1
  3
ACAD_COLOR
350
B
  3
ACAD_GROUP
350
C
  3
ACAD_LAYOUT
350
D
  3
ACAD_MATERIAL
350
E
  3
ACAD_MLEADERSTYLE
350
F
  3
ACAD_MLINESTYLE
350
10
  3
ACAD_PLOTSETTINGS
350
11
  3
ACAD_PLOTSTYLENAME
350
12
  3
ACAD_SCALELIST
350
14
  3
ACAD_TABLESTYLE
350
15
  3
ACAD_VISUALSTYLE
350
16
  0
DICTIONARY
  5
B
330
A
100
AcDbDictionary
281
1
  0
DICTIONARY
  5
C
330
A
100
AcDbDictionary
281
1
  0
DICTIONARY
  5
D
330
A
100
AcDbDictionary
281
1
  3
Model
350
1A
  3
Layout1
350
1E
  0
DICTIONARY
  5
E
330
A
100
AcDbDictionary
281
1
  3
ByBlock
350
1F
  3
ByLayer
350
20
  3
Global
350
21
  0
DICTIONARY
  5
F
330
A
100
AcDbDictionary
281
1
  3
Standard
350
2C
  0
DICTIONARY
  5
10
330
A
100
AcDbDictionary
281
1
  3
Standard
350
22
  0
DICTIONARY
  5
11
330
A
100
AcDbDictionary
281
1
  0
ACDBDICTIONARYWDFLT
  5
12
330
A
100
AcDbDictionary
281
1
  3
Normal
350
13
100
AcDbDictionaryWithDefault
340
13
  0
ACDBPLACEHOLDER
  5
13
330
12
  0
DICTIONARY
  5
14
330
A
100
AcDbDictionary
281
1
  0
DICTIONARY
  5
15
330
A
100
AcDbDictionary
281
1
  0
DICTIONARY
  5
16
330
A
100
AcDbDictionary
281
1
  0
LAYOUT
  5
1A
330
D
100
AcDbPlotSettings
  1

  2
Adobe PDF
  4
A4
  6

 40
3.175
 41
3.175
 42
3.175
 43
3.175
 44
209.91
 45
297.03
 46
0.0
 47
0.0
 48
0.0
 49
0.0
140
0.0
141
0.0
142
1.0
143
1.0
 70
1024
 72
0
 73
1
 74
5
  7

 75
16
 76
0
 77
2
 78
300
147
1.0
148
0.0
149
0.0
100
AcDbLayout
  1
Model
 70
1
 71
0
 10
-3.175
 20
-3.175
 11
293.857
 21
206.735
 12
0.0
 22
0.0
 32
0.0
 14
29.068
 24
20.356
 34
0.0
 15
261.614
 25
183.204
 35
0.0
146
0.0
 13
0.0
 23
0.0
 33
0.0
 16
1.0
 26
0.0
 36
0.0
 17
0.0
 27
1.0
 37
0.0
 76
1
330
17
  0
LAYOUT
  5
1E
330
D
100
AcDbPlotSettings
  1

  2
Adobe PDF
  4
A4
  6

 40
3.175
 41
3.175
 42
3.175
 43
3.175
 44
209.91
 45
297.03
 46
0.0
 47
0.0
 48
0.0
 49
0.0
140
0.0
141
0.0
142
1.0
143
1.0
 70
0
 72
0
 73
1
 74
5
  7

 75
16
 76
0
 77
2
 78
300
147
1.0
148
0.0
149
0.0
100
AcDbLayout
  1
Layout1
 70
1
 71
1
 10
-3.175
 20
-3.175
 11
293.857
 21
206.735
 12
0.0
 22
0.0
 32
0.0
 14
29.068
 24
20.356
 34
0.0
 15
261.614
 25
183.204
 35
0.0
146
0.0
 13
0.0
 23
0.0
 33
0.0
 16
1.0
 26
0.0
 36
0.0
 17
0.0
 27
1.0
 37
0.0
 76
1
330
1B
  0
MATERIAL
  5
1F
102
{ACAD_REACTORS
330
E
102
}
330
E
100
AcDbMaterial
  1
ByBlock
  2

 70
0
 40
1.0
 71
1
 41
1.0
 91
-1023410177
 42
1.0
 72
1
  3

 73
1
 74
1
 75
1
 44
0.5
 73
0
 45
1.0
 46
1.0
 77
1
  4

 78
1
 79
1
170
1
 48
1.0
171
1
  6

172
1
173
1
174
1
140
1.0
141
1.0
175
1
  7

176
1
177
1
178
1
143
1.0
179
1
  8

270
1
271
1
272
1
145
1.0
146
1.0
273
1
  9

274
1
275
1
276
1
 42
1.0
 72
1
  3

 73
1
 74
1
 75
1
 94
63
  0
MATERIAL
  5
20
102
{ACAD_REACTORS
330
E
102
}
330
E
100
AcDbMaterial
  1
ByLayer
  2

 70
0
 40
1.0
 71
1
 41
1.0
 91
-1023410177
 42
1.0
 72
1
  3

 73
1
 74
1
 75
1
 44
0.5
 73
0
 45
1.0
 46
1.0
 77
1
  4

 78
1
 79
1
170
1
 48
1.0
171
1
  6

172
1
173
1
174
1
140
1.0
141
1.0
175
1
  7

176
1
177
1
178
1
143
1.0
179
1
  8

270
1
271
1
272
1
145
1.0
146
1.0
273
1
  9

274
1
275
1
276
1
 42
1.0
 72
1
  3

 73
1
 74
1
 75
1
 94
63
  0
MATERIAL
  5
21
102
{ACAD_REACTORS
330
E
102
}
330
E
100
AcDbMaterial
  1
Global
  2

 70
0
 40
1.0
 71
1
 41
1.0
 91
-1023410177
 42
1.0
 72
1
  3

 73
1
 74
1
 75
1
 44
0.5
 73
0
 45
1.0
 46
1.0
 77
1
  4

 78
1
 79
1
170
1
 48
1.0
171
1
  6

172
1
173
1
174
1
140
1.0
141
1.0
175
1
  7

176
1
177
1
178
1
143
1.0
179
1
  8

270
1
271
1
272
1
145
1.0
146
1.0
273
1
  9

274
1
275
1
276
1
 42
1.0
 72
1
  3

 73
1
 74
1
 75
1
 94
63
  0
MLINESTYLE
  5
22
102
{ACAD_REACTORS
330
10
102
}
330
10
100
AcDbMlineStyle
  2
Standard
 70
0
  3

 62
256
 51
90.0
 52
90.0
 71
2
 49
0.5
 62
256
  6
BYLAYER
 49
-0.5
 62
256
  6
BYLAYER
  0
MLEADERSTYLE
  5
2C
102
{ACAD_REACTORS
330
F
102
}
330
F
100
AcDbMLeaderStyle
179
2
170
2
171
1
172
0
 90
2
 40
0.0
 41
0.0
173
1
 91
-1056964608
 92
-2
290
1
 42
2.0
291
1
 43
8.0
  3
Standard
 44
4.0
300

342
29
174
1
175
1
176
0
178
1
 93
-1056964608
 45
4.0
292
0
297
0
 46
4.0
 94
-1056964608
 47
1.0
 49
0.0
140
1.0
294
1
141
0.0
177
0
142
1.0
295
0
296
0
143
3.75
271
0
272
9
272
9
  0
ENDSEC
  0
EOF
