  0
SECTION
  2
HEADER
  9
$ACADVER
  1
AC1024
  9
$ACADMAINTVER
 70
6
  9
$DWGCODEPAGE
  3
ANSI_1252
  9
$LASTSAVEDBY
  1
ezdxf
  9
$INSBASE
 10
0.0
 20
0.0
 30
0.0
  9
$EXTMIN
 10
-100
 20
-100
 30
-100
  9
$EXTMAX
 10
100
 20
100
 30
100
  9
$LIMMIN
 10
0.0
 20
0.0
  9
$LIMMAX
 10
420.0
 20
297.0
  9
$ORTHOMODE
 70
0
  9
$REGENMODE
 70
1
  9
$FILLMODE
 70
1
  9
$QTEXTMODE
 70
0
  9
$MIRRTEXT
 70
1
  9
$LTSCALE
 40
1.0
  9
$ATTMODE
 70
1
  9
$TEXTSIZE
 40
2.5
  9
$TRACEWID
 40
1.0
  9
$TEXTSTYLE
  7
Standard
  9
$CLAYER
  8
0
  9
$CELTYPE
  6
ByLayer
  9
$CECOLOR
 62
256
  9
$CELTSCALE
 40
1.0
  9
$DISPSILH
 70
0
  9
$DIMSCALE
 40
1.0
  9
$DIMASZ
 40
2.5
  9
$DIMEXO
 40
0.625
  9
$DIMDLI
 40
3.75
  9
$DIMRND
 40
0.0
  9
$DIMDLE
 40
0.0
  9
$DIMEXE
 40
1.25
  9
$DIMTP
 40
0.0
  9
$DIMTM
 40
0.0
  9
$DIMTXT
 40
2.5
  9
$DIMCEN
 40
2.5
  9
$DIMTSZ
 40
0.0
  9
$DIMTOL
 70
0
  9
$DIMLIM
 70
0
  9
$DIMTIH
 70
0
  9
$DIMTOH
 70
0
  9
$DIMSE1
 70
0
  9
$DIMSE2
 70
0
  9
$DIMTAD
 70
1
  9
$DIMZIN
 70
8
  9
$DIMBLK
  1

  9
$DIMASO
 70
1
  9
$DIMSHO
 70
1
  9
$DIMPOST
  1

  9
$DIMAPOST
  1

  9
$DIMALT
 70
0
  9
$DIMALTD
 70
3
  9
$DIMALTF
 40
0.03937007874
  9
$DIMLFAC
 40
1.0
  9
$DIMTOFL
 70
1
  9
$DIMTVP
 40
0.0
  9
$DIMTIX
 70
0
  9
$DIMSOXD
 70
0
  9
$DIMSAH
 70
0
  9
$DIMBLK1
  1

  9
$DIMBLK2
  1

  9
$DIMSTYLE
  2
ISO-25
  9
$DIMCLRD
 70
0
  9
$DIMCLRE
 70
0
  9
$DIMCLRT
 70
0
  9
$DIMTFAC
 40
1.0
  9
$DIMGAP
 40
0.625
  9
$DIMJUST
 70
0
  9
$DIMSD1
 70
0
  9
$DIMSD2
 70
0
  9
$DIMTOLJ
 70
0
  9
$DIMTZIN
 70
8
  9
$DIMALTZ
 70
0
  9
$DIMALTTZ
 70
0
  9
$DIMUPT
 70
0
  9
$DIMDEC
 70
2
  9
$DIMTDEC
 70
2
  9
$DIMALTU
 70
2
  9
$DIMALTTD
 70
3
  9
$DIMTXSTY
  7
Standard
  9
$DIMAUNIT
 70
0
  9
$DIMADEC
 70
0
  9
$DIMALTRND
 40
0.0
  9
$DIMAZIN
 70
0
  9
$DIMDSEP
 70
44
  9
$DIMATFIT
 70
3
  9
$DIMFRAC
 70
0
  9
$DIMLDRBLK
  1

  9
$DIMLUNIT
 70
2
  9
$DIMLWD
 70
-2
  9
$DIMLWE
 70
-2
  9
$DIMTMOVE
 70
0
  9
$DIMFXL
 40
1.0
  9
$DIMFXLON
 70
0
  9
$DIMJOGANG
 40
0.785398163397
  9
$DIMTFILL
 70
0
  9
$DIMTFILLCLR
 70
0
  9
$DIMARCSYM
 70
0
  9
$DIMLTYPE
  6

  9
$DIMLTEX1
  6

  9
$DIMLTEX2
  6

  9
$DIMTXTDIRECTION
 70
0
  9
$LUNITS
 70
2
  9
$LUPREC
 70
4
  9
$SKETCHINC
 40
1.0
  9
$FILLETRAD
 40
10.0
  9
$AUNITS
 70
0
  9
$AUPREC
 70
2
  9
$MENU
  1
.
  9
$ELEVATION
 40
0.0
  9
$PELEVATION
 40
0.0
  9
$THICKNESS
 40
0.0
  9
$LIMCHECK
 70
0
  9
$CHAMFERA
 40
0.0
  9
$CHAMFERB
 40
0.0
  9
$CHAMFERC
 40
0.0
  9
$CHAMFERD
 40
0.0
  9
$SKPOLY
 70
0
  9
$TDCREATE
 40
2461054.439085648
  9
$TDUCREATE
 40
2458532.153996898
  9
$TDUPDATE
 40
2461054.439085648
  9
$TDUUPDATE
 40
2458532.1544311
  9
$TDINDWG
 40
0.0
  9
$TDUSRTIMER
 40
0.0
  9
$USRTIMER
 70
1
  9
$ANGBASE
 50
0.0
  9
$ANGDIR
 70
0
  9
$PDMODE
 70
0
  9
$PDSIZE
 40
0.0
  9
$PLINEWID
 40
0.0
  9
$SPLFRAME
 70
0
  9
$SPLINETYPE
 70
6
  9
$SPLINESEGS
 70
8
  9
$HANDSEED
  5
2F
  9
$SURFTAB1
 70
6
  9
$SURFTAB2
 70
6
  9
$SURFTYPE
 70
6
  9
$SURFU
 70
6
  9
$SURFV
 70
6
  9
$UCSBASE
  2

  9
$UCSNAME
  2

  9
$UCSORG
 10
0.0
 20
0.0
 30
0.0
  9
$UCSXDIR
 10
1.0
 20
0.0
 30
0.0
  9
$UCSYDIR
 10
0.0
 20
1.0
 30
0.0
  9
$UCSORTHOREF
  2

  9
$UCSORTHOVIEW
 70
0
  9
$UCSORGTOP
 10
0.0
 20
0.0
 30
0.0
  9
$UCSORGBOTTOM
 10
0.0
 20
0.0
 30
0.0
  9
$UCSORGLEFT
 10
0.0
 20
0.0
 30
0.0
  9
$UCSORGRIGHT
 10
0.0
 20
0.0
 30
0.0
  9
$UCSORGFRONT
 10
0.0
 20
0.0
 30
0.0
  9
$UCSORGBACK
 10
0.0
 20
0.0
 30
0.0
  9
$PUCSBASE
  2

  9
$PUCSNAME
  2

  9
$PUCSORG
 10
0.0
 20
0.0
 30
0.0
  9
$PUCSXDIR
 10
1.0
 20
0.0
 30
0.0
  9
$PUCSYDIR
 10
0.0
 20
1.0
 30
0.0
  9
$PUCSORTHOREF
  2

  9
$PUCSORTHOVIEW
 70
0
  9
$PUCSORGTOP
 10
0.0
 20
0.0
 30
0.0
  9
$PUCSORGBOTTOM
 10
0.0
 20
0.0
 30
0.0
  9
$PUCSORGLEFT
 10
0.0
 20
0.0
 30
0.0
  9
$PUCSORGRIGHT
 10
0.0
 20
0.0
 30
0.0
  9
$PUCSORGFRONT
 10
0.0
 20
0.0
 30
0.0
  9
$PUCSORGBACK
 10
0.0
 20
0.0
 30
0.0
  9
$USERI1
 70
0
  9
$USERI2
 70
0
  9
$USERI3
 70
0
  9
$USERI4
 70
0
  9
$USERI5
 70
0
  9
$USERR1
 40
0.0
  9
$USERR2
 40
0.0
  9
$USERR3
 40
0.0
  9
$USERR4
 40
0.0
  9
$USERR5
 40
0.0
  9
$WORLDVIEW
 70
1
  9
$SHADEDGE
 70
3
  9
$SHADEDIF
 70
70
  9
$TILEMODE
 70
1
  9
$MAXACTVP
 70
64
  9
$PINSBASE
 10
0.0
 20
0.0
 30
0.0
  9
$PLIMCHECK
 70
0
  9
$PEXTMIN
 10
1e+20
 20
1e+20
 30
1e+20
  9
$PEXTMAX
 10
-1e+20
 20
-1e+20
 30
-1e+20
  9
$PLIMMIN
 10
0.0
 20
0.0
  9
$PLIMMAX
 10
420.0
 20
297.0
  9
$UNITMODE
 70
0
  9
$VISRETAIN
 70
1
  9
$PLINEGEN
 70
0
  9
$PSLTSCALE
 70
1
  9
$TREEDEPTH
 70
3020
  9
$CMLSTYLE
  2
Standard
  9
$CMLJUST
 70
0
  9
$CMLSCALE
 40
20.0
  9
$PROXYGRAPHICS
 70
1
  9
$MEASUREMENT
 70
1
  9
$CELWEIGHT
370
-1
  9
$ENDCAPS
280
0
  9
$JOINSTYLE
280
0
  9
$LWDISPLAY
290
0
  9
$INSUNITS
 70
6
  9
$HYPERLINKBASE
  1

  9
$STYLESHEET
  1

  9
$XEDIT
290
1
  9
$CEPSNTYPE
380
0
  9
$PSTYLEMODE
290
1
  9
$FINGERPRINTGUID
  2
0AE7BBA8-F095-11F0-80EB-28392620F3A2
  9
$VERSIONGUID
  2
0AE944C0-F095-11F0-BFB9-28392620F3A2
  9
$EXTNAMES
290
1
  9
$PSVPSCALE
 40
0.0
  9
$OLESTARTUP
290
0
  9
$SORTENTS
280
127
  9
$INDEXCTL
280
0
  9
$HIDETEXT
280
1
  9
$XCLIPFRAME
280
2
  9
$HALOGAP
280
0
  9
$OBSCOLOR
 70
257
  9
$OBSLTYPE
280
0
  9
$INTERSECTIONDISPLAY
280
0
  9
$INTERSECTIONCOLOR
 70
257
  9
$DIMASSOC
280
2
  9
$PROJECTNAME
  1

  9
$CAMERADISPLAY
290
0
  9
$LENSLENGTH
 40
50.0
  9
$CAMERAHEIGHT
 40
0.0
  9
$STEPSPERSEC
 40
24.0
  9
$STEPSIZE
 40
100.0
  9
$3DDWFPREC
 40
2.0
  9
$PSOLWIDTH
 40
0.005
  9
$PSOLHEIGHT
 40
0.08
  9
$LOFTANG1
 40
1.570796326795
  9
$LOFTANG2
 40
1.570796326795
  9
$LOFTMAG1
 40
0.0
  9
$LOFTMAG2
 40
0.0
  9
$LOFTPARAM
 70
7
  9
$LOFTNORMALS
280
1
  9
$LATITUDE
 40
37.795
  9
$LONGITUDE
 40
-122.394
  9
$NORTHDIRECTION
 40
0.0
  9
$TIMEZONE
 70
-8000
  9
$LIGHTGLYPHDISPLAY
280
1
  9
$TILEMODELIGHTSYNCH
280
1
  9
$CMATERIAL
347
20
  9
$SOLIDHIST
280
0
  9
$SHOWHIST
280
1
  9
$DWFFRAME
280
2
  9
$DGNFRAME
280
2
  9
$REALWORLDSCALE
290
1
  9
$INTERFERECOLOR
 62
256
  9
$CSHADOW
280
0
  9
$SHADOWPLANELOCATION
 40
0.0
  0
ENDSEC
  0
SECTION
  2
CLASSES
  0
CLASS
  1
ACDBDICTIONARYWDFLT
  2
AcDbDictionaryWithDefault
  3
ObjectDBX Classes
 90
0
 91
0
280
0
281
0
  0
CLASS
  1
SUN
  2
AcDbSun
  3
SCENEOE
 90
1153
 91
0
280
0
281
0
  0
CLASS
  1
VISUALSTYLE
  2
AcDbVisualStyle
  3
ObjectDBX Classes
 90
4095
 91
0
280
0
281
0
  0
CLASS
  1
MATERIAL
  2
AcDbMaterial
  3
ObjectDBX Classes
 90
1153
 91
0
280
0
281
0
  0
CLASS
  1
SCALE
  2
AcDbScale
  3
ObjectDBX Classes
 90
1153
 91
0
280
0
281
0
  0
CLASS
  1
TABLESTYLE
  2
AcDbTableStyle
  3
ObjectDBX Classes
 90
4095
 91
0
280
0
281
0
  0
CLASS
  1
MLEADERSTYLE
  2
AcDbMLeaderStyle
  3
ACDB_MLEADERSTYLE_CLASS
 90
4095
 91
0
280
0
281
0
  0
CLASS
  1
DICTIONARYVAR
  2
AcDbDictionaryVar
  3
ObjectDBX Classes
 90
0
 91
0
280
0
281
0
  0
CLASS
  1
CELLSTYLEMAP
  2
AcDbCellStyleMap
  3
ObjectDBX Classes
 90
1152
 91
0
280
0
281
0
  0
CLASS
  1
MENTALRAYRENDERSETTINGS
  2
AcDbMentalRayRenderSettings
  3
SCENEOE
 90
1024
 91
0
280
0
281
0
  0
CLASS
  1
ACDBDETAILVIEWSTYLE
  2
AcDbDetailViewStyle
  3
ObjectDBX Classes
 90
1025
 91
0
280
0
281
0
  0
CLASS
  1
ACDBSECTIONVIEWSTYLE
  2
AcDbSectionViewStyle
  3
ObjectDBX Classes
 90
1025
 91
0
280
0
281
0
  0
CLASS
  1
RASTERVARIABLES
  2
AcDbRasterVariables
  3
ISM
 90
0
 91
0
280
0
281
0
  0
CLASS
  1
ACDBPLACEHOLDER
  2
AcDbPlaceHolder
  3
ObjectDBX Classes
 90
0
 91
0
280
0
281
0
  0
CLASS
  1
LAYOUT
  2
AcDbLayout
  3
ObjectDBX Classes
 90
0
 91
0
280
0
281
0
  0
ENDSEC
  0
SECTION
  2
TABLES
  0
TABLE
  2
VPORT
  5
8
330
0
100
AcDbSymbolTable
 70
1
  0
VPORT
  5
23
330
8
100
AcDbSymbolTableRecord
100
AcDbViewportTableRecord
  2
*Active
 70
0
 10
0.0
 20
0.0
 11
1.0
 21
1.0
 12
70.0
 22
50.0
 13
0.0
 23
0.0
 14
0.5
 24
0.5
 15
0.5
 25
0.5
 16
0.0
 26
0.0
 36
1.0
 17
0.0
 27
0.0
 37
0.0
 40
1.0
 41
1.34
 42
50.0
 43
0.0
 44
0.0
 50
0.0
 51
0.0
 71
0
 72
1000
 73
1
 74
3
 75
0
 76
0
 77
0
 78
0
281
0
 65
0
146
0.0
  0
ENDTAB
  0
TABLE
  2
LTYPE
  5
2
330
0
100
AcDbSymbolTable
 70
3
  0
LTYPE
  5
24
330
2
100
AcDbSymbolTableRecord
100
AcDbLinetypeTableRecord
  2
ByBlock
 70
0
  3

 72
65
 73
0
 40
0.0
  0
LTYPE
  5
25
330
2
100
AcDbSymbolTableRecord
100
AcDbLinetypeTableRecord
  2
ByLayer
 70
0
  3

 72
65
 73
0
 40
0.0
  0
LTYPE
  5
26
330
2
100
AcDbSymbolTableRecord
100
AcDbLinetypeTableRecord
  2
Continuous
 70
0
  3

 72
65
 73
0
 40
0.0
  0
ENDTAB
  0
TABLE
  2
LAYER
  5
1
330
0
100
AcDbSymbolTable
 70
2
  0
LAYER
  5
27
330
1
100
AcDbSymbolTableRecord
100
AcDbLayerTableRecord
  2
0
 70
0
 62
7
  6
Continuous
370
-3
390
13
347
21
  0
LAYER
  5
28
330
1
100
AcDbSymbolTableRecord
100
AcDbLayerTableRecord
  2
Defpoints
 70
0
 62
7
  6
Continuous
290
0
370
-3
390
13
347
21
  0
ENDTAB
  0
TABLE
  2
STYLE
  5
5
330
0
100
AcDbSymbolTable
 70
1
  0
STYLE
  5
29
330
5
100
AcDbSymbolTableRecord
100
AcDbTextStyleTableRecord
  2
Standard
 70
0
 40
0.0
 41
1.0
 50
0.0
 71
0
 42
2.5
  3
txt
  4

  0
ENDTAB
  0
TABLE
  2
VIEW
  5
7
330
0
100
AcDbSymbolTable
 70
0
  0
ENDTAB
  0
TABLE
  2
UCS
  5
6
330
0
100
AcDbSymbolTable
 70
0
  0
ENDTAB
  0
TABLE
  2
APPID
  5
3
330
0
100
AcDbSymbolTable
 70
1
  0
APPID
  5
2A
330
3
100
AcDbSymbolTableRecord
100
AcDbRegAppTableRecord
  2
ACAD
 70
0
  0
ENDTAB
  0
TABLE
  2
DIMSTYLE
  5
4
330
0
100
AcDbSymbolTable
 70
1
100
AcDbDimStyleTable
  0
DIMSTYLE
105
2B
330
4
100
AcDbSymbolTableRecord
100
AcDbDimStyleTableRecord
  2
Standard
 70
0
 40
1.0
 41
2.5
 42
0.625
 43
3.75
 44
1.25
 45
0.0
 46
0.0
 47
0.0
 48
0.0
 49
2.5
140
2.5
141
2.5
142
0.0
143
0.03937007874
144
1.0
145
0.0
146
1.0
147
0.625
148
0.0
 69
0
 70
0
 71
0
 72
0
 73
0
 74
0
 75
0
 76
0
 77
1
 78
8
 79
0
170
0
171
3
172
1
173
0
174
0
175
0
176
0
177
0
178
0
179
0
271
0
272
2
273
2
274
3
275
0
276
0
277
2
278
44
279
0
280
0
281
0
282
0
283
0
284
8
285
0
286
0
288
0
289
3
290
0
371
-2
372
-2
  0
ENDTAB
  0
TABLE
  2
BLOCK_RECORD
  5
9
330
0
100
AcDbSymbolTable
 70
2
  0
BLOCK_RECORD
  5
17
330
9
100
AcDbSymbolTableRecord
100
AcDbBlockTableRecord
  2
*Model_Space
340
1A
 70
0
280
1
281
1
  0
BLOCK_RECORD
  5
1B
330
9
100
AcDbSymbolTableRecord
100
AcDbBlockTableRecord
  2
*Paper_Space
340
1E
 70
0
280
1
281
1
  0
ENDTAB
  0
ENDSEC
  0
SECTION
  2
BLOCKS
  0
BLOCK
  5
18
330
17
100
AcDbEntity
  8
0
100
AcDbBlockBegin
  2
*Model_Space
 70
0
 10
0.0
 20
0.0
 30
0.0
  3
*Model_Space
  1

  0
ENDBLK
  5
19
330
17
100
AcDbEntity
  8
0
100
AcDbBlockEnd
  0
BLOCK
  5
1C
330
1B
100
AcDbEntity
  8
0
100
AcDbBlockBegin
  2
*Paper_Space
 70
0
 10
0.0
 20
0.0
 30
0.0
  3
*Paper_Space
  1

  0
ENDBLK
  5
1D
330
1B
100
AcDbEntity
  8
0
100
AcDbBlockEnd
  0
ENDSEC
  0
SECTION
  2
ENTITIES
  0
LWPOLYLINE
  5
2D
330
17
100
AcDbEntity
  8
0
100
AcDbPolyline
 90
323
 70
0
 10
153.98874371734883
 20
-121.02781617042719
 10
153.9910548327757
 20
-121.028643100724
 10
153.99117087334105
 20
-121.0286830212999
 10
153.99128785865716
 20
-121.02872008207446
 10
153.99140571825637
 20
-121.02875426072362
 10
153.99152438114456
 20
-121.02878553665946
 10
153.99390542102407
 20
-121.02938195607616
 10
153.9940248157231
 20
-121.02941031045921
 10
153.99414487031405
 20
-121.02943572620987
 10
153.99426551248055
 20
-121.02945818801861
 10
153.99438666955228
 20
-121.0294776823553
 10
153.99681470339968
 20
-121.0298378471295
 10
153.9969363023961
 20
-121.02985436225147
 10
153.9970582700706
 20
-121.02986788821065
 10
153.99718053295433
 20
-121.02987841685948
 10
153.99730301740075
 20
-121.02988594185591
 10
153.9997546619223
 20
-121.03000638340392
 10
153.99987729415136
 20
-121.03001090021516
 10
154.000000000294
 20
-121.03001240612048
 10
154.0001227064366
 20
-121.03001090021276
 10
154.00024533866556
 20
-121.0300063833991
 10
154.0026969831853
 20
-121.029885941803
 10
154.00281946763158
 20
-121.02987841680418
 10
154.00294173051515
 20
-121.02986788815295
 10
154.00306369818935
 20
-121.02985436219139
 10
154.00318529718547
 20
-121.02983784706701
 10
154.0056133310257
 20
-121.02947768224523
 10
154.00573448809706
 20
-121.02945818790617
 10
154.00585513026311
 20
-121.02943572609506
 10
154.0059751848536
 20
-121.02941031034204
 10
154.00609457955207
 20
-121.02938195595665
 10
154.00847561941998
 20
-121.02878553649322
 10
154.00859428230754
 20
-121.02875426055506
 10
154.0087121419061
 20
-121.02872008190359
 10
154.00882912722147
 20
-121.02868302112674
 10
154.00894516778604
 20
-121.02864310054855
 10
154.01125628296558
 20
-121.02781617028911
 10
154.01137130888085
 20
-121.02777341395625
 10
154.01148525085955
 20
-121.02772784762352
 10
154.01159804026724
 20
-121.02767949873838
 10
154.01170960916386
 20
-121.0276283964244
 10
154.01392854235309
 20
-121.02657891915923
 10
154.01403882353367
 20
-121.02652509419852
 10
154.01414775056898
 20
-121.02646857901321
 10
154.0142552578454
 20
-121.02640940764596
 10
154.01436128060462
 20
-121.02634761573938
 10
154.01646666226353
 20
-121.0250856985084
 10
154.01657113664137
 20
-121.02502132328362
 10
154.0166739997064
 20
-121.02495440351787
 10
154.0167751894977
 20
-121.02488497952112
 10
154.0168746450624
 20
-121.02481309311179
 10
154.01884619921498
 20
-121.02335088886755
 10
154.01894386064467
 20
-121.02327658334734
 10
154.01903966911183
 20
-121.02319990347509
 10
154.019133566905
 20
-121.02312089543989
 10
154.01922549746365
 20
-121.02303960683325
 10
154.0210442369654
 20
-121.02139119740222
 10
154.02113414491404
 20
-121.0213076771893
 10
154.02122197609546
 20
-121.0212219756796
 10
154.02130767760346
 20
-121.02113414449649
 10
154.0213911978146
 20
-121.0210442365462
 10
154.02303960721025
 20
-121.01922549701185
 10
154.02312089581508
 20
-121.0191335664516
 10
154.02319990384842
 20
-121.01903966865689
 10
154.0232765837188
 20
-121.01894386018824
 10
154.0233508892371
 20
-121.01884619875709
 10
154.02481309344262
 20
-121.01687464457594
 10
154.02488497985001
 20
-121.01677518900985
 10
154.0249544038448
 20
-121.01667399921716
 10
154.02502132360854
 20
-121.01657113615082
 10
154.02508569883128
 20
-121.0164666617717
 10
154.0263476160209
 20
-121.01436128008818
 10
154.0264094079254
 20
-121.01425525732775
 10
154.02646857929054
 20
-121.01414775005016
 10
154.0265250944737
 20
-121.01403882301373
 10
154.02657891943227
 20
-121.01392854183209
 10
154.02762839665408
 20
-121.01170960862193
 10
154.02767949896588
 20
-121.01159803972429
 10
154.0277278478488
 20
-121.01148525031562
 10
154.0277734141793
 20
-121.01137130833601
 10
154.02781617050994
 20
-121.01125628241988
 10
154.0286431007242
 20
-121.00894516722357
 10
154.0286830213001
 20
-121.00882912665821
 10
154.02872008207464
 20
-121.00871214134214
 10
154.02875426072382
 20
-121.00859428174292
 10
154.02878553665963
 20
-121.00847561885475
 10
154.0293819560762
 20
-121.00609457897562
 10
154.02941031045927
 20
-121.00597518427662
 10
154.0294357262099
 20
-121.00585512968567
 10
154.02945818801865
 20
-121.00573448751918
 10
154.02947768235535
 20
-121.00561333044747
 10
154.02983784712947
 20
-121.00318529660056
 10
154.02985436225032
 20
-121.00306369761324
 10
154.02986788820883
 20
-121.00294172994793
 10
154.02987841685743
 20
-121.00281946707338
 10
154.02988594185408
 20
-121.00269698263617
 10
154.03000638353475
 20
-121.0002453357816
 10
154.03001090034675
 20
-121.0001227035587
 10
154.03001240625312
 20
-120.99999999742222
 10
154.0300124062471
 20
-36.000000002332115
 10
154.03001090034
 20
-35.99987729616499
 10
154.03000638352572
 20
-35.999754663911496
 10
154.029885941803
 20
-35.99730301681472
 10
154.02987841680417
 20
-35.99718053236845
 10
154.02986788815295
 20
-35.99705826948493
 10
154.02985436219137
 20
-35.99693630181074
 10
154.02983784706703
 20
-35.996814702814646
 10
154.0294776822453
 20
-35.994386668974606
 10
154.02945818790624
 20
-35.994265511903244
 10
154.0294357260951
 20
-35.99414486973716
 10
154.02941031034212
 20
-35.99402481514668
 10
154.02938195595672
 20
-35.9939054204482
 10
154.0287855364932
 20
-35.99152438057988
 10
154.02875426055502
 20
-35.99140571769233
 10
154.02872008190354
 20
-35.99128785809377
 10
154.0286830211267
 20
-35.991170872778405
 10
154.02864310054852
 20
-35.99105483221383
 10
154.02781617028907
 20
-35.98874371703425
 10
154.0277734139562
 20
-35.988628691118954
 10
154.02772784762345
 20
-35.98851474914024
 10
154.0276794987383
 20
-35.98840195973252
 10
154.02762839642432
 20
-35.988290390835886
 10
154.02657891915916
 20
-35.98607145764677
 10
154.02652509419843
 20
-35.9859611764662
 10
154.02646857901314
 20
-35.98585224943091
 10
154.0264094076459
 20
-35.98574474215449
 10
154.02634761573933
 20
-35.9856387193953
 10
154.02508569850832
 20
-35.98353333773636
 10
154.02502132328354
 20
-35.9834288633585
 10
154.02495440351777
 20
-35.98332600029347
 10
154.024884979521
 20
-35.983224810502136
 10
154.02481309311167
 20
-35.98312535493744
 10
154.02335088886736
 20
-35.98115380078481
 10
154.02327658334715
 20
-35.98105613935515
 10
154.0231999034749
 20
-35.98096033088802
 10
154.02312089543975
 20
-35.980866433094874
 10
154.02303960683312
 20
-35.98077450253624
 10
154.02139119740232
 20
-35.97895576303471
 10
154.02130767718938
 20
-35.97886585508605
 10
154.02122197567968
 20
-35.97877802390461
 10
154.02113414449656
 20
-35.97869232239662
 10
154.02104423654626
 20
-35.978608802185455
 10
154.01922549701194
 20
-35.97696039278986
 10
154.0191335664517
 20
-35.976879104185016
 10
154.019039668657
 20
-35.97680009615168
 10
154.01894386018833
 20
-35.97672341628131
 10
154.0188461987572
 20
-35.97664911076301
 10
154.01687464457584
 20
-35.97518690655735
 10
154.01677518900976
 20
-35.975115020149964
 10
154.0166739992171
 20
-35.975045596155205
 10
154.0165711361508
 20
-35.97497867639148
 10
154.0164666617717
 20
-35.974914301168745
 10
154.01436128008822
 20
-35.973652383979115
 10
154.0142552573278
 20
-35.973590592074615
 10
154.0141477500502
 20
-35.97353142070946
 10
154.01403882301378
 20
-35.973474905526295
 10
154.01392854183212
 20
-35.97342108056773
 10
154.0117096086224
 20
-35.97237160334609
 10
154.0115980397248
 20
-35.97232050103428
 10
154.0114852503161
 20
-35.972272152151355
 10
154.01137130833652
 20
-35.972226585820856
 10
154.0112562824204
 20
-35.97218382949024
 10
154.0089451672243
 20
-35.971356899276
 10
154.00882912665892
 20
-35.97131697870008
 10
154.00871214134284
 20
-35.97127991792553
 10
154.00859428174357
 20
-35.97124573927636
 10
154.00847561885539
 20
-35.97121446334053
 10
154.00609457897588
 20
-35.97061804392384
 10
154.00597518427688
 20
-35.970589689540795
 10
154.00585512968595
 20
-35.97056427379015
 10
154.00573448751948
 20
-35.970541811981406
 10
154.00561333044777
 20
-35.97052231764472
 10
154.00318529660052
 20
-35.97016215287053
 10
154.00306369760406
 20
-35.970145637748544
 10
154.00294172992957
 20
-35.970132111789376
 10
154.00281946704584
 20
-35.97012158314054
 10
154.0026969825994
 20
-35.970114058144105
 10
154.00024533807755
 20
-35.96999361659608
 10
154.0001227058485
 20
-35.969989099784826
 10
153.99999999970586
 20
-35.96998759387951
 10
153.99987729356326
 20
-35.969989099787234
 10
153.9997546613343
 20
-35.96999361660089
 10
153.99730301681484
 20
-35.97011405819697
 10
153.99718053236853
 20
-35.970121583195805
 10
153.997058269485
 20
-35.970132111847036
 10
153.99693630181076
 20
-35.9701456378086
 10
153.99681470281465
 20
-35.970162152932964
 10
153.99438666897427
 20
-35.970522317754785
 10
153.99426551190294
 20
-35.97054181209385
 10
153.99414486973689
 20
-35.970564273904955
 10
153.99402481514645
 20
-35.970589689657956
 10
153.993905420448
 20
-35.97061804404334
 10
153.9915243805804
 20
-35.97121446350666
 10
153.99140571769283
 20
-35.971245739444825
 10
153.9912878580943
 20
-35.97127991809629
 10
153.99117087277892
 20
-35.97131697887313
 10
153.99105483221436
 20
-35.971356899451315
 10
153.98874371703465
 20
-35.972183829710765
 10
153.98862869111935
 20
-35.97222658604364
 10
153.98851474914062
 20
-35.97227215237638
 10
153.9884019597329
 20
-35.97232050126153
 10
153.98829039083626
 20
-35.972371603575525
 10
153.98607145764694
 20
-35.973421080840744
 10
153.98596117646636
 20
-35.97347490580147
 10
153.98585224943105
 20
-35.97353142098677
 10
153.98574474215462
 20
-35.97359059235402
 10
153.9856387193954
 20
-35.973652384260596
 10
153.98353333773633
 20
-35.974914301491694
 10
153.98342886335848
 20
-35.97497867671648
 10
153.98332600029346
 20
-35.97504559648223
 10
153.98322481050215
 20
-35.97511502047899
 10
153.98312535493747
 20
-35.975186906888325
 10
153.98115380078497
 20
-35.976649111132524
 10
153.98105613935527
 20
-35.97672341665273
 10
153.98096033088814
 20
-35.976800096524975
 10
153.98086643309497
 20
-35.97687910456016
 10
153.98077450253632
 20
-35.97696039316679
 10
153.97895576303463
 20
-35.978608802597755
 10
153.97886585508599
 20
-35.97869232281067
 10
153.97877802390457
 20
-35.97877802432038
 10
153.9786923223966
 20
-35.97886585550348
 10
153.97860880218545
 20
-35.97895576345377
 10
153.97696039278975
 20
-35.980774502988176
 10
153.9768791041849
 20
-35.980866433548435
 10
153.97680009615152
 20
-35.98096033134316
 10
153.97672341628115
 20
-35.981056139811834
 10
153.97664911076282
 20
-35.98115380124301
 10
153.97518690655724
 20
-35.983125355424306
 10
153.97511502014987
 20
-35.98322481099038
 10
153.9750455961551
 20
-35.98332600078304
 10
153.9749786763914
 20
-35.98342886384935
 10
153.97491430116867
 20
-35.98353333822844
 10
153.9736523839792
 20
-35.98563871991164
 10
153.97359059207471
 20
-35.98574474267207
 10
153.97353142070958
 20
-35.985852249949666
 10
153.9734749055264
 20
-35.98596117698608
 10
153.97342108056785
 20
-35.986071458167736
 10
153.9723716033459
 20
-35.98829039137814
 10
153.97232050103406
 20
-35.98840196027579
 10
153.97227215215113
 20
-35.988514749684484
 10
153.9722265858206
 20
-35.9886286916641
 10
153.97218382949
 20
-35.988743717580256
 10
153.9713568992758
 20
-35.991054832776435
 10
153.9713169786999
 20
-35.99117087334176
 10
153.97127991792536
 20
-35.99128785865782
 10
153.9712457392762
 20
-35.99140571825702
 10
153.97121446334037
 20
-35.991524381145155
 10
153.97061804392388
 20
-35.99390542102377
 10
153.97058968954084
 20
-35.99402481572279
 10
153.9705642737902
 20
-35.99414487031375
 10
153.97054181198143
 20
-35.994265512480254
 10
153.97052231764474
 20
-35.99438666955198
 10
153.97016215287053
 20
-35.9968147033994
 10
153.97014563774968
 20
-35.99693630238673
 10
153.9701321117912
 20
-35.997058270052044
 10
153.97012158314257
 20
-35.99718053292659
 10
153.97011405814592
 20
-35.99730301736381
 10
153.96999361646525
 20
-35.9997546642184
 10
153.96998909965325
 20
-35.9998772964413
 10
153.96998759374688
 20
-36.00000000257778
 10
153.9699875937529
 20
-120.99999999766789
 10
153.96998909966
 20
-121.000122703835
 10
153.96999361647428
 20
-121.0002453360885
 10
153.970114058197
 20
-121.00269698318529
 10
153.97012158319583
 20
-121.00281946763157
 10
153.97013211184705
 20
-121.00294173051512
 10
153.97014563780863
 20
-121.00306369818934
 10
153.97016215293297
 20
-121.00318529718545
 10
153.9705223177548
 20
-121.00561333102598
 10
153.9705418120939
 20
-121.00573448809733
 10
153.970564273905
 20
-121.0058551302634
 10
153.97058968965803
 20
-121.00597518485387
 10
153.97061804404342
 20
-121.00609457955234
 10
153.97121446350684
 20
-121.00847561942012
 10
153.97124573944498
 20
-121.00859428230767
 10
153.97127991809646
 20
-121.00871214190622
 10
153.9713169788733
 20
-121.00882912722156
 10
153.97135689945148
 20
-121.00894516778612
 10
153.9721838297109
 20
-121.01125628296566
 10
153.97222658604377
 20
-121.01137130888097
 10
153.97227215237652
 20
-121.01148525085969
 10
153.97232050126166
 20
-121.01159804026743
 10
153.97237160357568
 20
-121.01170960916406
 10
153.97342108084092
 20
-121.01392854235333
 10
153.97347490580162
 20
-121.0140388235339
 10
153.97353142098692
 20
-121.01414775056917
 10
153.97359059235416
 20
-121.01425525784558
 10
153.9736523842607
 20
-121.01436128060476
 10
153.9749143014916
 20
-121.01646666226354
 10
153.9749786767164
 20
-121.0165711366414
 10
153.97504559648215
 20
-121.01667399970643
 10
153.9751150204789
 20
-121.01677518949776
 10
153.97518690688827
 20
-121.01687464506246
 10
153.97664911113256
 20
-121.01884619921508
 10
153.97672341665276
 20
-121.01894386064475
 10
153.97680009652498
 20
-121.01903966911189
 10
153.97687910456017
 20
-121.01913356690504
 10
153.9769603931668
 20
-121.01922549746368
 10
153.97860880259773
 20
-121.02104423696535
 10
153.97869232281067
 20
-121.021134144914
 10
153.97877802432038
 20
-121.02122197609543
 10
153.97886585550347
 20
-121.02130767760343
 10
153.97895576345377
 20
-121.0213911978146
 10
153.98077450298797
 20
-121.0230396072101
 10
153.98086643354821
 20
-121.02312089581493
 10
153.98096033134294
 20
-121.02319990384828
 10
153.98105613981159
 20
-121.02327658371865
 10
153.98115380124275
 20
-121.02335088923695
 10
153.98312535542405
 20
-121.02481309344257
 10
153.98322481099012
 20
-121.02488497984996
 10
153.9833260007828
 20
-121.02495440384473
 10
153.98342886384913
 20
-121.02502132360846
 10
153.98353333822823
 20
-121.02508569883118
 10
153.98563871991186
 20
-121.0263476160209
 10
153.98574474266164
 20
-121.02640940791937
 10
153.98585224992829
 20
-121.02646857927901
 10
153.9859611769535
 20
-121.02652509445721
 10
153.9860714581237
 20
-121.02657891941135
 10
153.98829039110257
 20
-121.0276283965504
 10
153.98840196001086
 20
-121.02767949886825
 10
153.9885147494305
 20
-121.0277278477567
 10
153.98862869142127
 20
-121.02777341409217
 10
153.98874371734883
 20
-121.02781617042719
  0
LWPOLYLINE
  5
2E
330
17
100
AcDbEntity
  8
0
100
AcDbPolyline
 90
323
 70
0
 10
64.03001240625312
 20
-120.9999999975451
 10
64.0300124062471
 20
-36.00000000233226
 10
64.03001090033997
 20
-35.99987729616515
 10
64.03000638352572
 20
-35.99975466391169
 10
64.02988594180302
 20
-35.9973030168147
 10
64.0298784168042
 20
-35.9971805323684
 10
64.02986788815295
 20
-35.99705826948484
 10
64.02985436219139
 20
-35.99693630181061
 10
64.02983784706703
 20
-35.996814702814476
 10
64.02947768224521
 20
-35.9943866689742
 10
64.02945818790614
 20
-35.994265511902874
 10
64.02943572609504
 20
-35.99414486973683
 10
64.02941031034204
 20
-35.99402481514638
 10
64.02938195595665
 20
-35.99390542044794
 10
64.02878553649332
 20
-35.99152438058032
 10
64.02875426055516
 20
-35.991405717692764
 10
64.02872008190369
 20
-35.99128785809419
 10
64.02868302112684
 20
-35.991170872778824
 10
64.02864310054865
 20
-35.99105483221424
 10
64.02781617028913
 20
-35.98874371703444
 10
64.02777341395625
 20
-35.98862869111916
 10
64.02772784762352
 20
-35.988514749140464
 10
64.0276794987384
 20
-35.98840195973275
 10
64.0276283964244
 20
-35.988290390836134
 10
64.02657891915926
 20
-35.986071457646965
 10
64.02652509419853
 20
-35.98596117646637
 10
64.02646857901324
 20
-35.98585224943107
 10
64.02640940764599
 20
-35.98574474215463
 10
64.0263476157394
 20
-35.98563871939542
 10
64.02508569850833
 20
-35.98353333773639
 10
64.02502132328355
 20
-35.98342886335854
 10
64.02495440351781
 20
-35.98332600029353
 10
64.02488497952106
 20
-35.983224810502215
 10
64.02481309311173
 20
-35.98312535493754
 10
64.02335088886758
 20
-35.981153800785066
 10
64.02327658334735
 20
-35.98105613935536
 10
64.0231999034751
 20
-35.980960330888195
 10
64.0231208954399
 20
-35.980866433095024
 10
64.02303960683324
 20
-35.980774502536356
 10
64.02139119740208
 20
-35.978955763034506
 10
64.02130767718918
 20
-35.97886585508587
 10
64.0212219756795
 20
-35.97877802390446
 10
64.0211341444964
 20
-35.97869232239649
 10
64.02104423654613
 20
-35.978608802185356
 10
64.01922549701194
 20
-35.97696039278984
 10
64.01913356645169
 20
-35.97687910418499
 10
64.01903966865697
 20
-35.976800096151635
 10
64.01894386018832
 20
-35.97672341628126
 10
64.01884619875715
 20
-35.976649110762956
 10
64.01687464457605
 20
-35.97518690655748
 10
64.01677518900996
 20
-35.97511502015009
 10
64.01667399921729
 20
-35.975045596155326
 10
64.01657113615096
 20
-35.97497867639159
 10
64.01646666177186
 20
-35.97491430116886
 10
64.01436128008804
 20
-35.973652383979044
 10
64.01425525732762
 20
-35.973590592074544
 10
64.01414775005001
 20
-35.9735314207094
 10
64.0140388230136
 20
-35.97347490552623
 10
64.01392854183196
 20
-35.973421080567675
 10
64.01170960862223
 20
-35.97237160334603
 10
64.0115980397246
 20
-35.972320501034226
 10
64.01148525031593
 20
-35.9722721521513
 10
64.01137130833634
 20
-35.9722265858208
 10
64.0112562824202
 20
-35.972183829490184
 10
64.00894516722421
 20
-35.971356899275996
 10
64.00882912665885
 20
-35.97131697870008
 10
64.00871214134277
 20
-35.971279917925536
 10
64.00859428174354
 20
-35.97124573927637
 10
64.00847561885537
 20
-35.97121446334054
 10
64.00609457897596
 20
-35.97061804392385
 10
64.00597518427695
 20
-35.9705896895408
 10
64.00585512968601
 20
-35.97056427379016
 10
64.00573448751952
 20
-35.97054181198141
 10
64.0056133304478
 20
-35.97052231764472
 10
64.00318529660055
 20
-35.97016215287053
 10
64.0030636976041
 20
-35.970145637748544
 10
64.00294172992962
 20
-35.970132111789376
 10
64.00281946704585
 20
-35.97012158314054
 10
64.00269698259942
 20
-35.970114058144105
 10
64.00024533807753
 20
-35.96999361659608
 10
64.00012270584847
 20
-35.969989099784826
 10
63.99999999970584
 20
-35.96998759387951
 10
63.999877293563245
 20
-35.969989099787234
 10
63.999754661334265
 20
-35.96999361660089
 10
63.997303016814826
 20
-35.97011405819697
 10
63.99718053236854
 20
-35.970121583195805
 10
63.997058269484995
 20
-35.970132111847036
 10
63.996936301810784
 20
-35.9701456378086
 10
63.99681470281467
 20
-35.97016215293296
 10
63.994386668974386
 20
-35.97052231775475
 10
63.994265511903045
 20
-35.97054181209382
 10
63.994144869736985
 20
-35.97056427390493
 10
63.994024815146524
 20
-35.97058968965793
 10
63.993905420448066
 20
-35.97061804404332
 10
63.99152438058027
 20
-35.971214463506705
 10
63.99140571769272
 20
-35.97124573944487
 10
63.99128785809416
 20
-35.971279918096336
 10
63.9911708727788
 20
-35.971316978873176
 10
63.99105483221423
 20
-35.971356899451365
 10
63.988743717034474
 20
-35.97218382971085
 10
63.98862869111918
 20
-35.97222658604372
 10
63.98851474914048
 20
-35.972272152376455
 10
63.988401959732755
 20
-35.9723205012616
 10
63.98829039083613
 20
-35.97237160357559
 10
63.986071457647014
 20
-35.97342108084071
 10
63.98596117646642
 20
-35.97347490580143
 10
63.98585224943111
 20
-35.97353142098674
 10
63.98574474215467
 20
-35.973590592353986
 10
63.98563871939546
 20
-35.973652384260575
 10
63.983533337736375
 20
-35.97491430149168
 10
63.98342886335853
 20
-35.974978676716454
 10
63.98332600029352
 20
-35.975045596482204
 10
63.98322481050221
 20
-35.97511502047895
 10
63.98312535493754
 20
-35.97518690688828
 10
63.98115380078502
 20
-35.97664911113247
 10
63.98105613935532
 20
-35.97672341665269
 10
63.98096033088815
 20
-35.97680009652495
 10
63.98086643309498
 20
-35.97687910456014
 10
63.98077450253632
 20
-35.9769603931668
 10
63.97895576303453
 20
-35.9786088025979
 10
63.978865855085886
 20
-35.9786923228108
 10
63.978778023904475
 20
-35.97877802432049
 10
63.97869232239651
 20
-35.97886585550358
 10
63.97860880218537
 20
-35.978955763453854
 10
63.97696039278988
 20
-35.98077450298802
 10
63.97687910418502
 20
-35.98086643354828
 10
63.97680009615166
 20
-35.980960331343
 10
63.97672341628129
 20
-35.98105613981166
 10
63.97664911076298
 20
-35.98115380124283
 10
63.97518690655744
 20
-35.983125355424036
 10
63.975115020150064
 20
-35.98322481099011
 10
63.975045596155304
 20
-35.983326000782775
 10
63.97497867639158
 20
-35.983428863849085
 10
63.97491430116885
 20
-35.98353333822818
 10
63.97365238397907
 20
-35.98563871991189
 10
63.973590592074565
 20
-35.98574474267232
 10
63.97353142070942
 20
-35.98585224994993
 10
63.973474905526245
 20
-35.98596117698634
 10
63.97342108056768
 20
-35.986071458168
 10
63.972371603346026
 20
-35.98829039137776
 10
63.97232050103422
 20
-35.9884019602754
 10
63.972272152151284
 20
-35.98851474968407
 10
63.97222658582078
 20
-35.98862869166368
 10
63.97218382949016
 20
-35.988743717579815
 10
63.97135689927599
 20
-35.9910548327758
 10
63.97131697870008
 20
-35.99117087334115
 10
63.971279917925536
 20
-35.99128785865722
 10
63.971245739276384
 20
-35.991405718256445
 10
63.97121446334055
 20
-35.99152438114459
 10
63.97061804392387
 20
-35.99390542102394
 10
63.97058968954082
 20
-35.994024815722945
 10
63.970564273790174
 20
-35.9941448703139
 10
63.97054181198143
 20
-35.994265512480396
 10
63.970522317644736
 20
-35.994386669552114
 10
63.97016215287053
 20
-35.99681470339943
 10
63.970145637749674
 20
-35.996936302386764
 10
63.97013211179117
 20
-35.99705827005209
 10
63.970121583142564
 20
-35.99718053292664
 10
63.97011405814591
 20
-35.99730301736387
 10
63.969993616465246
 20
-35.99975466421804
 10
63.96998909965324
 20
-35.99987729644094
 10
63.96998759374687
 20
-36.00000000257742
 10
63.96998759375289
 20
-120.99999999766767
 10
63.96998909966001
 20
-121.00012270383478
 10
63.96999361647427
 20
-121.00024533608824
 10
63.97011405819697
 20
-121.00269698318516
 10
63.970121583195805
 20
-121.00281946763145
 10
63.970132111847036
 20
-121.002941730515
 10
63.9701456378086
 20
-121.00306369818922
 10
63.97016215293296
 20
-121.00318529718534
 10
63.970522317754764
 20
-121.00561333102569
 10
63.970541812093835
 20
-121.00573448809702
 10
63.97056427390494
 20
-121.00585513026309
 10
63.97058968965794
 20
-121.00597518485354
 10
63.970618044043334
 20
-121.006094579552
 10
63.9712144635067
 20
-121.0084756194197
 10
63.97124573944486
 20
-121.00859428230726
 10
63.97127991809633
 20
-121.00871214190582
 10
63.971316978873176
 20
-121.00882912722118
 10
63.97135689945136
 20
-121.00894516778575
 10
63.97218382971087
 20
-121.01125628296558
 10
63.972226586043746
 20
-121.01137130888087
 10
63.972272152376476
 20
-121.01148525085956
 10
63.97232050126162
 20
-121.01159804026729
 10
63.97237160357561
 20
-121.01170960916392
 10
63.9734210808407
 20
-121.01392854235297
 10
63.973474905801424
 20
-121.01403882353355
 10
63.973531420986724
 20
-121.01414775056885
 10
63.97359059235397
 20
-121.01425525784529
 10
63.973652384260554
 20
-121.0143612806045
 10
63.97491430149168
 20
-121.01646666226364
 10
63.97497867671646
 20
-121.01657113664149
 10
63.97504559648221
 20
-121.0166739997065
 10
63.97511502047896
 20
-121.0167751894978
 10
63.97518690688829
 20
-121.01687464506249
 10
63.97664911113244
 20
-121.01884619921496
 10
63.97672341665267
 20
-121.01894386064467
 10
63.97680009652493
 20
-121.01903966911183
 10
63.97687910456013
 20
-121.01913356690501
 10
63.97696039316679
 20
-121.0192254974637
 10
63.97860880259797
 20
-121.02104423696555
 10
63.978692322810865
 20
-121.02113414491417
 10
63.97877802432055
 20
-121.02122197609557
 10
63.97886585550363
 20
-121.02130767760353
 10
63.9789557634539
 20
-121.02139119781467
 10
63.98077450298796
 20
-121.02303960721008
 10
63.98086643354823
 20
-121.02312089581494
 10
63.980960331342956
 20
-121.02319990384831
 10
63.98105613981162
 20
-121.02327658371868
 10
63.9811538012428
 20
-121.023350889237
 10
63.98312535542404
 20
-121.02481309344256
 10
63.983224810990116
 20
-121.02488497984994
 10
63.98332600078279
 20
-121.0249544038447
 10
63.983428863849106
 20
-121.02502132360843
 10
63.983533338228206
 20
-121.02508569883116
 10
63.985638719911975
 20
-121.02634761602096
 10
63.9857447426724
 20
-121.02640940792546
 10
63.98585224995
 20
-121.02646857929061
 10
63.985961176986415
 20
-121.02652509447377
 10
63.98607145816806
 20
-121.02657891943234
 10
63.98829039137783
 20
-121.027628396654
 10
63.98840196027545
 20
-121.0276794989658
 10
63.98851474968412
 20
-121.02772784784872
 10
63.98862869166371
 20
-121.02777341417922
 10
63.988743717579844
 20
-121.02781617050984
 10
63.99105483277566
 20
-121.02864310072397
 10
63.99117087334102
 20
-121.02868302129988
 10
63.9912878586571
 20
-121.02872008207443
 10
63.99140571825633
 20
-121.02875426072359
 10
63.991524381144494
 20
-121.02878553665943
 10
63.99390542102409
 20
-121.02938195607616
 10
63.99402481572311
 20
-121.02941031045921
 10
63.99414487031407
 20
-121.02943572620985
 10
63.99426551248057
 20
-121.02945818801861
 10
63.99438666955229
 20
-121.02947768235529
 10
63.996814703399615
 20
-121.02983784712949
 10
63.99693630239606
 20
-121.02985436225147
 10
63.99705827007054
 20
-121.02986788821065
 10
63.997180532954296
 20
-121.02987841685948
 10
63.99730301740073
 20
-121.02988594185591
 10
63.99975466192234
 20
-121.03000638340392
 10
63.9998772941514
 20
-121.03001090021516
 10
64.00000000029402
 20
-121.03001240612048
 10
64.00012270643661
 20
-121.03001090021276
 10
64.0002453386656
 20
-121.0300063833991
 10
64.00269698318532
 20
-121.029885941803
 10
64.00281946763161
 20
-121.02987841680418
 10
64.00294173051515
 20
-121.02986788815295
 10
64.00306369818937
 20
-121.02985436219139
 10
64.00318529718548
 20
-121.02983784706701
 10
64.00561333102569
 20
-121.02947768224523
 10
64.00573448809702
 20
-121.02945818790617
 10
64.00585513026309
 20
-121.02943572609506
 10
64.00597518485354
 20
-121.02941031034206
 10
64.006094579552
 20
-121.02938195595667
 10
64.00847561941966
 20
-121.02878553649332
 10
64.00859428230721
 20
-121.02875426055516
 10
64.00871214190578
 20
-121.02872008190369
 10
64.00882912722115
 20
-121.02868302112684
 10
64.00894516778573
 20
-121.02864310054865
 10
64.01125628296553
 20
-121.02781617028913
 10
64.01137130888081
 20
-121.02777341395627
 10
64.0114852508595
 20
-121.02772784762354
 10
64.0115980402672
 20
-121.0276794987384
 10
64.01170960916382
 20
-121.02762839642442
 10
64.01392854235287
 20
-121.02657891915935
 10
64.01403882353347
 20
-121.02652509419862
 10
64.01414775056877
 20
-121.02646857901333
 10
64.0142552578452
 20
-121.02640940764607
 10
64.01436128060442
 20
-121.0263476157395
 10
64.01646666226351
 20
-121.02508569850842
 10
64.01657113664136
 20
-121.02502132328364
 10
64.01667399970637
 20
-121.02495440351788
 10
64.01677518949768
 20
-121.02488497952113
 10
64.01687464506236
 20
-121.0248130931118
 10
64.01884619921489
 20
-121.02335088886763
 10
64.01894386064461
 20
-121.0232765833474
 10
64.01903966911176
 20
-121.02319990347515
 10
64.01913356690494
 20
-121.02312089543994
 10
64.01922549746361
 20
-121.02303960683328
 10
64.0210442369654
 20
-121.0213911974022
 10
64.02113414491404
 20
-121.0213076771893
 10
64.02122197609545
 20
-121.02122197567961
 10
64.02130767760342
 20
-121.02113414449651
 10
64.02139119781457
 20
-121.02104423654623
 10
64.02303960721012
 20
-121.01922549701199
 10
64.02312089581497
 20
-121.01913356645174
 10
64.02319990384832
 20
-121.01903966865703
 10
64.02327658371868
 20
-121.01894386018837
 10
64.023350889237
 20
-121.01884619875722
 10
64.02481309344245
 20
-121.01687464457618
 10
64.02488497984983
 20
-121.01677518901009
 10
64.0249544038446
 20
-121.0166739992174
 10
64.02502132360834
 20
-121.01657113615107
 10
64.02508569883108
 20
-121.01646666177196
 10
64.02634761602091
 20
-121.01436128008811
 10
64.02640940792541
 20
-121.01425525732769
 10
64.02646857929057
 20
-121.0141477500501
 10
64.02652509447373
 20
-121.01403882301369
 10
64.02657891943228
 20
-121.01392854183204
 10
64.02762839665397
 20
-121.01170960862224
 10
64.02767949896577
 20
-121.01159803972462
 10
64.02772784784871
 20
-121.01148525031594
 10
64.02777341417921
 20
-121.01137130833635
 10
64.02781617050982
 20
-121.01125628242022
 10
64.02864310072398
 20
-121.00894516722433
 10
64.0286830212999
 20
-121.00882912665897
 10
64.02872008207444
 20
-121.00871214134287
 10
64.0287542607236
 20
-121.00859428174364
 10
64.02878553665944
 20
-121.00847561885547
 10
64.02938195607615
 20
-121.00609457897596
 10
64.0294103104592
 20
-121.00597518427695
 10
64.02943572620984
 20
-121.005855129686
 10
64.0294581880186
 20
-121.0057344875195
 10
64.02947768235528
 20
-121.00561333044779
 10
64.02983784712949
 20
-121.00318529660039
 10
64.02985436224996
 20
-121.0030636976161
 10
64.02986788820824
 20
-121.00294172995383
 10
64.02987841685677
 20
-121.00281946708235
 10
64.02988594185351
 20
-121.00269698264819
 10
64.03000638353416
 20
-121.0002453359167
 10
64.03001090034661
 20
-121.0001227036877
 10
64.03001240625312
 20
-120.9999999975451
  0
ENDSEC
  0
SECTION
  2
OBJECTS
  0
DICTIONARY
  5
A
330
0
100
AcDbDictionary
281
1
  3
ACAD_COLOR
350
B
  3
ACAD_GROUP
350
C
  3
ACAD_LAYOUT
350
D
  3
ACAD_MATERIAL
350
E
  3
ACAD_MLEADERSTYLE
350
F
  3
ACAD_MLINESTYLE
350
10
  3
ACAD_PLOTSETTINGS
350
11
  3
ACAD_PLOTSTYLENAME
350
12
  3
ACAD_SCALELIST
350
14
  3
ACAD_TABLESTYLE
350
15
  3
ACAD_VISUALSTYLE
350
16
  0
DICTIONARY
  5
B
330
A
100
AcDbDictionary
281
1
  0
DICTIONARY
  5
C
330
A
100
AcDbDictionary
281
1
  0
DICTIONARY
  5
D
330
A
100
AcDbDictionary
281
1
  3
Model
350
1A
  3
Layout1
350
1E
  0
DICTIONARY
  5
E
330
A
100
AcDbDictionary
281
1
  3
ByBlock
350
1F
  3
ByLayer
350
20
  3
Global
350
21
  0
DICTIONARY
  5
F
330
A
100
AcDbDictionary
281
1
  3
Standard
350
2C
  0
DICTIONARY
  5
10
330
A
100
AcDbDictionary
281
1
  3
Standard
350
22
  0
DICTIONARY
  5
11
330
A
100
AcDbDictionary
281
1
  0
ACDBDICTIONARYWDFLT
  5
12
330
A
100
AcDbDictionary
281
1
  3
Normal
350
13
100
AcDbDictionaryWithDefault
340
13
  0
ACDBPLACEHOLDER
  5
13
330
12
  0
DICTIONARY
  5
14
330
A
100
AcDbDictionary
281
1
  0
DICTIONARY
  5
15
330
A
100
AcDbDictionary
281
1
  0
DICTIONARY
  5
16
330
A
100
AcDbDictionary
281
1
  0
LAYOUT
  5
1A
330
D
100
AcDbPlotSettings
  1

  2
Adobe PDF
  4
A4
  6

 40
3.175
 41
3.175
 42
3.175
 43
3.175
 44
209.91
 45
297.03
 46
0.0
 47
0.0
 48
0.0
 49
0.0
140
0.0
141
0.0
142
1.0
143
1.0
 70
1024
 72
0
 73
1
 74
5
  7

 75
16
 76
0
 77
2
 78
300
147
1.0
148
0.0
149
0.0
100
AcDbLayout
  1
Model
 70
1
 71
0
 10
-3.175
 20
-3.175
 11
293.857
 21
206.735
 12
0.0
 22
0.0
 32
0.0
 14
29.068
 24
20.356
 34
0.0
 15
261.614
 25
183.204
 35
0.0
146
0.0
 13
0.0
 23
0.0
 33
0.0
 16
1.0
 26
0.0
 36
0.0
 17
0.0
 27
1.0
 37
0.0
 76
1
330
17
  0
LAYOUT
  5
1E
330
D
100
AcDbPlotSettings
  1

  2
Adobe PDF
  4
A4
  6

 40
3.175
 41
3.175
 42
3.175
 43
3.175
 44
209.91
 45
297.03
 46
0.0
 47
0.0
 48
0.0
 49
0.0
140
0.0
141
0.0
142
1.0
143
1.0
 70
0
 72
0
 73
1
 74
5
  7

 75
16
 76
0
 77
2
 78
300
147
1.0
148
0.0
149
0.0
100
AcDbLayout
  1
Layout1
 70
1
 71
1
 10
-3.175
 20
-3.175
 11
293.857
 21
206.735
 12
0.0
 22
0.0
 32
0.0
 14
29.068
 24
20.356
 34
0.0
 15
261.614
 25
183.204
 35
0.0
146
0.0
 13
0.0
 23
0.0
 33
0.0
 16
1.0
 26
0.0
 36
0.0
 17
0.0
 27
1.0
 37
0.0
 76
1
330
1B
  0
MATERIAL
  5
1F
102
{ACAD_REACTORS
330
E
102
}
330
E
100
AcDbMaterial
  1
ByBlock
  2

 70
0
 40
1.0
 71
1
 41
1.0
 91
-1023410177
 42
1.0
 72
1
  3

 73
1
 74
1
 75
1
 44
0.5
 73
0
 45
1.0
 46
1.0
 77
1
  4

 78
1
 79
1
170
1
 48
1.0
171
1
  6

172
1
173
1
174
1
140
1.0
141
1.0
175
1
  7

176
1
177
1
178
1
143
1.0
179
1
  8

270
1
271
1
272
1
145
1.0
146
1.0
273
1
  9

274
1
275
1
276
1
 42
1.0
 72
1
  3

 73
1
 74
1
 75
1
 94
63
  0
MATERIAL
  5
20
102
{ACAD_REACTORS
330
E
102
}
330
E
100
AcDbMaterial
  1
ByLayer
  2

 70
0
 40
1.0
 71
1
 41
1.0
 91
-1023410177
 42
1.0
 72
1
  3

 73
1
 74
1
 75
1
 44
0.5
 73
0
 45
1.0
 46
1.0
 77
1
  4

 78
1
 79
1
170
1
 48
1.0
171
1
  6

172
1
173
1
174
1
140
1.0
141
1.0
175
1
  7

176
1
177
1
178
1
143
1.0
179
1
  8

270
1
271
1
272
1
145
1.0
146
1.0
273
1
  9

274
1
275
1
276
1
 42
1.0
 72
1
  3

 73
1
 74
1
 75
1
 94
63
  0
MATERIAL
  5
21
102
{ACAD_REACTORS
330
E
102
}
330
E
100
AcDbMaterial
  1
Global
  2

 70
0
 40
1.0
 71
1
 41
1.0
 91
-1023410177
 42
1.0
 72
1
  3

 73
1
 74
1
 75
1
 44
0.5
 73
0
 45
1.0
 46
1.0
 77
1
  4

 78
1
 79
1
170
1
 48
1.0
171
1
  6

172
1
173
1
174
1
140
1.0
141
1.0
175
1
  7

176
1
177
1
178
1
143
1.0
179
1
  8

270
1
271
1
272
1
145
1.0
146
1.0
273
1
  9

274
1
275
1
276
1
 42
1.0
 72
1
  3

 73
1
 74
1
 75
1
 94
63
  0
MLINESTYLE
  5
22
102
{ACAD_REACTORS
330
10
102
}
330
10
100
AcDbMlineStyle
  2
Standard
 70
0
  3

 62
256
 51
90.0
 52
90.0
 71
2
 49
0.5
 62
256
  6
BYLAYER
 49
-0.5
 62
256
  6
BYLAYER
  0
MLEADERSTYLE
  5
2C
102
{ACAD_REACTORS
330
F
102
}
330
F
100
AcDbMLeaderStyle
179
2
170
2
171
1
172
0
 90
2
 40
0.0
 41
0.0
173
1
 91
-1056964608
 92
-2
290
1
 42
2.0
291
1
 43
8.0
  3
Standard
 44
4.0
300

342
29
174
1
175
1
176
0
178
1
 93
-1056964608
 45
4.0
292
0
297
0
 46
4.0
 94
-1056964608
 47
1.0
 49
0.0
140
1.0
294
1
141
0.0
177
0
142
1.0
295
0
296
0
143
3.75
271
0
272
9
272
9
  0
ENDSEC
  0
EOF
