  0
SECTION
  2
HEADER
  9
$ACADVER
  1
AC1024
  9
$ACADMAINTVER
 70
6
  9
$DWGCODEPAGE
  3
ANSI_1252
  9
$LASTSAVEDBY
  1
ezdxf
  9
$INSBASE
 10
0.0
 20
0.0
 30
0.0
  9
$EXTMIN
 10
-100
 20
-100
 30
-100
  9
$EXTMAX
 10
100
 20
100
 30
100
  9
$LIMMIN
 10
0.0
 20
0.0
  9
$LIMMAX
 10
420.0
 20
297.0
  9
$ORTHOMODE
 70
0
  9
$REGENMODE
 70
1
  9
$FILLMODE
 70
1
  9
$QTEXTMODE
 70
0
  9
$MIRRTEXT
 70
1
  9
$LTSCALE
 40
1.0
  9
$ATTMODE
 70
1
  9
$TEXTSIZE
 40
2.5
  9
$TRACEWID
 40
1.0
  9
$TEXTSTYLE
  7
Standard
  9
$CLAYER
  8
0
  9
$CELTYPE
  6
ByLayer
  9
$CECOLOR
 62
256
  9
$CELTSCALE
 40
1.0
  9
$DISPSILH
 70
0
  9
$DIMSCALE
 40
1.0
  9
$DIMASZ
 40
2.5
  9
$DIMEXO
 40
0.625
  9
$DIMDLI
 40
3.75
  9
$DIMRND
 40
0.0
  9
$DIMDLE
 40
0.0
  9
$DIMEXE
 40
1.25
  9
$DIMTP
 40
0.0
  9
$DIMTM
 40
0.0
  9
$DIMTXT
 40
2.5
  9
$DIMCEN
 40
2.5
  9
$DIMTSZ
 40
0.0
  9
$DIMTOL
 70
0
  9
$DIMLIM
 70
0
  9
$DIMTIH
 70
0
  9
$DIMTOH
 70
0
  9
$DIMSE1
 70
0
  9
$DIMSE2
 70
0
  9
$DIMTAD
 70
1
  9
$DIMZIN
 70
8
  9
$DIMBLK
  1

  9
$DIMASO
 70
1
  9
$DIMSHO
 70
1
  9
$DIMPOST
  1

  9
$DIMAPOST
  1

  9
$DIMALT
 70
0
  9
$DIMALTD
 70
3
  9
$DIMALTF
 40
0.03937007874
  9
$DIMLFAC
 40
1.0
  9
$DIMTOFL
 70
1
  9
$DIMTVP
 40
0.0
  9
$DIMTIX
 70
0
  9
$DIMSOXD
 70
0
  9
$DIMSAH
 70
0
  9
$DIMBLK1
  1

  9
$DIMBLK2
  1

  9
$DIMSTYLE
  2
ISO-25
  9
$DIMCLRD
 70
0
  9
$DIMCLRE
 70
0
  9
$DIMCLRT
 70
0
  9
$DIMTFAC
 40
1.0
  9
$DIMGAP
 40
0.625
  9
$DIMJUST
 70
0
  9
$DIMSD1
 70
0
  9
$DIMSD2
 70
0
  9
$DIMTOLJ
 70
0
  9
$DIMTZIN
 70
8
  9
$DIMALTZ
 70
0
  9
$DIMALTTZ
 70
0
  9
$DIMUPT
 70
0
  9
$DIMDEC
 70
2
  9
$DIMTDEC
 70
2
  9
$DIMALTU
 70
2
  9
$DIMALTTD
 70
3
  9
$DIMTXSTY
  7
Standard
  9
$DIMAUNIT
 70
0
  9
$DIMADEC
 70
0
  9
$DIMALTRND
 40
0.0
  9
$DIMAZIN
 70
0
  9
$DIMDSEP
 70
44
  9
$DIMATFIT
 70
3
  9
$DIMFRAC
 70
0
  9
$DIMLDRBLK
  1

  9
$DIMLUNIT
 70
2
  9
$DIMLWD
 70
-2
  9
$DIMLWE
 70
-2
  9
$DIMTMOVE
 70
0
  9
$DIMFXL
 40
1.0
  9
$DIMFXLON
 70
0
  9
$DIMJOGANG
 40
0.785398163397
  9
$DIMTFILL
 70
0
  9
$DIMTFILLCLR
 70
0
  9
$DIMARCSYM
 70
0
  9
$DIMLTYPE
  6

  9
$DIMLTEX1
  6

  9
$DIMLTEX2
  6

  9
$DIMTXTDIRECTION
 70
0
  9
$LUNITS
 70
2
  9
$LUPREC
 70
4
  9
$SKETCHINC
 40
1.0
  9
$FILLETRAD
 40
10.0
  9
$AUNITS
 70
0
  9
$AUPREC
 70
2
  9
$MENU
  1
.
  9
$ELEVATION
 40
0.0
  9
$PELEVATION
 40
0.0
  9
$THICKNESS
 40
0.0
  9
$LIMCHECK
 70
0
  9
$CHAMFERA
 40
0.0
  9
$CHAMFERB
 40
0.0
  9
$CHAMFERC
 40
0.0
  9
$CHAMFERD
 40
0.0
  9
$SKPOLY
 70
0
  9
$TDCREATE
 40
2461054.438888889
  9
$TDUCREATE
 40
2458532.153996898
  9
$TDUPDATE
 40
2461054.438888889
  9
$TDUUPDATE
 40
2458532.1544311
  9
$TDINDWG
 40
0.0
  9
$TDUSRTIMER
 40
0.0
  9
$USRTIMER
 70
1
  9
$ANGBASE
 50
0.0
  9
$ANGDIR
 70
0
  9
$PDMODE
 70
0
  9
$PDSIZE
 40
0.0
  9
$PLINEWID
 40
0.0
  9
$SPLFRAME
 70
0
  9
$SPLINETYPE
 70
6
  9
$SPLINESEGS
 70
8
  9
$HANDSEED
  5
35
  9
$SURFTAB1
 70
6
  9
$SURFTAB2
 70
6
  9
$SURFTYPE
 70
6
  9
$SURFU
 70
6
  9
$SURFV
 70
6
  9
$UCSBASE
  2

  9
$UCSNAME
  2

  9
$UCSORG
 10
0.0
 20
0.0
 30
0.0
  9
$UCSXDIR
 10
1.0
 20
0.0
 30
0.0
  9
$UCSYDIR
 10
0.0
 20
1.0
 30
0.0
  9
$UCSORTHOREF
  2

  9
$UCSORTHOVIEW
 70
0
  9
$UCSORGTOP
 10
0.0
 20
0.0
 30
0.0
  9
$UCSORGBOTTOM
 10
0.0
 20
0.0
 30
0.0
  9
$UCSORGLEFT
 10
0.0
 20
0.0
 30
0.0
  9
$UCSORGRIGHT
 10
0.0
 20
0.0
 30
0.0
  9
$UCSORGFRONT
 10
0.0
 20
0.0
 30
0.0
  9
$UCSORGBACK
 10
0.0
 20
0.0
 30
0.0
  9
$PUCSBASE
  2

  9
$PUCSNAME
  2

  9
$PUCSORG
 10
0.0
 20
0.0
 30
0.0
  9
$PUCSXDIR
 10
1.0
 20
0.0
 30
0.0
  9
$PUCSYDIR
 10
0.0
 20
1.0
 30
0.0
  9
$PUCSORTHOREF
  2

  9
$PUCSORTHOVIEW
 70
0
  9
$PUCSORGTOP
 10
0.0
 20
0.0
 30
0.0
  9
$PUCSORGBOTTOM
 10
0.0
 20
0.0
 30
0.0
  9
$PUCSORGLEFT
 10
0.0
 20
0.0
 30
0.0
  9
$PUCSORGRIGHT
 10
0.0
 20
0.0
 30
0.0
  9
$PUCSORGFRONT
 10
0.0
 20
0.0
 30
0.0
  9
$PUCSORGBACK
 10
0.0
 20
0.0
 30
0.0
  9
$USERI1
 70
0
  9
$USERI2
 70
0
  9
$USERI3
 70
0
  9
$USERI4
 70
0
  9
$USERI5
 70
0
  9
$USERR1
 40
0.0
  9
$USERR2
 40
0.0
  9
$USERR3
 40
0.0
  9
$USERR4
 40
0.0
  9
$USERR5
 40
0.0
  9
$WORLDVIEW
 70
1
  9
$SHADEDGE
 70
3
  9
$SHADEDIF
 70
70
  9
$TILEMODE
 70
1
  9
$MAXACTVP
 70
64
  9
$PINSBASE
 10
0.0
 20
0.0
 30
0.0
  9
$PLIMCHECK
 70
0
  9
$PEXTMIN
 10
1e+20
 20
1e+20
 30
1e+20
  9
$PEXTMAX
 10
-1e+20
 20
-1e+20
 30
-1e+20
  9
$PLIMMIN
 10
0.0
 20
0.0
  9
$PLIMMAX
 10
420.0
 20
297.0
  9
$UNITMODE
 70
0
  9
$VISRETAIN
 70
1
  9
$PLINEGEN
 70
0
  9
$PSLTSCALE
 70
1
  9
$TREEDEPTH
 70
3020
  9
$CMLSTYLE
  2
Standard
  9
$CMLJUST
 70
0
  9
$CMLSCALE
 40
20.0
  9
$PROXYGRAPHICS
 70
1
  9
$MEASUREMENT
 70
1
  9
$CELWEIGHT
370
-1
  9
$ENDCAPS
280
0
  9
$JOINSTYLE
280
0
  9
$LWDISPLAY
290
0
  9
$INSUNITS
 70
6
  9
$HYPERLINKBASE
  1

  9
$STYLESHEET
  1

  9
$XEDIT
290
1
  9
$CEPSNTYPE
380
0
  9
$PSTYLEMODE
290
1
  9
$FINGERPRINTGUID
  2
01120C00-F095-11F0-8933-28392620F3A2
  9
$VERSIONGUID
  2
01153628-F095-11F0-9196-28392620F3A2
  9
$EXTNAMES
290
1
  9
$PSVPSCALE
 40
0.0
  9
$OLESTARTUP
290
0
  9
$SORTENTS
280
127
  9
$INDEXCTL
280
0
  9
$HIDETEXT
280
1
  9
$XCLIPFRAME
280
2
  9
$HALOGAP
280
0
  9
$OBSCOLOR
 70
257
  9
$OBSLTYPE
280
0
  9
$INTERSECTIONDISPLAY
280
0
  9
$INTERSECTIONCOLOR
 70
257
  9
$DIMASSOC
280
2
  9
$PROJECTNAME
  1

  9
$CAMERADISPLAY
290
0
  9
$LENSLENGTH
 40
50.0
  9
$CAMERAHEIGHT
 40
0.0
  9
$STEPSPERSEC
 40
24.0
  9
$STEPSIZE
 40
100.0
  9
$3DDWFPREC
 40
2.0
  9
$PSOLWIDTH
 40
0.005
  9
$PSOLHEIGHT
 40
0.08
  9
$LOFTANG1
 40
1.570796326795
  9
$LOFTANG2
 40
1.570796326795
  9
$LOFTMAG1
 40
0.0
  9
$LOFTMAG2
 40
0.0
  9
$LOFTPARAM
 70
7
  9
$LOFTNORMALS
280
1
  9
$LATITUDE
 40
37.795
  9
$LONGITUDE
 40
-122.394
  9
$NORTHDIRECTION
 40
0.0
  9
$TIMEZONE
 70
-8000
  9
$LIGHTGLYPHDISPLAY
280
1
  9
$TILEMODELIGHTSYNCH
280
1
  9
$CMATERIAL
347
20
  9
$SOLIDHIST
280
0
  9
$SHOWHIST
280
1
  9
$DWFFRAME
280
2
  9
$DGNFRAME
280
2
  9
$REALWORLDSCALE
290
1
  9
$INTERFERECOLOR
 62
256
  9
$CSHADOW
280
0
  9
$SHADOWPLANELOCATION
 40
0.0
  0
ENDSEC
  0
SECTION
  2
CLASSES
  0
CLASS
  1
ACDBDICTIONARYWDFLT
  2
AcDbDictionaryWithDefault
  3
ObjectDBX Classes
 90
0
 91
0
280
0
281
0
  0
CLASS
  1
SUN
  2
AcDbSun
  3
SCENEOE
 90
1153
 91
0
280
0
281
0
  0
CLASS
  1
VISUALSTYLE
  2
AcDbVisualStyle
  3
ObjectDBX Classes
 90
4095
 91
0
280
0
281
0
  0
CLASS
  1
MATERIAL
  2
AcDbMaterial
  3
ObjectDBX Classes
 90
1153
 91
0
280
0
281
0
  0
CLASS
  1
SCALE
  2
AcDbScale
  3
ObjectDBX Classes
 90
1153
 91
0
280
0
281
0
  0
CLASS
  1
TABLESTYLE
  2
AcDbTableStyle
  3
ObjectDBX Classes
 90
4095
 91
0
280
0
281
0
  0
CLASS
  1
MLEADERSTYLE
  2
AcDbMLeaderStyle
  3
ACDB_MLEADERSTYLE_CLASS
 90
4095
 91
0
280
0
281
0
  0
CLASS
  1
DICTIONARYVAR
  2
AcDbDictionaryVar
  3
ObjectDBX Classes
 90
0
 91
0
280
0
281
0
  0
CLASS
  1
CELLSTYLEMAP
  2
AcDbCellStyleMap
  3
ObjectDBX Classes
 90
1152
 91
0
280
0
281
0
  0
CLASS
  1
MENTALRAYRENDERSETTINGS
  2
AcDbMentalRayRenderSettings
  3
SCENEOE
 90
1024
 91
0
280
0
281
0
  0
CLASS
  1
ACDBDETAILVIEWSTYLE
  2
AcDbDetailViewStyle
  3
ObjectDBX Classes
 90
1025
 91
0
280
0
281
0
  0
CLASS
  1
ACDBSECTIONVIEWSTYLE
  2
AcDbSectionViewStyle
  3
ObjectDBX Classes
 90
1025
 91
0
280
0
281
0
  0
CLASS
  1
RASTERVARIABLES
  2
AcDbRasterVariables
  3
ISM
 90
0
 91
0
280
0
281
0
  0
CLASS
  1
ACDBPLACEHOLDER
  2
AcDbPlaceHolder
  3
ObjectDBX Classes
 90
0
 91
0
280
0
281
0
  0
CLASS
  1
LAYOUT
  2
AcDbLayout
  3
ObjectDBX Classes
 90
0
 91
0
280
0
281
0
  0
ENDSEC
  0
SECTION
  2
TABLES
  0
TABLE
  2
VPORT
  5
8
330
0
100
AcDbSymbolTable
 70
1
  0
VPORT
  5
23
330
8
100
AcDbSymbolTableRecord
100
AcDbViewportTableRecord
  2
*Active
 70
0
 10
0.0
 20
0.0
 11
1.0
 21
1.0
 12
70.0
 22
50.0
 13
0.0
 23
0.0
 14
0.5
 24
0.5
 15
0.5
 25
0.5
 16
0.0
 26
0.0
 36
1.0
 17
0.0
 27
0.0
 37
0.0
 40
1.0
 41
1.34
 42
50.0
 43
0.0
 44
0.0
 50
0.0
 51
0.0
 71
0
 72
1000
 73
1
 74
3
 75
0
 76
0
 77
0
 78
0
281
0
 65
0
146
0.0
  0
ENDTAB
  0
TABLE
  2
LTYPE
  5
2
330
0
100
AcDbSymbolTable
 70
3
  0
LTYPE
  5
24
330
2
100
AcDbSymbolTableRecord
100
AcDbLinetypeTableRecord
  2
ByBlock
 70
0
  3

 72
65
 73
0
 40
0.0
  0
LTYPE
  5
25
330
2
100
AcDbSymbolTableRecord
100
AcDbLinetypeTableRecord
  2
ByLayer
 70
0
  3

 72
65
 73
0
 40
0.0
  0
LTYPE
  5
26
330
2
100
AcDbSymbolTableRecord
100
AcDbLinetypeTableRecord
  2
Continuous
 70
0
  3

 72
65
 73
0
 40
0.0
  0
ENDTAB
  0
TABLE
  2
LAYER
  5
1
330
0
100
AcDbSymbolTable
 70
2
  0
LAYER
  5
27
330
1
100
AcDbSymbolTableRecord
100
AcDbLayerTableRecord
  2
0
 70
0
 62
7
  6
Continuous
370
-3
390
13
347
21
  0
LAYER
  5
28
330
1
100
AcDbSymbolTableRecord
100
AcDbLayerTableRecord
  2
Defpoints
 70
0
 62
7
  6
Continuous
290
0
370
-3
390
13
347
21
  0
ENDTAB
  0
TABLE
  2
STYLE
  5
5
330
0
100
AcDbSymbolTable
 70
1
  0
STYLE
  5
29
330
5
100
AcDbSymbolTableRecord
100
AcDbTextStyleTableRecord
  2
Standard
 70
0
 40
0.0
 41
1.0
 50
0.0
 71
0
 42
2.5
  3
txt
  4

  0
ENDTAB
  0
TABLE
  2
VIEW
  5
7
330
0
100
AcDbSymbolTable
 70
0
  0
ENDTAB
  0
TABLE
  2
UCS
  5
6
330
0
100
AcDbSymbolTable
 70
0
  0
ENDTAB
  0
TABLE
  2
APPID
  5
3
330
0
100
AcDbSymbolTable
 70
1
  0
APPID
  5
2A
330
3
100
AcDbSymbolTableRecord
100
AcDbRegAppTableRecord
  2
ACAD
 70
0
  0
ENDTAB
  0
TABLE
  2
DIMSTYLE
  5
4
330
0
100
AcDbSymbolTable
 70
1
100
AcDbDimStyleTable
  0
DIMSTYLE
105
2B
330
4
100
AcDbSymbolTableRecord
100
AcDbDimStyleTableRecord
  2
Standard
 70
0
 40
1.0
 41
2.5
 42
0.625
 43
3.75
 44
1.25
 45
0.0
 46
0.0
 47
0.0
 48
0.0
 49
2.5
140
2.5
141
2.5
142
0.0
143
0.03937007874
144
1.0
145
0.0
146
1.0
147
0.625
148
0.0
 69
0
 70
0
 71
0
 72
0
 73
0
 74
0
 75
0
 76
0
 77
1
 78
8
 79
0
170
0
171
3
172
1
173
0
174
0
175
0
176
0
177
0
178
0
179
0
271
0
272
2
273
2
274
3
275
0
276
0
277
2
278
44
279
0
280
0
281
0
282
0
283
0
284
8
285
0
286
0
288
0
289
3
290
0
371
-2
372
-2
  0
ENDTAB
  0
TABLE
  2
BLOCK_RECORD
  5
9
330
0
100
AcDbSymbolTable
 70
2
  0
BLOCK_RECORD
  5
17
330
9
100
AcDbSymbolTableRecord
100
AcDbBlockTableRecord
  2
*Model_Space
340
1A
 70
0
280
1
281
1
  0
BLOCK_RECORD
  5
1B
330
9
100
AcDbSymbolTableRecord
100
AcDbBlockTableRecord
  2
*Paper_Space
340
1E
 70
0
280
1
281
1
  0
ENDTAB
  0
ENDSEC
  0
SECTION
  2
BLOCKS
  0
BLOCK
  5
18
330
17
100
AcDbEntity
  8
0
100
AcDbBlockBegin
  2
*Model_Space
 70
0
 10
0.0
 20
0.0
 30
0.0
  3
*Model_Space
  1

  0
ENDBLK
  5
19
330
17
100
AcDbEntity
  8
0
100
AcDbBlockEnd
  0
BLOCK
  5
1C
330
1B
100
AcDbEntity
  8
0
100
AcDbBlockBegin
  2
*Paper_Space
 70
0
 10
0.0
 20
0.0
 30
0.0
  3
*Paper_Space
  1

  0
ENDBLK
  5
1D
330
1B
100
AcDbEntity
  8
0
100
AcDbBlockEnd
  0
ENDSEC
  0
SECTION
  2
ENTITIES
  0
LWPOLYLINE
  5
2D
330
17
100
AcDbEntity
  8
0
100
AcDbPolyline
 90
401
 70
0
 10
147.42507794919027
 20
-116.00368068702711
 10
147.43230085902331
 20
-116.15070639362831
 10
147.43237610906385
 20
-116.15193123895887
 10
147.43248139567092
 20
-116.15315386865865
 10
147.4327219890435
 20
-116.15559665328826
 10
147.43285724859305
 20
-116.15681632924205
 10
147.433022399732
 20
-116.15803231841933
 10
147.45462156941625
 20
-116.30364208947371
 10
147.45481651315495
 20
-116.30485366223901
 10
147.45504113171455
 20
-116.30606008593305
 10
147.45552000118423
 20
-116.30846752423979
 10
147.45577415832878
 20
-116.30966806799766
 10
147.4560577016926
 20
-116.310862012858
 10
147.49182511854318
 20
-116.4536535454524
 10
147.49213787912907
 20
-116.4548401787276
 10
147.49247966706324
 20
-116.45601877905085
 10
147.493192198155
 20
-116.4583676777326
 10
147.49359481525082
 20
-116.45963409385055
 10
147.49396416708908
 20
-116.46069716191141
 10
147.49396201119953
 20
-116.46069793330102
 10
147.54355321632315
 20
-116.59929606966747
 10
147.54398077962708
 20
-116.60044632881217
 10
147.5444364429291
 20
-116.60158574859172
 10
147.54537577782884
 20
-116.60385350369278
 10
147.54585926676404
 20
-116.60498139801068
 10
147.54637028999932
 20
-116.60609708721285
 10
147.60930769362483
 20
-116.73916704582102
 10
147.60984594207983
 20
-116.74026985535674
 10
147.61041109266986
 20
-116.74135912349728
 10
147.61156818218967
 20
-116.74352388624456
 10
147.61215989695648
 20
-116.74459896121131
 10
147.6127778172224
 20
-116.74565919094789
 10
147.68845529330932
 20
-116.87191943211117
 10
147.68909904781904
 20
-116.87296417948548
 10
147.6897682479134
 20
-116.873992813618
 10
147.6911319540492
 20
-116.8760337433314
 10
147.6918261917707
 20
-116.87704563771557
 10
147.69254505344892
 20
-116.87804018994959
 10
147.78023378923203
 20
-116.99627476261209
 10
147.7809768414831
 20
-116.99725137314302
 10
147.78174363707126
 20
-116.99820945419539
 10
147.7833008224801
 20
-117.00010689083855
 10
147.7840909058368
 20
-117.00104587262763
 10
147.78490379509165
 20
-117.00196518191729
 10
147.88375930062963
 20
-117.11103542309752
 10
147.88459450264926
 20
-117.11193450247549
 10
147.88545151763142
 20
-117.11281281418655
 10
147.88718718581256
 20
-117.11454848236774
 10
147.8880654975239
 20
-117.1154054973502
 10
147.88896457690214
 20
-117.11624069937011
 10
147.9980348199744
 20
-117.21509620662455
 10
147.99895413024032
 20
-117.21590909672153
 10
147.99989311304637
 20
-117.21669918087193
 10
148.00179054779744
 20
-117.21825636456424
 10
148.00274862787313
 20
-117.21902315930991
 10
148.0037252373878
 20
-117.21976621076792
 10
148.1219598100503
 20
-117.30745494655099
 10
148.12295436169796
 20
-117.30817380781626
 10
148.12396625547586
 20
-117.30886804515382
 10
148.12600718957668
 20
-117.31023175430589
 10
148.1270358243435
 20
-117.31090095484358
 10
148.12808057237274
 20
-117.31154470976476
 10
148.25434080914903
 20
-117.38722218283566
 10
148.25540104290866
 20
-117.38784010537742
 10
148.25647612200777
 20
-117.38843182222129
 10
148.2586408910227
 20
-117.38958891457038
 10
148.2597301550716
 20
-117.39015406284375
 10
148.26083296040946
 20
-117.39069230918687
 10
148.39390291274938
 20
-117.45362970998283
 10
148.39501860542123
 20
-117.45414073475722
 10
148.3961465032822
 20
-117.4546242250603
 10
148.39841426406144
 20
-117.45556356191082
 10
148.39955368031013
 20
-117.45601922365225
 10
148.40070393585376
 20
-117.45644678557147
 10
148.53930207429372
 20
-117.50603799195731
 10
148.54046248012764
 20
-117.50643719778446
 10
148.5416323334719
 20
-117.50680780558902
 10
148.54398123220972
 20
-117.5075203362031
 10
148.54525849207488
 20
-117.50788931798469
 10
148.5463470161944
 20
-117.50817264851706
 10
148.54634645674616
 20
-117.50817488195966
 10
148.68913798712686
 20
-117.54394229830356
 10
148.6903319320236
 20
-117.54422584167595
 10
148.6915324758183
 20
-117.54447999882728
 10
148.6939399141591
 20
-117.54495886830078
 10
148.69499531266214
 20
-117.54515704290402
 10
148.6960547236844
 20
-117.54533250645994
 10
148.69635825644312
 20
-117.54537610350913
 10
148.69635791124247
 20
-117.54537843066285
 10
148.84196768157133
 20
-117.56697760026663
 10
148.84318367162228
 20
-117.56714275151356
 10
148.84440334845448
 20
-117.56727801112814
 10
148.84684613483466
 20
-117.56751860458674
 10
148.84806876366477
 20
-117.56762389108654
 10
148.84929360812197
 20
-117.56769914106268
 10
148.99631931297318
 20
-117.57492205080973
 10
148.99754563526892
 20
-117.57496721893469
 10
148.9987726967006
 20
-117.57498227800001
 10
149.0012273032994
 20
-117.57498227800001
 10
149.00245436473108
 20
-117.57496721893469
 10
149.00368068702682
 20
-117.57492205080973
 10
149.150706393628
 20
-117.56769914097671
 10
149.15193123895855
 20
-117.56762389093616
 10
149.1531538686583
 20
-117.56751860432911
 10
149.1555966532885
 20
-117.56727801095647
 10
149.15681632924233
 20
-117.56714275140693
 10
149.15803231841963
 20
-117.56697760026796
 10
149.30364208947353
 20
-117.54537843058378
 10
149.3048536622392
 20
-117.54518348684503
 10
149.30606008593358
 20
-117.54495886828533
 10
149.30846752424034
 20
-117.54447999881562
 10
149.3096680679955
 20
-117.54422584167168
 10
149.3108620128531
 20
-117.54394229830858
 10
149.45365354516832
 20
-117.50817488154273
 10
149.4548401784458
 20
-117.50786212095632
 10
149.4560187787713
 20
-117.50752033302153
 10
149.45836767773196
 20
-117.50680780184518
 10
149.4596339795379
 20
-117.50640522277098
 10
149.46069716274243
 20
-117.50603583523352
 10
149.460697933301
 20
-117.50603798880047
 10
149.59929606966693
 20
-117.45644678367707
 10
149.60044632881156
 20
-117.45601922037316
 10
149.60158574859105
 20
-117.45556355707116
 10
149.60385350369285
 20
-117.45462422217113
 10
149.60498139801282
 20
-117.45414073323501
 10
149.606097087217
 20
-117.45362970999872
 10
149.73916704605503
 20
-117.39069230625029
 10
149.7402698555887
 20
-117.3901540577962
 10
149.74135912372725
 20
-117.3895889072072
 10
149.74352388624436
 20
-117.38843181781043
 10
149.74459896121115
 20
-117.38784010304359
 10
149.74565919094778
 20
-117.38722218277762
 10
149.8719194321113
 20
-117.31154470669054
 10
149.8729641794855
 20
-117.3109009521809
 10
149.87399281361795
 20
-117.31023175208661
 10
149.8760337433313
 20
-117.30886804595085
 10
149.87704563771555
 20
-117.3081738082293
 10
149.87804018994967
 20
-117.307454946551
 10
149.99627476261236
 20
-117.2197662107678
 10
149.99725137314348
 20
-117.21902315851659
 10
149.99820945419603
 20
-117.21825636292827
 10
150.0001068908388
 20
-117.21669917751973
 10
150.00104587262769
 20
-117.21590909416318
 10
150.00196518191717
 20
-117.21509620490848
 10
150.11103542309755
 20
-117.1162406993704
 10
150.11193450247595
 20
-117.11540549735035
 10
150.11281281418744
 20
-117.11454848236774
 10
150.11454848236858
 20
-117.11281281418655
 10
150.1154054973506
 20
-117.11193450247563
 10
150.11624069937008
 20
-117.11103542309783
 10
150.21509620662448
 20
-117.00196518002566
 10
150.21590909672156
 20
-117.00104586975966
 10
150.216699180872
 20
-117.00010688695352
 10
150.21825636456444
 20
-116.99820945220229
 10
150.21902315931004
 20
-116.9972513721267
 10
150.21976621076797
 20
-116.99627476261209
 10
150.30745494655108
 20
-116.87804018994959
 10
150.30817380781647
 20
-116.87704563830175
 10
150.30886804515413
 20
-116.8760337445237
 10
150.3102317543064
 20
-116.87399281042256
 10
150.31090095484396
 20
-116.87296417565591
 10
150.31154470976503
 20
-116.87191942762684
 10
150.3872221828355
 20
-116.74565919085128
 10
150.38784010361934
 20
-116.74459896019485
 10
150.38843181885863
 20
-116.74352388428332
 10
150.3895889089518
 20
-116.74135912023178
 10
150.39017703975605
 20
-116.7402241398934
 10
150.39069122033672
 20
-116.73916652731829
 10
150.39069230813732
 20
-116.73916704180967
 10
150.45362970998298
 20
-116.60609708725025
 10
150.45414073475723
 20
-116.6049813945787
 10
150.4546242250602
 20
-116.60385349671799
 10
150.4555635619104
 20
-116.60158573593962
 10
150.45601922365196
 20
-116.60044631969065
 10
150.4564467855713
 20
-116.59929606414674
 10
150.50603799195716
 20
-116.46069792570681
 10
150.50643719821616
 20
-116.45953751856563
 10
150.50680780638814
 20
-116.45836766389372
 10
150.50752033763837
 20
-116.45601876259316
 10
150.50786212362513
 20
-116.45484016816631
 10
150.5081748825562
 20
-116.45365354087234
 10
150.54394229830356
 20
-116.3108620128733
 10
150.54422584167608
 20
-116.3096680679761
 10
150.54447999882748
 20
-116.30846752418098
 10
150.54495886830097
 20
-116.30606008584002
 10
150.54515704780357
 20
-116.3050046596061
 10
150.54533251506552
 20
-116.30394522065528
 10
150.54537610368035
 20
-116.30364174358225
 10
150.54537843066285
 20
-116.3036420887575
 10
150.56697760026665
 20
-116.15803231842833
 10
150.56714275151361
 20
-116.15681632837726
 10
150.5672780111282
 20
-116.15559665154494
 10
150.56751860458675
 20
-116.15315386516505
 10
150.56762389108655
 20
-116.15193123633509
 10
150.56769914106266
 20
-116.15070639187802
 10
150.57492205080973
 20
-116.00368068702713
 10
150.5749672189347
 20
-116.00245436473138
 10
150.57498227800002
 20
-116.0012273032997
 10
150.57498227800002
 20
-115.9987726967003
 10
150.5749672189347
 20
-115.99754563526862
 10
150.57492205080973
 20
-115.99631931297289
 10
150.56769914097669
 20
-115.84929360637169
 10
150.56762389093615
 20
-115.84806876104113
 10
150.56751860432908
 20
-115.84684613134135
 10
150.5672780109565
 20
-115.84440334671174
 10
150.56714275140695
 20
-115.84318367075795
 10
150.566977600268
 20
-115.84196768158067
 10
150.54537843058375
 20
-115.69635791052629
 10
150.54518348684505
 20
-115.69514633776099
 10
150.54495886828545
 20
-115.69393991406695
 10
150.54447999881577
 20
-115.69153247576021
 10
150.54422584167122
 20
-115.69033193200234
 10
150.5439422983074
 20
-115.689137987142
 10
150.50817488145682
 20
-115.5463464545476
 10
150.50786212087093
 20
-115.5451598212724
 10
150.50752033293676
 20
-115.54398122094915
 10
150.506807801845
 20
-115.5416323222674
 10
150.50640518474918
 20
-115.54036590614945
 10
150.50603583291092
 20
-115.53930283808859
 10
150.50603798880047
 20
-115.53930206669898
 10
150.45644678367685
 20
-115.40070393033253
 10
150.45601922037292
 20
-115.39955367118783
 10
150.4555635570709
 20
-115.39841425140828
 10
150.45462422217116
 20
-115.39614649630722
 10
150.45414073323596
 20
-115.39501860198932
 10
150.45362971000068
 20
-115.39390291278715
 10
150.39069230637517
 20
-115.26083295417898
 10
150.39015405792017
 20
-115.25973014464326
 10
150.38958890733014
 20
-115.25864087650272
 10
150.38843181781033
 20
-115.25647611375544
 10
150.38784010304352
 20
-115.25540103878869
 10
150.3872221827776
 20
-115.25434080905211
 10
150.31154470669068
 20
-115.12808056788883
 10
150.31090095218096
 20
-115.12703582051452
 10
150.3102317520866
 20
-115.126007186382
 10
150.3088680459508
 20
-115.1239662566686
 10
150.3081738082293
 20
-115.12295436228443
 10
150.30745494655108
 20
-115.12195981005041
 10
150.21976621076797
 20
-115.00372523738791
 10
150.2190231585169
 20
-115.00274862685698
 10
150.21825636292874
 20
-115.00179054580461
 10
150.2166991775199
 20
-114.99989310916145
 10
150.2159090941632
 20
-114.99895412737237
 10
150.21509620490835
 20
-114.99803481808271
 10
150.11624069937037
 20
-114.88896457690248
 10
150.11540549735074
 20
-114.88806549752451
 10
150.11454848236858
 20
-114.88718718581345
 10
150.11281281418744
 20
-114.88545151763226
 10
150.1119345024761
 20
-114.8845945026498
 10
150.11103542309786
 20
-114.88375930062989
 10
150.0019651800256
 20
-114.78490379337545
 10
150.00104586975968
 20
-114.78409090327847
 10
150.00010688695363
 20
-114.78330081912807
 10
149.99820945220256
 20
-114.78174363543576
 10
149.99725137212687
 20
-114.78097684069009
 10
149.9962747626122
 20
-114.78023378923208
 10
149.8780401899497
 20
-114.69254505344901
 10
149.87704563830204
 20
-114.69182619218374
 10
149.87603374452414
 20
-114.69113195484618
 10
149.87399281042332
 20
-114.68976824569411
 10
149.8729641756565
 20
-114.68909904515642
 10
149.87191942762726
 20
-114.68845529023524
 10
149.74565919085097
 20
-114.61277781716434
 10
149.74459895709134
 20
-114.61215989462258
 10
149.74352387799223
 20
-114.61156817777871
 10
149.7413591089773
 20
-114.61041108542962
 10
149.7402698449284
 20
-114.60984593715625
 10
149.73916703959054
 20
-114.60930769081313
 10
149.60609708725062
 20
-114.54637029001717
 10
149.60498139457877
 20
-114.54585926524278
 10
149.6038534967178
 20
-114.5453757749397
 10
149.60158573593856
 20
-114.54443643808918
 10
149.60044631968987
 20
-114.54398077634775
 10
149.59929606414624
 20
-114.54355321442853
 10
149.46069792570663
 20
-114.49396200804279
 10
149.45953751987264
 20
-114.49356280221562
 10
149.45836766652835
 20
-114.49319219441105
 10
149.4560187677902
 20
-114.49247966379687
 10
149.45474150792506
 20
-114.4921106820153
 10
149.4536529838056
 20
-114.49182735148293
 10
149.45365354325384
 20
-114.49182511804034
 10
149.31086201287314
 20
-114.45605770169644
 10
149.3096680679764
 20
-114.45577415832405
 10
149.3084675241817
 20
-114.45552000117272
 10
149.3060600858409
 20
-114.45504113169922
 10
149.30500468733786
 20
-114.45484295709598
 10
149.3039452763156
 20
-114.45466749354006
 10
149.30364174355688
 20
-114.45462389649087
 10
149.30364208875753
 20
-114.45462156933715
 10
149.15803231842867
 20
-114.43302239973337
 10
149.15681632837772
 20
-114.43285724848644
 10
149.15559665154552
 20
-114.43272198887186
 10
149.15315386516534
 20
-114.43248139541326
 10
149.15193123633523
 20
-114.43237610891346
 10
149.15070639187803
 20
-114.43230085893732
 10
149.00368068702682
 20
-114.42507794919027
 10
149.00245436473108
 20
-114.42503278106531
 10
149.0012273032994
 20
-114.42501772199999
 10
148.9987726967006
 20
-114.42501772199999
 10
148.99754563526892
 20
-114.42503278106531
 10
148.99631931297318
 20
-114.42507794919027
 10
148.849293606372
 20
-114.43230085902329
 10
148.84806876104145
 20
-114.43237610906384
 10
148.8468461313417
 20
-114.43248139567089
 10
148.8444033467115
 20
-114.43272198904353
 10
148.84318367075767
 20
-114.43285724859307
 10
148.84196768158037
 20
-114.43302239973204
 10
148.69635791052647
 20
-114.45462156941622
 10
148.6951463377608
 20
-114.45481651315497
 10
148.69393991406642
 20
-114.45504113171467
 10
148.69153247575966
 20
-114.45552000118438
 10
148.6903319320045
 20
-114.45577415832832
 10
148.6891379871469
 20
-114.45605770169142
 10
148.54634645483168
 20
-114.49182511845727
 10
148.5451598215542
 20
-114.49213787904368
 10
148.5439812212287
 20
-114.49247966697847
 10
148.54163232226804
 20
-114.49319219815482
 10
148.5403660204621
 20
-114.49359477722902
 10
148.53930283725757
 20
-114.49396416476648
 10
148.539302066699
 20
-114.49396201119953
 10
148.40070393033307
 20
-114.54355321632293
 10
148.39955367118844
 20
-114.54398077962684
 10
148.39841425140895
 20
-114.54443644292884
 10
148.39614649630715
 20
-114.54537577782887
 10
148.39501860198718
 20
-114.54585926676499
 10
148.393902912783
 20
-114.54637029000128
 10
148.26083295394497
 20
-114.60930769374971
 10
148.2597301444113
 20
-114.6098459422038
 10
148.25864087627275
 20
-114.6104110927928
 10
148.25647611375564
 20
-114.61156818218957
 10
148.25540103878885
 20
-114.61215989695641
 10
148.25434080905222
 20
-114.61277781722238
 10
148.1280805678887
 20
-114.68845529330946
 10
148.1270358205145
 20
-114.6890990478191
 10
148.12600718638205
 20
-114.68976824791339
 10
148.1239662566687
 20
-114.69113195404915
 10
148.12295436228445
 20
-114.6918261917707
 10
148.12195981005033
 20
-114.692545053449
 10
148.00372523738764
 20
-114.7802337892322
 10
148.00274862685652
 20
-114.78097684148341
 10
148.00179054580397
 20
-114.78174363707173
 10
147.9998931091612
 20
-114.78330082248027
 10
147.99895412737231
 20
-114.78409090583682
 10
147.99803481808283
 20
-114.78490379509152
 10
147.88896457690245
 20
-114.8837593006296
 10
147.88806549752405
 20
-114.88459450264965
 10
147.88718718581256
 20
-114.88545151763226
 10
147.88545151763142
 20
-114.88718718581345
 10
147.8845945026494
 20
-114.88806549752437
 10
147.88375930062992
 20
-114.88896457690217
 10
147.78490379337552
 20
-114.99803481997434
 10
147.78409090327844
 20
-114.99895413024034
 10
147.783300819128
 20
-114.99989311304648
 10
147.78174363543556
 20
-115.00179054779771
 10
147.78097684068996
 20
-115.0027486278733
 10
147.78023378923203
 20
-115.00372523738791
 10
147.69254505344892
 20
-115.12195981005041
 10
147.69182619218353
 20
-115.12295436169825
 10
147.69113195484587
 20
-115.1239662554763
 10
147.6897682456936
 20
-115.12600718957744
 10
147.68909904515604
 20
-115.12703582434409
 10
147.68845529023497
 20
-115.12808057237316
 10
147.6127778171645
 20
-115.25434080914872
 10
147.61215989638066
 20
-115.25540103980515
 10
147.61156818114137
 20
-115.25647611571668
 10
147.6104110910482
 20
-115.25864087976822
 10
147.60982296024395
 20
-115.2597758601066
 10
147.60930877966328
 20
-115.26083347268171
 10
147.60930769186268
 20
-115.26083295819033
 10
147.54637029001702
 20
-115.39390291274975
 10
147.54585926524277
 20
-115.3950186054213
 10
147.5453757749398
 20
-115.39614650328201
 10
147.5444364380896
 20
-115.39841426406038
 10
147.54398077634804
 20
-115.39955368030935
 10
147.5435532144287
 20
-115.40070393585326
 10
147.49396200804284
 20
-115.53930207429319
 10
147.49356280178384
 20
-115.54046248143437
 10
147.49319219361186
 20
-115.54163233610628
 10
147.49247966236163
 20
-115.54398123740684
 10
147.49213787637487
 20
-115.54515983183369
 10
147.4918251174438
 20
-115.54634645912766
 10
147.45605770169644
 20
-115.6891379871267
 10
147.45577415832392
 20
-115.6903319320239
 10
147.45552000117252
 20
-115.69153247581902
 10
147.45504113169903
 20
-115.69393991415998
 10
147.45484295219643
 20
-115.6949953403939
 10
147.45466748493448
 20
-115.69605477934472
 10
147.45462389631965
 20
-115.69635825641775
 10
147.45462156933715
 20
-115.6963579112425
 10
147.43302239973335
 20
-115.84196768157167
 10
147.43285724848639
 20
-115.84318367162274
 10
147.4327219888718
 20
-115.84440334845506
 10
147.43248139541325
 20
-115.84684613483495
 10
147.43237610891345
 20
-115.84806876366491
 10
147.43230085893734
 20
-115.84929360812198
 10
147.42507794919027
 20
-115.99631931297287
 10
147.4250327810653
 20
-115.99754563526862
 10
147.42501772199998
 20
-115.9987726967003
 10
147.42501772199998
 20
-116.0012273032997
 10
147.4250327810653
 20
-116.00245436473138
 10
147.42507794919027
 20
-116.00368068702711
  0
LWPOLYLINE
  5
2E
330
17
100
AcDbEntity
  8
0
100
AcDbPolyline
 90
405
 70
0
 10
67.42507794919027
 20
-116.00368068702683
 10
67.43230085902329
 20
-116.15070639362803
 10
67.43237610906384
 20
-116.1519312389586
 10
67.4324813956709
 20
-116.15315386865838
 10
67.43272198904354
 20
-116.15559665328855
 10
67.43285724859308
 20
-116.15681632924235
 10
67.43302239973204
 20
-116.15803231841963
 10
67.45462156941622
 20
-116.30364208947353
 10
67.454816513155
 20
-116.30485366223927
 10
67.4550411317147
 20
-116.30606008593375
 10
67.45552000118445
 20
-116.30846752424068
 10
67.4557741583284
 20
-116.30966806799573
 10
67.45605770169146
 20
-116.31086201285328
 10
67.49182511845727
 20
-116.45365354516835
 10
67.49213788071316
 20
-116.45484018447851
 10
67.49247967061251
 20
-116.45601879075112
 10
67.493192204884
 20
-116.45836769779793
 10
67.49356280970431
 20
-116.45953754037494
 10
67.49396201202472
 20
-116.46069793560727
 10
67.54355321619595
 20
-116.59929606935968
 10
67.54398077950076
 20
-116.60044632850703
 10
67.54443644280379
 20
-116.60158574828918
 10
67.54537577782898
 20
-116.60385350369313
 10
67.54585926676418
 20
-116.60498139801098
 10
67.54637028999942
 20
-116.6060970872131
 10
67.60930769362483
 20
-116.73916704582102
 10
67.60984594207987
 20
-116.74026985535679
 10
67.6104110926699
 20
-116.74135912349738
 10
67.61156818218961
 20
-116.74352388624446
 10
67.6121598969564
 20
-116.74459896121115
 10
67.61277781722231
 20
-116.74565919094768
 10
67.68845529330937
 20
-116.87191943211117
 10
67.68909904781896
 20
-116.87296417948527
 10
67.68976824791316
 20
-116.8739928136176
 10
67.6911319540492
 20
-116.87603374333139
 10
67.69182619177083
 20
-116.87704563771575
 10
67.6925450534492
 20
-116.87804018994997
 10
67.780233789232
 20
-116.99627476261207
 10
67.78097684148322
 20
-116.9972513731432
 10
67.78174363707154
 20
-116.99820945419576
 10
67.78330082248043
 20
-117.00010689083894
 10
67.78409090583696
 20
-117.00104587262781
 10
67.78490379509165
 20
-117.00196518191729
 10
67.8837593006296
 20
-117.11103542309752
 10
67.88459450264945
 20
-117.1119345024757
 10
67.88545151763184
 20
-117.11281281418698
 10
67.88718718581302
 20
-117.11454848236816
 10
67.88806549752415
 20
-117.11540549735041
 10
67.88896457690217
 20
-117.11624069937011
 10
67.99803481997435
 20
-117.21509620662448
 10
67.99895413024008
 20
-117.2159090967213
 10
67.99989311304596
 20
-117.21669918087154
 10
68.00179054779736
 20
-117.21825636456416
 10
68.00274862787322
 20
-117.21902315931
 10
68.0037252373881
 20
-117.21976621076814
 10
68.12195981005003
 20
-117.3074549465508
 10
68.12295436169777
 20
-117.30817380781613
 10
68.12396625547572
 20
-117.30886804515373
 10
68.12600718957711
 20
-117.31023175430617
 10
68.12703582434386
 20
-117.3109009548438
 10
68.12808057237304
 20
-117.31154470976495
 10
68.25434080914893
 20
-117.3872221828356
 10
68.25540103980521
 20
-117.38784010361935
 10
68.25647611571657
 20
-117.38843181885858
 10
68.25864087976773
 20
-117.38958890895155
 10
68.25977581326563
 20
-117.3901770162383
 10
68.26083347217752
 20
-117.39069122140272
 10
68.26083295819033
 20
-117.39069230813732
 10
68.39390291274941
 20
-117.45362970998285
 10
68.39501860197007
 20
-117.45414073322742
 10
68.39614649630687
 20
-117.45462422217102
 10
68.39841425171082
 20
-117.45556355719621
 10
68.39961732565571
 20
-117.45604372475445
 10
68.40070446614826
 20
-117.45644529621057
 10
68.40070393354233
 20
-117.45644678474443
 10
68.53930207429566
 20
-117.50603799195791
 10
68.54046248012969
 20
-117.50643719778509
 10
68.54163233347404
 20
-117.50680780558967
 10
68.54398123221006
 20
-117.5075203362032
 10
68.54525801000264
 20
-117.50788918563644
 10
68.54634701370918
 20
-117.5081726584386
 10
68.54634645674615
 20
-117.50817488195966
 10
68.68913798712671
 20
-117.54394229830352
 10
68.69033193202341
 20
-117.54422584167591
 10
68.69153247581802
 20
-117.54447999882723
 10
68.69393991415902
 20
-117.54495886830077
 10
68.69499528492985
 20
-117.54515703800436
 10
68.69605466802226
 20
-117.545332497854
 10
68.69635825646854
 20
-117.54537610333801
 10
68.6963579112425
 20
-117.54537843066285
 10
68.84196768157139
 20
-117.56697760026663
 10
68.84318367162231
 20
-117.56714275151356
 10
68.84440334845449
 20
-117.56727801112814
 10
68.84684613483466
 20
-117.56751860458674
 10
68.84806876366478
 20
-117.56762389108654
 10
68.849293608122
 20
-117.56769914106268
 10
68.99631931297317
 20
-117.57492205080973
 10
68.9975456352689
 20
-117.57496721893469
 10
68.99877269670058
 20
-117.57498227800001
 10
69.00122730329942
 20
-117.57498227800001
 10
69.0024543647311
 20
-117.57496721893469
 10
69.00368068702683
 20
-117.57492205080973
 10
69.15070639362803
 20
-117.56769914097671
 10
69.1519312389586
 20
-117.56762389093616
 10
69.15315386865838
 20
-117.5675186043291
 10
69.15559665328855
 20
-117.56727801095646
 10
69.15681632924235
 20
-117.56714275140692
 10
69.15803231841963
 20
-117.56697760026796
 10
69.30364208947353
 20
-117.54537843058378
 10
69.30485366223927
 20
-117.545183486845
 10
69.30606008593375
 20
-117.5449588682853
 10
69.30846752424068
 20
-117.54447999881555
 10
69.30966806799573
 20
-117.5442258416716
 10
69.31086201285328
 20
-117.54394229830854
 10
69.45365354516835
 20
-117.50817488154273
 10
69.45484018447851
 20
-117.50786211928684
 10
69.45601879075112
 20
-117.50752032938749
 10
69.45836769779793
 20
-117.506807795116
 10
69.45953754037494
 20
-117.50643719029569
 10
69.46069793560727
 20
-117.50603798797528
 10
69.59929606935968
 20
-117.45644678380405
 10
69.60044632850703
 20
-117.45601922049924
 10
69.60158574828918
 20
-117.45556355719621
 10
69.60385350369313
 20
-117.45462422217102
 10
69.60498139801098
 20
-117.45414073323582
 10
69.6060970872131
 20
-117.45362971000058
 10
69.73916704582102
 20
-117.39069230637517
 10
69.74026985535679
 20
-117.39015405792013
 10
69.74135912349738
 20
-117.3895889073301
 10
69.74352388624446
 20
-117.38843181781039
 10
69.74459896121115
 20
-117.3878401030436
 10
69.74565919094768
 20
-117.38722218277769
 10
69.87191943211117
 20
-117.31154470669063
 10
69.87296417948527
 20
-117.31090095218104
 10
69.8739928136176
 20
-117.31023175208684
 10
69.87603374333139
 20
-117.3088680459508
 10
69.87704563771575
 20
-117.30817380822917
 10
69.87804018994997
 20
-117.3074549465508
 10
69.99627476261207
 20
-117.219766210768
 10
69.9972513731432
 20
-117.21902315851678
 10
69.99820945419576
 20
-117.21825636292846
 10
70.00010689083894
 20
-117.21669917751957
 10
70.00104587262781
 20
-117.21590909416304
 10
70.00196518191729
 20
-117.21509620490835
 10
70.11103542309752
 20
-117.1162406993704
 10
70.1119345024757
 20
-117.11540549735055
 10
70.11281281418698
 20
-117.11454848236816
 10
70.11454848236816
 20
-117.11281281418698
 10
70.11540549735041
 20
-117.11193450247585
 10
70.11624069937011
 20
-117.11103542309783
 10
70.21509620662448
 20
-117.00196518002565
 10
70.2159090967213
 20
-117.00104586975992
 10
70.21669918087154
 20
-117.00010688695404
 10
70.21825636456416
 20
-116.99820945220264
 10
70.21902315931
 20
-116.99725137212678
 10
70.21976621076814
 20
-116.9962747626119
 10
70.3074549465508
 20
-116.87804018994997
 10
70.30817380781613
 20
-116.87704563830223
 10
70.30886804515373
 20
-116.87603374452428
 10
70.31023175430617
 20
-116.87399281042289
 10
70.3109009548438
 20
-116.87296417565614
 10
70.31154470976495
 20
-116.87191942762696
 10
70.3872221828356
 20
-116.74565919085107
 10
70.38784010361935
 20
-116.74459896019479
 10
70.38843181885858
 20
-116.74352388428343
 10
70.38958890895155
 20
-116.74135912023227
 10
70.3901770162383
 20
-116.74022418673437
 10
70.39069122140272
 20
-116.73916652782248
 10
70.39069230813732
 20
-116.73916704180967
 10
70.45362970998285
 20
-116.60609708725059
 10
70.45414073322742
 20
-116.60498139802993
 10
70.45462422217102
 20
-116.60385350369313
 10
70.45556355719621
 20
-116.60158574828918
 10
70.45604372475445
 20
-116.60038267434429
 10
70.45644529621057
 20
-116.59929553385174
 10
70.45644678474443
 20
-116.59929606645767
 10
70.50603799195791
 20
-116.46069792570434
 10
70.50643719778509
 20
-116.45953751987031
 10
70.50680780558967
 20
-116.45836766652596
 10
70.5075203362032
 20
-116.45601876778994
 10
70.50788918563644
 20
-116.45474198999736
 10
70.5081726584386
 20
-116.45365298629082
 10
70.50817488195966
 20
-116.45365354325385
 10
70.54394229830352
 20
-116.31086201287329
 10
70.54422584167591
 20
-116.30966806797659
 10
70.54447999882723
 20
-116.30846752418198
 10
70.54495886830077
 20
-116.30606008584098
 10
70.54515703800436
 20
-116.30500471507015
 10
70.545332497854
 20
-116.30394533197774
 10
70.54537610333801
 20
-116.30364174353146
 10
70.54537843066285
 20
-116.3036420887575
 10
70.56697760026663
 20
-116.15803231842861
 10
70.56714275151356
 20
-116.15681632837769
 10
70.56727801112814
 20
-116.15559665154551
 10
70.56751860458674
 20
-116.15315386516534
 10
70.56762389108654
 20
-116.15193123633522
 10
70.56769914106268
 20
-116.150706391878
 10
70.57492205080973
 20
-116.00368068702683
 10
70.57496721893469
 20
-116.0024543647311
 10
70.57498227800001
 20
-116.00122730329942
 10
70.57498227800001
 20
-115.99877269670058
 10
70.57496721893469
 20
-115.9975456352689
 10
70.57492205080973
 20
-115.99631931297317
 10
70.56769914097671
 20
-115.84929360637197
 10
70.56762389093616
 20
-115.8480687610414
 10
70.5675186043291
 20
-115.84684613134162
 10
70.56727801095646
 20
-115.84440334671145
 10
70.56714275140692
 20
-115.84318367075765
 10
70.56697760026796
 20
-115.84196768158037
 10
70.54537843058378
 20
-115.69635791052647
 10
70.545183486845
 20
-115.69514633776073
 10
70.5449588682853
 20
-115.69393991406625
 10
70.54447999881555
 20
-115.69153247575932
 10
70.5442258416716
 20
-115.69033193200427
 10
70.54394229830854
 20
-115.68913798714672
 10
70.50817488154273
 20
-115.54634645483165
 10
70.50786211928684
 20
-115.54515981552149
 10
70.50752032938749
 20
-115.54398120924888
 10
70.506807795116
 20
-115.54163230220207
 10
70.50643719029569
 20
-115.54046245962506
 10
70.50603798797528
 20
-115.53930206439273
 10
70.45644678380405
 20
-115.40070393064032
 10
70.45601922049924
 20
-115.39955367149297
 10
70.45556355719621
 20
-115.39841425171082
 10
70.45462422217102
 20
-115.39614649630687
 10
70.45414073323582
 20
-115.39501860198902
 10
70.45362971000058
 20
-115.3939029127869
 10
70.39069230637517
 20
-115.26083295417898
 10
70.39015405792013
 20
-115.25973014464321
 10
70.3895889073301
 20
-115.25864087650262
 10
70.38843181781039
 20
-115.25647611375554
 10
70.3878401030436
 20
-115.25540103878885
 10
70.38722218277769
 20
-115.25434080905232
 10
70.31154470669063
 20
-115.12808056788883
 10
70.31090095218104
 20
-115.12703582051473
 10
70.31023175208684
 20
-115.1260071863824
 10
70.3088680459508
 20
-115.12396625666861
 10
70.30817380822917
 20
-115.12295436228425
 10
70.3074549465508
 20
-115.12195981005003
 10
70.219766210768
 20
-115.00372523738793
 10
70.21902315851678
 20
-115.0027486268568
 10
70.21825636292846
 20
-115.00179054580424
 10
70.21669917751957
 20
-114.99989310916106
 10
70.21590909416304
 20
-114.99895412737219
 10
70.21509620490835
 20
-114.99803481808271
 10
70.1162406993704
 20
-114.88896457690248
 10
70.11540549735055
 20
-114.8880654975243
 10
70.11454848236816
 20
-114.88718718581302
 10
70.11281281418698
 20
-114.88545151763184
 10
70.11193450247585
 20
-114.88459450264959
 10
70.11103542309783
 20
-114.88375930062989
 10
70.00196518002565
 20
-114.78490379337552
 10
70.00104586975992
 20
-114.7840909032787
 10
70.00010688695404
 20
-114.78330081912846
 10
69.99820945220264
 20
-114.78174363543584
 10
69.99725137212678
 20
-114.78097684069
 10
69.9962747626119
 20
-114.78023378923186
 10
69.87804018994997
 20
-114.6925450534492
 10
69.87704563830223
 20
-114.69182619218387
 10
69.87603374452428
 20
-114.69113195484627
 10
69.87399281042289
 20
-114.68976824569383
 10
69.87296417565614
 20
-114.6890990451562
 10
69.87191942762696
 20
-114.68845529023505
 10
69.74565919085107
 20
-114.6127778171644
 10
69.74459896019479
 20
-114.61215989638065
 10
69.74352388428343
 20
-114.61156818114142
 10
69.74135912023227
 20
-114.61041109104845
 10
69.74022418673437
 20
-114.6098229837617
 10
69.73916652782248
 20
-114.60930877859728
 10
69.73916704180967
 20
-114.60930769186268
 10
69.60609708725059
 20
-114.54637029001715
 10
69.60498139802993
 20
-114.54585926677258
 10
69.60385350369313
 20
-114.54537577782898
 10
69.60158574828918
 20
-114.54443644280379
 10
69.60038267434429
 20
-114.54395627524555
 10
69.59929553385174
 20
-114.54355470378943
 10
69.59929606645767
 20
-114.54355321525557
 10
69.46069792570434
 20
-114.49396200804209
 10
69.45953751987031
 20
-114.49356280221491
 10
69.45836766652596
 20
-114.49319219441033
 10
69.45601876778994
 20
-114.4924796637968
 10
69.45474198999736
 20
-114.49211081436356
 10
69.45365298629082
 20
-114.4918273415614
 10
69.45365354325385
 20
-114.49182511804034
 10
69.31086201287329
 20
-114.45605770169648
 10
69.30966806797659
 20
-114.45577415832409
 10
69.30846752418198
 20
-114.45552000117277
 10
69.30606008584098
 20
-114.45504113169923
 10
69.30500471507015
 20
-114.45484296199564
 10
69.30394533197774
 20
-114.454667502146
 10
69.30364174353146
 20
-114.45462389666199
 10
69.3036420887575
 20
-114.45462156933715
 10
69.15803231842861
 20
-114.43302239973337
 10
69.15681632837769
 20
-114.43285724848644
 10
69.15559665154551
 20
-114.43272198887186
 10
69.15315386516534
 20
-114.43248139541326
 10
69.15193123633522
 20
-114.43237610891346
 10
69.150706391878
 20
-114.43230085893732
 10
69.00368068702683
 20
-114.42507794919027
 10
69.0024543647311
 20
-114.42503278106531
 10
69.00122730329942
 20
-114.42501772199999
 10
68.99877269670058
 20
-114.42501772199999
 10
68.9975456352689
 20
-114.42503278106531
 10
68.99631931297317
 20
-114.42507794919027
 10
68.84929360637197
 20
-114.43230085902329
 10
68.8480687610414
 20
-114.43237610906384
 10
68.84684613134162
 20
-114.4324813956709
 10
68.84440334671145
 20
-114.43272198904354
 10
68.84318367075765
 20
-114.43285724859308
 10
68.84196768158037
 20
-114.43302239973204
 10
68.69635791052647
 20
-114.45462156941622
 10
68.69514633776073
 20
-114.454816513155
 10
68.69393991406625
 20
-114.4550411317147
 10
68.69153247575932
 20
-114.45552000118445
 10
68.69033193200427
 20
-114.4557741583284
 10
68.68913798714672
 20
-114.45605770169146
 10
68.54634645483165
 20
-114.49182511845727
 10
68.54515981552149
 20
-114.49213788071316
 10
68.54398120924888
 20
-114.49247967061251
 10
68.54163230220207
 20
-114.493192204884
 10
68.54046245962506
 20
-114.49356280970431
 10
68.53930206439273
 20
-114.49396201202472
 10
68.40070393064032
 20
-114.54355321619595
 10
68.39955367149297
 20
-114.54398077950076
 10
68.39841425171082
 20
-114.54443644280379
 10
68.39614649630687
 20
-114.54537577782898
 10
68.39501860198902
 20
-114.54585926676418
 10
68.3939029127869
 20
-114.54637028999942
 10
68.26083295417898
 20
-114.60930769362483
 10
68.25973014464321
 20
-114.60984594207987
 10
68.25864087650262
 20
-114.6104110926699
 10
68.25647611375554
 20
-114.61156818218961
 10
68.25540103878885
 20
-114.6121598969564
 10
68.25434080905232
 20
-114.61277781722231
 10
68.12808056788883
 20
-114.68845529330937
 10
68.12703582051473
 20
-114.68909904781896
 10
68.1260071863824
 20
-114.68976824791316
 10
68.12396625666861
 20
-114.6911319540492
 10
68.12295436228425
 20
-114.69182619177083
 10
68.12195981005003
 20
-114.6925450534492
 10
68.00372523738793
 20
-114.780233789232
 10
68.0027486268568
 20
-114.78097684148322
 10
68.00179054580424
 20
-114.78174363707154
 10
67.99989310916106
 20
-114.78330082248043
 10
67.99895412737219
 20
-114.78409090583696
 10
67.99803481808271
 20
-114.78490379509165
 10
67.88896457690248
 20
-114.8837593006296
 10
67.8880654975243
 20
-114.88459450264945
 10
67.88718718581302
 20
-114.88545151763184
 10
67.88545151763184
 20
-114.88718718581302
 10
67.88459450264959
 20
-114.88806549752415
 10
67.88375930062989
 20
-114.88896457690217
 10
67.78490379337552
 20
-114.99803481997435
 10
67.7840909032787
 20
-114.99895413024008
 10
67.78330081912846
 20
-114.99989311304596
 10
67.78174363543584
 20
-115.00179054779736
 10
67.78097684069
 20
-115.00274862787322
 10
67.78023378923186
 20
-115.0037252373881
 10
67.6925450534492
 20
-115.12195981005003
 10
67.69182619218387
 20
-115.12295436169777
 10
67.69113195484627
 20
-115.12396625547572
 10
67.68976824569383
 20
-115.12600718957711
 10
67.6890990451562
 20
-115.12703582434386
 10
67.68845529023505
 20
-115.12808057237304
 10
67.6127778171644
 20
-115.25434080914893
 10
67.61215989638065
 20
-115.25540103980521
 10
67.61156818114142
 20
-115.25647611571657
 10
67.61041109104845
 20
-115.25864087976773
 10
67.6098229837617
 20
-115.25977581326563
 10
67.60930877859728
 20
-115.26083347217752
 10
67.60930769186268
 20
-115.26083295819033
 10
67.54637029001715
 20
-115.39390291274941
 10
67.54585926677258
 20
-115.39501860197007
 10
67.54537577782898
 20
-115.39614649630687
 10
67.54443644280379
 20
-115.39841425171082
 10
67.54395627524555
 20
-115.39961732565571
 10
67.54355470378943
 20
-115.40070446614826
 10
67.54355321525557
 20
-115.40070393354233
 10
67.49396200804209
 20
-115.53930207429566
 10
67.49356280221491
 20
-115.54046248012969
 10
67.49319219441033
 20
-115.54163233347404
 10
67.4924796637968
 20
-115.54398123221006
 10
67.49211081436356
 20
-115.54525801000264
 10
67.4918273415614
 20
-115.54634701370918
 10
67.49182511804034
 20
-115.54634645674615
 10
67.45605770169648
 20
-115.68913798712671
 10
67.45577415832409
 20
-115.69033193202341
 10
67.45552000117277
 20
-115.69153247581802
 10
67.45504113169923
 20
-115.69393991415902
 10
67.45484296199564
 20
-115.69499528492985
 10
67.454667502146
 20
-115.69605466802226
 10
67.45462389666199
 20
-115.69635825646854
 10
67.45462156933715
 20
-115.6963579112425
 10
67.43302239973337
 20
-115.84196768157139
 10
67.43285724848644
 20
-115.84318367162231
 10
67.43272198887186
 20
-115.84440334845449
 10
67.43248139541326
 20
-115.84684613483466
 10
67.43237610891346
 20
-115.84806876366478
 10
67.43230085893732
 20
-115.849293608122
 10
67.42507794919027
 20
-115.99631931297317
 10
67.42503278106531
 20
-115.9975456352689
 10
67.42501772199999
 20
-115.99877269670058
 10
67.42501772199999
 20
-116.00122730329942
 10
67.42503278106531
 20
-116.0024543647311
 10
67.42507794919027
 20
-116.00368068702683
  0
LWPOLYLINE
  5
2F
330
17
100
AcDbEntity
  8
0
100
AcDbPolyline
 90
401
 70
0
 10
147.42507794919027
 20
-41.00368068702711
 10
147.43230085902331
 20
-41.15070639362832
 10
147.43237610906388
 20
-41.151931238958895
 10
147.43248139567092
 20
-41.153153868658684
 10
147.4327219890435
 20
-41.15559665328827
 10
147.43285724859305
 20
-41.15681632924204
 10
147.433022399732
 20
-41.15803231841931
 10
147.45462156941625
 20
-41.303642089473726
 10
147.45481651315495
 20
-41.30485366223916
 10
147.4550411317146
 20
-41.30606008593334
 10
147.45552000118428
 20
-41.30846752424
 10
147.4557741583288
 20
-41.30966806799774
 10
147.4560577016926
 20
-41.31086201285794
 10
147.4918251185432
 20
-41.45365354545253
 10
147.49213787912913
 20
-41.45484017872785
 10
147.49247966706335
 20
-41.45601877905121
 10
147.49319219815507
 20
-41.458367677732824
 10
147.4935948108458
 20
-41.459634080606875
 10
147.49396416682004
 20
-41.460697162007705
 10
147.49396201119953
 20
-41.460697933301034
 10
147.54355321632315
 20
-41.59929606966746
 10
147.54398077962708
 20
-41.600446328812104
 10
147.54443644292905
 20
-41.6015857485916
 10
147.54537577782878
 20
-41.603853503692676
 10
147.54585926676404
 20
-41.60498139801063
 10
147.54637028999932
 20
-41.60609708721285
 10
147.60930769362486
 20
-41.739167045821084
 10
147.60984594207997
 20
-41.74026985535698
 10
147.61041109267006
 20
-41.7413591234977
 10
147.61156818218987
 20
-41.743523886244944
 10
147.6121598969566
 20
-41.744598961211494
 10
147.61277781722242
 20
-41.7456591909479
 10
147.68845529330937
 20
-41.87191943211122
 10
147.68909904781907
 20
-41.872964179485464
 10
147.68976824791338
 20
-41.87399281361793
 10
147.69113195404913
 20
-41.87603374333126
 10
147.69182619177064
 20
-41.87704563771549
 10
147.69254505344892
 20
-41.87804018994957
 10
147.78023378923197
 20
-41.99627476261201
 10
147.780976841483
 20
-41.9972513731429
 10
147.78174363707114
 20
-41.998209454195226
 10
147.78330082248004
 20
-42.00010689083847
 10
147.78409090583676
 20
-42.001045872627586
 10
147.78490379509165
 20
-42.001965181917285
 10
147.88375930062963
 20
-42.11103542309753
 10
147.88459450264943
 20
-42.11193450247568
 10
147.88545151763176
 20
-42.11281281418693
 10
147.88718718581285
 20
-42.11454848236802
 10
147.88806549752402
 20
-42.115405497350295
 10
147.88896457690208
 20
-42.11624069937003
 10
147.9980348199743
 20
-42.21509620662444
 10
147.99895413024012
 20
-42.215909096721354
 10
147.9998931130461
 20
-42.21669918087168
 10
148.0017905477973
 20
-42.2182563645641
 10
148.00274862787305
 20
-42.21902315930985
 10
148.0037252373878
 20
-42.21976621076791
 10
148.12195981005038
 20
-42.30745494655107
 10
148.1229543616982
 20
-42.30817380781644
 10
148.12396625547623
 20
-42.30886804515409
 10
148.12600718957697
 20
-42.31023175430609
 10
148.12703582434364
 20
-42.31090095484367
 10
148.12808057237274
 20
-42.31154470976475
 10
148.2543408091489
 20
-42.3872221828356
 10
148.25540104290852
 20
-42.38784010537736
 10
148.2564761220076
 20
-42.38843182222121
 10
148.25864089102265
 20
-42.38958891457036
 10
148.25973015507157
 20
-42.39015406284374
 10
148.26083296040946
 20
-42.39069230918688
 10
148.39390291274938
 20
-42.45362970998283
 10
148.3950186054211
 20
-42.45414073475715
 10
148.39614650328195
 20
-42.4546242250602
 10
148.39841426406093
 20
-42.45556356191063
 10
148.39955368030977
 20
-42.45601922365211
 10
148.4007039358535
 20
-42.45644678557138
 10
148.53930207429363
 20
-42.506037991957285
 10
148.5404624801276
 20
-42.50643719778444
 10
148.54163233347185
 20
-42.506807805589006
 10
148.54398123220983
 20
-42.507520336203136
 10
148.54525811951183
 20
-42.50788921570159
 10
148.54634701427398
 20
-42.50817265618393
 10
148.54634645674616
 20
-42.50817488195967
 10
148.68913798712686
 20
-42.54394229830357
 10
148.6903319320236
 20
-42.54422584167597
 10
148.69153247581832
 20
-42.5444799988273
 10
148.6939399141591
 20
-42.54495886830079
 10
148.694995243089
 20
-42.54515703061201
 10
148.6960545840423
 20
-42.545332484869725
 10
148.69635825650678
 20
-42.54537610308002
 10
148.69635791124247
 20
-42.54537843066285
 10
148.84196768157133
 20
-42.56697760026662
 10
148.8431836716222
 20
-42.56714275151356
 10
148.84440334845434
 20
-42.567278011128124
 10
148.84684613483452
 20
-42.56751860458673
 10
148.84806876366468
 20
-42.56762389108655
 10
148.84929360812197
 20
-42.567699141062675
 10
148.99631931297287
 20
-42.57492205080971
 10
148.9975456352686
 20
-42.574967218934674
 10
148.99877269670029
 20
-42.57498227799999
 10
149.00122730329971
 20
-42.57498227799999
 10
149.0024543647314
 20
-42.574967218934674
 10
149.00368068702713
 20
-42.57492205080971
 10
149.150706393628
 20
-42.5676991409767
 10
149.15193123895847
 20
-42.56762389093616
 10
149.15315386865817
 20
-42.56751860432911
 10
149.15559665328837
 20
-42.56727801095648
 10
149.15681632924225
 20
-42.567142751406934
 10
149.15803231841963
 20
-42.56697760026796
 10
149.30364208947356
 20
-42.54537843058378
 10
149.3048536622392
 20
-42.54518348684503
 10
149.30606008593358
 20
-42.54495886828534
 10
149.3084675242403
 20
-42.54447999881563
 10
149.30966806799546
 20
-42.54422584167168
 10
149.3108620128531
 20
-42.543942298308586
 10
149.4536535451686
 20
-42.508174881542665
 10
149.45484017844632
 20
-42.50786212095619
 10
149.45601877877203
 20
-42.507520333021326
 10
149.4583676777325
 20
-42.506807801845014
 10
149.45963399156113
 20
-42.50640521877191
 10
149.460697162655
 20
-42.506035834989206
 10
149.460697933301
 20
-42.50603798880047
 10
149.59929606966676
 20
-42.45644678367712
 10
149.60044632881142
 20
-42.456019220373214
 10
149.6015857485909
 20
-42.455563557071216
 10
149.60385350369313
 20
-42.45462422217101
 10
149.60498139801308
 20
-42.45414073323489
 10
149.60609708721725
 20
-42.45362970999861
 10
149.73916704605514
 20
-42.39069230625026
 10
149.7402698555889
 20
-42.39015405779612
 10
149.74135912372753
 20
-42.38958890720707
 10
149.74352388624453
 20
-42.38843181781035
 10
149.74459896121124
 20
-42.38784010304355
 10
149.74565919094778
 20
-42.387222182777634
 10
149.8719194321113
 20
-42.31154470669056
 10
149.8729641794855
 20
-42.310900952180916
 10
149.87399281361795
 20
-42.31023175208663
 10
149.87603374333122
 20
-42.30886804595092
 10
149.8770456377155
 20
-42.30817380822937
 10
149.87804018994962
 20
-42.30745494655107
 10
149.9962747626122
 20
-42.21976621076791
 10
149.99725137314314
 20
-42.21902315851682
 10
149.99820945419552
 20
-42.21825636292864
 10
150.00010689083854
 20
-42.216699177519914
 10
150.0010458726276
 20
-42.215909094163244
 10
150.00196518191723
 20
-42.215096204908406
 10
150.1110354230976
 20
-42.11624069937031
 10
150.11193450247583
 20
-42.11540549735044
 10
150.11281281418715
 20
-42.11454848236802
 10
150.11454848236824
 20
-42.11281281418693
 10
150.11540549735042
 20
-42.11193450247583
 10
150.11624069937008
 20
-42.111035423097846
 10
150.21509620662448
 20
-42.00196518002566
 10
150.21590909672156
 20
-42.001045869759665
 10
150.216699180872
 20
-42.00010688695351
 10
150.21825636456444
 20
-41.99820945220228
 10
150.21902315931004
 20
-41.99725137212669
 10
150.21976621076797
 20
-41.99627476261209
 10
150.30745494655108
 20
-41.87804018994958
 10
150.30817380781633
 20
-41.877045638301915
 10
150.3088680451539
 20
-41.87603374452403
 10
150.31023175430602
 20
-41.87399281042315
 10
150.3109009548437
 20
-41.872964175656314
 10
150.3115447097649
 20
-41.87191942762707
 10
150.3872221828355
 20
-41.74565919085124
 10
150.3878401036191
 20
-41.74459896019522
 10
150.3884318188582
 20
-41.74352388428412
 10
150.3895889089513
 20
-41.74135912023279
 10
150.39017706686977
 20
-41.74022408589013
 10
150.39069121910785
 20
-41.73916652673708
 10
150.39069230813732
 20
-41.739167041809665
 10
150.45362970998298
 20
-41.60609708725025
 10
150.4541407347572
 20
-41.604981394578786
 10
150.45462422506014
 20
-41.60385349671818
 10
150.45556356191037
 20
-41.60158573593977
 10
150.45601922365196
 20
-41.6004463196907
 10
150.45644678557133
 20
-41.599296064146706
 10
150.5060379919572
 20
-41.46069792570671
 10
150.50643719821622
 20
-41.459537518565426
 10
150.50680780638822
 20
-41.45836766389341
 10
150.50752033763843
 20
-41.456018762592905
 10
150.50786212362516
 20
-41.45484016816616
 10
150.50817488255623
 20
-41.453653540872295
 10
150.5439422983036
 20
-41.310862012873244
 10
150.54422584167605
 20
-41.30966806797618
 10
150.54447999882743
 20
-41.308467524181204
 10
150.5449588683009
 20
-41.30606008584031
 10
150.54515705515232
 20
-41.30500461801176
 10
150.54533252797302
 20
-41.30394513716986
 10
150.54537610393731
 20
-41.303641743620354
 10
150.54537843066285
 20
-41.30364208875749
 10
150.56697760026665
 20
-41.15803231842834
 10
150.56714275151361
 20
-41.15681632837724
 10
150.5672780111282
 20
-41.155596651544876
 10
150.56751860458675
 20
-41.15315386516495
 10
150.56762389108655
 20
-41.15193123633502
 10
150.56769914106266
 20
-41.15070639187799
 10
150.57492205080973
 20
-41.00368068702711
 10
150.5749672189347
 20
-41.00245436473137
 10
150.57498227800002
 20
-41.00122730329969
 10
150.57498227800002
 20
-40.99877269670031
 10
150.5749672189347
 20
-40.99754563526863
 10
150.57492205080973
 20
-40.99631931297289
 10
150.56769914097669
 20
-40.84929360637168
 10
150.56762389093612
 20
-40.848068761041105
 10
150.56751860432908
 20
-40.846846131341316
 10
150.5672780109565
 20
-40.84440334671173
 10
150.56714275140695
 20
-40.84318367075796
 10
150.566977600268
 20
-40.84196768158069
 10
150.54537843058375
 20
-40.696357910526274
 10
150.54518348684505
 20
-40.69514633776084
 10
150.5449588682854
 20
-40.69393991406666
 10
150.54447999881572
 20
-40.69153247576
 10
150.5442258416712
 20
-40.69033193200226
 10
150.5439422983074
 20
-40.68913798714206
 10
150.5081748814568
 20
-40.54634645454747
 10
150.50786212087087
 20
-40.54515982127215
 10
150.50752033293665
 20
-40.54398122094879
 10
150.50680780184493
 20
-40.541632322267176
 10
150.5064051891542
 20
-40.540365919393125
 10
150.50603583317996
 20
-40.539302837992295
 10
150.50603798880047
 20
-40.539302066698966
 10
150.45644678367685
 20
-40.40070393033254
 10
150.45601922037292
 20
-40.399553671187896
 10
150.45556355707095
 20
-40.3984142514084
 10
150.45462422217122
 20
-40.396146496307324
 10
150.45414073323596
 20
-40.39501860198937
 10
150.45362971000068
 20
-40.39390291278715
 10
150.39069230637514
 20
-40.260832954178916
 10
150.39015405792003
 20
-40.25973014464302
 10
150.38958890732994
 20
-40.2586408765023
 10
150.38843181781013
 20
-40.256476113755056
 10
150.3878401030434
 20
-40.255401038788506
 10
150.38722218277758
 20
-40.2543408090521
 10
150.31154470669063
 20
-40.12808056788878
 10
150.31090095218093
 20
-40.127035820514536
 10
150.31023175208662
 20
-40.12600718638207
 10
150.30886804595087
 20
-40.12396625666874
 10
150.30817380822936
 20
-40.12295436228451
 10
150.30745494655108
 20
-40.12195981005043
 10
150.21976621076803
 20
-40.00372523738799
 10
150.219023158517
 20
-40.0027486268571
 10
150.21825636292886
 20
-40.001790545804774
 10
150.21669917751996
 20
-39.99989310916153
 10
150.21590909416324
 20
-39.998954127372414
 10
150.21509620490835
 20
-39.998034818082715
 10
150.11624069937037
 20
-39.88896457690247
 10
150.11540549735057
 20
-39.88806549752432
 10
150.11454848236824
 20
-39.88718718581307
 10
150.11281281418715
 20
-39.88545151763198
 10
150.11193450247598
 20
-39.884594502649705
 10
150.11103542309792
 20
-39.88375930062997
 10
150.0019651800257
 20
-39.78490379337556
 10
150.00104586975988
 20
-39.784090903278646
 10
150.0001068869539
 20
-39.78330081912832
 10
149.9982094522027
 20
-39.7817436354359
 10
149.99725137212695
 20
-39.78097684069015
 10
149.9962747626122
 20
-39.78023378923209
 10
149.87804018994962
 20
-39.69254505344893
 10
149.8770456383018
 20
-39.69182619218356
 10
149.87603374452377
 20
-39.69113195484591
 10
149.87399281042303
 20
-39.68976824569391
 10
149.87296417565636
 20
-39.68909904515633
 10
149.87191942762726
 20
-39.68845529023525
 10
149.7456591908511
 20
-39.6127778171644
 10
149.74459895709148
 20
-39.61215989462264
 10
149.7435238779924
 20
-39.61156817777879
 10
149.74135910897735
 20
-39.61041108542964
 10
149.74026984492843
 20
-39.60984593715626
 10
149.73916703959054
 20
-39.60930769081312
 10
149.60609708725062
 20
-39.54637029001717
 10
149.6049813945789
 20
-39.54585926524285
 10
149.60385349671805
 20
-39.5453757749398
 10
149.60158573593907
 20
-39.54443643808937
 10
149.60044631969023
 20
-39.54398077634789
 10
149.5992960641465
 20
-39.54355321442862
 10
149.46069792570637
 20
-39.493962008042715
 10
149.4595375198724
 20
-39.49356280221556
 10
149.45836766652815
 20
-39.493192194410994
 10
149.45601876779017
 20
-39.492479663796864
 10
149.45474188048817
 20
-39.49211078429841
 10
149.45365298572602
 20
-39.49182734381607
 10
149.45365354325384
 20
-39.49182511804033
 10
149.31086201287314
 20
-39.45605770169643
 10
149.3096680679764
 20
-39.45577415832403
 10
149.30846752418168
 20
-39.4555200011727
 10
149.3060600858409
 20
-39.45504113169921
 10
149.305004756911
 20
-39.45484296938799
 10
149.3039454159577
 20
-39.454667515130275
 10
149.30364174349322
 20
-39.45462389691998
 10
149.30364208875753
 20
-39.45462156933715
 10
149.15803231842867
 20
-39.43302239973338
 10
149.1568163283778
 20
-39.43285724848644
 10
149.15559665154566
 20
-39.432721988871876
 10
149.15315386516548
 20
-39.43248139541327
 10
149.15193123633532
 20
-39.43237610891345
 10
149.15070639187803
 20
-39.432300858937325
 10
149.00368068702713
 20
-39.42507794919029
 10
149.0024543647314
 20
-39.425032781065326
 10
149.00122730329971
 20
-39.42501772200001
 10
148.99877269670029
 20
-39.42501772200001
 10
148.9975456352686
 20
-39.425032781065326
 10
148.99631931297287
 20
-39.42507794919029
 10
148.849293606372
 20
-39.4323008590233
 10
148.84806876104153
 20
-39.43237610906384
 10
148.84684613134183
 20
-39.43248139567089
 10
148.84440334671163
 20
-39.43272198904352
 10
148.84318367075775
 20
-39.432857248593066
 10
148.84196768158037
 20
-39.43302239973204
 10
148.69635791052644
 20
-39.45462156941622
 10
148.6951463377608
 20
-39.45481651315497
 10
148.69393991406642
 20
-39.45504113171466
 10
148.6915324757597
 20
-39.45552000118437
 10
148.69033193200454
 20
-39.45577415832832
 10
148.6891379871469
 20
-39.456057701691414
 10
148.5463464548314
 20
-39.491825118457335
 10
148.54515982155368
 20
-39.49213787904381
 10
148.54398122122797
 20
-39.492479666978674
 10
148.5416323222675
 20
-39.493192198154986
 10
148.54036600843887
 20
-39.49359478122809
 10
148.539302837345
 20
-39.493964165010794
 10
148.539302066699
 20
-39.49396201119953
 10
148.40070393033324
 20
-39.54355321632288
 10
148.39955367118858
 20
-39.543980779626786
 10
148.3984142514091
 20
-39.544436442928784
 10
148.39614649630687
 20
-39.54537577782899
 10
148.39501860198692
 20
-39.54585926676511
 10
148.39390291278275
 20
-39.54637029000139
 10
148.26083295394486
 20
-39.60930769374974
 10
148.2597301444111
 20
-39.60984594220388
 10
148.25864087627247
 20
-39.61041109279293
 10
148.25647611375547
 20
-39.61156818218965
 10
148.25540103878876
 20
-39.61215989695645
 10
148.25434080905222
 20
-39.612777817222366
 10
148.1280805678887
 20
-39.68845529330944
 10
148.1270358205145
 20
-39.689099047819084
 10
148.12600718638205
 20
-39.68976824791337
 10
148.12396625666878
 20
-39.69113195404908
 10
148.1229543622845
 20
-39.69182619177063
 10
148.12195981005038
 20
-39.69254505344893
 10
148.0037252373878
 20
-39.78023378923209
 10
148.00274862685686
 20
-39.78097684148318
 10
148.00179054580448
 20
-39.78174363707136
 10
147.99989310916146
 20
-39.783300822480086
 10
147.9989541273724
 20
-39.784090905836756
 10
147.99803481808277
 20
-39.784903795091594
 10
147.8889645769024
 20
-39.88375930062969
 10
147.88806549752417
 20
-39.88459450264956
 10
147.88718718581285
 20
-39.88545151763198
 10
147.88545151763176
 20
-39.88718718581307
 10
147.88459450264958
 20
-39.88806549752417
 10
147.88375930062992
 20
-39.888964576902154
 10
147.78490379337552
 20
-39.99803481997434
 10
147.78409090327844
 20
-39.998954130240335
 10
147.783300819128
 20
-39.99989311304649
 10
147.78174363543556
 20
-40.00179054779772
 10
147.78097684068996
 20
-40.00274862787331
 10
147.78023378923203
 20
-40.00372523738791
 10
147.69254505344892
 20
-40.12195981005042
 10
147.69182619218367
 20
-40.122954361698085
 10
147.6911319548461
 20
-40.12396625547597
 10
147.68976824569398
 20
-40.12600718957685
 10
147.6890990451563
 20
-40.127035824343686
 10
147.6884552902351
 20
-40.12808057237293
 10
147.6127778171645
 20
-40.25434080914876
 10
147.6121598963809
 20
-40.25540103980478
 10
147.6115681811418
 20
-40.25647611571588
 10
147.6104110910487
 20
-40.25864087976721
 10
147.60982293313023
 20
-40.25977591410987
 10
147.60930878089215
 20
-40.26083347326292
 10
147.60930769186268
 20
-40.260832958190335
 10
147.54637029001702
 20
-40.39390291274975
 10
147.5458592652428
 20
-40.395018605421214
 10
147.54537577493986
 20
-40.39614650328182
 10
147.54443643808963
 20
-40.39841426406023
 10
147.54398077634804
 20
-40.3995536803093
 10
147.54355321442867
 20
-40.4007039358533
 10
147.49396200804287
 20
-40.53930207429315
 10
147.49356280178387
 20
-40.540462481434325
 10
147.4931921936119
 20
-40.541632336106225
 10
147.49247966236163
 20
-40.54398123740688
 10
147.49213787637487
 20
-40.545159831833736
 10
147.49182511744377
 20
-40.546346459127705
 10
147.4560577016964
 20
-40.689137987126756
 10
147.45577415832395
 20
-40.69033193202382
 10
147.45552000117257
 20
-40.691532475818796
 10
147.4550411316991
 20
-40.69393991415969
 10
147.45484294484768
 20
-40.69499538198824
 10
147.45466747202698
 20
-40.69605486283014
 10
147.45462389606269
 20
-40.696358256379646
 10
147.45462156933715
 20
-40.69635791124251
 10
147.43302239973335
 20
-40.84196768157166
 10
147.43285724848639
 20
-40.84318367162276
 10
147.4327219888718
 20
-40.844403348455124
 10
147.43248139541325
 20
-40.84684613483505
 10
147.43237610891345
 20
-40.84806876366498
 10
147.43230085893734
 20
-40.84929360812201
 10
147.42507794919027
 20
-40.99631931297289
 10
147.4250327810653
 20
-40.99754563526863
 10
147.42501772199998
 20
-40.99877269670031
 10
147.42501772199998
 20
-41.00122730329969
 10
147.4250327810653
 20
-41.00245436473137
 10
147.42507794919027
 20
-41.00368068702711
  0
LWPOLYLINE
  5
30
330
17
100
AcDbEntity
  8
0
100
AcDbPolyline
 90
399
 70
0
 10
67.42507794919027
 20
-41.00368068702681
 10
67.43230085902329
 20
-41.15070639362803
 10
67.43237610906384
 20
-41.15193123895862
 10
67.4324813956709
 20
-41.15315386865843
 10
67.43272198904354
 20
-41.15559665328858
 10
67.43285724859328
 20
-41.15681632924399
 10
67.43302239973252
 20
-41.15803231842289
 10
67.45462156945555
 20
-41.30364208967217
 10
67.4548165131941
 20
-41.30485366243617
 10
67.4550411317535
 20
-41.30606008612893
 10
67.45552000118438
 20
-41.30846752424044
 10
67.45577415832834
 20
-41.30966806799558
 10
67.45605770169144
 20
-41.31086201285322
 10
67.49182511845729
 20
-41.45365354516838
 10
67.49213788071314
 20
-41.45484018447845
 10
67.49247967061247
 20
-41.45601879075096
 10
67.49319220488394
 20
-41.458367697797755
 10
67.49356280970429
 20
-41.45953754037486
 10
67.49396201202472
 20
-41.460697935607286
 10
67.54355321619593
 20
-41.59929606935965
 10
67.5439807795007
 20
-41.600446328506905
 10
67.54443644280369
 20
-41.601585748288954
 10
67.54537577782888
 20
-41.60385350369293
 10
67.54585926676413
 20
-41.604981398010885
 10
67.54637028999942
 20
-41.6060970872131
 10
67.60930769362476
 20
-41.73916704582084
 10
67.60984594207973
 20
-41.7402698553565
 10
67.61041109266971
 20
-41.741359123496984
 10
67.6115681821895
 20
-41.743523886244255
 10
67.61215989695634
 20
-41.744598961211054
 10
67.61277781722231
 20
-41.745659190947684
 10
67.68845529330942
 20
-41.87191943211123
 10
67.689099047819
 20
-41.87296417948532
 10
67.68976824791321
 20
-41.873992813617654
 10
67.6911319540492
 20
-41.87603374333138
 10
67.69182619177082
 20
-41.87704563771574
 10
67.6925450534492
 20
-41.878040189949964
 10
67.78023378923194
 20
-41.99627476261201
 10
67.78097684148318
 20
-41.99725137314316
 10
67.78174363707153
 20
-41.998209454195745
 10
67.78330082248047
 20
-42.000106890838985
 10
67.78409090583698
 20
-42.001045872627834
 10
67.78490379509165
 20
-42.001965181917285
 10
67.8837593006296
 20
-42.11103542309753
 10
67.88459450264948
 20
-42.111934502475755
 10
67.8854515176319
 20
-42.11281281418707
 10
67.887187185813
 20
-42.114548482368164
 10
67.8880654975241
 20
-42.115405497350366
 10
67.88896457690208
 20
-42.11624069937003
 10
67.99803481997434
 20
-42.21509620662447
 10
67.99895413024018
 20
-42.2159090967214
 10
67.99989311304617
 20
-42.21669918087173
 10
68.00179054779758
 20
-42.21825636456433
 10
68.00274862787333
 20
-42.219023159310076
 10
68.0037252373881
 20
-42.21976621076813
 10
68.12195981005011
 20
-42.30745494655088
 10
68.12295436169792
 20
-42.30817380781625
 10
68.12396625547596
 20
-42.308868045153915
 10
68.12600718957725
 20
-42.31023175430628
 10
68.12703582434393
 20
-42.31090095484385
 10
68.12808057237302
 20
-42.31154470976493
 10
68.25434080914893
 20
-42.3872221828356
 10
68.25540103980515
 20
-42.387840103619325
 10
68.25647611571645
 20
-42.38843181885852
 10
68.25864087976761
 20
-42.3895889089515
 10
68.25977584557911
 20
-42.390177032462155
 10
68.26083347252533
 20
-42.390691220667335
 10
68.26083295819033
 20
-42.390692308137325
 10
68.39390291274918
 20
-42.453629709982735
 10
68.39501860196987
 20
-42.45414073322732
 10
68.39614649630668
 20
-42.45462422217093
 10
68.39841425171102
 20
-42.45556355719628
 10
68.39961728755237
 20
-42.456043710116006
 10
68.40070446584825
 20
-42.45644529704903
 10
68.40070393354233
 20
-42.45644678474443
 10
68.53930207429562
 20
-42.506037991957896
 10
68.54046248012958
 20
-42.50643719778505
 10
68.54163233347384
 20
-42.50680780558961
 10
68.54398123220997
 20
-42.50752033620318
 10
68.54525850432645
 20
-42.50788932134817
 10
68.54634701625753
 20
-42.50817264826505
 10
68.54634645674615
 20
-42.50817488195967
 10
68.68913798712673
 20
-42.54394229830353
 10
68.69033193202343
 20
-42.54422584167592
 10
68.69153247581806
 20
-42.544479998827235
 10
68.69393991415903
 20
-42.54495886830077
 10
68.6953478610039
 20
-42.545218030156946
 10
68.69635852488966
 20
-42.54537429378986
 10
68.6963579112425
 20
-42.54537843066285
 10
68.84196768157139
 20
-42.566977600266625
 10
68.84318367162231
 20
-42.56714275151357
 10
68.84440334845449
 20
-42.56727801112814
 10
68.84684613483466
 20
-42.56751860458674
 10
68.84806876366478
 20
-42.567623891086555
 10
68.849293608122
 20
-42.567699141062675
 10
68.99631931297289
 20
-42.57492205080971
 10
68.99754563526862
 20
-42.574967218934674
 10
68.9987726967003
 20
-42.57498227799999
 10
69.0012273032997
 20
-42.57498227799999
 10
69.00245436473138
 20
-42.574967218934674
 10
69.00368068702711
 20
-42.57492205080971
 10
69.15070639362803
 20
-42.5676991409767
 10
69.15193123895853
 20
-42.56762389093616
 10
69.15315386865824
 20
-42.56751860432911
 10
69.15559665328841
 20
-42.56727801095648
 10
69.15681632924228
 20
-42.567142751406934
 10
69.15803231841963
 20
-42.56697760026796
 10
69.30364208947356
 20
-42.54537843058378
 10
69.30485366223931
 20
-42.545183486845005
 10
69.30606008593381
 20
-42.5449588682853
 10
69.3084675242407
 20
-42.54447999881555
 10
69.30966806799573
 20
-42.54422584167161
 10
69.31086201285326
 20
-42.543942298308544
 10
69.45365354516852
 20
-42.508174881542686
 10
69.45484018447873
 20
-42.507862119286784
 10
69.45601879075139
 20
-42.50752032938742
 10
69.4583676977979
 20
-42.50680779511602
 10
69.45953754037487
 20
-42.50643719029571
 10
69.46069793560714
 20
-42.506037987975326
 10
69.59929606935953
 20
-42.456446783804104
 10
69.60044632850685
 20
-42.4560192204993
 10
69.60158574828898
 20
-42.45556355719628
 10
69.60385350369332
 20
-42.45462422217093
 10
69.60498139801119
 20
-42.45414073323572
 10
69.60609708721333
 20
-42.45362971000046
 10
69.7391670458211
 20
-42.39069230637513
 10
69.7402698553569
 20
-42.390154057920086
 10
69.7413591234975
 20
-42.38958890733003
 10
69.7435238862445
 20
-42.388431817810364
 10
69.74459896121117
 20
-42.38784010304359
 10
69.74565919094768
 20
-42.3872221827777
 10
69.87191943211117
 20
-42.31154470669064
 10
69.87296417948527
 20
-42.31090095218106
 10
69.8739928136176
 20
-42.31023175208684
 10
69.8760337433313
 20
-42.30886804595087
 10
69.87704563771567
 20
-42.30817380822925
 10
69.87804018994989
 20
-42.30745494655088
 10
69.9962747626119
 20
-42.21976621076813
 10
69.99725137314292
 20
-42.219023158517
 10
69.99820945419536
 20
-42.21825636292876
 10
70.0001068908388
 20
-42.216699177519686
 10
70.00104587262778
 20
-42.21590909416307
 10
70.00196518191737
 20
-42.21509620490828
 10
70.1110354230976
 20
-42.11624069937031
 10
70.11193450247575
 20
-42.11540549735051
 10
70.112812814187
 20
-42.114548482368164
 10
70.1145484823681
 20
-42.11281281418707
 10
70.11540549735038
 20
-42.111934502475904
 10
70.11624069937011
 20
-42.11103542309784
 10
70.21509620662445
 20
-42.001965180025685
 10
70.21590909672132
 20
-42.00104586975992
 10
70.21669918087159
 20
-42.00010688695401
 10
70.21825636456423
 20
-41.998209452202566
 10
70.21902315931004
 20
-41.99725137212675
 10
70.21976621076814
 20
-41.996274762611904
 10
70.3074549465508
 20
-41.878040189949964
 10
70.3081738078161
 20
-41.87704563830226
 10
70.30886804515369
 20
-41.87603374452434
 10
70.31023175430603
 20
-41.87399281042311
 10
70.31090095484367
 20
-41.87296417565633
 10
70.31154470976483
 20
-41.87191942762712
 10
70.38722218283563
 20
-41.74565919085103
 10
70.38784010361942
 20
-41.7445989601947
 10
70.38843181885866
 20
-41.74352388428329
 10
70.38958890895161
 20
-41.741359120232175
 10
70.390177034422
 20
-41.740224150517406
 10
70.39069122057849
 20
-41.73916652743265
 10
70.39069230813732
 20
-41.73916704180968
 10
70.45362970998286
 20
-41.606097087250596
 10
70.45414073322748
 20
-41.60498139802984
 10
70.45462422217112
 20
-41.60385350369293
 10
70.45556355719631
 20
-41.601585748288954
 10
70.45604372531925
 20
-41.60038267287412
 10
70.45644529617823
 20
-41.59929553384018
 10
70.45644678474443
 20
-41.599296066457676
 10
70.50603799195791
 20
-41.46069792570434
 10
70.50643719778506
 20
-41.45953751987037
 10
70.50680780558963
 20
-41.458367666526094
 10
70.50752033620316
 20
-41.4560187677901
 10
70.50788933023229
 20
-41.45474146331285
 10
70.5081726475994
 20
-41.45365298357574
 10
70.50817488195966
 20
-41.45365354325385
 10
70.54394229830355
 20
-41.31086201287321
 10
70.54422584207788
 20
-41.30966806618659
 10
70.54447999954304
 20
-41.3084675205834
 10
70.54495886945338
 20
-41.306060079123206
 10
70.54518348760358
 20
-41.30485365725344
 10
70.54537843102305
 20
-41.303642086329205
 10
70.56697760026663
 20
-41.15803231842863
 10
70.56714275151357
 20
-41.15681632837768
 10
70.56727801112814
 20
-41.15559665154546
 10
70.56751860458674
 20
-41.15315386516525
 10
70.56762389108654
 20
-41.151931236335166
 10
70.56769914106268
 20
-41.15070639187798
 10
70.57492205080973
 20
-41.003680687026815
 10
70.57496721893469
 20
-41.00245436473107
 10
70.57498227800001
 20
-41.0012273032994
 10
70.57498227800001
 20
-40.9987726967006
 10
70.57496721893469
 20
-40.99754563526893
 10
70.57492205080973
 20
-40.99631931297319
 10
70.56769914097671
 20
-40.84929360637197
 10
70.56762389093616
 20
-40.84806876104138
 10
70.5675186043291
 20
-40.84684613134157
 10
70.56727801095646
 20
-40.84440334671142
 10
70.56714275140672
 20
-40.84318367075601
 10
70.56697760026748
 20
-40.84196768157711
 10
70.54537843054445
 20
-40.69635791032783
 10
70.5451834868059
 20
-40.69514633756383
 10
70.5449588682465
 20
-40.69393991387107
 10
70.54447999881562
 20
-40.69153247575956
 10
70.54422584167166
 20
-40.69033193200442
 10
70.54394229830856
 20
-40.68913798714678
 10
70.50817488154271
 20
-40.54634645483162
 10
70.50786211928686
 20
-40.54515981552155
 10
70.50752032938753
 20
-40.54398120924904
 10
70.50680779511606
 20
-40.541632302202245
 10
70.50643719029571
 20
-40.54046245962514
 10
70.50603798797528
 20
-40.539302064392714
 10
70.45644678380407
 20
-40.40070393064035
 10
70.4560192204993
 20
-40.399553671493095
 10
70.45556355719631
 20
-40.398414251711046
 10
70.45462422217112
 20
-40.39614649630707
 10
70.45414073323587
 20
-40.395018601989115
 10
70.45362971000058
 20
-40.3939029127869
 10
70.39069230637524
 20
-40.26083295417916
 10
70.39015405792027
 20
-40.2597301446435
 10
70.38958890733029
 20
-40.258640876503016
 10
70.3884318178105
 20
-40.256476113755745
 10
70.38784010304366
 20
-40.255401038788946
 10
70.38722218277769
 20
-40.254340809052316
 10
70.31154470669058
 20
-40.12808056788877
 10
70.310900952181
 20
-40.12703582051468
 10
70.31023175208679
 20
-40.126007186382346
 10
70.3088680459508
 20
-40.12396625666862
 10
70.30817380822918
 20
-40.12295436228426
 10
70.3074549465508
 20
-40.121959810050036
 10
70.21976621076806
 20
-40.00372523738799
 10
70.21902315851682
 20
-40.00274862685684
 10
70.21825636292847
 20
-40.001790545804255
 10
70.21669917751953
 20
-39.999893109161015
 10
70.21590909416302
 20
-39.998954127372166
 10
70.21509620490835
 20
-39.998034818082715
 10
70.1162406993704
 20
-39.88896457690247
 10
70.11540549735052
 20
-39.888065497524245
 10
70.1145484823681
 20
-39.88718718581293
 10
70.112812814187
 20
-39.885451517631836
 10
70.1119345024759
 20
-39.884594502649634
 10
70.11103542309792
 20
-39.88375930062997
 10
70.00196518002566
 20
-39.78490379337553
 10
70.00104586975982
 20
-39.7840909032786
 10
70.00010688695383
 20
-39.78330081912827
 10
69.99820945220242
 20
-39.78174363543567
 10
69.99725137212667
 20
-39.780976840689924
 10
69.9962747626119
 20
-39.78023378923187
 10
69.87804018994989
 20
-39.69254505344912
 10
69.87704563830208
 20
-39.69182619218375
 10
69.87603374452404
 20
-39.691131954846085
 10
69.87399281042275
 20
-39.68976824569372
 10
69.87296417565607
 20
-39.68909904515615
 10
69.87191942762698
 20
-39.68845529023507
 10
69.74565919085107
 20
-39.6127778171644
 10
69.74459896019485
 20
-39.612159896380675
 10
69.74352388428355
 20
-39.61156818114148
 10
69.74135912023239
 20
-39.6104110910485
 10
69.74022415442089
 20
-39.609822967537845
 10
69.73916652747467
 20
-39.609308779332665
 10
69.73916704180967
 20
-39.609307691862675
 10
69.60609708725082
 20
-39.546370290017265
 10
69.60498139803013
 20
-39.54585926677268
 10
69.60385350369332
 20
-39.54537577782907
 10
69.60158574828898
 20
-39.54443644280372
 10
69.60038271244763
 20
-39.543956289883994
 10
69.59929553415175
 20
-39.54355470295097
 10
69.59929606645767
 20
-39.54355321525557
 10
69.46069792570438
 20
-39.493962008042104
 10
69.45953751987042
 20
-39.49356280221495
 10
69.45836766652616
 20
-39.49319219441039
 10
69.45601876779003
 20
-39.49247966379682
 10
69.45474149567355
 20
-39.49211067865183
 10
69.45365298374247
 20
-39.49182735173495
 10
69.45365354325385
 20
-39.49182511804033
 10
69.31086201287327
 20
-39.45605770169647
 10
69.30966806797657
 20
-39.45577415832408
 10
69.30846752418194
 20
-39.455520001172765
 10
69.30606008584097
 20
-39.45504113169923
 10
69.3046521389961
 20
-39.454781969843054
 10
69.30364147511034
 20
-39.45462570621014
 10
69.3036420887575
 20
-39.45462156933715
 10
69.15803231842861
 20
-39.433022399733375
 10
69.15681632837769
 20
-39.43285724848643
 10
69.15559665154551
 20
-39.43272198887186
 10
69.15315386516534
 20
-39.43248139541326
 10
69.15193123633522
 20
-39.432376108913445
 10
69.150706391878
 20
-39.432300858937325
 10
69.00368068702711
 20
-39.42507794919029
 10
69.00245436473138
 20
-39.425032781065326
 10
69.0012273032997
 20
-39.42501772200001
 10
68.9987726967003
 20
-39.42501772200001
 10
68.99754563526862
 20
-39.425032781065326
 10
68.99631931297289
 20
-39.42507794919029
 10
68.84929360637197
 20
-39.4323008590233
 10
68.84806876104147
 20
-39.43237610906384
 10
68.84684613134176
 20
-39.43248139567089
 10
68.84440334671159
 20
-39.43272198904352
 10
68.84318367075772
 20
-39.432857248593066
 10
68.84196768158037
 20
-39.43302239973204
 10
68.69635791052644
 20
-39.45462156941622
 10
68.69514633776069
 20
-39.454816513154995
 10
68.69393991406619
 20
-39.4550411317147
 10
68.6915324757593
 20
-39.45552000118445
 10
68.69033193200427
 20
-39.45577415832839
 10
68.68913798714674
 20
-39.456057701691456
 10
68.54634645483148
 20
-39.491825118457314
 10
68.54515981552127
 20
-39.492137880713216
 10
68.54398120924861
 20
-39.49247967061258
 10
68.5416323022021
 20
-39.49319220488398
 10
68.54046245962513
 20
-39.49356280970429
 10
68.53930206439286
 20
-39.493962012024674
 10
68.40070393064047
 20
-39.543553216195896
 10
68.39955367149315
 20
-39.5439807795007
 10
68.39841425171102
 20
-39.54443644280372
 10
68.39614649630668
 20
-39.54537577782907
 10
68.39501860198881
 20
-39.54585926676428
 10
68.39390291278667
 20
-39.54637028999954
 10
68.2608329541789
 20
-39.60930769362487
 10
68.2597301446431
 20
-39.609845942079914
 10
68.2586408765025
 20
-39.61041109266997
 10
68.2564761137555
 20
-39.611568182189636
 10
68.25540103878883
 20
-39.61215989695641
 10
68.25434080905232
 20
-39.6127778172223
 10
68.12808056788883
 20
-39.68845529330936
 10
68.12703582051473
 20
-39.68909904781894
 10
68.1260071863824
 20
-39.68976824791316
 10
68.1239662566687
 20
-39.69113195404913
 10
68.12295436228433
 20
-39.69182619177075
 10
68.12195981005011
 20
-39.69254505344912
 10
68.0037252373881
 20
-39.78023378923187
 10
68.00274862685708
 20
-39.780976841483
 10
68.00179054580464
 20
-39.78174363707124
 10
67.9998931091612
 20
-39.783300822480314
 10
67.99895412737222
 20
-39.78409090583693
 10
67.99803481808263
 20
-39.78490379509172
 10
67.8889645769024
 20
-39.88375930062969
 10
67.88806549752425
 20
-39.88459450264949
 10
67.887187185813
 20
-39.885451517631836
 10
67.8854515176319
 20
-39.88718718581293
 10
67.88459450264962
 20
-39.888065497524096
 10
67.88375930062989
 20
-39.88896457690216
 10
67.78490379337555
 20
-39.998034819974315
 10
67.78409090327868
 20
-39.99895413024008
 10
67.78330081912841
 20
-39.99989311304599
 10
67.78174363543577
 20
-40.001790547797434
 10
67.78097684068996
 20
-40.00274862787325
 10
67.78023378923186
 20
-40.003725237388096
 10
67.6925450534492
 20
-40.121959810050036
 10
67.6918261921839
 20
-40.12295436169774
 10
67.69113195484631
 20
-40.12396625547566
 10
67.68976824569397
 20
-40.12600718957689
 10
67.68909904515633
 20
-40.12703582434367
 10
67.68845529023517
 20
-40.12808057237288
 10
67.61277781716437
 20
-40.25434080914897
 10
67.61215989638058
 20
-40.2554010398053
 10
67.61156818114134
 20
-40.25647611571671
 10
67.61041109104839
 20
-40.258640879767825
 10
67.609822965578
 20
-40.259775849482594
 10
67.60930877942151
 20
-40.26083347256735
 10
67.60930769186268
 20
-40.26083295819032
 10
67.54637029001714
 20
-40.393902912749404
 10
67.54585926677252
 20
-40.39501860197016
 10
67.54537577782888
 20
-40.39614649630707
 10
67.54443644280369
 20
-40.398414251711046
 10
67.54395627468075
 20
-40.39961732712588
 10
67.54355470382177
 20
-40.40070446615982
 10
67.54355321525557
 20
-40.400703933542324
 10
67.49396200804209
 20
-40.53930207429566
 10
67.49356280221494
 20
-40.54046248012963
 10
67.49319219441037
 20
-40.541632333473906
 10
67.49247966379684
 20
-40.5439812322099
 10
67.49211066976771
 20
-40.54525853668715
 10
67.4918273524006
 20
-40.54634701642426
 10
67.49182511804034
 20
-40.54634645674615
 10
67.45605770169645
 20
-40.68913798712679
 10
67.45577415792212
 20
-40.69033193381341
 10
67.45552000045696
 20
-40.6915324794166
 10
67.45504113054662
 20
-40.693939920876794
 10
67.45481651239642
 20
-40.69514634274656
 10
67.45462156897695
 20
-40.696357913670795
 10
67.43302239973337
 20
-40.84196768157137
 10
67.43285724848643
 20
-40.84318367162232
 10
67.43272198887186
 20
-40.84440334845454
 10
67.43248139541326
 20
-40.84684613483475
 10
67.43237610891346
 20
-40.848068763664834
 10
67.43230085893732
 20
-40.84929360812202
 10
67.42507794919027
 20
-40.996319312973185
 10
67.42503278106531
 20
-40.99754563526893
 10
67.42501772199999
 20
-40.9987726967006
 10
67.42501772199999
 20
-41.0012273032994
 10
67.42503278106531
 20
-41.00245436473107
 10
67.42507794919027
 20
-41.00368068702681
  0
LWPOLYLINE
  5
31
330
17
100
AcDbEntity
  8
0
100
AcDbPolyline
 90
401
 70
0
 10
147.33518635813277
 20
-116.00809677773647
 10
147.34240926796582
 20
-116.15512248433767
 10
147.34261996807936
 20
-116.15855205126323
 10
147.34291477057914
 20
-116.16197541442259
 10
147.34315536395172
 20
-116.1644181990522
 10
147.3435340906904
 20
-116.16783329172281
 10
147.34399651387952
 20
-116.17123806141923
 10
147.36559568356375
 20
-116.31684783247361
 10
147.3661415260321
 20
-116.32024023621643
 10
147.366770457999
 20
-116.32361822255974
 10
147.36724932746867
 20
-116.32602566086648
 10
147.3679609674734
 20
-116.32938718338853
 10
147.3687548888921
 20
-116.33273022899749
 10
147.4045223057427
 20
-116.47552176159189
 10
147.40539803538323
 20
-116.47884433476244
 10
147.4063550415989
 20
-116.48214441566752
 10
147.40706757269066
 20
-116.48449331434927
 10
147.40819490055893
 20
-116.48803927947955
 10
147.40922908204277
 20
-116.49101585950623
 10
147.40922304513296
 20
-116.49101801954706
 10
147.45881425025658
 20
-116.62961615591351
 10
147.4600114275076
 20
-116.63283688151867
 10
147.46128728475324
 20
-116.63602725690141
 10
147.46222661965297
 20
-116.63829501200247
 10
147.4635803886716
 20
-116.64145311609259
 10
147.46501125373035
 20
-116.64457704585867
 10
147.52794865735586
 20
-116.77764700446684
 10
147.52945575302988
 20
-116.78073487116684
 10
147.53103817468192
 20
-116.78378482196035
 10
147.53219526420173
 20
-116.78594958470764
 10
147.53385206554879
 20
-116.78895979461451
 10
147.5355822422934
 20
-116.79192843787693
 10
147.61125971838032
 20
-116.91818867904021
 10
147.61306223100755
 20
-116.92111397168827
 10
147.61493599127172
 20
-116.92399414725938
 10
147.61629969740753
 20
-116.92603507697278
 10
147.6182435630277
 20
-116.92886838124842
 10
147.62025637572674
 20
-116.9316531275037
 10
147.70794511150984
 20
-117.0498877001662
 10
147.71002565781285
 20
-117.05262220965278
 10
147.7121726854597
 20
-117.05530483659943
 10
147.71372987086855
 20
-117.0572022732426
 10
147.71594210426727
 20
-117.05983142225199
 10
147.71821819418088
 20
-117.06240548826304
 10
147.81707369971886
 20
-117.17147572944327
 10
147.81941226537378
 20
-117.17399315170157
 10
147.82181190732385
 20
-117.17645242449257
 10
147.823547575505
 20
-117.17818809267375
 10
147.82600684829674
 20
-117.18058773462465
 10
147.82852427055585
 20
-117.18292630028039
 10
147.9375945136281
 20
-117.28178180753483
 10
147.94016858237265
 20
-117.28405789980638
 10
147.94279773422963
 20
-117.28627013542747
 10
147.9446951689807
 20
-117.28782731911978
 10
147.9473777931926
 20
-117.28997434440771
 10
147.95011229983373
 20
-117.2920548884901
 10
148.06834687249622
 20
-117.37974362427317
 10
148.07113161710967
 20
-117.38175643581592
 10
148.07396491968774
 20
-117.38370030036108
 10
148.07600585378856
 20
-117.38506400951316
 10
148.07888603113568
 20
-117.38693777101867
 10
148.08181132561756
 20
-117.38874028479798
 10
148.20807156239385
 20
-117.46441775786887
 10
148.2110402169208
 20
-117.46614794098583
 10
148.21405043839832
 20
-117.46780474814864
 10
148.21621520741326
 20
-117.46896184049773
 10
148.21926514675013
 20
-117.47054425566317
 10
148.22235300169612
 20
-117.47205134542392
 10
148.35542295403604
 20
-117.53498874621988
 10
148.3585468935172
 20
-117.53641961558813
 10
148.36170500752797
 20
-117.53777338843679
 10
148.3639727683072
 20
-117.53871272528731
 10
148.36716313380356
 20
-117.53998857816332
 10
148.37038384932572
 20
-117.54118575153714
 10
148.50898198776568
 20
-117.59077695792298
 10
148.5122311241007
 20
-117.591894734239
 10
148.51550671346462
 20
-117.59293243609176
 10
148.51785561220242
 20
-117.59364496670584
 10
148.52143193982485
 20
-117.59467811569428
 10
148.5244798070375
 20
-117.59547144110111
 10
148.52447824057919
 20
-117.59547769475326
 10
148.66726977095988
 20
-117.63124511109716
 10
148.67061281667077
 20
-117.63203903253986
 10
148.67397433929585
 20
-117.63275067256357
 10
148.67638177763666
 20
-117.63322954203707
 10
148.67933689344514
 20
-117.63378443092616
 10
148.68230324430752
 20
-117.63427572888271
 10
148.68315313479408
 20
-117.63439780044266
 10
148.68315216822634
 20
-117.63440431651293
 10
148.8287619385552
 20
-117.6560034861167
 10
148.8321667106978
 20
-117.65646590960814
 10
148.83558180582796
 20
-117.65684463652894
 10
148.83802459220814
 20
-117.65708522998754
 10
148.84144795293247
 20
-117.657380032187
 10
148.84487751741264
 20
-117.65759073212016
 10
148.99190322226386
 20
-117.66481364186721
 10
148.9953369246919
 20
-117.6649401126171
 10
148.9987726967006
 20
-117.66498227800001
 10
149.0012273032994
 20
-117.66498227800001
 10
149.0046630753081
 20
-117.6649401126171
 10
149.00809677773614
 20
-117.66481364186721
 10
149.15512248433734
 20
-117.6575907320342
 10
149.15855205126286
 20
-117.65738003192067
 10
149.1619754144222
 20
-117.65708522942091
 10
149.1644181990524
 20
-117.65684463604828
 10
149.16783329172304
 20
-117.65646590930956
 10
149.17123806141953
 20
-117.65600348612045
 10
149.31684783247343
 20
-117.63440431643627
 10
149.32024023621727
 20
-117.63385847396776
 10
149.32361822256158
 20
-117.63322954200063
 10
149.32602566086834
 20
-117.63275067253092
 10
149.32938718338272
 20
-117.63203903252786
 10
149.3327302289841
 20
-117.6312451111112
 10
149.47552176129932
 20
-117.59547769434535
 10
149.47884433447624
 20
-117.59460196470339
 10
149.4821444153876
 20
-117.59364495848598
 10
149.48449331434827
 20
-117.59293242730963
 10
149.48803895940492
 20
-117.59180520590185
 10
149.4910158618331
 20
-117.59077092446049
 10
149.49101801954703
 20
-117.59077695486705
 10
149.62961615591297
 20
-117.54118574974365
 10
149.63283688151796
 20
-117.5399885724927
 10
149.63602725690052
 20
-117.53871271524712
 10
149.63829501200232
 20
-117.53777338034709
 10
149.6414531160982
 20
-117.53641961132593
 10
149.6445770458699
 20
-117.53498874626435
 10
149.77764700470794
 20
-117.47205134251591
 10
149.78073487140222
 20
-117.47054424684444
 10
149.7837848221901
 20
-117.46896182519525
 10
149.78594958470723
 20
-117.46780473579848
 10
149.78895979461427
 20
-117.46614793445131
 10
149.79192843787683
 20
-117.46441775770661
 10
149.91818867904036
 20
-117.38874028161953
 10
149.92111397168813
 20
-117.38693776899252
 10
149.92399414725895
 20
-117.38506400872852
 10
149.9260350769723
 20
-117.38370030259276
 10
149.92886838124824
 20
-117.38175643697241
 10
149.93165312750375
 20
-117.37974362427319
 10
150.04988770016644
 20
-117.29205488848999
 10
150.05262220965355
 20
-117.2899743421866
 10
150.05530483660067
 20
-117.28782731453931
 10
150.05720227324343
 20
-117.28627012913077
 10
150.05983142225233
 20
-117.28405789573245
 10
150.06240548826293
 20
-117.28178180581925
 10
150.1714757294433
 20
-117.18292630028117
 10
150.17399315170283
 20
-117.18058773462505
 10
150.176452424495
 20
-117.17818809267375
 10
150.17818809267615
 20
-117.17645242449257
 10
150.1805877346258
 20
-117.17399315170199
 10
150.18292630028034
 20
-117.17147572944415
 10
150.28178180753474
 20
-117.06240548637199
 10
150.28405789980653
 20
-117.0598314176272
 10
150.28627013542783
 20
-117.05720226576996
 10
150.28782731912025
 20
-117.05530483101873
 10
150.28997434440797
 20
-117.05262220680707
 10
150.29205488849016
 20
-117.0498877001662
 10
150.37974362427326
 20
-116.9316531275037
 10
150.38175643581633
 20
-116.92886838288976
 10
150.3837003003618
 20
-116.9260350803112
 10
150.38506400951405
 20
-116.92399414621006
 10
150.38693777101923
 20
-116.92111396886342
 10
150.38874028479825
 20
-116.91818867438202
 10
150.46441775786872
 20
-116.79192843760647
 10
150.4661479360635
 20
-116.78895979176843
 10
150.46780473873355
 20
-116.78594957921617
 10
150.4689618288267
 20
-116.78378481516462
 10
150.47060859507857
 20
-116.78060687021714
 10
150.47204829834567
 20
-116.77764555985867
 10
150.47205134437436
 20
-116.77764700052296
 10
150.53498874622002
 20
-116.64457704596354
 10
150.53641961558793
 20
-116.6414531064832
 10
150.53777338843628
 20
-116.63829499247323
 10
150.53871272528647
 20
-116.63602723169487
 10
150.53998857816282
 20
-116.63283686619774
 10
150.54118575153694
 20
-116.6296161506748
 10
150.5907769579228
 20
-116.49101801223487
 10
150.59189473544802
 20
-116.48776887223957
 10
150.5929324383296
 20
-116.48449327915822
 10
150.59364496957983
 20
-116.48214437785765
 10
150.59460197034278
 20
-116.47884431346246
 10
150.5954776953498
 20
-116.47552175703936
 10
150.63124511109717
 20
-116.33273022904032
 10
150.63203903254015
 20
-116.32938718332818
 10
150.6327506725641
 20
-116.32602566070183
 10
150.63322954203758
 20
-116.32361822236086
 10
150.63378444464493
 20
-116.32066302890588
 10
150.63427575297837
 20
-116.31769659984361
 10
150.63439780092205
 20
-116.316846865277
 10
150.63440431651293
 20
-116.31684783177363
 10
150.65600348611673
 20
-116.17123806144446
 10
150.65646590960822
 20
-116.16783328930148
 10
150.65684463652906
 20
-116.16441819417096
 10
150.65708522998762
 20
-116.16197540779108
 10
150.65738003218704
 20
-116.15855204706716
 10
150.65759073212016
 20
-116.15512248258737
 10
150.66481364186723
 20
-116.00809677773648
 10
150.6649401126171
 20
-116.0046630753084
 10
150.664982278
 20
-116.0012273032997
 10
150.664982278
 20
-115.9987726967003
 10
150.6649401126171
 20
-115.99533692469161
 10
150.66481364186723
 20
-115.99190322226353
 10
150.65759073203418
 20
-115.84487751566233
 10
150.65738003192064
 20
-115.84144794873677
 10
150.65708522942086
 20
-115.83802458557741
 10
150.65684463604828
 20
-115.8355818009478
 10
150.6564659093096
 20
-115.83216670827719
 10
150.65600348612048
 20
-115.82876193858077
 10
150.63440431643625
 20
-115.68315216752639
 10
150.6338584739679
 20
-115.67975976378357
 10
150.633229542001
 20
-115.67638177744026
 10
150.63275067253133
 20
-115.67397433913352
 10
150.6320390325266
 20
-115.67061281661147
 10
150.6312451111079
 20
-115.66726977100251
 10
150.5954776942573
 20
-115.52447823840811
 10
150.59460196461677
 20
-115.52115566523756
 10
150.5936449584011
 20
-115.51785558433248
 10
150.59293242730934
 20
-115.51550668565073
 10
150.59180509944107
 20
-115.51196072052045
 10
150.59077091795723
 20
-115.50898414049377
 10
150.59077695486704
 20
-115.50898198045294
 10
150.54118574974342
 20
-115.37038384408649
 10
150.5399885724924
 20
-115.36716311848133
 10
150.53871271524676
 20
-115.36397274309859
 10
150.53777338034703
 20
-115.36170498799753
 10
150.5364196113284
 20
-115.35854688390741
 10
150.53498874626965
 20
-115.35542295414133
 10
150.47205134264414
 20
-115.22235299553316
 10
150.47054424697012
 20
-115.21926512883316
 10
150.46896182531808
 20
-115.21621517803965
 10
150.46780473579827
 20
-115.21405041529236
 10
150.46614793445121
 20
-115.21104020538549
 10
150.4644177577066
 20
-115.20807156212307
 10
150.38874028161968
 20
-115.08181132095979
 10
150.38693776899245
 20
-115.07888602831173
 10
150.38506400872828
 20
-115.07600585274062
 10
150.38370030259247
 20
-115.07396492302722
 10
150.3817564369723
 20
-115.07113161875158
 10
150.37974362427326
 20
-115.0683468724963
 10
150.29205488849016
 20
-114.9501122998338
 10
150.28997434218715
 20
-114.94737779034722
 10
150.2878273145403
 20
-114.94469516340057
 10
150.28627012913145
 20
-114.9427977267574
 10
150.28405789573273
 20
-114.94016857774801
 10
150.28178180581912
 20
-114.93759451173696
 10
150.18292630028114
 20
-114.82852427055673
 10
150.18058773462622
 20
-114.82600684829843
 10
150.17818809267615
 20
-114.82354757550743
 10
150.176452424495
 20
-114.82181190732625
 10
150.17399315170326
 20
-114.81941226537535
 10
150.17147572944415
 20
-114.81707369971961
 10
150.0624054863719
 20
-114.71821819246517
 10
150.05983141762735
 20
-114.71594210019362
 10
150.05720226577037
 20
-114.71372986457253
 10
150.0553048310193
 20
-114.71217268088022
 10
150.0526222068074
 20
-114.71002565559229
 10
150.04988770016627
 20
-114.7079451115099
 10
149.93165312750378
 20
-114.62025637572683
 10
149.92886838289033
 20
-114.61824356418408
 10
149.92603508031226
 20
-114.61629969963892
 10
149.92399414621144
 20
-114.61493599048684
 10
149.92111396886432
 20
-114.61306222898133
 10
149.91818867438244
 20
-114.61125971520202
 10
149.79192843760615
 20
-114.53558224213113
 10
149.7889597830792
 20
-114.53385205901417
 10
149.78594956160168
 20
-114.53219525185136
 10
149.78378479258674
 20
-114.53103815950227
 10
149.78073485324987
 20
-114.52945574433683
 10
149.77764699830388
 20
-114.52794865457608
 10
149.64457704596396
 20
-114.46501125378012
 10
149.6414531064828
 20
-114.46358038441187
 10
149.63829499247203
 20
-114.46222661156321
 10
149.6360272316928
 20
-114.46128727471269
 10
149.63283686619644
 20
-114.46001142183668
 10
149.6296161506743
 20
-114.45881424846286
 10
149.4910180122347
 20
-114.40922304207712
 10
149.48776887589955
 20
-114.40810526576107
 10
149.48449328653552
 20
-114.40706756390827
 10
149.48214438779738
 20
-114.40635503329409
 10
149.478568060175
 20
-114.40532188430568
 10
149.4755201929625
 20
-114.40452855889889
 10
149.47552175942081
 20
-114.40452230524674
 10
149.33273022904012
 20
-114.36875488890284
 10
149.32938718332923
 20
-114.36796096746014
 10
149.32602566070415
 20
-114.36724932743643
 10
149.32361822236334
 20
-114.36677045796293
 10
149.32066310655486
 20
-114.36621556907384
 10
149.31769675569248
 20
-114.36572427111729
 10
149.31684686520592
 20
-114.36560219955734
 10
149.31684783177366
 20
-114.36559568348707
 10
149.1712380614448
 20
-114.3439965138833
 10
149.1678332893022
 20
-114.34353409039186
 10
149.16441819417204
 20
-114.34315536347106
 10
149.16197540779186
 20
-114.34291477001246
 10
149.15855204706753
 20
-114.342619967813
 10
149.15512248258736
 20
-114.34240926787984
 10
149.00809677773614
 20
-114.33518635813279
 10
149.0046630753081
 20
-114.3350598873829
 10
149.0012273032994
 20
-114.33501772199999
 10
148.9987726967006
 20
-114.33501772199999
 10
148.9953369246919
 20
-114.3350598873829
 10
148.99190322226386
 20
-114.33518635813279
 10
148.84487751566266
 20
-114.3424092679658
 10
148.84144794873714
 20
-114.34261996807933
 10
148.8380245855778
 20
-114.34291477057909
 10
148.8355818009476
 20
-114.34315536395172
 10
148.83216670827696
 20
-114.34353409069044
 10
148.82876193858047
 20
-114.34399651387955
 10
148.68315216752657
 20
-114.36559568356373
 10
148.67975976378273
 20
-114.36614152603224
 10
148.67638177743842
 20
-114.36677045799937
 10
148.67397433913166
 20
-114.36724932746908
 10
148.67061281661728
 20
-114.36796096747214
 10
148.6672697710159
 20
-114.3687548888888
 10
148.52447823870068
 20
-114.40452230565465
 10
148.52115566552376
 20
-114.40539803529661
 10
148.5178555846124
 20
-114.40635504151402
 10
148.51550668565173
 20
-114.40706757269037
 10
148.51196104059508
 20
-114.40819479409815
 10
148.5089841381669
 20
-114.40922907553951
 10
148.50898198045297
 20
-114.40922304513295
 10
148.37038384408703
 20
-114.45881425025635
 10
148.36716311848204
 20
-114.4600114275073
 10
148.36397274309948
 20
-114.46128728475288
 10
148.36170498799768
 20
-114.46222661965291
 10
148.3585468839018
 20
-114.46358038867407
 10
148.3554229541301
 20
-114.46501125373565
 10
148.22235299529206
 20
-114.52794865748409
 10
148.21926512859778
 20
-114.52945575315556
 10
148.2162151778099
 20
-114.53103817480475
 10
148.21405041529277
 20
-114.53219526420152
 10
148.21104020538573
 20
-114.53385206554869
 10
148.20807156212317
 20
-114.53558224229339
 10
148.08181132095964
 20
-114.61125971838047
 10
148.07888602831187
 20
-114.61306223100748
 10
148.07600585274105
 20
-114.61493599127148
 10
148.0739649230277
 20
-114.61629969740724
 10
148.07113161875176
 20
-114.61824356302759
 10
148.06834687249625
 20
-114.62025637572681
 10
147.95011229983356
 20
-114.70794511151001
 10
147.94737779034645
 20
-114.7100256578134
 10
147.94469516339933
 20
-114.71217268546069
 10
147.94279772675657
 20
-114.71372987086923
 10
147.94016857774767
 20
-114.71594210426755
 10
147.93759451173707
 20
-114.71821819418075
 10
147.8285242705567
 20
-114.81707369971883
 10
147.82600684829717
 20
-114.81941226537495
 10
147.823547575505
 20
-114.82181190732625
 10
147.82181190732385
 20
-114.82354757550743
 10
147.8194122653742
 20
-114.82600684829801
 10
147.81707369971966
 20
-114.82852427055585
 10
147.71821819246526
 20
-114.93759451362801
 10
147.71594210019347
 20
-114.9401685823728
 10
147.71372986457217
 20
-114.94279773423004
 10
147.71217268087975
 20
-114.94469516898127
 10
147.71002565559203
 20
-114.94737779319293
 10
147.70794511150984
 20
-114.9501122998338
 10
147.62025637572674
 20
-115.0683468724963
 10
147.61824356418367
 20
-115.07113161711024
 10
147.6162996996382
 20
-115.0739649196888
 10
147.61493599048595
 20
-115.07600585378994
 10
147.61306222898077
 20
-115.07888603113658
 10
147.61125971520175
 20
-115.08181132561798
 10
147.53558224213128
 20
-115.20807156239353
 10
147.5338520639365
 20
-115.21104020823157
 10
147.53219526126645
 20
-115.21405042078383
 10
147.5310381711733
 20
-115.21621518483538
 10
147.52939140492143
 20
-115.21939312978286
 10
147.52795170165433
 20
-115.22235444014133
 10
147.52794865562564
 20
-115.22235299947704
 10
147.46501125377998
 20
-115.35542295403646
 10
147.46358038441207
 20
-115.3585468935168
 10
147.46222661156372
 20
-115.36170500752677
 10
147.46128727471353
 20
-115.36397276830513
 10
147.46001142183718
 20
-115.36716313380226
 10
147.45881424846306
 20
-115.3703838493252
 10
147.4092230420772
 20
-115.50898198776513
 10
147.40810526455198
 20
-115.51223112776043
 10
147.4070675616704
 20
-115.51550672084178
 10
147.40635503042017
 20
-115.51785562214235
 10
147.40539802965722
 20
-115.52115568653754
 10
147.4045223046502
 20
-115.52447824296064
 10
147.36875488890283
 20
-115.66726977095968
 10
147.36796096745985
 20
-115.67061281667182
 10
147.3672493274359
 20
-115.67397433929817
 10
147.36677045796242
 20
-115.67638177763914
 10
147.36621555535507
 20
-115.67933697109412
 10
147.36572424702163
 20
-115.68230340015639
 10
147.36560219907795
 20
-115.683153134723
 10
147.36559568348707
 20
-115.68315216822637
 10
147.34399651388327
 20
-115.82876193855554
 10
147.34353409039178
 20
-115.83216671069852
 10
147.34315536347094
 20
-115.83558180582904
 10
147.34291477001238
 20
-115.83802459220892
 10
147.34261996781296
 20
-115.84144795293284
 10
147.34240926787984
 20
-115.84487751741263
 10
147.33518635813277
 20
-115.99190322226352
 10
147.3350598873829
 20
-115.9953369246916
 10
147.335017722
 20
-115.9987726967003
 10
147.335017722
 20
-116.0012273032997
 10
147.3350598873829
 20
-116.00466307530839
 10
147.33518635813277
 20
-116.00809677773647
  0
LWPOLYLINE
  5
32
330
17
100
AcDbEntity
  8
0
100
AcDbPolyline
 90
405
 70
0
 10
67.33518635813279
 20
-116.00809677773616
 10
67.3424092679658
 20
-116.15512248433735
 10
67.34261996807933
 20
-116.15855205126296
 10
67.3429147705791
 20
-116.16197541442236
 10
67.34315536395174
 20
-116.16441819905253
 10
67.34353409069045
 20
-116.16783329172313
 10
67.34399651387955
 20
-116.17123806141953
 10
67.36559568356373
 20
-116.31684783247343
 10
67.36614152603228
 20
-116.32024023621751
 10
67.36677045799946
 20
-116.32361822256206
 10
67.36724932746922
 20
-116.32602566086899
 10
67.36796096747224
 20
-116.32938718338312
 10
67.36875488888884
 20
-116.33273022898425
 10
67.40452230565465
 20
-116.47552176129932
 10
67.40539803997113
 20
-116.47884435136777
 10
67.40635505168933
 20
-116.48214444893107
 10
67.40706758596082
 20
-116.48449335597788
 10
67.40810527945769
 20
-116.48776891519353
 10
67.40922304595483
 20
-116.49101802184406
 10
67.45881425012605
 20
-116.62961615559647
 10
67.46001142737953
 20
-116.63283688120904
 10
67.46128728462801
 20
-116.63602725659908
 10
67.46222661965321
 20
-116.63829501200303
 10
67.46358038867176
 20
-116.64145311609299
 10
67.46501125373045
 20
-116.64457704585892
 10
67.52794865735586
 20
-116.77764700446684
 10
67.52945575302996
 20
-116.780734871167
 10
67.53103817468208
 20
-116.78378482196065
 10
67.53219526420179
 20
-116.78594958470774
 10
67.53385206554879
 20
-116.78895979461446
 10
67.53558224229332
 20
-116.79192843787673
 10
67.61125971838038
 20
-116.91818867904023
 10
67.61306223100722
 20
-116.9211139716877
 10
67.61493599127101
 20
-116.92399414725823
 10
67.61629969740704
 20
-116.92603507697201
 10
67.61824356302758
 20
-116.92886838124824
 10
67.62025637572701
 20
-116.93165312750406
 10
67.70794511150982
 20
-117.04988770016617
 10
67.71002565781325
 20
-117.05262220965331
 10
67.71217268546054
 20
-117.05530483660047
 10
67.71372987086943
 20
-117.05720227324365
 10
67.71594210426773
 20
-117.0598314222525
 10
67.71821819418088
 20
-117.06240548826302
 10
67.81707369971883
 20
-117.17147572944326
 10
67.81941226537437
 20
-117.17399315170218
 10
67.82181190732504
 20
-117.17645242449377
 10
67.82354757550623
 20
-117.17818809267496
 10
67.8260068482974
 20
-117.18058773462523
 10
67.82852427055587
 20
-117.18292630028039
 10
67.93759451362806
 20
-117.28178180753476
 10
67.94016858237208
 20
-117.28405789980589
 10
67.94279773422853
 20
-117.28627013542656
 10
67.94469516897993
 20
-117.28782731911917
 10
67.94737779319233
 20
-117.28997434440753
 10
67.950112299834
 20
-117.29205488849033
 10
68.06834687249594
 20
-117.37974362427299
 10
68.0711316171096
 20
-117.38175643581587
 10
68.07396491968788
 20
-117.38370030036117
 10
68.07600585378927
 20
-117.38506400951361
 10
68.07888603113618
 20
-117.38693777101898
 10
68.08181132561786
 20
-117.38874028479816
 10
68.20807156239376
 20
-117.46441775786882
 10
68.21104020823134
 20
-117.46614793606334
 10
68.21405042078315
 20
-117.46780473873315
 10
68.21621518483431
 20
-117.46896182882612
 10
68.21939299862845
 20
-117.47060852922904
 10
68.22235443872962
 20
-117.47204830133043
 10
68.22235299947701
 20
-117.47205134437436
 10
68.35542295403609
 20
-117.5349887462199
 10
68.35854688385392
 20
-117.53641961130471
 10
68.36170498799697
 20
-117.53777338034679
 10
68.36397274340092
 20
-117.53871271537199
 10
68.36734135044664
 20
-117.54005718453502
 10
68.37038533838684
 20
-117.54118158260316
 10
68.37038384701434
 20
-117.54118575071013
 10
68.50898198776767
 20
-117.59077695792361
 10
68.51223112410294
 20
-117.5918947342397
 10
68.5155067134671
 20
-117.59293243609252
 10
68.51785561220312
 20
-117.59364496670605
 10
68.52143059002236
 20
-117.59467774511916
 10
68.52447980007888
 20
-117.59547146888139
 10
68.52447824057916
 20
-117.59547769475326
 10
68.66726977095972
 20
-117.63124511109712
 10
68.67061281667046
 20
-117.6320390325398
 10
68.67397433929537
 20
-117.63275067256347
 10
68.67638177763637
 20
-117.63322954203701
 10
68.67933681579468
 20
-117.63378441720708
 10
68.68230308845345
 20
-117.63427570478608
 10
68.68315313486518
 20
-117.63439779996351
 10
68.68315216822636
 20
-117.63440431651293
 10
68.82876193855525
 20
-117.6560034861167
 10
68.83216671069782
 20
-117.65646590960813
 10
68.83558180582793
 20
-117.65684463652893
 10
68.8380245922081
 20
-117.65708522998753
 10
68.84144795293244
 20
-117.657380032187
 10
68.84487751741266
 20
-117.65759073212016
 10
68.99190322226383
 20
-117.66481364186721
 10
68.9953369246919
 20
-117.6649401126171
 10
68.99877269670058
 20
-117.66498227800001
 10
69.00122730329942
 20
-117.66498227800001
 10
69.00466307530809
 20
-117.6649401126171
 10
69.00809677773616
 20
-117.66481364186721
 10
69.15512248433735
 20
-117.6575907320342
 10
69.15855205126296
 20
-117.65738003192067
 10
69.16197541442236
 20
-117.6570852294209
 10
69.16441819905253
 20
-117.65684463604826
 10
69.16783329172313
 20
-117.65646590930955
 10
69.17123806141953
 20
-117.65600348612045
 10
69.31684783247343
 20
-117.63440431643627
 10
69.32024023621751
 20
-117.63385847396772
 10
69.32361822256206
 20
-117.63322954200054
 10
69.32602566086899
 20
-117.63275067253078
 10
69.32938718338312
 20
-117.63203903252776
 10
69.33273022898425
 20
-117.63124511111116
 10
69.47552176129932
 20
-117.59547769434535
 10
69.47884435136777
 20
-117.59460196002887
 10
69.48214444893107
 20
-117.59364494831067
 10
69.48449335597788
 20
-117.59293241403918
 10
69.48776891519353
 20
-117.59189472054231
 10
69.49101802184406
 20
-117.59077695404517
 10
69.62961615559647
 20
-117.54118574987395
 10
69.63283688120904
 20
-117.53998857262047
 10
69.63602725659908
 20
-117.53871271537199
 10
69.63829501200303
 20
-117.53777338034679
 10
69.64145311609299
 20
-117.53641961132824
 10
69.64457704585892
 20
-117.53498874626955
 10
69.77764700446684
 20
-117.47205134264414
 10
69.780734871167
 20
-117.47054424697004
 10
69.78378482196065
 20
-117.46896182531792
 10
69.78594958470774
 20
-117.46780473579821
 10
69.78895979461446
 20
-117.46614793445121
 10
69.79192843787673
 20
-117.46441775770668
 10
69.91818867904023
 20
-117.38874028161962
 10
69.9211139716877
 20
-117.38693776899278
 10
69.92399414725823
 20
-117.38506400872899
 10
69.92603507697201
 20
-117.38370030259296
 10
69.92886838124824
 20
-117.38175643697242
 10
69.93165312750406
 20
-117.37974362427299
 10
70.04988770016617
 20
-117.29205488849018
 10
70.05262220965331
 20
-117.28997434218675
 10
70.05530483660047
 20
-117.28782731453946
 10
70.05720227324365
 20
-117.28627012913057
 10
70.0598314222525
 20
-117.28405789573227
 10
70.06240548826302
 20
-117.28178180581912
 10
70.17147572944326
 20
-117.18292630028117
 10
70.17399315170218
 20
-117.18058773462563
 10
70.17645242449377
 20
-117.17818809267496
 10
70.17818809267496
 20
-117.17645242449377
 10
70.18058773462523
 20
-117.1739931517026
 10
70.18292630028039
 20
-117.17147572944413
 10
70.28178180753476
 20
-117.06240548637194
 10
70.28405789980589
 20
-117.05983141762792
 10
70.28627013542656
 20
-117.05720226577147
 10
70.28782731911917
 20
-117.05530483102007
 10
70.28997434440753
 20
-117.05262220680767
 10
70.29205488849033
 20
-117.049887700166
 10
70.37974362427299
 20
-116.93165312750406
 10
70.38175643581587
 20
-116.9288683828904
 10
70.38370030036117
 20
-116.92603508031212
 10
70.38506400951361
 20
-116.92399414621073
 10
70.38693777101898
 20
-116.92111396886382
 10
70.38874028479816
 20
-116.91818867438214
 10
70.46441775786882
 20
-116.79192843760624
 10
70.46614793606334
 20
-116.78895979176866
 10
70.46780473873315
 20
-116.78594957921685
 10
70.46896182882612
 20
-116.78378481516569
 10
70.47060852922904
 20
-116.78060700137155
 10
70.47204830133043
 20
-116.77764556127038
 10
70.47205134437436
 20
-116.77764700052299
 10
70.5349887462199
 20
-116.64457704596391
 10
70.53641961130471
 20
-116.64145311614608
 10
70.53777338034679
 20
-116.63829501200303
 10
70.53871271537199
 20
-116.63602725659908
 10
70.54005718453502
 20
-116.63265864955336
 10
70.54118158260316
 20
-116.62961466161316
 10
70.54118575071013
 20
-116.62961615298566
 10
70.59077695792361
 20
-116.49101801223233
 10
70.5918947342397
 20
-116.48776887589706
 10
70.59293243609252
 20
-116.4844932865329
 10
70.59364496670605
 20
-116.48214438779688
 10
70.59467774511916
 20
-116.47856940997764
 10
70.59547146888139
 20
-116.47552019992112
 10
70.59547769475326
 20
-116.47552175942084
 10
70.63124511109712
 20
-116.33273022904028
 10
70.6320390325398
 20
-116.32938718332954
 10
70.63275067256347
 20
-116.32602566070463
 10
70.63322954203701
 20
-116.32361822236363
 10
70.63378441720708
 20
-116.32066318420532
 10
70.63427570478608
 20
-116.31769691154655
 10
70.63439779996351
 20
-116.31684686513482
 10
70.63440431651293
 20
-116.31684783177364
 10
70.6560034861167
 20
-116.17123806144475
 10
70.65646590960813
 20
-116.16783328930218
 10
70.65684463652893
 20
-116.16441819417207
 10
70.65708522998753
 20
-116.1619754077919
 10
70.657380032187
 20
-116.15855204706756
 10
70.65759073212016
 20
-116.15512248258734
 10
70.66481364186721
 20
-116.00809677773617
 10
70.6649401126171
 20
-116.0046630753081
 10
70.66498227800001
 20
-116.00122730329942
 10
70.66498227800001
 20
-115.99877269670058
 10
70.6649401126171
 20
-115.99533692469191
 10
70.66481364186721
 20
-115.99190322226384
 10
70.6575907320342
 20
-115.84487751566265
 10
70.65738003192067
 20
-115.84144794873704
 10
70.6570852294209
 20
-115.83802458557764
 10
70.65684463604826
 20
-115.83558180094747
 10
70.65646590930955
 20
-115.83216670827687
 10
70.65600348612045
 20
-115.82876193858047
 10
70.63440431643627
 20
-115.68315216752657
 10
70.63385847396772
 20
-115.67975976378249
 10
70.63322954200054
 20
-115.67638177743794
 10
70.63275067253078
 20
-115.67397433913101
 10
70.63203903252776
 20
-115.67061281661688
 10
70.63124511111116
 20
-115.66726977101575
 10
70.59547769434535
 20
-115.52447823870068
 10
70.59460196002887
 20
-115.52115564863223
 10
70.59364494831067
 20
-115.51785555106893
 10
70.59293241403918
 20
-115.51550664402212
 10
70.59189472054231
 20
-115.51223108480647
 10
70.59077695404517
 20
-115.50898197815594
 10
70.54118574987395
 20
-115.37038384440353
 10
70.53998857262047
 20
-115.36716311879096
 10
70.53871271537199
 20
-115.36397274340092
 10
70.53777338034679
 20
-115.36170498799697
 10
70.53641961132824
 20
-115.35854688390701
 10
70.53498874626955
 20
-115.35542295414108
 10
70.47205134264414
 20
-115.22235299553316
 10
70.47054424697004
 20
-115.219265128833
 10
70.46896182531792
 20
-115.21621517803935
 10
70.46780473579821
 20
-115.21405041529226
 10
70.46614793445121
 20
-115.21104020538554
 10
70.46441775770668
 20
-115.20807156212327
 10
70.38874028161962
 20
-115.08181132095977
 10
70.38693776899278
 20
-115.0788860283123
 10
70.38506400872899
 20
-115.07600585274177
 10
70.38370030259296
 20
-115.07396492302799
 10
70.38175643697242
 20
-115.07113161875176
 10
70.37974362427299
 20
-115.06834687249594
 10
70.29205488849018
 20
-114.95011229983383
 10
70.28997434218675
 20
-114.94737779034669
 10
70.28782731453946
 20
-114.94469516339953
 10
70.28627012913057
 20
-114.94279772675635
 10
70.28405789573227
 20
-114.9401685777475
 10
70.28178180581912
 20
-114.93759451173698
 10
70.18292630028117
 20
-114.82852427055674
 10
70.18058773462563
 20
-114.82600684829782
 10
70.17818809267496
 20
-114.82354757550623
 10
70.17645242449377
 20
-114.82181190732504
 10
70.1739931517026
 20
-114.81941226537477
 10
70.17147572944413
 20
-114.81707369971961
 10
70.06240548637194
 20
-114.71821819246524
 10
70.05983141762792
 20
-114.71594210019411
 10
70.05720226577147
 20
-114.71372986457344
 10
70.05530483102007
 20
-114.71217268088083
 10
70.05262220680767
 20
-114.71002565559247
 10
70.049887700166
 20
-114.70794511150967
 10
69.93165312750406
 20
-114.62025637572701
 10
69.9288683828904
 20
-114.61824356418413
 10
69.92603508031212
 20
-114.61629969963883
 10
69.92399414621073
 20
-114.61493599048639
 10
69.92111396886382
 20
-114.61306222898102
 10
69.91818867438214
 20
-114.61125971520184
 10
69.79192843760624
 20
-114.53558224213118
 10
69.78895979176866
 20
-114.53385206393666
 10
69.78594957921685
 20
-114.53219526126685
 10
69.78378481516569
 20
-114.53103817117388
 10
69.78060700137155
 20
-114.52939147077096
 10
69.77764556127038
 20
-114.52795169866957
 10
69.77764700052299
 20
-114.52794865562564
 10
69.64457704596391
 20
-114.4650112537801
 10
69.64145311614608
 20
-114.46358038869529
 10
69.63829501200303
 20
-114.46222661965321
 10
69.63602725659908
 20
-114.46128728462801
 10
69.63265864955336
 20
-114.45994281546498
 10
69.62961466161316
 20
-114.45881841739684
 10
69.62961615298566
 20
-114.45881424928987
 10
69.49101801223233
 20
-114.40922304207639
 10
69.48776887589706
 20
-114.4081052657603
 10
69.4844932865329
 20
-114.40706756390748
 10
69.48214438779688
 20
-114.40635503329395
 10
69.47856940997764
 20
-114.40532225488084
 10
69.47552019992112
 20
-114.40452853111861
 10
69.47552175942084
 20
-114.40452230524674
 10
69.33273022904028
 20
-114.36875488890288
 10
69.32938718332954
 20
-114.3679609674602
 10
69.32602566070463
 20
-114.36724932743653
 10
69.32361822236363
 20
-114.36677045796299
 10
69.32066318420532
 20
-114.36621558279292
 10
69.31769691154655
 20
-114.36572429521392
 10
69.31684686513482
 20
-114.36560220003649
 10
69.31684783177364
 20
-114.36559568348707
 10
69.17123806144475
 20
-114.3439965138833
 10
69.16783328930218
 20
-114.34353409039187
 10
69.16441819417207
 20
-114.34315536347107
 10
69.1619754077919
 20
-114.34291477001247
 10
69.15855204706756
 20
-114.342619967813
 10
69.15512248258734
 20
-114.34240926787984
 10
69.00809677773617
 20
-114.33518635813279
 10
69.0046630753081
 20
-114.3350598873829
 10
69.00122730329942
 20
-114.33501772199999
 10
68.99877269670058
 20
-114.33501772199999
 10
68.99533692469191
 20
-114.3350598873829
 10
68.99190322226384
 20
-114.33518635813279
 10
68.84487751566265
 20
-114.3424092679658
 10
68.84144794873704
 20
-114.34261996807933
 10
68.83802458557764
 20
-114.3429147705791
 10
68.83558180094747
 20
-114.34315536395174
 10
68.83216670827687
 20
-114.34353409069045
 10
68.82876193858047
 20
-114.34399651387955
 10
68.68315216752657
 20
-114.36559568356373
 10
68.67975976378249
 20
-114.36614152603228
 10
68.67638177743794
 20
-114.36677045799946
 10
68.67397433913101
 20
-114.36724932746922
 10
68.67061281661688
 20
-114.36796096747224
 10
68.66726977101575
 20
-114.36875488888884
 10
68.52447823870068
 20
-114.40452230565465
 10
68.52115564863223
 20
-114.40539803997113
 10
68.51785555106893
 20
-114.40635505168933
 10
68.51550664402212
 20
-114.40706758596082
 10
68.51223108480647
 20
-114.40810527945769
 10
68.50898197815594
 20
-114.40922304595483
 10
68.37038384440353
 20
-114.45881425012605
 10
68.36716311879096
 20
-114.46001142737953
 10
68.36397274340092
 20
-114.46128728462801
 10
68.36170498799697
 20
-114.46222661965321
 10
68.35854688390701
 20
-114.46358038867176
 10
68.35542295414108
 20
-114.46501125373045
 10
68.22235299553316
 20
-114.52794865735586
 10
68.219265128833
 20
-114.52945575302996
 10
68.21621517803935
 20
-114.53103817468208
 10
68.21405041529226
 20
-114.53219526420179
 10
68.21104020538554
 20
-114.53385206554879
 10
68.20807156212327
 20
-114.53558224229332
 10
68.08181132095977
 20
-114.61125971838038
 10
68.0788860283123
 20
-114.61306223100722
 10
68.07600585274177
 20
-114.61493599127101
 10
68.07396492302799
 20
-114.61629969740704
 10
68.07113161875176
 20
-114.61824356302758
 10
68.06834687249594
 20
-114.62025637572701
 10
67.95011229983383
 20
-114.70794511150982
 10
67.94737779034669
 20
-114.71002565781325
 10
67.94469516339953
 20
-114.71217268546054
 10
67.94279772675635
 20
-114.71372987086943
 10
67.9401685777475
 20
-114.71594210426773
 10
67.93759451173698
 20
-114.71821819418088
 10
67.82852427055674
 20
-114.81707369971883
 10
67.82600684829782
 20
-114.81941226537437
 10
67.82354757550623
 20
-114.82181190732504
 10
67.82181190732504
 20
-114.82354757550623
 10
67.81941226537477
 20
-114.8260068482974
 10
67.81707369971961
 20
-114.82852427055587
 10
67.71821819246524
 20
-114.93759451362806
 10
67.71594210019411
 20
-114.94016858237208
 10
67.71372986457344
 20
-114.94279773422853
 10
67.71217268088083
 20
-114.94469516897993
 10
67.71002565559247
 20
-114.94737779319233
 10
67.70794511150967
 20
-114.950112299834
 10
67.62025637572701
 20
-115.06834687249594
 10
67.61824356418413
 20
-115.0711316171096
 10
67.61629969963883
 20
-115.07396491968788
 10
67.61493599048639
 20
-115.07600585378927
 10
67.61306222898102
 20
-115.07888603113618
 10
67.61125971520184
 20
-115.08181132561786
 10
67.53558224213118
 20
-115.20807156239376
 10
67.53385206393666
 20
-115.21104020823134
 10
67.53219526126685
 20
-115.21405042078315
 10
67.53103817117388
 20
-115.21621518483431
 10
67.52939147077096
 20
-115.21939299862845
 10
67.52795169866957
 20
-115.22235443872962
 10
67.52794865562564
 20
-115.22235299947701
 10
67.4650112537801
 20
-115.35542295403609
 10
67.46358038869529
 20
-115.35854688385392
 10
67.46222661965321
 20
-115.36170498799697
 10
67.46128728462801
 20
-115.36397274340092
 10
67.45994281546498
 20
-115.36734135044664
 10
67.45881841739684
 20
-115.37038533838684
 10
67.45881424928987
 20
-115.37038384701434
 10
67.40922304207639
 20
-115.50898198776767
 10
67.4081052657603
 20
-115.51223112410294
 10
67.40706756390748
 20
-115.5155067134671
 10
67.40635503329395
 20
-115.51785561220312
 10
67.40532225488084
 20
-115.52143059002236
 10
67.40452853111861
 20
-115.52447980007888
 10
67.40452230524674
 20
-115.52447824057916
 10
67.36875488890288
 20
-115.66726977095972
 10
67.3679609674602
 20
-115.67061281667046
 10
67.36724932743653
 20
-115.67397433929537
 10
67.36677045796299
 20
-115.67638177763637
 10
67.36621558279292
 20
-115.67933681579468
 10
67.36572429521392
 20
-115.68230308845345
 10
67.36560220003649
 20
-115.68315313486518
 10
67.36559568348707
 20
-115.68315216822636
 10
67.3439965138833
 20
-115.82876193855525
 10
67.34353409039187
 20
-115.83216671069782
 10
67.34315536347107
 20
-115.83558180582793
 10
67.34291477001247
 20
-115.8380245922081
 10
67.342619967813
 20
-115.84144795293244
 10
67.34240926787984
 20
-115.84487751741266
 10
67.33518635813279
 20
-115.99190322226383
 10
67.3350598873829
 20
-115.9953369246919
 10
67.33501772199999
 20
-115.99877269670058
 10
67.33501772199999
 20
-116.00122730329942
 10
67.3350598873829
 20
-116.00466307530809
 10
67.33518635813279
 20
-116.00809677773616
  0
LWPOLYLINE
  5
33
330
17
100
AcDbEntity
  8
0
100
AcDbPolyline
 90
401
 70
0
 10
147.33518635813277
 20
-41.00809677773646
 10
147.34240926796582
 20
-41.15512248433767
 10
147.34261996807936
 20
-41.158552051263285
 10
147.34291477057914
 20
-41.161975414422706
 10
147.34315536395172
 20
-41.16441819905229
 10
147.34353409069044
 20
-41.16783329172284
 10
147.34399651387952
 20
-41.1712380614192
 10
147.36559568356375
 20
-41.31684783247362
 10
147.36614152603215
 20
-41.32024023621683
 10
147.36677045799914
 20
-41.32361822256053
 10
147.3672493274688
 20
-41.326025660867195
 10
147.3679609674735
 20
-41.32938718338885
 10
147.3687548888921
 20
-41.33273022899741
 10
147.40452230574272
 20
-41.475521761592006
 10
147.40539803538334
 20
-41.4788443347629
 10
147.40635504159914
 20
-41.482144415668316
 10
147.40706757269086
 20
-41.484493314349926
 10
147.40819488822484
 20
-41.488039242397285
 10
147.4092290812894
 20
-41.491015859775814
 10
147.40922304513296
 20
-41.49101801954708
 10
147.45881425025658
 20
-41.6296161559135
 10
147.46001142750754
 20
-41.632836881518514
 10
147.46128728475313
 20
-41.63602725690111
 10
147.46222661965285
 20
-41.63829501200218
 10
147.46358038867152
 20
-41.64145311609244
 10
147.46501125373035
 20
-41.64457704585867
 10
147.5279486573559
 20
-41.7776470044669
 10
147.52945575303016
 20
-41.78073487116742
 10
147.5310381746825
 20
-41.783784821961426
 10
147.5321952642023
 20
-41.78594958470867
 10
147.5338520655491
 20
-41.78895979461503
 10
147.53558224229343
 20
-41.791928437876955
 10
147.61125971838038
 20
-41.91818867904028
 10
147.61306223100746
 20
-41.92111397168814
 10
147.61493599127155
 20
-41.92399414725906
 10
147.6162996974073
 20
-41.92603507697239
 10
147.6182435630276
 20
-41.92886838124822
 10
147.62025637572674
 20
-41.931653127503665
 10
147.7079451115098
 20
-42.0498877001661
 10
147.7100256578127
 20
-42.052622209652576
 10
147.71217268545945
 20
-42.0553048365991
 10
147.71372987086835
 20
-42.05720227324234
 10
147.71594210426716
 20
-42.05983142225187
 10
147.71821819418088
 20
-42.06240548826304
 10
147.81707369971886
 20
-42.17147572944329
 10
147.8194122653743
 20
-42.17399315170209
 10
147.82181190732484
 20
-42.17645242449359
 10
147.82354757550593
 20
-42.17818809267468
 10
147.8260068482972
 20
-42.18058773462506
 10
147.8285242705558
 20
-42.18292630028031
 10
147.937594513628
 20
-42.28178180753471
 10
147.9401685823723
 20
-42.28405789980608
 10
147.94279773422906
 20
-42.28627013542699
 10
147.94469516898025
 20
-42.28782731911941
 10
147.94737779319235
 20
-42.28997434440752
 10
147.95011229983373
 20
-42.292054888490085
 10
148.0683468724963
 20
-42.379743624273246
 10
148.07113161711018
 20
-42.38175643581629
 10
148.07396491968868
 20
-42.38370030036172
 10
148.0760058537894
 20
-42.38506400951371
 10
148.0788860311361
 20
-42.38693777101893
 10
148.08181132561756
 20
-42.38874028479796
 10
148.20807156239374
 20
-42.46441775786881
 10
148.2110402169206
 20
-42.46614794098575
 10
148.21405043839806
 20
-42.46780474814852
 10
148.21621520741311
 20
-42.46896184049767
 10
148.21926514675008
 20
-42.47054425566315
 10
148.22235300169615
 20
-42.472051345423935
 10
148.35542295403607
 20
-42.53498874621988
 10
148.3585468935169
 20
-42.536419615587995
 10
148.36170500752732
 20
-42.53777338843652
 10
148.3639727683063
 20
-42.53871272528695
 10
148.367163133803
 20
-42.539988578163104
 10
148.37038384932546
 20
-42.54118575153706
 10
148.5089819877656
 20
-42.59077695792296
 10
148.51223112410065
 20
-42.59189473423899
 10
148.51550671346462
 20
-42.592932436091765
 10
148.5178556122026
 20
-42.593644966705895
 10
148.5214308966482
 20
-42.594677829301574
 10
148.52447980166025
 20
-42.59547146256834
 10
148.52447824057919
 20
-42.595477694753264
 10
148.66726977095988
 20
-42.631245111097165
 10
148.6706128166708
 20
-42.63203903253988
 10
148.6739743392959
 20
-42.6327506725636
 10
148.6763817776367
 20
-42.63322954203709
 10
148.67933669864038
 20
-42.6337843965085
 10
148.6823028533096
 20
-42.63427566843011
 10
148.68315313497232
 20
-42.634397799241114
 10
148.68315216822634
 20
-42.634404316512935
 10
148.8287619385552
 20
-42.6560034861167
 10
148.8321667106976
 20
-42.656465909608116
 10
148.83558180582756
 20
-42.6568446365289
 10
148.83802459220774
 20
-42.65708522998751
 10
148.84144795293224
 20
-42.65738003218701
 10
148.84487751741264
 20
-42.65759073212017
 10
148.99190322226355
 20
-42.664813641867205
 10
148.9953369246916
 20
-42.66494011261708
 10
148.99877269670029
 20
-42.664982278
 10
149.00122730329971
 20
-42.664982278
 10
149.0046630753084
 20
-42.66494011261708
 10
149.00809677773645
 20
-42.6648136418672
 10
149.15512248433734
 20
-42.65759073203419
 10
149.15855205126266
 20
-42.65738003192068
 10
149.1619754144218
 20
-42.65708522942094
 10
149.164418199052
 20
-42.65684463604831
 10
149.16783329172287
 20
-42.65646590930958
 10
149.17123806141953
 20
-42.65600348612045
 10
149.31684783247346
 20
-42.63440431643627
 10
149.32024023621727
 20
-42.63385847396777
 10
149.32361822256155
 20
-42.633229542000656
 10
149.32602566086828
 20
-42.632750672530946
 10
149.3293871833827
 20
-42.63203903252787
 10
149.3327302289841
 20
-42.631245111111205
 10
149.4755217612996
 20
-42.595477694345284
 10
149.47884433447717
 20
-42.594601964703145
 10
149.48214441538917
 20
-42.59364495848553
 10
149.48449331434963
 20
-42.592932427309215
 10
149.48803899306984
 20
-42.59180519470452
 10
149.49101586158835
 20
-42.59077092377643
 10
149.49101801954703
 20
-42.59077695486706
 10
149.6296161559128
 20
-42.54118574974371
 10
149.6328368815178
 20
-42.539988572492746
 10
149.63602725690038
 20
-42.53871271524716
 10
149.6382950120026
 20
-42.537773380346955
 10
149.64145311609846
 20
-42.536419611325805
 10
149.64457704587016
 20
-42.53498874626423
 10
149.77764700470806
 20
-42.47205134251588
 10
149.78073487140256
 20
-42.47054424684429
 10
149.7837848221907
 20
-42.46896182519496
 10
149.7859495847077
 20
-42.46780473579824
 10
149.7889597946145
 20
-42.4661479344512
 10
149.79192843787683
 20
-42.464417757706634
 10
149.91818867904036
 20
-42.38874028161956
 10
149.92111397168813
 20
-42.38693776899254
 10
149.92399414725895
 20
-42.385064008728534
 10
149.92603507697223
 20
-42.38370030259283
 10
149.92886838124815
 20
-42.38175643697248
 10
149.9316531275037
 20
-42.379743624273246
 10
150.04988770016627
 20
-42.292054888490085
 10
150.05262220965292
 20
-42.289974342187044
 10
150.05530483659962
 20
-42.287827314540145
 10
150.05720227324264
 20
-42.28627012913142
 10
150.059831422252
 20
-42.28405789573274
 10
150.06240548826298
 20
-42.281781805819186
 10
150.17147572944336
 20
-42.18292630028109
 10
150.17399315170238
 20
-42.180587734625455
 10
150.17645242449407
 20
-42.17818809267468
 10
150.17818809267516
 20
-42.17645242449359
 10
150.1805877346253
 20
-42.17399315170251
 10
150.18292630028037
 20
-42.171475729444154
 10
150.28178180753477
 20
-42.062405486371965
 10
150.28405789980653
 20
-42.05983141762718
 10
150.28627013542783
 20
-42.05720226576995
 10
150.28782731912025
 20
-42.055304831018724
 10
150.28997434440797
 20
-42.052622206807065
 10
150.29205488849016
 20
-42.04988770016618
 10
150.37974362427326
 20
-41.93165312750367
 10
150.38175643581602
 20
-41.92886838289021
 10
150.38370030036117
 20
-41.92603508031213
 10
150.3850640095133
 20
-41.92399414621125
 10
150.3869377710188
 20
-41.92111396886413
 10
150.3887402847981
 20
-41.918188674382236
 10
150.46441775786872
 20
-41.79192843760641
 10
150.46614793606284
 20
-41.78895979176955
 10
150.46780473873227
 20
-41.78594957921848
 10
150.46896182882537
 20
-41.783784815167145
 10
150.47060867099705
 20
-41.78060671900771
 10
150.47204829490477
 20
-41.77764555823124
 10
150.47205134437436
 20
-41.77764700052297
 10
150.53498874622002
 20
-41.64457704596355
 10
150.53641961558782
 20
-41.64145310648347
 10
150.53777338843608
 20
-41.63829499247376
 10
150.5387127252863
 20
-41.63602723169535
 10
150.53998857816276
 20
-41.632836866197955
 10
150.541185751537
 20
-41.62961615067476
 10
150.59077695792286
 20
-41.49101801223476
 10
150.59189473544814
 20
-41.487768872239165
 10
150.5929324383298
 20
-41.484493279157526
 10
150.59364496958
 20
-41.48214437785702
 10
150.59460197034286
 20
-41.478844313462126
 10
150.5954776953498
 20
-41.47552175703931
 10
150.63124511109717
 20
-41.33273022904026
 10
150.63203903254006
 20
-41.32938718332851
 10
150.63275067256393
 20
-41.32602566070255
 10
150.6332295420374
 20
-41.32361822236165
 10
150.63378446522134
 20
-41.320662912441726
 10
150.63427578911933
 20
-41.317696366084405
 10
150.6343978016416
 20
-41.31684686538373
 10
150.63440431651293
 20
-41.31684783177363
 10
150.65600348611673
 20
-41.17123806144448
 10
150.65646590960822
 20
-41.1678332893014
 10
150.65684463652906
 20
-41.16441819417078
 10
150.65708522998762
 20
-41.161975407790855
 10
150.65738003218704
 20
-41.15855204706704
 10
150.65759073212016
 20
-41.15512248258735
 10
150.66481364186723
 20
-41.008096777736476
 10
150.6649401126171
 20
-41.004663075308386
 10
150.664982278
 20
-41.00122730329969
 10
150.664982278
 20
-40.99877269670031
 10
150.6649401126171
 20
-40.99533692469162
 10
150.66481364186723
 20
-40.99190322226354
 10
150.65759073203418
 20
-40.84487751566233
 10
150.65738003192064
 20
-40.841447948736715
 10
150.65708522942086
 20
-40.838024585577294
 10
150.65684463604828
 20
-40.83558180094771
 10
150.65646590930956
 20
-40.83216670827716
 10
150.65600348612048
 20
-40.8287619385808
 10
150.63440431643625
 20
-40.68315216752638
 10
150.63385847396785
 20
-40.67975976378317
 10
150.63322954200086
 20
-40.67638177743947
 10
150.6327506725312
 20
-40.673974339132805
 10
150.6320390325265
 20
-40.67061281661115
 10
150.6312451111079
 20
-40.66726977100259
 10
150.59547769425728
 20
-40.524478238407994
 10
150.59460196461666
 20
-40.5211556652371
 10
150.59364495840086
 20
-40.517855584331684
 10
150.59293242730914
 20
-40.515506685650074
 10
150.59180511177516
 20
-40.511960757602715
 10
150.5907709187106
 20
-40.508984140224186
 10
150.59077695486704
 20
-40.50898198045292
 10
150.54118574974342
 20
-40.3703838440865
 10
150.53998857249246
 20
-40.367163118481486
 10
150.53871271524687
 20
-40.36397274309889
 10
150.53777338034715
 20
-40.36170498799782
 10
150.53641961132848
 20
-40.35854688390756
 10
150.53498874626965
 20
-40.35542295414133
 10
150.4720513426441
 20
-40.2223529955331
 10
150.47054424696984
 20
-40.21926512883258
 10
150.4689618253175
 20
-40.216215178038574
 10
150.4678047357977
 20
-40.21405041529133
 10
150.4661479344509
 20
-40.21104020538497
 10
150.46441775770657
 20
-40.208071562123045
 10
150.38874028161962
 20
-40.08181132095972
 10
150.38693776899254
 20
-40.07888602831186
 10
150.38506400872845
 20
-40.07600585274094
 10
150.3837003025927
 20
-40.07396492302761
 10
150.3817564369724
 20
-40.07113161875178
 10
150.37974362427326
 20
-40.068346872496335
 10
150.2920548884902
 20
-39.9501122998339
 10
150.2899743421873
 20
-39.947377790347424
 10
150.28782731454055
 20
-39.9446951634009
 10
150.28627012913165
 20
-39.94279772675766
 10
150.28405789573284
 20
-39.94016857774813
 10
150.28178180581912
 20
-39.93759451173696
 10
150.18292630028114
 20
-39.82852427055671
 10
150.1805877346257
 20
-39.82600684829791
 10
150.17818809267516
 20
-39.82354757550641
 10
150.17645242449407
 20
-39.82181190732532
 10
150.1739931517028
 20
-39.81941226537494
 10
150.1714757294442
 20
-39.81707369971969
 10
150.062405486372
 20
-39.71821819246529
 10
150.0598314176277
 20
-39.71594210019392
 10
150.05720226577094
 20
-39.71372986457301
 10
150.05530483101975
 20
-39.71217268088059
 10
150.05262220680765
 20
-39.71002565559248
 10
150.04988770016627
 20
-39.707945111509915
 10
149.9316531275037
 20
-39.620256375726754
 10
149.92886838288982
 20
-39.61824356418371
 10
149.92603508031132
 20
-39.61629969963828
 10
149.9239941462106
 20
-39.61493599048629
 10
149.9211139688639
 20
-39.61306222898107
 10
149.91818867438244
 20
-39.61125971520204
 10
149.79192843760626
 20
-39.53558224213119
 10
149.7889597830794
 20
-39.53385205901425
 10
149.78594956160194
 20
-39.53219525185148
 10
149.78378479258689
 20
-39.53103815950233
 10
149.78073485324992
 20
-39.52945574433685
 10
149.77764699830385
 20
-39.527948654576065
 10
149.64457704596393
 20
-39.46501125378012
 10
149.6414531064831
 20
-39.463580384412005
 10
149.63829499247268
 20
-39.46222661156348
 10
149.6360272316937
 20
-39.46128727471305
 10
149.632836866197
 20
-39.460011421836896
 10
149.62961615067454
 20
-39.45881424846294
 10
149.4910180122344
 20
-39.40922304207704
 10
149.48776887589935
 20
-39.40810526576101
 10
149.48449328653538
 20
-39.407067563908235
 10
149.4821443877974
 20
-39.406355033294105
 10
149.4785691033518
 20
-39.405322170698426
 10
149.47552019833975
 20
-39.40452853743166
 10
149.47552175942081
 20
-39.404522305246736
 10
149.33273022904012
 20
-39.368754888902835
 10
149.3293871833292
 20
-39.36796096746012
 10
149.3260256607041
 20
-39.3672493274364
 10
149.3236182223633
 20
-39.36677045796291
 10
149.32066330135962
 20
-39.3662156034915
 10
149.3176971466904
 20
-39.36572433156989
 10
149.31684686502768
 20
-39.365602200758886
 10
149.31684783177366
 20
-39.365595683487065
 10
149.1712380614448
 20
-39.3439965138833
 10
149.1678332893024
 20
-39.343534090391884
 10
149.16441819417244
 20
-39.3431553634711
 10
149.16197540779226
 20
-39.34291477001249
 10
149.15855204706776
 20
-39.34261996781299
 10
149.15512248258736
 20
-39.34240926787983
 10
149.00809677773645
 20
-39.335186358132795
 10
149.0046630753084
 20
-39.33505988738292
 10
149.00122730329971
 20
-39.335017722
 10
148.99877269670029
 20
-39.335017722
 10
148.9953369246916
 20
-39.33505988738292
 10
148.99190322226355
 20
-39.3351863581328
 10
148.84487751566266
 20
-39.34240926796581
 10
148.84144794873734
 20
-39.34261996807932
 10
148.8380245855782
 20
-39.34291477057906
 10
148.835581800948
 20
-39.34315536395169
 10
148.83216670827713
 20
-39.34353409069042
 10
148.82876193858047
 20
-39.34399651387955
 10
148.68315216752654
 20
-39.36559568356373
 10
148.67975976378273
 20
-39.36614152603223
 10
148.67638177743845
 20
-39.366770457999344
 10
148.67397433913172
 20
-39.367249327469054
 10
148.6706128166173
 20
-39.36796096747213
 10
148.6672697710159
 20
-39.368754888888795
 10
148.5244782387004
 20
-39.404522305654716
 10
148.52115566552283
 20
-39.405398035296855
 10
148.51785558461083
 20
-39.40635504151447
 10
148.51550668565037
 20
-39.407067572690785
 10
148.51196100693016
 20
-39.40819480529548
 10
148.50898413841165
 20
-39.40922907622357
 10
148.50898198045297
 20
-39.40922304513294
 10
148.3703838440872
 20
-39.45881425025629
 10
148.3671631184822
 20
-39.460011427507254
 10
148.36397274309962
 20
-39.46128728475284
 10
148.3617049879974
 20
-39.462226619653045
 10
148.35854688390154
 20
-39.463580388674195
 10
148.35542295412984
 20
-39.46501125373577
 10
148.22235299529194
 20
-39.52794865748412
 10
148.21926512859744
 20
-39.52945575315571
 10
148.2162151778093
 20
-39.53103817480504
 10
148.2140504152923
 20
-39.53219526420176
 10
148.2110402053855
 20
-39.5338520655488
 10
148.20807156212317
 20
-39.535582242293366
 10
148.08181132095964
 20
-39.61125971838044
 10
148.07888602831187
 20
-39.61306223100746
 10
148.07600585274105
 20
-39.614935991271466
 10
148.07396492302777
 20
-39.61629969740717
 10
148.07113161875185
 20
-39.61824356302752
 10
148.0683468724963
 20
-39.620256375726754
 10
147.95011229983373
 20
-39.707945111509915
 10
147.94737779034708
 20
-39.710025657812956
 10
147.94469516340038
 20
-39.712172685459855
 10
147.94279772675736
 20
-39.71372987086858
 10
147.940168577748
 20
-39.71594210426726
 10
147.93759451173702
 20
-39.718218194180814
 10
147.82852427055664
 20
-39.81707369971891
 10
147.82600684829762
 20
-39.819412265374545
 10
147.82354757550593
 20
-39.82181190732532
 10
147.82181190732484
 20
-39.82354757550641
 10
147.8194122653747
 20
-39.82600684829749
 10
147.81707369971963
 20
-39.828524270555846
 10
147.71821819246523
 20
-39.937594513628035
 10
147.71594210019347
 20
-39.94016858237282
 10
147.71372986457217
 20
-39.94279773423005
 10
147.71217268087975
 20
-39.944695168981276
 10
147.71002565559203
 20
-39.947377793192935
 10
147.70794511150984
 20
-39.95011229983382
 10
147.62025637572674
 20
-40.06834687249633
 10
147.61824356418398
 20
-40.07113161710979
 10
147.61629969963883
 20
-40.07396491968787
 10
147.6149359904867
 20
-40.07600585378875
 10
147.6130622289812
 20
-40.07888603113587
 10
147.6112597152019
 20
-40.081811325617764
 10
147.53558224213128
 20
-40.20807156239359
 10
147.53385206393716
 20
-40.21104020823045
 10
147.53219526126773
 20
-40.21405042078152
 10
147.53103817117463
 20
-40.216215184832855
 10
147.52939132900295
 20
-40.21939328099229
 10
147.52795170509523
 20
-40.22235444176876
 10
147.52794865562564
 20
-40.22235299947703
 10
147.46501125377998
 20
-40.35542295403645
 10
147.46358038441218
 20
-40.35854689351653
 10
147.46222661156392
 20
-40.36170500752624
 10
147.4612872747137
 20
-40.36397276830465
 10
147.46001142183724
 20
-40.36716313380205
 10
147.458814248463
 20
-40.37038384932525
 10
147.4092230420772
 20
-40.5089819877651
 10
147.408105264552
 20
-40.512231127760394
 10
147.40706756167043
 20
-40.51550672084172
 10
147.40635503042017
 20
-40.51785562214238
 10
147.40539802965722
 20
-40.521155686537575
 10
147.4045223046502
 20
-40.52447824296069
 10
147.36875488890283
 20
-40.66726977095974
 10
147.36796096745994
 20
-40.67061281667149
 10
147.36724932743607
 20
-40.67397433929745
 10
147.3667704579626
 20
-40.67638177763835
 10
147.36621553477866
 20
-40.679337087558274
 10
147.36572421088067
 20
-40.682303633915595
 10
147.3656021983584
 20
-40.68315313461627
 10
147.36559568348707
 20
-40.68315216822637
 10
147.34399651388327
 20
-40.82876193855552
 10
147.34353409039178
 20
-40.8321667106986
 10
147.34315536347094
 20
-40.83558180582922
 10
147.34291477001238
 20
-40.838024592209145
 10
147.34261996781296
 20
-40.84144795293296
 10
147.34240926787984
 20
-40.84487751741265
 10
147.33518635813277
 20
-40.991903222263524
 10
147.3350598873829
 20
-40.995336924691614
 10
147.335017722
 20
-40.99877269670031
 10
147.335017722
 20
-41.00122730329969
 10
147.3350598873829
 20
-41.00466307530838
 10
147.33518635813277
 20
-41.00809677773646
  0
LWPOLYLINE
  5
34
330
17
100
AcDbEntity
  8
0
100
AcDbPolyline
 90
399
 70
0
 10
67.33518635813279
 20
-41.00809677773614
 10
67.3424092679658
 20
-41.15512248433736
 10
67.34261996807933
 20
-41.15855205126302
 10
67.34291477057911
 20
-41.16197541442248
 10
67.34315536395175
 20
-41.16441819905263
 10
67.34353409069104
 20
-41.167833291727774
 10
67.34399651388091
 20
-41.171238061428696
 10
67.36559568360394
 20
-41.31684783267797
 10
67.36614152607189
 20
-41.320240236417185
 10
67.3667704580382
 20
-41.323618222756906
 10
67.36724932746908
 20
-41.32602566086842
 10
67.36796096747216
 20
-41.32938718338281
 10
67.36875488888882
 20
-41.332730228984204
 10
67.40452230565467
 20
-41.47552176129936
 10
67.40539803997108
 20
-41.47884435136755
 10
67.40635505168919
 20
-41.48214444893058
 10
67.40706758596066
 20
-41.48449335597738
 10
67.4081052794576
 20
-41.487768915193286
 10
67.40922304595483
 20
-41.49101802184407
 10
67.45881425012604
 20
-41.62961615559644
 10
67.4600114273794
 20
-41.63283688120873
 10
67.46128728462776
 20
-41.636027256598474
 10
67.46222661965295
 20
-41.63829501200245
 10
67.46358038867163
 20
-41.64145311609271
 10
67.46501125373044
 20
-41.64457704585894
 10
67.52794865735578
 20
-41.77764700446668
 10
67.52945575302974
 20
-41.78073487116652
 10
67.53103817468167
 20
-41.78378482195988
 10
67.53219526420146
 20
-41.78594958470715
 10
67.53385206554863
 20
-41.78895979461417
 10
67.53558224229332
 20
-41.79192843787675
 10
67.61125971838042
 20
-41.91818867904029
 10
67.61306223100726
 20
-41.92111397168776
 10
67.61493599127105
 20
-41.92399414725829
 10
67.61629969740704
 20
-41.92603507697201
 10
67.61824356302758
 20
-41.92886838124823
 10
67.62025637572701
 20
-41.931653127504056
 10
67.70794511150976
 20
-42.0498877001661
 10
67.71002565781325
 20
-42.052622209653315
 10
67.71217268546062
 20
-42.055304836600556
 10
67.71372987086956
 20
-42.057202273243796
 10
67.71594210426778
 20
-42.05983142225257
 10
67.71821819418086
 20
-42.062405488263025
 10
67.81707369971882
 20
-42.17147572944327
 10
67.81941226537445
 20
-42.17399315170229
 10
67.82181190732524
 20
-42.176452424493995
 10
67.82354757550634
 20
-42.178188092675086
 10
67.82600684829741
 20
-42.180587734625256
 10
67.82852427055579
 20
-42.18292630028031
 10
67.93759451362804
 20
-42.28178180753475
 10
67.94016858237238
 20
-42.28405789980614
 10
67.94279773422916
 20
-42.286270135427074
 10
67.94469516898057
 20
-42.28782731911968
 10
67.94737779319266
 20
-42.28997434440776
 10
67.95011229983399
 20
-42.292054888490306
 10
68.06834687249601
 20
-42.379743624273054
 10
68.0711316171099
 20
-42.38175643581611
 10
68.07396491968842
 20
-42.38370030036155
 10
68.07600585378971
 20
-42.38506400951391
 10
68.07888603113639
 20
-42.38693777101912
 10
68.08181132561785
 20
-42.388740284798146
 10
68.20807156239376
 20
-42.464417757868816
 10
68.21104020823118
 20
-42.46614793606325
 10
68.21405042078283
 20
-42.467804738732994
 10
68.21621518483398
 20
-42.468961828825975
 10
68.2193930891062
 20
-42.47060857465581
 10
68.22235443970352
 20
-42.47204829927133
 10
68.22235299947702
 20
-42.47205134437437
 10
68.35542295403587
 20
-42.53498874621978
 10
68.35854688385376
 20
-42.53641961130462
 10
68.36170498799687
 20
-42.537773380346735
 10
68.3639727434012
 20
-42.538712715372085
 10
68.36734124375698
 20
-42.54005714354733
 10
68.37038533754682
 20
-42.54118158495084
 10
68.37038384701434
 20
-42.54118575071012
 10
68.50898198776763
 20
-42.59077695792359
 10
68.51223112410268
 20
-42.59189473423961
 10
68.51550671346664
 20
-42.592932436092376
 10
68.51785561220277
 20
-42.593644966705945
 10
68.52143197412892
 20
-42.59467812511194
 10
68.52447980721422
 20
-42.59547144039547
 10
68.52447824057916
 20
-42.595477694753264
 10
68.66726977095973
 20
-42.63124511109712
 10
68.6706128166705
 20
-42.6320390325398
 10
68.67397433929546
 20
-42.632750672563496
 10
68.67638177763642
 20
-42.63322954203703
 10
68.68032402880206
 20
-42.63395519523433
 10
68.68315388644628
 20
-42.6343927332154
 10
68.68315216822636
 20
-42.634404316512935
 10
68.82876193855525
 20
-42.65600348611671
 10
68.83216671069782
 20
-42.656465909608144
 10
68.83558180582793
 20
-42.656844636528945
 10
68.8380245922081
 20
-42.657085229987544
 10
68.84144795293246
 20
-42.65738003218702
 10
68.84487751741267
 20
-42.65759073212017
 10
68.99190322226356
 20
-42.664813641867205
 10
68.99533692469163
 20
-42.66494011261708
 10
68.9987726967003
 20
-42.664982278
 10
69.0012273032997
 20
-42.664982278
 10
69.00466307530839
 20
-42.66494011261708
 10
69.00809677773645
 20
-42.6648136418672
 10
69.15512248433737
 20
-42.65759073203419
 10
69.15855205126276
 20
-42.657380031920674
 10
69.16197541442195
 20
-42.65708522942093
 10
69.16441819905212
 20
-42.6568446360483
 10
69.16783329172293
 20
-42.65646590930957
 10
69.17123806141953
 20
-42.65600348612045
 10
69.31684783247346
 20
-42.63440431643627
 10
69.32024023621757
 20
-42.63385847396771
 10
69.32361822256216
 20
-42.63322954200053
 10
69.32602566086905
 20
-42.632750672530776
 10
69.32938718338315
 20
-42.63203903252776
 10
69.33273022898423
 20
-42.63124511111116
 10
69.47552176129949
 20
-42.595477694345306
 10
69.47884435136808
 20
-42.59460196002879
 10
69.48214444893152
 20
-42.59364494831055
 10
69.48449335597803
 20
-42.59293241403915
 10
69.48776891519354
 20
-42.59189472054231
 10
69.49101802184393
 20
-42.59077695404521
 10
69.62961615559631
 20
-42.54118574987399
 10
69.63283688120883
 20
-42.53998857262054
 10
69.6360272565988
 20
-42.538712715372085
 10
69.63829501200313
 20
-42.537773380346735
 10
69.64145311609316
 20
-42.53641961132815
 10
69.64457704585915
 20
-42.534988746269434
 10
69.77764700446693
 20
-42.4720513426441
 10
69.78073487116714
 20
-42.470544246969965
 10
69.78378482196086
 20
-42.46896182531782
 10
69.78594958470786
 20
-42.467804735798154
 10
69.78895979461453
 20
-42.466147934451186
 10
69.79192843787673
 20
-42.4644177577067
 10
69.91818867904023
 20
-42.38874028161964
 10
69.9211139716877
 20
-42.3869377689928
 10
69.92399414725824
 20
-42.385064008729
 10
69.92603507697194
 20
-42.38370030259303
 10
69.92886838124817
 20
-42.38175643697249
 10
69.93165312750399
 20
-42.379743624273054
 10
70.04988770016601
 20
-42.292054888490306
 10
70.05262220965282
 20
-42.28997434218713
 10
70.05530483659969
 20
-42.28782731454009
 10
70.05720227324312
 20
-42.28627012913101
 10
70.05983142225229
 20
-42.28405789573247
 10
70.06240548826312
 20
-42.28178180581906
 10
70.17147572944336
 20
-42.18292630028109
 10
70.17399315170216
 20
-42.180587734625654
 10
70.17645242449366
 20
-42.178188092675086
 10
70.17818809267476
 20
-42.176452424493995
 10
70.18058773462513
 20
-42.17399315170272
 10
70.18292630028039
 20
-42.17147572944414
 10
70.28178180753473
 20
-42.062405486371986
 10
70.28405789980594
 20
-42.05983141762785
 10
70.28627013542672
 20
-42.05720226577129
 10
70.28782731911936
 20
-42.055304831019846
 10
70.28997434440761
 20
-42.05262220680755
 10
70.29205488849033
 20
-42.04988770016599
 10
70.37974362427299
 20
-41.93165312750405
 10
70.38175643581582
 20
-41.928868382890485
 10
70.38370030036104
 20
-41.92603508031232
 10
70.38506400951339
 20
-41.923994146211086
 10
70.38693777101881
 20
-41.92111396886408
 10
70.38874028479805
 20
-41.9181886743823
 10
70.46441775786884
 20
-41.79192843760621
 10
70.46614793606345
 20
-41.7889597917685
 10
70.46780473873334
 20
-41.78594957921655
 10
70.46896182882628
 20
-41.78378481516543
 10
70.47060858014335
 20
-41.780606899964084
 10
70.47204829902259
 20
-41.77764556017887
 10
70.47205134437436
 20
-41.777647000523004
 10
70.53498874621991
 20
-41.64457704596392
 10
70.53641961130485
 20
-41.6414531161458
 10
70.53777338034705
 20
-41.63829501200245
 10
70.53871271537224
 20
-41.636027256598474
 10
70.54005718611646
 20
-41.63265864543693
 10
70.54118158251259
 20
-41.62961466158077
 10
70.54118575071013
 20
-41.629616152985676
 10
70.59077695792361
 20
-41.49101801223234
 10
70.59189473423965
 20
-41.48776887589724
 10
70.59293243609243
 20
-41.484493286533244
 10
70.59364496670595
 20
-41.48214438779725
 10
70.59467814998753
 20
-41.47856793526095
 10
70.59547143853163
 20
-41.475520192318925
 10
70.59547769475326
 20
-41.47552175942086
 10
70.63124511109714
 20
-41.33273022904021
 10
70.63203903366525
 20
-41.329387178317674
 10
70.6327506745677
 20
-41.32602565062873
 10
70.63322954447804
 20
-41.32361820916854
 10
70.63385847529864
 20
-41.320240227933205
 10
70.63440431687313
 20
-41.31684782934535
 10
70.6560034861167
 20
-41.171238061444775
 10
70.65646590960814
 20
-41.1678332893021
 10
70.65684463652896
 20
-41.16441819417189
 10
70.65708522998756
 20
-41.16197540779168
 10
70.65738003218702
 20
-41.15855204706744
 10
70.65759073212016
 20
-41.15512248258732
 10
70.66481364186721
 20
-41.00809677773616
 10
70.6649401126171
 20
-41.00466307530808
 10
70.66498227800001
 20
-41.0012273032994
 10
70.66498227800001
 20
-40.9987726967006
 10
70.6649401126171
 20
-40.99533692469193
 10
70.66481364186721
 20
-40.99190322226386
 10
70.6575907320342
 20
-40.84487751566264
 10
70.65738003192067
 20
-40.84144794873698
 10
70.65708522942089
 20
-40.83802458557752
 10
70.65684463604825
 20
-40.83558180094737
 10
70.65646590930896
 20
-40.832166708272226
 10
70.65600348611909
 20
-40.828761938571304
 10
70.63440431639606
 20
-40.68315216732203
 10
70.63385847392811
 20
-40.679759763582815
 10
70.6332295419618
 20
-40.676381777243094
 10
70.63275067253092
 20
-40.67397433913158
 10
70.63203903252784
 20
-40.67061281661719
 10
70.63124511111118
 20
-40.667269771015796
 10
70.59547769434533
 20
-40.52447823870064
 10
70.59460196002892
 20
-40.52115564863245
 10
70.59364494831081
 20
-40.51785555106942
 10
70.59293241403934
 20
-40.51550664402262
 10
70.5918947205424
 20
-40.512231084806714
 10
70.59077695404517
 20
-40.50898197815593
 10
70.54118574987396
 20
-40.37038384440356
 10
70.5399885726206
 20
-40.36716311879127
 10
70.53871271537224
 20
-40.363972743401526
 10
70.53777338034705
 20
-40.36170498799755
 10
70.53641961132837
 20
-40.35854688390729
 10
70.53498874626956
 20
-40.35542295414106
 10
70.47205134264422
 20
-40.22235299553332
 10
70.47054424697026
 20
-40.21926512883348
 10
70.46896182531833
 20
-40.21621517804012
 10
70.46780473579854
 20
-40.21405041529285
 10
70.46614793445137
 20
-40.21104020538583
 10
70.46441775770668
 20
-40.20807156212325
 10
70.38874028161958
 20
-40.08181132095971
 10
70.38693776899274
 20
-40.07888602831224
 10
70.38506400872895
 20
-40.07600585274171
 10
70.38370030259296
 20
-40.07396492302799
 10
70.38175643697242
 20
-40.07113161875177
 10
70.37974362427299
 20
-40.068346872495944
 10
70.29205488849024
 20
-39.9501122998339
 10
70.28997434218675
 20
-39.947377790346685
 10
70.28782731453938
 20
-39.944695163399444
 10
70.28627012913044
 20
-39.942797726756204
 10
70.28405789573222
 20
-39.94016857774743
 10
70.28178180581914
 20
-39.937594511736975
 10
70.18292630028118
 20
-39.82852427055673
 10
70.18058773462555
 20
-39.82600684829771
 10
70.17818809267476
 20
-39.823547575506005
 10
70.17645242449366
 20
-39.821811907324914
 10
70.17399315170259
 20
-39.819412265374744
 10
70.17147572944421
 20
-39.81707369971969
 10
70.06240548637196
 20
-39.71821819246525
 10
70.05983141762762
 20
-39.71594210019386
 10
70.05720226577084
 20
-39.713729864572926
 10
70.05530483101943
 20
-39.71217268088032
 10
70.05262220680734
 20
-39.71002565559224
 10
70.04988770016601
 20
-39.707945111509694
 10
69.93165312750399
 20
-39.620256375726946
 10
69.9288683828901
 20
-39.61824356418389
 10
69.92603508031158
 20
-39.61629969963845
 10
69.92399414621029
 20
-39.61493599048609
 10
69.92111396886361
 20
-39.61306222898088
 10
69.91818867438215
 20
-39.611259715201854
 10
69.79192843760624
 20
-39.535582242131184
 10
69.78895979176882
 20
-39.53385206393675
 10
69.78594957921717
 20
-39.532195261267006
 10
69.78378481516602
 20
-39.531038171174025
 10
69.7806069108938
 20
-39.52939142534419
 10
69.77764556029648
 20
-39.52795170072867
 10
69.77764700052298
 20
-39.52794865562563
 10
69.64457704596413
 20
-39.46501125378022
 10
69.64145311614624
 20
-39.46358038869538
 10
69.63829501200313
 20
-39.462226619653265
 10
69.6360272565988
 20
-39.461287284627915
 10
69.63265875624302
 20
-39.45994285645267
 10
69.62961466245318
 20
-39.45881841504916
 10
69.62961615298566
 20
-39.45881424928988
 10
69.49101801223237
 20
-39.40922304207641
 10
69.48776887589732
 20
-39.40810526576039
 10
69.48449328653336
 20
-39.407067563907624
 10
69.48214438779723
 20
-39.406355033294055
 10
69.47856802587108
 20
-39.40532187488806
 10
69.47552019278578
 20
-39.40452855960453
 10
69.47552175942084
 20
-39.404522305246736
 10
69.33273022904027
 20
-39.36875488890288
 10
69.3293871833295
 20
-39.3679609674602
 10
69.32602566070454
 20
-39.367249327436504
 10
69.32361822236358
 20
-39.36677045796297
 10
69.31967597119794
 20
-39.36604480476567
 10
69.31684611355372
 20
-39.3656072667846
 10
69.31684783177364
 20
-39.365595683487065
 10
69.17123806144475
 20
-39.34399651388329
 10
69.16783328930218
 20
-39.343534090391856
 10
69.16441819417207
 20
-39.343155363471055
 10
69.1619754077919
 20
-39.342914770012456
 10
69.15855204706754
 20
-39.34261996781298
 10
69.15512248258733
 20
-39.34240926787983
 10
69.00809677773644
 20
-39.335186358132795
 10
69.00466307530837
 20
-39.33505988738292
 10
69.0012273032997
 20
-39.335017722
 10
68.9987726967003
 20
-39.335017722
 10
68.99533692469161
 20
-39.33505988738292
 10
68.99190322226355
 20
-39.3351863581328
 10
68.84487751566263
 20
-39.34240926796581
 10
68.84144794873724
 20
-39.342619968079326
 10
68.83802458557805
 20
-39.34291477057907
 10
68.83558180094788
 20
-39.3431553639517
 10
68.83216670827707
 20
-39.34353409069043
 10
68.82876193858047
 20
-39.34399651387955
 10
68.68315216752654
 20
-39.36559568356373
 10
68.67975976378243
 20
-39.36614152603229
 10
68.67638177743784
 20
-39.36677045799947
 10
68.67397433913095
 20
-39.367249327469224
 10
68.67061281661685
 20
-39.36796096747224
 10
68.66726977101577
 20
-39.36875488888884
 10
68.52447823870051
 20
-39.404522305654694
 10
68.52115564863192
 20
-39.40539803997121
 10
68.51785555106848
 20
-39.40635505168945
 10
68.51550664402197
 20
-39.40706758596085
 10
68.51223108480646
 20
-39.40810527945769
 10
68.50898197815607
 20
-39.40922304595479
 10
68.37038384440369
 20
-39.45881425012601
 10
68.36716311879117
 20
-39.46001142737946
 10
68.3639727434012
 20
-39.461287284627915
 10
68.36170498799687
 20
-39.462226619653265
 10
68.35854688390684
 20
-39.46358038867185
 10
68.35542295414085
 20
-39.465011253730566
 10
68.22235299553307
 20
-39.5279486573559
 10
68.21926512883286
 20
-39.529455753030035
 10
68.21621517803914
 20
-39.53103817468218
 10
68.21405041529214
 20
-39.532195264201846
 10
68.21104020538547
 20
-39.533852065548814
 10
68.20807156212327
 20
-39.5355822422933
 10
68.08181132095977
 20
-39.61125971838036
 10
68.0788860283123
 20
-39.613062231007206
 10
68.07600585274176
 20
-39.614935991271
 10
68.07396492302806
 20
-39.61629969740697
 10
68.07113161875183
 20
-39.61824356302751
 10
68.06834687249601
 20
-39.620256375726946
 10
67.95011229983399
 20
-39.707945111509694
 10
67.94737779034718
 20
-39.71002565781287
 10
67.94469516340031
 20
-39.71217268545991
 10
67.94279772675688
 20
-39.71372987086899
 10
67.94016857774771
 20
-39.71594210426753
 10
67.93759451173688
 20
-39.71821819418094
 10
67.82852427055664
 20
-39.81707369971891
 10
67.82600684829784
 20
-39.819412265374346
 10
67.82354757550634
 20
-39.821811907324914
 10
67.82181190732524
 20
-39.823547575506005
 10
67.81941226537487
 20
-39.82600684829728
 10
67.81707369971961
 20
-39.82852427055586
 10
67.71821819246527
 20
-39.937594513628014
 10
67.71594210019406
 20
-39.94016858237215
 10
67.71372986457328
 20
-39.94279773422871
 10
67.71217268088064
 20
-39.944695168980154
 10
67.71002565559239
 20
-39.94737779319245
 10
67.70794511150967
 20
-39.95011229983401
 10
67.62025637572701
 20
-40.06834687249595
 10
67.61824356418418
 20
-40.071131617109515
 10
67.61629969963896
 20
-40.07396491968768
 10
67.61493599048661
 20
-40.076005853788914
 10
67.61306222898119
 20
-40.07888603113592
 10
67.61125971520195
 20
-40.0818113256177
 10
67.53558224213116
 20
-40.20807156239379
 10
67.53385206393655
 20
-40.2110402082315
 10
67.53219526126666
 20
-40.21405042078345
 10
67.53103817117372
 20
-40.21621518483457
 10
67.52939141985665
 20
-40.219393100035916
 10
67.52795170097741
 20
-40.22235443982113
 10
67.52794865562564
 20
-40.222352999476996
 10
67.46501125378009
 20
-40.35542295403608
 10
67.46358038869515
 20
-40.3585468838542
 10
67.46222661965295
 20
-40.36170498799755
 10
67.46128728462776
 20
-40.363972743401526
 10
67.45994281388354
 20
-40.36734135456307
 10
67.45881841748741
 20
-40.37038533841923
 10
67.45881424928987
 20
-40.370383847014324
 10
67.40922304207639
 20
-40.50898198776766
 10
67.40810526576035
 20
-40.51223112410276
 10
67.40706756390757
 20
-40.515506713466756
 10
67.40635503329405
 20
-40.51785561220275
 10
67.40532185001247
 20
-40.52143206473905
 10
67.40452856146837
 20
-40.524479807681075
 10
67.40452230524674
 20
-40.52447824057914
 10
67.36875488890286
 20
-40.66726977095979
 10
67.36796096633475
 20
-40.670612821682326
 10
67.3672493254323
 20
-40.67397434937127
 10
67.36677045552196
 20
-40.67638179083146
 10
67.36614152470136
 20
-40.679759772066795
 10
67.36559568312687
 20
-40.68315217065465
 10
67.3439965138833
 20
-40.828761938555225
 10
67.34353409039186
 20
-40.8321667106979
 10
67.34315536347104
 20
-40.83558180582811
 10
67.34291477001244
 20
-40.83802459220832
 10
67.34261996781298
 20
-40.84144795293256
 10
67.34240926787984
 20
-40.84487751741268
 10
67.33518635813279
 20
-40.99190322226384
 10
67.3350598873829
 20
-40.99533692469192
 10
67.33501772199999
 20
-40.9987726967006
 10
67.33501772199999
 20
-41.0012273032994
 10
67.3350598873829
 20
-41.00466307530807
 10
67.33518635813279
 20
-41.00809677773614
  0
ENDSEC
  0
SECTION
  2
OBJECTS
  0
DICTIONARY
  5
A
330
0
100
AcDbDictionary
281
1
  3
ACAD_COLOR
350
B
  3
ACAD_GROUP
350
C
  3
ACAD_LAYOUT
350
D
  3
ACAD_MATERIAL
350
E
  3
ACAD_MLEADERSTYLE
350
F
  3
ACAD_MLINESTYLE
350
10
  3
ACAD_PLOTSETTINGS
350
11
  3
ACAD_PLOTSTYLENAME
350
12
  3
ACAD_SCALELIST
350
14
  3
ACAD_TABLESTYLE
350
15
  3
ACAD_VISUALSTYLE
350
16
  0
DICTIONARY
  5
B
330
A
100
AcDbDictionary
281
1
  0
DICTIONARY
  5
C
330
A
100
AcDbDictionary
281
1
  0
DICTIONARY
  5
D
330
A
100
AcDbDictionary
281
1
  3
Model
350
1A
  3
Layout1
350
1E
  0
DICTIONARY
  5
E
330
A
100
AcDbDictionary
281
1
  3
ByBlock
350
1F
  3
ByLayer
350
20
  3
Global
350
21
  0
DICTIONARY
  5
F
330
A
100
AcDbDictionary
281
1
  3
Standard
350
2C
  0
DICTIONARY
  5
10
330
A
100
AcDbDictionary
281
1
  3
Standard
350
22
  0
DICTIONARY
  5
11
330
A
100
AcDbDictionary
281
1
  0
ACDBDICTIONARYWDFLT
  5
12
330
A
100
AcDbDictionary
281
1
  3
Normal
350
13
100
AcDbDictionaryWithDefault
340
13
  0
ACDBPLACEHOLDER
  5
13
330
12
  0
DICTIONARY
  5
14
330
A
100
AcDbDictionary
281
1
  0
DICTIONARY
  5
15
330
A
100
AcDbDictionary
281
1
  0
DICTIONARY
  5
16
330
A
100
AcDbDictionary
281
1
  0
LAYOUT
  5
1A
330
D
100
AcDbPlotSettings
  1

  2
Adobe PDF
  4
A4
  6

 40
3.175
 41
3.175
 42
3.175
 43
3.175
 44
209.91
 45
297.03
 46
0.0
 47
0.0
 48
0.0
 49
0.0
140
0.0
141
0.0
142
1.0
143
1.0
 70
1024
 72
0
 73
1
 74
5
  7

 75
16
 76
0
 77
2
 78
300
147
1.0
148
0.0
149
0.0
100
AcDbLayout
  1
Model
 70
1
 71
0
 10
-3.175
 20
-3.175
 11
293.857
 21
206.735
 12
0.0
 22
0.0
 32
0.0
 14
29.068
 24
20.356
 34
0.0
 15
261.614
 25
183.204
 35
0.0
146
0.0
 13
0.0
 23
0.0
 33
0.0
 16
1.0
 26
0.0
 36
0.0
 17
0.0
 27
1.0
 37
0.0
 76
1
330
17
  0
LAYOUT
  5
1E
330
D
100
AcDbPlotSettings
  1

  2
Adobe PDF
  4
A4
  6

 40
3.175
 41
3.175
 42
3.175
 43
3.175
 44
209.91
 45
297.03
 46
0.0
 47
0.0
 48
0.0
 49
0.0
140
0.0
141
0.0
142
1.0
143
1.0
 70
0
 72
0
 73
1
 74
5
  7

 75
16
 76
0
 77
2
 78
300
147
1.0
148
0.0
149
0.0
100
AcDbLayout
  1
Layout1
 70
1
 71
1
 10
-3.175
 20
-3.175
 11
293.857
 21
206.735
 12
0.0
 22
0.0
 32
0.0
 14
29.068
 24
20.356
 34
0.0
 15
261.614
 25
183.204
 35
0.0
146
0.0
 13
0.0
 23
0.0
 33
0.0
 16
1.0
 26
0.0
 36
0.0
 17
0.0
 27
1.0
 37
0.0
 76
1
330
1B
  0
MATERIAL
  5
1F
102
{ACAD_REACTORS
330
E
102
}
330
E
100
AcDbMaterial
  1
ByBlock
  2

 70
0
 40
1.0
 71
1
 41
1.0
 91
-1023410177
 42
1.0
 72
1
  3

 73
1
 74
1
 75
1
 44
0.5
 73
0
 45
1.0
 46
1.0
 77
1
  4

 78
1
 79
1
170
1
 48
1.0
171
1
  6

172
1
173
1
174
1
140
1.0
141
1.0
175
1
  7

176
1
177
1
178
1
143
1.0
179
1
  8

270
1
271
1
272
1
145
1.0
146
1.0
273
1
  9

274
1
275
1
276
1
 42
1.0
 72
1
  3

 73
1
 74
1
 75
1
 94
63
  0
MATERIAL
  5
20
102
{ACAD_REACTORS
330
E
102
}
330
E
100
AcDbMaterial
  1
ByLayer
  2

 70
0
 40
1.0
 71
1
 41
1.0
 91
-1023410177
 42
1.0
 72
1
  3

 73
1
 74
1
 75
1
 44
0.5
 73
0
 45
1.0
 46
1.0
 77
1
  4

 78
1
 79
1
170
1
 48
1.0
171
1
  6

172
1
173
1
174
1
140
1.0
141
1.0
175
1
  7

176
1
177
1
178
1
143
1.0
179
1
  8

270
1
271
1
272
1
145
1.0
146
1.0
273
1
  9

274
1
275
1
276
1
 42
1.0
 72
1
  3

 73
1
 74
1
 75
1
 94
63
  0
MATERIAL
  5
21
102
{ACAD_REACTORS
330
E
102
}
330
E
100
AcDbMaterial
  1
Global
  2

 70
0
 40
1.0
 71
1
 41
1.0
 91
-1023410177
 42
1.0
 72
1
  3

 73
1
 74
1
 75
1
 44
0.5
 73
0
 45
1.0
 46
1.0
 77
1
  4

 78
1
 79
1
170
1
 48
1.0
171
1
  6

172
1
173
1
174
1
140
1.0
141
1.0
175
1
  7

176
1
177
1
178
1
143
1.0
179
1
  8

270
1
271
1
272
1
145
1.0
146
1.0
273
1
  9

274
1
275
1
276
1
 42
1.0
 72
1
  3

 73
1
 74
1
 75
1
 94
63
  0
MLINESTYLE
  5
22
102
{ACAD_REACTORS
330
10
102
}
330
10
100
AcDbMlineStyle
  2
Standard
 70
0
  3

 62
256
 51
90.0
 52
90.0
 71
2
 49
0.5
 62
256
  6
BYLAYER
 49
-0.5
 62
256
  6
BYLAYER
  0
MLEADERSTYLE
  5
2C
102
{ACAD_REACTORS
330
F
102
}
330
F
100
AcDbMLeaderStyle
179
2
170
2
171
1
172
0
 90
2
 40
0.0
 41
0.0
173
1
 91
-1056964608
 92
-2
290
1
 42
2.0
291
1
 43
8.0
  3
Standard
 44
4.0
300

342
29
174
1
175
1
176
0
178
1
 93
-1056964608
 45
4.0
292
0
297
0
 46
4.0
 94
-1056964608
 47
1.0
 49
0.0
140
1.0
294
1
141
0.0
177
0
142
1.0
295
0
296
0
143
3.75
271
0
272
9
272
9
  0
ENDSEC
  0
EOF
