%TF.GenerationSoftware,KiCad,Pcbnew,9.0.3*%
%TF.CreationDate,2026-01-26T07:36:03-05:00*%
%TF.ProjectId,CURRENT-SENSOR,43555252-454e-4542-9d53-454e534f522e,rev?*%
%TF.SameCoordinates,Original*%
%TF.FileFunction,Soldermask,Top*%
%TF.FilePolarity,Negative*%
%FSLAX46Y46*%
G04 Gerber Fmt 4.6, Leading zero omitted, Abs format (unit mm)*
G04 Created by KiCad (PCBNEW 9.0.3) date 2026-01-26 07:36:03*
%MOMM*%
%LPD*%
G01*
G04 APERTURE LIST*
G04 Aperture macros list*
%AMRoundRect*
0 Rectangle with rounded corners*
0 $1 Rounding radius*
0 $2 $3 $4 $5 $6 $7 $8 $9 X,Y pos of 4 corners*
0 Add a 4 corners polygon primitive as box body*
4,1,4,$2,$3,$4,$5,$6,$7,$8,$9,$2,$3,0*
0 Add four circle primitives for the rounded corners*
1,1,$1+$1,$2,$3*
1,1,$1+$1,$4,$5*
1,1,$1+$1,$6,$7*
1,1,$1+$1,$8,$9*
0 Add four rect primitives between the rounded corners*
20,1,$1+$1,$2,$3,$4,$5,0*
20,1,$1+$1,$4,$5,$6,$7,0*
20,1,$1+$1,$6,$7,$8,$9,0*
20,1,$1+$1,$8,$9,$2,$3,0*%
G04 Aperture macros list end*
%ADD10RoundRect,0.250000X1.050000X1.050000X-1.050000X1.050000X-1.050000X-1.050000X1.050000X-1.050000X0*%
%ADD11C,2.600000*%
%ADD12C,1.600000*%
%ADD13R,1.800000X1.800000*%
%ADD14C,1.800000*%
%ADD15RoundRect,0.250000X0.550000X-0.550000X0.550000X0.550000X-0.550000X0.550000X-0.550000X-0.550000X0*%
%ADD16RoundRect,0.250000X0.550000X-0.950000X0.550000X0.950000X-0.550000X0.950000X-0.550000X-0.950000X0*%
%ADD17O,1.600000X2.400000*%
%ADD18R,1.700000X1.700000*%
%ADD19C,1.440000*%
%ADD20RoundRect,0.250000X-1.050000X-1.050000X1.050000X-1.050000X1.050000X1.050000X-1.050000X1.050000X0*%
%ADD21RoundRect,0.250000X-0.550000X0.550000X-0.550000X-0.550000X0.550000X-0.550000X0.550000X0.550000X0*%
G04 APERTURE END LIST*
D10*
%TO.C,ANALOG_OUT1*%
X149935000Y-55000000D03*
D11*
X144855000Y-55000000D03*
X139775000Y-55000000D03*
X134695000Y-55000000D03*
X129615000Y-55000000D03*
%TD*%
D12*
%TO.C,R12*%
X165550000Y-70750000D03*
X165550000Y-63130000D03*
%TD*%
D13*
%TO.C,D6*%
X98330000Y-84600000D03*
D14*
X100870000Y-84600000D03*
%TD*%
D12*
%TO.C,R19*%
X133450000Y-103090000D03*
X133450000Y-110710000D03*
%TD*%
D15*
%TO.C,C13*%
X152750000Y-121250000D03*
D12*
X152750000Y-119250000D03*
%TD*%
%TO.C,R28*%
X137150000Y-80810000D03*
X137150000Y-73190000D03*
%TD*%
%TO.C,C7*%
X149050000Y-90300000D03*
X149050000Y-95300000D03*
%TD*%
%TO.C,R1*%
X160512500Y-103090000D03*
X160512500Y-110710000D03*
%TD*%
%TO.C,R54*%
X130400000Y-124190000D03*
X130400000Y-131810000D03*
%TD*%
D15*
%TO.C,D12*%
X122300000Y-131810000D03*
D12*
X122300000Y-124190000D03*
%TD*%
%TO.C,C8*%
X139000000Y-117200000D03*
X149000000Y-117200000D03*
%TD*%
%TO.C,R20*%
X130100000Y-103090000D03*
X130100000Y-110710000D03*
%TD*%
D15*
%TO.C,D1*%
X161950000Y-80760000D03*
D12*
X161950000Y-73140000D03*
%TD*%
D16*
%TO.C,U1*%
X160840000Y-96510000D03*
D17*
X163380000Y-96510000D03*
X165920000Y-96510000D03*
X168460000Y-96510000D03*
X171000000Y-96510000D03*
X173540000Y-96510000D03*
X176080000Y-96510000D03*
X176080000Y-88890000D03*
X173540000Y-88890000D03*
X171000000Y-88890000D03*
X168460000Y-88890000D03*
X165920000Y-88890000D03*
X163380000Y-88890000D03*
X160840000Y-88890000D03*
%TD*%
D12*
%TO.C,R23*%
X146050000Y-103090000D03*
X146050000Y-110710000D03*
%TD*%
%TO.C,R31*%
X129950000Y-70610000D03*
X129950000Y-62990000D03*
%TD*%
D16*
%TO.C,U9*%
X100760000Y-96510000D03*
D17*
X103300000Y-96510000D03*
X105840000Y-96510000D03*
X108380000Y-96510000D03*
X110920000Y-96510000D03*
X113460000Y-96510000D03*
X116000000Y-96510000D03*
X116000000Y-88890000D03*
X113460000Y-88890000D03*
X110920000Y-88890000D03*
X108380000Y-88890000D03*
X105840000Y-88890000D03*
X103300000Y-88890000D03*
X100760000Y-88890000D03*
%TD*%
D18*
%TO.C,J7*%
X152900000Y-76800000D03*
%TD*%
D12*
%TO.C,R25*%
X147860000Y-76400000D03*
X140240000Y-76400000D03*
%TD*%
%TO.C,R56*%
X144310000Y-121200000D03*
X136690000Y-121200000D03*
%TD*%
%TO.C,R5*%
X169625000Y-110710000D03*
X169625000Y-103090000D03*
%TD*%
D19*
%TO.C,RV1*%
X181050000Y-84400000D03*
X178510000Y-84400000D03*
X175970000Y-84400000D03*
%TD*%
%TO.C,RV2*%
X181050000Y-65100000D03*
X178510000Y-65100000D03*
X175970000Y-65100000D03*
%TD*%
D13*
%TO.C,D4*%
X128130000Y-84650000D03*
D14*
X130670000Y-84650000D03*
%TD*%
D12*
%TO.C,R14*%
X158350000Y-70610000D03*
X158350000Y-62990000D03*
%TD*%
%TO.C,R24*%
X149200000Y-110710000D03*
X149200000Y-103090000D03*
%TD*%
%TO.C,C11*%
X119100000Y-90300000D03*
X119100000Y-95300000D03*
%TD*%
%TO.C,R37*%
X100785714Y-103090000D03*
X100785714Y-110710000D03*
%TD*%
%TO.C,C10*%
X106400000Y-117200000D03*
X96400000Y-117200000D03*
%TD*%
%TO.C,R50*%
X118710000Y-69350000D03*
X111090000Y-69350000D03*
%TD*%
%TO.C,R6*%
X175700000Y-103090000D03*
X175700000Y-110710000D03*
%TD*%
%TO.C,R39*%
X110364286Y-110710000D03*
X110364286Y-103090000D03*
%TD*%
D19*
%TO.C,RV5*%
X121640000Y-84645000D03*
X119100000Y-84645000D03*
X116560000Y-84645000D03*
%TD*%
D20*
%TO.C,CT_3*%
X112920000Y-130000000D03*
D11*
X118000000Y-130000000D03*
%TD*%
D12*
%TO.C,R18*%
X136550000Y-110710000D03*
X136550000Y-103090000D03*
%TD*%
%TO.C,R9*%
X176260000Y-80210000D03*
X168640000Y-80210000D03*
%TD*%
%TO.C,R10*%
X176260000Y-72590000D03*
X168640000Y-72590000D03*
%TD*%
D18*
%TO.C,J10*%
X123950000Y-71950000D03*
%TD*%
D12*
%TO.C,C9*%
X97700000Y-90300000D03*
X97700000Y-95300000D03*
%TD*%
%TO.C,R16*%
X176260000Y-69350000D03*
X168640000Y-69350000D03*
%TD*%
%TO.C,R38*%
X97592857Y-103090000D03*
X97592857Y-110710000D03*
%TD*%
%TO.C,R58*%
X108350000Y-131810000D03*
X108350000Y-124190000D03*
%TD*%
D18*
%TO.C,J6*%
X180350000Y-69750000D03*
%TD*%
D12*
%TO.C,R3*%
X172662500Y-103090000D03*
X172662500Y-110710000D03*
%TD*%
%TO.C,R40*%
X116750000Y-103090000D03*
X116750000Y-110710000D03*
%TD*%
D15*
%TO.C,D5*%
X104400000Y-80810000D03*
D12*
X104400000Y-73190000D03*
%TD*%
%TO.C,R49*%
X100800000Y-73190000D03*
X100800000Y-80810000D03*
%TD*%
D20*
%TO.C,CT_1*%
X161420000Y-130050000D03*
D11*
X166500000Y-130050000D03*
%TD*%
D12*
%TO.C,R4*%
X166587500Y-110710000D03*
X166587500Y-103090000D03*
%TD*%
D16*
%TO.C,U7*%
X130680000Y-96510000D03*
D17*
X133220000Y-96510000D03*
X135760000Y-96510000D03*
X138300000Y-96510000D03*
X140840000Y-96510000D03*
X143380000Y-96510000D03*
X145920000Y-96510000D03*
X145920000Y-88890000D03*
X143380000Y-88890000D03*
X140840000Y-88890000D03*
X138300000Y-88890000D03*
X135760000Y-88890000D03*
X133220000Y-88890000D03*
X130680000Y-88890000D03*
%TD*%
D15*
%TO.C,D7*%
X170800000Y-131810000D03*
D12*
X170800000Y-124190000D03*
%TD*%
%TO.C,R57*%
X105350000Y-124190000D03*
X105350000Y-131810000D03*
%TD*%
D19*
%TO.C,RV3*%
X151590000Y-84645000D03*
X149050000Y-84645000D03*
X146510000Y-84645000D03*
%TD*%
D12*
%TO.C,R43*%
X118710000Y-80210000D03*
X111090000Y-80210000D03*
%TD*%
%TO.C,C1*%
X166600000Y-117200000D03*
X156600000Y-117200000D03*
%TD*%
D18*
%TO.C,J8*%
X152900000Y-72200000D03*
%TD*%
D12*
%TO.C,R59*%
X118510000Y-121200000D03*
X110890000Y-121200000D03*
%TD*%
%TO.C,C3*%
X169400000Y-117200000D03*
X179400000Y-117200000D03*
%TD*%
%TO.C,R52*%
X156800000Y-131810000D03*
X156800000Y-124190000D03*
%TD*%
D21*
%TO.C,D8*%
X173300000Y-124190000D03*
D12*
X173300000Y-131810000D03*
%TD*%
D19*
%TO.C,RV6*%
X122940000Y-65100000D03*
X120400000Y-65100000D03*
X117860000Y-65100000D03*
%TD*%
D12*
%TO.C,R27*%
X147860000Y-72590000D03*
X140240000Y-72590000D03*
%TD*%
D13*
%TO.C,D2*%
X158530000Y-84650000D03*
D14*
X161070000Y-84650000D03*
%TD*%
D12*
%TO.C,C6*%
X136250000Y-117200000D03*
X126250000Y-117200000D03*
%TD*%
%TO.C,R53*%
X167910000Y-121300000D03*
X160290000Y-121300000D03*
%TD*%
%TO.C,R2*%
X157475000Y-103090000D03*
X157475000Y-110710000D03*
%TD*%
%TO.C,R44*%
X118710000Y-72590000D03*
X111090000Y-72590000D03*
%TD*%
%TO.C,C5*%
X127550000Y-90300000D03*
X127550000Y-95300000D03*
%TD*%
%TO.C,R30*%
X133550000Y-62990000D03*
X133550000Y-70610000D03*
%TD*%
D18*
%TO.C,J9*%
X123950000Y-76550000D03*
%TD*%
D12*
%TO.C,R11*%
X165550000Y-80710000D03*
X165550000Y-73090000D03*
%TD*%
D21*
%TO.C,D10*%
X150100000Y-124190000D03*
D12*
X150100000Y-131810000D03*
%TD*%
%TO.C,R45*%
X108000000Y-80810000D03*
X108000000Y-73190000D03*
%TD*%
%TO.C,C12*%
X108950000Y-117200000D03*
X118950000Y-117200000D03*
%TD*%
D19*
%TO.C,RV4*%
X152300000Y-65100000D03*
X149760000Y-65100000D03*
X147220000Y-65100000D03*
%TD*%
D12*
%TO.C,R46*%
X108000000Y-70610000D03*
X108000000Y-62990000D03*
%TD*%
%TO.C,R13*%
X158350000Y-73190000D03*
X158350000Y-80810000D03*
%TD*%
%TO.C,R17*%
X142900000Y-103090000D03*
X142900000Y-110710000D03*
%TD*%
D15*
%TO.C,D9*%
X147350000Y-131810000D03*
D12*
X147350000Y-124190000D03*
%TD*%
%TO.C,R0*%
X163550000Y-103090000D03*
X163550000Y-110710000D03*
%TD*%
%TO.C,R48*%
X100800000Y-70610000D03*
X100800000Y-62990000D03*
%TD*%
D21*
%TO.C,D11*%
X124800000Y-124190000D03*
D12*
X124800000Y-131810000D03*
%TD*%
%TO.C,R34*%
X113557143Y-103090000D03*
X113557143Y-110710000D03*
%TD*%
D15*
%TO.C,D3*%
X133550000Y-80810000D03*
D12*
X133550000Y-73190000D03*
%TD*%
%TO.C,R33*%
X147860000Y-69350000D03*
X140240000Y-69350000D03*
%TD*%
D18*
%TO.C,J1*%
X180600000Y-76700000D03*
%TD*%
D12*
%TO.C,C4*%
X179150000Y-90300000D03*
X179150000Y-95300000D03*
%TD*%
%TO.C,R36*%
X103978571Y-103090000D03*
X103978571Y-110710000D03*
%TD*%
%TO.C,R8*%
X176260000Y-76400000D03*
X168640000Y-76400000D03*
%TD*%
%TO.C,R35*%
X107171428Y-110710000D03*
X107171428Y-103090000D03*
%TD*%
%TO.C,R15*%
X161950000Y-63140000D03*
X161950000Y-70760000D03*
%TD*%
%TO.C,C2*%
X157700000Y-90300000D03*
X157700000Y-95300000D03*
%TD*%
%TO.C,R47*%
X104400000Y-62990000D03*
X104400000Y-70610000D03*
%TD*%
D15*
%TO.C,C14*%
X122750000Y-121250000D03*
D12*
X122750000Y-119250000D03*
%TD*%
%TO.C,R22*%
X139700000Y-110710000D03*
X139700000Y-103090000D03*
%TD*%
%TO.C,R21*%
X126750000Y-103090000D03*
X126750000Y-110710000D03*
%TD*%
D20*
%TO.C,CT_2*%
X137970000Y-130050000D03*
D11*
X143050000Y-130050000D03*
%TD*%
D12*
%TO.C,R42*%
X118710000Y-76400000D03*
X111090000Y-76400000D03*
%TD*%
%TO.C,R7*%
X178737500Y-110710000D03*
X178737500Y-103090000D03*
%TD*%
%TO.C,R29*%
X137150000Y-70610000D03*
X137150000Y-62990000D03*
%TD*%
D15*
%TO.C,C15*%
X100050000Y-124250000D03*
D12*
X100050000Y-122250000D03*
%TD*%
%TO.C,R26*%
X147860000Y-80210000D03*
X140240000Y-80210000D03*
%TD*%
%TO.C,R41*%
X119942857Y-110710000D03*
X119942857Y-103090000D03*
%TD*%
%TO.C,R51*%
X153800000Y-124190000D03*
X153800000Y-131810000D03*
%TD*%
%TO.C,R32*%
X129950000Y-73190000D03*
X129950000Y-80810000D03*
%TD*%
%TO.C,R55*%
X133400000Y-131810000D03*
X133400000Y-124190000D03*
%TD*%
M02*
