M48
; DRILL file {KiCad 9.0.3} date 2026-01-21T10:38:28-0500
; FORMAT={-:-/ absolute / metric / decimal}
; #@! TF.CreationDate,2026-01-21T10:38:28-05:00
; #@! TF.GenerationSoftware,Kicad,Pcbnew,9.0.3
; #@! TF.FileFunction,Plated,1,2,PTH
FMAT,2
METRIC
; #@! TA.AperFunction,Plated,PTH,ViaDrill
T1C0.800
; #@! TA.AperFunction,Plated,PTH,ComponentDrill
T2C0.800
; #@! TA.AperFunction,Plated,PTH,ComponentDrill
T3C0.900
; #@! TA.AperFunction,Plated,PTH,ComponentDrill
T4C1.000
; #@! TA.AperFunction,Plated,PTH,ComponentDrill
T5C1.300
%
G90
G05
T1
X98.4Y-82.75
X101.5Y-61.15
X105.84Y-86.3
X106.9Y-129.9
X111.3Y-93.5
X112.85Y-69.35
X115.95Y-86.75
X122.9Y-63.4
X128.15Y-82.8
X128.5Y-131.8
X130.6Y-61.15
X135.76Y-86.25
X140.9Y-93.7
X142.0Y-70.7
X145.85Y-86.65
X151.5Y-63.4
X151.9Y-129.8
X155.1Y-55.05
X158.575Y-82.825
X165.65Y-86.35
X170.55Y-69.35
X171.0Y-93.4
X175.3Y-124.0
X178.4Y-87.9
X181.1Y-63.05
T2
X96.4Y-117.2
X97.593Y-103.09
X97.593Y-110.71
X97.7Y-90.3
X97.7Y-95.3
X100.05Y-122.25
X100.05Y-124.25
X100.76Y-88.89
X100.76Y-96.51
X100.786Y-103.09
X100.786Y-110.71
X100.8Y-62.99
X100.8Y-70.61
X100.8Y-73.19
X100.8Y-80.81
X103.3Y-88.89
X103.3Y-96.51
X103.979Y-103.09
X103.979Y-110.71
X104.4Y-62.99
X104.4Y-70.61
X104.4Y-73.19
X104.4Y-80.81
X105.35Y-124.19
X105.35Y-131.81
X105.84Y-88.89
X105.84Y-96.51
X106.4Y-117.2
X107.171Y-103.09
X107.171Y-110.71
X108.0Y-62.99
X108.0Y-70.61
X108.0Y-73.19
X108.0Y-80.81
X108.35Y-124.19
X108.35Y-131.81
X108.38Y-88.89
X108.38Y-96.51
X108.95Y-117.2
X110.364Y-103.09
X110.364Y-110.71
X110.89Y-121.2
X110.92Y-88.89
X110.92Y-96.51
X111.09Y-69.35
X111.09Y-72.59
X111.09Y-76.4
X111.09Y-80.21
X113.46Y-88.89
X113.46Y-96.51
X113.557Y-103.09
X113.557Y-110.71
X116.0Y-88.89
X116.0Y-96.51
X116.56Y-84.645
X116.75Y-103.09
X116.75Y-110.71
X117.86Y-65.1
X118.51Y-121.2
X118.71Y-69.35
X118.71Y-72.59
X118.71Y-76.4
X118.71Y-80.21
X118.95Y-117.2
X119.1Y-84.645
X119.1Y-90.3
X119.1Y-95.3
X119.943Y-103.09
X119.943Y-110.71
X120.4Y-65.1
X121.64Y-84.645
X122.3Y-124.19
X122.3Y-131.81
X122.75Y-119.25
X122.75Y-121.25
X122.94Y-65.1
X124.8Y-124.19
X124.8Y-131.81
X126.25Y-117.2
X126.75Y-103.09
X126.75Y-110.71
X127.55Y-90.3
X127.55Y-95.3
X129.95Y-62.99
X129.95Y-70.61
X129.95Y-73.19
X129.95Y-80.81
X130.1Y-103.09
X130.1Y-110.71
X130.4Y-124.19
X130.4Y-131.81
X130.68Y-88.89
X130.68Y-96.51
X133.22Y-88.89
X133.22Y-96.51
X133.4Y-124.19
X133.4Y-131.81
X133.45Y-103.09
X133.45Y-110.71
X133.55Y-62.99
X133.55Y-70.61
X133.55Y-73.19
X133.55Y-80.81
X135.76Y-88.89
X135.76Y-96.51
X136.25Y-117.2
X136.55Y-103.09
X136.55Y-110.71
X136.69Y-121.2
X137.15Y-62.99
X137.15Y-70.61
X137.15Y-73.19
X137.15Y-80.81
X138.3Y-88.89
X138.3Y-96.51
X139.0Y-117.2
X139.7Y-103.09
X139.7Y-110.71
X140.24Y-69.35
X140.24Y-72.59
X140.24Y-76.4
X140.24Y-80.21
X140.84Y-88.89
X140.84Y-96.51
X142.9Y-103.09
X142.9Y-110.71
X143.38Y-88.89
X143.38Y-96.51
X144.31Y-121.2
X145.92Y-88.89
X145.92Y-96.51
X146.05Y-103.09
X146.05Y-110.71
X146.51Y-84.645
X147.22Y-65.1
X147.35Y-124.19
X147.35Y-131.81
X147.86Y-69.35
X147.86Y-72.59
X147.86Y-76.4
X147.86Y-80.21
X149.0Y-117.2
X149.05Y-84.645
X149.05Y-90.3
X149.05Y-95.3
X149.2Y-103.09
X149.2Y-110.71
X149.76Y-65.1
X150.1Y-124.19
X150.1Y-131.81
X151.59Y-84.645
X152.3Y-65.1
X152.75Y-119.25
X152.75Y-121.25
X153.8Y-124.19
X153.8Y-131.81
X156.6Y-117.2
X156.8Y-124.19
X156.8Y-131.81
X157.475Y-103.09
X157.475Y-110.71
X157.7Y-90.3
X157.7Y-95.3
X158.35Y-62.99
X158.35Y-70.61
X158.35Y-73.19
X158.35Y-80.81
X160.29Y-121.3
X160.512Y-103.09
X160.512Y-110.71
X160.84Y-88.89
X160.84Y-96.51
X161.95Y-63.14
X161.95Y-70.76
X161.95Y-73.14
X161.95Y-80.76
X163.38Y-88.89
X163.38Y-96.51
X163.55Y-103.09
X163.55Y-110.71
X165.55Y-63.13
X165.55Y-70.75
X165.55Y-73.09
X165.55Y-80.71
X165.92Y-88.89
X165.92Y-96.51
X166.588Y-103.09
X166.588Y-110.71
X166.6Y-117.2
X167.91Y-121.3
X168.46Y-88.89
X168.46Y-96.51
X168.64Y-69.35
X168.64Y-72.59
X168.64Y-76.4
X168.64Y-80.21
X169.4Y-117.2
X169.625Y-103.09
X169.625Y-110.71
X170.8Y-124.19
X170.8Y-131.81
X171.0Y-88.89
X171.0Y-96.51
X172.662Y-103.09
X172.662Y-110.71
X173.3Y-124.19
X173.3Y-131.81
X173.54Y-88.89
X173.54Y-96.51
X175.7Y-103.09
X175.7Y-110.71
X175.97Y-65.1
X175.97Y-84.4
X176.08Y-88.89
X176.08Y-96.51
X176.26Y-69.35
X176.26Y-72.59
X176.26Y-76.4
X176.26Y-80.21
X178.51Y-65.1
X178.51Y-84.4
X178.737Y-103.09
X178.737Y-110.71
X179.15Y-90.3
X179.15Y-95.3
X179.4Y-117.2
X181.05Y-65.1
X181.05Y-84.4
T3
X98.33Y-84.6
X100.87Y-84.6
X128.13Y-84.65
X130.67Y-84.65
X158.53Y-84.65
X161.07Y-84.65
T4
X123.95Y-71.95
X123.95Y-76.55
X152.9Y-72.2
X152.9Y-76.8
X180.35Y-69.75
X180.6Y-76.7
T5
X112.92Y-130.0
X118.0Y-130.0
X129.615Y-55.0
X134.695Y-55.0
X137.97Y-130.05
X139.775Y-55.0
X143.05Y-130.05
X144.855Y-55.0
X149.935Y-55.0
X161.42Y-130.05
X166.5Y-130.05
M30
