%TF.GenerationSoftware,KiCad,Pcbnew,9.0.3*%
%TF.CreationDate,2026-01-26T07:39:55-05:00*%
%TF.ProjectId,SLAVE_V-C_INSOLATED,534c4156-455f-4562-9d43-5f494e534f4c,rev?*%
%TF.SameCoordinates,Original*%
%TF.FileFunction,Legend,Top*%
%TF.FilePolarity,Positive*%
%FSLAX46Y46*%
G04 Gerber Fmt 4.6, Leading zero omitted, Abs format (unit mm)*
G04 Created by KiCad (PCBNEW 9.0.3) date 2026-01-26 07:39:55*
%MOMM*%
%LPD*%
G01*
G04 APERTURE LIST*
%ADD10C,0.100000*%
%ADD11C,0.150000*%
%ADD12C,0.120000*%
%ADD13C,0.127000*%
%ADD14C,0.200000*%
G04 APERTURE END LIST*
D10*
X136816905Y-91457419D02*
X136816905Y-92266942D01*
X136816905Y-92266942D02*
X136864524Y-92362180D01*
X136864524Y-92362180D02*
X136912143Y-92409800D01*
X136912143Y-92409800D02*
X137007381Y-92457419D01*
X137007381Y-92457419D02*
X137197857Y-92457419D01*
X137197857Y-92457419D02*
X137293095Y-92409800D01*
X137293095Y-92409800D02*
X137340714Y-92362180D01*
X137340714Y-92362180D02*
X137388333Y-92266942D01*
X137388333Y-92266942D02*
X137388333Y-91457419D01*
X138388333Y-92457419D02*
X137816905Y-92457419D01*
X138102619Y-92457419D02*
X138102619Y-91457419D01*
X138102619Y-91457419D02*
X138007381Y-91600276D01*
X138007381Y-91600276D02*
X137912143Y-91695514D01*
X137912143Y-91695514D02*
X137816905Y-91743133D01*
X139007381Y-91457419D02*
X139102619Y-91457419D01*
X139102619Y-91457419D02*
X139197857Y-91505038D01*
X139197857Y-91505038D02*
X139245476Y-91552657D01*
X139245476Y-91552657D02*
X139293095Y-91647895D01*
X139293095Y-91647895D02*
X139340714Y-91838371D01*
X139340714Y-91838371D02*
X139340714Y-92076466D01*
X139340714Y-92076466D02*
X139293095Y-92266942D01*
X139293095Y-92266942D02*
X139245476Y-92362180D01*
X139245476Y-92362180D02*
X139197857Y-92409800D01*
X139197857Y-92409800D02*
X139102619Y-92457419D01*
X139102619Y-92457419D02*
X139007381Y-92457419D01*
X139007381Y-92457419D02*
X138912143Y-92409800D01*
X138912143Y-92409800D02*
X138864524Y-92362180D01*
X138864524Y-92362180D02*
X138816905Y-92266942D01*
X138816905Y-92266942D02*
X138769286Y-92076466D01*
X138769286Y-92076466D02*
X138769286Y-91838371D01*
X138769286Y-91838371D02*
X138816905Y-91647895D01*
X138816905Y-91647895D02*
X138864524Y-91552657D01*
X138864524Y-91552657D02*
X138912143Y-91505038D01*
X138912143Y-91505038D02*
X139007381Y-91457419D01*
D11*
X108404819Y-117166666D02*
X107928628Y-117499999D01*
X108404819Y-117738094D02*
X107404819Y-117738094D01*
X107404819Y-117738094D02*
X107404819Y-117357142D01*
X107404819Y-117357142D02*
X107452438Y-117261904D01*
X107452438Y-117261904D02*
X107500057Y-117214285D01*
X107500057Y-117214285D02*
X107595295Y-117166666D01*
X107595295Y-117166666D02*
X107738152Y-117166666D01*
X107738152Y-117166666D02*
X107833390Y-117214285D01*
X107833390Y-117214285D02*
X107881009Y-117261904D01*
X107881009Y-117261904D02*
X107928628Y-117357142D01*
X107928628Y-117357142D02*
X107928628Y-117738094D01*
X108404819Y-116214285D02*
X108404819Y-116785713D01*
X108404819Y-116499999D02*
X107404819Y-116499999D01*
X107404819Y-116499999D02*
X107547676Y-116595237D01*
X107547676Y-116595237D02*
X107642914Y-116690475D01*
X107642914Y-116690475D02*
X107690533Y-116785713D01*
X149566667Y-105707200D02*
X149709524Y-105754819D01*
X149709524Y-105754819D02*
X149947619Y-105754819D01*
X149947619Y-105754819D02*
X150042857Y-105707200D01*
X150042857Y-105707200D02*
X150090476Y-105659580D01*
X150090476Y-105659580D02*
X150138095Y-105564342D01*
X150138095Y-105564342D02*
X150138095Y-105469104D01*
X150138095Y-105469104D02*
X150090476Y-105373866D01*
X150090476Y-105373866D02*
X150042857Y-105326247D01*
X150042857Y-105326247D02*
X149947619Y-105278628D01*
X149947619Y-105278628D02*
X149757143Y-105231009D01*
X149757143Y-105231009D02*
X149661905Y-105183390D01*
X149661905Y-105183390D02*
X149614286Y-105135771D01*
X149614286Y-105135771D02*
X149566667Y-105040533D01*
X149566667Y-105040533D02*
X149566667Y-104945295D01*
X149566667Y-104945295D02*
X149614286Y-104850057D01*
X149614286Y-104850057D02*
X149661905Y-104802438D01*
X149661905Y-104802438D02*
X149757143Y-104754819D01*
X149757143Y-104754819D02*
X149995238Y-104754819D01*
X149995238Y-104754819D02*
X150138095Y-104802438D01*
X150471429Y-104754819D02*
X150709524Y-105754819D01*
X150709524Y-105754819D02*
X150900000Y-105040533D01*
X150900000Y-105040533D02*
X151090476Y-105754819D01*
X151090476Y-105754819D02*
X151328572Y-104754819D01*
X151661905Y-104850057D02*
X151709524Y-104802438D01*
X151709524Y-104802438D02*
X151804762Y-104754819D01*
X151804762Y-104754819D02*
X152042857Y-104754819D01*
X152042857Y-104754819D02*
X152138095Y-104802438D01*
X152138095Y-104802438D02*
X152185714Y-104850057D01*
X152185714Y-104850057D02*
X152233333Y-104945295D01*
X152233333Y-104945295D02*
X152233333Y-105040533D01*
X152233333Y-105040533D02*
X152185714Y-105183390D01*
X152185714Y-105183390D02*
X151614286Y-105754819D01*
X151614286Y-105754819D02*
X152233333Y-105754819D01*
X150374819Y-76406666D02*
X149898628Y-76739999D01*
X150374819Y-76978094D02*
X149374819Y-76978094D01*
X149374819Y-76978094D02*
X149374819Y-76597142D01*
X149374819Y-76597142D02*
X149422438Y-76501904D01*
X149422438Y-76501904D02*
X149470057Y-76454285D01*
X149470057Y-76454285D02*
X149565295Y-76406666D01*
X149565295Y-76406666D02*
X149708152Y-76406666D01*
X149708152Y-76406666D02*
X149803390Y-76454285D01*
X149803390Y-76454285D02*
X149851009Y-76501904D01*
X149851009Y-76501904D02*
X149898628Y-76597142D01*
X149898628Y-76597142D02*
X149898628Y-76978094D01*
X149470057Y-76025713D02*
X149422438Y-75978094D01*
X149422438Y-75978094D02*
X149374819Y-75882856D01*
X149374819Y-75882856D02*
X149374819Y-75644761D01*
X149374819Y-75644761D02*
X149422438Y-75549523D01*
X149422438Y-75549523D02*
X149470057Y-75501904D01*
X149470057Y-75501904D02*
X149565295Y-75454285D01*
X149565295Y-75454285D02*
X149660533Y-75454285D01*
X149660533Y-75454285D02*
X149803390Y-75501904D01*
X149803390Y-75501904D02*
X150374819Y-76073332D01*
X150374819Y-76073332D02*
X150374819Y-75454285D01*
X169343333Y-85354819D02*
X169010000Y-84878628D01*
X168771905Y-85354819D02*
X168771905Y-84354819D01*
X168771905Y-84354819D02*
X169152857Y-84354819D01*
X169152857Y-84354819D02*
X169248095Y-84402438D01*
X169248095Y-84402438D02*
X169295714Y-84450057D01*
X169295714Y-84450057D02*
X169343333Y-84545295D01*
X169343333Y-84545295D02*
X169343333Y-84688152D01*
X169343333Y-84688152D02*
X169295714Y-84783390D01*
X169295714Y-84783390D02*
X169248095Y-84831009D01*
X169248095Y-84831009D02*
X169152857Y-84878628D01*
X169152857Y-84878628D02*
X168771905Y-84878628D01*
X170200476Y-84688152D02*
X170200476Y-85354819D01*
X169962381Y-84307200D02*
X169724286Y-85021485D01*
X169724286Y-85021485D02*
X170343333Y-85021485D01*
X154785714Y-52454819D02*
X154785714Y-51454819D01*
X154785714Y-51454819D02*
X155166666Y-51454819D01*
X155166666Y-51454819D02*
X155261904Y-51502438D01*
X155261904Y-51502438D02*
X155309523Y-51550057D01*
X155309523Y-51550057D02*
X155357142Y-51645295D01*
X155357142Y-51645295D02*
X155357142Y-51788152D01*
X155357142Y-51788152D02*
X155309523Y-51883390D01*
X155309523Y-51883390D02*
X155261904Y-51931009D01*
X155261904Y-51931009D02*
X155166666Y-51978628D01*
X155166666Y-51978628D02*
X154785714Y-51978628D01*
X155738095Y-52407200D02*
X155880952Y-52454819D01*
X155880952Y-52454819D02*
X156119047Y-52454819D01*
X156119047Y-52454819D02*
X156214285Y-52407200D01*
X156214285Y-52407200D02*
X156261904Y-52359580D01*
X156261904Y-52359580D02*
X156309523Y-52264342D01*
X156309523Y-52264342D02*
X156309523Y-52169104D01*
X156309523Y-52169104D02*
X156261904Y-52073866D01*
X156261904Y-52073866D02*
X156214285Y-52026247D01*
X156214285Y-52026247D02*
X156119047Y-51978628D01*
X156119047Y-51978628D02*
X155928571Y-51931009D01*
X155928571Y-51931009D02*
X155833333Y-51883390D01*
X155833333Y-51883390D02*
X155785714Y-51835771D01*
X155785714Y-51835771D02*
X155738095Y-51740533D01*
X155738095Y-51740533D02*
X155738095Y-51645295D01*
X155738095Y-51645295D02*
X155785714Y-51550057D01*
X155785714Y-51550057D02*
X155833333Y-51502438D01*
X155833333Y-51502438D02*
X155928571Y-51454819D01*
X155928571Y-51454819D02*
X156166666Y-51454819D01*
X156166666Y-51454819D02*
X156309523Y-51502438D01*
X157261904Y-52454819D02*
X156690476Y-52454819D01*
X156976190Y-52454819D02*
X156976190Y-51454819D01*
X156976190Y-51454819D02*
X156880952Y-51597676D01*
X156880952Y-51597676D02*
X156785714Y-51692914D01*
X156785714Y-51692914D02*
X156690476Y-51740533D01*
X169343333Y-88454819D02*
X169010000Y-87978628D01*
X168771905Y-88454819D02*
X168771905Y-87454819D01*
X168771905Y-87454819D02*
X169152857Y-87454819D01*
X169152857Y-87454819D02*
X169248095Y-87502438D01*
X169248095Y-87502438D02*
X169295714Y-87550057D01*
X169295714Y-87550057D02*
X169343333Y-87645295D01*
X169343333Y-87645295D02*
X169343333Y-87788152D01*
X169343333Y-87788152D02*
X169295714Y-87883390D01*
X169295714Y-87883390D02*
X169248095Y-87931009D01*
X169248095Y-87931009D02*
X169152857Y-87978628D01*
X169152857Y-87978628D02*
X168771905Y-87978628D01*
X170200476Y-87454819D02*
X170010000Y-87454819D01*
X170010000Y-87454819D02*
X169914762Y-87502438D01*
X169914762Y-87502438D02*
X169867143Y-87550057D01*
X169867143Y-87550057D02*
X169771905Y-87692914D01*
X169771905Y-87692914D02*
X169724286Y-87883390D01*
X169724286Y-87883390D02*
X169724286Y-88264342D01*
X169724286Y-88264342D02*
X169771905Y-88359580D01*
X169771905Y-88359580D02*
X169819524Y-88407200D01*
X169819524Y-88407200D02*
X169914762Y-88454819D01*
X169914762Y-88454819D02*
X170105238Y-88454819D01*
X170105238Y-88454819D02*
X170200476Y-88407200D01*
X170200476Y-88407200D02*
X170248095Y-88359580D01*
X170248095Y-88359580D02*
X170295714Y-88264342D01*
X170295714Y-88264342D02*
X170295714Y-88026247D01*
X170295714Y-88026247D02*
X170248095Y-87931009D01*
X170248095Y-87931009D02*
X170200476Y-87883390D01*
X170200476Y-87883390D02*
X170105238Y-87835771D01*
X170105238Y-87835771D02*
X169914762Y-87835771D01*
X169914762Y-87835771D02*
X169819524Y-87883390D01*
X169819524Y-87883390D02*
X169771905Y-87931009D01*
X169771905Y-87931009D02*
X169724286Y-88026247D01*
X98961400Y-124253119D02*
X98991876Y-124161690D01*
X98991876Y-124161690D02*
X98991876Y-124009309D01*
X98991876Y-124009309D02*
X98961400Y-123948357D01*
X98961400Y-123948357D02*
X98930923Y-123917881D01*
X98930923Y-123917881D02*
X98869971Y-123887404D01*
X98869971Y-123887404D02*
X98809019Y-123887404D01*
X98809019Y-123887404D02*
X98748066Y-123917881D01*
X98748066Y-123917881D02*
X98717590Y-123948357D01*
X98717590Y-123948357D02*
X98687114Y-124009309D01*
X98687114Y-124009309D02*
X98656638Y-124131214D01*
X98656638Y-124131214D02*
X98626161Y-124192166D01*
X98626161Y-124192166D02*
X98595685Y-124222643D01*
X98595685Y-124222643D02*
X98534733Y-124253119D01*
X98534733Y-124253119D02*
X98473780Y-124253119D01*
X98473780Y-124253119D02*
X98412828Y-124222643D01*
X98412828Y-124222643D02*
X98382352Y-124192166D01*
X98382352Y-124192166D02*
X98351876Y-124131214D01*
X98351876Y-124131214D02*
X98351876Y-123978833D01*
X98351876Y-123978833D02*
X98382352Y-123887404D01*
X98991876Y-123277880D02*
X98991876Y-123643595D01*
X98991876Y-123460738D02*
X98351876Y-123460738D01*
X98351876Y-123460738D02*
X98443304Y-123521690D01*
X98443304Y-123521690D02*
X98504257Y-123582642D01*
X98504257Y-123582642D02*
X98534733Y-123643595D01*
X166011905Y-103794819D02*
X166011905Y-102794819D01*
X166011905Y-102794819D02*
X166250000Y-102794819D01*
X166250000Y-102794819D02*
X166392857Y-102842438D01*
X166392857Y-102842438D02*
X166488095Y-102937676D01*
X166488095Y-102937676D02*
X166535714Y-103032914D01*
X166535714Y-103032914D02*
X166583333Y-103223390D01*
X166583333Y-103223390D02*
X166583333Y-103366247D01*
X166583333Y-103366247D02*
X166535714Y-103556723D01*
X166535714Y-103556723D02*
X166488095Y-103651961D01*
X166488095Y-103651961D02*
X166392857Y-103747200D01*
X166392857Y-103747200D02*
X166250000Y-103794819D01*
X166250000Y-103794819D02*
X166011905Y-103794819D01*
X166916667Y-102794819D02*
X167583333Y-102794819D01*
X167583333Y-102794819D02*
X167154762Y-103794819D01*
X169343333Y-82304819D02*
X169010000Y-81828628D01*
X168771905Y-82304819D02*
X168771905Y-81304819D01*
X168771905Y-81304819D02*
X169152857Y-81304819D01*
X169152857Y-81304819D02*
X169248095Y-81352438D01*
X169248095Y-81352438D02*
X169295714Y-81400057D01*
X169295714Y-81400057D02*
X169343333Y-81495295D01*
X169343333Y-81495295D02*
X169343333Y-81638152D01*
X169343333Y-81638152D02*
X169295714Y-81733390D01*
X169295714Y-81733390D02*
X169248095Y-81781009D01*
X169248095Y-81781009D02*
X169152857Y-81828628D01*
X169152857Y-81828628D02*
X168771905Y-81828628D01*
X170248095Y-81304819D02*
X169771905Y-81304819D01*
X169771905Y-81304819D02*
X169724286Y-81781009D01*
X169724286Y-81781009D02*
X169771905Y-81733390D01*
X169771905Y-81733390D02*
X169867143Y-81685771D01*
X169867143Y-81685771D02*
X170105238Y-81685771D01*
X170105238Y-81685771D02*
X170200476Y-81733390D01*
X170200476Y-81733390D02*
X170248095Y-81781009D01*
X170248095Y-81781009D02*
X170295714Y-81876247D01*
X170295714Y-81876247D02*
X170295714Y-82114342D01*
X170295714Y-82114342D02*
X170248095Y-82209580D01*
X170248095Y-82209580D02*
X170200476Y-82257200D01*
X170200476Y-82257200D02*
X170105238Y-82304819D01*
X170105238Y-82304819D02*
X169867143Y-82304819D01*
X169867143Y-82304819D02*
X169771905Y-82257200D01*
X169771905Y-82257200D02*
X169724286Y-82209580D01*
X164854819Y-98942857D02*
X164378628Y-99276190D01*
X164854819Y-99514285D02*
X163854819Y-99514285D01*
X163854819Y-99514285D02*
X163854819Y-99133333D01*
X163854819Y-99133333D02*
X163902438Y-99038095D01*
X163902438Y-99038095D02*
X163950057Y-98990476D01*
X163950057Y-98990476D02*
X164045295Y-98942857D01*
X164045295Y-98942857D02*
X164188152Y-98942857D01*
X164188152Y-98942857D02*
X164283390Y-98990476D01*
X164283390Y-98990476D02*
X164331009Y-99038095D01*
X164331009Y-99038095D02*
X164378628Y-99133333D01*
X164378628Y-99133333D02*
X164378628Y-99514285D01*
X163854819Y-98038095D02*
X163854819Y-98514285D01*
X163854819Y-98514285D02*
X164331009Y-98561904D01*
X164331009Y-98561904D02*
X164283390Y-98514285D01*
X164283390Y-98514285D02*
X164235771Y-98419047D01*
X164235771Y-98419047D02*
X164235771Y-98180952D01*
X164235771Y-98180952D02*
X164283390Y-98085714D01*
X164283390Y-98085714D02*
X164331009Y-98038095D01*
X164331009Y-98038095D02*
X164426247Y-97990476D01*
X164426247Y-97990476D02*
X164664342Y-97990476D01*
X164664342Y-97990476D02*
X164759580Y-98038095D01*
X164759580Y-98038095D02*
X164807200Y-98085714D01*
X164807200Y-98085714D02*
X164854819Y-98180952D01*
X164854819Y-98180952D02*
X164854819Y-98419047D01*
X164854819Y-98419047D02*
X164807200Y-98514285D01*
X164807200Y-98514285D02*
X164759580Y-98561904D01*
X164854819Y-97038095D02*
X164854819Y-97609523D01*
X164854819Y-97323809D02*
X163854819Y-97323809D01*
X163854819Y-97323809D02*
X163997676Y-97419047D01*
X163997676Y-97419047D02*
X164092914Y-97514285D01*
X164092914Y-97514285D02*
X164140533Y-97609523D01*
X134158095Y-61489104D02*
X134634285Y-61489104D01*
X134062857Y-61774819D02*
X134396190Y-60774819D01*
X134396190Y-60774819D02*
X134729523Y-61774819D01*
X135062857Y-61774819D02*
X135062857Y-60774819D01*
X135062857Y-60774819D02*
X135634285Y-61774819D01*
X135634285Y-61774819D02*
X135634285Y-60774819D01*
X136062857Y-61489104D02*
X136539047Y-61489104D01*
X135967619Y-61774819D02*
X136300952Y-60774819D01*
X136300952Y-60774819D02*
X136634285Y-61774819D01*
X137443809Y-61774819D02*
X136967619Y-61774819D01*
X136967619Y-61774819D02*
X136967619Y-60774819D01*
X137967619Y-60774819D02*
X138158095Y-60774819D01*
X138158095Y-60774819D02*
X138253333Y-60822438D01*
X138253333Y-60822438D02*
X138348571Y-60917676D01*
X138348571Y-60917676D02*
X138396190Y-61108152D01*
X138396190Y-61108152D02*
X138396190Y-61441485D01*
X138396190Y-61441485D02*
X138348571Y-61631961D01*
X138348571Y-61631961D02*
X138253333Y-61727200D01*
X138253333Y-61727200D02*
X138158095Y-61774819D01*
X138158095Y-61774819D02*
X137967619Y-61774819D01*
X137967619Y-61774819D02*
X137872381Y-61727200D01*
X137872381Y-61727200D02*
X137777143Y-61631961D01*
X137777143Y-61631961D02*
X137729524Y-61441485D01*
X137729524Y-61441485D02*
X137729524Y-61108152D01*
X137729524Y-61108152D02*
X137777143Y-60917676D01*
X137777143Y-60917676D02*
X137872381Y-60822438D01*
X137872381Y-60822438D02*
X137967619Y-60774819D01*
X139348571Y-60822438D02*
X139253333Y-60774819D01*
X139253333Y-60774819D02*
X139110476Y-60774819D01*
X139110476Y-60774819D02*
X138967619Y-60822438D01*
X138967619Y-60822438D02*
X138872381Y-60917676D01*
X138872381Y-60917676D02*
X138824762Y-61012914D01*
X138824762Y-61012914D02*
X138777143Y-61203390D01*
X138777143Y-61203390D02*
X138777143Y-61346247D01*
X138777143Y-61346247D02*
X138824762Y-61536723D01*
X138824762Y-61536723D02*
X138872381Y-61631961D01*
X138872381Y-61631961D02*
X138967619Y-61727200D01*
X138967619Y-61727200D02*
X139110476Y-61774819D01*
X139110476Y-61774819D02*
X139205714Y-61774819D01*
X139205714Y-61774819D02*
X139348571Y-61727200D01*
X139348571Y-61727200D02*
X139396190Y-61679580D01*
X139396190Y-61679580D02*
X139396190Y-61346247D01*
X139396190Y-61346247D02*
X139205714Y-61346247D01*
X139586667Y-61870057D02*
X140348571Y-61870057D01*
X140586667Y-61774819D02*
X140586667Y-60774819D01*
X141062857Y-61774819D02*
X141062857Y-60774819D01*
X141062857Y-60774819D02*
X141634285Y-61774819D01*
X141634285Y-61774819D02*
X141634285Y-60774819D01*
X154283095Y-90144819D02*
X154283095Y-90954342D01*
X154283095Y-90954342D02*
X154330714Y-91049580D01*
X154330714Y-91049580D02*
X154378333Y-91097200D01*
X154378333Y-91097200D02*
X154473571Y-91144819D01*
X154473571Y-91144819D02*
X154664047Y-91144819D01*
X154664047Y-91144819D02*
X154759285Y-91097200D01*
X154759285Y-91097200D02*
X154806904Y-91049580D01*
X154806904Y-91049580D02*
X154854523Y-90954342D01*
X154854523Y-90954342D02*
X154854523Y-90144819D01*
X155283095Y-90240057D02*
X155330714Y-90192438D01*
X155330714Y-90192438D02*
X155425952Y-90144819D01*
X155425952Y-90144819D02*
X155664047Y-90144819D01*
X155664047Y-90144819D02*
X155759285Y-90192438D01*
X155759285Y-90192438D02*
X155806904Y-90240057D01*
X155806904Y-90240057D02*
X155854523Y-90335295D01*
X155854523Y-90335295D02*
X155854523Y-90430533D01*
X155854523Y-90430533D02*
X155806904Y-90573390D01*
X155806904Y-90573390D02*
X155235476Y-91144819D01*
X155235476Y-91144819D02*
X155854523Y-91144819D01*
X169234761Y-75400057D02*
X169139523Y-75352438D01*
X169139523Y-75352438D02*
X169044285Y-75257200D01*
X169044285Y-75257200D02*
X168901428Y-75114342D01*
X168901428Y-75114342D02*
X168806190Y-75066723D01*
X168806190Y-75066723D02*
X168710952Y-75066723D01*
X168758571Y-75304819D02*
X168663333Y-75257200D01*
X168663333Y-75257200D02*
X168568095Y-75161961D01*
X168568095Y-75161961D02*
X168520476Y-74971485D01*
X168520476Y-74971485D02*
X168520476Y-74638152D01*
X168520476Y-74638152D02*
X168568095Y-74447676D01*
X168568095Y-74447676D02*
X168663333Y-74352438D01*
X168663333Y-74352438D02*
X168758571Y-74304819D01*
X168758571Y-74304819D02*
X168949047Y-74304819D01*
X168949047Y-74304819D02*
X169044285Y-74352438D01*
X169044285Y-74352438D02*
X169139523Y-74447676D01*
X169139523Y-74447676D02*
X169187142Y-74638152D01*
X169187142Y-74638152D02*
X169187142Y-74971485D01*
X169187142Y-74971485D02*
X169139523Y-75161961D01*
X169139523Y-75161961D02*
X169044285Y-75257200D01*
X169044285Y-75257200D02*
X168949047Y-75304819D01*
X168949047Y-75304819D02*
X168758571Y-75304819D01*
X169568095Y-74400057D02*
X169615714Y-74352438D01*
X169615714Y-74352438D02*
X169710952Y-74304819D01*
X169710952Y-74304819D02*
X169949047Y-74304819D01*
X169949047Y-74304819D02*
X170044285Y-74352438D01*
X170044285Y-74352438D02*
X170091904Y-74400057D01*
X170091904Y-74400057D02*
X170139523Y-74495295D01*
X170139523Y-74495295D02*
X170139523Y-74590533D01*
X170139523Y-74590533D02*
X170091904Y-74733390D01*
X170091904Y-74733390D02*
X169520476Y-75304819D01*
X169520476Y-75304819D02*
X170139523Y-75304819D01*
D10*
X170491904Y-71492580D02*
X170491904Y-70683057D01*
X170491904Y-70683057D02*
X170444285Y-70587819D01*
X170444285Y-70587819D02*
X170396666Y-70540200D01*
X170396666Y-70540200D02*
X170301428Y-70492580D01*
X170301428Y-70492580D02*
X170110952Y-70492580D01*
X170110952Y-70492580D02*
X170015714Y-70540200D01*
X170015714Y-70540200D02*
X169968095Y-70587819D01*
X169968095Y-70587819D02*
X169920476Y-70683057D01*
X169920476Y-70683057D02*
X169920476Y-71492580D01*
X169015714Y-71159247D02*
X169015714Y-70492580D01*
X169253809Y-71540200D02*
X169491904Y-70825914D01*
X169491904Y-70825914D02*
X168872857Y-70825914D01*
D11*
X149920000Y-124134819D02*
X149920000Y-123134819D01*
X149920000Y-123134819D02*
X150253333Y-123849104D01*
X150253333Y-123849104D02*
X150586666Y-123134819D01*
X150586666Y-123134819D02*
X150586666Y-124134819D01*
X151253333Y-123134819D02*
X151443809Y-123134819D01*
X151443809Y-123134819D02*
X151539047Y-123182438D01*
X151539047Y-123182438D02*
X151634285Y-123277676D01*
X151634285Y-123277676D02*
X151681904Y-123468152D01*
X151681904Y-123468152D02*
X151681904Y-123801485D01*
X151681904Y-123801485D02*
X151634285Y-123991961D01*
X151634285Y-123991961D02*
X151539047Y-124087200D01*
X151539047Y-124087200D02*
X151443809Y-124134819D01*
X151443809Y-124134819D02*
X151253333Y-124134819D01*
X151253333Y-124134819D02*
X151158095Y-124087200D01*
X151158095Y-124087200D02*
X151062857Y-123991961D01*
X151062857Y-123991961D02*
X151015238Y-123801485D01*
X151015238Y-123801485D02*
X151015238Y-123468152D01*
X151015238Y-123468152D02*
X151062857Y-123277676D01*
X151062857Y-123277676D02*
X151158095Y-123182438D01*
X151158095Y-123182438D02*
X151253333Y-123134819D01*
X152110476Y-124134819D02*
X152110476Y-123134819D01*
X152110476Y-123134819D02*
X152348571Y-123134819D01*
X152348571Y-123134819D02*
X152491428Y-123182438D01*
X152491428Y-123182438D02*
X152586666Y-123277676D01*
X152586666Y-123277676D02*
X152634285Y-123372914D01*
X152634285Y-123372914D02*
X152681904Y-123563390D01*
X152681904Y-123563390D02*
X152681904Y-123706247D01*
X152681904Y-123706247D02*
X152634285Y-123896723D01*
X152634285Y-123896723D02*
X152586666Y-123991961D01*
X152586666Y-123991961D02*
X152491428Y-124087200D01*
X152491428Y-124087200D02*
X152348571Y-124134819D01*
X152348571Y-124134819D02*
X152110476Y-124134819D01*
X153443809Y-123611009D02*
X153586666Y-123658628D01*
X153586666Y-123658628D02*
X153634285Y-123706247D01*
X153634285Y-123706247D02*
X153681904Y-123801485D01*
X153681904Y-123801485D02*
X153681904Y-123944342D01*
X153681904Y-123944342D02*
X153634285Y-124039580D01*
X153634285Y-124039580D02*
X153586666Y-124087200D01*
X153586666Y-124087200D02*
X153491428Y-124134819D01*
X153491428Y-124134819D02*
X153110476Y-124134819D01*
X153110476Y-124134819D02*
X153110476Y-123134819D01*
X153110476Y-123134819D02*
X153443809Y-123134819D01*
X153443809Y-123134819D02*
X153539047Y-123182438D01*
X153539047Y-123182438D02*
X153586666Y-123230057D01*
X153586666Y-123230057D02*
X153634285Y-123325295D01*
X153634285Y-123325295D02*
X153634285Y-123420533D01*
X153634285Y-123420533D02*
X153586666Y-123515771D01*
X153586666Y-123515771D02*
X153539047Y-123563390D01*
X153539047Y-123563390D02*
X153443809Y-123611009D01*
X153443809Y-123611009D02*
X153110476Y-123611009D01*
X154110476Y-123134819D02*
X154110476Y-123944342D01*
X154110476Y-123944342D02*
X154158095Y-124039580D01*
X154158095Y-124039580D02*
X154205714Y-124087200D01*
X154205714Y-124087200D02*
X154300952Y-124134819D01*
X154300952Y-124134819D02*
X154491428Y-124134819D01*
X154491428Y-124134819D02*
X154586666Y-124087200D01*
X154586666Y-124087200D02*
X154634285Y-124039580D01*
X154634285Y-124039580D02*
X154681904Y-123944342D01*
X154681904Y-123944342D02*
X154681904Y-123134819D01*
X155110476Y-124087200D02*
X155253333Y-124134819D01*
X155253333Y-124134819D02*
X155491428Y-124134819D01*
X155491428Y-124134819D02*
X155586666Y-124087200D01*
X155586666Y-124087200D02*
X155634285Y-124039580D01*
X155634285Y-124039580D02*
X155681904Y-123944342D01*
X155681904Y-123944342D02*
X155681904Y-123849104D01*
X155681904Y-123849104D02*
X155634285Y-123753866D01*
X155634285Y-123753866D02*
X155586666Y-123706247D01*
X155586666Y-123706247D02*
X155491428Y-123658628D01*
X155491428Y-123658628D02*
X155300952Y-123611009D01*
X155300952Y-123611009D02*
X155205714Y-123563390D01*
X155205714Y-123563390D02*
X155158095Y-123515771D01*
X155158095Y-123515771D02*
X155110476Y-123420533D01*
X155110476Y-123420533D02*
X155110476Y-123325295D01*
X155110476Y-123325295D02*
X155158095Y-123230057D01*
X155158095Y-123230057D02*
X155205714Y-123182438D01*
X155205714Y-123182438D02*
X155300952Y-123134819D01*
X155300952Y-123134819D02*
X155539047Y-123134819D01*
X155539047Y-123134819D02*
X155681904Y-123182438D01*
X155872381Y-124230057D02*
X156634285Y-124230057D01*
X156872381Y-124134819D02*
X156872381Y-123134819D01*
X157348571Y-124134819D02*
X157348571Y-123134819D01*
X157348571Y-123134819D02*
X157919999Y-124134819D01*
X157919999Y-124134819D02*
X157919999Y-123134819D01*
X101883095Y-60094819D02*
X101883095Y-60904342D01*
X101883095Y-60904342D02*
X101930714Y-60999580D01*
X101930714Y-60999580D02*
X101978333Y-61047200D01*
X101978333Y-61047200D02*
X102073571Y-61094819D01*
X102073571Y-61094819D02*
X102264047Y-61094819D01*
X102264047Y-61094819D02*
X102359285Y-61047200D01*
X102359285Y-61047200D02*
X102406904Y-60999580D01*
X102406904Y-60999580D02*
X102454523Y-60904342D01*
X102454523Y-60904342D02*
X102454523Y-60094819D01*
X102835476Y-60094819D02*
X103454523Y-60094819D01*
X103454523Y-60094819D02*
X103121190Y-60475771D01*
X103121190Y-60475771D02*
X103264047Y-60475771D01*
X103264047Y-60475771D02*
X103359285Y-60523390D01*
X103359285Y-60523390D02*
X103406904Y-60571009D01*
X103406904Y-60571009D02*
X103454523Y-60666247D01*
X103454523Y-60666247D02*
X103454523Y-60904342D01*
X103454523Y-60904342D02*
X103406904Y-60999580D01*
X103406904Y-60999580D02*
X103359285Y-61047200D01*
X103359285Y-61047200D02*
X103264047Y-61094819D01*
X103264047Y-61094819D02*
X102978333Y-61094819D01*
X102978333Y-61094819D02*
X102883095Y-61047200D01*
X102883095Y-61047200D02*
X102835476Y-60999580D01*
X160404761Y-103850057D02*
X160309523Y-103802438D01*
X160309523Y-103802438D02*
X160214285Y-103707200D01*
X160214285Y-103707200D02*
X160071428Y-103564342D01*
X160071428Y-103564342D02*
X159976190Y-103516723D01*
X159976190Y-103516723D02*
X159880952Y-103516723D01*
X159928571Y-103754819D02*
X159833333Y-103707200D01*
X159833333Y-103707200D02*
X159738095Y-103611961D01*
X159738095Y-103611961D02*
X159690476Y-103421485D01*
X159690476Y-103421485D02*
X159690476Y-103088152D01*
X159690476Y-103088152D02*
X159738095Y-102897676D01*
X159738095Y-102897676D02*
X159833333Y-102802438D01*
X159833333Y-102802438D02*
X159928571Y-102754819D01*
X159928571Y-102754819D02*
X160119047Y-102754819D01*
X160119047Y-102754819D02*
X160214285Y-102802438D01*
X160214285Y-102802438D02*
X160309523Y-102897676D01*
X160309523Y-102897676D02*
X160357142Y-103088152D01*
X160357142Y-103088152D02*
X160357142Y-103421485D01*
X160357142Y-103421485D02*
X160309523Y-103611961D01*
X160309523Y-103611961D02*
X160214285Y-103707200D01*
X160214285Y-103707200D02*
X160119047Y-103754819D01*
X160119047Y-103754819D02*
X159928571Y-103754819D01*
X161309523Y-103754819D02*
X160738095Y-103754819D01*
X161023809Y-103754819D02*
X161023809Y-102754819D01*
X161023809Y-102754819D02*
X160928571Y-102897676D01*
X160928571Y-102897676D02*
X160833333Y-102992914D01*
X160833333Y-102992914D02*
X160738095Y-103040533D01*
X146666667Y-92407200D02*
X146809524Y-92454819D01*
X146809524Y-92454819D02*
X147047619Y-92454819D01*
X147047619Y-92454819D02*
X147142857Y-92407200D01*
X147142857Y-92407200D02*
X147190476Y-92359580D01*
X147190476Y-92359580D02*
X147238095Y-92264342D01*
X147238095Y-92264342D02*
X147238095Y-92169104D01*
X147238095Y-92169104D02*
X147190476Y-92073866D01*
X147190476Y-92073866D02*
X147142857Y-92026247D01*
X147142857Y-92026247D02*
X147047619Y-91978628D01*
X147047619Y-91978628D02*
X146857143Y-91931009D01*
X146857143Y-91931009D02*
X146761905Y-91883390D01*
X146761905Y-91883390D02*
X146714286Y-91835771D01*
X146714286Y-91835771D02*
X146666667Y-91740533D01*
X146666667Y-91740533D02*
X146666667Y-91645295D01*
X146666667Y-91645295D02*
X146714286Y-91550057D01*
X146714286Y-91550057D02*
X146761905Y-91502438D01*
X146761905Y-91502438D02*
X146857143Y-91454819D01*
X146857143Y-91454819D02*
X147095238Y-91454819D01*
X147095238Y-91454819D02*
X147238095Y-91502438D01*
X147571429Y-91454819D02*
X147809524Y-92454819D01*
X147809524Y-92454819D02*
X148000000Y-91740533D01*
X148000000Y-91740533D02*
X148190476Y-92454819D01*
X148190476Y-92454819D02*
X148428572Y-91454819D01*
X149333333Y-92454819D02*
X148761905Y-92454819D01*
X149047619Y-92454819D02*
X149047619Y-91454819D01*
X149047619Y-91454819D02*
X148952381Y-91597676D01*
X148952381Y-91597676D02*
X148857143Y-91692914D01*
X148857143Y-91692914D02*
X148761905Y-91740533D01*
X153013095Y-71859819D02*
X153013095Y-72669342D01*
X153013095Y-72669342D02*
X153060714Y-72764580D01*
X153060714Y-72764580D02*
X153108333Y-72812200D01*
X153108333Y-72812200D02*
X153203571Y-72859819D01*
X153203571Y-72859819D02*
X153394047Y-72859819D01*
X153394047Y-72859819D02*
X153489285Y-72812200D01*
X153489285Y-72812200D02*
X153536904Y-72764580D01*
X153536904Y-72764580D02*
X153584523Y-72669342D01*
X153584523Y-72669342D02*
X153584523Y-71859819D01*
X154584523Y-72859819D02*
X154013095Y-72859819D01*
X154298809Y-72859819D02*
X154298809Y-71859819D01*
X154298809Y-71859819D02*
X154203571Y-72002676D01*
X154203571Y-72002676D02*
X154108333Y-72097914D01*
X154108333Y-72097914D02*
X154013095Y-72145533D01*
X115173333Y-124134819D02*
X115173333Y-123134819D01*
X115173333Y-123134819D02*
X115506666Y-123849104D01*
X115506666Y-123849104D02*
X115839999Y-123134819D01*
X115839999Y-123134819D02*
X115839999Y-124134819D01*
X116506666Y-123134819D02*
X116697142Y-123134819D01*
X116697142Y-123134819D02*
X116792380Y-123182438D01*
X116792380Y-123182438D02*
X116887618Y-123277676D01*
X116887618Y-123277676D02*
X116935237Y-123468152D01*
X116935237Y-123468152D02*
X116935237Y-123801485D01*
X116935237Y-123801485D02*
X116887618Y-123991961D01*
X116887618Y-123991961D02*
X116792380Y-124087200D01*
X116792380Y-124087200D02*
X116697142Y-124134819D01*
X116697142Y-124134819D02*
X116506666Y-124134819D01*
X116506666Y-124134819D02*
X116411428Y-124087200D01*
X116411428Y-124087200D02*
X116316190Y-123991961D01*
X116316190Y-123991961D02*
X116268571Y-123801485D01*
X116268571Y-123801485D02*
X116268571Y-123468152D01*
X116268571Y-123468152D02*
X116316190Y-123277676D01*
X116316190Y-123277676D02*
X116411428Y-123182438D01*
X116411428Y-123182438D02*
X116506666Y-123134819D01*
X117363809Y-124134819D02*
X117363809Y-123134819D01*
X117363809Y-123134819D02*
X117601904Y-123134819D01*
X117601904Y-123134819D02*
X117744761Y-123182438D01*
X117744761Y-123182438D02*
X117839999Y-123277676D01*
X117839999Y-123277676D02*
X117887618Y-123372914D01*
X117887618Y-123372914D02*
X117935237Y-123563390D01*
X117935237Y-123563390D02*
X117935237Y-123706247D01*
X117935237Y-123706247D02*
X117887618Y-123896723D01*
X117887618Y-123896723D02*
X117839999Y-123991961D01*
X117839999Y-123991961D02*
X117744761Y-124087200D01*
X117744761Y-124087200D02*
X117601904Y-124134819D01*
X117601904Y-124134819D02*
X117363809Y-124134819D01*
X118697142Y-123611009D02*
X118839999Y-123658628D01*
X118839999Y-123658628D02*
X118887618Y-123706247D01*
X118887618Y-123706247D02*
X118935237Y-123801485D01*
X118935237Y-123801485D02*
X118935237Y-123944342D01*
X118935237Y-123944342D02*
X118887618Y-124039580D01*
X118887618Y-124039580D02*
X118839999Y-124087200D01*
X118839999Y-124087200D02*
X118744761Y-124134819D01*
X118744761Y-124134819D02*
X118363809Y-124134819D01*
X118363809Y-124134819D02*
X118363809Y-123134819D01*
X118363809Y-123134819D02*
X118697142Y-123134819D01*
X118697142Y-123134819D02*
X118792380Y-123182438D01*
X118792380Y-123182438D02*
X118839999Y-123230057D01*
X118839999Y-123230057D02*
X118887618Y-123325295D01*
X118887618Y-123325295D02*
X118887618Y-123420533D01*
X118887618Y-123420533D02*
X118839999Y-123515771D01*
X118839999Y-123515771D02*
X118792380Y-123563390D01*
X118792380Y-123563390D02*
X118697142Y-123611009D01*
X118697142Y-123611009D02*
X118363809Y-123611009D01*
X119363809Y-123134819D02*
X119363809Y-123944342D01*
X119363809Y-123944342D02*
X119411428Y-124039580D01*
X119411428Y-124039580D02*
X119459047Y-124087200D01*
X119459047Y-124087200D02*
X119554285Y-124134819D01*
X119554285Y-124134819D02*
X119744761Y-124134819D01*
X119744761Y-124134819D02*
X119839999Y-124087200D01*
X119839999Y-124087200D02*
X119887618Y-124039580D01*
X119887618Y-124039580D02*
X119935237Y-123944342D01*
X119935237Y-123944342D02*
X119935237Y-123134819D01*
X120363809Y-124087200D02*
X120506666Y-124134819D01*
X120506666Y-124134819D02*
X120744761Y-124134819D01*
X120744761Y-124134819D02*
X120839999Y-124087200D01*
X120839999Y-124087200D02*
X120887618Y-124039580D01*
X120887618Y-124039580D02*
X120935237Y-123944342D01*
X120935237Y-123944342D02*
X120935237Y-123849104D01*
X120935237Y-123849104D02*
X120887618Y-123753866D01*
X120887618Y-123753866D02*
X120839999Y-123706247D01*
X120839999Y-123706247D02*
X120744761Y-123658628D01*
X120744761Y-123658628D02*
X120554285Y-123611009D01*
X120554285Y-123611009D02*
X120459047Y-123563390D01*
X120459047Y-123563390D02*
X120411428Y-123515771D01*
X120411428Y-123515771D02*
X120363809Y-123420533D01*
X120363809Y-123420533D02*
X120363809Y-123325295D01*
X120363809Y-123325295D02*
X120411428Y-123230057D01*
X120411428Y-123230057D02*
X120459047Y-123182438D01*
X120459047Y-123182438D02*
X120554285Y-123134819D01*
X120554285Y-123134819D02*
X120792380Y-123134819D01*
X120792380Y-123134819D02*
X120935237Y-123182438D01*
X121125714Y-124230057D02*
X121887618Y-124230057D01*
X122316190Y-123134819D02*
X122506666Y-123134819D01*
X122506666Y-123134819D02*
X122601904Y-123182438D01*
X122601904Y-123182438D02*
X122697142Y-123277676D01*
X122697142Y-123277676D02*
X122744761Y-123468152D01*
X122744761Y-123468152D02*
X122744761Y-123801485D01*
X122744761Y-123801485D02*
X122697142Y-123991961D01*
X122697142Y-123991961D02*
X122601904Y-124087200D01*
X122601904Y-124087200D02*
X122506666Y-124134819D01*
X122506666Y-124134819D02*
X122316190Y-124134819D01*
X122316190Y-124134819D02*
X122220952Y-124087200D01*
X122220952Y-124087200D02*
X122125714Y-123991961D01*
X122125714Y-123991961D02*
X122078095Y-123801485D01*
X122078095Y-123801485D02*
X122078095Y-123468152D01*
X122078095Y-123468152D02*
X122125714Y-123277676D01*
X122125714Y-123277676D02*
X122220952Y-123182438D01*
X122220952Y-123182438D02*
X122316190Y-123134819D01*
X123173333Y-123134819D02*
X123173333Y-123944342D01*
X123173333Y-123944342D02*
X123220952Y-124039580D01*
X123220952Y-124039580D02*
X123268571Y-124087200D01*
X123268571Y-124087200D02*
X123363809Y-124134819D01*
X123363809Y-124134819D02*
X123554285Y-124134819D01*
X123554285Y-124134819D02*
X123649523Y-124087200D01*
X123649523Y-124087200D02*
X123697142Y-124039580D01*
X123697142Y-124039580D02*
X123744761Y-123944342D01*
X123744761Y-123944342D02*
X123744761Y-123134819D01*
X124078095Y-123134819D02*
X124649523Y-123134819D01*
X124363809Y-124134819D02*
X124363809Y-123134819D01*
X161754819Y-98942857D02*
X161278628Y-99276190D01*
X161754819Y-99514285D02*
X160754819Y-99514285D01*
X160754819Y-99514285D02*
X160754819Y-99133333D01*
X160754819Y-99133333D02*
X160802438Y-99038095D01*
X160802438Y-99038095D02*
X160850057Y-98990476D01*
X160850057Y-98990476D02*
X160945295Y-98942857D01*
X160945295Y-98942857D02*
X161088152Y-98942857D01*
X161088152Y-98942857D02*
X161183390Y-98990476D01*
X161183390Y-98990476D02*
X161231009Y-99038095D01*
X161231009Y-99038095D02*
X161278628Y-99133333D01*
X161278628Y-99133333D02*
X161278628Y-99514285D01*
X160754819Y-98038095D02*
X160754819Y-98514285D01*
X160754819Y-98514285D02*
X161231009Y-98561904D01*
X161231009Y-98561904D02*
X161183390Y-98514285D01*
X161183390Y-98514285D02*
X161135771Y-98419047D01*
X161135771Y-98419047D02*
X161135771Y-98180952D01*
X161135771Y-98180952D02*
X161183390Y-98085714D01*
X161183390Y-98085714D02*
X161231009Y-98038095D01*
X161231009Y-98038095D02*
X161326247Y-97990476D01*
X161326247Y-97990476D02*
X161564342Y-97990476D01*
X161564342Y-97990476D02*
X161659580Y-98038095D01*
X161659580Y-98038095D02*
X161707200Y-98085714D01*
X161707200Y-98085714D02*
X161754819Y-98180952D01*
X161754819Y-98180952D02*
X161754819Y-98419047D01*
X161754819Y-98419047D02*
X161707200Y-98514285D01*
X161707200Y-98514285D02*
X161659580Y-98561904D01*
X160850057Y-97609523D02*
X160802438Y-97561904D01*
X160802438Y-97561904D02*
X160754819Y-97466666D01*
X160754819Y-97466666D02*
X160754819Y-97228571D01*
X160754819Y-97228571D02*
X160802438Y-97133333D01*
X160802438Y-97133333D02*
X160850057Y-97085714D01*
X160850057Y-97085714D02*
X160945295Y-97038095D01*
X160945295Y-97038095D02*
X161040533Y-97038095D01*
X161040533Y-97038095D02*
X161183390Y-97085714D01*
X161183390Y-97085714D02*
X161754819Y-97657142D01*
X161754819Y-97657142D02*
X161754819Y-97038095D01*
%TO.C,U10*%
D10*
X145555000Y-70500000D02*
X130555000Y-70500000D01*
X130555000Y-113500000D01*
X145555000Y-113500000D01*
X145555000Y-70500000D01*
D12*
%TO.C,R1*%
X104210000Y-116090000D02*
X104210000Y-122630000D01*
X104210000Y-122630000D02*
X104540000Y-122630000D01*
X104540000Y-116090000D02*
X104210000Y-116090000D01*
X106620000Y-116090000D02*
X106950000Y-116090000D01*
X106950000Y-116090000D02*
X106950000Y-122630000D01*
X106950000Y-122630000D02*
X106620000Y-122630000D01*
%TO.C,SW2*%
X147400000Y-108800000D02*
X147400000Y-110300000D01*
X148650000Y-112800000D02*
X153150000Y-112800000D01*
X153150000Y-106300000D02*
X148650000Y-106300000D01*
X154400000Y-110300000D02*
X154400000Y-108800000D01*
%TO.C,R2*%
X146180000Y-72970000D02*
X146180000Y-79510000D01*
X146180000Y-79510000D02*
X146510000Y-79510000D01*
X146510000Y-72970000D02*
X146180000Y-72970000D01*
X148590000Y-72970000D02*
X148920000Y-72970000D01*
X148920000Y-72970000D02*
X148920000Y-79510000D01*
X148920000Y-79510000D02*
X148590000Y-79510000D01*
%TO.C,R4*%
X166240000Y-83530000D02*
X166240000Y-83860000D01*
X166240000Y-86270000D02*
X166240000Y-85940000D01*
X172780000Y-83530000D02*
X166240000Y-83530000D01*
X172780000Y-83860000D02*
X172780000Y-83530000D01*
X172780000Y-85940000D02*
X172780000Y-86270000D01*
X172780000Y-86270000D02*
X166240000Y-86270000D01*
D13*
%TO.C,PS1*%
X151960000Y-52923000D02*
X171460000Y-52923000D01*
X151960000Y-60423000D02*
X151960000Y-52923000D01*
X151960000Y-60423000D02*
X171460000Y-60423000D01*
X171460000Y-60423000D02*
X171460000Y-52923000D01*
D14*
X154296000Y-52228000D02*
G75*
G02*
X154096000Y-52228000I-100000J0D01*
G01*
X154096000Y-52228000D02*
G75*
G02*
X154296000Y-52228000I100000J0D01*
G01*
D12*
%TO.C,R6*%
X166240000Y-86630000D02*
X166240000Y-86960000D01*
X166240000Y-89370000D02*
X166240000Y-89040000D01*
X172780000Y-86630000D02*
X166240000Y-86630000D01*
X172780000Y-86960000D02*
X172780000Y-86630000D01*
X172780000Y-89040000D02*
X172780000Y-89370000D01*
X172780000Y-89370000D02*
X166240000Y-89370000D01*
D13*
%TO.C,S1*%
X99650000Y-114282500D02*
X99650000Y-125882500D01*
X99650000Y-125882500D02*
X103650000Y-125882500D01*
X103650000Y-114282500D02*
X99650000Y-114282500D01*
X103650000Y-125882500D02*
X103650000Y-114282500D01*
D14*
X101750000Y-126582500D02*
G75*
G02*
X101550000Y-126582500I-100000J0D01*
G01*
X101550000Y-126582500D02*
G75*
G02*
X101750000Y-126582500I100000J0D01*
G01*
D12*
%TO.C,D7*%
X164690000Y-105401000D02*
X164690000Y-105720000D01*
X164690000Y-107880000D02*
X164690000Y-108199000D01*
X164690000Y-105401251D02*
G75*
G02*
X168993591Y-105720000I2060000J-1398749D01*
G01*
X165066670Y-105720000D02*
G75*
G02*
X168433330Y-105720000I1683330J-1080000D01*
G01*
X168433330Y-107880000D02*
G75*
G02*
X165066670Y-107880000I-1683330J1080000D01*
G01*
X168993591Y-107880000D02*
G75*
G02*
X164690000Y-108198749I-2243591J1080000D01*
G01*
%TO.C,R5*%
X166240000Y-80480000D02*
X166240000Y-80810000D01*
X166240000Y-83220000D02*
X166240000Y-82890000D01*
X172780000Y-80480000D02*
X166240000Y-80480000D01*
X172780000Y-80810000D02*
X172780000Y-80480000D01*
X172780000Y-82890000D02*
X172780000Y-83220000D01*
X172780000Y-83220000D02*
X166240000Y-83220000D01*
%TO.C,R51*%
X163030000Y-95030000D02*
X163030000Y-101570000D01*
X163030000Y-101570000D02*
X163360000Y-101570000D01*
X163360000Y-95030000D02*
X163030000Y-95030000D01*
X165440000Y-95030000D02*
X165770000Y-95030000D01*
X165770000Y-95030000D02*
X165770000Y-101570000D01*
X165770000Y-101570000D02*
X165440000Y-101570000D01*
%TO.C,ANALOG_IN*%
X125100000Y-50280000D02*
X147780000Y-50280000D01*
X125100000Y-60320000D02*
X125100000Y-50280000D01*
X148380000Y-50280000D02*
X150740000Y-50280000D01*
X150740000Y-50280000D02*
X150740000Y-60320000D01*
X150740000Y-50900000D02*
X125100000Y-50900000D01*
X150740000Y-52400000D02*
X125100000Y-52400000D01*
X150740000Y-57300000D02*
X125100000Y-57300000D01*
X150740000Y-60320000D02*
X125100000Y-60320000D01*
X148080000Y-50280000D02*
X147640000Y-49670000D01*
X148520000Y-49670000D01*
X148080000Y-50280000D01*
G36*
X148080000Y-50280000D02*
G01*
X147640000Y-49670000D01*
X148520000Y-49670000D01*
X148080000Y-50280000D01*
G37*
%TO.C,U2*%
X152395000Y-79410000D02*
X152395000Y-89690000D01*
X152395000Y-89690000D02*
X154045000Y-89690000D01*
X156045000Y-89690000D02*
X157695000Y-89690000D01*
X157695000Y-79410000D02*
X152395000Y-79410000D01*
X157695000Y-89690000D02*
X157695000Y-79410000D01*
X154045000Y-89690000D02*
G75*
G02*
X156045000Y-89690000I1000000J0D01*
G01*
%TO.C,Q2*%
X171130000Y-75600000D02*
X167530000Y-75600000D01*
X169330000Y-80050000D02*
G75*
G02*
X167491522Y-75611522I0J2600000D01*
G01*
X171168478Y-75611522D02*
G75*
G02*
X169330000Y-80050001I-1838478J-1838478D01*
G01*
%TO.C,U4*%
D10*
X171700000Y-70300000D02*
X146200000Y-70300000D01*
X146200000Y-61000000D01*
X171700000Y-61000000D01*
X171700000Y-70300000D01*
X150232481Y-63507481D02*
G75*
G02*
X147217519Y-63507481I-1507481J0D01*
G01*
X147217519Y-63507481D02*
G75*
G02*
X150232481Y-63507481I1507481J0D01*
G01*
X170707481Y-63507481D02*
G75*
G02*
X167692519Y-63507481I-1507481J0D01*
G01*
X167692519Y-63507481D02*
G75*
G02*
X170707481Y-63507481I1507481J0D01*
G01*
D12*
%TO.C,MODBUS_IN*%
X141100000Y-124680000D02*
X166740000Y-124680000D01*
X141100000Y-127700000D02*
X166740000Y-127700000D01*
X141100000Y-132600000D02*
X166740000Y-132600000D01*
X141100000Y-134100000D02*
X166740000Y-134100000D01*
X141100000Y-134720000D02*
X141100000Y-124680000D01*
X143460000Y-134720000D02*
X141100000Y-134720000D01*
X166740000Y-124680000D02*
X166740000Y-134720000D01*
X166740000Y-134720000D02*
X144060000Y-134720000D01*
X144200000Y-135330000D02*
X143320000Y-135330000D01*
X143760000Y-134720000D01*
X144200000Y-135330000D01*
G36*
X144200000Y-135330000D02*
G01*
X143320000Y-135330000D01*
X143760000Y-134720000D01*
X144200000Y-135330000D01*
G37*
D13*
%TO.C,U3*%
X99720000Y-62525000D02*
X110789000Y-62525000D01*
X99720000Y-62525000D02*
X128230000Y-62525000D01*
X99720000Y-113475000D02*
X99720000Y-62525000D01*
X99720000Y-113475000D02*
X99720000Y-62525000D01*
X99720000Y-113475000D02*
X105090000Y-113475000D01*
X105090000Y-113475000D02*
X122780000Y-113475000D01*
X110789000Y-62525000D02*
X117500000Y-62525000D01*
X117500000Y-62525000D02*
X128230000Y-62525000D01*
X122780000Y-113475000D02*
X128230000Y-113475000D01*
X128230000Y-62525000D02*
X128230000Y-113475000D01*
X128230000Y-62525000D02*
X128230000Y-113475000D01*
X128230000Y-113475000D02*
X99720000Y-113475000D01*
D14*
X99250000Y-72485000D02*
G75*
G02*
X99050000Y-72485000I-100000J0D01*
G01*
X99050000Y-72485000D02*
G75*
G02*
X99250000Y-72485000I100000J0D01*
G01*
D12*
%TO.C,Q1*%
X158700000Y-108710000D02*
X162300000Y-108710000D01*
X158661522Y-108698478D02*
G75*
G02*
X160500000Y-104259999I1838478J1838478D01*
G01*
X160500000Y-104260000D02*
G75*
G02*
X162338478Y-108698478I0J-2600000D01*
G01*
%TO.C,SW1*%
X146760000Y-92690000D02*
X146760000Y-102590000D01*
X149815000Y-96963333D02*
X148545000Y-96963333D01*
X152355000Y-96963333D02*
X151085000Y-96963333D01*
X154895000Y-96963333D02*
X153625000Y-96963333D01*
X157435000Y-96963333D02*
X156165000Y-96963333D01*
X159220000Y-92690000D02*
X146760000Y-92690000D01*
X159220000Y-92690000D02*
X159220000Y-102590000D01*
X159220000Y-102590000D02*
X146760000Y-102590000D01*
X159460000Y-92450000D02*
X158077000Y-92450000D01*
X159460000Y-92450000D02*
X159460000Y-93833000D01*
X149815000Y-95610000D02*
X148545000Y-95610000D01*
X148545000Y-96963333D01*
X149815000Y-96963333D01*
X149815000Y-95610000D01*
G36*
X149815000Y-95610000D02*
G01*
X148545000Y-95610000D01*
X148545000Y-96963333D01*
X149815000Y-96963333D01*
X149815000Y-95610000D01*
G37*
X149815000Y-95610000D02*
X148545000Y-95610000D01*
X148545000Y-99670000D01*
X149815000Y-99670000D01*
X149815000Y-95610000D01*
X152355000Y-95610000D02*
X151085000Y-95610000D01*
X151085000Y-96963333D01*
X152355000Y-96963333D01*
X152355000Y-95610000D01*
G36*
X152355000Y-95610000D02*
G01*
X151085000Y-95610000D01*
X151085000Y-96963333D01*
X152355000Y-96963333D01*
X152355000Y-95610000D01*
G37*
X152355000Y-95610000D02*
X151085000Y-95610000D01*
X151085000Y-99670000D01*
X152355000Y-99670000D01*
X152355000Y-95610000D01*
X154895000Y-95610000D02*
X153625000Y-95610000D01*
X153625000Y-96963333D01*
X154895000Y-96963333D01*
X154895000Y-95610000D01*
G36*
X154895000Y-95610000D02*
G01*
X153625000Y-95610000D01*
X153625000Y-96963333D01*
X154895000Y-96963333D01*
X154895000Y-95610000D01*
G37*
X154895000Y-95610000D02*
X153625000Y-95610000D01*
X153625000Y-99670000D01*
X154895000Y-99670000D01*
X154895000Y-95610000D01*
X157435000Y-95610000D02*
X156165000Y-95610000D01*
X156165000Y-96963333D01*
X157435000Y-96963333D01*
X157435000Y-95610000D01*
G36*
X157435000Y-95610000D02*
G01*
X156165000Y-95610000D01*
X156165000Y-96963333D01*
X157435000Y-96963333D01*
X157435000Y-95610000D01*
G37*
X157435000Y-95610000D02*
X156165000Y-95610000D01*
X156165000Y-99670000D01*
X157435000Y-99670000D01*
X157435000Y-95610000D01*
%TO.C,U1*%
X153775000Y-73245000D02*
X151825000Y-73245000D01*
X153775000Y-73245000D02*
X155725000Y-73245000D01*
X153775000Y-78365000D02*
X151825000Y-78365000D01*
X153775000Y-78365000D02*
X155725000Y-78365000D01*
X151075000Y-73340000D02*
X150835000Y-73010000D01*
X151315000Y-73010000D01*
X151075000Y-73340000D01*
G36*
X151075000Y-73340000D02*
G01*
X150835000Y-73010000D01*
X151315000Y-73010000D01*
X151075000Y-73340000D01*
G37*
%TO.C,MODBUS_OUT*%
X107020000Y-124680000D02*
X132660000Y-124680000D01*
X107020000Y-127700000D02*
X132660000Y-127700000D01*
X107020000Y-132600000D02*
X132660000Y-132600000D01*
X107020000Y-134100000D02*
X132660000Y-134100000D01*
X107020000Y-134720000D02*
X107020000Y-124680000D01*
X109380000Y-134720000D02*
X107020000Y-134720000D01*
X132660000Y-124680000D02*
X132660000Y-134720000D01*
X132660000Y-134720000D02*
X109980000Y-134720000D01*
X110120000Y-135330000D02*
X109240000Y-135330000D01*
X109680000Y-134720000D01*
X110120000Y-135330000D01*
G36*
X110120000Y-135330000D02*
G01*
X109240000Y-135330000D01*
X109680000Y-134720000D01*
X110120000Y-135330000D01*
G37*
%TO.C,R52*%
X159930000Y-95030000D02*
X160260000Y-95030000D01*
X159930000Y-101570000D02*
X159930000Y-95030000D01*
X160260000Y-101570000D02*
X159930000Y-101570000D01*
X162340000Y-101570000D02*
X162670000Y-101570000D01*
X162670000Y-95030000D02*
X162340000Y-95030000D01*
X162670000Y-101570000D02*
X162670000Y-95030000D01*
%TD*%
M02*
