M48
; DRILL file {KiCad 9.0.3} date 2026-01-21T10:47:00-0500
; FORMAT={-:-/ absolute / metric / decimal}
; #@! TF.CreationDate,2026-01-21T10:47:00-05:00
; #@! TF.GenerationSoftware,Kicad,Pcbnew,9.0.3
; #@! TF.FileFunction,Plated,1,2,PTH
FMAT,2
METRIC
; #@! TA.AperFunction,Plated,PTH,ComponentDrill
T1C0.750
; #@! TA.AperFunction,Plated,PTH,ComponentDrill
T2C0.780
; #@! TA.AperFunction,Plated,PTH,ViaDrill
T3C0.800
; #@! TA.AperFunction,Plated,PTH,ComponentDrill
T4C0.800
; #@! TA.AperFunction,Plated,PTH,ComponentDrill
T5C0.900
; #@! TA.AperFunction,Plated,PTH,ComponentDrill
T6C1.016
; #@! TA.AperFunction,Plated,PTH,ComponentDrill
T7C1.020
; #@! TA.AperFunction,Plated,PTH,ComponentDrill
T8C1.100
; #@! TA.AperFunction,Plated,PTH,ComponentDrill
T9C1.200
; #@! TA.AperFunction,Plated,PTH,ComponentDrill
T10C1.300
%
G90
G05
T1
X159.23Y-106.86
X160.5Y-106.86
X161.77Y-106.86
X168.06Y-77.45
X169.33Y-77.45
X170.6Y-77.45
T2
X154.06Y-54.3
X156.6Y-54.3
X161.68Y-54.3
X166.76Y-54.3
T3
X104.07Y-85.2
X104.1Y-87.7
X105.75Y-97.76
X107.2Y-104.5
X108.29Y-119.93
X108.41Y-123.14
X109.2Y-72.6
X122.75Y-61.9
X126.85Y-124.98
X128.254Y-122.93
X128.68Y-125.34
X129.4Y-74.9
X131.59Y-121.63
X132.24Y-115.08
X136.5Y-67.0
X138.86Y-68.605
X140.65Y-80.0
X140.65Y-86.5
X144.85Y-73.9
X153.91Y-126.3
X154.0Y-56.45
X154.05Y-61.95
X159.3Y-61.8
X160.55Y-83.25
X161.65Y-56.6
X162.62Y-73.0
X163.68Y-92.28
X165.16Y-73.1
X165.85Y-77.65
X167.75Y-73.15
X170.61Y-73.05
T4
X105.58Y-115.55
X105.58Y-123.17
X133.935Y-71.7
X136.475Y-71.7
X139.015Y-71.7
X141.555Y-71.7
X147.55Y-72.43
X147.55Y-80.05
X149.18Y-93.83
X149.18Y-101.45
X151.235Y-80.74
X151.235Y-83.28
X151.235Y-85.82
X151.235Y-88.36
X151.72Y-93.83
X151.72Y-101.45
X154.26Y-93.83
X154.26Y-101.45
X156.8Y-93.83
X156.8Y-101.45
X158.855Y-80.74
X158.855Y-83.28
X158.855Y-85.82
X158.855Y-88.36
X161.3Y-94.49
X161.3Y-102.11
X164.4Y-94.49
X164.4Y-102.11
X165.7Y-81.85
X165.7Y-84.9
X165.7Y-88.0
X173.32Y-81.85
X173.32Y-84.9
X173.32Y-88.0
T5
X101.65Y-117.582
X101.65Y-120.082
X101.65Y-122.582
X165.48Y-106.8
X168.02Y-106.8
T6
X147.38Y-68.64
X149.92Y-68.64
X152.46Y-68.64
X155.0Y-68.64
X157.54Y-68.64
X160.08Y-68.64
X162.62Y-68.64
X165.16Y-68.64
X167.7Y-68.64
X170.24Y-68.64
T7
X101.3Y-72.485
X101.3Y-75.025
X101.3Y-77.565
X101.3Y-80.105
X101.3Y-82.645
X101.3Y-85.185
X101.3Y-87.725
X101.3Y-90.265
X101.3Y-92.805
X101.3Y-95.345
X101.3Y-97.885
X101.3Y-100.425
X101.3Y-102.965
X101.3Y-105.505
X101.3Y-108.045
X126.7Y-72.485
X126.7Y-75.025
X126.7Y-77.565
X126.7Y-80.105
X126.7Y-82.645
X126.7Y-85.185
X126.7Y-87.725
X126.7Y-90.265
X126.7Y-92.805
X126.7Y-95.345
X126.7Y-97.885
X126.7Y-100.425
X126.7Y-102.965
X126.7Y-105.505
X126.7Y-108.045
T8
X147.65Y-107.3
X147.65Y-111.8
X154.15Y-107.3
X154.15Y-111.8
T9
X132.895Y-111.3
X137.975Y-111.3
X143.055Y-111.3
T10
X109.68Y-130.0
X114.76Y-130.0
X119.84Y-130.0
X124.92Y-130.0
X127.76Y-55.0
X130.0Y-130.0
X132.84Y-55.0
X137.92Y-55.0
X143.0Y-55.0
X143.76Y-130.0
X148.08Y-55.0
X148.84Y-130.0
X153.92Y-130.0
X159.0Y-130.0
X164.08Y-130.0
M30
