%TF.GenerationSoftware,KiCad,Pcbnew,9.0.3*%
%TF.CreationDate,2026-01-26T07:37:58-05:00*%
%TF.ProjectId,MASTER,4d415354-4552-42e6-9b69-6361645f7063,rev?*%
%TF.SameCoordinates,Original*%
%TF.FileFunction,Soldermask,Top*%
%TF.FilePolarity,Negative*%
%FSLAX46Y46*%
G04 Gerber Fmt 4.6, Leading zero omitted, Abs format (unit mm)*
G04 Created by KiCad (PCBNEW 9.0.3) date 2026-01-26 07:37:58*
%MOMM*%
%LPD*%
G01*
G04 APERTURE LIST*
G04 Aperture macros list*
%AMRoundRect*
0 Rectangle with rounded corners*
0 $1 Rounding radius*
0 $2 $3 $4 $5 $6 $7 $8 $9 X,Y pos of 4 corners*
0 Add a 4 corners polygon primitive as box body*
4,1,4,$2,$3,$4,$5,$6,$7,$8,$9,$2,$3,0*
0 Add four circle primitives for the rounded corners*
1,1,$1+$1,$2,$3*
1,1,$1+$1,$4,$5*
1,1,$1+$1,$6,$7*
1,1,$1+$1,$8,$9*
0 Add four rect primitives between the rounded corners*
20,1,$1+$1,$2,$3,$4,$5,0*
20,1,$1+$1,$4,$5,$6,$7,0*
20,1,$1+$1,$6,$7,$8,$9,0*
20,1,$1+$1,$8,$9,$2,$3,0*%
G04 Aperture macros list end*
%ADD10C,2.000000*%
%ADD11C,1.600000*%
%ADD12RoundRect,0.250000X-1.050000X-1.050000X1.050000X-1.050000X1.050000X1.050000X-1.050000X1.050000X0*%
%ADD13C,2.600000*%
%ADD14RoundRect,0.250000X-0.550000X0.550000X-0.550000X-0.550000X0.550000X-0.550000X0.550000X0.550000X0*%
%ADD15C,1.800000*%
%ADD16RoundRect,0.250000X-0.650000X1.000000X-0.650000X-1.000000X0.650000X-1.000000X0.650000X1.000000X0*%
%ADD17RoundRect,0.102000X0.704000X-0.704000X0.704000X0.704000X-0.704000X0.704000X-0.704000X-0.704000X0*%
%ADD18C,1.612000*%
%ADD19R,1.800000X1.800000*%
%ADD20RoundRect,0.250000X0.550000X-0.550000X0.550000X0.550000X-0.550000X0.550000X-0.550000X-0.550000X0*%
%ADD21RoundRect,0.250000X-0.950000X-0.550000X0.950000X-0.550000X0.950000X0.550000X-0.950000X0.550000X0*%
%ADD22O,2.400000X1.600000*%
%ADD23RoundRect,0.250000X-0.750000X0.900000X-0.750000X-0.900000X0.750000X-0.900000X0.750000X0.900000X0*%
%ADD24RoundRect,0.250000X-1.020000X1.020000X-1.020000X-1.020000X1.020000X-1.020000X1.020000X1.020000X0*%
G04 APERTURE END LIST*
D10*
%TO.C,SW4*%
X79665000Y-73325000D03*
X86165000Y-73325000D03*
X79665000Y-77825000D03*
X86165000Y-77825000D03*
%TD*%
D11*
%TO.C,R11*%
X81123300Y-97865000D03*
X81123300Y-105485000D03*
%TD*%
D10*
%TO.C,C4*%
X101665000Y-83925000D03*
X101665000Y-78925000D03*
%TD*%
D11*
%TO.C,R12*%
X67855000Y-88175000D03*
X75475000Y-88175000D03*
%TD*%
D12*
%TO.C,DIGITAL_INPUTS1*%
X71620000Y-112925000D03*
D13*
X76700000Y-112925000D03*
X81780000Y-112925000D03*
X86860000Y-112925000D03*
X91940000Y-112925000D03*
%TD*%
D12*
%TO.C,MODBUS_OUT1*%
X45160000Y-112925000D03*
D13*
X50240000Y-112925000D03*
X55320000Y-112925000D03*
X60400000Y-112925000D03*
X65480000Y-112925000D03*
%TD*%
D11*
%TO.C,R8*%
X67855000Y-94175000D03*
X75475000Y-94175000D03*
%TD*%
%TO.C,C1*%
X58355000Y-102175000D03*
X58355000Y-104675000D03*
%TD*%
D14*
%TO.C,C3*%
X103415000Y-87772300D03*
D11*
X103415000Y-92772300D03*
%TD*%
D15*
%TO.C,ESP32*%
X47930000Y-59525000D03*
X50470000Y-59525000D03*
X53010000Y-59525000D03*
X55550000Y-59525000D03*
X58090000Y-59525000D03*
X60630000Y-59525000D03*
X63170000Y-59525000D03*
X65710000Y-59525000D03*
X68250000Y-59525000D03*
X70790000Y-59525000D03*
X73330000Y-59525000D03*
X75870000Y-59525000D03*
X78410000Y-59525000D03*
X47930000Y-36325000D03*
X50470000Y-36325000D03*
X53010000Y-36325000D03*
X55550000Y-36325000D03*
X58090000Y-36325000D03*
X60630000Y-36325000D03*
X63170000Y-36325000D03*
X65710000Y-36325000D03*
X68250000Y-36325000D03*
X70790000Y-36325000D03*
X73330000Y-36325000D03*
X75870000Y-36325000D03*
X78410000Y-36325000D03*
%TD*%
D10*
%TO.C,SW2*%
X69915000Y-73325000D03*
X76415000Y-73325000D03*
X69915000Y-77825000D03*
X76415000Y-77825000D03*
%TD*%
D12*
%TO.C,PWR_IN1*%
X98080000Y-112925000D03*
D13*
X103160000Y-112925000D03*
%TD*%
D11*
%TO.C,R0*%
X53115000Y-51735000D03*
X53115000Y-44115000D03*
%TD*%
%TO.C,R10*%
X67855000Y-91175000D03*
X75475000Y-91175000D03*
%TD*%
D10*
%TO.C,SW1*%
X69915000Y-65675000D03*
X76415000Y-65675000D03*
X69915000Y-70175000D03*
X76415000Y-70175000D03*
%TD*%
D11*
%TO.C,R6*%
X60765000Y-44115000D03*
X60765000Y-51735000D03*
%TD*%
%TO.C,R2*%
X99665000Y-51615000D03*
X99665000Y-59235000D03*
%TD*%
D16*
%TO.C,D5*%
X71915000Y-101175000D03*
X71915000Y-105175000D03*
%TD*%
D11*
%TO.C,R4*%
X61105000Y-105175000D03*
X68725000Y-105175000D03*
%TD*%
D10*
%TO.C,SW5*%
X89465000Y-69600000D03*
X95965000Y-69600000D03*
X89465000Y-74100000D03*
X95965000Y-74100000D03*
%TD*%
D17*
%TO.C,S1*%
X103165000Y-103425000D03*
D18*
X103165000Y-100925000D03*
X103165000Y-98425000D03*
%TD*%
D11*
%TO.C,R1*%
X56940000Y-51735000D03*
X56940000Y-44115000D03*
%TD*%
D14*
%TO.C,D7*%
X91915000Y-97865000D03*
D11*
X91915000Y-105485000D03*
%TD*%
D19*
%TO.C,D1*%
X101945000Y-73700000D03*
D15*
X101945000Y-71160000D03*
%TD*%
D14*
%TO.C,D8*%
X94415000Y-97865000D03*
D11*
X94415000Y-105485000D03*
%TD*%
D20*
%TO.C,U5*%
X84060000Y-93230000D03*
D11*
X86600000Y-93230000D03*
X86600000Y-85610000D03*
X84060000Y-85610000D03*
%TD*%
D14*
%TO.C,D4*%
X67665000Y-44115000D03*
D11*
X67665000Y-51735000D03*
%TD*%
D19*
%TO.C,D2*%
X101915000Y-64635000D03*
D15*
X101915000Y-67175000D03*
%TD*%
D11*
%TO.C,C5*%
X106165000Y-82675000D03*
X106165000Y-80175000D03*
%TD*%
D21*
%TO.C,U1*%
X57415000Y-64735000D03*
D22*
X57415000Y-67275000D03*
X57415000Y-69815000D03*
X57415000Y-72355000D03*
X57415000Y-74895000D03*
X57415000Y-77435000D03*
X57415000Y-79975000D03*
X57415000Y-82515000D03*
X57415000Y-85055000D03*
X57415000Y-87595000D03*
X57415000Y-90135000D03*
X57415000Y-92675000D03*
X57415000Y-95215000D03*
X57415000Y-97755000D03*
X65035000Y-97755000D03*
X65035000Y-95215000D03*
X65035000Y-92675000D03*
X65035000Y-90135000D03*
X65035000Y-87595000D03*
X65035000Y-85055000D03*
X65035000Y-82515000D03*
X65035000Y-79975000D03*
X65035000Y-77435000D03*
X65035000Y-74895000D03*
X65035000Y-72355000D03*
X65035000Y-69815000D03*
X65035000Y-67275000D03*
X65035000Y-64735000D03*
%TD*%
D20*
%TO.C,U7*%
X94220000Y-93230000D03*
D11*
X96760000Y-93230000D03*
X96760000Y-85610000D03*
X94220000Y-85610000D03*
%TD*%
%TO.C,R13*%
X84000000Y-97865000D03*
X84000000Y-105485000D03*
%TD*%
D20*
%TO.C,U6*%
X89140000Y-93230000D03*
D11*
X91680000Y-93230000D03*
X91680000Y-85610000D03*
X89140000Y-85610000D03*
%TD*%
D23*
%TO.C,U2*%
X50915000Y-64625000D03*
X48375000Y-64625000D03*
X45835000Y-64625000D03*
X43295000Y-64625000D03*
D24*
X52415000Y-104225000D03*
X47335000Y-104225000D03*
X42255000Y-104225000D03*
%TD*%
D11*
%TO.C,R9*%
X78206700Y-97865000D03*
X78206700Y-105485000D03*
%TD*%
D14*
%TO.C,D9*%
X96915000Y-97865000D03*
D11*
X96915000Y-105485000D03*
%TD*%
D10*
%TO.C,SW3*%
X79665000Y-65675000D03*
X86165000Y-65675000D03*
X79665000Y-70175000D03*
X86165000Y-70175000D03*
%TD*%
D11*
%TO.C,R5*%
X68725000Y-101125000D03*
X61105000Y-101125000D03*
%TD*%
D14*
%TO.C,D6*%
X89415000Y-97865000D03*
D11*
X89415000Y-105485000D03*
%TD*%
%TO.C,R14*%
X67855000Y-85175000D03*
X75475000Y-85175000D03*
%TD*%
%TO.C,R3*%
X103115000Y-51615000D03*
X103115000Y-59235000D03*
%TD*%
%TO.C,R7*%
X75290000Y-97865000D03*
X75290000Y-105485000D03*
%TD*%
D20*
%TO.C,U4*%
X78980000Y-93230000D03*
D11*
X81520000Y-93230000D03*
X81520000Y-85610000D03*
X78980000Y-85610000D03*
%TD*%
D20*
%TO.C,D3*%
X64340000Y-51735000D03*
D11*
X64340000Y-44115000D03*
%TD*%
M02*
