M48
; DRILL file {KiCad 9.0.3} date 2026-01-21T10:43:07-0500
; FORMAT={-:-/ absolute / metric / decimal}
; #@! TF.CreationDate,2026-01-21T10:43:07-05:00
; #@! TF.GenerationSoftware,Kicad,Pcbnew,9.0.3
; #@! TF.FileFunction,Plated,1,2,PTH
FMAT,2
METRIC
; #@! TA.AperFunction,Plated,PTH,ComponentDrill
T1C0.750
; #@! TA.AperFunction,Plated,PTH,ComponentDrill
T2C0.780
; #@! TA.AperFunction,Plated,PTH,ViaDrill
T3C0.800
; #@! TA.AperFunction,Plated,PTH,ComponentDrill
T4C0.800
; #@! TA.AperFunction,Plated,PTH,ComponentDrill
T5C0.900
; #@! TA.AperFunction,Plated,PTH,ComponentDrill
T6C1.016
; #@! TA.AperFunction,Plated,PTH,ComponentDrill
T7C1.020
; #@! TA.AperFunction,Plated,PTH,ComponentDrill
T8C1.100
; #@! TA.AperFunction,Plated,PTH,ComponentDrill
T9C1.200
; #@! TA.AperFunction,Plated,PTH,ComponentDrill
T10C1.300
%
G90
G05
T1
X140.76Y-112.51
X142.03Y-112.51
X143.3Y-112.51
T2
X86.5Y-51.927
X89.04Y-51.927
X94.12Y-51.927
X99.2Y-51.927
T3
X85.1Y-83.04
X85.45Y-85.54
X86.4Y-95.5
X87.7Y-103.4
X89.64Y-117.77
X89.76Y-120.98
X90.55Y-70.44
X108.2Y-123.3
X109.604Y-120.77
X110.03Y-123.18
X110.75Y-72.74
X112.94Y-119.47
X113.59Y-112.92
X117.85Y-64.6
X120.7Y-64.6
X129.335Y-79.1
X135.26Y-124.14
X136.2Y-80.9
X136.2Y-88.8
X137.5Y-83.3
T4
X86.8Y-113.39
X86.8Y-121.01
X115.23Y-69.85
X117.77Y-69.85
X120.31Y-69.85
X122.85Y-69.85
X130.677Y-97.532
X130.677Y-105.152
X133.218Y-97.532
X133.218Y-105.152
X133.48Y-52.8
X133.48Y-58.0
X133.48Y-63.2
X133.48Y-68.4
X135.757Y-97.532
X135.757Y-105.152
X138.297Y-97.532
X138.297Y-105.152
X141.1Y-52.8
X141.1Y-58.0
X141.1Y-63.2
X141.1Y-68.4
X142.8Y-97.18
X142.8Y-104.8
X143.4Y-52.8
X143.4Y-58.0
X143.4Y-63.2
X143.4Y-68.4
X150.1Y-119.49
X150.1Y-127.11
X153.4Y-52.8
X153.4Y-58.0
X153.4Y-63.2
X153.4Y-68.4
T5
X82.6Y-115.4
X82.6Y-117.9
X82.6Y-120.4
X146.96Y-112.6
X149.5Y-112.6
T6
X130.97Y-77.2
X133.51Y-77.2
X136.05Y-77.2
X138.59Y-77.2
X141.13Y-77.2
X143.67Y-77.2
X146.21Y-77.2
X148.75Y-77.2
X151.29Y-77.2
X153.83Y-77.2
T7
X82.75Y-70.435
X82.75Y-72.975
X82.75Y-75.515
X82.75Y-78.055
X82.75Y-80.595
X82.75Y-83.135
X82.75Y-85.675
X82.75Y-88.215
X82.75Y-90.755
X82.75Y-93.295
X82.75Y-95.835
X82.75Y-98.375
X82.75Y-100.915
X82.75Y-103.455
X82.75Y-105.995
X108.15Y-70.435
X108.15Y-72.975
X108.15Y-75.515
X108.15Y-78.055
X108.15Y-80.595
X108.15Y-83.135
X108.15Y-85.675
X108.15Y-88.215
X108.15Y-90.755
X108.15Y-93.295
X108.15Y-95.835
X108.15Y-98.375
X108.15Y-100.915
X108.15Y-103.455
X108.15Y-105.995
T8
X129.7Y-109.35
X129.7Y-113.85
X136.2Y-109.35
X136.2Y-113.85
T9
X114.19Y-109.45
X119.27Y-109.45
X124.35Y-109.45
T10
X91.09Y-127.672
X96.17Y-127.672
X101.25Y-127.672
X106.33Y-127.672
X107.42Y-53.2
X111.41Y-127.672
X112.5Y-53.2
X117.58Y-53.2
X122.66Y-53.2
X125.22Y-127.672
X127.74Y-53.2
X130.3Y-127.672
X135.38Y-127.672
X140.46Y-127.672
X145.54Y-127.672
M30
