M48
; DRILL file {KiCad 9.0.3} date 2026-01-21T10:49:22-0500
; FORMAT={-:-/ absolute / metric / decimal}
; #@! TF.CreationDate,2026-01-21T10:49:22-05:00
; #@! TF.GenerationSoftware,Kicad,Pcbnew,9.0.3
; #@! TF.FileFunction,Plated,1,2,PTH
FMAT,2
METRIC
; #@! TA.AperFunction,Plated,PTH,ViaDrill
T1C0.800
; #@! TA.AperFunction,Plated,PTH,ComponentDrill
T2C0.800
; #@! TA.AperFunction,Plated,PTH,ComponentDrill
T3C0.900
; #@! TA.AperFunction,Plated,PTH,ComponentDrill
T4C1.000
; #@! TA.AperFunction,Plated,PTH,ComponentDrill
T5C1.300
%
G90
G05
T1
X97.2Y-111.5
X99.95Y-119.55
X100.1Y-107.9
X100.7Y-69.7
X101.3Y-64.0
X101.3Y-81.95
X101.35Y-87.75
X102.6Y-73.7
X103.4Y-67.4
X103.8Y-95.7
X104.0Y-105.5
X104.55Y-87.875
X107.5Y-67.6
X108.1Y-105.4
X108.1Y-114.1
X108.3Y-91.35
X109.9Y-112.2
X110.05Y-67.35
X110.075Y-72.975
X111.5Y-96.4
X111.65Y-91.35
X111.75Y-79.85
X116.1Y-66.1
X117.2Y-124.5
X117.3Y-89.0
X117.35Y-86.25
X119.15Y-110.45
X120.15Y-64.95
X120.15Y-77.85
X121.5Y-76.2
X122.25Y-105.15
X122.3Y-112.55
X122.876Y-73.95
X124.0Y-77.55
X124.25Y-85.5
X124.5Y-87.75
X127.675Y-68.7
X128.475Y-119.2
X129.5Y-70.0
X129.624Y-108.55
X129.7Y-82.05
X129.7Y-87.3
X129.775Y-64.1
X131.5Y-66.9
X132.7Y-95.65
X133.1Y-86.9
X135.625Y-67.375
X135.725Y-91.5
X136.6Y-105.5
X136.6Y-113.9
X137.875Y-67.3
X138.175Y-72.45
X138.175Y-111.825
X139.0Y-107.25
X139.2Y-91.2
X139.3Y-95.8
X140.2Y-79.5
X144.9Y-89.025
X145.1Y-86.3
X145.37Y-126.8
X145.4Y-65.85
X148.35Y-64.975
X148.7Y-77.927
X149.0Y-110.653
X149.2Y-76.1
X149.9Y-105.35
X150.4Y-112.4
X150.8Y-75.0
X151.5Y-77.2
X152.225Y-85.25
X152.25Y-88.0
X154.175Y-57.65
X156.3Y-68.625
X156.6Y-120.0
X157.5Y-108.4
X157.7Y-88.2
X157.75Y-82.075
X157.9Y-64.2
X157.9Y-69.7
X158.0Y-67.1
X159.9Y-95.875
X160.1Y-99.8
X161.475Y-88.5
X162.3Y-114.15
X163.0Y-91.9
X163.7Y-67.5
X164.65Y-105.35
X165.493Y-67.663
X166.185Y-72.572
X166.275Y-107.1
X166.75Y-96.525
X167.0Y-89.8
X168.36Y-79.5
X172.9Y-86.5
X172.93Y-65.88
X173.063Y-88.293
X173.6Y-123.9
X176.2Y-77.4
X176.5Y-65.3
X177.7Y-76.1
X178.5Y-105.2
X178.6Y-74.3
X178.65Y-111.975
X179.9Y-76.1
X180.8Y-85.2
X180.85Y-122.0
X181.0Y-87.5
T2
X98.8Y-75.935
X98.8Y-93.605
X101.295Y-98.87
X101.295Y-101.41
X101.295Y-103.95
X101.295Y-110.195
X101.295Y-112.735
X101.295Y-115.275
X101.3Y-62.1
X101.3Y-72.1
X101.3Y-79.77
X101.3Y-89.77
X103.8Y-75.935
X103.8Y-93.605
X105.98Y-79.85
X105.98Y-83.3
X105.98Y-97.925
X105.98Y-101.681
X105.98Y-105.438
X105.98Y-108.944
X105.98Y-112.45
X106.5Y-116.29
X106.5Y-123.91
X107.46Y-62.5
X107.46Y-70.12
X108.3Y-86.49
X108.3Y-94.11
X109.58Y-75.75
X110.0Y-62.5
X110.0Y-70.12
X111.14Y-115.8
X111.65Y-86.49
X111.65Y-94.11
X112.12Y-75.75
X112.54Y-62.5
X112.54Y-70.12
X113.6Y-79.85
X113.6Y-83.3
X113.6Y-97.925
X113.6Y-101.681
X113.6Y-105.438
X113.6Y-108.944
X113.6Y-112.45
X114.66Y-75.75
X115.08Y-62.5
X115.08Y-70.12
X115.08Y-86.49
X115.08Y-94.11
X116.64Y-79.9
X116.64Y-83.3
X116.64Y-101.681
X116.64Y-105.271
X116.64Y-108.86
X116.64Y-112.45
X117.2Y-75.75
X117.62Y-62.5
X117.62Y-70.12
X118.76Y-115.8
X120.16Y-62.5
X120.16Y-70.12
X122.7Y-62.5
X122.7Y-70.12
X124.26Y-79.9
X124.26Y-83.3
X124.26Y-101.681
X124.26Y-105.271
X124.26Y-108.86
X124.26Y-112.45
X126.675Y-75.95
X127.155Y-93.805
X129.65Y-99.137
X129.65Y-101.677
X129.65Y-104.217
X129.65Y-110.528
X129.65Y-113.068
X129.65Y-115.608
X129.655Y-62.1
X129.655Y-72.1
X129.655Y-79.903
X129.655Y-89.903
X131.675Y-75.95
X132.155Y-93.805
X134.315Y-82.9
X134.34Y-79.5
X134.39Y-97.925
X134.39Y-101.777
X134.39Y-105.525
X134.39Y-108.95
X134.39Y-112.45
X134.7Y-116.29
X134.7Y-123.91
X135.63Y-62.5
X135.63Y-70.12
X135.725Y-86.49
X135.725Y-94.11
X137.75Y-75.75
X138.17Y-62.5
X138.17Y-70.12
X139.3Y-86.49
X139.3Y-94.11
X139.54Y-115.55
X140.29Y-75.75
X140.71Y-62.5
X140.71Y-70.12
X141.935Y-82.9
X141.96Y-79.5
X142.01Y-97.925
X142.01Y-101.777
X142.01Y-105.525
X142.01Y-108.95
X142.01Y-112.45
X142.83Y-75.75
X143.0Y-86.415
X143.0Y-94.035
X143.25Y-62.5
X143.25Y-70.12
X144.53Y-82.9
X144.565Y-79.5
X144.765Y-112.45
X144.84Y-101.777
X144.89Y-105.525
X144.89Y-108.95
X145.37Y-75.75
X145.79Y-62.5
X145.79Y-70.12
X147.16Y-115.55
X148.33Y-62.5
X148.33Y-70.12
X150.87Y-62.5
X150.87Y-70.12
X152.15Y-82.9
X152.185Y-79.5
X152.385Y-112.45
X152.46Y-101.777
X152.51Y-105.525
X152.51Y-108.95
X154.9Y-76.027
X154.9Y-93.88
X157.5Y-110.653
X157.5Y-113.193
X157.5Y-115.733
X157.595Y-99.237
X157.595Y-101.777
X157.595Y-104.317
X157.7Y-79.953
X157.7Y-89.953
X157.9Y-62.1
X157.9Y-72.1
X159.9Y-76.027
X159.9Y-93.88
X161.88Y-79.85
X162.09Y-112.0
X162.18Y-108.8
X162.29Y-105.4
X162.38Y-101.8
X162.39Y-98.1
X162.45Y-116.29
X162.45Y-123.91
X162.48Y-82.9
X162.9Y-86.4
X162.9Y-94.02
X163.76Y-62.5
X163.76Y-70.12
X165.88Y-75.75
X166.3Y-62.5
X166.3Y-70.12
X166.7Y-86.29
X166.7Y-93.91
X168.04Y-115.0
X168.42Y-75.75
X168.84Y-62.5
X168.84Y-70.12
X169.5Y-79.85
X169.71Y-112.0
X169.8Y-108.8
X169.91Y-105.4
X170.0Y-101.8
X170.01Y-98.1
X170.1Y-82.9
X170.5Y-86.49
X170.5Y-94.11
X170.96Y-75.75
X171.38Y-62.5
X171.38Y-70.12
X172.98Y-108.8
X172.98Y-112.0
X172.99Y-101.7
X172.99Y-105.4
X173.09Y-79.5
X173.09Y-82.9
X173.5Y-75.75
X173.92Y-62.5
X173.92Y-70.12
X175.66Y-115.0
X176.46Y-62.5
X176.46Y-70.12
X179.0Y-62.5
X179.0Y-70.12
X180.6Y-108.8
X180.6Y-112.0
X180.61Y-101.7
X180.61Y-105.4
X180.71Y-79.5
X180.71Y-82.9
T3
X100.03Y-121.75
X102.57Y-121.75
X128.385Y-122.15
X130.925Y-122.15
X156.33Y-122.15
X158.87Y-122.15
T4
X112.2Y-120.75
X117.2Y-120.75
X140.37Y-120.75
X145.37Y-120.75
X168.5Y-120.75
X173.5Y-120.75
T5
X129.615Y-55.0
X132.155Y-130.25
X134.695Y-55.0
X137.235Y-130.25
X139.775Y-55.0
X142.315Y-130.25
X144.855Y-55.0
X147.395Y-130.25
X149.935Y-55.0
M30
