<?xml version="1.0" ?>
<svg height="58.199999999999996mm" version="1.1" viewBox="88.4 -159.79999999999998 63.19999999999999 58.199999999999996" width="63.19999999999999mm" xmlns="http://www.w3.org/2000/svg" xmlns:xlink="http://www.w3.org/1999/xlink">
	<g transform="scale(1,-1)">
		<g>
			<path d="M 91.6,-100.0 L 91.59229556267552,-100.1568274245273 L 91.56925644864516,-100.31214451522581 L 91.53110453717153,-100.46445548360714 L 91.47820725201805,-100.61229349178414 L 91.41107402295737,-100.7542347789216 L 91.33035137968407,-100.88891237283136 L 91.23681672538038,-101.01502925466183 L 91.13137084989847,-101.13137084989847 L 91.01502925466184,-101.23681672538038 L 90.88891237283137,-101.33035137968407 L 90.7542347789216,-101.41107402295737 L 90.61229349178414,-101.47820725201805 L 90.46445548360714,-101.53110453717153 L 90.31214451522581,-101.56925644864516 L 90.1568274245273,-101.59229556267552 L 90.0,-101.6 L 89.8431725754727,-101.59229556267552 L 89.6878554847742,-101.56925644864516 L 89.53554451639286,-101.53110453717153 L 89.38770650821586,-101.47820725201807 L 89.2457652210784,-101.41107402295737 L 89.11108762716864,-101.33035137968407 L 88.98497074533817,-101.23681672538038 L 88.86862915010153,-101.13137084989847 L 88.76318327461962,-101.01502925466184 L 88.66964862031593,-100.88891237283137 L 88.58892597704263,-100.7542347789216 L 88.52179274798195,-100.61229349178414 L 88.46889546282847,-100.46445548360714 L 88.43074355135484,-100.31214451522581 L 88.40770443732448,-100.1568274245273 L 88.4,-100.0 L 88.40770443732448,-99.8431725754727 L 88.43074355135484,-99.68785548477419 L 88.46889546282847,-99.53554451639286 L 88.52179274798195,-99.38770650821586 L 88.58892597704263,-99.2457652210784 L 88.66964862031593,-99.11108762716864 L 88.76318327461962,-98.98497074533817 L 88.86862915010153,-98.86862915010153 L 88.98497074533816,-98.76318327461962 L 89.11108762716863,-98.66964862031593 L 89.2457652210784,-98.58892597704263 L 89.38770650821586,-98.52179274798195 L 89.53554451639286,-98.46889546282847 L 89.68785548477419,-98.43074355135484 L 89.84317257547269,-98.40770443732448 L 90.0,-98.4 L 90.1568274245273,-98.40770443732448 L 90.3121445152258,-98.43074355135484 L 90.46445548360714,-98.46889546282847 L 90.61229349178414,-98.52179274798193 L 90.75423477892159,-98.58892597704263 L 90.88891237283136,-98.66964862031593 L 91.01502925466183,-98.76318327461962 L 91.13137084989847,-98.86862915010151 L 91.23681672538038,-98.98497074533816 L 91.33035137968406,-99.11108762716863 L 91.41107402295737,-99.2457652210784 L 91.47820725201805,-99.38770650821584 L 91.53110453717153,-99.53554451639285 L 91.56925644864516,-99.68785548477419 L 91.59229556267552,-99.84317257547269 L 91.6,-99.99999999999999 L 91.6,-100.0 z" fill="#66cc99" fill-rule="evenodd" opacity="0.6" stroke="#555555" stroke-width="0.02"/>
			<path d="M 151.6,-100.0 L 151.5922955626755,-100.1568274245273 L 151.56925644864518,-100.31214451522581 L 151.53110453717153,-100.46445548360714 L 151.47820725201805,-100.61229349178414 L 151.41107402295737,-100.7542347789216 L 151.33035137968406,-100.88891237283136 L 151.23681672538038,-101.01502925466183 L 151.13137084989847,-101.13137084989847 L 151.01502925466184,-101.23681672538038 L 150.88891237283136,-101.33035137968407 L 150.75423477892159,-101.41107402295737 L 150.61229349178416,-101.47820725201805 L 150.46445548360714,-101.53110453717153 L 150.3121445152258,-101.56925644864516 L 150.1568274245273,-101.59229556267552 L 150.0,-101.6 L 149.8431725754727,-101.59229556267552 L 149.6878554847742,-101.56925644864516 L 149.53554451639286,-101.53110453717153 L 149.38770650821587,-101.47820725201807 L 149.24576522107841,-101.41107402295737 L 149.11108762716864,-101.33035137968407 L 148.98497074533816,-101.23681672538038 L 148.86862915010153,-101.13137084989847 L 148.76318327461962,-101.01502925466184 L 148.66964862031594,-100.88891237283137 L 148.58892597704263,-100.7542347789216 L 148.52179274798195,-100.61229349178414 L 148.46889546282847,-100.46445548360714 L 148.43074355135482,-100.31214451522581 L 148.4077044373245,-100.1568274245273 L 148.4,-100.0 L 148.4077044373245,-99.8431725754727 L 148.43074355135482,-99.68785548477419 L 148.46889546282847,-99.53554451639286 L 148.52179274798195,-99.38770650821586 L 148.58892597704263,-99.2457652210784 L 148.66964862031594,-99.11108762716864 L 148.76318327461962,-98.98497074533817 L 148.86862915010153,-98.86862915010153 L 148.98497074533816,-98.76318327461962 L 149.11108762716864,-98.66964862031593 L 149.24576522107841,-98.58892597704263 L 149.38770650821584,-98.52179274798195 L 149.53554451639286,-98.46889546282847 L 149.6878554847742,-98.43074355135484 L 149.8431725754727,-98.40770443732448 L 150.0,-98.4 L 150.15682742452728,-98.40770443732448 L 150.3121445152258,-98.43074355135484 L 150.46445548360714,-98.46889546282847 L 150.61229349178413,-98.52179274798193 L 150.75423477892159,-98.58892597704263 L 150.88891237283136,-98.66964862031593 L 151.01502925466184,-98.76318327461962 L 151.13137084989847,-98.86862915010151 L 151.23681672538038,-98.98497074533816 L 151.33035137968406,-99.11108762716863 L 151.41107402295737,-99.2457652210784 L 151.47820725201805,-99.38770650821584 L 151.53110453717153,-99.53554451639285 L 151.56925644864518,-99.68785548477419 L 151.5922955626755,-99.84317257547269 L 151.6,-99.99999999999999 L 151.6,-100.0 z" fill="#66cc99" fill-rule="evenodd" opacity="0.6" stroke="#555555" stroke-width="0.02"/>
			<path d="M 91.6,-45.0 L 91.59229556267552,-45.1568274245273 L 91.56925644864516,-45.3121445152258 L 91.53110453717153,-45.46445548360714 L 91.47820725201805,-45.61229349178414 L 91.41107402295737,-45.75423477892159 L 91.33035137968407,-45.88891237283136 L 91.23681672538038,-46.01502925466183 L 91.13137084989847,-46.131370849898474 L 91.01502925466184,-46.23681672538038 L 90.88891237283137,-46.330351379684075 L 90.7542347789216,-46.411074022957365 L 90.61229349178414,-46.47820725201806 L 90.46445548360714,-46.53110453717154 L 90.31214451522581,-46.56925644864517 L 90.1568274245273,-46.59229556267552 L 90.0,-46.6 L 89.8431725754727,-46.59229556267552 L 89.6878554847742,-46.56925644864517 L 89.53554451639286,-46.53110453717154 L 89.38770650821586,-46.47820725201806 L 89.2457652210784,-46.41107402295737 L 89.11108762716864,-46.330351379684075 L 88.98497074533817,-46.23681672538038 L 88.86862915010153,-46.13137084989848 L 88.76318327461962,-46.01502925466183 L 88.66964862031593,-45.88891237283136 L 88.58892597704263,-45.7542347789216 L 88.52179274798195,-45.61229349178414 L 88.46889546282847,-45.46445548360714 L 88.43074355135484,-45.31214451522581 L 88.40770443732448,-45.1568274245273 L 88.4,-45.0 L 88.40770443732448,-44.84317257547271 L 88.43074355135484,-44.6878554847742 L 88.46889546282847,-44.53554451639286 L 88.52179274798195,-44.38770650821586 L 88.58892597704263,-44.24576522107841 L 88.66964862031593,-44.11108762716864 L 88.76318327461962,-43.98497074533817 L 88.86862915010153,-43.868629150101526 L 88.98497074533816,-43.76318327461962 L 89.11108762716863,-43.669648620315925 L 89.2457652210784,-43.588925977042635 L 89.38770650821586,-43.52179274798194 L 89.53554451639286,-43.46889546282846 L 89.68785548477419,-43.43074355135483 L 89.84317257547269,-43.40770443732448 L 90.0,-43.4 L 90.1568274245273,-43.40770443732448 L 90.3121445152258,-43.43074355135483 L 90.46445548360714,-43.46889546282846 L 90.61229349178414,-43.52179274798194 L 90.75423477892159,-43.58892597704263 L 90.88891237283136,-43.669648620315925 L 91.01502925466183,-43.763183274619614 L 91.13137084989847,-43.86862915010152 L 91.23681672538038,-43.98497074533816 L 91.33035137968406,-44.11108762716863 L 91.41107402295737,-44.24576522107839 L 91.47820725201805,-44.38770650821585 L 91.53110453717153,-44.53554451639285 L 91.56925644864516,-44.68785548477418 L 91.59229556267552,-44.84317257547269 L 91.6,-44.999999999999986 L 91.6,-45.0 z" fill="#66cc99" fill-rule="evenodd" opacity="0.6" stroke="#555555" stroke-width="0.02"/>
			<path d="M 151.6,-45.0 L 151.5922955626755,-45.1568274245273 L 151.56925644864518,-45.3121445152258 L 151.53110453717153,-45.46445548360714 L 151.47820725201805,-45.61229349178414 L 151.41107402295737,-45.75423477892159 L 151.33035137968406,-45.88891237283136 L 151.23681672538038,-46.01502925466183 L 151.13137084989847,-46.131370849898474 L 151.01502925466184,-46.23681672538038 L 150.88891237283136,-46.330351379684075 L 150.75423477892159,-46.411074022957365 L 150.61229349178416,-46.47820725201806 L 150.46445548360714,-46.53110453717154 L 150.3121445152258,-46.56925644864517 L 150.1568274245273,-46.59229556267552 L 150.0,-46.6 L 149.8431725754727,-46.59229556267552 L 149.6878554847742,-46.56925644864517 L 149.53554451639286,-46.53110453717154 L 149.38770650821587,-46.47820725201806 L 149.24576522107841,-46.41107402295737 L 149.11108762716864,-46.330351379684075 L 148.98497074533816,-46.23681672538038 L 148.86862915010153,-46.13137084989848 L 148.76318327461962,-46.01502925466183 L 148.66964862031594,-45.88891237283136 L 148.58892597704263,-45.7542347789216 L 148.52179274798195,-45.61229349178414 L 148.46889546282847,-45.46445548360714 L 148.43074355135482,-45.31214451522581 L 148.4077044373245,-45.1568274245273 L 148.4,-45.0 L 148.4077044373245,-44.84317257547271 L 148.43074355135482,-44.6878554847742 L 148.46889546282847,-44.53554451639286 L 148.52179274798195,-44.38770650821586 L 148.58892597704263,-44.24576522107841 L 148.66964862031594,-44.11108762716864 L 148.76318327461962,-43.98497074533817 L 148.86862915010153,-43.868629150101526 L 148.98497074533816,-43.76318327461962 L 149.11108762716864,-43.669648620315925 L 149.24576522107841,-43.588925977042635 L 149.38770650821584,-43.52179274798194 L 149.53554451639286,-43.46889546282846 L 149.6878554847742,-43.43074355135483 L 149.8431725754727,-43.40770443732448 L 150.0,-43.4 L 150.15682742452728,-43.40770443732448 L 150.3121445152258,-43.43074355135483 L 150.46445548360714,-43.46889546282846 L 150.61229349178413,-43.52179274798194 L 150.75423477892159,-43.58892597704263 L 150.88891237283136,-43.669648620315925 L 151.01502925466184,-43.763183274619614 L 151.13137084989847,-43.86862915010152 L 151.23681672538038,-43.98497074533816 L 151.33035137968406,-44.11108762716863 L 151.41107402295737,-44.24576522107839 L 151.47820725201805,-44.38770650821585 L 151.53110453717153,-44.53554451639285 L 151.56925644864518,-44.68785548477418 L 151.5922955626755,-44.84317257547269 L 151.6,-44.999999999999986 L 151.6,-45.0 z" fill="#66cc99" fill-rule="evenodd" opacity="0.6" stroke="#555555" stroke-width="0.02"/>
		</g>
	</g>
	 
</svg>
