%TF.GenerationSoftware,KiCad,Pcbnew,9.0.3*%
%TF.CreationDate,2026-01-26T07:38:29-05:00*%
%TF.ProjectId,SLAVE_PRESSURE,534c4156-455f-4505-9245-53535552452e,rev?*%
%TF.SameCoordinates,Original*%
%TF.FileFunction,Legend,Top*%
%TF.FilePolarity,Positive*%
%FSLAX46Y46*%
G04 Gerber Fmt 4.6, Leading zero omitted, Abs format (unit mm)*
G04 Created by KiCad (PCBNEW 9.0.3) date 2026-01-26 07:38:29*
%MOMM*%
%LPD*%
G01*
G04 APERTURE LIST*
%ADD10C,0.100000*%
%ADD11C,0.150000*%
%ADD12C,0.120000*%
%ADD13C,0.127000*%
%ADD14C,0.200000*%
G04 APERTURE END LIST*
D10*
G36*
X143622462Y-91650000D02*
G01*
X143503577Y-91650000D01*
X143485808Y-91095080D01*
X143478298Y-90881306D01*
X143436654Y-91005626D01*
X143304824Y-91360816D01*
X143220805Y-91360816D01*
X143095081Y-91019242D01*
X143053437Y-90881306D01*
X143050690Y-91104666D01*
X143034997Y-91650000D01*
X142920203Y-91650000D01*
X142963922Y-90759002D01*
X143108087Y-90759002D01*
X143228315Y-91095080D01*
X143267211Y-91208469D01*
X143304824Y-91095080D01*
X143431159Y-90759002D01*
X143579414Y-90759002D01*
X143622462Y-91650000D01*
G37*
G36*
X144103716Y-90747104D02*
G01*
X144153349Y-90757766D01*
X144196982Y-90774816D01*
X144237161Y-90798782D01*
X144272416Y-90828621D01*
X144303167Y-90864759D01*
X144339425Y-90927984D01*
X144366365Y-91007336D01*
X144381760Y-91094341D01*
X144387247Y-91196746D01*
X144383786Y-91276795D01*
X144374047Y-91345621D01*
X144358854Y-91404658D01*
X144336907Y-91461493D01*
X144311324Y-91509313D01*
X144282345Y-91549249D01*
X144248015Y-91584418D01*
X144210553Y-91612515D01*
X144169627Y-91634063D01*
X144103471Y-91654773D01*
X144033401Y-91661723D01*
X143976683Y-91658030D01*
X143927048Y-91647488D01*
X143883435Y-91630643D01*
X143843305Y-91606824D01*
X143808155Y-91576993D01*
X143777556Y-91540701D01*
X143741648Y-91477146D01*
X143715030Y-91397452D01*
X143699955Y-91310066D01*
X143694575Y-91207004D01*
X143694863Y-91200287D01*
X143820909Y-91200287D01*
X143824121Y-91277836D01*
X143833183Y-91345062D01*
X143849539Y-91407306D01*
X143871834Y-91457292D01*
X143902365Y-91499375D01*
X143939795Y-91530198D01*
X143984588Y-91549408D01*
X144040239Y-91556210D01*
X144094499Y-91549040D01*
X144139219Y-91528489D01*
X144176872Y-91496213D01*
X144207912Y-91453201D01*
X144230956Y-91402820D01*
X144247846Y-91342009D01*
X144257510Y-91277045D01*
X144260852Y-91205783D01*
X144257726Y-91128827D01*
X144248884Y-91061741D01*
X144232780Y-90999438D01*
X144210293Y-90949145D01*
X144179428Y-90906774D01*
X144141661Y-90875872D01*
X144096477Y-90856669D01*
X144040239Y-90849860D01*
X143985974Y-90857041D01*
X143941504Y-90877581D01*
X143904226Y-90909843D01*
X143873544Y-90952869D01*
X143850780Y-91003269D01*
X143833915Y-91064427D01*
X143824239Y-91129580D01*
X143820909Y-91200287D01*
X143694863Y-91200287D01*
X143697973Y-91127858D01*
X143707555Y-91059471D01*
X143722541Y-91000497D01*
X143744312Y-90943629D01*
X143769795Y-90895791D01*
X143798744Y-90855844D01*
X143833098Y-90820649D01*
X143870442Y-90792579D01*
X143911096Y-90771092D01*
X143976994Y-90750341D01*
X144047017Y-90743370D01*
X144103716Y-90747104D01*
G37*
G36*
X145113076Y-91650000D02*
G01*
X144954624Y-91650000D01*
X144694322Y-91094042D01*
X144619156Y-90915317D01*
X144619156Y-91364846D01*
X144619156Y-91650000D01*
X144505766Y-91650000D01*
X144505766Y-90759002D01*
X144662204Y-90759002D01*
X144910171Y-91285772D01*
X144999686Y-91489776D01*
X144999686Y-91012159D01*
X144999686Y-90759002D01*
X145113076Y-90759002D01*
X145113076Y-91650000D01*
G37*
G36*
X145516504Y-90861584D02*
G01*
X145310852Y-90861584D01*
X145310852Y-90759002D01*
X145845072Y-90759002D01*
X145845072Y-90861584D01*
X145639419Y-90861584D01*
X145639419Y-91546441D01*
X145845072Y-91546441D01*
X145845072Y-91650000D01*
X145310852Y-91650000D01*
X145310852Y-91546441D01*
X145516504Y-91546441D01*
X145516504Y-90861584D01*
G37*
G36*
X146672689Y-90862561D02*
G01*
X146408296Y-90862561D01*
X146408296Y-91650000D01*
X146285381Y-91650000D01*
X146285381Y-90862561D01*
X146020988Y-90862561D01*
X146020988Y-90759002D01*
X146672689Y-90759002D01*
X146672689Y-90862561D01*
G37*
G36*
X147179222Y-90747104D02*
G01*
X147228855Y-90757766D01*
X147272488Y-90774816D01*
X147312667Y-90798782D01*
X147347922Y-90828621D01*
X147378673Y-90864759D01*
X147414931Y-90927984D01*
X147441871Y-91007336D01*
X147457266Y-91094341D01*
X147462753Y-91196746D01*
X147459292Y-91276795D01*
X147449553Y-91345621D01*
X147434360Y-91404658D01*
X147412412Y-91461493D01*
X147386830Y-91509313D01*
X147357851Y-91549249D01*
X147323521Y-91584418D01*
X147286059Y-91612515D01*
X147245133Y-91634063D01*
X147178977Y-91654773D01*
X147108907Y-91661723D01*
X147052189Y-91658030D01*
X147002554Y-91647488D01*
X146958941Y-91630643D01*
X146918811Y-91606824D01*
X146883661Y-91576993D01*
X146853062Y-91540701D01*
X146817154Y-91477146D01*
X146790536Y-91397452D01*
X146775461Y-91310066D01*
X146770081Y-91207004D01*
X146770369Y-91200287D01*
X146896415Y-91200287D01*
X146899626Y-91277836D01*
X146908688Y-91345062D01*
X146925045Y-91407306D01*
X146947340Y-91457292D01*
X146977871Y-91499375D01*
X147015300Y-91530198D01*
X147060094Y-91549408D01*
X147115745Y-91556210D01*
X147170004Y-91549040D01*
X147214725Y-91528489D01*
X147252378Y-91496213D01*
X147283418Y-91453201D01*
X147306462Y-91402820D01*
X147323352Y-91342009D01*
X147333016Y-91277045D01*
X147336358Y-91205783D01*
X147333232Y-91128827D01*
X147324390Y-91061741D01*
X147308286Y-90999438D01*
X147285799Y-90949145D01*
X147254934Y-90906774D01*
X147217167Y-90875872D01*
X147171983Y-90856669D01*
X147115745Y-90849860D01*
X147061480Y-90857041D01*
X147017010Y-90877581D01*
X146979732Y-90909843D01*
X146949050Y-90952869D01*
X146926286Y-91003269D01*
X146909421Y-91064427D01*
X146899745Y-91129580D01*
X146896415Y-91200287D01*
X146770369Y-91200287D01*
X146773479Y-91127858D01*
X146783061Y-91059471D01*
X146798046Y-91000497D01*
X146819818Y-90943629D01*
X146845301Y-90895791D01*
X146874250Y-90855844D01*
X146908604Y-90820649D01*
X146945948Y-90792579D01*
X146986602Y-90771092D01*
X147052499Y-90750341D01*
X147122523Y-90743370D01*
X147179222Y-90747104D01*
G37*
G36*
X147930129Y-90763617D02*
G01*
X147989097Y-90776160D01*
X148041344Y-90797346D01*
X148080993Y-90824092D01*
X148112103Y-90858106D01*
X148133566Y-90898342D01*
X148146032Y-90943394D01*
X148150358Y-90994513D01*
X148147229Y-91035456D01*
X148138024Y-91073586D01*
X148122726Y-91109216D01*
X148101448Y-91141364D01*
X148074602Y-91169528D01*
X148041365Y-91194120D01*
X148003495Y-91213268D01*
X147959055Y-91227276D01*
X147993630Y-91244714D01*
X148022924Y-91271973D01*
X148048188Y-91307098D01*
X148076536Y-91356908D01*
X148217952Y-91650000D01*
X148080627Y-91650000D01*
X147947453Y-91366495D01*
X147916679Y-91312639D01*
X147899980Y-91293086D01*
X147882851Y-91278750D01*
X147863930Y-91267968D01*
X147843223Y-91260737D01*
X147795107Y-91255303D01*
X147737710Y-91255303D01*
X147737710Y-91650000D01*
X147616138Y-91650000D01*
X147616138Y-91157606D01*
X147737710Y-91157606D01*
X147836079Y-91157606D01*
X147877886Y-91155017D01*
X147913626Y-91147714D01*
X147946079Y-91135103D01*
X147972366Y-91118222D01*
X147993854Y-91096480D01*
X148009918Y-91070228D01*
X148019810Y-91040301D01*
X148023291Y-91004771D01*
X148017824Y-90958932D01*
X148002738Y-90923970D01*
X147978533Y-90897243D01*
X147946776Y-90878343D01*
X147905628Y-90866082D01*
X147852504Y-90861584D01*
X147737710Y-90861584D01*
X147737710Y-91157606D01*
X147616138Y-91157606D01*
X147616138Y-90759002D01*
X147855252Y-90759002D01*
X147930129Y-90763617D01*
G37*
G36*
X149467882Y-90763617D02*
G01*
X149526850Y-90776160D01*
X149579097Y-90797346D01*
X149618746Y-90824092D01*
X149649856Y-90858106D01*
X149671319Y-90898342D01*
X149683785Y-90943394D01*
X149688111Y-90994513D01*
X149684982Y-91035456D01*
X149675777Y-91073586D01*
X149660479Y-91109216D01*
X149639201Y-91141364D01*
X149612355Y-91169528D01*
X149579118Y-91194120D01*
X149541248Y-91213268D01*
X149496808Y-91227276D01*
X149531383Y-91244714D01*
X149560677Y-91271973D01*
X149585941Y-91307098D01*
X149614289Y-91356908D01*
X149755705Y-91650000D01*
X149618380Y-91650000D01*
X149485206Y-91366495D01*
X149454432Y-91312639D01*
X149437733Y-91293086D01*
X149420604Y-91278750D01*
X149401683Y-91267968D01*
X149380976Y-91260737D01*
X149332860Y-91255303D01*
X149275463Y-91255303D01*
X149275463Y-91650000D01*
X149153891Y-91650000D01*
X149153891Y-91157606D01*
X149275463Y-91157606D01*
X149373832Y-91157606D01*
X149415639Y-91155017D01*
X149451379Y-91147714D01*
X149483832Y-91135103D01*
X149510119Y-91118222D01*
X149531607Y-91096480D01*
X149547671Y-91070228D01*
X149557563Y-91040301D01*
X149561044Y-91004771D01*
X149555577Y-90958932D01*
X149540491Y-90923970D01*
X149516286Y-90897243D01*
X149484529Y-90878343D01*
X149443381Y-90866082D01*
X149390257Y-90861584D01*
X149275463Y-90861584D01*
X149275463Y-91157606D01*
X149153891Y-91157606D01*
X149153891Y-90759002D01*
X149393005Y-90759002D01*
X149467882Y-90763617D01*
G37*
G36*
X150451492Y-91650000D02*
G01*
X149943955Y-91650000D01*
X149943955Y-90759002D01*
X150451492Y-90759002D01*
X150451492Y-90861584D01*
X150065527Y-90861584D01*
X150065527Y-91137090D01*
X150436471Y-91137090D01*
X150436471Y-91239672D01*
X150065527Y-91239672D01*
X150065527Y-91546441D01*
X150451492Y-91546441D01*
X150451492Y-91650000D01*
G37*
G36*
X151341940Y-90759002D02*
G01*
X151038652Y-91650000D01*
X150874704Y-91650000D01*
X150578254Y-90759002D01*
X150715519Y-90759002D01*
X150908165Y-91359595D01*
X150962814Y-91535450D01*
X151018868Y-91359595D01*
X151212186Y-90759002D01*
X151341940Y-90759002D01*
G37*
G36*
X152015867Y-91379073D02*
G01*
X152009838Y-91436068D01*
X151991932Y-91489105D01*
X151962421Y-91536844D01*
X151920246Y-91578986D01*
X151867884Y-91612566D01*
X151800018Y-91639619D01*
X151724254Y-91655847D01*
X151631307Y-91661723D01*
X151535625Y-91658182D01*
X151456429Y-91649023D01*
X151456429Y-91542533D01*
X151545883Y-91554073D01*
X151642237Y-91558164D01*
X151706657Y-91554952D01*
X151756604Y-91546318D01*
X151801077Y-91531253D01*
X151834151Y-91512124D01*
X151860348Y-91487141D01*
X151877870Y-91457964D01*
X151888006Y-91424755D01*
X151891548Y-91386217D01*
X151887290Y-91351208D01*
X151875123Y-91322165D01*
X151855682Y-91297364D01*
X151829022Y-91276491D01*
X151797293Y-91260708D01*
X151758008Y-91248892D01*
X151715573Y-91242065D01*
X151667516Y-91239672D01*
X151565728Y-91239672D01*
X151565728Y-91141974D01*
X151668859Y-91141974D01*
X151708036Y-91139219D01*
X151742254Y-91131350D01*
X151773438Y-91118129D01*
X151798980Y-91100758D01*
X151819748Y-91078564D01*
X151835189Y-91051543D01*
X151844547Y-91020957D01*
X151847828Y-90985170D01*
X151842392Y-90939110D01*
X151827587Y-90905047D01*
X151804109Y-90879963D01*
X151773157Y-90862693D01*
X151731401Y-90851216D01*
X151675698Y-90846929D01*
X151630374Y-90849086D01*
X151582764Y-90855722D01*
X151480304Y-90882100D01*
X151480304Y-90778541D01*
X151529824Y-90763703D01*
X151582459Y-90752712D01*
X151634726Y-90745812D01*
X151684552Y-90743370D01*
X151753264Y-90747472D01*
X151809604Y-90758818D01*
X151860221Y-90778168D01*
X151899730Y-90803148D01*
X151931579Y-90835174D01*
X151954379Y-90873185D01*
X151968103Y-90916226D01*
X151972881Y-90965936D01*
X151968232Y-91015917D01*
X151954988Y-91058480D01*
X151933558Y-91095080D01*
X151904823Y-91126897D01*
X151869274Y-91154578D01*
X151825969Y-91178183D01*
X151860304Y-91186269D01*
X151894601Y-91199982D01*
X151926761Y-91218665D01*
X151955417Y-91241870D01*
X151979743Y-91269562D01*
X151999137Y-91302137D01*
X152011592Y-91338317D01*
X152015867Y-91379073D01*
G37*
G36*
X142158094Y-92442717D02*
G01*
X142219775Y-92453656D01*
X142277574Y-92473077D01*
X142326692Y-92500978D01*
X142367983Y-92538246D01*
X142400148Y-92585425D01*
X142414880Y-92620906D01*
X142424200Y-92662484D01*
X142427504Y-92711332D01*
X142422437Y-92765224D01*
X142406987Y-92819288D01*
X142381039Y-92869605D01*
X142343423Y-92914909D01*
X142295659Y-92952353D01*
X142233453Y-92983358D01*
X142188094Y-92997408D01*
X142135211Y-93006372D01*
X142073596Y-93009553D01*
X141962954Y-93009553D01*
X141962954Y-93330000D01*
X141841382Y-93330000D01*
X141841382Y-92905994D01*
X141962954Y-92905994D01*
X142076343Y-92905994D01*
X142146950Y-92900054D01*
X142201199Y-92883922D01*
X142242673Y-92859160D01*
X142267482Y-92833709D01*
X142285555Y-92802467D01*
X142297003Y-92764208D01*
X142301108Y-92717194D01*
X142294373Y-92662801D01*
X142275508Y-92620024D01*
X142244749Y-92586097D01*
X142204732Y-92561921D01*
X142153282Y-92546312D01*
X142087273Y-92540607D01*
X141962954Y-92540607D01*
X141962954Y-92905994D01*
X141841382Y-92905994D01*
X141841382Y-92439002D01*
X142092769Y-92439002D01*
X142158094Y-92442717D01*
G37*
G36*
X142639629Y-92642212D02*
G01*
X142748256Y-92642212D01*
X142751614Y-92768668D01*
X142794413Y-92722172D01*
X142834252Y-92687630D01*
X142871537Y-92663155D01*
X142911908Y-92644694D01*
X142951457Y-92633996D01*
X142990728Y-92630488D01*
X143043134Y-92635242D01*
X143086420Y-92648601D01*
X143122393Y-92669900D01*
X143152294Y-92699426D01*
X143174530Y-92734764D01*
X143191012Y-92779208D01*
X143201005Y-92834809D01*
X143203158Y-92904040D01*
X143082929Y-92904040D01*
X143080290Y-92844218D01*
X143070871Y-92802256D01*
X143056612Y-92773614D01*
X143035021Y-92751251D01*
X143007953Y-92737819D01*
X142973631Y-92733070D01*
X142949880Y-92735169D01*
X142925515Y-92741618D01*
X142901603Y-92752301D01*
X142875628Y-92768852D01*
X142821284Y-92816845D01*
X142759857Y-92887615D01*
X142759857Y-93330000D01*
X142639629Y-93330000D01*
X142639629Y-92642212D01*
G37*
G36*
X143731673Y-92636414D02*
G01*
X143789646Y-92653142D01*
X143841008Y-92680699D01*
X143882886Y-92717194D01*
X143915823Y-92762462D01*
X143940283Y-92817944D01*
X143954691Y-92879351D01*
X143959761Y-92950507D01*
X143959089Y-92993005D01*
X143957013Y-93025184D01*
X143475428Y-93025184D01*
X143479557Y-93077513D01*
X143491118Y-93120839D01*
X143509348Y-93156815D01*
X143534168Y-93186690D01*
X143564976Y-93210266D01*
X143602496Y-93227797D01*
X143648118Y-93239018D01*
X143703611Y-93243049D01*
X143763695Y-93240546D01*
X143821764Y-93233646D01*
X143875375Y-93223815D01*
X143922880Y-93211786D01*
X143922880Y-93309483D01*
X143872681Y-93322163D01*
X143813215Y-93332747D01*
X143751443Y-93339446D01*
X143686514Y-93341723D01*
X143602000Y-93335331D01*
X143534840Y-93317787D01*
X143476362Y-93288006D01*
X143430670Y-93248361D01*
X143395794Y-93198583D01*
X143370586Y-93136926D01*
X143356221Y-93068393D01*
X143351108Y-92987449D01*
X143355135Y-92933349D01*
X143475428Y-92933349D01*
X143836113Y-92933349D01*
X143834853Y-92888503D01*
X143827259Y-92849207D01*
X143813123Y-92813348D01*
X143793432Y-92783628D01*
X143767877Y-92759284D01*
X143736340Y-92740703D01*
X143700391Y-92729297D01*
X143657144Y-92725254D01*
X143619493Y-92729127D01*
X143586070Y-92740397D01*
X143556265Y-92758536D01*
X143530749Y-92782957D01*
X143510068Y-92812641D01*
X143493196Y-92848902D01*
X143481711Y-92888598D01*
X143475428Y-92933349D01*
X143355135Y-92933349D01*
X143356397Y-92916394D01*
X143371930Y-92850368D01*
X143397803Y-92789147D01*
X143432685Y-92736856D01*
X143477050Y-92693116D01*
X143530749Y-92659248D01*
X143570385Y-92643520D01*
X143614083Y-92633834D01*
X143662579Y-92630488D01*
X143731673Y-92636414D01*
G37*
G36*
X144692429Y-93142055D02*
G01*
X144689232Y-93176989D01*
X144680094Y-93207023D01*
X144665559Y-93234154D01*
X144646633Y-93257948D01*
X144623921Y-93278447D01*
X144597479Y-93295928D01*
X144537701Y-93321878D01*
X144472488Y-93336899D01*
X144406909Y-93341723D01*
X144278803Y-93335556D01*
X144220892Y-93327491D01*
X144164376Y-93315711D01*
X144164376Y-93206229D01*
X144224627Y-93221344D01*
X144283932Y-93232241D01*
X144343334Y-93238893D01*
X144402085Y-93241095D01*
X144459142Y-93237927D01*
X144500010Y-93229692D01*
X144528481Y-93217892D01*
X144551738Y-93199638D01*
X144564951Y-93177943D01*
X144569452Y-93151580D01*
X144562980Y-93118424D01*
X144554301Y-93104600D01*
X144539410Y-93090397D01*
X144519591Y-93077822D01*
X144486471Y-93062676D01*
X144388468Y-93029825D01*
X144302678Y-92998745D01*
X144265464Y-92979302D01*
X144234717Y-92957346D01*
X144209040Y-92931249D01*
X144189655Y-92901292D01*
X144177584Y-92867185D01*
X144173290Y-92825394D01*
X144176415Y-92796265D01*
X144186602Y-92762501D01*
X144204129Y-92730182D01*
X144232031Y-92698876D01*
X144268181Y-92672843D01*
X144318798Y-92649966D01*
X144377179Y-92635811D01*
X144455391Y-92630488D01*
X144544845Y-92634945D01*
X144647366Y-92650211D01*
X144647366Y-92755785D01*
X144541120Y-92735635D01*
X144454048Y-92729162D01*
X144411359Y-92731053D01*
X144379187Y-92736062D01*
X144350659Y-92744612D01*
X144330033Y-92754930D01*
X144313529Y-92768369D01*
X144303044Y-92783140D01*
X144296920Y-92799866D01*
X144294862Y-92817883D01*
X144302006Y-92851406D01*
X144311649Y-92865487D01*
X144328690Y-92880471D01*
X144382973Y-92908497D01*
X144473831Y-92938906D01*
X144531994Y-92957930D01*
X144576291Y-92976214D01*
X144615221Y-92997558D01*
X144643946Y-93019628D01*
X144666433Y-93045419D01*
X144681132Y-93073667D01*
X144689477Y-93105021D01*
X144692429Y-93142055D01*
G37*
G36*
X145461305Y-93142055D02*
G01*
X145458109Y-93176989D01*
X145448971Y-93207023D01*
X145434436Y-93234154D01*
X145415510Y-93257948D01*
X145392798Y-93278447D01*
X145366356Y-93295928D01*
X145306577Y-93321878D01*
X145241364Y-93336899D01*
X145175785Y-93341723D01*
X145047680Y-93335556D01*
X144989769Y-93327491D01*
X144933252Y-93315711D01*
X144933252Y-93206229D01*
X144993503Y-93221344D01*
X145052809Y-93232241D01*
X145112211Y-93238893D01*
X145170961Y-93241095D01*
X145228019Y-93237927D01*
X145268887Y-93229692D01*
X145297357Y-93217892D01*
X145320614Y-93199638D01*
X145333828Y-93177943D01*
X145338329Y-93151580D01*
X145331856Y-93118424D01*
X145323178Y-93104600D01*
X145308287Y-93090397D01*
X145288467Y-93077822D01*
X145255347Y-93062676D01*
X145157345Y-93029825D01*
X145071555Y-92998745D01*
X145034341Y-92979302D01*
X145003594Y-92957346D01*
X144977916Y-92931249D01*
X144958531Y-92901292D01*
X144946461Y-92867185D01*
X144942167Y-92825394D01*
X144945291Y-92796265D01*
X144955478Y-92762501D01*
X144973005Y-92730182D01*
X145000907Y-92698876D01*
X145037058Y-92672843D01*
X145087675Y-92649966D01*
X145146055Y-92635811D01*
X145224267Y-92630488D01*
X145313721Y-92634945D01*
X145416242Y-92650211D01*
X145416242Y-92755785D01*
X145309997Y-92735635D01*
X145222924Y-92729162D01*
X145180235Y-92731053D01*
X145148064Y-92736062D01*
X145119536Y-92744612D01*
X145098910Y-92754930D01*
X145082406Y-92768369D01*
X145071921Y-92783140D01*
X145065796Y-92799866D01*
X145063739Y-92817883D01*
X145070883Y-92851406D01*
X145080526Y-92865487D01*
X145097566Y-92880471D01*
X145151849Y-92908497D01*
X145242708Y-92938906D01*
X145300870Y-92957930D01*
X145345168Y-92976214D01*
X145384098Y-92997558D01*
X145412823Y-93019628D01*
X145435310Y-93045419D01*
X145450009Y-93073667D01*
X145458353Y-93105021D01*
X145461305Y-93142055D01*
G37*
G36*
X146238364Y-93330000D02*
G01*
X146131813Y-93330000D01*
X146127722Y-93219052D01*
X146069287Y-93277976D01*
X146041134Y-93299585D01*
X146014271Y-93315833D01*
X145986596Y-93328105D01*
X145959316Y-93335922D01*
X145900942Y-93341723D01*
X145848411Y-93337339D01*
X145805396Y-93325100D01*
X145770065Y-93305807D01*
X145741085Y-93279441D01*
X145719015Y-93247245D01*
X145702163Y-93206483D01*
X145691133Y-93155242D01*
X145687108Y-93091191D01*
X145687108Y-92642212D01*
X145805993Y-92642212D01*
X145805993Y-93081910D01*
X145812056Y-93145314D01*
X145827791Y-93188412D01*
X145851150Y-93216847D01*
X145882563Y-93233962D01*
X145924817Y-93240118D01*
X145967498Y-93233646D01*
X145988181Y-93225085D01*
X146011218Y-93211053D01*
X146060433Y-93167517D01*
X146119540Y-93098335D01*
X146119540Y-92642212D01*
X146238364Y-92642212D01*
X146238364Y-93330000D01*
G37*
G36*
X146484011Y-92642212D02*
G01*
X146592638Y-92642212D01*
X146595996Y-92768668D01*
X146638795Y-92722172D01*
X146678635Y-92687630D01*
X146715920Y-92663155D01*
X146756290Y-92644694D01*
X146795839Y-92633996D01*
X146835110Y-92630488D01*
X146887516Y-92635242D01*
X146930803Y-92648601D01*
X146966776Y-92669900D01*
X146996677Y-92699426D01*
X147018912Y-92734764D01*
X147035394Y-92779208D01*
X147045387Y-92834809D01*
X147047540Y-92904040D01*
X146927312Y-92904040D01*
X146924672Y-92844218D01*
X146915254Y-92802256D01*
X146900995Y-92773614D01*
X146879403Y-92751251D01*
X146852336Y-92737819D01*
X146818013Y-92733070D01*
X146794263Y-92735169D01*
X146769897Y-92741618D01*
X146745986Y-92752301D01*
X146720011Y-92768852D01*
X146665667Y-92816845D01*
X146604239Y-92887615D01*
X146604239Y-93330000D01*
X146484011Y-93330000D01*
X146484011Y-92642212D01*
G37*
G36*
X147576055Y-92636414D02*
G01*
X147634028Y-92653142D01*
X147685390Y-92680699D01*
X147727268Y-92717194D01*
X147760205Y-92762462D01*
X147784665Y-92817944D01*
X147799074Y-92879351D01*
X147804144Y-92950507D01*
X147803472Y-92993005D01*
X147801396Y-93025184D01*
X147319810Y-93025184D01*
X147323940Y-93077513D01*
X147335500Y-93120839D01*
X147353730Y-93156815D01*
X147378550Y-93186690D01*
X147409358Y-93210266D01*
X147446879Y-93227797D01*
X147492500Y-93239018D01*
X147547994Y-93243049D01*
X147608078Y-93240546D01*
X147666146Y-93233646D01*
X147719758Y-93223815D01*
X147767263Y-93211786D01*
X147767263Y-93309483D01*
X147717063Y-93322163D01*
X147657598Y-93332747D01*
X147595826Y-93339446D01*
X147530897Y-93341723D01*
X147446383Y-93335331D01*
X147379222Y-93317787D01*
X147320745Y-93288006D01*
X147275052Y-93248361D01*
X147240176Y-93198583D01*
X147214969Y-93136926D01*
X147200603Y-93068393D01*
X147195490Y-92987449D01*
X147199517Y-92933349D01*
X147319810Y-92933349D01*
X147680496Y-92933349D01*
X147679236Y-92888503D01*
X147671642Y-92849207D01*
X147657506Y-92813348D01*
X147637814Y-92783628D01*
X147612259Y-92759284D01*
X147580722Y-92740703D01*
X147544773Y-92729297D01*
X147501527Y-92725254D01*
X147463875Y-92729127D01*
X147430452Y-92740397D01*
X147400648Y-92758536D01*
X147375131Y-92782957D01*
X147354450Y-92812641D01*
X147337579Y-92848902D01*
X147326093Y-92888598D01*
X147319810Y-92933349D01*
X147199517Y-92933349D01*
X147200779Y-92916394D01*
X147216312Y-92850368D01*
X147242186Y-92789147D01*
X147277067Y-92736856D01*
X147321432Y-92693116D01*
X147375131Y-92659248D01*
X147414768Y-92643520D01*
X147458466Y-92633834D01*
X147506961Y-92630488D01*
X147576055Y-92636414D01*
G37*
G36*
X149334386Y-93087344D02*
G01*
X149327644Y-93148114D01*
X149308435Y-93198841D01*
X149277509Y-93242484D01*
X149236017Y-93278464D01*
X149186081Y-93305735D01*
X149124276Y-93326031D01*
X149057176Y-93337641D01*
X148980539Y-93341723D01*
X148909831Y-93338975D01*
X148842176Y-93332137D01*
X148781054Y-93322611D01*
X148729152Y-93310949D01*
X148729152Y-93193285D01*
X148782273Y-93210018D01*
X148844252Y-93223326D01*
X148910300Y-93231358D01*
X148989393Y-93234256D01*
X149045942Y-93231747D01*
X149089472Y-93225036D01*
X149128287Y-93213100D01*
X149157127Y-93197742D01*
X149180109Y-93177343D01*
X149195351Y-93153656D01*
X149204209Y-93126359D01*
X149207319Y-93094183D01*
X149202143Y-93060163D01*
X149187169Y-93032329D01*
X149164406Y-93008532D01*
X149134229Y-92986533D01*
X149099914Y-92967578D01*
X149059430Y-92949591D01*
X148973700Y-92915031D01*
X148887971Y-92876441D01*
X148847909Y-92853444D01*
X148813172Y-92827165D01*
X148783534Y-92796288D01*
X148760232Y-92760486D01*
X148745372Y-92719734D01*
X148740082Y-92669567D01*
X148744798Y-92624357D01*
X148759194Y-92579258D01*
X148783268Y-92537741D01*
X148818606Y-92500307D01*
X148863135Y-92469900D01*
X148922104Y-92444558D01*
X148988709Y-92429048D01*
X149072741Y-92423370D01*
X149121589Y-92425446D01*
X149174895Y-92431247D01*
X149228140Y-92439856D01*
X149276989Y-92450115D01*
X149276989Y-92559658D01*
X149171781Y-92536760D01*
X149119559Y-92530815D01*
X149069993Y-92528883D01*
X149000722Y-92533575D01*
X148951072Y-92545839D01*
X148916303Y-92563688D01*
X148888709Y-92589927D01*
X148872658Y-92620587D01*
X148867149Y-92657233D01*
X148872312Y-92691321D01*
X148887299Y-92719515D01*
X148910070Y-92743632D01*
X148940239Y-92765982D01*
X148974577Y-92785174D01*
X149015039Y-92803229D01*
X149100768Y-92837789D01*
X149186497Y-92876746D01*
X149226525Y-92900121D01*
X149261296Y-92926999D01*
X149290919Y-92958543D01*
X149314236Y-92995081D01*
X149329098Y-93036495D01*
X149334386Y-93087344D01*
G37*
G36*
X149882685Y-92636414D02*
G01*
X149940658Y-92653142D01*
X149992020Y-92680699D01*
X150033898Y-92717194D01*
X150066835Y-92762462D01*
X150091295Y-92817944D01*
X150105703Y-92879351D01*
X150110773Y-92950507D01*
X150110101Y-92993005D01*
X150108025Y-93025184D01*
X149626439Y-93025184D01*
X149630569Y-93077513D01*
X149642130Y-93120839D01*
X149660360Y-93156815D01*
X149685180Y-93186690D01*
X149715988Y-93210266D01*
X149753508Y-93227797D01*
X149799130Y-93239018D01*
X149854623Y-93243049D01*
X149914707Y-93240546D01*
X149972776Y-93233646D01*
X150026387Y-93223815D01*
X150073892Y-93211786D01*
X150073892Y-93309483D01*
X150023693Y-93322163D01*
X149964227Y-93332747D01*
X149902455Y-93339446D01*
X149837526Y-93341723D01*
X149753012Y-93335331D01*
X149685851Y-93317787D01*
X149627374Y-93288006D01*
X149581682Y-93248361D01*
X149546805Y-93198583D01*
X149521598Y-93136926D01*
X149507232Y-93068393D01*
X149502120Y-92987449D01*
X149506146Y-92933349D01*
X149626439Y-92933349D01*
X149987125Y-92933349D01*
X149985865Y-92888503D01*
X149978271Y-92849207D01*
X149964135Y-92813348D01*
X149944444Y-92783628D01*
X149918889Y-92759284D01*
X149887352Y-92740703D01*
X149851403Y-92729297D01*
X149808156Y-92725254D01*
X149770505Y-92729127D01*
X149737081Y-92740397D01*
X149707277Y-92758536D01*
X149681760Y-92782957D01*
X149661079Y-92812641D01*
X149644208Y-92848902D01*
X149632722Y-92888598D01*
X149626439Y-92933349D01*
X149506146Y-92933349D01*
X149507408Y-92916394D01*
X149522942Y-92850368D01*
X149548815Y-92789147D01*
X149583697Y-92736856D01*
X149628062Y-92693116D01*
X149681760Y-92659248D01*
X149721397Y-92643520D01*
X149765095Y-92633834D01*
X149813590Y-92630488D01*
X149882685Y-92636414D01*
G37*
G36*
X150300366Y-92642212D02*
G01*
X150406246Y-92642212D01*
X150411008Y-92753159D01*
X150469077Y-92694235D01*
X150524093Y-92656439D01*
X150551552Y-92644144D01*
X150579048Y-92636289D01*
X150637116Y-92630488D01*
X150689649Y-92634890D01*
X150732735Y-92647186D01*
X150768193Y-92666591D01*
X150797340Y-92693136D01*
X150819557Y-92725499D01*
X150836502Y-92766381D01*
X150847582Y-92817677D01*
X150851623Y-92881692D01*
X150851623Y-93330000D01*
X150732798Y-93330000D01*
X150732798Y-92891217D01*
X150728802Y-92837945D01*
X150718268Y-92799304D01*
X150702696Y-92771782D01*
X150680098Y-92750729D01*
X150650974Y-92737741D01*
X150613242Y-92733070D01*
X150570499Y-92739603D01*
X150549919Y-92748141D01*
X150527146Y-92762196D01*
X150478297Y-92805671D01*
X150419252Y-92874059D01*
X150419252Y-93330000D01*
X150300366Y-93330000D01*
X150300366Y-92642212D01*
G37*
G36*
X151612317Y-93142055D02*
G01*
X151609121Y-93176989D01*
X151599983Y-93207023D01*
X151585448Y-93234154D01*
X151566521Y-93257948D01*
X151543810Y-93278447D01*
X151517368Y-93295928D01*
X151457589Y-93321878D01*
X151392376Y-93336899D01*
X151326797Y-93341723D01*
X151198692Y-93335556D01*
X151140780Y-93327491D01*
X151084264Y-93315711D01*
X151084264Y-93206229D01*
X151144515Y-93221344D01*
X151203821Y-93232241D01*
X151263223Y-93238893D01*
X151321973Y-93241095D01*
X151379031Y-93237927D01*
X151419899Y-93229692D01*
X151448369Y-93217892D01*
X151471626Y-93199638D01*
X151484840Y-93177943D01*
X151489341Y-93151580D01*
X151482868Y-93118424D01*
X151474190Y-93104600D01*
X151459299Y-93090397D01*
X151439479Y-93077822D01*
X151406359Y-93062676D01*
X151308357Y-93029825D01*
X151222566Y-92998745D01*
X151185353Y-92979302D01*
X151154606Y-92957346D01*
X151128928Y-92931249D01*
X151109543Y-92901292D01*
X151097472Y-92867185D01*
X151093179Y-92825394D01*
X151096303Y-92796265D01*
X151106490Y-92762501D01*
X151124017Y-92730182D01*
X151151919Y-92698876D01*
X151188070Y-92672843D01*
X151238686Y-92649966D01*
X151297067Y-92635811D01*
X151375279Y-92630488D01*
X151464733Y-92634945D01*
X151567254Y-92650211D01*
X151567254Y-92755785D01*
X151461008Y-92735635D01*
X151373936Y-92729162D01*
X151331247Y-92731053D01*
X151299075Y-92736062D01*
X151270548Y-92744612D01*
X151249922Y-92754930D01*
X151233418Y-92768369D01*
X151222933Y-92783140D01*
X151216808Y-92799866D01*
X151214751Y-92817883D01*
X151221895Y-92851406D01*
X151231538Y-92865487D01*
X151248578Y-92880471D01*
X151302861Y-92908497D01*
X151393720Y-92938906D01*
X151451882Y-92957930D01*
X151496179Y-92976214D01*
X151535110Y-92997558D01*
X151563835Y-93019628D01*
X151586322Y-93045419D01*
X151601021Y-93073667D01*
X151609365Y-93105021D01*
X151612317Y-93142055D01*
G37*
G36*
X152191527Y-92636448D02*
G01*
X152252416Y-92653386D01*
X152306668Y-92681782D01*
X152351457Y-92720430D01*
X152386781Y-92768954D01*
X152413617Y-92830218D01*
X152429498Y-92898679D01*
X152435171Y-92980610D01*
X152429357Y-93058486D01*
X152412640Y-93127339D01*
X152384749Y-93189937D01*
X152347732Y-93241584D01*
X152300998Y-93283611D01*
X152244540Y-93315406D01*
X152180992Y-93334890D01*
X152106603Y-93341723D01*
X152035288Y-93335764D01*
X151974346Y-93318825D01*
X151920157Y-93290374D01*
X151875305Y-93251475D01*
X151839994Y-93202664D01*
X151813146Y-93141383D01*
X151797322Y-93072787D01*
X151791652Y-92990197D01*
X151791949Y-92986228D01*
X151913285Y-92986228D01*
X151917005Y-93047622D01*
X151927268Y-93097663D01*
X151944734Y-93142432D01*
X151967202Y-93177226D01*
X151996009Y-93205113D01*
X152030094Y-93225036D01*
X152068626Y-93236935D01*
X152113442Y-93241095D01*
X152164049Y-93235613D01*
X152204606Y-93220273D01*
X152239183Y-93195841D01*
X152266766Y-93164586D01*
X152287527Y-93127465D01*
X152302303Y-93083620D01*
X152310721Y-93036682D01*
X152313599Y-92986228D01*
X152309856Y-92924941D01*
X152299555Y-92875280D01*
X152282105Y-92830775D01*
X152259622Y-92796024D01*
X152230800Y-92768114D01*
X152196424Y-92748152D01*
X152157669Y-92736228D01*
X152113442Y-92732093D01*
X152062786Y-92737592D01*
X152022217Y-92752976D01*
X151987648Y-92777372D01*
X151960058Y-92808663D01*
X151939299Y-92845733D01*
X151924520Y-92889569D01*
X151916137Y-92936412D01*
X151913285Y-92986228D01*
X151791949Y-92986228D01*
X151797478Y-92912462D01*
X151814184Y-92844200D01*
X151842074Y-92782179D01*
X151879091Y-92730689D01*
X151925820Y-92688608D01*
X151982223Y-92656805D01*
X152045823Y-92637319D01*
X152120220Y-92630488D01*
X152191527Y-92636448D01*
G37*
G36*
X152635023Y-92642212D02*
G01*
X152743650Y-92642212D01*
X152747008Y-92768668D01*
X152789807Y-92722172D01*
X152829647Y-92687630D01*
X152866931Y-92663155D01*
X152907302Y-92644694D01*
X152946851Y-92633996D01*
X152986122Y-92630488D01*
X153038528Y-92635242D01*
X153081814Y-92648601D01*
X153117787Y-92669900D01*
X153147689Y-92699426D01*
X153169924Y-92734764D01*
X153186406Y-92779208D01*
X153196399Y-92834809D01*
X153198552Y-92904040D01*
X153078324Y-92904040D01*
X153075684Y-92844218D01*
X153066266Y-92802256D01*
X153052006Y-92773614D01*
X153030415Y-92751251D01*
X153003348Y-92737819D01*
X152969025Y-92733070D01*
X152945275Y-92735169D01*
X152920909Y-92741618D01*
X152896998Y-92752301D01*
X152871022Y-92768852D01*
X152816678Y-92816845D01*
X152755251Y-92887615D01*
X152755251Y-93330000D01*
X152635023Y-93330000D01*
X152635023Y-92642212D01*
G37*
X130718095Y-74347419D02*
X130718095Y-75156942D01*
X130718095Y-75156942D02*
X130765714Y-75252180D01*
X130765714Y-75252180D02*
X130813333Y-75299800D01*
X130813333Y-75299800D02*
X130908571Y-75347419D01*
X130908571Y-75347419D02*
X131099047Y-75347419D01*
X131099047Y-75347419D02*
X131194285Y-75299800D01*
X131194285Y-75299800D02*
X131241904Y-75252180D01*
X131241904Y-75252180D02*
X131289523Y-75156942D01*
X131289523Y-75156942D02*
X131289523Y-74347419D01*
X132194285Y-74680752D02*
X132194285Y-75347419D01*
X131956190Y-74299800D02*
X131718095Y-75014085D01*
X131718095Y-75014085D02*
X132337142Y-75014085D01*
D11*
X141934761Y-109500057D02*
X141839523Y-109452438D01*
X141839523Y-109452438D02*
X141744285Y-109357200D01*
X141744285Y-109357200D02*
X141601428Y-109214342D01*
X141601428Y-109214342D02*
X141506190Y-109166723D01*
X141506190Y-109166723D02*
X141410952Y-109166723D01*
X141458571Y-109404819D02*
X141363333Y-109357200D01*
X141363333Y-109357200D02*
X141268095Y-109261961D01*
X141268095Y-109261961D02*
X141220476Y-109071485D01*
X141220476Y-109071485D02*
X141220476Y-108738152D01*
X141220476Y-108738152D02*
X141268095Y-108547676D01*
X141268095Y-108547676D02*
X141363333Y-108452438D01*
X141363333Y-108452438D02*
X141458571Y-108404819D01*
X141458571Y-108404819D02*
X141649047Y-108404819D01*
X141649047Y-108404819D02*
X141744285Y-108452438D01*
X141744285Y-108452438D02*
X141839523Y-108547676D01*
X141839523Y-108547676D02*
X141887142Y-108738152D01*
X141887142Y-108738152D02*
X141887142Y-109071485D01*
X141887142Y-109071485D02*
X141839523Y-109261961D01*
X141839523Y-109261961D02*
X141744285Y-109357200D01*
X141744285Y-109357200D02*
X141649047Y-109404819D01*
X141649047Y-109404819D02*
X141458571Y-109404819D01*
X142839523Y-109404819D02*
X142268095Y-109404819D01*
X142553809Y-109404819D02*
X142553809Y-108404819D01*
X142553809Y-108404819D02*
X142458571Y-108547676D01*
X142458571Y-108547676D02*
X142363333Y-108642914D01*
X142363333Y-108642914D02*
X142268095Y-108690533D01*
X148233333Y-63359580D02*
X148185714Y-63407200D01*
X148185714Y-63407200D02*
X148042857Y-63454819D01*
X148042857Y-63454819D02*
X147947619Y-63454819D01*
X147947619Y-63454819D02*
X147804762Y-63407200D01*
X147804762Y-63407200D02*
X147709524Y-63311961D01*
X147709524Y-63311961D02*
X147661905Y-63216723D01*
X147661905Y-63216723D02*
X147614286Y-63026247D01*
X147614286Y-63026247D02*
X147614286Y-62883390D01*
X147614286Y-62883390D02*
X147661905Y-62692914D01*
X147661905Y-62692914D02*
X147709524Y-62597676D01*
X147709524Y-62597676D02*
X147804762Y-62502438D01*
X147804762Y-62502438D02*
X147947619Y-62454819D01*
X147947619Y-62454819D02*
X148042857Y-62454819D01*
X148042857Y-62454819D02*
X148185714Y-62502438D01*
X148185714Y-62502438D02*
X148233333Y-62550057D01*
X149185714Y-63454819D02*
X148614286Y-63454819D01*
X148900000Y-63454819D02*
X148900000Y-62454819D01*
X148900000Y-62454819D02*
X148804762Y-62597676D01*
X148804762Y-62597676D02*
X148709524Y-62692914D01*
X148709524Y-62692914D02*
X148614286Y-62740533D01*
X128054819Y-92161904D02*
X128864342Y-92161904D01*
X128864342Y-92161904D02*
X128959580Y-92114285D01*
X128959580Y-92114285D02*
X129007200Y-92066666D01*
X129007200Y-92066666D02*
X129054819Y-91971428D01*
X129054819Y-91971428D02*
X129054819Y-91780952D01*
X129054819Y-91780952D02*
X129007200Y-91685714D01*
X129007200Y-91685714D02*
X128959580Y-91638095D01*
X128959580Y-91638095D02*
X128864342Y-91590476D01*
X128864342Y-91590476D02*
X128054819Y-91590476D01*
X129054819Y-90590476D02*
X129054819Y-91161904D01*
X129054819Y-90876190D02*
X128054819Y-90876190D01*
X128054819Y-90876190D02*
X128197676Y-90971428D01*
X128197676Y-90971428D02*
X128292914Y-91066666D01*
X128292914Y-91066666D02*
X128340533Y-91161904D01*
X137123333Y-66484819D02*
X136790000Y-66008628D01*
X136551905Y-66484819D02*
X136551905Y-65484819D01*
X136551905Y-65484819D02*
X136932857Y-65484819D01*
X136932857Y-65484819D02*
X137028095Y-65532438D01*
X137028095Y-65532438D02*
X137075714Y-65580057D01*
X137075714Y-65580057D02*
X137123333Y-65675295D01*
X137123333Y-65675295D02*
X137123333Y-65818152D01*
X137123333Y-65818152D02*
X137075714Y-65913390D01*
X137075714Y-65913390D02*
X137028095Y-65961009D01*
X137028095Y-65961009D02*
X136932857Y-66008628D01*
X136932857Y-66008628D02*
X136551905Y-66008628D01*
X137456667Y-65484819D02*
X138075714Y-65484819D01*
X138075714Y-65484819D02*
X137742381Y-65865771D01*
X137742381Y-65865771D02*
X137885238Y-65865771D01*
X137885238Y-65865771D02*
X137980476Y-65913390D01*
X137980476Y-65913390D02*
X138028095Y-65961009D01*
X138028095Y-65961009D02*
X138075714Y-66056247D01*
X138075714Y-66056247D02*
X138075714Y-66294342D01*
X138075714Y-66294342D02*
X138028095Y-66389580D01*
X138028095Y-66389580D02*
X137980476Y-66437200D01*
X137980476Y-66437200D02*
X137885238Y-66484819D01*
X137885238Y-66484819D02*
X137599524Y-66484819D01*
X137599524Y-66484819D02*
X137504286Y-66437200D01*
X137504286Y-66437200D02*
X137456667Y-66389580D01*
X87285714Y-49954819D02*
X87285714Y-48954819D01*
X87285714Y-48954819D02*
X87666666Y-48954819D01*
X87666666Y-48954819D02*
X87761904Y-49002438D01*
X87761904Y-49002438D02*
X87809523Y-49050057D01*
X87809523Y-49050057D02*
X87857142Y-49145295D01*
X87857142Y-49145295D02*
X87857142Y-49288152D01*
X87857142Y-49288152D02*
X87809523Y-49383390D01*
X87809523Y-49383390D02*
X87761904Y-49431009D01*
X87761904Y-49431009D02*
X87666666Y-49478628D01*
X87666666Y-49478628D02*
X87285714Y-49478628D01*
X88238095Y-49907200D02*
X88380952Y-49954819D01*
X88380952Y-49954819D02*
X88619047Y-49954819D01*
X88619047Y-49954819D02*
X88714285Y-49907200D01*
X88714285Y-49907200D02*
X88761904Y-49859580D01*
X88761904Y-49859580D02*
X88809523Y-49764342D01*
X88809523Y-49764342D02*
X88809523Y-49669104D01*
X88809523Y-49669104D02*
X88761904Y-49573866D01*
X88761904Y-49573866D02*
X88714285Y-49526247D01*
X88714285Y-49526247D02*
X88619047Y-49478628D01*
X88619047Y-49478628D02*
X88428571Y-49431009D01*
X88428571Y-49431009D02*
X88333333Y-49383390D01*
X88333333Y-49383390D02*
X88285714Y-49335771D01*
X88285714Y-49335771D02*
X88238095Y-49240533D01*
X88238095Y-49240533D02*
X88238095Y-49145295D01*
X88238095Y-49145295D02*
X88285714Y-49050057D01*
X88285714Y-49050057D02*
X88333333Y-49002438D01*
X88333333Y-49002438D02*
X88428571Y-48954819D01*
X88428571Y-48954819D02*
X88666666Y-48954819D01*
X88666666Y-48954819D02*
X88809523Y-49002438D01*
X89761904Y-49954819D02*
X89190476Y-49954819D01*
X89476190Y-49954819D02*
X89476190Y-48954819D01*
X89476190Y-48954819D02*
X89380952Y-49097676D01*
X89380952Y-49097676D02*
X89285714Y-49192914D01*
X89285714Y-49192914D02*
X89190476Y-49240533D01*
X89454819Y-114666666D02*
X88978628Y-114999999D01*
X89454819Y-115238094D02*
X88454819Y-115238094D01*
X88454819Y-115238094D02*
X88454819Y-114857142D01*
X88454819Y-114857142D02*
X88502438Y-114761904D01*
X88502438Y-114761904D02*
X88550057Y-114714285D01*
X88550057Y-114714285D02*
X88645295Y-114666666D01*
X88645295Y-114666666D02*
X88788152Y-114666666D01*
X88788152Y-114666666D02*
X88883390Y-114714285D01*
X88883390Y-114714285D02*
X88931009Y-114761904D01*
X88931009Y-114761904D02*
X88978628Y-114857142D01*
X88978628Y-114857142D02*
X88978628Y-115238094D01*
X89454819Y-113714285D02*
X89454819Y-114285713D01*
X89454819Y-113999999D02*
X88454819Y-113999999D01*
X88454819Y-113999999D02*
X88597676Y-114095237D01*
X88597676Y-114095237D02*
X88692914Y-114190475D01*
X88692914Y-114190475D02*
X88740533Y-114285713D01*
D10*
X118111905Y-89607419D02*
X118111905Y-90416942D01*
X118111905Y-90416942D02*
X118159524Y-90512180D01*
X118159524Y-90512180D02*
X118207143Y-90559800D01*
X118207143Y-90559800D02*
X118302381Y-90607419D01*
X118302381Y-90607419D02*
X118492857Y-90607419D01*
X118492857Y-90607419D02*
X118588095Y-90559800D01*
X118588095Y-90559800D02*
X118635714Y-90512180D01*
X118635714Y-90512180D02*
X118683333Y-90416942D01*
X118683333Y-90416942D02*
X118683333Y-89607419D01*
X119683333Y-90607419D02*
X119111905Y-90607419D01*
X119397619Y-90607419D02*
X119397619Y-89607419D01*
X119397619Y-89607419D02*
X119302381Y-89750276D01*
X119302381Y-89750276D02*
X119207143Y-89845514D01*
X119207143Y-89845514D02*
X119111905Y-89893133D01*
X120302381Y-89607419D02*
X120397619Y-89607419D01*
X120397619Y-89607419D02*
X120492857Y-89655038D01*
X120492857Y-89655038D02*
X120540476Y-89702657D01*
X120540476Y-89702657D02*
X120588095Y-89797895D01*
X120588095Y-89797895D02*
X120635714Y-89988371D01*
X120635714Y-89988371D02*
X120635714Y-90226466D01*
X120635714Y-90226466D02*
X120588095Y-90416942D01*
X120588095Y-90416942D02*
X120540476Y-90512180D01*
X120540476Y-90512180D02*
X120492857Y-90559800D01*
X120492857Y-90559800D02*
X120397619Y-90607419D01*
X120397619Y-90607419D02*
X120302381Y-90607419D01*
X120302381Y-90607419D02*
X120207143Y-90559800D01*
X120207143Y-90559800D02*
X120159524Y-90512180D01*
X120159524Y-90512180D02*
X120111905Y-90416942D01*
X120111905Y-90416942D02*
X120064286Y-90226466D01*
X120064286Y-90226466D02*
X120064286Y-89988371D01*
X120064286Y-89988371D02*
X120111905Y-89797895D01*
X120111905Y-89797895D02*
X120159524Y-89702657D01*
X120159524Y-89702657D02*
X120207143Y-89655038D01*
X120207143Y-89655038D02*
X120302381Y-89607419D01*
D11*
X147491905Y-109594819D02*
X147491905Y-108594819D01*
X147491905Y-108594819D02*
X147730000Y-108594819D01*
X147730000Y-108594819D02*
X147872857Y-108642438D01*
X147872857Y-108642438D02*
X147968095Y-108737676D01*
X147968095Y-108737676D02*
X148015714Y-108832914D01*
X148015714Y-108832914D02*
X148063333Y-109023390D01*
X148063333Y-109023390D02*
X148063333Y-109166247D01*
X148063333Y-109166247D02*
X148015714Y-109356723D01*
X148015714Y-109356723D02*
X147968095Y-109451961D01*
X147968095Y-109451961D02*
X147872857Y-109547200D01*
X147872857Y-109547200D02*
X147730000Y-109594819D01*
X147730000Y-109594819D02*
X147491905Y-109594819D01*
X148396667Y-108594819D02*
X149063333Y-108594819D01*
X149063333Y-108594819D02*
X148634762Y-109594819D01*
X145454819Y-101632857D02*
X144978628Y-101966190D01*
X145454819Y-102204285D02*
X144454819Y-102204285D01*
X144454819Y-102204285D02*
X144454819Y-101823333D01*
X144454819Y-101823333D02*
X144502438Y-101728095D01*
X144502438Y-101728095D02*
X144550057Y-101680476D01*
X144550057Y-101680476D02*
X144645295Y-101632857D01*
X144645295Y-101632857D02*
X144788152Y-101632857D01*
X144788152Y-101632857D02*
X144883390Y-101680476D01*
X144883390Y-101680476D02*
X144931009Y-101728095D01*
X144931009Y-101728095D02*
X144978628Y-101823333D01*
X144978628Y-101823333D02*
X144978628Y-102204285D01*
X144454819Y-100728095D02*
X144454819Y-101204285D01*
X144454819Y-101204285D02*
X144931009Y-101251904D01*
X144931009Y-101251904D02*
X144883390Y-101204285D01*
X144883390Y-101204285D02*
X144835771Y-101109047D01*
X144835771Y-101109047D02*
X144835771Y-100870952D01*
X144835771Y-100870952D02*
X144883390Y-100775714D01*
X144883390Y-100775714D02*
X144931009Y-100728095D01*
X144931009Y-100728095D02*
X145026247Y-100680476D01*
X145026247Y-100680476D02*
X145264342Y-100680476D01*
X145264342Y-100680476D02*
X145359580Y-100728095D01*
X145359580Y-100728095D02*
X145407200Y-100775714D01*
X145407200Y-100775714D02*
X145454819Y-100870952D01*
X145454819Y-100870952D02*
X145454819Y-101109047D01*
X145454819Y-101109047D02*
X145407200Y-101204285D01*
X145407200Y-101204285D02*
X145359580Y-101251904D01*
X144550057Y-100299523D02*
X144502438Y-100251904D01*
X144502438Y-100251904D02*
X144454819Y-100156666D01*
X144454819Y-100156666D02*
X144454819Y-99918571D01*
X144454819Y-99918571D02*
X144502438Y-99823333D01*
X144502438Y-99823333D02*
X144550057Y-99775714D01*
X144550057Y-99775714D02*
X144645295Y-99728095D01*
X144645295Y-99728095D02*
X144740533Y-99728095D01*
X144740533Y-99728095D02*
X144883390Y-99775714D01*
X144883390Y-99775714D02*
X145454819Y-100347142D01*
X145454819Y-100347142D02*
X145454819Y-99728095D01*
X152954819Y-123942857D02*
X152478628Y-124276190D01*
X152954819Y-124514285D02*
X151954819Y-124514285D01*
X151954819Y-124514285D02*
X151954819Y-124133333D01*
X151954819Y-124133333D02*
X152002438Y-124038095D01*
X152002438Y-124038095D02*
X152050057Y-123990476D01*
X152050057Y-123990476D02*
X152145295Y-123942857D01*
X152145295Y-123942857D02*
X152288152Y-123942857D01*
X152288152Y-123942857D02*
X152383390Y-123990476D01*
X152383390Y-123990476D02*
X152431009Y-124038095D01*
X152431009Y-124038095D02*
X152478628Y-124133333D01*
X152478628Y-124133333D02*
X152478628Y-124514285D01*
X151954819Y-123038095D02*
X151954819Y-123514285D01*
X151954819Y-123514285D02*
X152431009Y-123561904D01*
X152431009Y-123561904D02*
X152383390Y-123514285D01*
X152383390Y-123514285D02*
X152335771Y-123419047D01*
X152335771Y-123419047D02*
X152335771Y-123180952D01*
X152335771Y-123180952D02*
X152383390Y-123085714D01*
X152383390Y-123085714D02*
X152431009Y-123038095D01*
X152431009Y-123038095D02*
X152526247Y-122990476D01*
X152526247Y-122990476D02*
X152764342Y-122990476D01*
X152764342Y-122990476D02*
X152859580Y-123038095D01*
X152859580Y-123038095D02*
X152907200Y-123085714D01*
X152907200Y-123085714D02*
X152954819Y-123180952D01*
X152954819Y-123180952D02*
X152954819Y-123419047D01*
X152954819Y-123419047D02*
X152907200Y-123514285D01*
X152907200Y-123514285D02*
X152859580Y-123561904D01*
X152954819Y-122038095D02*
X152954819Y-122609523D01*
X152954819Y-122323809D02*
X151954819Y-122323809D01*
X151954819Y-122323809D02*
X152097676Y-122419047D01*
X152097676Y-122419047D02*
X152192914Y-122514285D01*
X152192914Y-122514285D02*
X152240533Y-122609523D01*
X137123333Y-56084819D02*
X136790000Y-55608628D01*
X136551905Y-56084819D02*
X136551905Y-55084819D01*
X136551905Y-55084819D02*
X136932857Y-55084819D01*
X136932857Y-55084819D02*
X137028095Y-55132438D01*
X137028095Y-55132438D02*
X137075714Y-55180057D01*
X137075714Y-55180057D02*
X137123333Y-55275295D01*
X137123333Y-55275295D02*
X137123333Y-55418152D01*
X137123333Y-55418152D02*
X137075714Y-55513390D01*
X137075714Y-55513390D02*
X137028095Y-55561009D01*
X137028095Y-55561009D02*
X136932857Y-55608628D01*
X136932857Y-55608628D02*
X136551905Y-55608628D01*
X137694762Y-55513390D02*
X137599524Y-55465771D01*
X137599524Y-55465771D02*
X137551905Y-55418152D01*
X137551905Y-55418152D02*
X137504286Y-55322914D01*
X137504286Y-55322914D02*
X137504286Y-55275295D01*
X137504286Y-55275295D02*
X137551905Y-55180057D01*
X137551905Y-55180057D02*
X137599524Y-55132438D01*
X137599524Y-55132438D02*
X137694762Y-55084819D01*
X137694762Y-55084819D02*
X137885238Y-55084819D01*
X137885238Y-55084819D02*
X137980476Y-55132438D01*
X137980476Y-55132438D02*
X138028095Y-55180057D01*
X138028095Y-55180057D02*
X138075714Y-55275295D01*
X138075714Y-55275295D02*
X138075714Y-55322914D01*
X138075714Y-55322914D02*
X138028095Y-55418152D01*
X138028095Y-55418152D02*
X137980476Y-55465771D01*
X137980476Y-55465771D02*
X137885238Y-55513390D01*
X137885238Y-55513390D02*
X137694762Y-55513390D01*
X137694762Y-55513390D02*
X137599524Y-55561009D01*
X137599524Y-55561009D02*
X137551905Y-55608628D01*
X137551905Y-55608628D02*
X137504286Y-55703866D01*
X137504286Y-55703866D02*
X137504286Y-55894342D01*
X137504286Y-55894342D02*
X137551905Y-55989580D01*
X137551905Y-55989580D02*
X137599524Y-56037200D01*
X137599524Y-56037200D02*
X137694762Y-56084819D01*
X137694762Y-56084819D02*
X137885238Y-56084819D01*
X137885238Y-56084819D02*
X137980476Y-56037200D01*
X137980476Y-56037200D02*
X138028095Y-55989580D01*
X138028095Y-55989580D02*
X138075714Y-55894342D01*
X138075714Y-55894342D02*
X138075714Y-55703866D01*
X138075714Y-55703866D02*
X138028095Y-55608628D01*
X138028095Y-55608628D02*
X137980476Y-55561009D01*
X137980476Y-55561009D02*
X137885238Y-55513390D01*
X148233333Y-53359580D02*
X148185714Y-53407200D01*
X148185714Y-53407200D02*
X148042857Y-53454819D01*
X148042857Y-53454819D02*
X147947619Y-53454819D01*
X147947619Y-53454819D02*
X147804762Y-53407200D01*
X147804762Y-53407200D02*
X147709524Y-53311961D01*
X147709524Y-53311961D02*
X147661905Y-53216723D01*
X147661905Y-53216723D02*
X147614286Y-53026247D01*
X147614286Y-53026247D02*
X147614286Y-52883390D01*
X147614286Y-52883390D02*
X147661905Y-52692914D01*
X147661905Y-52692914D02*
X147709524Y-52597676D01*
X147709524Y-52597676D02*
X147804762Y-52502438D01*
X147804762Y-52502438D02*
X147947619Y-52454819D01*
X147947619Y-52454819D02*
X148042857Y-52454819D01*
X148042857Y-52454819D02*
X148185714Y-52502438D01*
X148185714Y-52502438D02*
X148233333Y-52550057D01*
X149090476Y-52788152D02*
X149090476Y-53454819D01*
X148852381Y-52407200D02*
X148614286Y-53121485D01*
X148614286Y-53121485D02*
X149233333Y-53121485D01*
X148233333Y-68859580D02*
X148185714Y-68907200D01*
X148185714Y-68907200D02*
X148042857Y-68954819D01*
X148042857Y-68954819D02*
X147947619Y-68954819D01*
X147947619Y-68954819D02*
X147804762Y-68907200D01*
X147804762Y-68907200D02*
X147709524Y-68811961D01*
X147709524Y-68811961D02*
X147661905Y-68716723D01*
X147661905Y-68716723D02*
X147614286Y-68526247D01*
X147614286Y-68526247D02*
X147614286Y-68383390D01*
X147614286Y-68383390D02*
X147661905Y-68192914D01*
X147661905Y-68192914D02*
X147709524Y-68097676D01*
X147709524Y-68097676D02*
X147804762Y-68002438D01*
X147804762Y-68002438D02*
X147947619Y-67954819D01*
X147947619Y-67954819D02*
X148042857Y-67954819D01*
X148042857Y-67954819D02*
X148185714Y-68002438D01*
X148185714Y-68002438D02*
X148233333Y-68050057D01*
X148566667Y-67954819D02*
X149185714Y-67954819D01*
X149185714Y-67954819D02*
X148852381Y-68335771D01*
X148852381Y-68335771D02*
X148995238Y-68335771D01*
X148995238Y-68335771D02*
X149090476Y-68383390D01*
X149090476Y-68383390D02*
X149138095Y-68431009D01*
X149138095Y-68431009D02*
X149185714Y-68526247D01*
X149185714Y-68526247D02*
X149185714Y-68764342D01*
X149185714Y-68764342D02*
X149138095Y-68859580D01*
X149138095Y-68859580D02*
X149090476Y-68907200D01*
X149090476Y-68907200D02*
X148995238Y-68954819D01*
X148995238Y-68954819D02*
X148709524Y-68954819D01*
X148709524Y-68954819D02*
X148614286Y-68907200D01*
X148614286Y-68907200D02*
X148566667Y-68859580D01*
X131616667Y-107757200D02*
X131759524Y-107804819D01*
X131759524Y-107804819D02*
X131997619Y-107804819D01*
X131997619Y-107804819D02*
X132092857Y-107757200D01*
X132092857Y-107757200D02*
X132140476Y-107709580D01*
X132140476Y-107709580D02*
X132188095Y-107614342D01*
X132188095Y-107614342D02*
X132188095Y-107519104D01*
X132188095Y-107519104D02*
X132140476Y-107423866D01*
X132140476Y-107423866D02*
X132092857Y-107376247D01*
X132092857Y-107376247D02*
X131997619Y-107328628D01*
X131997619Y-107328628D02*
X131807143Y-107281009D01*
X131807143Y-107281009D02*
X131711905Y-107233390D01*
X131711905Y-107233390D02*
X131664286Y-107185771D01*
X131664286Y-107185771D02*
X131616667Y-107090533D01*
X131616667Y-107090533D02*
X131616667Y-106995295D01*
X131616667Y-106995295D02*
X131664286Y-106900057D01*
X131664286Y-106900057D02*
X131711905Y-106852438D01*
X131711905Y-106852438D02*
X131807143Y-106804819D01*
X131807143Y-106804819D02*
X132045238Y-106804819D01*
X132045238Y-106804819D02*
X132188095Y-106852438D01*
X132521429Y-106804819D02*
X132759524Y-107804819D01*
X132759524Y-107804819D02*
X132950000Y-107090533D01*
X132950000Y-107090533D02*
X133140476Y-107804819D01*
X133140476Y-107804819D02*
X133378572Y-106804819D01*
X133711905Y-106900057D02*
X133759524Y-106852438D01*
X133759524Y-106852438D02*
X133854762Y-106804819D01*
X133854762Y-106804819D02*
X134092857Y-106804819D01*
X134092857Y-106804819D02*
X134188095Y-106852438D01*
X134188095Y-106852438D02*
X134235714Y-106900057D01*
X134235714Y-106900057D02*
X134283333Y-106995295D01*
X134283333Y-106995295D02*
X134283333Y-107090533D01*
X134283333Y-107090533D02*
X134235714Y-107233390D01*
X134235714Y-107233390D02*
X133664286Y-107804819D01*
X133664286Y-107804819D02*
X134283333Y-107804819D01*
X96583333Y-121807319D02*
X96583333Y-120807319D01*
X96583333Y-120807319D02*
X96916666Y-121521604D01*
X96916666Y-121521604D02*
X97249999Y-120807319D01*
X97249999Y-120807319D02*
X97249999Y-121807319D01*
X97916666Y-120807319D02*
X98107142Y-120807319D01*
X98107142Y-120807319D02*
X98202380Y-120854938D01*
X98202380Y-120854938D02*
X98297618Y-120950176D01*
X98297618Y-120950176D02*
X98345237Y-121140652D01*
X98345237Y-121140652D02*
X98345237Y-121473985D01*
X98345237Y-121473985D02*
X98297618Y-121664461D01*
X98297618Y-121664461D02*
X98202380Y-121759700D01*
X98202380Y-121759700D02*
X98107142Y-121807319D01*
X98107142Y-121807319D02*
X97916666Y-121807319D01*
X97916666Y-121807319D02*
X97821428Y-121759700D01*
X97821428Y-121759700D02*
X97726190Y-121664461D01*
X97726190Y-121664461D02*
X97678571Y-121473985D01*
X97678571Y-121473985D02*
X97678571Y-121140652D01*
X97678571Y-121140652D02*
X97726190Y-120950176D01*
X97726190Y-120950176D02*
X97821428Y-120854938D01*
X97821428Y-120854938D02*
X97916666Y-120807319D01*
X98773809Y-121807319D02*
X98773809Y-120807319D01*
X98773809Y-120807319D02*
X99011904Y-120807319D01*
X99011904Y-120807319D02*
X99154761Y-120854938D01*
X99154761Y-120854938D02*
X99249999Y-120950176D01*
X99249999Y-120950176D02*
X99297618Y-121045414D01*
X99297618Y-121045414D02*
X99345237Y-121235890D01*
X99345237Y-121235890D02*
X99345237Y-121378747D01*
X99345237Y-121378747D02*
X99297618Y-121569223D01*
X99297618Y-121569223D02*
X99249999Y-121664461D01*
X99249999Y-121664461D02*
X99154761Y-121759700D01*
X99154761Y-121759700D02*
X99011904Y-121807319D01*
X99011904Y-121807319D02*
X98773809Y-121807319D01*
X100107142Y-121283509D02*
X100249999Y-121331128D01*
X100249999Y-121331128D02*
X100297618Y-121378747D01*
X100297618Y-121378747D02*
X100345237Y-121473985D01*
X100345237Y-121473985D02*
X100345237Y-121616842D01*
X100345237Y-121616842D02*
X100297618Y-121712080D01*
X100297618Y-121712080D02*
X100249999Y-121759700D01*
X100249999Y-121759700D02*
X100154761Y-121807319D01*
X100154761Y-121807319D02*
X99773809Y-121807319D01*
X99773809Y-121807319D02*
X99773809Y-120807319D01*
X99773809Y-120807319D02*
X100107142Y-120807319D01*
X100107142Y-120807319D02*
X100202380Y-120854938D01*
X100202380Y-120854938D02*
X100249999Y-120902557D01*
X100249999Y-120902557D02*
X100297618Y-120997795D01*
X100297618Y-120997795D02*
X100297618Y-121093033D01*
X100297618Y-121093033D02*
X100249999Y-121188271D01*
X100249999Y-121188271D02*
X100202380Y-121235890D01*
X100202380Y-121235890D02*
X100107142Y-121283509D01*
X100107142Y-121283509D02*
X99773809Y-121283509D01*
X100773809Y-120807319D02*
X100773809Y-121616842D01*
X100773809Y-121616842D02*
X100821428Y-121712080D01*
X100821428Y-121712080D02*
X100869047Y-121759700D01*
X100869047Y-121759700D02*
X100964285Y-121807319D01*
X100964285Y-121807319D02*
X101154761Y-121807319D01*
X101154761Y-121807319D02*
X101249999Y-121759700D01*
X101249999Y-121759700D02*
X101297618Y-121712080D01*
X101297618Y-121712080D02*
X101345237Y-121616842D01*
X101345237Y-121616842D02*
X101345237Y-120807319D01*
X101773809Y-121759700D02*
X101916666Y-121807319D01*
X101916666Y-121807319D02*
X102154761Y-121807319D01*
X102154761Y-121807319D02*
X102249999Y-121759700D01*
X102249999Y-121759700D02*
X102297618Y-121712080D01*
X102297618Y-121712080D02*
X102345237Y-121616842D01*
X102345237Y-121616842D02*
X102345237Y-121521604D01*
X102345237Y-121521604D02*
X102297618Y-121426366D01*
X102297618Y-121426366D02*
X102249999Y-121378747D01*
X102249999Y-121378747D02*
X102154761Y-121331128D01*
X102154761Y-121331128D02*
X101964285Y-121283509D01*
X101964285Y-121283509D02*
X101869047Y-121235890D01*
X101869047Y-121235890D02*
X101821428Y-121188271D01*
X101821428Y-121188271D02*
X101773809Y-121093033D01*
X101773809Y-121093033D02*
X101773809Y-120997795D01*
X101773809Y-120997795D02*
X101821428Y-120902557D01*
X101821428Y-120902557D02*
X101869047Y-120854938D01*
X101869047Y-120854938D02*
X101964285Y-120807319D01*
X101964285Y-120807319D02*
X102202380Y-120807319D01*
X102202380Y-120807319D02*
X102345237Y-120854938D01*
X102535714Y-121902557D02*
X103297618Y-121902557D01*
X103726190Y-120807319D02*
X103916666Y-120807319D01*
X103916666Y-120807319D02*
X104011904Y-120854938D01*
X104011904Y-120854938D02*
X104107142Y-120950176D01*
X104107142Y-120950176D02*
X104154761Y-121140652D01*
X104154761Y-121140652D02*
X104154761Y-121473985D01*
X104154761Y-121473985D02*
X104107142Y-121664461D01*
X104107142Y-121664461D02*
X104011904Y-121759700D01*
X104011904Y-121759700D02*
X103916666Y-121807319D01*
X103916666Y-121807319D02*
X103726190Y-121807319D01*
X103726190Y-121807319D02*
X103630952Y-121759700D01*
X103630952Y-121759700D02*
X103535714Y-121664461D01*
X103535714Y-121664461D02*
X103488095Y-121473985D01*
X103488095Y-121473985D02*
X103488095Y-121140652D01*
X103488095Y-121140652D02*
X103535714Y-120950176D01*
X103535714Y-120950176D02*
X103630952Y-120854938D01*
X103630952Y-120854938D02*
X103726190Y-120807319D01*
X104583333Y-120807319D02*
X104583333Y-121616842D01*
X104583333Y-121616842D02*
X104630952Y-121712080D01*
X104630952Y-121712080D02*
X104678571Y-121759700D01*
X104678571Y-121759700D02*
X104773809Y-121807319D01*
X104773809Y-121807319D02*
X104964285Y-121807319D01*
X104964285Y-121807319D02*
X105059523Y-121759700D01*
X105059523Y-121759700D02*
X105107142Y-121712080D01*
X105107142Y-121712080D02*
X105154761Y-121616842D01*
X105154761Y-121616842D02*
X105154761Y-120807319D01*
X105488095Y-120807319D02*
X106059523Y-120807319D01*
X105773809Y-121807319D02*
X105773809Y-120807319D01*
X137123333Y-50884819D02*
X136790000Y-50408628D01*
X136551905Y-50884819D02*
X136551905Y-49884819D01*
X136551905Y-49884819D02*
X136932857Y-49884819D01*
X136932857Y-49884819D02*
X137028095Y-49932438D01*
X137028095Y-49932438D02*
X137075714Y-49980057D01*
X137075714Y-49980057D02*
X137123333Y-50075295D01*
X137123333Y-50075295D02*
X137123333Y-50218152D01*
X137123333Y-50218152D02*
X137075714Y-50313390D01*
X137075714Y-50313390D02*
X137028095Y-50361009D01*
X137028095Y-50361009D02*
X136932857Y-50408628D01*
X136932857Y-50408628D02*
X136551905Y-50408628D01*
X137599524Y-50884819D02*
X137790000Y-50884819D01*
X137790000Y-50884819D02*
X137885238Y-50837200D01*
X137885238Y-50837200D02*
X137932857Y-50789580D01*
X137932857Y-50789580D02*
X138028095Y-50646723D01*
X138028095Y-50646723D02*
X138075714Y-50456247D01*
X138075714Y-50456247D02*
X138075714Y-50075295D01*
X138075714Y-50075295D02*
X138028095Y-49980057D01*
X138028095Y-49980057D02*
X137980476Y-49932438D01*
X137980476Y-49932438D02*
X137885238Y-49884819D01*
X137885238Y-49884819D02*
X137694762Y-49884819D01*
X137694762Y-49884819D02*
X137599524Y-49932438D01*
X137599524Y-49932438D02*
X137551905Y-49980057D01*
X137551905Y-49980057D02*
X137504286Y-50075295D01*
X137504286Y-50075295D02*
X137504286Y-50313390D01*
X137504286Y-50313390D02*
X137551905Y-50408628D01*
X137551905Y-50408628D02*
X137599524Y-50456247D01*
X137599524Y-50456247D02*
X137694762Y-50503866D01*
X137694762Y-50503866D02*
X137885238Y-50503866D01*
X137885238Y-50503866D02*
X137980476Y-50456247D01*
X137980476Y-50456247D02*
X138028095Y-50408628D01*
X138028095Y-50408628D02*
X138075714Y-50313390D01*
X148233333Y-58359580D02*
X148185714Y-58407200D01*
X148185714Y-58407200D02*
X148042857Y-58454819D01*
X148042857Y-58454819D02*
X147947619Y-58454819D01*
X147947619Y-58454819D02*
X147804762Y-58407200D01*
X147804762Y-58407200D02*
X147709524Y-58311961D01*
X147709524Y-58311961D02*
X147661905Y-58216723D01*
X147661905Y-58216723D02*
X147614286Y-58026247D01*
X147614286Y-58026247D02*
X147614286Y-57883390D01*
X147614286Y-57883390D02*
X147661905Y-57692914D01*
X147661905Y-57692914D02*
X147709524Y-57597676D01*
X147709524Y-57597676D02*
X147804762Y-57502438D01*
X147804762Y-57502438D02*
X147947619Y-57454819D01*
X147947619Y-57454819D02*
X148042857Y-57454819D01*
X148042857Y-57454819D02*
X148185714Y-57502438D01*
X148185714Y-57502438D02*
X148233333Y-57550057D01*
X148614286Y-57550057D02*
X148661905Y-57502438D01*
X148661905Y-57502438D02*
X148757143Y-57454819D01*
X148757143Y-57454819D02*
X148995238Y-57454819D01*
X148995238Y-57454819D02*
X149090476Y-57502438D01*
X149090476Y-57502438D02*
X149138095Y-57550057D01*
X149138095Y-57550057D02*
X149185714Y-57645295D01*
X149185714Y-57645295D02*
X149185714Y-57740533D01*
X149185714Y-57740533D02*
X149138095Y-57883390D01*
X149138095Y-57883390D02*
X148566667Y-58454819D01*
X148566667Y-58454819D02*
X149185714Y-58454819D01*
X128166667Y-95907200D02*
X128309524Y-95954819D01*
X128309524Y-95954819D02*
X128547619Y-95954819D01*
X128547619Y-95954819D02*
X128642857Y-95907200D01*
X128642857Y-95907200D02*
X128690476Y-95859580D01*
X128690476Y-95859580D02*
X128738095Y-95764342D01*
X128738095Y-95764342D02*
X128738095Y-95669104D01*
X128738095Y-95669104D02*
X128690476Y-95573866D01*
X128690476Y-95573866D02*
X128642857Y-95526247D01*
X128642857Y-95526247D02*
X128547619Y-95478628D01*
X128547619Y-95478628D02*
X128357143Y-95431009D01*
X128357143Y-95431009D02*
X128261905Y-95383390D01*
X128261905Y-95383390D02*
X128214286Y-95335771D01*
X128214286Y-95335771D02*
X128166667Y-95240533D01*
X128166667Y-95240533D02*
X128166667Y-95145295D01*
X128166667Y-95145295D02*
X128214286Y-95050057D01*
X128214286Y-95050057D02*
X128261905Y-95002438D01*
X128261905Y-95002438D02*
X128357143Y-94954819D01*
X128357143Y-94954819D02*
X128595238Y-94954819D01*
X128595238Y-94954819D02*
X128738095Y-95002438D01*
X129071429Y-94954819D02*
X129309524Y-95954819D01*
X129309524Y-95954819D02*
X129500000Y-95240533D01*
X129500000Y-95240533D02*
X129690476Y-95954819D01*
X129690476Y-95954819D02*
X129928572Y-94954819D01*
X130833333Y-95954819D02*
X130261905Y-95954819D01*
X130547619Y-95954819D02*
X130547619Y-94954819D01*
X130547619Y-94954819D02*
X130452381Y-95097676D01*
X130452381Y-95097676D02*
X130357143Y-95192914D01*
X130357143Y-95192914D02*
X130261905Y-95240533D01*
X83333095Y-58044819D02*
X83333095Y-58854342D01*
X83333095Y-58854342D02*
X83380714Y-58949580D01*
X83380714Y-58949580D02*
X83428333Y-58997200D01*
X83428333Y-58997200D02*
X83523571Y-59044819D01*
X83523571Y-59044819D02*
X83714047Y-59044819D01*
X83714047Y-59044819D02*
X83809285Y-58997200D01*
X83809285Y-58997200D02*
X83856904Y-58949580D01*
X83856904Y-58949580D02*
X83904523Y-58854342D01*
X83904523Y-58854342D02*
X83904523Y-58044819D01*
X84285476Y-58044819D02*
X84904523Y-58044819D01*
X84904523Y-58044819D02*
X84571190Y-58425771D01*
X84571190Y-58425771D02*
X84714047Y-58425771D01*
X84714047Y-58425771D02*
X84809285Y-58473390D01*
X84809285Y-58473390D02*
X84856904Y-58521009D01*
X84856904Y-58521009D02*
X84904523Y-58616247D01*
X84904523Y-58616247D02*
X84904523Y-58854342D01*
X84904523Y-58854342D02*
X84856904Y-58949580D01*
X84856904Y-58949580D02*
X84809285Y-58997200D01*
X84809285Y-58997200D02*
X84714047Y-59044819D01*
X84714047Y-59044819D02*
X84428333Y-59044819D01*
X84428333Y-59044819D02*
X84333095Y-58997200D01*
X84333095Y-58997200D02*
X84285476Y-58949580D01*
X131380000Y-121807319D02*
X131380000Y-120807319D01*
X131380000Y-120807319D02*
X131713333Y-121521604D01*
X131713333Y-121521604D02*
X132046666Y-120807319D01*
X132046666Y-120807319D02*
X132046666Y-121807319D01*
X132713333Y-120807319D02*
X132903809Y-120807319D01*
X132903809Y-120807319D02*
X132999047Y-120854938D01*
X132999047Y-120854938D02*
X133094285Y-120950176D01*
X133094285Y-120950176D02*
X133141904Y-121140652D01*
X133141904Y-121140652D02*
X133141904Y-121473985D01*
X133141904Y-121473985D02*
X133094285Y-121664461D01*
X133094285Y-121664461D02*
X132999047Y-121759700D01*
X132999047Y-121759700D02*
X132903809Y-121807319D01*
X132903809Y-121807319D02*
X132713333Y-121807319D01*
X132713333Y-121807319D02*
X132618095Y-121759700D01*
X132618095Y-121759700D02*
X132522857Y-121664461D01*
X132522857Y-121664461D02*
X132475238Y-121473985D01*
X132475238Y-121473985D02*
X132475238Y-121140652D01*
X132475238Y-121140652D02*
X132522857Y-120950176D01*
X132522857Y-120950176D02*
X132618095Y-120854938D01*
X132618095Y-120854938D02*
X132713333Y-120807319D01*
X133570476Y-121807319D02*
X133570476Y-120807319D01*
X133570476Y-120807319D02*
X133808571Y-120807319D01*
X133808571Y-120807319D02*
X133951428Y-120854938D01*
X133951428Y-120854938D02*
X134046666Y-120950176D01*
X134046666Y-120950176D02*
X134094285Y-121045414D01*
X134094285Y-121045414D02*
X134141904Y-121235890D01*
X134141904Y-121235890D02*
X134141904Y-121378747D01*
X134141904Y-121378747D02*
X134094285Y-121569223D01*
X134094285Y-121569223D02*
X134046666Y-121664461D01*
X134046666Y-121664461D02*
X133951428Y-121759700D01*
X133951428Y-121759700D02*
X133808571Y-121807319D01*
X133808571Y-121807319D02*
X133570476Y-121807319D01*
X134903809Y-121283509D02*
X135046666Y-121331128D01*
X135046666Y-121331128D02*
X135094285Y-121378747D01*
X135094285Y-121378747D02*
X135141904Y-121473985D01*
X135141904Y-121473985D02*
X135141904Y-121616842D01*
X135141904Y-121616842D02*
X135094285Y-121712080D01*
X135094285Y-121712080D02*
X135046666Y-121759700D01*
X135046666Y-121759700D02*
X134951428Y-121807319D01*
X134951428Y-121807319D02*
X134570476Y-121807319D01*
X134570476Y-121807319D02*
X134570476Y-120807319D01*
X134570476Y-120807319D02*
X134903809Y-120807319D01*
X134903809Y-120807319D02*
X134999047Y-120854938D01*
X134999047Y-120854938D02*
X135046666Y-120902557D01*
X135046666Y-120902557D02*
X135094285Y-120997795D01*
X135094285Y-120997795D02*
X135094285Y-121093033D01*
X135094285Y-121093033D02*
X135046666Y-121188271D01*
X135046666Y-121188271D02*
X134999047Y-121235890D01*
X134999047Y-121235890D02*
X134903809Y-121283509D01*
X134903809Y-121283509D02*
X134570476Y-121283509D01*
X135570476Y-120807319D02*
X135570476Y-121616842D01*
X135570476Y-121616842D02*
X135618095Y-121712080D01*
X135618095Y-121712080D02*
X135665714Y-121759700D01*
X135665714Y-121759700D02*
X135760952Y-121807319D01*
X135760952Y-121807319D02*
X135951428Y-121807319D01*
X135951428Y-121807319D02*
X136046666Y-121759700D01*
X136046666Y-121759700D02*
X136094285Y-121712080D01*
X136094285Y-121712080D02*
X136141904Y-121616842D01*
X136141904Y-121616842D02*
X136141904Y-120807319D01*
X136570476Y-121759700D02*
X136713333Y-121807319D01*
X136713333Y-121807319D02*
X136951428Y-121807319D01*
X136951428Y-121807319D02*
X137046666Y-121759700D01*
X137046666Y-121759700D02*
X137094285Y-121712080D01*
X137094285Y-121712080D02*
X137141904Y-121616842D01*
X137141904Y-121616842D02*
X137141904Y-121521604D01*
X137141904Y-121521604D02*
X137094285Y-121426366D01*
X137094285Y-121426366D02*
X137046666Y-121378747D01*
X137046666Y-121378747D02*
X136951428Y-121331128D01*
X136951428Y-121331128D02*
X136760952Y-121283509D01*
X136760952Y-121283509D02*
X136665714Y-121235890D01*
X136665714Y-121235890D02*
X136618095Y-121188271D01*
X136618095Y-121188271D02*
X136570476Y-121093033D01*
X136570476Y-121093033D02*
X136570476Y-120997795D01*
X136570476Y-120997795D02*
X136618095Y-120902557D01*
X136618095Y-120902557D02*
X136665714Y-120854938D01*
X136665714Y-120854938D02*
X136760952Y-120807319D01*
X136760952Y-120807319D02*
X136999047Y-120807319D01*
X136999047Y-120807319D02*
X137141904Y-120854938D01*
X137332381Y-121902557D02*
X138094285Y-121902557D01*
X138332381Y-121807319D02*
X138332381Y-120807319D01*
X138808571Y-121807319D02*
X138808571Y-120807319D01*
X138808571Y-120807319D02*
X139379999Y-121807319D01*
X139379999Y-121807319D02*
X139379999Y-120807319D01*
X137123333Y-61284819D02*
X136790000Y-60808628D01*
X136551905Y-61284819D02*
X136551905Y-60284819D01*
X136551905Y-60284819D02*
X136932857Y-60284819D01*
X136932857Y-60284819D02*
X137028095Y-60332438D01*
X137028095Y-60332438D02*
X137075714Y-60380057D01*
X137075714Y-60380057D02*
X137123333Y-60475295D01*
X137123333Y-60475295D02*
X137123333Y-60618152D01*
X137123333Y-60618152D02*
X137075714Y-60713390D01*
X137075714Y-60713390D02*
X137028095Y-60761009D01*
X137028095Y-60761009D02*
X136932857Y-60808628D01*
X136932857Y-60808628D02*
X136551905Y-60808628D01*
X137456667Y-60284819D02*
X138123333Y-60284819D01*
X138123333Y-60284819D02*
X137694762Y-61284819D01*
X79911400Y-122070619D02*
X79941876Y-121979190D01*
X79941876Y-121979190D02*
X79941876Y-121826809D01*
X79941876Y-121826809D02*
X79911400Y-121765857D01*
X79911400Y-121765857D02*
X79880923Y-121735381D01*
X79880923Y-121735381D02*
X79819971Y-121704904D01*
X79819971Y-121704904D02*
X79759019Y-121704904D01*
X79759019Y-121704904D02*
X79698066Y-121735381D01*
X79698066Y-121735381D02*
X79667590Y-121765857D01*
X79667590Y-121765857D02*
X79637114Y-121826809D01*
X79637114Y-121826809D02*
X79606638Y-121948714D01*
X79606638Y-121948714D02*
X79576161Y-122009666D01*
X79576161Y-122009666D02*
X79545685Y-122040143D01*
X79545685Y-122040143D02*
X79484733Y-122070619D01*
X79484733Y-122070619D02*
X79423780Y-122070619D01*
X79423780Y-122070619D02*
X79362828Y-122040143D01*
X79362828Y-122040143D02*
X79332352Y-122009666D01*
X79332352Y-122009666D02*
X79301876Y-121948714D01*
X79301876Y-121948714D02*
X79301876Y-121796333D01*
X79301876Y-121796333D02*
X79332352Y-121704904D01*
X79941876Y-121095380D02*
X79941876Y-121461095D01*
X79941876Y-121278238D02*
X79301876Y-121278238D01*
X79301876Y-121278238D02*
X79393304Y-121339190D01*
X79393304Y-121339190D02*
X79454257Y-121400142D01*
X79454257Y-121400142D02*
X79484733Y-121461095D01*
X113818095Y-59689104D02*
X114294285Y-59689104D01*
X113722857Y-59974819D02*
X114056190Y-58974819D01*
X114056190Y-58974819D02*
X114389523Y-59974819D01*
X114722857Y-59974819D02*
X114722857Y-58974819D01*
X114722857Y-58974819D02*
X115294285Y-59974819D01*
X115294285Y-59974819D02*
X115294285Y-58974819D01*
X115722857Y-59689104D02*
X116199047Y-59689104D01*
X115627619Y-59974819D02*
X115960952Y-58974819D01*
X115960952Y-58974819D02*
X116294285Y-59974819D01*
X117103809Y-59974819D02*
X116627619Y-59974819D01*
X116627619Y-59974819D02*
X116627619Y-58974819D01*
X117627619Y-58974819D02*
X117818095Y-58974819D01*
X117818095Y-58974819D02*
X117913333Y-59022438D01*
X117913333Y-59022438D02*
X118008571Y-59117676D01*
X118008571Y-59117676D02*
X118056190Y-59308152D01*
X118056190Y-59308152D02*
X118056190Y-59641485D01*
X118056190Y-59641485D02*
X118008571Y-59831961D01*
X118008571Y-59831961D02*
X117913333Y-59927200D01*
X117913333Y-59927200D02*
X117818095Y-59974819D01*
X117818095Y-59974819D02*
X117627619Y-59974819D01*
X117627619Y-59974819D02*
X117532381Y-59927200D01*
X117532381Y-59927200D02*
X117437143Y-59831961D01*
X117437143Y-59831961D02*
X117389524Y-59641485D01*
X117389524Y-59641485D02*
X117389524Y-59308152D01*
X117389524Y-59308152D02*
X117437143Y-59117676D01*
X117437143Y-59117676D02*
X117532381Y-59022438D01*
X117532381Y-59022438D02*
X117627619Y-58974819D01*
X119008571Y-59022438D02*
X118913333Y-58974819D01*
X118913333Y-58974819D02*
X118770476Y-58974819D01*
X118770476Y-58974819D02*
X118627619Y-59022438D01*
X118627619Y-59022438D02*
X118532381Y-59117676D01*
X118532381Y-59117676D02*
X118484762Y-59212914D01*
X118484762Y-59212914D02*
X118437143Y-59403390D01*
X118437143Y-59403390D02*
X118437143Y-59546247D01*
X118437143Y-59546247D02*
X118484762Y-59736723D01*
X118484762Y-59736723D02*
X118532381Y-59831961D01*
X118532381Y-59831961D02*
X118627619Y-59927200D01*
X118627619Y-59927200D02*
X118770476Y-59974819D01*
X118770476Y-59974819D02*
X118865714Y-59974819D01*
X118865714Y-59974819D02*
X119008571Y-59927200D01*
X119008571Y-59927200D02*
X119056190Y-59879580D01*
X119056190Y-59879580D02*
X119056190Y-59546247D01*
X119056190Y-59546247D02*
X118865714Y-59546247D01*
X119246667Y-60070057D02*
X120008571Y-60070057D01*
X120246667Y-59974819D02*
X120246667Y-58974819D01*
X120722857Y-59974819D02*
X120722857Y-58974819D01*
X120722857Y-58974819D02*
X121294285Y-59974819D01*
X121294285Y-59974819D02*
X121294285Y-58974819D01*
%TO.C,U4*%
D10*
X129510000Y-75540000D02*
X155010000Y-75540000D01*
X155010000Y-84840000D01*
X129510000Y-84840000D01*
X129510000Y-75540000D01*
X133517481Y-82332519D02*
G75*
G02*
X130502519Y-82332519I-1507481J0D01*
G01*
X130502519Y-82332519D02*
G75*
G02*
X133517481Y-82332519I1507481J0D01*
G01*
X153992481Y-82332519D02*
G75*
G02*
X150977519Y-82332519I-1507481J0D01*
G01*
X150977519Y-82332519D02*
G75*
G02*
X153992481Y-82332519I1507481J0D01*
G01*
D12*
%TO.C,Q1*%
X140230000Y-114360000D02*
X143830000Y-114360000D01*
X140191522Y-114348478D02*
G75*
G02*
X142030000Y-109909999I1838478J1838478D01*
G01*
X142030000Y-109910000D02*
G75*
G02*
X143868478Y-114348478I0J-2600000D01*
G01*
%TO.C,C1*%
X142780000Y-60930000D02*
X154020000Y-60930000D01*
X142780000Y-62365000D02*
X142780000Y-60930000D01*
X142780000Y-65470000D02*
X142780000Y-64035000D01*
X154020000Y-60930000D02*
X154020000Y-62365000D01*
X154020000Y-64035000D02*
X154020000Y-65470000D01*
X154020000Y-65470000D02*
X142780000Y-65470000D01*
%TO.C,U1*%
X129440000Y-91400000D02*
X129440000Y-89450000D01*
X129440000Y-91400000D02*
X129440000Y-93350000D01*
X134560000Y-91400000D02*
X134560000Y-89450000D01*
X134560000Y-91400000D02*
X134560000Y-93350000D01*
X129535000Y-94100000D02*
X129205000Y-94340000D01*
X129205000Y-93860000D01*
X129535000Y-94100000D01*
G36*
X129535000Y-94100000D02*
G01*
X129205000Y-94340000D01*
X129205000Y-93860000D01*
X129535000Y-94100000D01*
G37*
%TO.C,R3*%
X134020000Y-67030000D02*
X140560000Y-67030000D01*
X134020000Y-67360000D02*
X134020000Y-67030000D01*
X134020000Y-69440000D02*
X134020000Y-69770000D01*
X134020000Y-69770000D02*
X140560000Y-69770000D01*
X140560000Y-67030000D02*
X140560000Y-67360000D01*
X140560000Y-69770000D02*
X140560000Y-69440000D01*
D13*
%TO.C,PS1*%
X84400000Y-50550000D02*
X103900000Y-50550000D01*
X84400000Y-58050000D02*
X84400000Y-50550000D01*
X84400000Y-58050000D02*
X103900000Y-58050000D01*
X103900000Y-58050000D02*
X103900000Y-50550000D01*
D14*
X86736000Y-49855000D02*
G75*
G02*
X86536000Y-49855000I-100000J0D01*
G01*
X86536000Y-49855000D02*
G75*
G02*
X86736000Y-49855000I100000J0D01*
G01*
D12*
%TO.C,R1*%
X85430000Y-113930000D02*
X85430000Y-120470000D01*
X85430000Y-120470000D02*
X85760000Y-120470000D01*
X85760000Y-113930000D02*
X85430000Y-113930000D01*
X87840000Y-113930000D02*
X88170000Y-113930000D01*
X88170000Y-113930000D02*
X88170000Y-120470000D01*
X88170000Y-120470000D02*
X87840000Y-120470000D01*
%TO.C,U10*%
D10*
X126850000Y-68650000D02*
X111850000Y-68650000D01*
X111850000Y-111650000D01*
X126850000Y-111650000D01*
X126850000Y-68650000D01*
D12*
%TO.C,D7*%
X146170000Y-111201000D02*
X146170000Y-111520000D01*
X146170000Y-113680000D02*
X146170000Y-113999000D01*
X146170000Y-111201251D02*
G75*
G02*
X150473591Y-111520000I2060000J-1398749D01*
G01*
X146546670Y-111520000D02*
G75*
G02*
X149913330Y-111520000I1683330J-1080000D01*
G01*
X149913330Y-113680000D02*
G75*
G02*
X146546670Y-113680000I-1683330J1080000D01*
G01*
X150473591Y-113680000D02*
G75*
G02*
X146170000Y-113998749I-2243591J1080000D01*
G01*
%TO.C,R52*%
X141430000Y-97720000D02*
X141760000Y-97720000D01*
X141430000Y-104260000D02*
X141430000Y-97720000D01*
X141760000Y-104260000D02*
X141430000Y-104260000D01*
X143840000Y-104260000D02*
X144170000Y-104260000D01*
X144170000Y-97720000D02*
X143840000Y-97720000D01*
X144170000Y-104260000D02*
X144170000Y-97720000D01*
%TO.C,R51*%
X148730000Y-120030000D02*
X149060000Y-120030000D01*
X148730000Y-126570000D02*
X148730000Y-120030000D01*
X149060000Y-126570000D02*
X148730000Y-126570000D01*
X151140000Y-126570000D02*
X151470000Y-126570000D01*
X151470000Y-120030000D02*
X151140000Y-120030000D01*
X151470000Y-126570000D02*
X151470000Y-120030000D01*
%TO.C,R8*%
X134020000Y-56630000D02*
X140560000Y-56630000D01*
X134020000Y-56960000D02*
X134020000Y-56630000D01*
X134020000Y-59040000D02*
X134020000Y-59370000D01*
X134020000Y-59370000D02*
X140560000Y-59370000D01*
X140560000Y-56630000D02*
X140560000Y-56960000D01*
X140560000Y-59370000D02*
X140560000Y-59040000D01*
%TO.C,C4*%
X142780000Y-50530000D02*
X154020000Y-50530000D01*
X142780000Y-51965000D02*
X142780000Y-50530000D01*
X142780000Y-55070000D02*
X142780000Y-53635000D01*
X154020000Y-50530000D02*
X154020000Y-51965000D01*
X154020000Y-53635000D02*
X154020000Y-55070000D01*
X154020000Y-55070000D02*
X142780000Y-55070000D01*
%TO.C,C3*%
X142780000Y-66130000D02*
X154020000Y-66130000D01*
X142780000Y-67565000D02*
X142780000Y-66130000D01*
X142780000Y-70670000D02*
X142780000Y-69235000D01*
X154020000Y-66130000D02*
X154020000Y-67565000D01*
X154020000Y-69235000D02*
X154020000Y-70670000D01*
X154020000Y-70670000D02*
X142780000Y-70670000D01*
%TO.C,SW2*%
X129450000Y-110850000D02*
X129450000Y-112350000D01*
X130700000Y-114850000D02*
X135200000Y-114850000D01*
X135200000Y-108350000D02*
X130700000Y-108350000D01*
X136450000Y-112350000D02*
X136450000Y-110850000D01*
%TO.C,MODBUS_OUT*%
X88430000Y-122352500D02*
X114070000Y-122352500D01*
X88430000Y-125372500D02*
X114070000Y-125372500D01*
X88430000Y-130272500D02*
X114070000Y-130272500D01*
X88430000Y-131772500D02*
X114070000Y-131772500D01*
X88430000Y-132392500D02*
X88430000Y-122352500D01*
X90790000Y-132392500D02*
X88430000Y-132392500D01*
X114070000Y-122352500D02*
X114070000Y-132392500D01*
X114070000Y-132392500D02*
X91390000Y-132392500D01*
X91530000Y-133002500D02*
X90650000Y-133002500D01*
X91090000Y-132392500D01*
X91530000Y-133002500D01*
G36*
X91530000Y-133002500D02*
G01*
X90650000Y-133002500D01*
X91090000Y-132392500D01*
X91530000Y-133002500D01*
G37*
%TO.C,R9*%
X134020000Y-51430000D02*
X140560000Y-51430000D01*
X134020000Y-51760000D02*
X134020000Y-51430000D01*
X134020000Y-53840000D02*
X134020000Y-54170000D01*
X134020000Y-54170000D02*
X140560000Y-54170000D01*
X140560000Y-51430000D02*
X140560000Y-51760000D01*
X140560000Y-54170000D02*
X140560000Y-53840000D01*
%TO.C,C2*%
X142780000Y-55730000D02*
X154020000Y-55730000D01*
X142780000Y-57165000D02*
X142780000Y-55730000D01*
X142780000Y-60270000D02*
X142780000Y-58835000D01*
X154020000Y-55730000D02*
X154020000Y-57165000D01*
X154020000Y-58835000D02*
X154020000Y-60270000D01*
X154020000Y-60270000D02*
X142780000Y-60270000D01*
%TO.C,SW1*%
X128257500Y-96392500D02*
X128257500Y-106292500D01*
X131312500Y-100665833D02*
X130042500Y-100665833D01*
X133852500Y-100665833D02*
X132582500Y-100665833D01*
X136392500Y-100665833D02*
X135122500Y-100665833D01*
X138932500Y-100665833D02*
X137662500Y-100665833D01*
X140717500Y-96392500D02*
X128257500Y-96392500D01*
X140717500Y-96392500D02*
X140717500Y-106292500D01*
X140717500Y-106292500D02*
X128257500Y-106292500D01*
X140957500Y-96152500D02*
X139574500Y-96152500D01*
X140957500Y-96152500D02*
X140957500Y-97535500D01*
X131312500Y-99312500D02*
X130042500Y-99312500D01*
X130042500Y-100665833D01*
X131312500Y-100665833D01*
X131312500Y-99312500D01*
G36*
X131312500Y-99312500D02*
G01*
X130042500Y-99312500D01*
X130042500Y-100665833D01*
X131312500Y-100665833D01*
X131312500Y-99312500D01*
G37*
X131312500Y-99312500D02*
X130042500Y-99312500D01*
X130042500Y-103372500D01*
X131312500Y-103372500D01*
X131312500Y-99312500D01*
X133852500Y-99312500D02*
X132582500Y-99312500D01*
X132582500Y-100665833D01*
X133852500Y-100665833D01*
X133852500Y-99312500D01*
G36*
X133852500Y-99312500D02*
G01*
X132582500Y-99312500D01*
X132582500Y-100665833D01*
X133852500Y-100665833D01*
X133852500Y-99312500D01*
G37*
X133852500Y-99312500D02*
X132582500Y-99312500D01*
X132582500Y-103372500D01*
X133852500Y-103372500D01*
X133852500Y-99312500D01*
X136392500Y-99312500D02*
X135122500Y-99312500D01*
X135122500Y-100665833D01*
X136392500Y-100665833D01*
X136392500Y-99312500D01*
G36*
X136392500Y-99312500D02*
G01*
X135122500Y-99312500D01*
X135122500Y-100665833D01*
X136392500Y-100665833D01*
X136392500Y-99312500D01*
G37*
X136392500Y-99312500D02*
X135122500Y-99312500D01*
X135122500Y-103372500D01*
X136392500Y-103372500D01*
X136392500Y-99312500D01*
X138932500Y-99312500D02*
X137662500Y-99312500D01*
X137662500Y-100665833D01*
X138932500Y-100665833D01*
X138932500Y-99312500D01*
G36*
X138932500Y-99312500D02*
G01*
X137662500Y-99312500D01*
X137662500Y-100665833D01*
X138932500Y-100665833D01*
X138932500Y-99312500D01*
G37*
X138932500Y-99312500D02*
X137662500Y-99312500D01*
X137662500Y-103372500D01*
X138932500Y-103372500D01*
X138932500Y-99312500D01*
D13*
%TO.C,U3*%
X81170000Y-60475000D02*
X92239000Y-60475000D01*
X81170000Y-60475000D02*
X109680000Y-60475000D01*
X81170000Y-111425000D02*
X81170000Y-60475000D01*
X81170000Y-111425000D02*
X81170000Y-60475000D01*
X81170000Y-111425000D02*
X86540000Y-111425000D01*
X86540000Y-111425000D02*
X104230000Y-111425000D01*
X92239000Y-60475000D02*
X98950000Y-60475000D01*
X98950000Y-60475000D02*
X109680000Y-60475000D01*
X104230000Y-111425000D02*
X109680000Y-111425000D01*
X109680000Y-60475000D02*
X109680000Y-111425000D01*
X109680000Y-60475000D02*
X109680000Y-111425000D01*
X109680000Y-111425000D02*
X81170000Y-111425000D01*
D14*
X80700000Y-70435000D02*
G75*
G02*
X80500000Y-70435000I-100000J0D01*
G01*
X80500000Y-70435000D02*
G75*
G02*
X80700000Y-70435000I100000J0D01*
G01*
D12*
%TO.C,MODBUS_IN*%
X122560000Y-122352500D02*
X148200000Y-122352500D01*
X122560000Y-125372500D02*
X148200000Y-125372500D01*
X122560000Y-130272500D02*
X148200000Y-130272500D01*
X122560000Y-131772500D02*
X148200000Y-131772500D01*
X122560000Y-132392500D02*
X122560000Y-122352500D01*
X124920000Y-132392500D02*
X122560000Y-132392500D01*
X148200000Y-122352500D02*
X148200000Y-132392500D01*
X148200000Y-132392500D02*
X125520000Y-132392500D01*
X125660000Y-133002500D02*
X124780000Y-133002500D01*
X125220000Y-132392500D01*
X125660000Y-133002500D01*
G36*
X125660000Y-133002500D02*
G01*
X124780000Y-133002500D01*
X125220000Y-132392500D01*
X125660000Y-133002500D01*
G37*
%TO.C,R7*%
X134020000Y-61830000D02*
X140560000Y-61830000D01*
X134020000Y-62160000D02*
X134020000Y-61830000D01*
X134020000Y-64240000D02*
X134020000Y-64570000D01*
X134020000Y-64570000D02*
X140560000Y-64570000D01*
X140560000Y-61830000D02*
X140560000Y-62160000D01*
X140560000Y-64570000D02*
X140560000Y-64240000D01*
D13*
%TO.C,S1*%
X80600000Y-112100000D02*
X80600000Y-123700000D01*
X80600000Y-123700000D02*
X84600000Y-123700000D01*
X84600000Y-112100000D02*
X80600000Y-112100000D01*
X84600000Y-123700000D02*
X84600000Y-112100000D01*
D14*
X82700000Y-124400000D02*
G75*
G02*
X82500000Y-124400000I-100000J0D01*
G01*
X82500000Y-124400000D02*
G75*
G02*
X82700000Y-124400000I100000J0D01*
G01*
D12*
%TO.C,ANALOG_IN*%
X104760000Y-48480000D02*
X127440000Y-48480000D01*
X104760000Y-58520000D02*
X104760000Y-48480000D01*
X128040000Y-48480000D02*
X130400000Y-48480000D01*
X130400000Y-48480000D02*
X130400000Y-58520000D01*
X130400000Y-49100000D02*
X104760000Y-49100000D01*
X130400000Y-50600000D02*
X104760000Y-50600000D01*
X130400000Y-55500000D02*
X104760000Y-55500000D01*
X130400000Y-58520000D02*
X104760000Y-58520000D01*
X127740000Y-48480000D02*
X127300000Y-47870000D01*
X128180000Y-47870000D01*
X127740000Y-48480000D01*
G36*
X127740000Y-48480000D02*
G01*
X127300000Y-47870000D01*
X128180000Y-47870000D01*
X127740000Y-48480000D01*
G37*
%TD*%
M02*
