%TF.GenerationSoftware,KiCad,Pcbnew,9.0.3*%
%TF.CreationDate,2026-03-02T14:34:05-05:00*%
%TF.ProjectId,SLAVE_V-C_NO_INSOLATED,534c4156-455f-4562-9d43-5f4e4f5f494e,rev?*%
%TF.SameCoordinates,Original*%
%TF.FileFunction,Copper,L2,Bot*%
%TF.FilePolarity,Positive*%
%FSLAX46Y46*%
G04 Gerber Fmt 4.6, Leading zero omitted, Abs format (unit mm)*
G04 Created by KiCad (PCBNEW 9.0.3) date 2026-03-02 14:34:05*
%MOMM*%
%LPD*%
G01*
G04 APERTURE LIST*
G04 Aperture macros list*
%AMRoundRect*
0 Rectangle with rounded corners*
0 $1 Rounding radius*
0 $2 $3 $4 $5 $6 $7 $8 $9 X,Y pos of 4 corners*
0 Add a 4 corners polygon primitive as box body*
4,1,4,$2,$3,$4,$5,$6,$7,$8,$9,$2,$3,0*
0 Add four circle primitives for the rounded corners*
1,1,$1+$1,$2,$3*
1,1,$1+$1,$4,$5*
1,1,$1+$1,$6,$7*
1,1,$1+$1,$8,$9*
0 Add four rect primitives between the rounded corners*
20,1,$1+$1,$2,$3,$4,$5,0*
20,1,$1+$1,$4,$5,$6,$7,0*
20,1,$1+$1,$6,$7,$8,$9,0*
20,1,$1+$1,$8,$9,$2,$3,0*%
G04 Aperture macros list end*
%TA.AperFunction,ComponentPad*%
%ADD10C,1.600000*%
%TD*%
%TA.AperFunction,ComponentPad*%
%ADD11C,1.524000*%
%TD*%
%TA.AperFunction,ComponentPad*%
%ADD12R,1.524000X1.524000*%
%TD*%
%TA.AperFunction,ComponentPad*%
%ADD13RoundRect,0.250000X-0.550000X-0.550000X0.550000X-0.550000X0.550000X0.550000X-0.550000X0.550000X0*%
%TD*%
%TA.AperFunction,ComponentPad*%
%ADD14RoundRect,0.250000X-1.020000X1.020000X-1.020000X-1.020000X1.020000X-1.020000X1.020000X1.020000X0*%
%TD*%
%TA.AperFunction,ComponentPad*%
%ADD15RoundRect,0.250000X-0.750000X0.900000X-0.750000X-0.900000X0.750000X-0.900000X0.750000X0.900000X0*%
%TD*%
%TA.AperFunction,ComponentPad*%
%ADD16C,2.000000*%
%TD*%
%TA.AperFunction,ComponentPad*%
%ADD17R,2.000000X2.000000*%
%TD*%
%TA.AperFunction,ComponentPad*%
%ADD18R,1.408000X1.408000*%
%TD*%
%TA.AperFunction,ComponentPad*%
%ADD19C,1.408000*%
%TD*%
%TA.AperFunction,ComponentPad*%
%ADD20RoundRect,0.250000X1.050000X1.050000X-1.050000X1.050000X-1.050000X-1.050000X1.050000X-1.050000X0*%
%TD*%
%TA.AperFunction,ComponentPad*%
%ADD21C,2.600000*%
%TD*%
%TA.AperFunction,ComponentPad*%
%ADD22R,1.050000X1.500000*%
%TD*%
%TA.AperFunction,ComponentPad*%
%ADD23O,1.050000X1.500000*%
%TD*%
%TA.AperFunction,ComponentPad*%
%ADD24RoundRect,0.250000X-1.050000X-1.050000X1.050000X-1.050000X1.050000X1.050000X-1.050000X1.050000X0*%
%TD*%
%TA.AperFunction,ViaPad*%
%ADD25C,1.600000*%
%TD*%
%TA.AperFunction,Conductor*%
%ADD26C,1.000000*%
%TD*%
%TA.AperFunction,Conductor*%
%ADD27C,0.500000*%
%TD*%
G04 APERTURE END LIST*
D10*
%TO.P,R3,2*%
%TO.N,SDA*%
X140600000Y-76900000D03*
%TO.P,R3,1*%
%TO.N,3V3*%
X140600000Y-84520000D03*
%TD*%
%TO.P,R7,2*%
%TO.N,SCL*%
X144000000Y-76900000D03*
%TO.P,R7,1*%
%TO.N,3V3*%
X144000000Y-84520000D03*
%TD*%
D11*
%TO.P,U1,LV4,LV4*%
%TO.N,unconnected-(U1-PadLV4)*%
X148800000Y-86260000D03*
%TO.P,U1,LV3,LV3*%
%TO.N,unconnected-(U1-PadLV3)*%
X148800000Y-83720000D03*
%TO.P,U1,LV2,LV2*%
%TO.N,SCL*%
X148800000Y-76100000D03*
D12*
%TO.P,U1,LV1,LV1*%
%TO.N,SDA*%
X148800000Y-73560000D03*
D11*
%TO.P,U1,LV,LV*%
%TO.N,3V3*%
X148800000Y-78640000D03*
%TO.P,U1,HV4,HV4*%
%TO.N,unconnected-(U1-PadHV4)*%
X158960000Y-86260000D03*
%TO.P,U1,HV3,HV3*%
%TO.N,unconnected-(U1-PadHV3)*%
X158960000Y-83720000D03*
%TO.P,U1,HV2,HV2*%
%TO.N,SCL_H*%
X158960000Y-76100000D03*
D12*
%TO.P,U1,HV1,HV1*%
%TO.N,SDA_H*%
X158960000Y-73560000D03*
D11*
%TO.P,U1,HV,HV*%
%TO.N,5V*%
X158960000Y-78640000D03*
%TO.P,U1,GND_2,GND*%
%TO.N,GND_ISO*%
X148800000Y-81180000D03*
%TO.P,U1,GND_1,GND*%
X158960000Y-81180000D03*
%TD*%
D10*
%TO.P,U2,8,VCC*%
%TO.N,5V*%
X157715000Y-101000000D03*
%TO.P,U2,7,EN*%
X157715000Y-103540000D03*
%TO.P,U2,6,VO*%
%TO.N,ALE*%
X157715000Y-106080000D03*
%TO.P,U2,5,GND*%
%TO.N,GND_ISO*%
X157715000Y-108620000D03*
%TO.P,U2,4,NC*%
%TO.N,unconnected-(U2-NC-Pad4)*%
X150095000Y-108620000D03*
%TO.P,U2,3,C*%
%TO.N,Net-(Q2-C)*%
X150095000Y-106080000D03*
%TO.P,U2,2,A*%
%TO.N,Net-(U2-A)*%
X150095000Y-103540000D03*
D13*
%TO.P,U2,1,NC*%
%TO.N,unconnected-(U2-NC-Pad1)*%
X150095000Y-101000000D03*
%TD*%
D10*
%TO.P,R5,2*%
%TO.N,ALE_H*%
X153490000Y-91300000D03*
%TO.P,R5,1*%
%TO.N,5V*%
X161110000Y-91300000D03*
%TD*%
%TO.P,R4,2*%
%TO.N,ALE_H*%
X149990000Y-94300000D03*
%TO.P,R4,1*%
%TO.N,Net-(Q2-B)*%
X157610000Y-94300000D03*
%TD*%
%TO.P,R6,2*%
%TO.N,Net-(U2-A)*%
X149990000Y-97400000D03*
%TO.P,R6,1*%
%TO.N,5V*%
X157610000Y-97400000D03*
%TD*%
D14*
%TO.P,U10,7,GND*%
%TO.N,GND_T*%
X132895000Y-111300000D03*
%TO.P,U10,6,B*%
%TO.N,485-*%
X137975000Y-111300000D03*
%TO.P,U10,5,A*%
%TO.N,485+*%
X143055000Y-111300000D03*
D15*
%TO.P,U10,4,GND*%
%TO.N,GND_ISO*%
X133935000Y-71700000D03*
%TO.P,U10,3,RXD*%
%TO.N,RX*%
X136475000Y-71700000D03*
%TO.P,U10,2,TXD*%
%TO.N,TX*%
X139015000Y-71700000D03*
%TO.P,U10,1,VCC*%
%TO.N,3V3*%
X141555000Y-71700000D03*
%TD*%
D16*
%TO.P,U3,30,VIN*%
%TO.N,5V*%
X126700000Y-72485000D03*
%TO.P,U3,29,GND*%
%TO.N,GND_ISO*%
X126700000Y-75025000D03*
%TO.P,U3,28,D13*%
%TO.N,ALE*%
X126700000Y-77565000D03*
%TO.P,U3,27,D12*%
%TO.N,unconnected-(U3-D12-Pad27)*%
X126700000Y-80105000D03*
%TO.P,U3,26,D14*%
%TO.N,DIP_1*%
X126700000Y-82645000D03*
%TO.P,U3,25,D27*%
%TO.N,DIP_2*%
X126700000Y-85185000D03*
%TO.P,U3,24,D26*%
%TO.N,DIP_3*%
X126700000Y-87725000D03*
%TO.P,U3,23,D25*%
%TO.N,DIP_4*%
X126700000Y-90265000D03*
%TO.P,U3,22,D33*%
%TO.N,LED*%
X126700000Y-92805000D03*
%TO.P,U3,21,D32*%
%TO.N,BUTTOM*%
X126700000Y-95345000D03*
%TO.P,U3,20,D35*%
%TO.N,unconnected-(U3-D35-Pad20)*%
X126700000Y-97885000D03*
%TO.P,U3,19,D34*%
%TO.N,unconnected-(U3-D34-Pad19)*%
X126700000Y-100425000D03*
%TO.P,U3,18,VN*%
%TO.N,unconnected-(U3-VN-Pad18)*%
X126700000Y-102965000D03*
%TO.P,U3,17,VP*%
%TO.N,unconnected-(U3-VP-Pad17)*%
X126700000Y-105505000D03*
%TO.P,U3,16,EN*%
%TO.N,unconnected-(U3-EN-Pad16)*%
X126700000Y-108045000D03*
%TO.P,U3,15,D23*%
%TO.N,unconnected-(U3-D23-Pad15)*%
X101300000Y-108045000D03*
%TO.P,U3,14,D22*%
%TO.N,SCL*%
X101300000Y-105505000D03*
%TO.P,U3,13,TX0*%
%TO.N,unconnected-(U3-TX0-Pad13)*%
X101300000Y-102965000D03*
%TO.P,U3,12,RX0*%
%TO.N,unconnected-(U3-RX0-Pad12)*%
X101300000Y-100425000D03*
%TO.P,U3,11,D21*%
%TO.N,SDA*%
X101300000Y-97885000D03*
%TO.P,U3,10,D19*%
%TO.N,unconnected-(U3-D19-Pad10)*%
X101300000Y-95345000D03*
%TO.P,U3,9,D18*%
%TO.N,unconnected-(U3-D18-Pad9)*%
X101300000Y-92805000D03*
%TO.P,U3,8,D5*%
%TO.N,unconnected-(U3-D5-Pad8)*%
X101300000Y-90265000D03*
%TO.P,U3,7,TX2*%
%TO.N,TX*%
X101300000Y-87725000D03*
%TO.P,U3,6,RX2*%
%TO.N,RX*%
X101300000Y-85185000D03*
%TO.P,U3,5,D4*%
%TO.N,unconnected-(U3-D4-Pad5)*%
X101300000Y-82645000D03*
%TO.P,U3,4,D2*%
%TO.N,unconnected-(U3-D2-Pad4)*%
X101300000Y-80105000D03*
%TO.P,U3,3,D15*%
%TO.N,unconnected-(U3-D15-Pad3)*%
X101300000Y-77565000D03*
%TO.P,U3,2,GND*%
%TO.N,GND_ISO*%
X101300000Y-75025000D03*
D17*
%TO.P,U3,1,3V3*%
%TO.N,3V3*%
X101300000Y-72485000D03*
%TD*%
D10*
%TO.P,R1,1*%
%TO.N,Net-(R1-Pad1)*%
X142610000Y-105600000D03*
%TO.P,R1,2*%
%TO.N,485-*%
X134990000Y-105600000D03*
%TD*%
%TO.P,R2,1*%
%TO.N,3V3*%
X147400000Y-90390000D03*
%TO.P,R2,2*%
%TO.N,ALE*%
X147400000Y-98010000D03*
%TD*%
D18*
%TO.P,S1,1*%
%TO.N,unconnected-(S1-Pad1)*%
X135600000Y-98200000D03*
D19*
%TO.P,S1,2*%
%TO.N,485+*%
X138100000Y-98200000D03*
%TO.P,S1,3*%
%TO.N,Net-(R1-Pad1)*%
X140600000Y-98200000D03*
%TD*%
D20*
%TO.P,ANALOG_IN1,1,Pin_1*%
%TO.N,5V*%
X148080000Y-55000000D03*
D21*
%TO.P,ANALOG_IN1,2,Pin_2*%
%TO.N,GND_ISO*%
X143000000Y-55000000D03*
%TO.P,ANALOG_IN1,3,Pin_3*%
%TO.N,SIGNAL_OUT1*%
X137920000Y-55000000D03*
%TO.P,ANALOG_IN1,4,Pin_4*%
%TO.N,SIGNAL_OUT2*%
X132840000Y-55000000D03*
%TO.P,ANALOG_IN1,5,Pin_5*%
%TO.N,SIGNAL_OUT3*%
X127760000Y-55000000D03*
%TD*%
D22*
%TO.P,Q2,1,E*%
%TO.N,GND_ISO*%
X154740000Y-115000000D03*
D23*
%TO.P,Q2,2,B*%
%TO.N,Net-(Q2-B)*%
X153470000Y-115000000D03*
%TO.P,Q2,3,C*%
%TO.N,Net-(Q2-C)*%
X152200000Y-115000000D03*
%TD*%
D11*
%TO.P,U4,1,ADDR*%
%TO.N,unconnected-(U4-ADDR-Pad1)*%
X160080000Y-68640000D03*
%TO.P,U4,2,ALERT*%
%TO.N,ALE_H*%
X157540000Y-68640000D03*
%TO.P,U4,3,GND*%
%TO.N,GND_ISO*%
X167700000Y-68640000D03*
%TO.P,U4,4,AIN0*%
%TO.N,SIGNAL_OUT1*%
X155000000Y-68640000D03*
%TO.P,U4,5,AIN1*%
%TO.N,SIGNAL_OUT2*%
X152460000Y-68640000D03*
%TO.P,U4,6,AIN2*%
%TO.N,SIGNAL_OUT3*%
X149920000Y-68640000D03*
%TO.P,U4,7,AIN3*%
%TO.N,unconnected-(U4-AIN3-Pad7)*%
X147380000Y-68640000D03*
%TO.P,U4,8,VDD*%
%TO.N,5V*%
X170240000Y-68640000D03*
%TO.P,U4,9,SDA*%
%TO.N,SDA_H*%
X162620000Y-68640000D03*
%TO.P,U4,10,SCL*%
%TO.N,SCL_H*%
X165160000Y-68640000D03*
%TD*%
D24*
%TO.P,MODBUS_IN1,1,Pin_1*%
%TO.N,5V*%
X143760000Y-130000000D03*
D21*
%TO.P,MODBUS_IN1,2,Pin_2*%
%TO.N,GND_ISO*%
X148840000Y-130000000D03*
%TO.P,MODBUS_IN1,3,Pin_3*%
%TO.N,GND_T*%
X153920000Y-130000000D03*
%TO.P,MODBUS_IN1,4,Pin_4*%
%TO.N,485-*%
X159000000Y-130000000D03*
%TO.P,MODBUS_IN1,5,Pin_5*%
%TO.N,485+*%
X164080000Y-130000000D03*
%TD*%
D24*
%TO.P,MODBUS_OUT1,1,Pin_1*%
%TO.N,5V*%
X109680000Y-130000000D03*
D21*
%TO.P,MODBUS_OUT1,2,Pin_2*%
%TO.N,GND_ISO*%
X114760000Y-130000000D03*
%TO.P,MODBUS_OUT1,3,Pin_3*%
%TO.N,GND_T*%
X119840000Y-130000000D03*
%TO.P,MODBUS_OUT1,4,Pin_4*%
%TO.N,485-*%
X124920000Y-130000000D03*
%TO.P,MODBUS_OUT1,5,Pin_5*%
%TO.N,485+*%
X130000000Y-130000000D03*
%TD*%
D25*
%TO.N,GND_ISO*%
X134000000Y-64300000D03*
X134000000Y-68700000D03*
%TO.N,485+*%
X131651016Y-121630000D03*
X128680000Y-125340000D03*
%TD*%
D26*
%TO.N,GND_T*%
X153920000Y-127550000D02*
X153920000Y-130000000D01*
X153070000Y-126700000D02*
X153920000Y-127550000D01*
X134600000Y-127600000D02*
X135500000Y-126700000D01*
X133250000Y-132400000D02*
X134600000Y-131050000D01*
X123450000Y-132400000D02*
X133250000Y-132400000D01*
X122500000Y-131450000D02*
X123450000Y-132400000D01*
X122500000Y-125200000D02*
X122500000Y-131450000D01*
X134600000Y-131050000D02*
X134600000Y-127600000D01*
X122310000Y-125010000D02*
X122500000Y-125200000D01*
X135500000Y-126700000D02*
X153070000Y-126700000D01*
D27*
%TO.N,5V*%
X109700000Y-70500000D02*
X107300000Y-72900000D01*
X107300000Y-104400000D02*
X104300000Y-107400000D01*
X126400000Y-70500000D02*
X109700000Y-70500000D01*
X104300000Y-107400000D02*
X104300000Y-113450000D01*
X126700000Y-70800000D02*
X126400000Y-70500000D01*
X126700000Y-72485000D02*
X126700000Y-70800000D01*
X107300000Y-72900000D02*
X107300000Y-104400000D01*
%TO.N,SDA*%
X102415000Y-97885000D02*
X101300000Y-97885000D01*
X103550000Y-96750000D02*
X102415000Y-97885000D01*
X103550000Y-88950000D02*
X103550000Y-96750000D01*
X105800000Y-71560000D02*
X105800000Y-86700000D01*
X108660000Y-68700000D02*
X105800000Y-71560000D01*
X105800000Y-86700000D02*
X103550000Y-88950000D01*
X129400000Y-68700000D02*
X108660000Y-68700000D01*
X130000000Y-69300000D02*
X129400000Y-68700000D01*
X130000000Y-73200000D02*
X130000000Y-69300000D01*
X132000000Y-75200000D02*
X130000000Y-73200000D01*
X140400000Y-75200000D02*
X132000000Y-75200000D01*
%TO.N,SCL*%
X104300000Y-102505000D02*
X101300000Y-105505000D01*
X104300000Y-89950000D02*
X104300000Y-102505000D01*
X106600000Y-87650000D02*
X104300000Y-89950000D01*
X106600000Y-72140000D02*
X106600000Y-87650000D01*
X109340000Y-69400000D02*
X106600000Y-72140000D01*
X128900000Y-69400000D02*
X109340000Y-69400000D01*
X137550000Y-76100000D02*
X131800000Y-76100000D01*
X131800000Y-76100000D02*
X129300000Y-73600000D01*
X139750000Y-78300000D02*
X137550000Y-76100000D01*
X129300000Y-73600000D02*
X129300000Y-69800000D01*
X145050000Y-78300000D02*
X139750000Y-78300000D01*
X129300000Y-69800000D02*
X128900000Y-69400000D01*
X146450000Y-76900000D02*
X145050000Y-78300000D01*
X148000000Y-76900000D02*
X146450000Y-76900000D01*
%TO.N,TX*%
X102983792Y-87725000D02*
X101300000Y-87725000D01*
X105000000Y-85708792D02*
X102983792Y-87725000D01*
X105000000Y-71020000D02*
X105000000Y-85708792D01*
X108020000Y-68000000D02*
X105000000Y-71020000D01*
X130700000Y-68800000D02*
X129900000Y-68000000D01*
X130700000Y-72800000D02*
X130700000Y-68800000D01*
X129900000Y-68000000D02*
X108020000Y-68000000D01*
X132200000Y-74300000D02*
X130700000Y-72800000D01*
X138230000Y-74300000D02*
X132200000Y-74300000D01*
X139015000Y-73515000D02*
X138230000Y-74300000D01*
X139015000Y-71700000D02*
X139015000Y-73515000D01*
%TO.N,RX*%
X103115000Y-85185000D02*
X101300000Y-85185000D01*
X104070000Y-84230000D02*
X103115000Y-85185000D01*
X104070000Y-70580000D02*
X104070000Y-84230000D01*
X107350000Y-67300000D02*
X104070000Y-70580000D01*
X131400000Y-68200000D02*
X130500000Y-67300000D01*
X131400000Y-72300000D02*
X131400000Y-68200000D01*
X130500000Y-67300000D02*
X107350000Y-67300000D01*
X132700000Y-73600000D02*
X131400000Y-72300000D01*
X136200000Y-73600000D02*
X132700000Y-73600000D01*
X136475000Y-73325000D02*
X136200000Y-73600000D01*
X136475000Y-71700000D02*
X136475000Y-73325000D01*
D26*
%TO.N,485-*%
X127970000Y-123180000D02*
X126850000Y-124300000D01*
X160920000Y-124470000D02*
X159630000Y-123180000D01*
X160920000Y-128080000D02*
X160920000Y-124470000D01*
X159000000Y-130000000D02*
X160920000Y-128080000D01*
%TO.N,485+*%
X131651016Y-121691016D02*
X131651016Y-121630000D01*
X131930000Y-121970000D02*
X131651016Y-121691016D01*
X141480000Y-121970000D02*
X131930000Y-121970000D01*
X131651016Y-121568984D02*
X131651016Y-121630000D01*
X134210000Y-119010000D02*
X131651016Y-121568984D01*
%TO.N,485-*%
X159630000Y-123180000D02*
X127970000Y-123180000D01*
%TO.N,485+*%
X140790000Y-119010000D02*
X134210000Y-119010000D01*
X143055000Y-111300000D02*
X143055000Y-116745000D01*
X143055000Y-116745000D02*
X140790000Y-119010000D01*
%TO.N,485-*%
X126850000Y-128070000D02*
X124920000Y-130000000D01*
X126850000Y-124300000D02*
X126850000Y-128070000D01*
X128925000Y-122225000D02*
X126850000Y-124300000D01*
X128253984Y-122896016D02*
X128925000Y-122225000D01*
X136730000Y-117220000D02*
X137975000Y-115975000D01*
X133930000Y-117220000D02*
X136730000Y-117220000D01*
X128925000Y-122225000D02*
X133930000Y-117220000D01*
X137975000Y-115975000D02*
X137975000Y-111300000D01*
D27*
%TO.N,5V*%
X103450000Y-114300000D02*
X104300000Y-113450000D01*
X103450000Y-124150000D02*
X103450000Y-114300000D01*
X103450000Y-124150000D02*
X103450000Y-129400000D01*
X103450000Y-129400000D02*
X107650000Y-133600000D01*
X103450000Y-122950000D02*
X103450000Y-124150000D01*
X107650000Y-133600000D02*
X111030000Y-133600000D01*
X103000000Y-114750000D02*
X99650000Y-114750000D01*
X99650000Y-114750000D02*
X98600000Y-113700000D01*
X104300000Y-113450000D02*
X103000000Y-114750000D01*
X150050000Y-56970000D02*
X150865000Y-57785000D01*
X150050000Y-52500000D02*
X150050000Y-56970000D01*
X149570000Y-52020000D02*
X150050000Y-52500000D01*
X147430000Y-52020000D02*
X149570000Y-52020000D01*
X148080000Y-55000000D02*
X150865000Y-57785000D01*
D26*
%TO.N,GND_T*%
X122310000Y-125010000D02*
X130810000Y-116510000D01*
D27*
%TO.N,3V3*%
X143093354Y-69643354D02*
X144950000Y-71500000D01*
X144950000Y-71500000D02*
X149706762Y-71500000D01*
X139606646Y-69643354D02*
X143093354Y-69643354D01*
%TO.N,ALE*%
X129765000Y-78680000D02*
X128650000Y-77565000D01*
X129765000Y-94415000D02*
X129765000Y-78680000D01*
X130950000Y-95600000D02*
X129765000Y-94415000D01*
X146500000Y-95600000D02*
X130950000Y-95600000D01*
X147400000Y-96500000D02*
X146500000Y-95600000D01*
X147400000Y-98010000D02*
X147400000Y-96500000D01*
X128650000Y-77565000D02*
X126700000Y-77565000D01*
%TO.N,SDA*%
X140600000Y-76000000D02*
X139800000Y-75200000D01*
X139800000Y-75200000D02*
X140400000Y-75200000D01*
X140600000Y-76900000D02*
X140600000Y-76000000D01*
%TO.N,3V3*%
X147380000Y-78640000D02*
X148800000Y-78640000D01*
X144000000Y-82020000D02*
X147380000Y-78640000D01*
X144000000Y-84520000D02*
X144000000Y-82020000D01*
X140600000Y-84520000D02*
X144000000Y-84520000D01*
%TO.N,SCL*%
X144000000Y-76900000D02*
X148000000Y-76900000D01*
X148000000Y-76900000D02*
X148800000Y-76100000D01*
%TO.N,ALE*%
X153691000Y-104791000D02*
X149576818Y-104791000D01*
X149576818Y-104791000D02*
X147400000Y-102614182D01*
X147400000Y-102614182D02*
X147400000Y-98010000D01*
X154980000Y-106080000D02*
X153691000Y-104791000D01*
X157715000Y-106080000D02*
X154980000Y-106080000D01*
%TO.N,ALE_H*%
X154000000Y-90790000D02*
X153490000Y-91300000D01*
X154000000Y-72180000D02*
X154000000Y-90790000D01*
X157540000Y-68640000D02*
X154000000Y-72180000D01*
%TO.N,5V*%
X158259000Y-91300000D02*
X156359000Y-89400000D01*
X161110000Y-91300000D02*
X158259000Y-91300000D01*
X156359000Y-89400000D02*
X156359000Y-81241000D01*
X156359000Y-81241000D02*
X158960000Y-78640000D01*
X156359000Y-96149000D02*
X156359000Y-89400000D01*
X157610000Y-97400000D02*
X156359000Y-96149000D01*
%TO.N,ALE_H*%
X152990000Y-91300000D02*
X149990000Y-94300000D01*
X153490000Y-91300000D02*
X152990000Y-91300000D01*
%TO.N,3V3*%
X150500000Y-86900000D02*
X147400000Y-90000000D01*
X150500000Y-77700000D02*
X150500000Y-86900000D01*
X147400000Y-90000000D02*
X147400000Y-90390000D01*
X141555000Y-71591708D02*
X141555000Y-71700000D01*
X106974000Y-66526000D02*
X136489292Y-66526000D01*
X101300000Y-72200000D02*
X106974000Y-66526000D01*
X136489292Y-66526000D02*
X139606646Y-69643354D01*
X101300000Y-72485000D02*
X101300000Y-72200000D01*
%TO.N,485-*%
X137975000Y-106875000D02*
X136700000Y-105600000D01*
X137975000Y-111300000D02*
X137975000Y-106875000D01*
X136700000Y-105600000D02*
X134990000Y-105600000D01*
%TO.N,485+*%
X143055000Y-108955000D02*
X143055000Y-111300000D01*
X140700000Y-106600000D02*
X143055000Y-108955000D01*
X140700000Y-100800000D02*
X140700000Y-106600000D01*
X138100000Y-98200000D02*
X140700000Y-100800000D01*
%TO.N,Net-(R1-Pad1)*%
X142610000Y-100210000D02*
X140600000Y-98200000D01*
X142610000Y-105600000D02*
X142610000Y-100210000D01*
%TO.N,Net-(Q2-C)*%
X152200000Y-108185000D02*
X152200000Y-115000000D01*
X150095000Y-106080000D02*
X152200000Y-108185000D01*
%TO.N,Net-(Q2-B)*%
X158769000Y-107331000D02*
X153769000Y-107331000D01*
X153470000Y-107630000D02*
X153470000Y-115000000D01*
X159400000Y-106700000D02*
X158769000Y-107331000D01*
X159400000Y-96090000D02*
X159400000Y-106700000D01*
X157610000Y-94300000D02*
X159400000Y-96090000D01*
X153769000Y-107331000D02*
X153470000Y-107630000D01*
%TO.N,3V3*%
X149860000Y-78640000D02*
X148800000Y-78640000D01*
X150500000Y-78000000D02*
X149860000Y-78640000D01*
X150500000Y-77700000D02*
X150500000Y-78000000D01*
%TO.N,Net-(U2-A)*%
X151900000Y-99310000D02*
X151900000Y-101735000D01*
X149990000Y-97400000D02*
X151900000Y-99310000D01*
X150095000Y-103540000D02*
X151900000Y-101735000D01*
%TO.N,5V*%
X157610000Y-103435000D02*
X157715000Y-103540000D01*
X157610000Y-97400000D02*
X157610000Y-103435000D01*
X170240000Y-77360000D02*
X170240000Y-71900000D01*
%TO.N,3V3*%
X150500000Y-77300000D02*
X150500000Y-77700000D01*
%TO.N,5V*%
X98600000Y-63650000D02*
X98600000Y-113700000D01*
X121300000Y-61900000D02*
X100350000Y-61900000D01*
X121980000Y-61220000D02*
X121300000Y-61900000D01*
X123890000Y-52020000D02*
X121980000Y-53930000D01*
X100350000Y-61900000D02*
X98600000Y-63650000D01*
X147430000Y-52020000D02*
X123890000Y-52020000D01*
X148080000Y-52670000D02*
X147430000Y-52020000D01*
X148080000Y-55000000D02*
X148080000Y-52670000D01*
X121980000Y-53930000D02*
X121980000Y-61220000D01*
X171700000Y-70200000D02*
X170240000Y-71660000D01*
X171700000Y-66200000D02*
X171700000Y-70200000D01*
X170240000Y-71660000D02*
X170240000Y-71900000D01*
X170300000Y-64800000D02*
X171700000Y-66200000D01*
X171300000Y-65800000D02*
X170000000Y-64500000D01*
X170000000Y-64500000D02*
X170300000Y-64800000D01*
X170240000Y-71900000D02*
X170240000Y-68640000D01*
X170300000Y-68580000D02*
X170240000Y-68640000D01*
X170300000Y-64800000D02*
X170300000Y-68580000D01*
X151380000Y-58300000D02*
X163800000Y-58300000D01*
X163800000Y-58300000D02*
X170000000Y-64500000D01*
X150865000Y-57785000D02*
X151380000Y-58300000D01*
X168960000Y-78640000D02*
X170240000Y-77360000D01*
X158960000Y-78640000D02*
X168960000Y-78640000D01*
%TO.N,3V3*%
X150500000Y-72293238D02*
X150500000Y-77300000D01*
X149706762Y-71500000D02*
X150500000Y-72293238D01*
X141755000Y-71500000D02*
X144950000Y-71500000D01*
X141555000Y-71700000D02*
X141755000Y-71500000D01*
%TO.N,SDA_H*%
X161540000Y-73560000D02*
X158960000Y-73560000D01*
X162620000Y-72480000D02*
X161540000Y-73560000D01*
X162620000Y-68640000D02*
X162620000Y-72480000D01*
%TO.N,SCL_H*%
X161500000Y-76100000D02*
X158960000Y-76100000D01*
X165160000Y-72440000D02*
X161500000Y-76100000D01*
X165160000Y-68640000D02*
X165160000Y-72440000D01*
D26*
%TO.N,GND_T*%
X130810000Y-116510000D02*
X132240000Y-115080000D01*
X119840000Y-130000000D02*
X119840000Y-127480000D01*
X132895000Y-114425000D02*
X130810000Y-116510000D01*
X153910000Y-129990000D02*
X153920000Y-130000000D01*
X119840000Y-127480000D02*
X122310000Y-125010000D01*
X132895000Y-111300000D02*
X132895000Y-114425000D01*
X132895000Y-114425000D02*
X132240000Y-115080000D01*
D27*
%TO.N,5V*%
X111030000Y-133600000D02*
X109680000Y-132250000D01*
X143760000Y-133040000D02*
X143200000Y-133600000D01*
X143760000Y-130000000D02*
X143760000Y-133040000D01*
X109680000Y-132250000D02*
X109680000Y-130000000D01*
X143200000Y-133600000D02*
X111030000Y-133600000D01*
D26*
%TO.N,485+*%
X128410000Y-128410000D02*
X128410000Y-125610000D01*
X130000000Y-130000000D02*
X128410000Y-128410000D01*
X162172000Y-128092000D02*
X162172000Y-123985000D01*
X128410000Y-125610000D02*
X128680000Y-125340000D01*
X160135000Y-121970000D02*
X162150000Y-123985000D01*
X141970000Y-121970000D02*
X141480000Y-121970000D01*
X164080000Y-130000000D02*
X162172000Y-128092000D01*
X141480000Y-121970000D02*
X160135000Y-121970000D01*
X143055000Y-111300000D02*
X143160000Y-111405000D01*
X164080000Y-129180000D02*
X164080000Y-130000000D01*
D27*
%TO.N,SIGNAL_OUT2*%
X152460000Y-68640000D02*
X152460000Y-66390000D01*
X133900000Y-55000000D02*
X132840000Y-55000000D01*
X144050000Y-65150000D02*
X133900000Y-55000000D01*
X151220000Y-65150000D02*
X144050000Y-65150000D01*
X152460000Y-66390000D02*
X151220000Y-65150000D01*
%TO.N,SIGNAL_OUT3*%
X149920000Y-67180000D02*
X149920000Y-68640000D01*
X143010000Y-66660000D02*
X149400000Y-66660000D01*
X149400000Y-66660000D02*
X149920000Y-67180000D01*
X134310000Y-57960000D02*
X143010000Y-66660000D01*
X127760000Y-55000000D02*
X130720000Y-57960000D01*
X130720000Y-57960000D02*
X134310000Y-57960000D01*
%TO.N,SIGNAL_OUT1*%
X155000000Y-65800000D02*
X152940000Y-63740000D01*
X152940000Y-63740000D02*
X146660000Y-63740000D01*
X146660000Y-63740000D02*
X137920000Y-55000000D01*
X155000000Y-68640000D02*
X155000000Y-65800000D01*
%TO.N,SDA*%
X147160000Y-75200000D02*
X140400000Y-75200000D01*
X148800000Y-73560000D02*
X147160000Y-75200000D01*
%TD*%
%TA.AperFunction,Conductor*%
%TO.N,GND_ISO*%
G36*
X147217652Y-52590185D02*
G01*
X147238294Y-52606819D01*
X147493181Y-52861706D01*
X147526666Y-52923029D01*
X147529500Y-52949387D01*
X147529500Y-53275500D01*
X147509815Y-53342539D01*
X147457011Y-53388294D01*
X147405500Y-53399500D01*
X146986898Y-53399500D01*
X146947853Y-53404188D01*
X146898438Y-53410122D01*
X146757656Y-53465639D01*
X146637077Y-53557077D01*
X146545639Y-53677656D01*
X146490122Y-53818438D01*
X146485429Y-53857525D01*
X146479500Y-53906898D01*
X146479500Y-56093102D01*
X146485126Y-56139954D01*
X146490122Y-56181561D01*
X146545639Y-56322343D01*
X146637077Y-56442922D01*
X146757656Y-56534360D01*
X146757657Y-56534360D01*
X146757658Y-56534361D01*
X146898436Y-56589877D01*
X146986898Y-56600500D01*
X148850613Y-56600500D01*
X148917652Y-56620185D01*
X148938294Y-56636819D01*
X150424490Y-58123015D01*
X151041985Y-58740510D01*
X151167515Y-58812984D01*
X151307525Y-58850500D01*
X151307526Y-58850500D01*
X151452474Y-58850500D01*
X163520613Y-58850500D01*
X163587652Y-58870185D01*
X163608294Y-58886819D01*
X169559490Y-64838015D01*
X169713182Y-64991706D01*
X169746666Y-65053028D01*
X169749500Y-65079386D01*
X169749500Y-67623604D01*
X169729815Y-67690643D01*
X169694391Y-67726706D01*
X169562696Y-67814701D01*
X169562692Y-67814704D01*
X169414703Y-67962693D01*
X169298423Y-68136719D01*
X169218331Y-68330079D01*
X169218329Y-68330085D01*
X169192523Y-68459820D01*
X169160138Y-68521731D01*
X169099422Y-68556305D01*
X169029652Y-68552564D01*
X168972981Y-68511698D01*
X168948433Y-68455025D01*
X168930925Y-68344480D01*
X168930924Y-68344476D01*
X168869542Y-68155562D01*
X168779358Y-67978567D01*
X168752268Y-67941283D01*
X168189494Y-68504057D01*
X168173381Y-68443919D01*
X168106502Y-68328080D01*
X168011920Y-68233498D01*
X167896081Y-68166619D01*
X167835942Y-68150504D01*
X168398716Y-67587731D01*
X168398715Y-67587730D01*
X168361432Y-67560641D01*
X168184437Y-67470457D01*
X167995522Y-67409075D01*
X167799321Y-67378000D01*
X167600679Y-67378000D01*
X167404479Y-67409075D01*
X167404476Y-67409075D01*
X167215562Y-67470457D01*
X167038564Y-67560643D01*
X167001283Y-67587729D01*
X167001282Y-67587730D01*
X167564058Y-68150504D01*
X167503919Y-68166619D01*
X167388080Y-68233498D01*
X167293498Y-68328080D01*
X167226619Y-68443919D01*
X167210504Y-68504057D01*
X166647730Y-67941282D01*
X166647729Y-67941283D01*
X166620643Y-67978564D01*
X166530457Y-68155562D01*
X166469075Y-68344476D01*
X166469075Y-68344479D01*
X166451566Y-68455026D01*
X166421637Y-68518161D01*
X166362325Y-68555092D01*
X166292463Y-68554094D01*
X166234230Y-68515484D01*
X166207476Y-68459819D01*
X166184533Y-68344479D01*
X166181669Y-68330080D01*
X166109381Y-68155562D01*
X166101576Y-68136719D01*
X165985296Y-67962693D01*
X165837306Y-67814703D01*
X165791517Y-67784108D01*
X165663282Y-67698425D01*
X165663283Y-67698425D01*
X165663281Y-67698424D01*
X165469920Y-67618331D01*
X165469912Y-67618329D01*
X165264651Y-67577500D01*
X165264647Y-67577500D01*
X165055353Y-67577500D01*
X165055348Y-67577500D01*
X164850087Y-67618329D01*
X164850079Y-67618331D01*
X164656719Y-67698423D01*
X164482693Y-67814703D01*
X164334703Y-67962693D01*
X164218423Y-68136719D01*
X164138331Y-68330079D01*
X164138329Y-68330087D01*
X164097500Y-68535348D01*
X164097500Y-68744651D01*
X164138329Y-68949912D01*
X164138331Y-68949920D01*
X164218423Y-69143280D01*
X164334703Y-69317306D01*
X164482692Y-69465295D01*
X164482697Y-69465299D01*
X164554389Y-69513201D01*
X164599195Y-69566813D01*
X164609500Y-69616304D01*
X164609500Y-72160613D01*
X164589815Y-72227652D01*
X164573181Y-72248294D01*
X161308294Y-75513181D01*
X161246971Y-75546666D01*
X161220613Y-75549500D01*
X159936305Y-75549500D01*
X159869266Y-75529815D01*
X159833203Y-75494390D01*
X159785301Y-75422700D01*
X159785295Y-75422692D01*
X159637306Y-75274703D01*
X159463280Y-75158423D01*
X159269920Y-75078331D01*
X159269912Y-75078329D01*
X159064651Y-75037500D01*
X159064647Y-75037500D01*
X158855353Y-75037500D01*
X158855348Y-75037500D01*
X158650087Y-75078329D01*
X158650079Y-75078331D01*
X158456719Y-75158423D01*
X158282693Y-75274703D01*
X158134703Y-75422693D01*
X158018423Y-75596719D01*
X157938331Y-75790079D01*
X157938329Y-75790087D01*
X157897500Y-75995348D01*
X157897500Y-76204651D01*
X157938329Y-76409912D01*
X157938331Y-76409920D01*
X158018423Y-76603280D01*
X158134703Y-76777306D01*
X158282693Y-76925296D01*
X158282696Y-76925298D01*
X158456718Y-77041575D01*
X158650080Y-77121669D01*
X158831227Y-77157701D01*
X158855348Y-77162499D01*
X158855352Y-77162500D01*
X158855353Y-77162500D01*
X159064648Y-77162500D01*
X159064649Y-77162499D01*
X159269920Y-77121669D01*
X159463282Y-77041575D01*
X159637304Y-76925298D01*
X159785298Y-76777304D01*
X159797387Y-76759210D01*
X159833203Y-76705610D01*
X159886815Y-76660804D01*
X159936305Y-76650500D01*
X161572472Y-76650500D01*
X161572474Y-76650500D01*
X161572475Y-76650500D01*
X161712485Y-76612984D01*
X161838015Y-76540510D01*
X165600510Y-72778014D01*
X165672984Y-72652485D01*
X165680342Y-72625023D01*
X165690394Y-72587514D01*
X165699782Y-72552475D01*
X165710500Y-72512475D01*
X165710500Y-69616304D01*
X165730185Y-69549265D01*
X165765611Y-69513201D01*
X165787435Y-69498619D01*
X165837304Y-69465298D01*
X165985298Y-69317304D01*
X166101575Y-69143282D01*
X166181669Y-68949920D01*
X166204313Y-68836081D01*
X166207476Y-68820180D01*
X166239860Y-68758269D01*
X166300576Y-68723695D01*
X166370346Y-68727434D01*
X166427018Y-68768300D01*
X166451566Y-68824973D01*
X166469075Y-68935520D01*
X166469075Y-68935523D01*
X166530457Y-69124437D01*
X166620641Y-69301432D01*
X166647730Y-69338715D01*
X166647731Y-69338716D01*
X167210504Y-68775942D01*
X167226619Y-68836081D01*
X167293498Y-68951920D01*
X167388080Y-69046502D01*
X167503919Y-69113381D01*
X167564057Y-69129494D01*
X167001283Y-69692268D01*
X167001283Y-69692269D01*
X167038567Y-69719358D01*
X167215562Y-69809542D01*
X167404477Y-69870924D01*
X167600679Y-69902000D01*
X167799321Y-69902000D01*
X167995520Y-69870924D01*
X167995523Y-69870924D01*
X168184437Y-69809542D01*
X168361425Y-69719362D01*
X168398716Y-69692268D01*
X167835942Y-69129494D01*
X167896081Y-69113381D01*
X168011920Y-69046502D01*
X168106502Y-68951920D01*
X168173381Y-68836081D01*
X168189495Y-68775942D01*
X168752268Y-69338715D01*
X168779362Y-69301425D01*
X168869542Y-69124437D01*
X168930922Y-68935527D01*
X168948432Y-68824974D01*
X168978362Y-68761839D01*
X169037673Y-68724907D01*
X169107535Y-68725905D01*
X169165768Y-68764514D01*
X169192523Y-68820179D01*
X169218329Y-68949914D01*
X169218331Y-68949920D01*
X169298423Y-69143280D01*
X169414703Y-69317306D01*
X169562692Y-69465295D01*
X169562697Y-69465299D01*
X169634389Y-69513201D01*
X169679195Y-69566813D01*
X169689500Y-69616304D01*
X169689500Y-77080613D01*
X169669815Y-77147652D01*
X169653181Y-77168294D01*
X168768294Y-78053181D01*
X168706971Y-78086666D01*
X168680613Y-78089500D01*
X159936305Y-78089500D01*
X159869266Y-78069815D01*
X159833203Y-78034390D01*
X159785301Y-77962700D01*
X159785295Y-77962692D01*
X159637306Y-77814703D01*
X159463280Y-77698423D01*
X159269920Y-77618331D01*
X159269912Y-77618329D01*
X159064651Y-77577500D01*
X159064647Y-77577500D01*
X158855353Y-77577500D01*
X158855348Y-77577500D01*
X158650087Y-77618329D01*
X158650079Y-77618331D01*
X158456719Y-77698423D01*
X158282693Y-77814703D01*
X158134703Y-77962693D01*
X158018423Y-78136719D01*
X157938331Y-78330079D01*
X157938329Y-78330087D01*
X157897500Y-78535348D01*
X157897500Y-78744651D01*
X157914321Y-78829216D01*
X157908094Y-78898808D01*
X157880385Y-78941088D01*
X155918491Y-80902983D01*
X155918489Y-80902986D01*
X155846016Y-81028514D01*
X155846016Y-81028515D01*
X155808500Y-81168525D01*
X155808500Y-89327525D01*
X155808500Y-96076526D01*
X155808500Y-96221474D01*
X155841071Y-96343029D01*
X155846016Y-96361485D01*
X155918489Y-96487013D01*
X155918491Y-96487016D01*
X156497005Y-97065530D01*
X156530490Y-97126853D01*
X156531797Y-97172608D01*
X156510064Y-97309827D01*
X156509500Y-97313389D01*
X156509500Y-97486611D01*
X156536598Y-97657701D01*
X156590127Y-97822445D01*
X156668768Y-97976788D01*
X156770586Y-98116928D01*
X156893072Y-98239414D01*
X156974998Y-98298937D01*
X157008385Y-98323194D01*
X157051051Y-98378524D01*
X157059500Y-98423512D01*
X157059500Y-100052774D01*
X157039815Y-100119813D01*
X157008387Y-100153091D01*
X156998075Y-100160583D01*
X156998072Y-100160585D01*
X156875588Y-100283069D01*
X156875588Y-100283070D01*
X156875586Y-100283072D01*
X156849891Y-100318438D01*
X156773768Y-100423211D01*
X156695128Y-100577552D01*
X156641597Y-100742302D01*
X156614500Y-100913389D01*
X156614500Y-101086611D01*
X156641598Y-101257701D01*
X156695127Y-101422445D01*
X156773768Y-101576788D01*
X156875586Y-101716928D01*
X156998072Y-101839414D01*
X157008382Y-101846905D01*
X157051049Y-101902231D01*
X157059500Y-101947224D01*
X157059500Y-102592774D01*
X157039815Y-102659813D01*
X157008387Y-102693091D01*
X156998075Y-102700583D01*
X156998072Y-102700585D01*
X156875588Y-102823069D01*
X156875588Y-102823070D01*
X156875586Y-102823072D01*
X156846832Y-102862648D01*
X156773768Y-102963211D01*
X156695128Y-103117552D01*
X156641597Y-103282302D01*
X156614500Y-103453389D01*
X156614500Y-103626611D01*
X156641598Y-103797701D01*
X156695127Y-103962445D01*
X156773768Y-104116788D01*
X156875586Y-104256928D01*
X156998072Y-104379414D01*
X157138212Y-104481232D01*
X157292555Y-104559873D01*
X157457299Y-104613402D01*
X157628389Y-104640500D01*
X157628390Y-104640500D01*
X157801610Y-104640500D01*
X157801611Y-104640500D01*
X157972701Y-104613402D01*
X158137445Y-104559873D01*
X158291788Y-104481232D01*
X158431928Y-104379414D01*
X158554414Y-104256928D01*
X158625182Y-104159523D01*
X158680512Y-104116859D01*
X158750126Y-104110880D01*
X158811921Y-104143486D01*
X158846278Y-104204325D01*
X158849500Y-104232410D01*
X158849500Y-105387589D01*
X158829815Y-105454628D01*
X158777011Y-105500383D01*
X158707853Y-105510327D01*
X158644297Y-105481302D01*
X158625182Y-105460475D01*
X158572805Y-105388385D01*
X158554414Y-105363072D01*
X158431928Y-105240586D01*
X158291788Y-105138768D01*
X158137445Y-105060127D01*
X157972701Y-105006598D01*
X157972699Y-105006597D01*
X157972698Y-105006597D01*
X157841271Y-104985781D01*
X157801611Y-104979500D01*
X157628389Y-104979500D01*
X157588728Y-104985781D01*
X157457302Y-105006597D01*
X157292552Y-105060128D01*
X157138211Y-105138768D01*
X157084826Y-105177555D01*
X156998072Y-105240586D01*
X156998070Y-105240588D01*
X156998069Y-105240588D01*
X156875587Y-105363070D01*
X156791805Y-105478386D01*
X156736474Y-105521051D01*
X156691487Y-105529500D01*
X155259387Y-105529500D01*
X155192348Y-105509815D01*
X155171706Y-105493181D01*
X154029016Y-104350491D01*
X154029015Y-104350490D01*
X153903485Y-104278016D01*
X153824784Y-104256928D01*
X153824783Y-104256927D01*
X153763475Y-104240500D01*
X151175547Y-104240500D01*
X151108508Y-104220815D01*
X151062753Y-104168011D01*
X151052809Y-104098853D01*
X151065062Y-104060205D01*
X151114873Y-103962445D01*
X151168402Y-103797701D01*
X151195500Y-103626611D01*
X151195500Y-103453389D01*
X151173202Y-103312606D01*
X151182156Y-103243315D01*
X151207991Y-103205532D01*
X152340510Y-102073015D01*
X152397892Y-101973626D01*
X152412982Y-101947489D01*
X152412985Y-101947481D01*
X152414206Y-101942927D01*
X152429983Y-101884044D01*
X152450500Y-101807475D01*
X152450500Y-99237525D01*
X152412984Y-99097515D01*
X152373931Y-99029873D01*
X152340510Y-98971985D01*
X151102994Y-97734469D01*
X151069509Y-97673146D01*
X151068202Y-97627394D01*
X151090500Y-97486611D01*
X151090500Y-97313389D01*
X151063402Y-97142299D01*
X151009873Y-96977555D01*
X150931232Y-96823212D01*
X150829414Y-96683072D01*
X150706928Y-96560586D01*
X150566788Y-96458768D01*
X150412445Y-96380127D01*
X150247701Y-96326598D01*
X150247699Y-96326597D01*
X150247698Y-96326597D01*
X150116271Y-96305781D01*
X150076611Y-96299500D01*
X149903389Y-96299500D01*
X149863728Y-96305781D01*
X149732302Y-96326597D01*
X149567552Y-96380128D01*
X149413211Y-96458768D01*
X149374336Y-96487013D01*
X149273072Y-96560586D01*
X149273070Y-96560588D01*
X149273069Y-96560588D01*
X149150588Y-96683069D01*
X149150588Y-96683070D01*
X149150586Y-96683072D01*
X149119771Y-96725485D01*
X149048768Y-96823211D01*
X148970128Y-96977552D01*
X148916597Y-97142302D01*
X148900523Y-97243793D01*
X148889500Y-97313389D01*
X148889500Y-97486611D01*
X148916598Y-97657701D01*
X148970127Y-97822445D01*
X149048768Y-97976788D01*
X149150586Y-98116928D01*
X149273072Y-98239414D01*
X149413212Y-98341232D01*
X149567555Y-98419873D01*
X149732299Y-98473402D01*
X149903389Y-98500500D01*
X149903390Y-98500500D01*
X150076610Y-98500500D01*
X150076611Y-98500500D01*
X150217392Y-98478202D01*
X150286683Y-98487156D01*
X150324469Y-98512994D01*
X151313181Y-99501706D01*
X151346666Y-99563029D01*
X151349500Y-99589387D01*
X151349500Y-100099218D01*
X151329815Y-100166257D01*
X151277011Y-100212012D01*
X151207853Y-100221956D01*
X151144297Y-100192931D01*
X151126696Y-100174143D01*
X151037922Y-100057077D01*
X150917343Y-99965639D01*
X150776561Y-99910122D01*
X150730926Y-99904642D01*
X150688102Y-99899500D01*
X149501898Y-99899500D01*
X149462853Y-99904188D01*
X149413438Y-99910122D01*
X149272656Y-99965639D01*
X149152077Y-100057077D01*
X149060639Y-100177656D01*
X149005122Y-100318438D01*
X149004617Y-100322648D01*
X148994500Y-100406898D01*
X148994500Y-101593102D01*
X148997673Y-101619524D01*
X149005122Y-101681561D01*
X149005122Y-101681563D01*
X149005123Y-101681564D01*
X149009400Y-101692410D01*
X149060639Y-101822343D01*
X149152077Y-101942922D01*
X149272656Y-102034360D01*
X149272657Y-102034360D01*
X149272658Y-102034361D01*
X149413436Y-102089877D01*
X149501898Y-102100500D01*
X149501903Y-102100500D01*
X150456612Y-102100500D01*
X150523651Y-102120185D01*
X150569406Y-102172989D01*
X150579350Y-102242147D01*
X150550325Y-102305703D01*
X150544306Y-102312167D01*
X150470317Y-102386157D01*
X150429468Y-102427006D01*
X150368145Y-102460490D01*
X150322389Y-102461797D01*
X150181611Y-102439500D01*
X150008389Y-102439500D01*
X149968728Y-102445781D01*
X149837302Y-102466597D01*
X149837299Y-102466598D01*
X149677883Y-102518396D01*
X149672552Y-102520128D01*
X149518211Y-102598768D01*
X149439501Y-102655955D01*
X149378072Y-102700586D01*
X149378070Y-102700588D01*
X149378069Y-102700588D01*
X149255588Y-102823069D01*
X149255588Y-102823070D01*
X149255586Y-102823072D01*
X149226832Y-102862648D01*
X149153768Y-102963211D01*
X149075128Y-103117552D01*
X149075127Y-103117554D01*
X149075127Y-103117555D01*
X149045013Y-103210238D01*
X149041222Y-103221904D01*
X149001784Y-103279580D01*
X148937426Y-103306778D01*
X148868579Y-103294863D01*
X148835610Y-103271267D01*
X147986819Y-102422476D01*
X147953334Y-102361153D01*
X147950500Y-102334795D01*
X147950500Y-99033512D01*
X147970185Y-98966473D01*
X148001615Y-98933194D01*
X148116928Y-98849414D01*
X148239414Y-98726928D01*
X148341232Y-98586788D01*
X148419873Y-98432445D01*
X148473402Y-98267701D01*
X148500500Y-98096611D01*
X148500500Y-97923389D01*
X148473402Y-97752299D01*
X148419873Y-97587555D01*
X148341232Y-97433212D01*
X148239414Y-97293072D01*
X148116928Y-97170586D01*
X148001614Y-97086805D01*
X147958949Y-97031476D01*
X147950500Y-96986488D01*
X147950500Y-96427527D01*
X147950500Y-96427525D01*
X147912984Y-96287515D01*
X147840510Y-96161985D01*
X146838015Y-95159490D01*
X146712485Y-95087016D01*
X146712486Y-95087016D01*
X146677482Y-95077637D01*
X146572475Y-95049500D01*
X146572472Y-95049500D01*
X131229387Y-95049500D01*
X131162348Y-95029815D01*
X131141706Y-95013181D01*
X130351819Y-94223294D01*
X130318334Y-94161971D01*
X130315500Y-94135613D01*
X130315500Y-78607527D01*
X130315500Y-78607525D01*
X130277984Y-78467515D01*
X130246059Y-78412219D01*
X130205510Y-78341985D01*
X128988015Y-77124490D01*
X128862485Y-77052016D01*
X128862480Y-77052014D01*
X128823520Y-77041574D01*
X128823520Y-77041575D01*
X128772997Y-77028037D01*
X128722475Y-77014500D01*
X128722474Y-77014500D01*
X127955078Y-77014500D01*
X127888039Y-76994815D01*
X127844593Y-76946794D01*
X127812286Y-76883388D01*
X127691971Y-76717786D01*
X127547217Y-76573032D01*
X127547212Y-76573028D01*
X127471273Y-76517855D01*
X127428607Y-76462525D01*
X127422628Y-76392912D01*
X127455234Y-76331117D01*
X127482392Y-76311091D01*
X127482009Y-76310465D01*
X127486169Y-76307914D01*
X127569104Y-76247658D01*
X127569105Y-76247658D01*
X126837574Y-75516128D01*
X126896853Y-75500245D01*
X127013147Y-75433102D01*
X127108102Y-75338147D01*
X127175245Y-75221853D01*
X127191128Y-75162575D01*
X127922658Y-75894105D01*
X127922658Y-75894104D01*
X127982914Y-75811169D01*
X127982918Y-75811163D01*
X128090102Y-75600802D01*
X128163065Y-75376247D01*
X128200000Y-75143052D01*
X128200000Y-74906947D01*
X128163065Y-74673752D01*
X128090102Y-74449197D01*
X127982914Y-74238828D01*
X127922658Y-74155894D01*
X127922658Y-74155893D01*
X127191128Y-74887424D01*
X127175245Y-74828147D01*
X127108102Y-74711853D01*
X127013147Y-74616898D01*
X126896853Y-74549755D01*
X126837574Y-74533871D01*
X127569105Y-73802340D01*
X127569104Y-73802338D01*
X127486170Y-73742084D01*
X127482019Y-73739540D01*
X127482839Y-73738200D01*
X127437071Y-73694980D01*
X127420270Y-73627160D01*
X127442803Y-73561024D01*
X127471271Y-73532144D01*
X127547219Y-73476966D01*
X127691966Y-73332219D01*
X127691968Y-73332215D01*
X127691971Y-73332213D01*
X127749866Y-73252526D01*
X127812287Y-73166610D01*
X127905220Y-72984219D01*
X127968477Y-72789534D01*
X128000500Y-72587352D01*
X128000500Y-72382648D01*
X127968477Y-72180466D01*
X127962026Y-72160613D01*
X127933226Y-72071975D01*
X127905220Y-71985781D01*
X127905218Y-71985778D01*
X127905218Y-71985776D01*
X127871503Y-71919607D01*
X127812287Y-71803390D01*
X127775431Y-71752661D01*
X127691971Y-71637786D01*
X127547213Y-71493028D01*
X127381611Y-71372713D01*
X127318204Y-71340405D01*
X127267409Y-71292431D01*
X127250500Y-71229921D01*
X127250500Y-70727527D01*
X127250500Y-70727525D01*
X127212984Y-70587515D01*
X127184405Y-70538015D01*
X127140510Y-70461985D01*
X126840706Y-70162181D01*
X126807221Y-70100858D01*
X126812205Y-70031166D01*
X126854077Y-69975233D01*
X126919541Y-69950816D01*
X126928387Y-69950500D01*
X128620613Y-69950500D01*
X128650053Y-69959144D01*
X128680040Y-69965668D01*
X128685055Y-69969422D01*
X128687652Y-69970185D01*
X128708294Y-69986819D01*
X128713181Y-69991706D01*
X128746666Y-70053029D01*
X128749500Y-70079387D01*
X128749500Y-73672475D01*
X128753449Y-73687214D01*
X128764239Y-73727484D01*
X128764240Y-73727484D01*
X128764240Y-73727485D01*
X128787016Y-73812485D01*
X128859490Y-73938015D01*
X131461985Y-76540510D01*
X131587515Y-76612984D01*
X131727525Y-76650500D01*
X131727526Y-76650500D01*
X131872474Y-76650500D01*
X137270613Y-76650500D01*
X137337652Y-76670185D01*
X137358294Y-76686819D01*
X139411985Y-78740510D01*
X139411986Y-78740511D01*
X139411988Y-78740512D01*
X139522819Y-78804500D01*
X139535099Y-78811589D01*
X139537515Y-78812984D01*
X139677525Y-78850500D01*
X139677526Y-78850500D01*
X139677528Y-78850500D01*
X145122472Y-78850500D01*
X145122474Y-78850500D01*
X145122475Y-78850500D01*
X145262485Y-78812984D01*
X145270491Y-78808361D01*
X145277181Y-78804500D01*
X145349342Y-78762837D01*
X145388015Y-78740510D01*
X146641706Y-77486819D01*
X146703029Y-77453334D01*
X146729387Y-77450500D01*
X148072472Y-77450500D01*
X148072474Y-77450500D01*
X148072475Y-77450500D01*
X148212485Y-77412984D01*
X148338015Y-77340510D01*
X148498913Y-77179610D01*
X148560232Y-77146128D01*
X148610779Y-77145677D01*
X148680134Y-77159472D01*
X148695352Y-77162500D01*
X148695353Y-77162500D01*
X148904648Y-77162500D01*
X148904649Y-77162499D01*
X149109920Y-77121669D01*
X149303282Y-77041575D01*
X149477304Y-76925298D01*
X149625298Y-76777304D01*
X149722398Y-76631981D01*
X149776009Y-76587177D01*
X149845334Y-76578470D01*
X149908362Y-76608624D01*
X149945082Y-76668067D01*
X149949500Y-76700873D01*
X149949500Y-77720612D01*
X149940855Y-77750052D01*
X149934332Y-77780039D01*
X149930577Y-77785054D01*
X149929815Y-77787651D01*
X149913181Y-77808294D01*
X149779719Y-77941755D01*
X149718396Y-77975239D01*
X149648704Y-77970255D01*
X149604357Y-77941754D01*
X149477306Y-77814703D01*
X149303280Y-77698423D01*
X149109920Y-77618331D01*
X149109912Y-77618329D01*
X148904651Y-77577500D01*
X148904647Y-77577500D01*
X148695353Y-77577500D01*
X148695348Y-77577500D01*
X148490087Y-77618329D01*
X148490079Y-77618331D01*
X148296719Y-77698423D01*
X148122693Y-77814703D01*
X147974704Y-77962692D01*
X147974698Y-77962700D01*
X147926797Y-78034390D01*
X147873185Y-78079196D01*
X147823695Y-78089500D01*
X147307525Y-78089500D01*
X147210493Y-78115500D01*
X147167514Y-78127016D01*
X147041986Y-78199489D01*
X147041983Y-78199491D01*
X143559489Y-81681985D01*
X143517923Y-81753983D01*
X143517922Y-81753984D01*
X143487017Y-81807512D01*
X143487016Y-81807513D01*
X143477928Y-81841432D01*
X143449500Y-81947525D01*
X143449500Y-81947527D01*
X143449500Y-83496488D01*
X143429815Y-83563527D01*
X143398385Y-83596806D01*
X143283075Y-83680583D01*
X143283069Y-83680588D01*
X143160587Y-83803070D01*
X143076805Y-83918386D01*
X143021474Y-83961051D01*
X142976487Y-83969500D01*
X141623513Y-83969500D01*
X141556474Y-83949815D01*
X141523195Y-83918386D01*
X141473669Y-83850220D01*
X141439414Y-83803072D01*
X141316928Y-83680586D01*
X141176788Y-83578768D01*
X141022445Y-83500127D01*
X140857701Y-83446598D01*
X140857699Y-83446597D01*
X140857698Y-83446597D01*
X140726271Y-83425781D01*
X140686611Y-83419500D01*
X140513389Y-83419500D01*
X140473728Y-83425781D01*
X140342302Y-83446597D01*
X140177552Y-83500128D01*
X140023211Y-83578768D01*
X139972857Y-83615353D01*
X139883072Y-83680586D01*
X139883070Y-83680588D01*
X139883069Y-83680588D01*
X139760588Y-83803069D01*
X139760588Y-83803070D01*
X139760586Y-83803072D01*
X139759538Y-83804515D01*
X139658768Y-83943211D01*
X139580128Y-84097552D01*
X139526597Y-84262302D01*
X139514643Y-84337781D01*
X139499500Y-84433389D01*
X139499500Y-84606611D01*
X139503050Y-84629025D01*
X139512038Y-84685776D01*
X139526598Y-84777701D01*
X139580127Y-84942445D01*
X139658768Y-85096788D01*
X139760586Y-85236928D01*
X139883072Y-85359414D01*
X140023212Y-85461232D01*
X140177555Y-85539873D01*
X140342299Y-85593402D01*
X140513389Y-85620500D01*
X140513390Y-85620500D01*
X140686610Y-85620500D01*
X140686611Y-85620500D01*
X140857701Y-85593402D01*
X141022445Y-85539873D01*
X141176788Y-85461232D01*
X141316928Y-85359414D01*
X141439414Y-85236928D01*
X141523195Y-85121614D01*
X141578526Y-85078949D01*
X141623513Y-85070500D01*
X142976487Y-85070500D01*
X143043526Y-85090185D01*
X143076805Y-85121614D01*
X143160586Y-85236928D01*
X143283072Y-85359414D01*
X143423212Y-85461232D01*
X143577555Y-85539873D01*
X143742299Y-85593402D01*
X143913389Y-85620500D01*
X143913390Y-85620500D01*
X144086610Y-85620500D01*
X144086611Y-85620500D01*
X144257701Y-85593402D01*
X144422445Y-85539873D01*
X144576788Y-85461232D01*
X144716928Y-85359414D01*
X144839414Y-85236928D01*
X144941232Y-85096788D01*
X145019873Y-84942445D01*
X145073402Y-84777701D01*
X145100500Y-84606611D01*
X145100500Y-84433389D01*
X145073402Y-84262299D01*
X145019873Y-84097555D01*
X144941232Y-83943212D01*
X144839414Y-83803072D01*
X144716928Y-83680586D01*
X144601614Y-83596805D01*
X144558949Y-83541476D01*
X144550500Y-83496488D01*
X144550500Y-82299387D01*
X144570185Y-82232348D01*
X144586819Y-82211706D01*
X147571706Y-79226819D01*
X147598633Y-79212115D01*
X147624452Y-79195523D01*
X147630652Y-79194631D01*
X147633029Y-79193334D01*
X147659387Y-79190500D01*
X147823695Y-79190500D01*
X147890734Y-79210185D01*
X147926797Y-79245610D01*
X147974698Y-79317299D01*
X147974704Y-79317307D01*
X148122693Y-79465296D01*
X148296719Y-79581576D01*
X148393399Y-79621622D01*
X148490080Y-79661669D01*
X148545742Y-79672740D01*
X148619819Y-79687476D01*
X148681730Y-79719861D01*
X148716304Y-79780576D01*
X148712565Y-79850346D01*
X148671699Y-79907018D01*
X148615026Y-79931566D01*
X148504479Y-79949075D01*
X148504476Y-79949075D01*
X148315562Y-80010457D01*
X148138564Y-80100643D01*
X148101283Y-80127729D01*
X148101282Y-80127730D01*
X148664058Y-80690504D01*
X148603919Y-80706619D01*
X148488080Y-80773498D01*
X148393498Y-80868080D01*
X148326619Y-80983919D01*
X148310504Y-81044057D01*
X147747730Y-80481282D01*
X147747729Y-80481283D01*
X147720643Y-80518564D01*
X147630457Y-80695562D01*
X147569075Y-80884476D01*
X147569075Y-80884479D01*
X147538000Y-81080678D01*
X147538000Y-81279321D01*
X147569075Y-81475520D01*
X147569075Y-81475523D01*
X147630457Y-81664437D01*
X147720641Y-81841432D01*
X147747730Y-81878715D01*
X147747731Y-81878716D01*
X148310504Y-81315942D01*
X148326619Y-81376081D01*
X148393498Y-81491920D01*
X148488080Y-81586502D01*
X148603919Y-81653381D01*
X148664057Y-81669494D01*
X148101283Y-82232268D01*
X148101283Y-82232269D01*
X148138567Y-82259358D01*
X148315562Y-82349542D01*
X148504476Y-82410924D01*
X148504480Y-82410925D01*
X148615025Y-82428433D01*
X148678160Y-82458362D01*
X148715092Y-82517673D01*
X148714094Y-82587535D01*
X148675485Y-82645768D01*
X148619820Y-82672523D01*
X148490085Y-82698329D01*
X148490079Y-82698331D01*
X148296719Y-82778423D01*
X148122693Y-82894703D01*
X147974703Y-83042693D01*
X147858423Y-83216719D01*
X147778331Y-83410079D01*
X147778329Y-83410087D01*
X147737500Y-83615348D01*
X147737500Y-83824651D01*
X147778329Y-84029912D01*
X147778331Y-84029920D01*
X147858423Y-84223280D01*
X147974703Y-84397306D01*
X148122693Y-84545296D01*
X148296719Y-84661576D01*
X148393399Y-84701622D01*
X148490080Y-84741669D01*
X148671227Y-84777701D01*
X148695348Y-84782499D01*
X148695352Y-84782500D01*
X148695353Y-84782500D01*
X148904648Y-84782500D01*
X148904649Y-84782499D01*
X149109920Y-84741669D01*
X149303282Y-84661575D01*
X149477304Y-84545298D01*
X149625298Y-84397304D01*
X149722398Y-84251981D01*
X149776009Y-84207177D01*
X149845334Y-84198470D01*
X149908362Y-84228624D01*
X149945082Y-84288067D01*
X149949500Y-84320873D01*
X149949500Y-85659126D01*
X149929815Y-85726165D01*
X149877011Y-85771920D01*
X149807853Y-85781864D01*
X149744297Y-85752839D01*
X149722398Y-85728016D01*
X149625301Y-85582700D01*
X149625295Y-85582692D01*
X149477306Y-85434703D01*
X149303280Y-85318423D01*
X149109920Y-85238331D01*
X149109912Y-85238329D01*
X148904651Y-85197500D01*
X148904647Y-85197500D01*
X148695353Y-85197500D01*
X148695348Y-85197500D01*
X148490087Y-85238329D01*
X148490079Y-85238331D01*
X148296719Y-85318423D01*
X148122693Y-85434703D01*
X147974703Y-85582693D01*
X147858423Y-85756719D01*
X147778331Y-85950079D01*
X147778329Y-85950087D01*
X147737500Y-86155348D01*
X147737500Y-86364651D01*
X147778329Y-86569912D01*
X147778331Y-86569920D01*
X147858423Y-86763280D01*
X147974703Y-86937306D01*
X148122693Y-87085296D01*
X148296719Y-87201576D01*
X148362985Y-87229024D01*
X148490080Y-87281669D01*
X148695348Y-87322499D01*
X148695352Y-87322500D01*
X148695353Y-87322500D01*
X148904648Y-87322500D01*
X148904648Y-87322499D01*
X148995968Y-87304335D01*
X149065560Y-87310562D01*
X149120737Y-87353425D01*
X149143982Y-87419314D01*
X149127914Y-87487312D01*
X149107841Y-87513633D01*
X147363961Y-89257513D01*
X147302638Y-89290998D01*
X147295678Y-89292305D01*
X147142302Y-89316597D01*
X146977552Y-89370128D01*
X146823211Y-89448768D01*
X146743256Y-89506859D01*
X146683072Y-89550586D01*
X146683070Y-89550588D01*
X146683069Y-89550588D01*
X146560588Y-89673069D01*
X146560588Y-89673070D01*
X146560586Y-89673072D01*
X146516859Y-89733256D01*
X146458768Y-89813211D01*
X146380128Y-89967552D01*
X146326597Y-90132302D01*
X146299500Y-90303389D01*
X146299500Y-90476610D01*
X146314217Y-90569534D01*
X146326598Y-90647701D01*
X146380127Y-90812445D01*
X146458768Y-90966788D01*
X146560586Y-91106928D01*
X146683072Y-91229414D01*
X146823212Y-91331232D01*
X146977555Y-91409873D01*
X147142299Y-91463402D01*
X147313389Y-91490500D01*
X147313390Y-91490500D01*
X147486610Y-91490500D01*
X147486611Y-91490500D01*
X147657701Y-91463402D01*
X147822445Y-91409873D01*
X147976788Y-91331232D01*
X148116928Y-91229414D01*
X148239414Y-91106928D01*
X148341232Y-90966788D01*
X148419873Y-90812445D01*
X148473402Y-90647701D01*
X148500500Y-90476611D01*
X148500500Y-90303389D01*
X148473402Y-90132299D01*
X148419873Y-89967555D01*
X148416261Y-89960465D01*
X148390260Y-89909434D01*
X148377364Y-89840765D01*
X148403641Y-89776025D01*
X148413055Y-89765468D01*
X150940510Y-87238015D01*
X151012984Y-87112485D01*
X151033095Y-87037430D01*
X151050500Y-86972475D01*
X151050500Y-77627525D01*
X151050500Y-77227525D01*
X151050500Y-72220763D01*
X151012984Y-72080753D01*
X151011367Y-72077952D01*
X151005348Y-72067526D01*
X150940512Y-71955226D01*
X150940508Y-71955221D01*
X150044778Y-71059491D01*
X150044777Y-71059490D01*
X149919247Y-70987016D01*
X149919248Y-70987016D01*
X149884244Y-70977637D01*
X149779237Y-70949500D01*
X149779234Y-70949500D01*
X145229387Y-70949500D01*
X145162348Y-70929815D01*
X145141706Y-70913181D01*
X143431370Y-69202845D01*
X143431369Y-69202844D01*
X143305839Y-69130370D01*
X143305840Y-69130370D01*
X143270836Y-69120991D01*
X143165829Y-69092854D01*
X143165826Y-69092854D01*
X139886033Y-69092854D01*
X139818994Y-69073169D01*
X139798352Y-69056535D01*
X139277165Y-68535348D01*
X146317500Y-68535348D01*
X146317500Y-68744651D01*
X146358329Y-68949912D01*
X146358331Y-68949920D01*
X146438423Y-69143280D01*
X146554703Y-69317306D01*
X146702693Y-69465296D01*
X146876719Y-69581576D01*
X146940486Y-69607989D01*
X147070080Y-69661669D01*
X147223913Y-69692268D01*
X147275348Y-69702499D01*
X147275352Y-69702500D01*
X147275353Y-69702500D01*
X147484648Y-69702500D01*
X147484649Y-69702499D01*
X147689920Y-69661669D01*
X147883282Y-69581575D01*
X148057304Y-69465298D01*
X148205298Y-69317304D01*
X148321575Y-69143282D01*
X148401669Y-68949920D01*
X148442500Y-68744647D01*
X148442500Y-68535353D01*
X148401669Y-68330080D01*
X148329381Y-68155562D01*
X148321576Y-68136719D01*
X148205296Y-67962693D01*
X148057306Y-67814703D01*
X147883280Y-67698423D01*
X147689920Y-67618331D01*
X147689912Y-67618329D01*
X147484651Y-67577500D01*
X147484647Y-67577500D01*
X147275353Y-67577500D01*
X147275348Y-67577500D01*
X147070087Y-67618329D01*
X147070079Y-67618331D01*
X146876719Y-67698423D01*
X146702693Y-67814703D01*
X146554703Y-67962693D01*
X146438423Y-68136719D01*
X146358331Y-68330079D01*
X146358329Y-68330087D01*
X146317500Y-68535348D01*
X139277165Y-68535348D01*
X136827308Y-66085491D01*
X136827303Y-66085487D01*
X136701780Y-66013017D01*
X136701778Y-66013016D01*
X136700786Y-66012750D01*
X136699795Y-66012485D01*
X136699792Y-66012484D01*
X136606607Y-65987515D01*
X136561767Y-65975500D01*
X136561766Y-65975500D01*
X127554443Y-65975500D01*
X127487404Y-65955815D01*
X127441649Y-65903011D01*
X127431705Y-65833853D01*
X127460730Y-65770297D01*
X127466762Y-65763819D01*
X127548911Y-65681670D01*
X127548914Y-65681665D01*
X127548919Y-65681661D01*
X127688611Y-65499612D01*
X127803344Y-65300888D01*
X127891158Y-65088887D01*
X127950548Y-64867238D01*
X127980500Y-64639734D01*
X127980500Y-64410266D01*
X127950548Y-64182762D01*
X127891158Y-63961113D01*
X127803344Y-63749112D01*
X127688611Y-63550388D01*
X127688608Y-63550385D01*
X127688607Y-63550382D01*
X127548918Y-63368338D01*
X127548911Y-63368330D01*
X127386670Y-63206089D01*
X127386661Y-63206081D01*
X127204617Y-63066392D01*
X127005890Y-62951657D01*
X127005876Y-62951650D01*
X126793887Y-62863842D01*
X126572238Y-62804452D01*
X126534215Y-62799446D01*
X126344741Y-62774500D01*
X126344734Y-62774500D01*
X126115266Y-62774500D01*
X126115258Y-62774500D01*
X125898715Y-62803009D01*
X125887762Y-62804452D01*
X125794076Y-62829554D01*
X125666112Y-62863842D01*
X125454123Y-62951650D01*
X125454109Y-62951657D01*
X125255382Y-63066392D01*
X125073338Y-63206081D01*
X124911081Y-63368338D01*
X124771392Y-63550382D01*
X124656657Y-63749109D01*
X124656650Y-63749123D01*
X124581983Y-63929387D01*
X124568842Y-63961113D01*
X124509453Y-64182761D01*
X124509452Y-64182765D01*
X124479500Y-64410258D01*
X124479500Y-64639741D01*
X124504446Y-64829215D01*
X124509452Y-64867238D01*
X124509453Y-64867240D01*
X124568842Y-65088887D01*
X124656650Y-65300876D01*
X124656657Y-65300890D01*
X124771392Y-65499617D01*
X124911081Y-65681661D01*
X124911089Y-65681670D01*
X124993238Y-65763819D01*
X125026723Y-65825142D01*
X125021739Y-65894834D01*
X124979867Y-65950767D01*
X124914403Y-65975184D01*
X124905557Y-65975500D01*
X106901525Y-65975500D01*
X106763499Y-66012483D01*
X106763500Y-66012484D01*
X106761516Y-66013015D01*
X106761511Y-66013017D01*
X106635988Y-66085487D01*
X106635983Y-66085491D01*
X101573292Y-71148181D01*
X101511969Y-71181666D01*
X101485611Y-71184500D01*
X100255143Y-71184500D01*
X100255117Y-71184502D01*
X100230012Y-71187413D01*
X100230008Y-71187415D01*
X100127235Y-71232793D01*
X100047794Y-71312234D01*
X100002415Y-71415006D01*
X100002415Y-71415008D01*
X99999500Y-71440131D01*
X99999500Y-73529856D01*
X99999502Y-73529882D01*
X100002413Y-73554987D01*
X100002415Y-73554991D01*
X100047793Y-73657764D01*
X100047794Y-73657765D01*
X100127235Y-73737206D01*
X100230009Y-73782585D01*
X100255135Y-73785500D01*
X100362693Y-73785499D01*
X100429730Y-73805183D01*
X100450372Y-73821818D01*
X101162425Y-74533871D01*
X101103147Y-74549755D01*
X100986853Y-74616898D01*
X100891898Y-74711853D01*
X100824755Y-74828147D01*
X100808871Y-74887425D01*
X100077340Y-74155894D01*
X100017084Y-74238830D01*
X99909897Y-74449197D01*
X99836934Y-74673752D01*
X99800000Y-74906947D01*
X99800000Y-75143052D01*
X99836934Y-75376247D01*
X99909897Y-75600802D01*
X100017087Y-75811174D01*
X100077338Y-75894104D01*
X100077340Y-75894105D01*
X100808871Y-75162574D01*
X100824755Y-75221853D01*
X100891898Y-75338147D01*
X100986853Y-75433102D01*
X101103147Y-75500245D01*
X101162425Y-75516128D01*
X100430893Y-76247658D01*
X100513835Y-76307919D01*
X100517981Y-76310460D01*
X100517160Y-76311799D01*
X100562928Y-76355019D01*
X100579728Y-76422839D01*
X100557194Y-76488976D01*
X100528727Y-76517855D01*
X100452782Y-76573032D01*
X100308028Y-76717786D01*
X100187715Y-76883386D01*
X100094781Y-77065776D01*
X100031522Y-77260465D01*
X99999500Y-77462648D01*
X99999500Y-77667351D01*
X100031522Y-77869534D01*
X100094781Y-78064223D01*
X100187715Y-78246613D01*
X100308028Y-78412213D01*
X100452786Y-78556971D01*
X100607749Y-78669556D01*
X100618390Y-78677287D01*
X100709840Y-78723883D01*
X100711080Y-78724515D01*
X100761876Y-78772490D01*
X100778671Y-78840311D01*
X100756134Y-78906446D01*
X100711080Y-78945485D01*
X100618386Y-78992715D01*
X100452786Y-79113028D01*
X100308028Y-79257786D01*
X100187715Y-79423386D01*
X100094781Y-79605776D01*
X100031522Y-79800465D01*
X99999500Y-80002648D01*
X99999500Y-80207351D01*
X100031522Y-80409534D01*
X100094781Y-80604223D01*
X100187715Y-80786613D01*
X100308028Y-80952213D01*
X100452786Y-81096971D01*
X100607749Y-81209556D01*
X100618390Y-81217287D01*
X100709840Y-81263883D01*
X100711080Y-81264515D01*
X100761876Y-81312490D01*
X100778671Y-81380311D01*
X100756134Y-81446446D01*
X100711080Y-81485485D01*
X100618386Y-81532715D01*
X100452786Y-81653028D01*
X100308028Y-81797786D01*
X100187715Y-81963386D01*
X100094781Y-82145776D01*
X100031522Y-82340465D01*
X99999500Y-82542648D01*
X99999500Y-82747351D01*
X100031522Y-82949534D01*
X100094781Y-83144223D01*
X100187715Y-83326613D01*
X100308028Y-83492213D01*
X100452786Y-83636971D01*
X100607749Y-83749556D01*
X100618390Y-83757287D01*
X100708242Y-83803069D01*
X100711080Y-83804515D01*
X100761876Y-83852490D01*
X100778671Y-83920311D01*
X100756134Y-83986446D01*
X100711080Y-84025485D01*
X100618386Y-84072715D01*
X100452786Y-84193028D01*
X100308028Y-84337786D01*
X100187715Y-84503386D01*
X100094781Y-84685776D01*
X100031522Y-84880465D01*
X99999500Y-85082648D01*
X99999500Y-85287351D01*
X100031522Y-85489534D01*
X100094781Y-85684223D01*
X100187715Y-85866613D01*
X100308028Y-86032213D01*
X100452786Y-86176971D01*
X100607749Y-86289556D01*
X100618390Y-86297287D01*
X100709840Y-86343883D01*
X100711080Y-86344515D01*
X100761876Y-86392490D01*
X100778671Y-86460311D01*
X100756134Y-86526446D01*
X100711080Y-86565485D01*
X100618386Y-86612715D01*
X100452786Y-86733028D01*
X100308028Y-86877786D01*
X100187715Y-87043386D01*
X100094781Y-87225776D01*
X100031522Y-87420465D01*
X99999500Y-87622648D01*
X99999500Y-87827351D01*
X100031522Y-88029534D01*
X100094781Y-88224223D01*
X100187715Y-88406613D01*
X100308028Y-88572213D01*
X100452786Y-88716971D01*
X100607749Y-88829556D01*
X100618390Y-88837287D01*
X100709840Y-88883883D01*
X100711080Y-88884515D01*
X100761876Y-88932490D01*
X100778671Y-89000311D01*
X100756134Y-89066446D01*
X100711080Y-89105485D01*
X100618386Y-89152715D01*
X100452786Y-89273028D01*
X100308028Y-89417786D01*
X100187715Y-89583386D01*
X100094781Y-89765776D01*
X100031522Y-89960465D01*
X99999500Y-90162648D01*
X99999500Y-90367351D01*
X100031522Y-90569534D01*
X100094781Y-90764223D01*
X100119352Y-90812445D01*
X100181631Y-90934674D01*
X100187715Y-90946613D01*
X100308028Y-91112213D01*
X100452786Y-91256971D01*
X100555000Y-91331232D01*
X100618390Y-91377287D01*
X100682340Y-91409871D01*
X100711080Y-91424515D01*
X100761876Y-91472490D01*
X100778671Y-91540311D01*
X100756134Y-91606446D01*
X100711080Y-91645485D01*
X100618386Y-91692715D01*
X100452786Y-91813028D01*
X100308028Y-91957786D01*
X100187715Y-92123386D01*
X100094781Y-92305776D01*
X100031522Y-92500465D01*
X99999500Y-92702648D01*
X99999500Y-92907351D01*
X100031522Y-93109534D01*
X100094781Y-93304223D01*
X100114455Y-93342834D01*
X100168371Y-93448650D01*
X100187715Y-93486613D01*
X100308028Y-93652213D01*
X100452786Y-93796971D01*
X100563703Y-93877555D01*
X100618390Y-93917287D01*
X100709840Y-93963883D01*
X100711080Y-93964515D01*
X100761876Y-94012490D01*
X100778671Y-94080311D01*
X100756134Y-94146446D01*
X100711080Y-94185485D01*
X100618386Y-94232715D01*
X100452786Y-94353028D01*
X100308028Y-94497786D01*
X100187715Y-94663386D01*
X100094781Y-94845776D01*
X100031522Y-95040465D01*
X99999500Y-95242648D01*
X99999500Y-95447351D01*
X100031522Y-95649534D01*
X100094781Y-95844223D01*
X100187715Y-96026613D01*
X100308028Y-96192213D01*
X100452786Y-96336971D01*
X100607749Y-96449556D01*
X100618390Y-96457287D01*
X100709840Y-96503883D01*
X100711080Y-96504515D01*
X100761876Y-96552490D01*
X100778671Y-96620311D01*
X100756134Y-96686446D01*
X100711080Y-96725485D01*
X100618386Y-96772715D01*
X100452786Y-96893028D01*
X100308028Y-97037786D01*
X100187715Y-97203386D01*
X100094781Y-97385776D01*
X100031522Y-97580465D01*
X99999500Y-97782648D01*
X99999500Y-97987351D01*
X100031522Y-98189534D01*
X100094781Y-98384223D01*
X100187715Y-98566613D01*
X100308028Y-98732213D01*
X100452786Y-98876971D01*
X100586328Y-98973993D01*
X100618390Y-98997287D01*
X100709840Y-99043883D01*
X100711080Y-99044515D01*
X100761876Y-99092490D01*
X100778671Y-99160311D01*
X100756134Y-99226446D01*
X100711080Y-99265485D01*
X100618386Y-99312715D01*
X100452786Y-99433028D01*
X100308028Y-99577786D01*
X100187715Y-99743386D01*
X100094781Y-99925776D01*
X100031522Y-100120465D01*
X99999500Y-100322648D01*
X99999500Y-100527351D01*
X100031522Y-100729534D01*
X100094781Y-100924223D01*
X100129166Y-100991706D01*
X100177522Y-101086610D01*
X100187715Y-101106613D01*
X100308028Y-101272213D01*
X100452786Y-101416971D01*
X100607749Y-101529556D01*
X100618390Y-101537287D01*
X100709840Y-101583883D01*
X100711080Y-101584515D01*
X100761876Y-101632490D01*
X100778671Y-101700311D01*
X100756134Y-101766446D01*
X100711080Y-101805485D01*
X100618386Y-101852715D01*
X100452786Y-101973028D01*
X100308028Y-102117786D01*
X100187715Y-102283386D01*
X100094781Y-102465776D01*
X100031522Y-102660465D01*
X99999500Y-102862648D01*
X99999500Y-103067351D01*
X100031522Y-103269534D01*
X100094781Y-103464223D01*
X100154032Y-103580507D01*
X100177522Y-103626610D01*
X100187715Y-103646613D01*
X100308028Y-103812213D01*
X100452786Y-103956971D01*
X100594878Y-104060205D01*
X100618390Y-104077287D01*
X100703422Y-104120613D01*
X100711080Y-104124515D01*
X100761876Y-104172490D01*
X100778671Y-104240311D01*
X100756134Y-104306446D01*
X100711080Y-104345485D01*
X100618386Y-104392715D01*
X100452786Y-104513028D01*
X100308028Y-104657786D01*
X100187715Y-104823386D01*
X100094781Y-105005776D01*
X100031522Y-105200465D01*
X99999500Y-105402648D01*
X99999500Y-105607351D01*
X100031522Y-105809534D01*
X100094781Y-106004223D01*
X100158691Y-106129653D01*
X100182708Y-106176788D01*
X100187715Y-106186613D01*
X100308028Y-106352213D01*
X100452786Y-106496971D01*
X100594154Y-106599679D01*
X100618390Y-106617287D01*
X100695915Y-106656788D01*
X100711080Y-106664515D01*
X100761876Y-106712490D01*
X100778671Y-106780311D01*
X100756134Y-106846446D01*
X100711080Y-106885485D01*
X100618386Y-106932715D01*
X100452786Y-107053028D01*
X100308028Y-107197786D01*
X100187715Y-107363386D01*
X100094781Y-107545776D01*
X100031522Y-107740465D01*
X99999500Y-107942648D01*
X99999500Y-108147351D01*
X100031522Y-108349534D01*
X100094781Y-108544223D01*
X100158691Y-108669653D01*
X100177522Y-108706610D01*
X100187715Y-108726613D01*
X100308028Y-108892213D01*
X100452786Y-109036971D01*
X100603826Y-109146706D01*
X100618390Y-109157287D01*
X100717977Y-109208029D01*
X100800776Y-109250218D01*
X100800778Y-109250218D01*
X100800781Y-109250220D01*
X100905137Y-109284127D01*
X100995465Y-109313477D01*
X101096557Y-109329488D01*
X101197648Y-109345500D01*
X101197649Y-109345500D01*
X101402351Y-109345500D01*
X101402352Y-109345500D01*
X101604534Y-109313477D01*
X101799219Y-109250220D01*
X101981610Y-109157287D01*
X102074590Y-109089732D01*
X102147213Y-109036971D01*
X102147215Y-109036968D01*
X102147219Y-109036966D01*
X102291966Y-108892219D01*
X102291968Y-108892215D01*
X102291971Y-108892213D01*
X102400731Y-108742515D01*
X102412287Y-108726610D01*
X102505220Y-108544219D01*
X102568477Y-108349534D01*
X102600500Y-108147352D01*
X102600500Y-107942648D01*
X102584323Y-107840510D01*
X102568477Y-107740465D01*
X102522800Y-107599886D01*
X102505220Y-107545781D01*
X102505218Y-107545778D01*
X102505218Y-107545776D01*
X102471503Y-107479607D01*
X102412287Y-107363390D01*
X102386230Y-107327525D01*
X102291971Y-107197786D01*
X102147213Y-107053028D01*
X101981614Y-106932715D01*
X101941910Y-106912485D01*
X101888917Y-106885483D01*
X101838123Y-106837511D01*
X101821328Y-106769690D01*
X101843865Y-106703555D01*
X101888917Y-106664516D01*
X101981610Y-106617287D01*
X102005846Y-106599679D01*
X102147213Y-106496971D01*
X102147215Y-106496968D01*
X102147219Y-106496966D01*
X102291966Y-106352219D01*
X102291968Y-106352215D01*
X102291971Y-106352213D01*
X102344732Y-106279590D01*
X102412287Y-106186610D01*
X102505220Y-106004219D01*
X102568477Y-105809534D01*
X102600500Y-105607352D01*
X102600500Y-105402648D01*
X102568477Y-105200466D01*
X102546485Y-105132785D01*
X102544491Y-105062945D01*
X102576734Y-105006789D01*
X104740510Y-102843014D01*
X104812984Y-102717485D01*
X104850500Y-102577474D01*
X104850500Y-102432526D01*
X104850500Y-90229387D01*
X104870185Y-90162348D01*
X104886819Y-90141706D01*
X106537819Y-88490706D01*
X106599142Y-88457221D01*
X106668834Y-88462205D01*
X106724767Y-88504077D01*
X106749184Y-88569541D01*
X106749500Y-88578387D01*
X106749500Y-104120613D01*
X106729815Y-104187652D01*
X106713181Y-104208294D01*
X103859491Y-107061983D01*
X103859490Y-107061985D01*
X103811976Y-107144284D01*
X103806712Y-107153401D01*
X103806711Y-107153402D01*
X103787017Y-107187512D01*
X103787016Y-107187513D01*
X103768258Y-107257520D01*
X103749500Y-107327525D01*
X103749500Y-107327527D01*
X103749500Y-113170613D01*
X103729815Y-113237652D01*
X103713181Y-113258294D01*
X103308991Y-113662485D01*
X102808294Y-114163181D01*
X102746971Y-114196666D01*
X102720613Y-114199500D01*
X99929387Y-114199500D01*
X99862348Y-114179815D01*
X99841706Y-114163181D01*
X99186819Y-113508294D01*
X99153334Y-113446971D01*
X99150500Y-113420613D01*
X99150500Y-111360258D01*
X99969500Y-111360258D01*
X99969500Y-111589741D01*
X99994446Y-111779215D01*
X99999452Y-111817238D01*
X99999453Y-111817240D01*
X100058842Y-112038887D01*
X100146650Y-112250876D01*
X100146657Y-112250890D01*
X100261392Y-112449617D01*
X100401081Y-112631661D01*
X100401089Y-112631670D01*
X100563330Y-112793911D01*
X100563338Y-112793918D01*
X100745382Y-112933607D01*
X100745385Y-112933608D01*
X100745388Y-112933611D01*
X100944112Y-113048344D01*
X100944117Y-113048346D01*
X100944123Y-113048349D01*
X101035480Y-113086190D01*
X101156113Y-113136158D01*
X101377762Y-113195548D01*
X101605266Y-113225500D01*
X101605273Y-113225500D01*
X101834727Y-113225500D01*
X101834734Y-113225500D01*
X102062238Y-113195548D01*
X102283887Y-113136158D01*
X102495888Y-113048344D01*
X102694612Y-112933611D01*
X102876661Y-112793919D01*
X102876665Y-112793914D01*
X102876670Y-112793911D01*
X103038911Y-112631670D01*
X103038914Y-112631665D01*
X103038919Y-112631661D01*
X103178611Y-112449612D01*
X103293344Y-112250888D01*
X103381158Y-112038887D01*
X103440548Y-111817238D01*
X103470500Y-111589734D01*
X103470500Y-111360266D01*
X103440548Y-111132762D01*
X103381158Y-110911113D01*
X103293344Y-110699112D01*
X103178611Y-110500388D01*
X103178608Y-110500385D01*
X103178607Y-110500382D01*
X103038918Y-110318338D01*
X103038911Y-110318330D01*
X102876670Y-110156089D01*
X102876661Y-110156081D01*
X102694617Y-110016392D01*
X102495890Y-109901657D01*
X102495876Y-109901650D01*
X102283887Y-109813842D01*
X102062238Y-109754452D01*
X102024215Y-109749446D01*
X101834741Y-109724500D01*
X101834734Y-109724500D01*
X101605266Y-109724500D01*
X101605258Y-109724500D01*
X101388715Y-109753009D01*
X101377762Y-109754452D01*
X101284076Y-109779554D01*
X101156112Y-109813842D01*
X100944123Y-109901650D01*
X100944109Y-109901657D01*
X100745382Y-110016392D01*
X100563338Y-110156081D01*
X100401081Y-110318338D01*
X100261392Y-110500382D01*
X100146657Y-110699109D01*
X100146650Y-110699123D01*
X100058842Y-110911112D01*
X99999453Y-111132759D01*
X99999451Y-111132770D01*
X99969500Y-111360258D01*
X99150500Y-111360258D01*
X99150500Y-64410258D01*
X99969500Y-64410258D01*
X99969500Y-64639741D01*
X99994446Y-64829215D01*
X99999452Y-64867238D01*
X99999453Y-64867240D01*
X100058842Y-65088887D01*
X100146650Y-65300876D01*
X100146657Y-65300890D01*
X100261392Y-65499617D01*
X100401081Y-65681661D01*
X100401089Y-65681670D01*
X100563330Y-65843911D01*
X100563338Y-65843918D01*
X100745382Y-65983607D01*
X100745385Y-65983608D01*
X100745388Y-65983611D01*
X100944112Y-66098344D01*
X100944117Y-66098346D01*
X100944123Y-66098349D01*
X101014561Y-66127525D01*
X101156113Y-66186158D01*
X101377762Y-66245548D01*
X101605266Y-66275500D01*
X101605273Y-66275500D01*
X101834727Y-66275500D01*
X101834734Y-66275500D01*
X102062238Y-66245548D01*
X102283887Y-66186158D01*
X102495888Y-66098344D01*
X102694612Y-65983611D01*
X102876661Y-65843919D01*
X102876665Y-65843914D01*
X102876670Y-65843911D01*
X103038911Y-65681670D01*
X103038914Y-65681665D01*
X103038919Y-65681661D01*
X103178611Y-65499612D01*
X103293344Y-65300888D01*
X103381158Y-65088887D01*
X103440548Y-64867238D01*
X103470500Y-64639734D01*
X103470500Y-64410266D01*
X103440548Y-64182762D01*
X103381158Y-63961113D01*
X103293344Y-63749112D01*
X103178611Y-63550388D01*
X103178608Y-63550385D01*
X103178607Y-63550382D01*
X103038918Y-63368338D01*
X103038911Y-63368330D01*
X102876670Y-63206089D01*
X102876661Y-63206081D01*
X102694617Y-63066392D01*
X102495890Y-62951657D01*
X102495876Y-62951650D01*
X102283887Y-62863842D01*
X102062238Y-62804452D01*
X102024215Y-62799446D01*
X101834741Y-62774500D01*
X101834734Y-62774500D01*
X101605266Y-62774500D01*
X101605258Y-62774500D01*
X101388715Y-62803009D01*
X101377762Y-62804452D01*
X101284076Y-62829554D01*
X101156112Y-62863842D01*
X100944123Y-62951650D01*
X100944109Y-62951657D01*
X100745382Y-63066392D01*
X100563338Y-63206081D01*
X100401081Y-63368338D01*
X100261392Y-63550382D01*
X100146657Y-63749109D01*
X100146650Y-63749123D01*
X100071983Y-63929387D01*
X100058842Y-63961113D01*
X99999453Y-64182761D01*
X99999452Y-64182765D01*
X99969500Y-64410258D01*
X99150500Y-64410258D01*
X99150500Y-63929387D01*
X99170185Y-63862348D01*
X99186819Y-63841706D01*
X100541706Y-62486819D01*
X100603029Y-62453334D01*
X100629387Y-62450500D01*
X121372472Y-62450500D01*
X121372474Y-62450500D01*
X121372475Y-62450500D01*
X121512485Y-62412984D01*
X121638015Y-62340510D01*
X122420510Y-61558015D01*
X122492984Y-61432485D01*
X122530500Y-61292475D01*
X122530500Y-54874038D01*
X126159500Y-54874038D01*
X126159500Y-55125961D01*
X126198910Y-55374785D01*
X126276760Y-55614383D01*
X126391132Y-55838848D01*
X126539201Y-56042649D01*
X126539205Y-56042654D01*
X126717345Y-56220794D01*
X126717350Y-56220798D01*
X126857116Y-56322343D01*
X126921155Y-56368870D01*
X127064184Y-56441747D01*
X127145616Y-56483239D01*
X127145618Y-56483239D01*
X127145621Y-56483241D01*
X127385215Y-56561090D01*
X127634038Y-56600500D01*
X127634039Y-56600500D01*
X127885961Y-56600500D01*
X127885962Y-56600500D01*
X128134785Y-56561090D01*
X128370295Y-56484567D01*
X128440135Y-56482573D01*
X128496293Y-56514818D01*
X130381985Y-58400510D01*
X130507515Y-58472984D01*
X130647525Y-58510500D01*
X134030613Y-58510500D01*
X134097652Y-58530185D01*
X134118294Y-58546819D01*
X142671985Y-67100510D01*
X142797515Y-67172984D01*
X142937525Y-67210500D01*
X142937526Y-67210500D01*
X143082474Y-67210500D01*
X149120613Y-67210500D01*
X149150053Y-67219144D01*
X149180040Y-67225668D01*
X149185055Y-67229422D01*
X149187652Y-67230185D01*
X149208294Y-67246819D01*
X149333181Y-67371706D01*
X149366666Y-67433029D01*
X149369500Y-67459387D01*
X149369500Y-67663694D01*
X149349815Y-67730733D01*
X149314391Y-67766796D01*
X149242696Y-67814701D01*
X149242692Y-67814704D01*
X149094703Y-67962693D01*
X148978423Y-68136719D01*
X148898331Y-68330079D01*
X148898329Y-68330087D01*
X148857500Y-68535348D01*
X148857500Y-68744651D01*
X148898329Y-68949912D01*
X148898331Y-68949920D01*
X148978423Y-69143280D01*
X149094703Y-69317306D01*
X149242693Y-69465296D01*
X149416719Y-69581576D01*
X149480486Y-69607989D01*
X149610080Y-69661669D01*
X149763913Y-69692268D01*
X149815348Y-69702499D01*
X149815352Y-69702500D01*
X149815353Y-69702500D01*
X150024648Y-69702500D01*
X150024649Y-69702499D01*
X150229920Y-69661669D01*
X150423282Y-69581575D01*
X150597304Y-69465298D01*
X150745298Y-69317304D01*
X150861575Y-69143282D01*
X150941669Y-68949920D01*
X150982500Y-68744647D01*
X150982500Y-68535353D01*
X150941669Y-68330080D01*
X150869381Y-68155562D01*
X150861576Y-68136719D01*
X150745296Y-67962693D01*
X150597307Y-67814704D01*
X150597303Y-67814701D01*
X150525609Y-67766796D01*
X150480804Y-67713183D01*
X150470500Y-67663694D01*
X150470500Y-67107527D01*
X150470500Y-67107525D01*
X150432984Y-66967515D01*
X150395727Y-66902984D01*
X150360510Y-66841985D01*
X149738015Y-66219490D01*
X149612485Y-66147016D01*
X149539744Y-66127525D01*
X149539743Y-66127524D01*
X149472475Y-66109500D01*
X143289387Y-66109500D01*
X143222348Y-66089815D01*
X143201706Y-66073181D01*
X134648016Y-57519491D01*
X134648015Y-57519490D01*
X134522485Y-57447016D01*
X134522480Y-57447014D01*
X134454388Y-57428768D01*
X134454388Y-57428769D01*
X134418431Y-57419134D01*
X134382475Y-57409500D01*
X134382474Y-57409500D01*
X130999387Y-57409500D01*
X130932348Y-57389815D01*
X130911706Y-57373181D01*
X129274818Y-55736293D01*
X129241333Y-55674970D01*
X129244567Y-55610295D01*
X129321090Y-55374785D01*
X129360500Y-55125962D01*
X129360500Y-54874038D01*
X131239500Y-54874038D01*
X131239500Y-55125961D01*
X131278910Y-55374785D01*
X131356760Y-55614383D01*
X131471132Y-55838848D01*
X131619201Y-56042649D01*
X131619205Y-56042654D01*
X131797345Y-56220794D01*
X131797350Y-56220798D01*
X131937116Y-56322343D01*
X132001155Y-56368870D01*
X132144184Y-56441747D01*
X132225616Y-56483239D01*
X132225618Y-56483239D01*
X132225621Y-56483241D01*
X132465215Y-56561090D01*
X132714038Y-56600500D01*
X132714039Y-56600500D01*
X132965961Y-56600500D01*
X132965962Y-56600500D01*
X133214785Y-56561090D01*
X133454379Y-56483241D01*
X133678845Y-56368870D01*
X133882656Y-56220793D01*
X134024784Y-56078664D01*
X134086103Y-56045182D01*
X134155795Y-56050166D01*
X134200140Y-56078665D01*
X143711986Y-65590510D01*
X143814160Y-65649500D01*
X143837515Y-65662984D01*
X143977525Y-65700500D01*
X143977526Y-65700500D01*
X144122474Y-65700500D01*
X150940613Y-65700500D01*
X151007652Y-65720185D01*
X151028294Y-65736819D01*
X151873181Y-66581706D01*
X151906666Y-66643029D01*
X151909500Y-66669387D01*
X151909500Y-67663694D01*
X151889815Y-67730733D01*
X151854391Y-67766796D01*
X151782696Y-67814701D01*
X151782692Y-67814704D01*
X151634703Y-67962693D01*
X151518423Y-68136719D01*
X151438331Y-68330079D01*
X151438329Y-68330087D01*
X151397500Y-68535348D01*
X151397500Y-68744651D01*
X151438329Y-68949912D01*
X151438331Y-68949920D01*
X151518423Y-69143280D01*
X151634703Y-69317306D01*
X151782693Y-69465296D01*
X151956719Y-69581576D01*
X152020486Y-69607989D01*
X152150080Y-69661669D01*
X152303913Y-69692268D01*
X152355348Y-69702499D01*
X152355352Y-69702500D01*
X152355353Y-69702500D01*
X152564648Y-69702500D01*
X152564649Y-69702499D01*
X152769920Y-69661669D01*
X152963282Y-69581575D01*
X153137304Y-69465298D01*
X153285298Y-69317304D01*
X153401575Y-69143282D01*
X153481669Y-68949920D01*
X153522500Y-68744647D01*
X153522500Y-68535353D01*
X153481669Y-68330080D01*
X153409381Y-68155562D01*
X153401576Y-68136719D01*
X153285296Y-67962693D01*
X153137307Y-67814704D01*
X153137303Y-67814701D01*
X153065609Y-67766796D01*
X153020804Y-67713183D01*
X153010500Y-67663694D01*
X153010500Y-66317527D01*
X153010500Y-66317525D01*
X152972984Y-66177515D01*
X152900510Y-66051985D01*
X151558015Y-64709490D01*
X151432485Y-64637016D01*
X151432486Y-64637016D01*
X151397482Y-64627637D01*
X151292475Y-64599500D01*
X151292472Y-64599500D01*
X144329386Y-64599500D01*
X144262347Y-64579815D01*
X144241705Y-64563181D01*
X134635372Y-54956847D01*
X134552563Y-54874038D01*
X136319500Y-54874038D01*
X136319500Y-55125961D01*
X136358910Y-55374785D01*
X136436760Y-55614383D01*
X136551132Y-55838848D01*
X136699201Y-56042649D01*
X136699205Y-56042654D01*
X136877345Y-56220794D01*
X136877350Y-56220798D01*
X137017116Y-56322343D01*
X137081155Y-56368870D01*
X137224184Y-56441747D01*
X137305616Y-56483239D01*
X137305618Y-56483239D01*
X137305621Y-56483241D01*
X137545215Y-56561090D01*
X137794038Y-56600500D01*
X137794039Y-56600500D01*
X138045961Y-56600500D01*
X138045962Y-56600500D01*
X138294785Y-56561090D01*
X138530295Y-56484567D01*
X138600135Y-56482573D01*
X138656293Y-56514818D01*
X146321986Y-64180510D01*
X146325887Y-64182762D01*
X146325890Y-64182764D01*
X146325892Y-64182765D01*
X146447511Y-64252982D01*
X146447512Y-64252982D01*
X146447515Y-64252984D01*
X146587525Y-64290500D01*
X146587526Y-64290500D01*
X146732475Y-64290500D01*
X152660613Y-64290500D01*
X152727652Y-64310185D01*
X152748294Y-64326819D01*
X154413181Y-65991706D01*
X154446666Y-66053029D01*
X154449500Y-66079387D01*
X154449500Y-67663694D01*
X154429815Y-67730733D01*
X154394391Y-67766796D01*
X154322696Y-67814701D01*
X154322692Y-67814704D01*
X154174703Y-67962693D01*
X154058423Y-68136719D01*
X153978331Y-68330079D01*
X153978329Y-68330087D01*
X153937500Y-68535348D01*
X153937500Y-68744651D01*
X153978329Y-68949912D01*
X153978331Y-68949920D01*
X154058423Y-69143280D01*
X154174703Y-69317306D01*
X154322693Y-69465296D01*
X154496719Y-69581576D01*
X154560486Y-69607989D01*
X154690080Y-69661669D01*
X154843913Y-69692268D01*
X154895348Y-69702499D01*
X154895352Y-69702500D01*
X154895353Y-69702500D01*
X155104648Y-69702500D01*
X155104649Y-69702499D01*
X155309920Y-69661669D01*
X155467844Y-69596253D01*
X155537313Y-69588785D01*
X155599793Y-69620060D01*
X155635445Y-69680149D01*
X155632952Y-69749974D01*
X155602978Y-69798496D01*
X153559489Y-71841985D01*
X153510399Y-71927015D01*
X153510398Y-71927016D01*
X153487017Y-71967512D01*
X153487016Y-71967513D01*
X153472931Y-72020080D01*
X153449500Y-72107525D01*
X153449500Y-72107527D01*
X153449500Y-90086291D01*
X153429815Y-90153330D01*
X153377011Y-90199085D01*
X153344898Y-90208764D01*
X153232302Y-90226597D01*
X153067552Y-90280128D01*
X152913211Y-90358768D01*
X152833256Y-90416859D01*
X152773072Y-90460586D01*
X152773070Y-90460588D01*
X152773069Y-90460588D01*
X152650588Y-90583069D01*
X152650588Y-90583070D01*
X152650586Y-90583072D01*
X152606859Y-90643256D01*
X152548768Y-90723211D01*
X152470128Y-90877552D01*
X152470127Y-90877554D01*
X152470127Y-90877555D01*
X152447689Y-90946613D01*
X152416598Y-91042299D01*
X152413005Y-91064982D01*
X152383073Y-91128115D01*
X152378213Y-91133261D01*
X150324469Y-93187005D01*
X150263146Y-93220490D01*
X150217390Y-93221797D01*
X150137443Y-93209134D01*
X150076611Y-93199500D01*
X149903389Y-93199500D01*
X149863728Y-93205781D01*
X149732302Y-93226597D01*
X149567552Y-93280128D01*
X149413211Y-93358768D01*
X149333256Y-93416859D01*
X149273072Y-93460586D01*
X149273070Y-93460588D01*
X149273069Y-93460588D01*
X149150588Y-93583069D01*
X149150588Y-93583070D01*
X149150586Y-93583072D01*
X149106859Y-93643256D01*
X149048768Y-93723211D01*
X148970128Y-93877552D01*
X148916597Y-94042302D01*
X148889500Y-94213389D01*
X148889500Y-94386610D01*
X148907107Y-94497781D01*
X148916598Y-94557701D01*
X148970127Y-94722445D01*
X149048768Y-94876788D01*
X149150586Y-95016928D01*
X149273072Y-95139414D01*
X149413212Y-95241232D01*
X149567555Y-95319873D01*
X149732299Y-95373402D01*
X149903389Y-95400500D01*
X149903390Y-95400500D01*
X150076610Y-95400500D01*
X150076611Y-95400500D01*
X150247701Y-95373402D01*
X150412445Y-95319873D01*
X150566788Y-95241232D01*
X150706928Y-95139414D01*
X150829414Y-95016928D01*
X150931232Y-94876788D01*
X151009873Y-94722445D01*
X151063402Y-94557701D01*
X151090500Y-94386611D01*
X151090500Y-94213389D01*
X151068202Y-94072605D01*
X151077157Y-94003314D01*
X151102991Y-93965531D01*
X152792590Y-92275932D01*
X152853911Y-92242449D01*
X152923603Y-92247433D01*
X152936559Y-92253127D01*
X153067555Y-92319873D01*
X153232299Y-92373402D01*
X153403389Y-92400500D01*
X153403390Y-92400500D01*
X153576610Y-92400500D01*
X153576611Y-92400500D01*
X153747701Y-92373402D01*
X153912445Y-92319873D01*
X154066788Y-92241232D01*
X154206928Y-92139414D01*
X154329414Y-92016928D01*
X154431232Y-91876788D01*
X154509873Y-91722445D01*
X154563402Y-91557701D01*
X154590500Y-91386611D01*
X154590500Y-91213389D01*
X154563402Y-91042299D01*
X154541273Y-90974197D01*
X154539279Y-90904357D01*
X154539390Y-90903936D01*
X154550500Y-90862475D01*
X154550500Y-72753131D01*
X157897500Y-72753131D01*
X157897500Y-74366856D01*
X157897502Y-74366882D01*
X157900413Y-74391987D01*
X157900415Y-74391991D01*
X157945793Y-74494764D01*
X157945794Y-74494765D01*
X158025235Y-74574206D01*
X158128009Y-74619585D01*
X158153135Y-74622500D01*
X159766864Y-74622499D01*
X159766879Y-74622497D01*
X159766882Y-74622497D01*
X159791987Y-74619586D01*
X159791988Y-74619585D01*
X159791991Y-74619585D01*
X159894765Y-74574206D01*
X159974206Y-74494765D01*
X160019585Y-74391991D01*
X160022500Y-74366865D01*
X160022500Y-74234500D01*
X160042185Y-74167461D01*
X160094989Y-74121706D01*
X160146500Y-74110500D01*
X161612472Y-74110500D01*
X161612474Y-74110500D01*
X161612475Y-74110500D01*
X161752485Y-74072984D01*
X161765448Y-74065500D01*
X161878015Y-74000510D01*
X163060510Y-72818014D01*
X163132984Y-72692485D01*
X163161111Y-72587515D01*
X163170500Y-72552475D01*
X163170500Y-69616304D01*
X163190185Y-69549265D01*
X163225611Y-69513201D01*
X163247435Y-69498619D01*
X163297304Y-69465298D01*
X163445298Y-69317304D01*
X163561575Y-69143282D01*
X163641669Y-68949920D01*
X163682500Y-68744647D01*
X163682500Y-68535353D01*
X163641669Y-68330080D01*
X163569381Y-68155562D01*
X163561576Y-68136719D01*
X163445296Y-67962693D01*
X163297306Y-67814703D01*
X163123280Y-67698423D01*
X162929920Y-67618331D01*
X162929912Y-67618329D01*
X162724651Y-67577500D01*
X162724647Y-67577500D01*
X162515353Y-67577500D01*
X162515348Y-67577500D01*
X162310087Y-67618329D01*
X162310079Y-67618331D01*
X162116719Y-67698423D01*
X161942693Y-67814703D01*
X161794703Y-67962693D01*
X161678423Y-68136719D01*
X161598331Y-68330079D01*
X161598329Y-68330087D01*
X161557500Y-68535348D01*
X161557500Y-68744651D01*
X161598329Y-68949912D01*
X161598331Y-68949920D01*
X161678423Y-69143280D01*
X161794703Y-69317306D01*
X161942692Y-69465295D01*
X161942697Y-69465299D01*
X162014389Y-69513201D01*
X162059195Y-69566813D01*
X162069500Y-69616304D01*
X162069500Y-72200613D01*
X162049815Y-72267652D01*
X162033181Y-72288294D01*
X161348294Y-72973181D01*
X161286971Y-73006666D01*
X161260613Y-73009500D01*
X160146499Y-73009500D01*
X160079460Y-72989815D01*
X160033705Y-72937011D01*
X160022499Y-72885500D01*
X160022499Y-72753143D01*
X160022499Y-72753136D01*
X160022497Y-72753117D01*
X160019586Y-72728012D01*
X160019585Y-72728010D01*
X160019585Y-72728009D01*
X159974206Y-72625235D01*
X159894765Y-72545794D01*
X159894763Y-72545793D01*
X159791992Y-72500415D01*
X159766865Y-72497500D01*
X158153143Y-72497500D01*
X158153117Y-72497502D01*
X158128012Y-72500413D01*
X158128008Y-72500415D01*
X158025235Y-72545793D01*
X157945794Y-72625234D01*
X157900415Y-72728006D01*
X157900415Y-72728008D01*
X157897500Y-72753131D01*
X154550500Y-72753131D01*
X154550500Y-72459386D01*
X154570185Y-72392347D01*
X154586814Y-72371710D01*
X157238912Y-69719611D01*
X157300233Y-69686128D01*
X157350779Y-69685677D01*
X157420134Y-69699472D01*
X157435352Y-69702500D01*
X157435353Y-69702500D01*
X157644648Y-69702500D01*
X157644649Y-69702499D01*
X157849920Y-69661669D01*
X158043282Y-69581575D01*
X158217304Y-69465298D01*
X158365298Y-69317304D01*
X158481575Y-69143282D01*
X158561669Y-68949920D01*
X158602500Y-68744647D01*
X158602500Y-68535353D01*
X158602499Y-68535348D01*
X159017500Y-68535348D01*
X159017500Y-68744651D01*
X159058329Y-68949912D01*
X159058331Y-68949920D01*
X159138423Y-69143280D01*
X159254703Y-69317306D01*
X159402693Y-69465296D01*
X159576719Y-69581576D01*
X159640486Y-69607989D01*
X159770080Y-69661669D01*
X159923913Y-69692268D01*
X159975348Y-69702499D01*
X159975352Y-69702500D01*
X159975353Y-69702500D01*
X160184648Y-69702500D01*
X160184649Y-69702499D01*
X160389920Y-69661669D01*
X160583282Y-69581575D01*
X160757304Y-69465298D01*
X160905298Y-69317304D01*
X161021575Y-69143282D01*
X161101669Y-68949920D01*
X161142500Y-68744647D01*
X161142500Y-68535353D01*
X161101669Y-68330080D01*
X161029381Y-68155562D01*
X161021576Y-68136719D01*
X160905296Y-67962693D01*
X160757306Y-67814703D01*
X160583280Y-67698423D01*
X160389920Y-67618331D01*
X160389912Y-67618329D01*
X160184651Y-67577500D01*
X160184647Y-67577500D01*
X159975353Y-67577500D01*
X159975348Y-67577500D01*
X159770087Y-67618329D01*
X159770079Y-67618331D01*
X159576719Y-67698423D01*
X159402693Y-67814703D01*
X159254703Y-67962693D01*
X159138423Y-68136719D01*
X159058331Y-68330079D01*
X159058329Y-68330087D01*
X159017500Y-68535348D01*
X158602499Y-68535348D01*
X158561669Y-68330080D01*
X158489381Y-68155562D01*
X158481576Y-68136719D01*
X158365296Y-67962693D01*
X158217306Y-67814703D01*
X158043280Y-67698423D01*
X157849920Y-67618331D01*
X157849912Y-67618329D01*
X157644651Y-67577500D01*
X157644647Y-67577500D01*
X157435353Y-67577500D01*
X157435348Y-67577500D01*
X157230087Y-67618329D01*
X157230079Y-67618331D01*
X157036719Y-67698423D01*
X156862693Y-67814703D01*
X156714703Y-67962693D01*
X156598423Y-68136719D01*
X156518331Y-68330079D01*
X156518329Y-68330087D01*
X156477500Y-68535348D01*
X156477500Y-68744651D01*
X156494321Y-68829216D01*
X156488094Y-68898808D01*
X156460385Y-68941088D01*
X156158496Y-69242977D01*
X156097173Y-69276462D01*
X156027481Y-69271478D01*
X155971548Y-69229606D01*
X155947131Y-69164142D01*
X155956254Y-69107843D01*
X155962463Y-69092854D01*
X156021669Y-68949920D01*
X156062500Y-68744647D01*
X156062500Y-68535353D01*
X156021669Y-68330080D01*
X155949381Y-68155562D01*
X155941576Y-68136719D01*
X155825296Y-67962693D01*
X155677307Y-67814704D01*
X155677303Y-67814701D01*
X155605609Y-67766796D01*
X155560804Y-67713183D01*
X155550500Y-67663694D01*
X155550500Y-65727527D01*
X155550500Y-65727525D01*
X155512984Y-65587515D01*
X155440510Y-65461985D01*
X153278015Y-63299490D01*
X153152485Y-63227016D01*
X153152486Y-63227016D01*
X153117482Y-63217637D01*
X153012475Y-63189500D01*
X153012472Y-63189500D01*
X146939386Y-63189500D01*
X146872347Y-63169815D01*
X146851705Y-63153181D01*
X140175531Y-56477006D01*
X139434818Y-55736293D01*
X139401333Y-55674970D01*
X139404567Y-55610295D01*
X139481090Y-55374785D01*
X139520500Y-55125962D01*
X139520500Y-54882014D01*
X141200000Y-54882014D01*
X141200000Y-55117985D01*
X141230799Y-55351914D01*
X141291870Y-55579837D01*
X141382160Y-55797819D01*
X141382165Y-55797828D01*
X141500144Y-56002171D01*
X141500145Y-56002172D01*
X141562721Y-56083723D01*
X142398958Y-55247487D01*
X142423978Y-55307890D01*
X142495112Y-55414351D01*
X142585649Y-55504888D01*
X142692110Y-55576022D01*
X142752511Y-55601041D01*
X141916275Y-56437277D01*
X141997827Y-56499854D01*
X141997828Y-56499855D01*
X142202171Y-56617834D01*
X142202180Y-56617839D01*
X142420163Y-56708129D01*
X142420161Y-56708129D01*
X142648085Y-56769200D01*
X142882014Y-56799999D01*
X142882029Y-56800000D01*
X143117971Y-56800000D01*
X143117985Y-56799999D01*
X143351914Y-56769200D01*
X143579837Y-56708129D01*
X143797819Y-56617839D01*
X143797828Y-56617834D01*
X144002181Y-56499850D01*
X144083723Y-56437279D01*
X144083723Y-56437276D01*
X143247487Y-55601041D01*
X143307890Y-55576022D01*
X143414351Y-55504888D01*
X143504888Y-55414351D01*
X143576022Y-55307890D01*
X143601041Y-55247488D01*
X144437276Y-56083723D01*
X144437279Y-56083723D01*
X144499850Y-56002181D01*
X144617834Y-55797828D01*
X144617839Y-55797819D01*
X144708129Y-55579837D01*
X144769200Y-55351914D01*
X144799999Y-55117985D01*
X144800000Y-55117971D01*
X144800000Y-54882028D01*
X144799999Y-54882014D01*
X144769200Y-54648085D01*
X144708129Y-54420162D01*
X144617839Y-54202180D01*
X144617834Y-54202171D01*
X144499855Y-53997828D01*
X144499854Y-53997827D01*
X144437277Y-53916275D01*
X143601041Y-54752511D01*
X143576022Y-54692110D01*
X143504888Y-54585649D01*
X143414351Y-54495112D01*
X143307890Y-54423978D01*
X143247488Y-54398958D01*
X144083723Y-53562721D01*
X144002172Y-53500145D01*
X144002171Y-53500144D01*
X143797828Y-53382165D01*
X143797819Y-53382160D01*
X143579836Y-53291870D01*
X143579838Y-53291870D01*
X143351914Y-53230799D01*
X143117985Y-53200000D01*
X142882014Y-53200000D01*
X142648085Y-53230799D01*
X142420162Y-53291870D01*
X142202180Y-53382160D01*
X142202171Y-53382165D01*
X141997828Y-53500144D01*
X141997818Y-53500150D01*
X141916275Y-53562720D01*
X141916275Y-53562721D01*
X142752512Y-54398958D01*
X142692110Y-54423978D01*
X142585649Y-54495112D01*
X142495112Y-54585649D01*
X142423978Y-54692110D01*
X142398958Y-54752512D01*
X141562721Y-53916275D01*
X141562720Y-53916275D01*
X141500150Y-53997818D01*
X141500144Y-53997828D01*
X141382165Y-54202171D01*
X141382160Y-54202180D01*
X141291870Y-54420162D01*
X141230799Y-54648085D01*
X141200000Y-54882014D01*
X139520500Y-54882014D01*
X139520500Y-54874038D01*
X139481090Y-54625215D01*
X139403241Y-54385621D01*
X139403239Y-54385618D01*
X139403239Y-54385616D01*
X139309773Y-54202180D01*
X139288870Y-54161155D01*
X139204209Y-54044629D01*
X139140798Y-53957350D01*
X139140794Y-53957345D01*
X138962654Y-53779205D01*
X138962649Y-53779201D01*
X138868767Y-53710992D01*
X138758848Y-53631132D01*
X138758847Y-53631131D01*
X138758845Y-53631130D01*
X138688747Y-53595413D01*
X138534383Y-53516760D01*
X138294785Y-53438910D01*
X138283452Y-53437115D01*
X138045962Y-53399500D01*
X137794038Y-53399500D01*
X137726974Y-53410122D01*
X137545214Y-53438910D01*
X137305616Y-53516760D01*
X137081151Y-53631132D01*
X136877350Y-53779201D01*
X136877345Y-53779205D01*
X136699205Y-53957345D01*
X136699201Y-53957350D01*
X136551132Y-54161151D01*
X136436760Y-54385616D01*
X136358910Y-54625214D01*
X136319500Y-54874038D01*
X134552563Y-54874038D01*
X134447899Y-54769374D01*
X134414414Y-54708051D01*
X134413113Y-54701130D01*
X134401090Y-54625215D01*
X134323241Y-54385621D01*
X134323239Y-54385618D01*
X134323239Y-54385616D01*
X134229773Y-54202180D01*
X134208870Y-54161155D01*
X134124209Y-54044629D01*
X134060798Y-53957350D01*
X134060794Y-53957345D01*
X133882654Y-53779205D01*
X133882649Y-53779201D01*
X133678848Y-53631132D01*
X133678847Y-53631131D01*
X133678845Y-53631130D01*
X133608747Y-53595413D01*
X133454383Y-53516760D01*
X133214785Y-53438910D01*
X133203452Y-53437115D01*
X132965962Y-53399500D01*
X132714038Y-53399500D01*
X132646974Y-53410122D01*
X132465214Y-53438910D01*
X132225616Y-53516760D01*
X132001151Y-53631132D01*
X131797350Y-53779201D01*
X131797345Y-53779205D01*
X131619205Y-53957345D01*
X131619201Y-53957350D01*
X131471132Y-54161151D01*
X131356760Y-54385616D01*
X131278910Y-54625214D01*
X131239500Y-54874038D01*
X129360500Y-54874038D01*
X129321090Y-54625215D01*
X129243241Y-54385621D01*
X129243239Y-54385618D01*
X129243239Y-54385616D01*
X129149773Y-54202180D01*
X129128870Y-54161155D01*
X129044209Y-54044629D01*
X128980798Y-53957350D01*
X128980794Y-53957345D01*
X128802654Y-53779205D01*
X128802649Y-53779201D01*
X128598848Y-53631132D01*
X128598847Y-53631131D01*
X128598845Y-53631130D01*
X128528747Y-53595413D01*
X128374383Y-53516760D01*
X128134785Y-53438910D01*
X128123452Y-53437115D01*
X127885962Y-53399500D01*
X127634038Y-53399500D01*
X127566974Y-53410122D01*
X127385214Y-53438910D01*
X127145616Y-53516760D01*
X126921151Y-53631132D01*
X126717350Y-53779201D01*
X126717345Y-53779205D01*
X126539205Y-53957345D01*
X126539201Y-53957350D01*
X126391132Y-54161151D01*
X126276760Y-54385616D01*
X126198910Y-54625214D01*
X126159500Y-54874038D01*
X122530500Y-54874038D01*
X122530500Y-54209387D01*
X122550185Y-54142348D01*
X122566819Y-54121706D01*
X124081706Y-52606819D01*
X124143029Y-52573334D01*
X124169387Y-52570500D01*
X147150613Y-52570500D01*
X147217652Y-52590185D01*
G37*
%TD.AperFunction*%
%TA.AperFunction,Conductor*%
G36*
X103438834Y-70942204D02*
G01*
X103494767Y-70984076D01*
X103519184Y-71049540D01*
X103519500Y-71058386D01*
X103519500Y-83950613D01*
X103499815Y-84017652D01*
X103483181Y-84038294D01*
X102923294Y-84598181D01*
X102861971Y-84631666D01*
X102835613Y-84634500D01*
X102555078Y-84634500D01*
X102488039Y-84614815D01*
X102444593Y-84566794D01*
X102412286Y-84503388D01*
X102291971Y-84337786D01*
X102147213Y-84193028D01*
X101981614Y-84072715D01*
X101975006Y-84069348D01*
X101888917Y-84025483D01*
X101838123Y-83977511D01*
X101821328Y-83909690D01*
X101843865Y-83843555D01*
X101888917Y-83804516D01*
X101981610Y-83757287D01*
X102087185Y-83680583D01*
X102147213Y-83636971D01*
X102147215Y-83636968D01*
X102147219Y-83636966D01*
X102291966Y-83492219D01*
X102291968Y-83492215D01*
X102291971Y-83492213D01*
X102351644Y-83410079D01*
X102412287Y-83326610D01*
X102505220Y-83144219D01*
X102568477Y-82949534D01*
X102600500Y-82747352D01*
X102600500Y-82542648D01*
X102568477Y-82340466D01*
X102505220Y-82145781D01*
X102505218Y-82145778D01*
X102505218Y-82145776D01*
X102471503Y-82079607D01*
X102412287Y-81963390D01*
X102400762Y-81947527D01*
X102291971Y-81797786D01*
X102147213Y-81653028D01*
X101981614Y-81532715D01*
X101901549Y-81491920D01*
X101888917Y-81485483D01*
X101838123Y-81437511D01*
X101821328Y-81369690D01*
X101843865Y-81303555D01*
X101888917Y-81264516D01*
X101981610Y-81217287D01*
X102124985Y-81113120D01*
X102147213Y-81096971D01*
X102147215Y-81096968D01*
X102147219Y-81096966D01*
X102291966Y-80952219D01*
X102291968Y-80952215D01*
X102291971Y-80952213D01*
X102372344Y-80841587D01*
X102412287Y-80786610D01*
X102505220Y-80604219D01*
X102568477Y-80409534D01*
X102600500Y-80207352D01*
X102600500Y-80002648D01*
X102589242Y-79931566D01*
X102568477Y-79800465D01*
X102531764Y-79687476D01*
X102505220Y-79605781D01*
X102505218Y-79605778D01*
X102505218Y-79605776D01*
X102433639Y-79465296D01*
X102412287Y-79423390D01*
X102404556Y-79412749D01*
X102291971Y-79257786D01*
X102147213Y-79113028D01*
X101981614Y-78992715D01*
X101975006Y-78989348D01*
X101888917Y-78945483D01*
X101838123Y-78897511D01*
X101821328Y-78829690D01*
X101843865Y-78763555D01*
X101888917Y-78724516D01*
X101981610Y-78677287D01*
X102002770Y-78661913D01*
X102147213Y-78556971D01*
X102147215Y-78556968D01*
X102147219Y-78556966D01*
X102291966Y-78412219D01*
X102291968Y-78412215D01*
X102291971Y-78412213D01*
X102351644Y-78330079D01*
X102412287Y-78246610D01*
X102505220Y-78064219D01*
X102568477Y-77869534D01*
X102600500Y-77667352D01*
X102600500Y-77462648D01*
X102568477Y-77260466D01*
X102505220Y-77065781D01*
X102505218Y-77065778D01*
X102505218Y-77065776D01*
X102433639Y-76925296D01*
X102412287Y-76883390D01*
X102361429Y-76813389D01*
X102291971Y-76717786D01*
X102147217Y-76573032D01*
X102147212Y-76573028D01*
X102071273Y-76517855D01*
X102028607Y-76462525D01*
X102022628Y-76392912D01*
X102055234Y-76331117D01*
X102082392Y-76311091D01*
X102082009Y-76310465D01*
X102086169Y-76307914D01*
X102169104Y-76247658D01*
X102169105Y-76247658D01*
X101437574Y-75516128D01*
X101496853Y-75500245D01*
X101613147Y-75433102D01*
X101708102Y-75338147D01*
X101775245Y-75221853D01*
X101791128Y-75162575D01*
X102522658Y-75894105D01*
X102522658Y-75894104D01*
X102582914Y-75811169D01*
X102582918Y-75811163D01*
X102690102Y-75600802D01*
X102763065Y-75376247D01*
X102800000Y-75143052D01*
X102800000Y-74906947D01*
X102763065Y-74673752D01*
X102690102Y-74449197D01*
X102582914Y-74238828D01*
X102522658Y-74155894D01*
X102522658Y-74155893D01*
X101791128Y-74887424D01*
X101775245Y-74828147D01*
X101708102Y-74711853D01*
X101613147Y-74616898D01*
X101496853Y-74549755D01*
X101437574Y-74533871D01*
X102149627Y-73821818D01*
X102210950Y-73788333D01*
X102237307Y-73785499D01*
X102344864Y-73785499D01*
X102344879Y-73785497D01*
X102344882Y-73785497D01*
X102369987Y-73782586D01*
X102369988Y-73782585D01*
X102369991Y-73782585D01*
X102472765Y-73737206D01*
X102552206Y-73657765D01*
X102597585Y-73554991D01*
X102600500Y-73529865D01*
X102600499Y-71729386D01*
X102620184Y-71662348D01*
X102636818Y-71641706D01*
X103048603Y-71229921D01*
X103307820Y-70970704D01*
X103369142Y-70937220D01*
X103438834Y-70942204D01*
G37*
%TD.AperFunction*%
%TA.AperFunction,Conductor*%
G36*
X149865609Y-81892056D02*
G01*
X149884147Y-81895950D01*
X149933904Y-81945001D01*
X149949500Y-82005205D01*
X149949500Y-83119126D01*
X149929815Y-83186165D01*
X149877011Y-83231920D01*
X149807853Y-83241864D01*
X149744297Y-83212839D01*
X149722398Y-83188016D01*
X149625301Y-83042700D01*
X149625295Y-83042692D01*
X149477306Y-82894703D01*
X149303280Y-82778423D01*
X149109920Y-82698331D01*
X149109914Y-82698329D01*
X148980179Y-82672523D01*
X148918268Y-82640138D01*
X148883694Y-82579422D01*
X148887434Y-82509653D01*
X148928301Y-82452981D01*
X148984974Y-82428432D01*
X149095527Y-82410922D01*
X149284437Y-82349542D01*
X149461425Y-82259362D01*
X149498716Y-82232268D01*
X148935942Y-81669494D01*
X148996081Y-81653381D01*
X149111920Y-81586502D01*
X149206502Y-81491920D01*
X149273381Y-81376081D01*
X149289495Y-81315942D01*
X149865609Y-81892056D01*
G37*
%TD.AperFunction*%
%TA.AperFunction,Conductor*%
G36*
X149892539Y-79210185D02*
G01*
X149938294Y-79262989D01*
X149949500Y-79314500D01*
X149949500Y-80354793D01*
X149929815Y-80421832D01*
X149877011Y-80467587D01*
X149863593Y-80469958D01*
X149289494Y-81044057D01*
X149273381Y-80983919D01*
X149206502Y-80868080D01*
X149111920Y-80773498D01*
X148996081Y-80706619D01*
X148935942Y-80690504D01*
X149498716Y-80127731D01*
X149498715Y-80127730D01*
X149461432Y-80100641D01*
X149284437Y-80010457D01*
X149095522Y-79949075D01*
X148984973Y-79931566D01*
X148921838Y-79901637D01*
X148884907Y-79842325D01*
X148885905Y-79772463D01*
X148924515Y-79714230D01*
X148980180Y-79687476D01*
X149026042Y-79678353D01*
X149109920Y-79661669D01*
X149303282Y-79581575D01*
X149477304Y-79465298D01*
X149625298Y-79317304D01*
X149661590Y-79262989D01*
X149673203Y-79245610D01*
X149679293Y-79240519D01*
X149682592Y-79233297D01*
X149705722Y-79218432D01*
X149726815Y-79200804D01*
X149736189Y-79198852D01*
X149741370Y-79195523D01*
X149776305Y-79190500D01*
X149825500Y-79190500D01*
X149892539Y-79210185D01*
G37*
%TD.AperFunction*%
%TA.AperFunction,Conductor*%
G36*
X136276944Y-67096185D02*
G01*
X136297586Y-67112819D01*
X139222586Y-70037819D01*
X139256071Y-70099142D01*
X139251087Y-70168834D01*
X139209215Y-70224767D01*
X139143751Y-70249184D01*
X139134905Y-70249500D01*
X138221898Y-70249500D01*
X138182853Y-70254188D01*
X138133438Y-70260122D01*
X137992656Y-70315639D01*
X137872079Y-70407076D01*
X137843804Y-70444363D01*
X137787611Y-70485886D01*
X137717890Y-70490437D01*
X137656776Y-70456572D01*
X137646196Y-70444363D01*
X137617920Y-70407076D01*
X137497343Y-70315639D01*
X137356561Y-70260122D01*
X137310926Y-70254642D01*
X137268102Y-70249500D01*
X135681898Y-70249500D01*
X135642853Y-70254188D01*
X135593438Y-70260122D01*
X135452656Y-70315639D01*
X135429980Y-70332836D01*
X135364669Y-70357659D01*
X135296305Y-70343231D01*
X135267374Y-70321713D01*
X135153345Y-70207684D01*
X135004124Y-70115643D01*
X135004119Y-70115641D01*
X134837697Y-70060494D01*
X134837690Y-70060493D01*
X134734986Y-70050000D01*
X134185000Y-70050000D01*
X134185000Y-71384314D01*
X134180606Y-71379920D01*
X134089394Y-71327259D01*
X133987661Y-71300000D01*
X133882339Y-71300000D01*
X133780606Y-71327259D01*
X133689394Y-71379920D01*
X133685000Y-71384314D01*
X133685000Y-70050000D01*
X133135028Y-70050000D01*
X133135012Y-70050001D01*
X133032302Y-70060494D01*
X132865880Y-70115641D01*
X132865875Y-70115643D01*
X132716654Y-70207684D01*
X132592684Y-70331654D01*
X132500643Y-70480875D01*
X132500641Y-70480880D01*
X132445494Y-70647302D01*
X132445493Y-70647309D01*
X132435000Y-70750013D01*
X132435000Y-71450000D01*
X133619314Y-71450000D01*
X133614920Y-71454394D01*
X133562259Y-71545606D01*
X133535000Y-71647339D01*
X133535000Y-71752661D01*
X133562259Y-71854394D01*
X133614920Y-71945606D01*
X133619314Y-71950000D01*
X132435000Y-71950000D01*
X132435000Y-72257114D01*
X132415315Y-72324154D01*
X132362511Y-72369909D01*
X132293353Y-72379852D01*
X132229797Y-72350827D01*
X132223329Y-72344804D01*
X131986819Y-72108294D01*
X131953334Y-72046971D01*
X131950500Y-72020613D01*
X131950500Y-68127527D01*
X131950500Y-68127525D01*
X131912984Y-67987515D01*
X131898655Y-67962696D01*
X131898653Y-67962693D01*
X131840512Y-67861988D01*
X131840508Y-67861983D01*
X131266706Y-67288181D01*
X131233221Y-67226858D01*
X131238205Y-67157166D01*
X131280077Y-67101233D01*
X131345541Y-67076816D01*
X131354387Y-67076500D01*
X136209905Y-67076500D01*
X136276944Y-67096185D01*
G37*
%TD.AperFunction*%
%TA.AperFunction,Conductor*%
G36*
X181317539Y-50695185D02*
G01*
X181363294Y-50747989D01*
X181374500Y-50799500D01*
X181374500Y-134550500D01*
X181354815Y-134617539D01*
X181302011Y-134663294D01*
X181250500Y-134674500D01*
X92499500Y-134674500D01*
X92432461Y-134654815D01*
X92386706Y-134602011D01*
X92375500Y-134550500D01*
X92375500Y-130175000D01*
X93874999Y-130175000D01*
X93875497Y-130252252D01*
X93875497Y-130252257D01*
X93883451Y-130406565D01*
X93883452Y-130406573D01*
X93883452Y-130406582D01*
X93899338Y-130560260D01*
X93923119Y-130712945D01*
X93923120Y-130712952D01*
X93954717Y-130864154D01*
X93994072Y-131013593D01*
X94041063Y-131160795D01*
X94095566Y-131305371D01*
X94124605Y-131371815D01*
X94157443Y-131446954D01*
X94197458Y-131527011D01*
X94226532Y-131585181D01*
X94302622Y-131719623D01*
X94302628Y-131719632D01*
X94302630Y-131719635D01*
X94380413Y-131841924D01*
X94385557Y-131850010D01*
X94385565Y-131850023D01*
X94454249Y-131946634D01*
X94473022Y-131973041D01*
X94475085Y-131975942D01*
X94570978Y-132097100D01*
X94672959Y-132213136D01*
X94672969Y-132213147D01*
X94672979Y-132213158D01*
X94672988Y-132213167D01*
X94780784Y-132323777D01*
X94780800Y-132323792D01*
X94780820Y-132323813D01*
X94894214Y-132428768D01*
X94894227Y-132428779D01*
X95012872Y-132527758D01*
X95136440Y-132620485D01*
X95136449Y-132620491D01*
X95264644Y-132706746D01*
X95370235Y-132770151D01*
X95397104Y-132786285D01*
X95397125Y-132786297D01*
X95533471Y-132858893D01*
X95533490Y-132858903D01*
X95533496Y-132858906D01*
X95673439Y-132924407D01*
X95673451Y-132924412D01*
X95673458Y-132924415D01*
X95782177Y-132968629D01*
X95816568Y-132982616D01*
X95962504Y-133033380D01*
X96110860Y-133076564D01*
X96261242Y-133112054D01*
X96413252Y-133139755D01*
X96566486Y-133159594D01*
X96566485Y-133159594D01*
X96588493Y-133161297D01*
X96720538Y-133171519D01*
X96875000Y-133175498D01*
X97029462Y-133171519D01*
X97183514Y-133159594D01*
X97336748Y-133139755D01*
X97488758Y-133112054D01*
X97639140Y-133076564D01*
X97787496Y-133033380D01*
X97933432Y-132982616D01*
X98076561Y-132924407D01*
X98216504Y-132858906D01*
X98352889Y-132786289D01*
X98485356Y-132706746D01*
X98613552Y-132620490D01*
X98656827Y-132588016D01*
X98737127Y-132527758D01*
X98737137Y-132527750D01*
X98855785Y-132428769D01*
X98969180Y-132323813D01*
X99077021Y-132213158D01*
X99179023Y-132097098D01*
X99274916Y-131975941D01*
X99364444Y-131850009D01*
X99447370Y-131719635D01*
X99467823Y-131683497D01*
X99523467Y-131585181D01*
X99523471Y-131585171D01*
X99523476Y-131585164D01*
X99592557Y-131446954D01*
X99654433Y-131305371D01*
X99708938Y-131160791D01*
X99755927Y-131013596D01*
X99795277Y-130864177D01*
X99800570Y-130838848D01*
X99826879Y-130712952D01*
X99826880Y-130712945D01*
X99826883Y-130712931D01*
X99850661Y-130560259D01*
X99866549Y-130406565D01*
X99874503Y-130252257D01*
X99874503Y-130097743D01*
X99866549Y-129943435D01*
X99850661Y-129789741D01*
X99826883Y-129637069D01*
X99826880Y-129637054D01*
X99826879Y-129637047D01*
X99795282Y-129485845D01*
X99795280Y-129485837D01*
X99795277Y-129485823D01*
X99755927Y-129336404D01*
X99708938Y-129189209D01*
X99654433Y-129044629D01*
X99592557Y-128903046D01*
X99523476Y-128764836D01*
X99523475Y-128764835D01*
X99523467Y-128764818D01*
X99447377Y-128630376D01*
X99447371Y-128630367D01*
X99434987Y-128610897D01*
X99364444Y-128499991D01*
X99364438Y-128499982D01*
X99364434Y-128499976D01*
X99316585Y-128432672D01*
X99274916Y-128374059D01*
X99209865Y-128291870D01*
X99179021Y-128252899D01*
X99077040Y-128136863D01*
X99077031Y-128136853D01*
X99077021Y-128136842D01*
X98995719Y-128053418D01*
X98969215Y-128026222D01*
X98969199Y-128026206D01*
X98969180Y-128026187D01*
X98855785Y-127921231D01*
X98849396Y-127915901D01*
X98737127Y-127822241D01*
X98613559Y-127729514D01*
X98613550Y-127729508D01*
X98485373Y-127643265D01*
X98485357Y-127643255D01*
X98485356Y-127643254D01*
X98432560Y-127611551D01*
X98352895Y-127563714D01*
X98352874Y-127563702D01*
X98216528Y-127491106D01*
X98216509Y-127491096D01*
X98076570Y-127425597D01*
X98076541Y-127425584D01*
X97933448Y-127367390D01*
X97933439Y-127367387D01*
X97933432Y-127367384D01*
X97787496Y-127316620D01*
X97755199Y-127307219D01*
X97639145Y-127273437D01*
X97639140Y-127273436D01*
X97488758Y-127237946D01*
X97488748Y-127237944D01*
X97488739Y-127237942D01*
X97336744Y-127210244D01*
X97183506Y-127190405D01*
X97183514Y-127190405D01*
X97029455Y-127178480D01*
X96875000Y-127174503D01*
X96720544Y-127178480D01*
X96566489Y-127190405D01*
X96413255Y-127210244D01*
X96261260Y-127237942D01*
X96261246Y-127237945D01*
X96261242Y-127237946D01*
X96224954Y-127246510D01*
X96110864Y-127273435D01*
X96110854Y-127273437D01*
X95962500Y-127316621D01*
X95816551Y-127367390D01*
X95673458Y-127425584D01*
X95673429Y-127425597D01*
X95533490Y-127491096D01*
X95533471Y-127491106D01*
X95397125Y-127563702D01*
X95397104Y-127563714D01*
X95264642Y-127643255D01*
X95264626Y-127643265D01*
X95136449Y-127729508D01*
X95136440Y-127729514D01*
X95012872Y-127822241D01*
X94894227Y-127921220D01*
X94894214Y-127921231D01*
X94780815Y-128026192D01*
X94780784Y-128026222D01*
X94672988Y-128136832D01*
X94672959Y-128136863D01*
X94570978Y-128252899D01*
X94475085Y-128374057D01*
X94385565Y-128499976D01*
X94385557Y-128499989D01*
X94302628Y-128630367D01*
X94302622Y-128630376D01*
X94226532Y-128764818D01*
X94157438Y-128903057D01*
X94095566Y-129044628D01*
X94041063Y-129189204D01*
X93994072Y-129336406D01*
X93954717Y-129485845D01*
X93923120Y-129637047D01*
X93923119Y-129637054D01*
X93899338Y-129789739D01*
X93883452Y-129943417D01*
X93883452Y-129943425D01*
X93883451Y-129943435D01*
X93878273Y-130043886D01*
X93875497Y-130097742D01*
X93874999Y-130175000D01*
X92375500Y-130175000D01*
X92375500Y-63577525D01*
X98049500Y-63577525D01*
X98049500Y-113772475D01*
X98087016Y-113912485D01*
X98159490Y-114038015D01*
X99311985Y-115190510D01*
X99437515Y-115262984D01*
X99577525Y-115300500D01*
X102775500Y-115300500D01*
X102842539Y-115320185D01*
X102888294Y-115372989D01*
X102899500Y-115424500D01*
X102899500Y-129472475D01*
X102915058Y-129530539D01*
X102915067Y-129530571D01*
X102915070Y-129530581D01*
X102937016Y-129612485D01*
X103009490Y-129738015D01*
X107311985Y-134040510D01*
X107437515Y-134112984D01*
X107577525Y-134150500D01*
X107577526Y-134150500D01*
X107577528Y-134150500D01*
X143272472Y-134150500D01*
X143272474Y-134150500D01*
X143272475Y-134150500D01*
X143412485Y-134112984D01*
X143538015Y-134040510D01*
X144200510Y-133378014D01*
X144272984Y-133252485D01*
X144294679Y-133171519D01*
X144310500Y-133112475D01*
X144310500Y-131724500D01*
X144330185Y-131657461D01*
X144382989Y-131611706D01*
X144434500Y-131600500D01*
X144853097Y-131600500D01*
X144853102Y-131600500D01*
X144941564Y-131589877D01*
X145082342Y-131534361D01*
X145202922Y-131442922D01*
X145294361Y-131322342D01*
X145349877Y-131181564D01*
X145360500Y-131093102D01*
X145360500Y-129882014D01*
X147040000Y-129882014D01*
X147040000Y-130117985D01*
X147070799Y-130351914D01*
X147131870Y-130579837D01*
X147222160Y-130797819D01*
X147222165Y-130797828D01*
X147340144Y-131002171D01*
X147340145Y-131002172D01*
X147402721Y-131083723D01*
X148238958Y-130247487D01*
X148263978Y-130307890D01*
X148335112Y-130414351D01*
X148425649Y-130504888D01*
X148532110Y-130576022D01*
X148592511Y-130601041D01*
X147756275Y-131437277D01*
X147837827Y-131499854D01*
X147837828Y-131499855D01*
X148042171Y-131617834D01*
X148042180Y-131617839D01*
X148260163Y-131708129D01*
X148260161Y-131708129D01*
X148488085Y-131769200D01*
X148722014Y-131799999D01*
X148722029Y-131800000D01*
X148957971Y-131800000D01*
X148957985Y-131799999D01*
X149191914Y-131769200D01*
X149419837Y-131708129D01*
X149637819Y-131617839D01*
X149637828Y-131617834D01*
X149842181Y-131499850D01*
X149923723Y-131437279D01*
X149923723Y-131437276D01*
X149087487Y-130601041D01*
X149147890Y-130576022D01*
X149254351Y-130504888D01*
X149344888Y-130414351D01*
X149416022Y-130307890D01*
X149441041Y-130247488D01*
X150277276Y-131083723D01*
X150277279Y-131083723D01*
X150339850Y-131002181D01*
X150457834Y-130797828D01*
X150457839Y-130797819D01*
X150548129Y-130579837D01*
X150609200Y-130351914D01*
X150639999Y-130117985D01*
X150640000Y-130117971D01*
X150640000Y-129882028D01*
X150639999Y-129882014D01*
X150609200Y-129648085D01*
X150548129Y-129420162D01*
X150457839Y-129202180D01*
X150457834Y-129202171D01*
X150339855Y-128997828D01*
X150339854Y-128997827D01*
X150277277Y-128916275D01*
X149441041Y-129752511D01*
X149416022Y-129692110D01*
X149344888Y-129585649D01*
X149254351Y-129495112D01*
X149147890Y-129423978D01*
X149087488Y-129398958D01*
X149923723Y-128562721D01*
X149842172Y-128500145D01*
X149842171Y-128500144D01*
X149637828Y-128382165D01*
X149637819Y-128382160D01*
X149419836Y-128291870D01*
X149419838Y-128291870D01*
X149191914Y-128230799D01*
X148957985Y-128200000D01*
X148722014Y-128200000D01*
X148488085Y-128230799D01*
X148260162Y-128291870D01*
X148042180Y-128382160D01*
X148042171Y-128382165D01*
X147837828Y-128500144D01*
X147837818Y-128500150D01*
X147756275Y-128562720D01*
X147756275Y-128562721D01*
X148592512Y-129398958D01*
X148532110Y-129423978D01*
X148425649Y-129495112D01*
X148335112Y-129585649D01*
X148263978Y-129692110D01*
X148238958Y-129752511D01*
X147402721Y-128916275D01*
X147402720Y-128916275D01*
X147340150Y-128997818D01*
X147340144Y-128997828D01*
X147222165Y-129202171D01*
X147222160Y-129202180D01*
X147131870Y-129420162D01*
X147070799Y-129648085D01*
X147040000Y-129882014D01*
X145360500Y-129882014D01*
X145360500Y-128906898D01*
X145349877Y-128818436D01*
X145294361Y-128677658D01*
X145294360Y-128677657D01*
X145294360Y-128677656D01*
X145202922Y-128557077D01*
X145082343Y-128465639D01*
X144953419Y-128414798D01*
X144941564Y-128410123D01*
X144941563Y-128410122D01*
X144941561Y-128410122D01*
X144895926Y-128404642D01*
X144853102Y-128399500D01*
X142666898Y-128399500D01*
X142627853Y-128404188D01*
X142578438Y-128410122D01*
X142437656Y-128465639D01*
X142317077Y-128557077D01*
X142225639Y-128677656D01*
X142170122Y-128818438D01*
X142165954Y-128853149D01*
X142159500Y-128906898D01*
X142159500Y-131093102D01*
X142165126Y-131139954D01*
X142170122Y-131181561D01*
X142170122Y-131181563D01*
X142170123Y-131181564D01*
X142185593Y-131220793D01*
X142225639Y-131322343D01*
X142317077Y-131442922D01*
X142437656Y-131534360D01*
X142437657Y-131534360D01*
X142437658Y-131534361D01*
X142578436Y-131589877D01*
X142666898Y-131600500D01*
X143085500Y-131600500D01*
X143152539Y-131620185D01*
X143198294Y-131672989D01*
X143209500Y-131724500D01*
X143209500Y-132760613D01*
X143200855Y-132790053D01*
X143194332Y-132820040D01*
X143190577Y-132825055D01*
X143189815Y-132827652D01*
X143173181Y-132848294D01*
X143008294Y-133013181D01*
X142946971Y-133046666D01*
X142920613Y-133049500D01*
X134031941Y-133049500D01*
X133964902Y-133029815D01*
X133919147Y-132977011D01*
X133909203Y-132907853D01*
X133938228Y-132844297D01*
X133944260Y-132837819D01*
X134640808Y-132141269D01*
X135110286Y-131671790D01*
X135110289Y-131671789D01*
X135221789Y-131560289D01*
X135309394Y-131429179D01*
X135369737Y-131283497D01*
X135390013Y-131181564D01*
X135394145Y-131160791D01*
X135400500Y-131128845D01*
X135400500Y-127982940D01*
X135420185Y-127915901D01*
X135436819Y-127895259D01*
X135795259Y-127536819D01*
X135856582Y-127503334D01*
X135882940Y-127500500D01*
X152687060Y-127500500D01*
X152754099Y-127520185D01*
X152774741Y-127536819D01*
X153083181Y-127845259D01*
X153116666Y-127906582D01*
X153119500Y-127932940D01*
X153119500Y-128540089D01*
X153099815Y-128607128D01*
X153068385Y-128640407D01*
X152877350Y-128779201D01*
X152877345Y-128779205D01*
X152699205Y-128957345D01*
X152699201Y-128957350D01*
X152551132Y-129161151D01*
X152436760Y-129385616D01*
X152358910Y-129625214D01*
X152319500Y-129874038D01*
X152319500Y-130125961D01*
X152358910Y-130374785D01*
X152436760Y-130614383D01*
X152486984Y-130712952D01*
X152541231Y-130819418D01*
X152551132Y-130838848D01*
X152699201Y-131042649D01*
X152699205Y-131042654D01*
X152877345Y-131220794D01*
X152877350Y-131220798D01*
X153017116Y-131322343D01*
X153081155Y-131368870D01*
X153224184Y-131441747D01*
X153305616Y-131483239D01*
X153305618Y-131483239D01*
X153305621Y-131483241D01*
X153545215Y-131561090D01*
X153794038Y-131600500D01*
X153794039Y-131600500D01*
X154045961Y-131600500D01*
X154045962Y-131600500D01*
X154294785Y-131561090D01*
X154534379Y-131483241D01*
X154758845Y-131368870D01*
X154962656Y-131220793D01*
X155140793Y-131042656D01*
X155288870Y-130838845D01*
X155403241Y-130614379D01*
X155481090Y-130374785D01*
X155520500Y-130125962D01*
X155520500Y-129874038D01*
X155481090Y-129625215D01*
X155403241Y-129385621D01*
X155403239Y-129385618D01*
X155403239Y-129385616D01*
X155339454Y-129260432D01*
X155288870Y-129161155D01*
X155259415Y-129120613D01*
X155140798Y-128957350D01*
X155140794Y-128957345D01*
X154962654Y-128779205D01*
X154962649Y-128779201D01*
X154771615Y-128640407D01*
X154728949Y-128585077D01*
X154720500Y-128540089D01*
X154720500Y-127471158D01*
X154720499Y-127471155D01*
X154715936Y-127448208D01*
X154715936Y-127448207D01*
X154689739Y-127316510D01*
X154689738Y-127316503D01*
X154629394Y-127170821D01*
X154629392Y-127170818D01*
X154629390Y-127170814D01*
X154541789Y-127039711D01*
X154541786Y-127039707D01*
X153580292Y-126078213D01*
X153580288Y-126078210D01*
X153449185Y-125990609D01*
X153449172Y-125990602D01*
X153303501Y-125930264D01*
X153303489Y-125930261D01*
X153148845Y-125899500D01*
X153148842Y-125899500D01*
X135578842Y-125899500D01*
X135421157Y-125899500D01*
X135421155Y-125899500D01*
X135334246Y-125916788D01*
X135334245Y-125916788D01*
X135266510Y-125930261D01*
X135266498Y-125930264D01*
X135120827Y-125990602D01*
X135120814Y-125990609D01*
X134989711Y-126078210D01*
X134989707Y-126078213D01*
X134209711Y-126858211D01*
X134089711Y-126978211D01*
X134033960Y-127033962D01*
X133978209Y-127089712D01*
X133890609Y-127220814D01*
X133890602Y-127220827D01*
X133830264Y-127366498D01*
X133830261Y-127366510D01*
X133799500Y-127521153D01*
X133799500Y-130667060D01*
X133779815Y-130734099D01*
X133763181Y-130754741D01*
X132954741Y-131563181D01*
X132893418Y-131596666D01*
X132867060Y-131599500D01*
X130902162Y-131599500D01*
X130835123Y-131579815D01*
X130789368Y-131527011D01*
X130779424Y-131457853D01*
X130808449Y-131394297D01*
X130834963Y-131371815D01*
X130834904Y-131371734D01*
X130835992Y-131370942D01*
X130837375Y-131369771D01*
X130838839Y-131368872D01*
X130838845Y-131368870D01*
X131042656Y-131220793D01*
X131220793Y-131042656D01*
X131368870Y-130838845D01*
X131483241Y-130614379D01*
X131561090Y-130374785D01*
X131600500Y-130125962D01*
X131600500Y-129874038D01*
X131561090Y-129625215D01*
X131483241Y-129385621D01*
X131483239Y-129385618D01*
X131483239Y-129385616D01*
X131419454Y-129260432D01*
X131368870Y-129161155D01*
X131339415Y-129120613D01*
X131220798Y-128957350D01*
X131220794Y-128957345D01*
X131042654Y-128779205D01*
X131042649Y-128779201D01*
X130838848Y-128631132D01*
X130838847Y-128631131D01*
X130838845Y-128631130D01*
X130738012Y-128579753D01*
X130614383Y-128516760D01*
X130374785Y-128438910D01*
X130302651Y-128427485D01*
X130125962Y-128399500D01*
X129874038Y-128399500D01*
X129834130Y-128405820D01*
X129640805Y-128436440D01*
X129571511Y-128427485D01*
X129533726Y-128401648D01*
X129246819Y-128114741D01*
X129213334Y-128053418D01*
X129210500Y-128027060D01*
X129210500Y-126378043D01*
X129230185Y-126311004D01*
X129261611Y-126277727D01*
X129396928Y-126179414D01*
X129519414Y-126056928D01*
X129621232Y-125916788D01*
X129699873Y-125762445D01*
X129753402Y-125597701D01*
X129780500Y-125426611D01*
X129780500Y-125253389D01*
X129753402Y-125082299D01*
X129699873Y-124917555D01*
X129621232Y-124763212D01*
X129519414Y-124623072D01*
X129396928Y-124500586D01*
X129256788Y-124398768D01*
X129102445Y-124320127D01*
X128937701Y-124266598D01*
X128937699Y-124266597D01*
X128937698Y-124266597D01*
X128806271Y-124245781D01*
X128766611Y-124239500D01*
X128593389Y-124239500D01*
X128561192Y-124244599D01*
X128422301Y-124266597D01*
X128422297Y-124266598D01*
X128310891Y-124302796D01*
X128241050Y-124304791D01*
X128181218Y-124268710D01*
X128150390Y-124206009D01*
X128158355Y-124136595D01*
X128184888Y-124097189D01*
X128265261Y-124016816D01*
X128326583Y-123983334D01*
X128352940Y-123980500D01*
X159247060Y-123980500D01*
X159314099Y-124000185D01*
X159334741Y-124016819D01*
X160083181Y-124765259D01*
X160116666Y-124826582D01*
X160119500Y-124852940D01*
X160119500Y-127697059D01*
X160099815Y-127764098D01*
X160083181Y-127784740D01*
X159466272Y-128401648D01*
X159404949Y-128435133D01*
X159359193Y-128436440D01*
X159186632Y-128409109D01*
X159125962Y-128399500D01*
X158874038Y-128399500D01*
X158749626Y-128419205D01*
X158625214Y-128438910D01*
X158385616Y-128516760D01*
X158161151Y-128631132D01*
X157957350Y-128779201D01*
X157957345Y-128779205D01*
X157779205Y-128957345D01*
X157779201Y-128957350D01*
X157631132Y-129161151D01*
X157516760Y-129385616D01*
X157438910Y-129625214D01*
X157399500Y-129874038D01*
X157399500Y-130125961D01*
X157438910Y-130374785D01*
X157516760Y-130614383D01*
X157566984Y-130712952D01*
X157621231Y-130819418D01*
X157631132Y-130838848D01*
X157779201Y-131042649D01*
X157779205Y-131042654D01*
X157957345Y-131220794D01*
X157957350Y-131220798D01*
X158097116Y-131322343D01*
X158161155Y-131368870D01*
X158304184Y-131441747D01*
X158385616Y-131483239D01*
X158385618Y-131483239D01*
X158385621Y-131483241D01*
X158625215Y-131561090D01*
X158874038Y-131600500D01*
X158874039Y-131600500D01*
X159125961Y-131600500D01*
X159125962Y-131600500D01*
X159374785Y-131561090D01*
X159614379Y-131483241D01*
X159838845Y-131368870D01*
X160042656Y-131220793D01*
X160220793Y-131042656D01*
X160368870Y-130838845D01*
X160483241Y-130614379D01*
X160561090Y-130374785D01*
X160600500Y-130125962D01*
X160600500Y-129874038D01*
X160563559Y-129640803D01*
X160572514Y-129571511D01*
X160598348Y-129533728D01*
X161452319Y-128679759D01*
X161513642Y-128646274D01*
X161583334Y-128651258D01*
X161627681Y-128679759D01*
X162481648Y-129533726D01*
X162515133Y-129595049D01*
X162516440Y-129640805D01*
X162479500Y-129874038D01*
X162479500Y-130125961D01*
X162518910Y-130374785D01*
X162596760Y-130614383D01*
X162646984Y-130712952D01*
X162701231Y-130819418D01*
X162711132Y-130838848D01*
X162859201Y-131042649D01*
X162859205Y-131042654D01*
X163037345Y-131220794D01*
X163037350Y-131220798D01*
X163177116Y-131322343D01*
X163241155Y-131368870D01*
X163384184Y-131441747D01*
X163465616Y-131483239D01*
X163465618Y-131483239D01*
X163465621Y-131483241D01*
X163705215Y-131561090D01*
X163954038Y-131600500D01*
X163954039Y-131600500D01*
X164205961Y-131600500D01*
X164205962Y-131600500D01*
X164454785Y-131561090D01*
X164694379Y-131483241D01*
X164918845Y-131368870D01*
X165122656Y-131220793D01*
X165300793Y-131042656D01*
X165448870Y-130838845D01*
X165563241Y-130614379D01*
X165641090Y-130374785D01*
X165680500Y-130125962D01*
X165680500Y-130043872D01*
X174874500Y-130043872D01*
X174874500Y-130306127D01*
X174883540Y-130374785D01*
X174908730Y-130566116D01*
X174970817Y-130797828D01*
X174976602Y-130819418D01*
X174976605Y-130819428D01*
X175076953Y-131061690D01*
X175076958Y-131061700D01*
X175208075Y-131288803D01*
X175367718Y-131496851D01*
X175367726Y-131496860D01*
X175553140Y-131682274D01*
X175553148Y-131682281D01*
X175553149Y-131682282D01*
X175554738Y-131683501D01*
X175761196Y-131841924D01*
X175988299Y-131973041D01*
X175988309Y-131973046D01*
X176230571Y-132073394D01*
X176230581Y-132073398D01*
X176483884Y-132141270D01*
X176743880Y-132175500D01*
X176743887Y-132175500D01*
X177006113Y-132175500D01*
X177006120Y-132175500D01*
X177266116Y-132141270D01*
X177519419Y-132073398D01*
X177761697Y-131973043D01*
X177988803Y-131841924D01*
X178196851Y-131682282D01*
X178196855Y-131682277D01*
X178196860Y-131682274D01*
X178382274Y-131496860D01*
X178382277Y-131496855D01*
X178382282Y-131496851D01*
X178541924Y-131288803D01*
X178673043Y-131061697D01*
X178773398Y-130819419D01*
X178841270Y-130566116D01*
X178875500Y-130306120D01*
X178875500Y-130043880D01*
X178841270Y-129783884D01*
X178773398Y-129530581D01*
X178713354Y-129385621D01*
X178673046Y-129288309D01*
X178673041Y-129288299D01*
X178541924Y-129061196D01*
X178382281Y-128853148D01*
X178382274Y-128853140D01*
X178196860Y-128667726D01*
X178196851Y-128667718D01*
X177988803Y-128508075D01*
X177761700Y-128376958D01*
X177761690Y-128376953D01*
X177519428Y-128276605D01*
X177519421Y-128276603D01*
X177519419Y-128276602D01*
X177266116Y-128208730D01*
X177199807Y-128200000D01*
X177006127Y-128174500D01*
X177006120Y-128174500D01*
X176743880Y-128174500D01*
X176743872Y-128174500D01*
X176512772Y-128204926D01*
X176483884Y-128208730D01*
X176319031Y-128252902D01*
X176230581Y-128276602D01*
X176230571Y-128276605D01*
X175988309Y-128376953D01*
X175988299Y-128376958D01*
X175761196Y-128508075D01*
X175553148Y-128667718D01*
X175367718Y-128853148D01*
X175208075Y-129061196D01*
X175076958Y-129288299D01*
X175076953Y-129288309D01*
X174976605Y-129530571D01*
X174976602Y-129530581D01*
X174908730Y-129783885D01*
X174874500Y-130043872D01*
X165680500Y-130043872D01*
X165680500Y-129874038D01*
X165641090Y-129625215D01*
X165563241Y-129385621D01*
X165563239Y-129385618D01*
X165563239Y-129385616D01*
X165499454Y-129260432D01*
X165448870Y-129161155D01*
X165419415Y-129120613D01*
X165300798Y-128957350D01*
X165300794Y-128957345D01*
X165122654Y-128779205D01*
X165122649Y-128779201D01*
X164918848Y-128631132D01*
X164918847Y-128631131D01*
X164918845Y-128631130D01*
X164694379Y-128516759D01*
X164454785Y-128438910D01*
X164454783Y-128438909D01*
X164454781Y-128438909D01*
X164352500Y-128422709D01*
X164324448Y-128414798D01*
X164313502Y-128410264D01*
X164313494Y-128410261D01*
X164158845Y-128379500D01*
X164158842Y-128379500D01*
X164001158Y-128379500D01*
X164001156Y-128379500D01*
X163846505Y-128410262D01*
X163846500Y-128410263D01*
X163835547Y-128414800D01*
X163807502Y-128422708D01*
X163720806Y-128436440D01*
X163651512Y-128427486D01*
X163613726Y-128401648D01*
X163008819Y-127796741D01*
X162975334Y-127735418D01*
X162972500Y-127709060D01*
X162972500Y-123906155D01*
X162972499Y-123906153D01*
X162941738Y-123751510D01*
X162941737Y-123751503D01*
X162911379Y-123678211D01*
X162881397Y-123605827D01*
X162881390Y-123605814D01*
X162793789Y-123474711D01*
X162793786Y-123474707D01*
X162682292Y-123363213D01*
X162682288Y-123363210D01*
X162626137Y-123325691D01*
X162607347Y-123310270D01*
X160645292Y-121348213D01*
X160645288Y-121348210D01*
X160514185Y-121260609D01*
X160514172Y-121260602D01*
X160368501Y-121200264D01*
X160368489Y-121200261D01*
X160213845Y-121169500D01*
X160213842Y-121169500D01*
X141558842Y-121169500D01*
X133481940Y-121169500D01*
X133414901Y-121149815D01*
X133369146Y-121097011D01*
X133359202Y-121027853D01*
X133388227Y-120964297D01*
X133394259Y-120957819D01*
X134505259Y-119846819D01*
X134566582Y-119813334D01*
X134592940Y-119810500D01*
X140868844Y-119810500D01*
X140868845Y-119810499D01*
X141023497Y-119779737D01*
X141169179Y-119719394D01*
X141300289Y-119631789D01*
X143676789Y-117255289D01*
X143764394Y-117124179D01*
X143824738Y-116978497D01*
X143855500Y-116823842D01*
X143855500Y-116666157D01*
X143855500Y-112994500D01*
X143875185Y-112927461D01*
X143927989Y-112881706D01*
X143979500Y-112870500D01*
X144118097Y-112870500D01*
X144118102Y-112870500D01*
X144206564Y-112859877D01*
X144347342Y-112804361D01*
X144467922Y-112712922D01*
X144559361Y-112592342D01*
X144614877Y-112451564D01*
X144625500Y-112363102D01*
X144625500Y-110236898D01*
X144614877Y-110148436D01*
X144559361Y-110007658D01*
X144559360Y-110007657D01*
X144559360Y-110007656D01*
X144467922Y-109887077D01*
X144347343Y-109795639D01*
X144206561Y-109740122D01*
X144160926Y-109734642D01*
X144118102Y-109729500D01*
X144118097Y-109729500D01*
X143729500Y-109729500D01*
X143662461Y-109709815D01*
X143616706Y-109657011D01*
X143605500Y-109605500D01*
X143605500Y-108882527D01*
X143605500Y-108882525D01*
X143567984Y-108742515D01*
X143537083Y-108688993D01*
X143495510Y-108616985D01*
X141286819Y-106408294D01*
X141253334Y-106346971D01*
X141250500Y-106320613D01*
X141250500Y-100727527D01*
X141250500Y-100727525D01*
X141212984Y-100587515D01*
X141178249Y-100527352D01*
X141140510Y-100461985D01*
X139943104Y-99264579D01*
X139909619Y-99203256D01*
X139914603Y-99133564D01*
X139956475Y-99077631D01*
X140021939Y-99053214D01*
X140090212Y-99068066D01*
X140099676Y-99073796D01*
X140104120Y-99076765D01*
X140124191Y-99090176D01*
X140124193Y-99090177D01*
X140124197Y-99090179D01*
X140277013Y-99153477D01*
X140306998Y-99165897D01*
X140307002Y-99165897D01*
X140307003Y-99165898D01*
X140501062Y-99204500D01*
X140501065Y-99204500D01*
X140698936Y-99204500D01*
X140718553Y-99200597D01*
X140739890Y-99196353D01*
X140809481Y-99202579D01*
X140851764Y-99230289D01*
X142023181Y-100401706D01*
X142056666Y-100463029D01*
X142059500Y-100489387D01*
X142059500Y-104576488D01*
X142039815Y-104643527D01*
X142008385Y-104676806D01*
X141893075Y-104760583D01*
X141893069Y-104760588D01*
X141770588Y-104883069D01*
X141770588Y-104883070D01*
X141770586Y-104883072D01*
X141726859Y-104943256D01*
X141668768Y-105023211D01*
X141590128Y-105177552D01*
X141536597Y-105342302D01*
X141511112Y-105503212D01*
X141509500Y-105513389D01*
X141509500Y-105686611D01*
X141536598Y-105857701D01*
X141590127Y-106022445D01*
X141668768Y-106176788D01*
X141770586Y-106316928D01*
X141893072Y-106439414D01*
X142033212Y-106541232D01*
X142187555Y-106619873D01*
X142352299Y-106673402D01*
X142523389Y-106700500D01*
X142523390Y-106700500D01*
X142696610Y-106700500D01*
X142696611Y-106700500D01*
X142867701Y-106673402D01*
X143032445Y-106619873D01*
X143186788Y-106541232D01*
X143326928Y-106439414D01*
X143449414Y-106316928D01*
X143551232Y-106176788D01*
X143629873Y-106022445D01*
X143683402Y-105857701D01*
X143710500Y-105686611D01*
X143710500Y-105513389D01*
X143683402Y-105342299D01*
X143629873Y-105177555D01*
X143551232Y-105023212D01*
X143449414Y-104883072D01*
X143326928Y-104760586D01*
X143211614Y-104676805D01*
X143168949Y-104621476D01*
X143160500Y-104576488D01*
X143160500Y-100137527D01*
X143160500Y-100137525D01*
X143122984Y-99997515D01*
X143112945Y-99980127D01*
X143050510Y-99871985D01*
X141630289Y-98451764D01*
X141596804Y-98390441D01*
X141596353Y-98339890D01*
X141604500Y-98298935D01*
X141604500Y-98101062D01*
X141565898Y-97907003D01*
X141565897Y-97907002D01*
X141565897Y-97906998D01*
X141521912Y-97800809D01*
X141490179Y-97724197D01*
X141490172Y-97724184D01*
X141380246Y-97559669D01*
X141380243Y-97559665D01*
X141240334Y-97419756D01*
X141240330Y-97419753D01*
X141075815Y-97309827D01*
X141075802Y-97309820D01*
X140893006Y-97234104D01*
X140892996Y-97234101D01*
X140698937Y-97195500D01*
X140698935Y-97195500D01*
X140501065Y-97195500D01*
X140501063Y-97195500D01*
X140307003Y-97234101D01*
X140306993Y-97234104D01*
X140124197Y-97309820D01*
X140124184Y-97309827D01*
X139959669Y-97419753D01*
X139959665Y-97419756D01*
X139819756Y-97559665D01*
X139819753Y-97559669D01*
X139709827Y-97724184D01*
X139709820Y-97724197D01*
X139634104Y-97906993D01*
X139634101Y-97907003D01*
X139595500Y-98101062D01*
X139595500Y-98101065D01*
X139595500Y-98298935D01*
X139595500Y-98298937D01*
X139595499Y-98298937D01*
X139634101Y-98492996D01*
X139634104Y-98493006D01*
X139709820Y-98675802D01*
X139709827Y-98675815D01*
X139726203Y-98700323D01*
X139747081Y-98767001D01*
X139728596Y-98834381D01*
X139676617Y-98881071D01*
X139607647Y-98892247D01*
X139543584Y-98864361D01*
X139535420Y-98856895D01*
X139130289Y-98451764D01*
X139096804Y-98390441D01*
X139096353Y-98339890D01*
X139104500Y-98298935D01*
X139104500Y-98101062D01*
X139065898Y-97907003D01*
X139065897Y-97907002D01*
X139065897Y-97906998D01*
X139021912Y-97800809D01*
X138990179Y-97724197D01*
X138990172Y-97724184D01*
X138880246Y-97559669D01*
X138880243Y-97559665D01*
X138740334Y-97419756D01*
X138740330Y-97419753D01*
X138575815Y-97309827D01*
X138575802Y-97309820D01*
X138393006Y-97234104D01*
X138392996Y-97234101D01*
X138198937Y-97195500D01*
X138198935Y-97195500D01*
X138001065Y-97195500D01*
X138001063Y-97195500D01*
X137807003Y-97234101D01*
X137806993Y-97234104D01*
X137624197Y-97309820D01*
X137624184Y-97309827D01*
X137459669Y-97419753D01*
X137459665Y-97419756D01*
X137319756Y-97559665D01*
X137319753Y-97559669D01*
X137209827Y-97724184D01*
X137209820Y-97724197D01*
X137134104Y-97906993D01*
X137134101Y-97907003D01*
X137095500Y-98101062D01*
X137095500Y-98101065D01*
X137095500Y-98298935D01*
X137095500Y-98298937D01*
X137095499Y-98298937D01*
X137134101Y-98492996D01*
X137134104Y-98493006D01*
X137209820Y-98675802D01*
X137209827Y-98675815D01*
X137319753Y-98840330D01*
X137319756Y-98840334D01*
X137459665Y-98980243D01*
X137459669Y-98980246D01*
X137624184Y-99090172D01*
X137624197Y-99090179D01*
X137777013Y-99153477D01*
X137806998Y-99165897D01*
X137807002Y-99165897D01*
X137807003Y-99165898D01*
X138001062Y-99204500D01*
X138001065Y-99204500D01*
X138198936Y-99204500D01*
X138218553Y-99200597D01*
X138239890Y-99196353D01*
X138309481Y-99202579D01*
X138351764Y-99230289D01*
X140113181Y-100991706D01*
X140146666Y-101053029D01*
X140149500Y-101079387D01*
X140149500Y-106672476D01*
X140157082Y-106700775D01*
X140157083Y-106700775D01*
X140187016Y-106812485D01*
X140244765Y-106912511D01*
X140259489Y-106938013D01*
X140259491Y-106938016D01*
X142468181Y-109146706D01*
X142501666Y-109208029D01*
X142504500Y-109234387D01*
X142504500Y-109605500D01*
X142484815Y-109672539D01*
X142432011Y-109718294D01*
X142380500Y-109729500D01*
X141991898Y-109729500D01*
X141952853Y-109734188D01*
X141903438Y-109740122D01*
X141762656Y-109795639D01*
X141642077Y-109887077D01*
X141550639Y-110007656D01*
X141495122Y-110148438D01*
X141489188Y-110197853D01*
X141484500Y-110236898D01*
X141484500Y-112363102D01*
X141490126Y-112409954D01*
X141495122Y-112451561D01*
X141550639Y-112592343D01*
X141642077Y-112712922D01*
X141762656Y-112804360D01*
X141762657Y-112804360D01*
X141762658Y-112804361D01*
X141903436Y-112859877D01*
X141991898Y-112870500D01*
X142130500Y-112870500D01*
X142197539Y-112890185D01*
X142243294Y-112942989D01*
X142254500Y-112994500D01*
X142254500Y-116362060D01*
X142234815Y-116429099D01*
X142218181Y-116449741D01*
X140494741Y-118173181D01*
X140433418Y-118206666D01*
X140407060Y-118209500D01*
X137056333Y-118209500D01*
X136989294Y-118189815D01*
X136943539Y-118137011D01*
X136933595Y-118067853D01*
X136962620Y-118004297D01*
X137008881Y-117970939D01*
X137109172Y-117929397D01*
X137109172Y-117929396D01*
X137109179Y-117929394D01*
X137240289Y-117841789D01*
X138596789Y-116485289D01*
X138684394Y-116354179D01*
X138744737Y-116208497D01*
X138775500Y-116053842D01*
X138775500Y-115896158D01*
X138775500Y-112994500D01*
X138795185Y-112927461D01*
X138847989Y-112881706D01*
X138899500Y-112870500D01*
X139038097Y-112870500D01*
X139038102Y-112870500D01*
X139126564Y-112859877D01*
X139267342Y-112804361D01*
X139387922Y-112712922D01*
X139479361Y-112592342D01*
X139534877Y-112451564D01*
X139545500Y-112363102D01*
X139545500Y-110236898D01*
X139534877Y-110148436D01*
X139479361Y-110007658D01*
X139479360Y-110007657D01*
X139479360Y-110007656D01*
X139387922Y-109887077D01*
X139267343Y-109795639D01*
X139126561Y-109740122D01*
X139080926Y-109734642D01*
X139038102Y-109729500D01*
X139038097Y-109729500D01*
X138649500Y-109729500D01*
X138582461Y-109709815D01*
X138536706Y-109657011D01*
X138525500Y-109605500D01*
X138525500Y-106802527D01*
X138525500Y-106802525D01*
X138487984Y-106662515D01*
X138469500Y-106630500D01*
X138415510Y-106536985D01*
X137038015Y-105159490D01*
X136912485Y-105087016D01*
X136912486Y-105087016D01*
X136877482Y-105077637D01*
X136772475Y-105049500D01*
X136772472Y-105049500D01*
X136013513Y-105049500D01*
X135946474Y-105029815D01*
X135913195Y-104998386D01*
X135890492Y-104967138D01*
X135829414Y-104883072D01*
X135706928Y-104760586D01*
X135566788Y-104658768D01*
X135412445Y-104580127D01*
X135247701Y-104526598D01*
X135247699Y-104526597D01*
X135247698Y-104526597D01*
X135116271Y-104505781D01*
X135076611Y-104499500D01*
X134903389Y-104499500D01*
X134863728Y-104505781D01*
X134732302Y-104526597D01*
X134567552Y-104580128D01*
X134413211Y-104658768D01*
X134333256Y-104716859D01*
X134273072Y-104760586D01*
X134273070Y-104760588D01*
X134273069Y-104760588D01*
X134150588Y-104883069D01*
X134150588Y-104883070D01*
X134150586Y-104883072D01*
X134106859Y-104943256D01*
X134048768Y-105023211D01*
X133970128Y-105177552D01*
X133916597Y-105342302D01*
X133891112Y-105503212D01*
X133889500Y-105513389D01*
X133889500Y-105686611D01*
X133916598Y-105857701D01*
X133970127Y-106022445D01*
X134048768Y-106176788D01*
X134150586Y-106316928D01*
X134273072Y-106439414D01*
X134413212Y-106541232D01*
X134567555Y-106619873D01*
X134732299Y-106673402D01*
X134903389Y-106700500D01*
X134903390Y-106700500D01*
X135076610Y-106700500D01*
X135076611Y-106700500D01*
X135247701Y-106673402D01*
X135412445Y-106619873D01*
X135566788Y-106541232D01*
X135706928Y-106439414D01*
X135829414Y-106316928D01*
X135913195Y-106201614D01*
X135968526Y-106158949D01*
X136013513Y-106150500D01*
X136420613Y-106150500D01*
X136487652Y-106170185D01*
X136508294Y-106186819D01*
X137388181Y-107066706D01*
X137421666Y-107128029D01*
X137424500Y-107154387D01*
X137424500Y-109605500D01*
X137404815Y-109672539D01*
X137352011Y-109718294D01*
X137300500Y-109729500D01*
X136911898Y-109729500D01*
X136872853Y-109734188D01*
X136823438Y-109740122D01*
X136682656Y-109795639D01*
X136562077Y-109887077D01*
X136470639Y-110007656D01*
X136415122Y-110148438D01*
X136409188Y-110197853D01*
X136404500Y-110236898D01*
X136404500Y-112363102D01*
X136410126Y-112409954D01*
X136415122Y-112451561D01*
X136470639Y-112592343D01*
X136562077Y-112712922D01*
X136682656Y-112804360D01*
X136682657Y-112804360D01*
X136682658Y-112804361D01*
X136823436Y-112859877D01*
X136911898Y-112870500D01*
X137050500Y-112870500D01*
X137117539Y-112890185D01*
X137163294Y-112942989D01*
X137174500Y-112994500D01*
X137174500Y-115592060D01*
X137154815Y-115659099D01*
X137138181Y-115679741D01*
X136434741Y-116383181D01*
X136373418Y-116416666D01*
X136347060Y-116419500D01*
X133851155Y-116419500D01*
X133696510Y-116450261D01*
X133696498Y-116450264D01*
X133550827Y-116510602D01*
X133550814Y-116510609D01*
X133419711Y-116598210D01*
X133419707Y-116598213D01*
X129060103Y-120957819D01*
X128414711Y-121603211D01*
X126339711Y-123678211D01*
X126283960Y-123733962D01*
X126228209Y-123789712D01*
X126140609Y-123920814D01*
X126140602Y-123920827D01*
X126080264Y-124066498D01*
X126080261Y-124066510D01*
X126049500Y-124221153D01*
X126049500Y-127687059D01*
X126029815Y-127754098D01*
X126013181Y-127774740D01*
X125386272Y-128401648D01*
X125324949Y-128435133D01*
X125279193Y-128436440D01*
X125106632Y-128409109D01*
X125045962Y-128399500D01*
X124794038Y-128399500D01*
X124669626Y-128419205D01*
X124545214Y-128438910D01*
X124305616Y-128516760D01*
X124081151Y-128631132D01*
X123877350Y-128779201D01*
X123877345Y-128779205D01*
X123699205Y-128957345D01*
X123699201Y-128957350D01*
X123551130Y-129161153D01*
X123534984Y-129192842D01*
X123487010Y-129243637D01*
X123419189Y-129260432D01*
X123353054Y-129237894D01*
X123309603Y-129183179D01*
X123300500Y-129136546D01*
X123300500Y-125202938D01*
X123320185Y-125135899D01*
X123336814Y-125115262D01*
X131310079Y-117141996D01*
X131310084Y-117141993D01*
X131320287Y-117131789D01*
X131320289Y-117131789D01*
X132416472Y-116035606D01*
X132861788Y-115590290D01*
X132861789Y-115590289D01*
X133516789Y-114935289D01*
X133604394Y-114804179D01*
X133664737Y-114658497D01*
X133695500Y-114503842D01*
X133695500Y-114346158D01*
X133695500Y-112994500D01*
X133715185Y-112927461D01*
X133767989Y-112881706D01*
X133819500Y-112870500D01*
X133958097Y-112870500D01*
X133958102Y-112870500D01*
X134046564Y-112859877D01*
X134187342Y-112804361D01*
X134307922Y-112712922D01*
X134399361Y-112592342D01*
X134454877Y-112451564D01*
X134465500Y-112363102D01*
X134465500Y-110236898D01*
X134454877Y-110148436D01*
X134399361Y-110007658D01*
X134399360Y-110007657D01*
X134399360Y-110007656D01*
X134307922Y-109887077D01*
X134187343Y-109795639D01*
X134046561Y-109740122D01*
X134000926Y-109734642D01*
X133958102Y-109729500D01*
X131831898Y-109729500D01*
X131792853Y-109734188D01*
X131743438Y-109740122D01*
X131602656Y-109795639D01*
X131482077Y-109887077D01*
X131390639Y-110007656D01*
X131335122Y-110148438D01*
X131329188Y-110197853D01*
X131324500Y-110236898D01*
X131324500Y-112363102D01*
X131330126Y-112409954D01*
X131335122Y-112451561D01*
X131390639Y-112592343D01*
X131482077Y-112712922D01*
X131602656Y-112804360D01*
X131602657Y-112804360D01*
X131602658Y-112804361D01*
X131743436Y-112859877D01*
X131831898Y-112870500D01*
X131970500Y-112870500D01*
X132037539Y-112890185D01*
X132083294Y-112942989D01*
X132094500Y-112994500D01*
X132094500Y-114042060D01*
X132074815Y-114109099D01*
X132058181Y-114129741D01*
X130188209Y-115999713D01*
X121782269Y-124405652D01*
X121782268Y-124405653D01*
X120425477Y-125762445D01*
X119329711Y-126858211D01*
X119273960Y-126913962D01*
X119218209Y-126969712D01*
X119130609Y-127100814D01*
X119130602Y-127100827D01*
X119070264Y-127246498D01*
X119070261Y-127246510D01*
X119039500Y-127401153D01*
X119039500Y-128540089D01*
X119019815Y-128607128D01*
X118988385Y-128640407D01*
X118797350Y-128779201D01*
X118797345Y-128779205D01*
X118619205Y-128957345D01*
X118619201Y-128957350D01*
X118471132Y-129161151D01*
X118356760Y-129385616D01*
X118278910Y-129625214D01*
X118239500Y-129874038D01*
X118239500Y-130125961D01*
X118278910Y-130374785D01*
X118356760Y-130614383D01*
X118406984Y-130712952D01*
X118461231Y-130819418D01*
X118471132Y-130838848D01*
X118619201Y-131042649D01*
X118619205Y-131042654D01*
X118797345Y-131220794D01*
X118797350Y-131220798D01*
X118937116Y-131322343D01*
X119001155Y-131368870D01*
X119144184Y-131441747D01*
X119225616Y-131483239D01*
X119225618Y-131483239D01*
X119225621Y-131483241D01*
X119465215Y-131561090D01*
X119714038Y-131600500D01*
X119714039Y-131600500D01*
X119965961Y-131600500D01*
X119965962Y-131600500D01*
X120214785Y-131561090D01*
X120454379Y-131483241D01*
X120678845Y-131368870D01*
X120882656Y-131220793D01*
X121060793Y-131042656D01*
X121208870Y-130838845D01*
X121323241Y-130614379D01*
X121401090Y-130374785D01*
X121440500Y-130125962D01*
X121440500Y-129874038D01*
X121401090Y-129625215D01*
X121323241Y-129385621D01*
X121323239Y-129385618D01*
X121323239Y-129385616D01*
X121259454Y-129260432D01*
X121208870Y-129161155D01*
X121179415Y-129120613D01*
X121060798Y-128957350D01*
X121060794Y-128957345D01*
X120882654Y-128779205D01*
X120882649Y-128779201D01*
X120691615Y-128640407D01*
X120648949Y-128585077D01*
X120640500Y-128540089D01*
X120640500Y-127862940D01*
X120660185Y-127795901D01*
X120676819Y-127775259D01*
X121487819Y-126964259D01*
X121549142Y-126930774D01*
X121618834Y-126935758D01*
X121674767Y-126977630D01*
X121699184Y-127043094D01*
X121699500Y-127051940D01*
X121699500Y-131528846D01*
X121730261Y-131683489D01*
X121730264Y-131683501D01*
X121790602Y-131829172D01*
X121790609Y-131829185D01*
X121878210Y-131960288D01*
X121878213Y-131960292D01*
X122755740Y-132837819D01*
X122789225Y-132899142D01*
X122784241Y-132968834D01*
X122742369Y-133024767D01*
X122676905Y-133049184D01*
X122668059Y-133049500D01*
X111309387Y-133049500D01*
X111242348Y-133029815D01*
X111221706Y-133013181D01*
X110266819Y-132058294D01*
X110252115Y-132031366D01*
X110235523Y-132005548D01*
X110234631Y-131999347D01*
X110233334Y-131996971D01*
X110230500Y-131970613D01*
X110230500Y-131724500D01*
X110250185Y-131657461D01*
X110302989Y-131611706D01*
X110354500Y-131600500D01*
X110773097Y-131600500D01*
X110773102Y-131600500D01*
X110861564Y-131589877D01*
X111002342Y-131534361D01*
X111122922Y-131442922D01*
X111214361Y-131322342D01*
X111269877Y-131181564D01*
X111280500Y-131093102D01*
X111280500Y-129882014D01*
X112960000Y-129882014D01*
X112960000Y-130117985D01*
X112990799Y-130351914D01*
X113051870Y-130579837D01*
X113142160Y-130797819D01*
X113142165Y-130797828D01*
X113260144Y-131002171D01*
X113260145Y-131002172D01*
X113322721Y-131083723D01*
X114158958Y-130247487D01*
X114183978Y-130307890D01*
X114255112Y-130414351D01*
X114345649Y-130504888D01*
X114452110Y-130576022D01*
X114512511Y-130601041D01*
X113676275Y-131437277D01*
X113757827Y-131499854D01*
X113757828Y-131499855D01*
X113962171Y-131617834D01*
X113962180Y-131617839D01*
X114180163Y-131708129D01*
X114180161Y-131708129D01*
X114408085Y-131769200D01*
X114642014Y-131799999D01*
X114642029Y-131800000D01*
X114877971Y-131800000D01*
X114877985Y-131799999D01*
X115111914Y-131769200D01*
X115339837Y-131708129D01*
X115557819Y-131617839D01*
X115557828Y-131617834D01*
X115762181Y-131499850D01*
X115843723Y-131437279D01*
X115843723Y-131437276D01*
X115007487Y-130601041D01*
X115067890Y-130576022D01*
X115174351Y-130504888D01*
X115264888Y-130414351D01*
X115336022Y-130307890D01*
X115361041Y-130247487D01*
X116197276Y-131083723D01*
X116197279Y-131083723D01*
X116259850Y-131002181D01*
X116377834Y-130797828D01*
X116377839Y-130797819D01*
X116468129Y-130579837D01*
X116529200Y-130351914D01*
X116559999Y-130117985D01*
X116560000Y-130117971D01*
X116560000Y-129882028D01*
X116559999Y-129882014D01*
X116529200Y-129648085D01*
X116468129Y-129420162D01*
X116377839Y-129202180D01*
X116377834Y-129202171D01*
X116259855Y-128997828D01*
X116259854Y-128997827D01*
X116197277Y-128916275D01*
X115361041Y-129752511D01*
X115336022Y-129692110D01*
X115264888Y-129585649D01*
X115174351Y-129495112D01*
X115067890Y-129423978D01*
X115007488Y-129398958D01*
X115843723Y-128562721D01*
X115762172Y-128500145D01*
X115762171Y-128500144D01*
X115557828Y-128382165D01*
X115557819Y-128382160D01*
X115339836Y-128291870D01*
X115339838Y-128291870D01*
X115111914Y-128230799D01*
X114877985Y-128200000D01*
X114642014Y-128200000D01*
X114408085Y-128230799D01*
X114180162Y-128291870D01*
X113962180Y-128382160D01*
X113962171Y-128382165D01*
X113757828Y-128500144D01*
X113757818Y-128500150D01*
X113676275Y-128562720D01*
X113676275Y-128562721D01*
X114512512Y-129398958D01*
X114452110Y-129423978D01*
X114345649Y-129495112D01*
X114255112Y-129585649D01*
X114183978Y-129692110D01*
X114158958Y-129752511D01*
X113322721Y-128916275D01*
X113322720Y-128916275D01*
X113260150Y-128997818D01*
X113260144Y-128997828D01*
X113142165Y-129202171D01*
X113142160Y-129202180D01*
X113051870Y-129420162D01*
X112990799Y-129648085D01*
X112960000Y-129882014D01*
X111280500Y-129882014D01*
X111280500Y-128906898D01*
X111269877Y-128818436D01*
X111214361Y-128677658D01*
X111214360Y-128677657D01*
X111214360Y-128677656D01*
X111122922Y-128557077D01*
X111002343Y-128465639D01*
X110873419Y-128414798D01*
X110861564Y-128410123D01*
X110861563Y-128410122D01*
X110861561Y-128410122D01*
X110815926Y-128404642D01*
X110773102Y-128399500D01*
X108586898Y-128399500D01*
X108547853Y-128404188D01*
X108498438Y-128410122D01*
X108357656Y-128465639D01*
X108237077Y-128557077D01*
X108145639Y-128677656D01*
X108090122Y-128818438D01*
X108085954Y-128853149D01*
X108079500Y-128906898D01*
X108079500Y-131093102D01*
X108085126Y-131139954D01*
X108090122Y-131181561D01*
X108090122Y-131181563D01*
X108090123Y-131181564D01*
X108105593Y-131220793D01*
X108145639Y-131322343D01*
X108237077Y-131442922D01*
X108357656Y-131534360D01*
X108357657Y-131534360D01*
X108357658Y-131534361D01*
X108498436Y-131589877D01*
X108586898Y-131600500D01*
X109005500Y-131600500D01*
X109072539Y-131620185D01*
X109118294Y-131672989D01*
X109129500Y-131724500D01*
X109129500Y-132177526D01*
X109129500Y-132322474D01*
X109167016Y-132462485D01*
X109239489Y-132588013D01*
X109239491Y-132588016D01*
X109489294Y-132837819D01*
X109522779Y-132899142D01*
X109517795Y-132968834D01*
X109475923Y-133024767D01*
X109410459Y-133049184D01*
X109401613Y-133049500D01*
X107929387Y-133049500D01*
X107862348Y-133029815D01*
X107841706Y-133013181D01*
X104036819Y-129208294D01*
X104003334Y-129146971D01*
X104000500Y-129120613D01*
X104000500Y-114579387D01*
X104020185Y-114512348D01*
X104036818Y-114491706D01*
X104053220Y-114475305D01*
X104740510Y-113788014D01*
X104812984Y-113662485D01*
X104850500Y-113522474D01*
X104850500Y-113522470D01*
X104851065Y-113518181D01*
X104852547Y-113514829D01*
X104852603Y-113514623D01*
X104852635Y-113514631D01*
X104879331Y-113454284D01*
X104937655Y-113415813D01*
X105007520Y-113414981D01*
X105061685Y-113446685D01*
X105090000Y-113475000D01*
X122780000Y-113475000D01*
X122780000Y-111360258D01*
X124479500Y-111360258D01*
X124479500Y-111589741D01*
X124504446Y-111779215D01*
X124509452Y-111817238D01*
X124509453Y-111817240D01*
X124568842Y-112038887D01*
X124656650Y-112250876D01*
X124656657Y-112250890D01*
X124771392Y-112449617D01*
X124911081Y-112631661D01*
X124911089Y-112631670D01*
X125073330Y-112793911D01*
X125073338Y-112793918D01*
X125255382Y-112933607D01*
X125255385Y-112933608D01*
X125255388Y-112933611D01*
X125454112Y-113048344D01*
X125454117Y-113048346D01*
X125454123Y-113048349D01*
X125545480Y-113086190D01*
X125666113Y-113136158D01*
X125887762Y-113195548D01*
X126115266Y-113225500D01*
X126115273Y-113225500D01*
X126344727Y-113225500D01*
X126344734Y-113225500D01*
X126572238Y-113195548D01*
X126793887Y-113136158D01*
X127005888Y-113048344D01*
X127204612Y-112933611D01*
X127386661Y-112793919D01*
X127386665Y-112793914D01*
X127386670Y-112793911D01*
X127548911Y-112631670D01*
X127548914Y-112631665D01*
X127548919Y-112631661D01*
X127688611Y-112449612D01*
X127803344Y-112250888D01*
X127891158Y-112038887D01*
X127950548Y-111817238D01*
X127980500Y-111589734D01*
X127980500Y-111360266D01*
X127950548Y-111132762D01*
X127891158Y-110911113D01*
X127803344Y-110699112D01*
X127688611Y-110500388D01*
X127688608Y-110500385D01*
X127688607Y-110500382D01*
X127548918Y-110318338D01*
X127548911Y-110318330D01*
X127386670Y-110156089D01*
X127386661Y-110156081D01*
X127204617Y-110016392D01*
X127005890Y-109901657D01*
X127005876Y-109901650D01*
X126793887Y-109813842D01*
X126572238Y-109754452D01*
X126534215Y-109749446D01*
X126344741Y-109724500D01*
X126344734Y-109724500D01*
X126115266Y-109724500D01*
X126115258Y-109724500D01*
X125898715Y-109753009D01*
X125887762Y-109754452D01*
X125794076Y-109779554D01*
X125666112Y-109813842D01*
X125454123Y-109901650D01*
X125454109Y-109901657D01*
X125255382Y-110016392D01*
X125073338Y-110156081D01*
X124911081Y-110318338D01*
X124771392Y-110500382D01*
X124656657Y-110699109D01*
X124656650Y-110699123D01*
X124568842Y-110911112D01*
X124509453Y-111132759D01*
X124509451Y-111132770D01*
X124479500Y-111360258D01*
X122780000Y-111360258D01*
X122780000Y-106985000D01*
X105792887Y-106985000D01*
X105725848Y-106965315D01*
X105680093Y-106912511D01*
X105670149Y-106843353D01*
X105699174Y-106779797D01*
X105705206Y-106773319D01*
X106171134Y-106307391D01*
X107740510Y-104738014D01*
X107812984Y-104612485D01*
X107822086Y-104578515D01*
X107850500Y-104472475D01*
X107850500Y-73179386D01*
X107870185Y-73112347D01*
X107886819Y-73091705D01*
X109891705Y-71086819D01*
X109953028Y-71053334D01*
X109979386Y-71050500D01*
X126025500Y-71050500D01*
X126034185Y-71053050D01*
X126043147Y-71051762D01*
X126067187Y-71062740D01*
X126092539Y-71070185D01*
X126098466Y-71077025D01*
X126106703Y-71080787D01*
X126120992Y-71103021D01*
X126138294Y-71122989D01*
X126140581Y-71133503D01*
X126144477Y-71139565D01*
X126149500Y-71174500D01*
X126149500Y-71229921D01*
X126129815Y-71296960D01*
X126081796Y-71340405D01*
X126018388Y-71372713D01*
X125852786Y-71493028D01*
X125708028Y-71637786D01*
X125587715Y-71803386D01*
X125494781Y-71985776D01*
X125431522Y-72180465D01*
X125399500Y-72382648D01*
X125399500Y-72587351D01*
X125431522Y-72789534D01*
X125494781Y-72984223D01*
X125507661Y-73009500D01*
X125585214Y-73161706D01*
X125587715Y-73166613D01*
X125708028Y-73332213D01*
X125708034Y-73332219D01*
X125852781Y-73476966D01*
X125928727Y-73532144D01*
X125971393Y-73587473D01*
X125977372Y-73657086D01*
X125944767Y-73718882D01*
X125917605Y-73738915D01*
X125917987Y-73739537D01*
X125913835Y-73742081D01*
X125830894Y-73802340D01*
X126562425Y-74533871D01*
X126503147Y-74549755D01*
X126386853Y-74616898D01*
X126291898Y-74711853D01*
X126224755Y-74828147D01*
X126208871Y-74887425D01*
X125477340Y-74155894D01*
X125417084Y-74238830D01*
X125309897Y-74449197D01*
X125236934Y-74673752D01*
X125200000Y-74906947D01*
X125200000Y-75143052D01*
X125236934Y-75376247D01*
X125309897Y-75600802D01*
X125417087Y-75811174D01*
X125477338Y-75894104D01*
X125477340Y-75894105D01*
X126208871Y-75162574D01*
X126224755Y-75221853D01*
X126291898Y-75338147D01*
X126386853Y-75433102D01*
X126503147Y-75500245D01*
X126562425Y-75516128D01*
X125830893Y-76247658D01*
X125913835Y-76307919D01*
X125917981Y-76310460D01*
X125917160Y-76311799D01*
X125962928Y-76355019D01*
X125979728Y-76422839D01*
X125957194Y-76488976D01*
X125928727Y-76517855D01*
X125852782Y-76573032D01*
X125708028Y-76717786D01*
X125587715Y-76883386D01*
X125494781Y-77065776D01*
X125431522Y-77260465D01*
X125399500Y-77462648D01*
X125399500Y-77667351D01*
X125431522Y-77869534D01*
X125494781Y-78064223D01*
X125587715Y-78246613D01*
X125708028Y-78412213D01*
X125852786Y-78556971D01*
X126007749Y-78669556D01*
X126018390Y-78677287D01*
X126109840Y-78723883D01*
X126111080Y-78724515D01*
X126161876Y-78772490D01*
X126178671Y-78840311D01*
X126156134Y-78906446D01*
X126111080Y-78945485D01*
X126018386Y-78992715D01*
X125852786Y-79113028D01*
X125708028Y-79257786D01*
X125587715Y-79423386D01*
X125494781Y-79605776D01*
X125431522Y-79800465D01*
X125399500Y-80002648D01*
X125399500Y-80207351D01*
X125431522Y-80409534D01*
X125494781Y-80604223D01*
X125587715Y-80786613D01*
X125708028Y-80952213D01*
X125852786Y-81096971D01*
X126007749Y-81209556D01*
X126018390Y-81217287D01*
X126109840Y-81263883D01*
X126111080Y-81264515D01*
X126161876Y-81312490D01*
X126178671Y-81380311D01*
X126156134Y-81446446D01*
X126111080Y-81485485D01*
X126018386Y-81532715D01*
X125852786Y-81653028D01*
X125708028Y-81797786D01*
X125587715Y-81963386D01*
X125494781Y-82145776D01*
X125431522Y-82340465D01*
X125399500Y-82542648D01*
X125399500Y-82747351D01*
X125431522Y-82949534D01*
X125494781Y-83144223D01*
X125587715Y-83326613D01*
X125708028Y-83492213D01*
X125852786Y-83636971D01*
X126007749Y-83749556D01*
X126018390Y-83757287D01*
X126108242Y-83803069D01*
X126111080Y-83804515D01*
X126161876Y-83852490D01*
X126178671Y-83920311D01*
X126156134Y-83986446D01*
X126111080Y-84025485D01*
X126018386Y-84072715D01*
X125852786Y-84193028D01*
X125708028Y-84337786D01*
X125587715Y-84503386D01*
X125494781Y-84685776D01*
X125431522Y-84880465D01*
X125399500Y-85082648D01*
X125399500Y-85287351D01*
X125431522Y-85489534D01*
X125494781Y-85684223D01*
X125587715Y-85866613D01*
X125708028Y-86032213D01*
X125852786Y-86176971D01*
X126007749Y-86289556D01*
X126018390Y-86297287D01*
X126109840Y-86343883D01*
X126111080Y-86344515D01*
X126161876Y-86392490D01*
X126178671Y-86460311D01*
X126156134Y-86526446D01*
X126111080Y-86565485D01*
X126018386Y-86612715D01*
X125852786Y-86733028D01*
X125708028Y-86877786D01*
X125587715Y-87043386D01*
X125494781Y-87225776D01*
X125431522Y-87420465D01*
X125399500Y-87622648D01*
X125399500Y-87827351D01*
X125431522Y-88029534D01*
X125494781Y-88224223D01*
X125587715Y-88406613D01*
X125708028Y-88572213D01*
X125852786Y-88716971D01*
X126007749Y-88829556D01*
X126018390Y-88837287D01*
X126109840Y-88883883D01*
X126111080Y-88884515D01*
X126161876Y-88932490D01*
X126178671Y-89000311D01*
X126156134Y-89066446D01*
X126111080Y-89105485D01*
X126018386Y-89152715D01*
X125852786Y-89273028D01*
X125708028Y-89417786D01*
X125587715Y-89583386D01*
X125494781Y-89765776D01*
X125431522Y-89960465D01*
X125399500Y-90162648D01*
X125399500Y-90367351D01*
X125431522Y-90569534D01*
X125494781Y-90764223D01*
X125519352Y-90812445D01*
X125581631Y-90934674D01*
X125587715Y-90946613D01*
X125708028Y-91112213D01*
X125852786Y-91256971D01*
X125955000Y-91331232D01*
X126018390Y-91377287D01*
X126082340Y-91409871D01*
X126111080Y-91424515D01*
X126161876Y-91472490D01*
X126178671Y-91540311D01*
X126156134Y-91606446D01*
X126111080Y-91645485D01*
X126018386Y-91692715D01*
X125852786Y-91813028D01*
X125708028Y-91957786D01*
X125587715Y-92123386D01*
X125494781Y-92305776D01*
X125431522Y-92500465D01*
X125399500Y-92702648D01*
X125399500Y-92907351D01*
X125431522Y-93109534D01*
X125494781Y-93304223D01*
X125514455Y-93342834D01*
X125568371Y-93448650D01*
X125587715Y-93486613D01*
X125708028Y-93652213D01*
X125852786Y-93796971D01*
X125963703Y-93877555D01*
X126018390Y-93917287D01*
X126109840Y-93963883D01*
X126111080Y-93964515D01*
X126161876Y-94012490D01*
X126178671Y-94080311D01*
X126156134Y-94146446D01*
X126111080Y-94185485D01*
X126018386Y-94232715D01*
X125852786Y-94353028D01*
X125708028Y-94497786D01*
X125587715Y-94663386D01*
X125494781Y-94845776D01*
X125431522Y-95040465D01*
X125399500Y-95242648D01*
X125399500Y-95447351D01*
X125431522Y-95649534D01*
X125494781Y-95844223D01*
X125587715Y-96026613D01*
X125708028Y-96192213D01*
X125852786Y-96336971D01*
X126007749Y-96449556D01*
X126018390Y-96457287D01*
X126109840Y-96503883D01*
X126111080Y-96504515D01*
X126161876Y-96552490D01*
X126178671Y-96620311D01*
X126156134Y-96686446D01*
X126111080Y-96725485D01*
X126018386Y-96772715D01*
X125852786Y-96893028D01*
X125708028Y-97037786D01*
X125587715Y-97203386D01*
X125494781Y-97385776D01*
X125431522Y-97580465D01*
X125399500Y-97782648D01*
X125399500Y-97987351D01*
X125431522Y-98189534D01*
X125494781Y-98384223D01*
X125587715Y-98566613D01*
X125708028Y-98732213D01*
X125852786Y-98876971D01*
X125986328Y-98973993D01*
X126018390Y-98997287D01*
X126109840Y-99043883D01*
X126111080Y-99044515D01*
X126161876Y-99092490D01*
X126178671Y-99160311D01*
X126156134Y-99226446D01*
X126111080Y-99265485D01*
X126018386Y-99312715D01*
X125852786Y-99433028D01*
X125708028Y-99577786D01*
X125587715Y-99743386D01*
X125494781Y-99925776D01*
X125431522Y-100120465D01*
X125399500Y-100322648D01*
X125399500Y-100527351D01*
X125431522Y-100729534D01*
X125494781Y-100924223D01*
X125529166Y-100991706D01*
X125577522Y-101086610D01*
X125587715Y-101106613D01*
X125708028Y-101272213D01*
X125852786Y-101416971D01*
X126007749Y-101529556D01*
X126018390Y-101537287D01*
X126109840Y-101583883D01*
X126111080Y-101584515D01*
X126161876Y-101632490D01*
X126178671Y-101700311D01*
X126156134Y-101766446D01*
X126111080Y-101805485D01*
X126018386Y-101852715D01*
X125852786Y-101973028D01*
X125708028Y-102117786D01*
X125587715Y-102283386D01*
X125494781Y-102465776D01*
X125431522Y-102660465D01*
X125399500Y-102862648D01*
X125399500Y-103067351D01*
X125431522Y-103269534D01*
X125494781Y-103464223D01*
X125554032Y-103580507D01*
X125577522Y-103626610D01*
X125587715Y-103646613D01*
X125708028Y-103812213D01*
X125852786Y-103956971D01*
X125994878Y-104060205D01*
X126018390Y-104077287D01*
X126103422Y-104120613D01*
X126111080Y-104124515D01*
X126161876Y-104172490D01*
X126178671Y-104240311D01*
X126156134Y-104306446D01*
X126111080Y-104345485D01*
X126018386Y-104392715D01*
X125852786Y-104513028D01*
X125708028Y-104657786D01*
X125587715Y-104823386D01*
X125494781Y-105005776D01*
X125431522Y-105200465D01*
X125399500Y-105402648D01*
X125399500Y-105607351D01*
X125431522Y-105809534D01*
X125494781Y-106004223D01*
X125558691Y-106129653D01*
X125582708Y-106176788D01*
X125587715Y-106186613D01*
X125708028Y-106352213D01*
X125852786Y-106496971D01*
X125994154Y-106599679D01*
X126018390Y-106617287D01*
X126095915Y-106656788D01*
X126111080Y-106664515D01*
X126161876Y-106712490D01*
X126178671Y-106780311D01*
X126156134Y-106846446D01*
X126111080Y-106885485D01*
X126018386Y-106932715D01*
X125852786Y-107053028D01*
X125708028Y-107197786D01*
X125587715Y-107363386D01*
X125494781Y-107545776D01*
X125431522Y-107740465D01*
X125399500Y-107942648D01*
X125399500Y-108147351D01*
X125431522Y-108349534D01*
X125494781Y-108544223D01*
X125558691Y-108669653D01*
X125577522Y-108706610D01*
X125587715Y-108726613D01*
X125708028Y-108892213D01*
X125852786Y-109036971D01*
X126003826Y-109146706D01*
X126018390Y-109157287D01*
X126117977Y-109208029D01*
X126200776Y-109250218D01*
X126200778Y-109250218D01*
X126200781Y-109250220D01*
X126305137Y-109284127D01*
X126395465Y-109313477D01*
X126496557Y-109329488D01*
X126597648Y-109345500D01*
X126597649Y-109345500D01*
X126802351Y-109345500D01*
X126802352Y-109345500D01*
X127004534Y-109313477D01*
X127199219Y-109250220D01*
X127381610Y-109157287D01*
X127474590Y-109089732D01*
X127547213Y-109036971D01*
X127547215Y-109036968D01*
X127547219Y-109036966D01*
X127691966Y-108892219D01*
X127691968Y-108892215D01*
X127691971Y-108892213D01*
X127800731Y-108742515D01*
X127812287Y-108726610D01*
X127905220Y-108544219D01*
X127968477Y-108349534D01*
X128000500Y-108147352D01*
X128000500Y-107942648D01*
X127984323Y-107840510D01*
X127968477Y-107740465D01*
X127922800Y-107599886D01*
X127905220Y-107545781D01*
X127905218Y-107545778D01*
X127905218Y-107545776D01*
X127871503Y-107479607D01*
X127812287Y-107363390D01*
X127786230Y-107327525D01*
X127691971Y-107197786D01*
X127547213Y-107053028D01*
X127381614Y-106932715D01*
X127341910Y-106912485D01*
X127288917Y-106885483D01*
X127238123Y-106837511D01*
X127221328Y-106769690D01*
X127243865Y-106703555D01*
X127288917Y-106664516D01*
X127381610Y-106617287D01*
X127405846Y-106599679D01*
X127547213Y-106496971D01*
X127547215Y-106496968D01*
X127547219Y-106496966D01*
X127691966Y-106352219D01*
X127691968Y-106352215D01*
X127691971Y-106352213D01*
X127744732Y-106279590D01*
X127812287Y-106186610D01*
X127905220Y-106004219D01*
X127968477Y-105809534D01*
X128000500Y-105607352D01*
X128000500Y-105402648D01*
X127981554Y-105283028D01*
X127968477Y-105200465D01*
X127913029Y-105029815D01*
X127905220Y-105005781D01*
X127905218Y-105005778D01*
X127905218Y-105005776D01*
X127871503Y-104939607D01*
X127812287Y-104823390D01*
X127804556Y-104812749D01*
X127691971Y-104657786D01*
X127547213Y-104513028D01*
X127381614Y-104392715D01*
X127355503Y-104379411D01*
X127288917Y-104345483D01*
X127238123Y-104297511D01*
X127221328Y-104229690D01*
X127243865Y-104163555D01*
X127288917Y-104124516D01*
X127381610Y-104077287D01*
X127405122Y-104060205D01*
X127547213Y-103956971D01*
X127547215Y-103956968D01*
X127547219Y-103956966D01*
X127691966Y-103812219D01*
X127691968Y-103812215D01*
X127691971Y-103812213D01*
X127744732Y-103739590D01*
X127812287Y-103646610D01*
X127905220Y-103464219D01*
X127968477Y-103269534D01*
X128000500Y-103067352D01*
X128000500Y-102862648D01*
X127974832Y-102700588D01*
X127968477Y-102660465D01*
X127922878Y-102520127D01*
X127905220Y-102465781D01*
X127905218Y-102465778D01*
X127905218Y-102465776D01*
X127826957Y-102312182D01*
X127812287Y-102283390D01*
X127804556Y-102272749D01*
X127691971Y-102117786D01*
X127547213Y-101973028D01*
X127381614Y-101852715D01*
X127355503Y-101839411D01*
X127288917Y-101805483D01*
X127238123Y-101757511D01*
X127221328Y-101689690D01*
X127243865Y-101623555D01*
X127288917Y-101584516D01*
X127381610Y-101537287D01*
X127423331Y-101506975D01*
X127547213Y-101416971D01*
X127547215Y-101416968D01*
X127547219Y-101416966D01*
X127691966Y-101272219D01*
X127691968Y-101272215D01*
X127691971Y-101272213D01*
X127744732Y-101199590D01*
X127812287Y-101106610D01*
X127905220Y-100924219D01*
X127968477Y-100729534D01*
X128000500Y-100527352D01*
X128000500Y-100322648D01*
X127979955Y-100192931D01*
X127968477Y-100120465D01*
X127922877Y-99980125D01*
X127905220Y-99925781D01*
X127905218Y-99925778D01*
X127905218Y-99925776D01*
X127871503Y-99859607D01*
X127812287Y-99743390D01*
X127804556Y-99732749D01*
X127691971Y-99577786D01*
X127547213Y-99433028D01*
X127381614Y-99312715D01*
X127375006Y-99309348D01*
X127288917Y-99265483D01*
X127238123Y-99217511D01*
X127221328Y-99149690D01*
X127243865Y-99083555D01*
X127288917Y-99044516D01*
X127381610Y-98997287D01*
X127413672Y-98973993D01*
X127547213Y-98876971D01*
X127547215Y-98876968D01*
X127547219Y-98876966D01*
X127691966Y-98732219D01*
X127691968Y-98732215D01*
X127691971Y-98732213D01*
X127744732Y-98659590D01*
X127812287Y-98566610D01*
X127905220Y-98384219D01*
X127968477Y-98189534D01*
X128000500Y-97987352D01*
X128000500Y-97782648D01*
X127968477Y-97580466D01*
X127968476Y-97580462D01*
X127968476Y-97580461D01*
X127937742Y-97485872D01*
X127926454Y-97451131D01*
X134595500Y-97451131D01*
X134595500Y-98948856D01*
X134595502Y-98948882D01*
X134598413Y-98973987D01*
X134598415Y-98973991D01*
X134643793Y-99076764D01*
X134643794Y-99076765D01*
X134723235Y-99156206D01*
X134826009Y-99201585D01*
X134851135Y-99204500D01*
X136348864Y-99204499D01*
X136348879Y-99204497D01*
X136348882Y-99204497D01*
X136373987Y-99201586D01*
X136373988Y-99201585D01*
X136373991Y-99201585D01*
X136476765Y-99156206D01*
X136556206Y-99076765D01*
X136601585Y-98973991D01*
X136604500Y-98948865D01*
X136604499Y-97451136D01*
X136604497Y-97451117D01*
X136601586Y-97426012D01*
X136601585Y-97426010D01*
X136601585Y-97426009D01*
X136556206Y-97323235D01*
X136476765Y-97243794D01*
X136454817Y-97234103D01*
X136373992Y-97198415D01*
X136348865Y-97195500D01*
X134851143Y-97195500D01*
X134851117Y-97195502D01*
X134826012Y-97198413D01*
X134826008Y-97198415D01*
X134723235Y-97243793D01*
X134643794Y-97323234D01*
X134598415Y-97426006D01*
X134598415Y-97426008D01*
X134595500Y-97451131D01*
X127926454Y-97451131D01*
X127905218Y-97385776D01*
X127857981Y-97293069D01*
X127812287Y-97203390D01*
X127772646Y-97148828D01*
X127691971Y-97037786D01*
X127547213Y-96893028D01*
X127381614Y-96772715D01*
X127338313Y-96750652D01*
X127288917Y-96725483D01*
X127238123Y-96677511D01*
X127221328Y-96609690D01*
X127243865Y-96543555D01*
X127288917Y-96504516D01*
X127381610Y-96457287D01*
X127402770Y-96441913D01*
X127547213Y-96336971D01*
X127547215Y-96336968D01*
X127547219Y-96336966D01*
X127691966Y-96192219D01*
X127691968Y-96192215D01*
X127691971Y-96192213D01*
X127776021Y-96076526D01*
X127812287Y-96026610D01*
X127905220Y-95844219D01*
X127968477Y-95649534D01*
X128000500Y-95447352D01*
X128000500Y-95242648D01*
X127968477Y-95040466D01*
X127965016Y-95029815D01*
X127905218Y-94845776D01*
X127842377Y-94722445D01*
X127812287Y-94663390D01*
X127786197Y-94627480D01*
X127691971Y-94497786D01*
X127547213Y-94353028D01*
X127381614Y-94232715D01*
X127363124Y-94223294D01*
X127288917Y-94185483D01*
X127238123Y-94137511D01*
X127221328Y-94069690D01*
X127243865Y-94003555D01*
X127288917Y-93964516D01*
X127381610Y-93917287D01*
X127436301Y-93877552D01*
X127547213Y-93796971D01*
X127547215Y-93796968D01*
X127547219Y-93796966D01*
X127691966Y-93652219D01*
X127691968Y-93652215D01*
X127691971Y-93652213D01*
X127744732Y-93579590D01*
X127812287Y-93486610D01*
X127905220Y-93304219D01*
X127968477Y-93109534D01*
X128000500Y-92907352D01*
X128000500Y-92702648D01*
X127968477Y-92500466D01*
X127905220Y-92305781D01*
X127905218Y-92305778D01*
X127905218Y-92305776D01*
X127853908Y-92205076D01*
X127812287Y-92123390D01*
X127804556Y-92112749D01*
X127691971Y-91957786D01*
X127547213Y-91813028D01*
X127381614Y-91692715D01*
X127375006Y-91689348D01*
X127288917Y-91645483D01*
X127238123Y-91597511D01*
X127221328Y-91529690D01*
X127243865Y-91463555D01*
X127288917Y-91424516D01*
X127381610Y-91377287D01*
X127445001Y-91331231D01*
X127547213Y-91256971D01*
X127547215Y-91256968D01*
X127547219Y-91256966D01*
X127691966Y-91112219D01*
X127691968Y-91112215D01*
X127691971Y-91112213D01*
X127752873Y-91028387D01*
X127812287Y-90946610D01*
X127905220Y-90764219D01*
X127968477Y-90569534D01*
X128000500Y-90367352D01*
X128000500Y-90162648D01*
X127968477Y-89960466D01*
X127905220Y-89765781D01*
X127905218Y-89765778D01*
X127905218Y-89765776D01*
X127857981Y-89673069D01*
X127812287Y-89583390D01*
X127788454Y-89550586D01*
X127691971Y-89417786D01*
X127547213Y-89273028D01*
X127381614Y-89152715D01*
X127318610Y-89120613D01*
X127288917Y-89105483D01*
X127238123Y-89057511D01*
X127221328Y-88989690D01*
X127243865Y-88923555D01*
X127288917Y-88884516D01*
X127381610Y-88837287D01*
X127402770Y-88821913D01*
X127547213Y-88716971D01*
X127547220Y-88716965D01*
X127691966Y-88572219D01*
X127691968Y-88572215D01*
X127691971Y-88572213D01*
X127771895Y-88462205D01*
X127812287Y-88406610D01*
X127905220Y-88224219D01*
X127968477Y-88029534D01*
X128000500Y-87827352D01*
X128000500Y-87622648D01*
X127968477Y-87420465D01*
X127909194Y-87238013D01*
X127905220Y-87225781D01*
X127905218Y-87225778D01*
X127905218Y-87225776D01*
X127869061Y-87154815D01*
X127812287Y-87043390D01*
X127760764Y-86972474D01*
X127691971Y-86877786D01*
X127547213Y-86733028D01*
X127381614Y-86612715D01*
X127375006Y-86609348D01*
X127288917Y-86565483D01*
X127238123Y-86517511D01*
X127221328Y-86449690D01*
X127243865Y-86383555D01*
X127288917Y-86344516D01*
X127381610Y-86297287D01*
X127463464Y-86237817D01*
X127547213Y-86176971D01*
X127547215Y-86176968D01*
X127547219Y-86176966D01*
X127691966Y-86032219D01*
X127691968Y-86032215D01*
X127691971Y-86032213D01*
X127751644Y-85950079D01*
X127812287Y-85866610D01*
X127905220Y-85684219D01*
X127968477Y-85489534D01*
X128000500Y-85287352D01*
X128000500Y-85082648D01*
X127968477Y-84880466D01*
X127905220Y-84685781D01*
X127905218Y-84685778D01*
X127905218Y-84685776D01*
X127864880Y-84606610D01*
X127812287Y-84503390D01*
X127761429Y-84433389D01*
X127691971Y-84337786D01*
X127547213Y-84193028D01*
X127381614Y-84072715D01*
X127375006Y-84069348D01*
X127288917Y-84025483D01*
X127238123Y-83977511D01*
X127221328Y-83909690D01*
X127243865Y-83843555D01*
X127288917Y-83804516D01*
X127381610Y-83757287D01*
X127487185Y-83680583D01*
X127547213Y-83636971D01*
X127547215Y-83636968D01*
X127547219Y-83636966D01*
X127691966Y-83492219D01*
X127691968Y-83492215D01*
X127691971Y-83492213D01*
X127751644Y-83410079D01*
X127812287Y-83326610D01*
X127905220Y-83144219D01*
X127968477Y-82949534D01*
X128000500Y-82747352D01*
X128000500Y-82542648D01*
X127968477Y-82340466D01*
X127905220Y-82145781D01*
X127905218Y-82145778D01*
X127905218Y-82145776D01*
X127871503Y-82079607D01*
X127812287Y-81963390D01*
X127800762Y-81947527D01*
X127691971Y-81797786D01*
X127547213Y-81653028D01*
X127381614Y-81532715D01*
X127301549Y-81491920D01*
X127288917Y-81485483D01*
X127238123Y-81437511D01*
X127221328Y-81369690D01*
X127243865Y-81303555D01*
X127288917Y-81264516D01*
X127381610Y-81217287D01*
X127524985Y-81113120D01*
X127547213Y-81096971D01*
X127547215Y-81096968D01*
X127547219Y-81096966D01*
X127691966Y-80952219D01*
X127691968Y-80952215D01*
X127691971Y-80952213D01*
X127772344Y-80841587D01*
X127812287Y-80786610D01*
X127905220Y-80604219D01*
X127968477Y-80409534D01*
X128000500Y-80207352D01*
X128000500Y-80002648D01*
X127989242Y-79931566D01*
X127968477Y-79800465D01*
X127931764Y-79687476D01*
X127905220Y-79605781D01*
X127905218Y-79605778D01*
X127905218Y-79605776D01*
X127833639Y-79465296D01*
X127812287Y-79423390D01*
X127804556Y-79412749D01*
X127691971Y-79257786D01*
X127547213Y-79113028D01*
X127381614Y-78992715D01*
X127375006Y-78989348D01*
X127288917Y-78945483D01*
X127238123Y-78897511D01*
X127221328Y-78829690D01*
X127243865Y-78763555D01*
X127288917Y-78724516D01*
X127381610Y-78677287D01*
X127402770Y-78661913D01*
X127547213Y-78556971D01*
X127547215Y-78556968D01*
X127547219Y-78556966D01*
X127691966Y-78412219D01*
X127691968Y-78412215D01*
X127691971Y-78412213D01*
X127812286Y-78246611D01*
X127844593Y-78183206D01*
X127892567Y-78132409D01*
X127955078Y-78115500D01*
X128370613Y-78115500D01*
X128437652Y-78135185D01*
X128458294Y-78151819D01*
X129178181Y-78871706D01*
X129211666Y-78933029D01*
X129214500Y-78959387D01*
X129214500Y-94487475D01*
X129217263Y-94497786D01*
X129233316Y-94557700D01*
X129252014Y-94627480D01*
X129252016Y-94627485D01*
X129324490Y-94753015D01*
X130611985Y-96040510D01*
X130737515Y-96112984D01*
X130877525Y-96150500D01*
X130877526Y-96150500D01*
X131022474Y-96150500D01*
X146220613Y-96150500D01*
X146287652Y-96170185D01*
X146308294Y-96186819D01*
X146813181Y-96691706D01*
X146827884Y-96718633D01*
X146844477Y-96744452D01*
X146845368Y-96750652D01*
X146846666Y-96753029D01*
X146849500Y-96779387D01*
X146849500Y-96986488D01*
X146829815Y-97053527D01*
X146798385Y-97086806D01*
X146683075Y-97170583D01*
X146683069Y-97170588D01*
X146560588Y-97293069D01*
X146560588Y-97293070D01*
X146560586Y-97293072D01*
X146548418Y-97309820D01*
X146458768Y-97433211D01*
X146380128Y-97587552D01*
X146326597Y-97752302D01*
X146310869Y-97851606D01*
X146299500Y-97923389D01*
X146299500Y-98096611D01*
X146302718Y-98116928D01*
X146322117Y-98239414D01*
X146326598Y-98267701D01*
X146380127Y-98432445D01*
X146458768Y-98586788D01*
X146560586Y-98726928D01*
X146683072Y-98849414D01*
X146798385Y-98933194D01*
X146841051Y-98988524D01*
X146849500Y-99033512D01*
X146849500Y-102686658D01*
X146860734Y-102728586D01*
X146860735Y-102728586D01*
X146887016Y-102826667D01*
X146941175Y-102920475D01*
X146959489Y-102952195D01*
X146959491Y-102952198D01*
X149228999Y-105221705D01*
X149262484Y-105283028D01*
X149257500Y-105352720D01*
X149241636Y-105382271D01*
X149153770Y-105503208D01*
X149075128Y-105657552D01*
X149021597Y-105822302D01*
X148994500Y-105993389D01*
X148994500Y-106166610D01*
X149018891Y-106320613D01*
X149021598Y-106337701D01*
X149075127Y-106502445D01*
X149153768Y-106656788D01*
X149255586Y-106796928D01*
X149378072Y-106919414D01*
X149518212Y-107021232D01*
X149672555Y-107099873D01*
X149837299Y-107153402D01*
X150008389Y-107180500D01*
X150008390Y-107180500D01*
X150181610Y-107180500D01*
X150181611Y-107180500D01*
X150322393Y-107158202D01*
X150391684Y-107167156D01*
X150429470Y-107192994D01*
X150624997Y-107388521D01*
X150658482Y-107449844D01*
X150653498Y-107519536D01*
X150611626Y-107575469D01*
X150546162Y-107599886D01*
X150498998Y-107594133D01*
X150352698Y-107546597D01*
X150221271Y-107525781D01*
X150181611Y-107519500D01*
X150008389Y-107519500D01*
X149968728Y-107525781D01*
X149837302Y-107546597D01*
X149837299Y-107546598D01*
X149691003Y-107594133D01*
X149672552Y-107600128D01*
X149518211Y-107678768D01*
X149438256Y-107736859D01*
X149378072Y-107780586D01*
X149378070Y-107780588D01*
X149378069Y-107780588D01*
X149255588Y-107903069D01*
X149255588Y-107903070D01*
X149255586Y-107903072D01*
X149226832Y-107942648D01*
X149153768Y-108043211D01*
X149075128Y-108197552D01*
X149075127Y-108197554D01*
X149075127Y-108197555D01*
X149067834Y-108220000D01*
X149021597Y-108362302D01*
X149005429Y-108464386D01*
X148994500Y-108533389D01*
X148994500Y-108706611D01*
X149021598Y-108877701D01*
X149075127Y-109042445D01*
X149153768Y-109196788D01*
X149255586Y-109336928D01*
X149378072Y-109459414D01*
X149518212Y-109561232D01*
X149672555Y-109639873D01*
X149837299Y-109693402D01*
X150008389Y-109720500D01*
X150008390Y-109720500D01*
X150181610Y-109720500D01*
X150181611Y-109720500D01*
X150352701Y-109693402D01*
X150517445Y-109639873D01*
X150671788Y-109561232D01*
X150811928Y-109459414D01*
X150934414Y-109336928D01*
X151036232Y-109196788D01*
X151114873Y-109042445D01*
X151168402Y-108877701D01*
X151195500Y-108706611D01*
X151195500Y-108533389D01*
X151168402Y-108362299D01*
X151120865Y-108215999D01*
X151118871Y-108146160D01*
X151154951Y-108086327D01*
X151217652Y-108055499D01*
X151287066Y-108063464D01*
X151326478Y-108090002D01*
X151613181Y-108376705D01*
X151646666Y-108438028D01*
X151649500Y-108464386D01*
X151649500Y-114106704D01*
X151629815Y-114173743D01*
X151613181Y-114194385D01*
X151558794Y-114248771D01*
X151558788Y-114248779D01*
X151468452Y-114383976D01*
X151468450Y-114383980D01*
X151406225Y-114534206D01*
X151406222Y-114534216D01*
X151374500Y-114693692D01*
X151374500Y-114693695D01*
X151374500Y-115306305D01*
X151374500Y-115306307D01*
X151374499Y-115306307D01*
X151406222Y-115465783D01*
X151406225Y-115465793D01*
X151468450Y-115616019D01*
X151468452Y-115616023D01*
X151558788Y-115751220D01*
X151558794Y-115751228D01*
X151673771Y-115866205D01*
X151673779Y-115866211D01*
X151808976Y-115956547D01*
X151808980Y-115956549D01*
X151959206Y-116018774D01*
X151959211Y-116018776D01*
X151959215Y-116018776D01*
X151959216Y-116018777D01*
X152118692Y-116050500D01*
X152118695Y-116050500D01*
X152281307Y-116050500D01*
X152403210Y-116026251D01*
X152440789Y-116018776D01*
X152591021Y-115956548D01*
X152591023Y-115956547D01*
X152681401Y-115896158D01*
X152726225Y-115866208D01*
X152747319Y-115845113D01*
X152808640Y-115811629D01*
X152878331Y-115816612D01*
X152922680Y-115845113D01*
X152934939Y-115857372D01*
X152943777Y-115866210D01*
X152943779Y-115866211D01*
X153078976Y-115956547D01*
X153078980Y-115956549D01*
X153229206Y-116018774D01*
X153229211Y-116018776D01*
X153229215Y-116018776D01*
X153229216Y-116018777D01*
X153388692Y-116050500D01*
X153388695Y-116050500D01*
X153551307Y-116050500D01*
X153673210Y-116026251D01*
X153704514Y-116020024D01*
X153774105Y-116026251D01*
X153827972Y-116067330D01*
X153857808Y-116107185D01*
X153857813Y-116107190D01*
X153972911Y-116193352D01*
X153972913Y-116193354D01*
X154107620Y-116243596D01*
X154107627Y-116243598D01*
X154167155Y-116249999D01*
X154167172Y-116250000D01*
X154490000Y-116250000D01*
X154490000Y-115280330D01*
X154509745Y-115300075D01*
X154595255Y-115349444D01*
X154690630Y-115375000D01*
X154789370Y-115375000D01*
X154884745Y-115349444D01*
X154970255Y-115300075D01*
X154990000Y-115280330D01*
X154990000Y-116250000D01*
X155312828Y-116250000D01*
X155312844Y-116249999D01*
X155372372Y-116243598D01*
X155372379Y-116243596D01*
X155507086Y-116193354D01*
X155507093Y-116193350D01*
X155622187Y-116107190D01*
X155622190Y-116107187D01*
X155708350Y-115992093D01*
X155708354Y-115992086D01*
X155758596Y-115857379D01*
X155758598Y-115857372D01*
X155764999Y-115797844D01*
X155765000Y-115797827D01*
X155765000Y-115250000D01*
X155020330Y-115250000D01*
X155040075Y-115230255D01*
X155089444Y-115144745D01*
X155115000Y-115049370D01*
X155115000Y-114950630D01*
X155089444Y-114855255D01*
X155040075Y-114769745D01*
X155020330Y-114750000D01*
X155765000Y-114750000D01*
X155765000Y-114202172D01*
X155764999Y-114202155D01*
X155758598Y-114142627D01*
X155758596Y-114142620D01*
X155708354Y-114007913D01*
X155708350Y-114007906D01*
X155622190Y-113892812D01*
X155622187Y-113892809D01*
X155507093Y-113806649D01*
X155507086Y-113806645D01*
X155372379Y-113756403D01*
X155372372Y-113756401D01*
X155312844Y-113750000D01*
X154990000Y-113750000D01*
X154990000Y-114719670D01*
X154970255Y-114699925D01*
X154884745Y-114650556D01*
X154789370Y-114625000D01*
X154690630Y-114625000D01*
X154595255Y-114650556D01*
X154509745Y-114699925D01*
X154490000Y-114719670D01*
X154490000Y-113750000D01*
X154167161Y-113750000D01*
X154157751Y-113751012D01*
X154088992Y-113738604D01*
X154037856Y-113690992D01*
X154020500Y-113627722D01*
X154020500Y-108005500D01*
X154040185Y-107938461D01*
X154092989Y-107892706D01*
X154144500Y-107881500D01*
X156429910Y-107881500D01*
X156496949Y-107901185D01*
X156542704Y-107953989D01*
X156552648Y-108023147D01*
X156540395Y-108061794D01*
X156510245Y-108120965D01*
X156447009Y-108315582D01*
X156415000Y-108517682D01*
X156415000Y-108722317D01*
X156447009Y-108924417D01*
X156510244Y-109119031D01*
X156603141Y-109301350D01*
X156603147Y-109301359D01*
X156635523Y-109345921D01*
X156635524Y-109345922D01*
X157315000Y-108666446D01*
X157315000Y-108672661D01*
X157342259Y-108774394D01*
X157394920Y-108865606D01*
X157469394Y-108940080D01*
X157560606Y-108992741D01*
X157662339Y-109020000D01*
X157668553Y-109020000D01*
X156989076Y-109699474D01*
X157033650Y-109731859D01*
X157215968Y-109824755D01*
X157410582Y-109887990D01*
X157612683Y-109920000D01*
X157817317Y-109920000D01*
X158019417Y-109887990D01*
X158214031Y-109824755D01*
X158396349Y-109731859D01*
X158440921Y-109699474D01*
X157761447Y-109020000D01*
X157767661Y-109020000D01*
X157869394Y-108992741D01*
X157960606Y-108940080D01*
X158035080Y-108865606D01*
X158087741Y-108774394D01*
X158115000Y-108672661D01*
X158115000Y-108666447D01*
X158794474Y-109345921D01*
X158826859Y-109301349D01*
X158919755Y-109119031D01*
X158982990Y-108924417D01*
X159015000Y-108722317D01*
X159015000Y-108517682D01*
X158982990Y-108315582D01*
X158919755Y-108120968D01*
X158872511Y-108028248D01*
X158869429Y-108011839D01*
X158861574Y-107997108D01*
X158863114Y-107978211D01*
X158859615Y-107959579D01*
X158865893Y-107944109D01*
X158867250Y-107927470D01*
X158878760Y-107912407D01*
X158885891Y-107894839D01*
X158899862Y-107884793D01*
X158909674Y-107871954D01*
X158933844Y-107860360D01*
X158940817Y-107855347D01*
X158945784Y-107853549D01*
X158981485Y-107843984D01*
X158987502Y-107840510D01*
X159107015Y-107771510D01*
X159840510Y-107038015D01*
X159912984Y-106912485D01*
X159943948Y-106796928D01*
X159950500Y-106772475D01*
X159950500Y-96017525D01*
X159912984Y-95877515D01*
X159840510Y-95751985D01*
X158722994Y-94634469D01*
X158689509Y-94573146D01*
X158688202Y-94527394D01*
X158710500Y-94386611D01*
X158710500Y-94213389D01*
X158683402Y-94042299D01*
X158629873Y-93877555D01*
X158551232Y-93723212D01*
X158449414Y-93583072D01*
X158326928Y-93460586D01*
X158186788Y-93358768D01*
X158130205Y-93329938D01*
X158032447Y-93280128D01*
X158032446Y-93280127D01*
X158032445Y-93280127D01*
X157867701Y-93226598D01*
X157867699Y-93226597D01*
X157867698Y-93226597D01*
X157736271Y-93205781D01*
X157696611Y-93199500D01*
X157523389Y-93199500D01*
X157483728Y-93205781D01*
X157352302Y-93226597D01*
X157187552Y-93280128D01*
X157089795Y-93329938D01*
X157021126Y-93342834D01*
X156956385Y-93316558D01*
X156916128Y-93259451D01*
X156909500Y-93219453D01*
X156909500Y-91028387D01*
X156929185Y-90961348D01*
X156981989Y-90915593D01*
X157051147Y-90905649D01*
X157114703Y-90934674D01*
X157121181Y-90940706D01*
X157920985Y-91740510D01*
X158046515Y-91812984D01*
X158186525Y-91850500D01*
X158186526Y-91850500D01*
X158331474Y-91850500D01*
X160086487Y-91850500D01*
X160153526Y-91870185D01*
X160186805Y-91901614D01*
X160270586Y-92016928D01*
X160393072Y-92139414D01*
X160533212Y-92241232D01*
X160687555Y-92319873D01*
X160852299Y-92373402D01*
X161023389Y-92400500D01*
X161023390Y-92400500D01*
X161196610Y-92400500D01*
X161196611Y-92400500D01*
X161367701Y-92373402D01*
X161532445Y-92319873D01*
X161686788Y-92241232D01*
X161826928Y-92139414D01*
X161949414Y-92016928D01*
X162051232Y-91876788D01*
X162129873Y-91722445D01*
X162183402Y-91557701D01*
X162210500Y-91386611D01*
X162210500Y-91213389D01*
X162183402Y-91042299D01*
X162129873Y-90877555D01*
X162051232Y-90723212D01*
X161949414Y-90583072D01*
X161826928Y-90460586D01*
X161686788Y-90358768D01*
X161532445Y-90280127D01*
X161367701Y-90226598D01*
X161367699Y-90226597D01*
X161367698Y-90226597D01*
X161236271Y-90205781D01*
X161196611Y-90199500D01*
X161023389Y-90199500D01*
X160983728Y-90205781D01*
X160852302Y-90226597D01*
X160687552Y-90280128D01*
X160533211Y-90358768D01*
X160453256Y-90416859D01*
X160393072Y-90460586D01*
X160393070Y-90460588D01*
X160393069Y-90460588D01*
X160270587Y-90583070D01*
X160186805Y-90698386D01*
X160131474Y-90741051D01*
X160086487Y-90749500D01*
X158538387Y-90749500D01*
X158471348Y-90729815D01*
X158450706Y-90713181D01*
X156945819Y-89208294D01*
X156912334Y-89146971D01*
X156909500Y-89120613D01*
X156909500Y-86155348D01*
X157897500Y-86155348D01*
X157897500Y-86364651D01*
X157938329Y-86569912D01*
X157938331Y-86569920D01*
X158018423Y-86763280D01*
X158134703Y-86937306D01*
X158282693Y-87085296D01*
X158456719Y-87201576D01*
X158522985Y-87229024D01*
X158650080Y-87281669D01*
X158855348Y-87322499D01*
X158855352Y-87322500D01*
X158855353Y-87322500D01*
X159064648Y-87322500D01*
X159064649Y-87322499D01*
X159269920Y-87281669D01*
X159463282Y-87201575D01*
X159637304Y-87085298D01*
X159785298Y-86937304D01*
X159901575Y-86763282D01*
X159981669Y-86569920D01*
X160022500Y-86364647D01*
X160022500Y-86155353D01*
X159981669Y-85950080D01*
X159907872Y-85771920D01*
X159901576Y-85756719D01*
X159785296Y-85582693D01*
X159637306Y-85434703D01*
X159463280Y-85318423D01*
X159269920Y-85238331D01*
X159269912Y-85238329D01*
X159064651Y-85197500D01*
X159064647Y-85197500D01*
X158855353Y-85197500D01*
X158855348Y-85197500D01*
X158650087Y-85238329D01*
X158650079Y-85238331D01*
X158456719Y-85318423D01*
X158282693Y-85434703D01*
X158134703Y-85582693D01*
X158018423Y-85756719D01*
X157938331Y-85950079D01*
X157938329Y-85950087D01*
X157897500Y-86155348D01*
X156909500Y-86155348D01*
X156909500Y-81520386D01*
X156929185Y-81453347D01*
X156945814Y-81432710D01*
X157503454Y-80875069D01*
X157564774Y-80841587D01*
X157634465Y-80846571D01*
X157690399Y-80888442D01*
X157714816Y-80953907D01*
X157713605Y-80982151D01*
X157698000Y-81080678D01*
X157698000Y-81279321D01*
X157729075Y-81475520D01*
X157729075Y-81475523D01*
X157790457Y-81664437D01*
X157880641Y-81841432D01*
X157907730Y-81878715D01*
X158470504Y-81315940D01*
X158486619Y-81376081D01*
X158553498Y-81491920D01*
X158648080Y-81586502D01*
X158763919Y-81653381D01*
X158824057Y-81669494D01*
X158261283Y-82232268D01*
X158261283Y-82232269D01*
X158298567Y-82259358D01*
X158475562Y-82349542D01*
X158664476Y-82410924D01*
X158664480Y-82410925D01*
X158775025Y-82428433D01*
X158838160Y-82458362D01*
X158875092Y-82517673D01*
X158874094Y-82587535D01*
X158835485Y-82645768D01*
X158779820Y-82672523D01*
X158650085Y-82698329D01*
X158650079Y-82698331D01*
X158456719Y-82778423D01*
X158282693Y-82894703D01*
X158134703Y-83042693D01*
X158018423Y-83216719D01*
X157938331Y-83410079D01*
X157938329Y-83410087D01*
X157897500Y-83615348D01*
X157897500Y-83824651D01*
X157938329Y-84029912D01*
X157938331Y-84029920D01*
X158018423Y-84223280D01*
X158134703Y-84397306D01*
X158282693Y-84545296D01*
X158456719Y-84661576D01*
X158553399Y-84701622D01*
X158650080Y-84741669D01*
X158831227Y-84777701D01*
X158855348Y-84782499D01*
X158855352Y-84782500D01*
X158855353Y-84782500D01*
X159064648Y-84782500D01*
X159064649Y-84782499D01*
X159269920Y-84741669D01*
X159463282Y-84661575D01*
X159637304Y-84545298D01*
X159785298Y-84397304D01*
X159901575Y-84223282D01*
X159981669Y-84029920D01*
X160022500Y-83824647D01*
X160022500Y-83615353D01*
X159981669Y-83410080D01*
X159907872Y-83231920D01*
X159901576Y-83216719D01*
X159785296Y-83042693D01*
X159637306Y-82894703D01*
X159463280Y-82778423D01*
X159269920Y-82698331D01*
X159269914Y-82698329D01*
X159140179Y-82672523D01*
X159078268Y-82640138D01*
X159043694Y-82579422D01*
X159047434Y-82509653D01*
X159088301Y-82452981D01*
X159144974Y-82428432D01*
X159255527Y-82410922D01*
X159444437Y-82349542D01*
X159621425Y-82259362D01*
X159658716Y-82232268D01*
X159095942Y-81669494D01*
X159156081Y-81653381D01*
X159271920Y-81586502D01*
X159366502Y-81491920D01*
X159433381Y-81376081D01*
X159449495Y-81315942D01*
X160012268Y-81878715D01*
X160039362Y-81841425D01*
X160129542Y-81664437D01*
X160190924Y-81475523D01*
X160190924Y-81475520D01*
X160222000Y-81279321D01*
X160222000Y-81080678D01*
X160190924Y-80884479D01*
X160190924Y-80884476D01*
X160129542Y-80695562D01*
X160039358Y-80518567D01*
X160012268Y-80481283D01*
X159449494Y-81044057D01*
X159433381Y-80983919D01*
X159366502Y-80868080D01*
X159271920Y-80773498D01*
X159156081Y-80706619D01*
X159095940Y-80690504D01*
X159658715Y-80127730D01*
X159621432Y-80100641D01*
X159444437Y-80010457D01*
X159255522Y-79949075D01*
X159144973Y-79931566D01*
X159081838Y-79901637D01*
X159044907Y-79842325D01*
X159045905Y-79772463D01*
X159084515Y-79714230D01*
X159140180Y-79687476D01*
X159186042Y-79678353D01*
X159269920Y-79661669D01*
X159463282Y-79581575D01*
X159637304Y-79465298D01*
X159785298Y-79317304D01*
X159821590Y-79262989D01*
X159833203Y-79245610D01*
X159886815Y-79200804D01*
X159936305Y-79190500D01*
X169032472Y-79190500D01*
X169032474Y-79190500D01*
X169032475Y-79190500D01*
X169172485Y-79152984D01*
X169298015Y-79080510D01*
X170680510Y-77698015D01*
X170752984Y-77572485D01*
X170756466Y-77559490D01*
X170790500Y-77432475D01*
X170790500Y-71939387D01*
X170810185Y-71872348D01*
X170826819Y-71851706D01*
X171448604Y-71229921D01*
X172140510Y-70538015D01*
X172212984Y-70412485D01*
X172238934Y-70315639D01*
X172250500Y-70272475D01*
X172250500Y-66127525D01*
X172212984Y-65987515D01*
X172191031Y-65949491D01*
X172140510Y-65861985D01*
X170638015Y-64359490D01*
X170638014Y-64359489D01*
X170338015Y-64059490D01*
X164138015Y-57859490D01*
X164138014Y-57859489D01*
X164138011Y-57859487D01*
X164012488Y-57787017D01*
X164012485Y-57787016D01*
X164009772Y-57786289D01*
X163872475Y-57749500D01*
X163872472Y-57749500D01*
X151659387Y-57749500D01*
X151592348Y-57729815D01*
X151571706Y-57713181D01*
X150636819Y-56778294D01*
X150603334Y-56716971D01*
X150600500Y-56690613D01*
X150600500Y-55175000D01*
X173874999Y-55175000D01*
X173875497Y-55252252D01*
X173875497Y-55252257D01*
X173883451Y-55406565D01*
X173883452Y-55406573D01*
X173883452Y-55406582D01*
X173899338Y-55560260D01*
X173923119Y-55712945D01*
X173923120Y-55712952D01*
X173954717Y-55864154D01*
X173994072Y-56013593D01*
X174041063Y-56160795D01*
X174095566Y-56305371D01*
X174123318Y-56368870D01*
X174157443Y-56446954D01*
X174191363Y-56514818D01*
X174226532Y-56585181D01*
X174302622Y-56719623D01*
X174302628Y-56719632D01*
X174302630Y-56719635D01*
X174334156Y-56769200D01*
X174385557Y-56850010D01*
X174385565Y-56850023D01*
X174475085Y-56975942D01*
X174570978Y-57097100D01*
X174672959Y-57213136D01*
X174672969Y-57213147D01*
X174672979Y-57213158D01*
X174672988Y-57213167D01*
X174780784Y-57323777D01*
X174780800Y-57323792D01*
X174780820Y-57323813D01*
X174852129Y-57389815D01*
X174894214Y-57428768D01*
X174894227Y-57428779D01*
X175012872Y-57527758D01*
X175136440Y-57620485D01*
X175136449Y-57620491D01*
X175264644Y-57706746D01*
X175370235Y-57770151D01*
X175397104Y-57786285D01*
X175397125Y-57786297D01*
X175533471Y-57858893D01*
X175533490Y-57858903D01*
X175533496Y-57858906D01*
X175673439Y-57924407D01*
X175673451Y-57924412D01*
X175673458Y-57924415D01*
X175782177Y-57968629D01*
X175816568Y-57982616D01*
X175962504Y-58033380D01*
X176110860Y-58076564D01*
X176261242Y-58112054D01*
X176413252Y-58139755D01*
X176566486Y-58159594D01*
X176566485Y-58159594D01*
X176588493Y-58161297D01*
X176720538Y-58171519D01*
X176875000Y-58175498D01*
X177029462Y-58171519D01*
X177183514Y-58159594D01*
X177336748Y-58139755D01*
X177488758Y-58112054D01*
X177639140Y-58076564D01*
X177787496Y-58033380D01*
X177933432Y-57982616D01*
X178076561Y-57924407D01*
X178216504Y-57858906D01*
X178352889Y-57786289D01*
X178485356Y-57706746D01*
X178613552Y-57620490D01*
X178613559Y-57620485D01*
X178737127Y-57527758D01*
X178833912Y-57447016D01*
X178855785Y-57428769D01*
X178969180Y-57323813D01*
X179077021Y-57213158D01*
X179179023Y-57097098D01*
X179274916Y-56975941D01*
X179364444Y-56850009D01*
X179447370Y-56719635D01*
X179453882Y-56708129D01*
X179523467Y-56585181D01*
X179523471Y-56585171D01*
X179523476Y-56585164D01*
X179592557Y-56446954D01*
X179654433Y-56305371D01*
X179708938Y-56160791D01*
X179755927Y-56013596D01*
X179795277Y-55864177D01*
X179826883Y-55712931D01*
X179850661Y-55560259D01*
X179866549Y-55406565D01*
X179874503Y-55252257D01*
X179874503Y-55097743D01*
X179866549Y-54943435D01*
X179850661Y-54789741D01*
X179826883Y-54637069D01*
X179826880Y-54637054D01*
X179826879Y-54637047D01*
X179795282Y-54485845D01*
X179795280Y-54485837D01*
X179795277Y-54485823D01*
X179755927Y-54336404D01*
X179708938Y-54189209D01*
X179654433Y-54044629D01*
X179592557Y-53903046D01*
X179523476Y-53764836D01*
X179523475Y-53764835D01*
X179523467Y-53764818D01*
X179447377Y-53630376D01*
X179447371Y-53630367D01*
X179447370Y-53630365D01*
X179364444Y-53499991D01*
X179364438Y-53499982D01*
X179364434Y-53499976D01*
X179300554Y-53410122D01*
X179274916Y-53374059D01*
X179179023Y-53252902D01*
X179179021Y-53252899D01*
X179077040Y-53136863D01*
X179077031Y-53136853D01*
X179077021Y-53136842D01*
X179053056Y-53112252D01*
X178969215Y-53026222D01*
X178969199Y-53026206D01*
X178969180Y-53026187D01*
X178855785Y-52921231D01*
X178784433Y-52861706D01*
X178737127Y-52822241D01*
X178613559Y-52729514D01*
X178613550Y-52729508D01*
X178485373Y-52643265D01*
X178485357Y-52643255D01*
X178485356Y-52643254D01*
X178409201Y-52597525D01*
X178352895Y-52563714D01*
X178352874Y-52563702D01*
X178216528Y-52491106D01*
X178216509Y-52491096D01*
X178076570Y-52425597D01*
X178076541Y-52425584D01*
X177933448Y-52367390D01*
X177933439Y-52367387D01*
X177933432Y-52367384D01*
X177787496Y-52316620D01*
X177687508Y-52287515D01*
X177639145Y-52273437D01*
X177639140Y-52273436D01*
X177488758Y-52237946D01*
X177488748Y-52237944D01*
X177488739Y-52237942D01*
X177336744Y-52210244D01*
X177183506Y-52190405D01*
X177183514Y-52190405D01*
X177029455Y-52178480D01*
X176875000Y-52174503D01*
X176720544Y-52178480D01*
X176566489Y-52190405D01*
X176413255Y-52210244D01*
X176261260Y-52237942D01*
X176261246Y-52237945D01*
X176261242Y-52237946D01*
X176138571Y-52266896D01*
X176110864Y-52273435D01*
X176110854Y-52273437D01*
X175962500Y-52316621D01*
X175816551Y-52367390D01*
X175673458Y-52425584D01*
X175673429Y-52425597D01*
X175533490Y-52491096D01*
X175533471Y-52491106D01*
X175397125Y-52563702D01*
X175397104Y-52563714D01*
X175264642Y-52643255D01*
X175264626Y-52643265D01*
X175136449Y-52729508D01*
X175136440Y-52729514D01*
X175012872Y-52822241D01*
X174894227Y-52921220D01*
X174894214Y-52921231D01*
X174780815Y-53026192D01*
X174780784Y-53026222D01*
X174672988Y-53136832D01*
X174672959Y-53136863D01*
X174570978Y-53252899D01*
X174475085Y-53374057D01*
X174385565Y-53499976D01*
X174385557Y-53499989D01*
X174302628Y-53630367D01*
X174302622Y-53630376D01*
X174226532Y-53764818D01*
X174157438Y-53903057D01*
X174095566Y-54044628D01*
X174041063Y-54189204D01*
X173994072Y-54336406D01*
X173954717Y-54485845D01*
X173923120Y-54637047D01*
X173923119Y-54637054D01*
X173899338Y-54789739D01*
X173883452Y-54943417D01*
X173883452Y-54943425D01*
X173883451Y-54943435D01*
X173877235Y-55064019D01*
X173875497Y-55097742D01*
X173874999Y-55175000D01*
X150600500Y-55175000D01*
X150600500Y-52427527D01*
X150600500Y-52427525D01*
X150562984Y-52287515D01*
X150506918Y-52190405D01*
X150490512Y-52161989D01*
X150490508Y-52161984D01*
X149908016Y-51579491D01*
X149908015Y-51579490D01*
X149782485Y-51507016D01*
X149782486Y-51507016D01*
X149747482Y-51497637D01*
X149642475Y-51469500D01*
X147502475Y-51469500D01*
X123817525Y-51469500D01*
X123712517Y-51497637D01*
X123677514Y-51507016D01*
X123551986Y-51579489D01*
X123551983Y-51579491D01*
X121539491Y-53591983D01*
X121539489Y-53591986D01*
X121467016Y-53717514D01*
X121467016Y-53717515D01*
X121429500Y-53857525D01*
X121429500Y-53857527D01*
X121429500Y-60940613D01*
X121409815Y-61007652D01*
X121393181Y-61028294D01*
X121108294Y-61313181D01*
X121046971Y-61346666D01*
X121020613Y-61349500D01*
X100277525Y-61349500D01*
X100172517Y-61377637D01*
X100137514Y-61387016D01*
X100011986Y-61459489D01*
X100011983Y-61459491D01*
X98159491Y-63311983D01*
X98159489Y-63311986D01*
X98087016Y-63437514D01*
X98087016Y-63437515D01*
X98049500Y-63577525D01*
X92375500Y-63577525D01*
X92375500Y-55175000D01*
X93874999Y-55175000D01*
X93875497Y-55252252D01*
X93875497Y-55252257D01*
X93883451Y-55406565D01*
X93883452Y-55406573D01*
X93883452Y-55406582D01*
X93899338Y-55560260D01*
X93923119Y-55712945D01*
X93923120Y-55712952D01*
X93954717Y-55864154D01*
X93994072Y-56013593D01*
X94041063Y-56160795D01*
X94095566Y-56305371D01*
X94123318Y-56368870D01*
X94157443Y-56446954D01*
X94191363Y-56514818D01*
X94226532Y-56585181D01*
X94302622Y-56719623D01*
X94302628Y-56719632D01*
X94302630Y-56719635D01*
X94334156Y-56769200D01*
X94385557Y-56850010D01*
X94385565Y-56850023D01*
X94475085Y-56975942D01*
X94570978Y-57097100D01*
X94672959Y-57213136D01*
X94672969Y-57213147D01*
X94672979Y-57213158D01*
X94672988Y-57213167D01*
X94780784Y-57323777D01*
X94780800Y-57323792D01*
X94780820Y-57323813D01*
X94852129Y-57389815D01*
X94894214Y-57428768D01*
X94894227Y-57428779D01*
X95012872Y-57527758D01*
X95136440Y-57620485D01*
X95136449Y-57620491D01*
X95264644Y-57706746D01*
X95370235Y-57770151D01*
X95397104Y-57786285D01*
X95397125Y-57786297D01*
X95533471Y-57858893D01*
X95533490Y-57858903D01*
X95533496Y-57858906D01*
X95673439Y-57924407D01*
X95673451Y-57924412D01*
X95673458Y-57924415D01*
X95782177Y-57968629D01*
X95816568Y-57982616D01*
X95962504Y-58033380D01*
X96110860Y-58076564D01*
X96261242Y-58112054D01*
X96413252Y-58139755D01*
X96566486Y-58159594D01*
X96566485Y-58159594D01*
X96588493Y-58161297D01*
X96720538Y-58171519D01*
X96875000Y-58175498D01*
X97029462Y-58171519D01*
X97183514Y-58159594D01*
X97336748Y-58139755D01*
X97488758Y-58112054D01*
X97639140Y-58076564D01*
X97787496Y-58033380D01*
X97933432Y-57982616D01*
X98076561Y-57924407D01*
X98216504Y-57858906D01*
X98352889Y-57786289D01*
X98485356Y-57706746D01*
X98613552Y-57620490D01*
X98613559Y-57620485D01*
X98737127Y-57527758D01*
X98833912Y-57447016D01*
X98855785Y-57428769D01*
X98969180Y-57323813D01*
X99077021Y-57213158D01*
X99179023Y-57097098D01*
X99274916Y-56975941D01*
X99364444Y-56850009D01*
X99447370Y-56719635D01*
X99453882Y-56708129D01*
X99523467Y-56585181D01*
X99523471Y-56585171D01*
X99523476Y-56585164D01*
X99592557Y-56446954D01*
X99654433Y-56305371D01*
X99708938Y-56160791D01*
X99755927Y-56013596D01*
X99795277Y-55864177D01*
X99826883Y-55712931D01*
X99850661Y-55560259D01*
X99866549Y-55406565D01*
X99874503Y-55252257D01*
X99874503Y-55097743D01*
X99866549Y-54943435D01*
X99850661Y-54789741D01*
X99826883Y-54637069D01*
X99826880Y-54637054D01*
X99826879Y-54637047D01*
X99795282Y-54485845D01*
X99795280Y-54485837D01*
X99795277Y-54485823D01*
X99755927Y-54336404D01*
X99708938Y-54189209D01*
X99654433Y-54044629D01*
X99592557Y-53903046D01*
X99523476Y-53764836D01*
X99523475Y-53764835D01*
X99523467Y-53764818D01*
X99447377Y-53630376D01*
X99447371Y-53630367D01*
X99447370Y-53630365D01*
X99364444Y-53499991D01*
X99364438Y-53499982D01*
X99364434Y-53499976D01*
X99300554Y-53410122D01*
X99274916Y-53374059D01*
X99179023Y-53252902D01*
X99179021Y-53252899D01*
X99077040Y-53136863D01*
X99077031Y-53136853D01*
X99077021Y-53136842D01*
X99053056Y-53112252D01*
X98969215Y-53026222D01*
X98969199Y-53026206D01*
X98969180Y-53026187D01*
X98855785Y-52921231D01*
X98784433Y-52861706D01*
X98737127Y-52822241D01*
X98613559Y-52729514D01*
X98613550Y-52729508D01*
X98485373Y-52643265D01*
X98485357Y-52643255D01*
X98485356Y-52643254D01*
X98409201Y-52597525D01*
X98352895Y-52563714D01*
X98352874Y-52563702D01*
X98216528Y-52491106D01*
X98216509Y-52491096D01*
X98076570Y-52425597D01*
X98076541Y-52425584D01*
X97933448Y-52367390D01*
X97933439Y-52367387D01*
X97933432Y-52367384D01*
X97787496Y-52316620D01*
X97687508Y-52287515D01*
X97639145Y-52273437D01*
X97639140Y-52273436D01*
X97488758Y-52237946D01*
X97488748Y-52237944D01*
X97488739Y-52237942D01*
X97336744Y-52210244D01*
X97183506Y-52190405D01*
X97183514Y-52190405D01*
X97029455Y-52178480D01*
X96875000Y-52174503D01*
X96720544Y-52178480D01*
X96566489Y-52190405D01*
X96413255Y-52210244D01*
X96261260Y-52237942D01*
X96261246Y-52237945D01*
X96261242Y-52237946D01*
X96138571Y-52266896D01*
X96110864Y-52273435D01*
X96110854Y-52273437D01*
X95962500Y-52316621D01*
X95816551Y-52367390D01*
X95673458Y-52425584D01*
X95673429Y-52425597D01*
X95533490Y-52491096D01*
X95533471Y-52491106D01*
X95397125Y-52563702D01*
X95397104Y-52563714D01*
X95264642Y-52643255D01*
X95264626Y-52643265D01*
X95136449Y-52729508D01*
X95136440Y-52729514D01*
X95012872Y-52822241D01*
X94894227Y-52921220D01*
X94894214Y-52921231D01*
X94780815Y-53026192D01*
X94780784Y-53026222D01*
X94672988Y-53136832D01*
X94672959Y-53136863D01*
X94570978Y-53252899D01*
X94475085Y-53374057D01*
X94385565Y-53499976D01*
X94385557Y-53499989D01*
X94302628Y-53630367D01*
X94302622Y-53630376D01*
X94226532Y-53764818D01*
X94157438Y-53903057D01*
X94095566Y-54044628D01*
X94041063Y-54189204D01*
X93994072Y-54336406D01*
X93954717Y-54485845D01*
X93923120Y-54637047D01*
X93923119Y-54637054D01*
X93899338Y-54789739D01*
X93883452Y-54943417D01*
X93883452Y-54943425D01*
X93883451Y-54943435D01*
X93877235Y-55064019D01*
X93875497Y-55097742D01*
X93874999Y-55175000D01*
X92375500Y-55175000D01*
X92375500Y-50799500D01*
X92395185Y-50732461D01*
X92447989Y-50686706D01*
X92499500Y-50675500D01*
X181250500Y-50675500D01*
X181317539Y-50695185D01*
G37*
%TD.AperFunction*%
%TD*%
M02*
