M48
; DRILL file {KiCad 9.0.3} date 2026-03-02T14:36:58-0500
; FORMAT={-:-/ absolute / metric / decimal}
; #@! TF.CreationDate,2026-03-02T14:36:58-05:00
; #@! TF.GenerationSoftware,Kicad,Pcbnew,9.0.3
; #@! TF.FileFunction,Plated,1,2,PTH
FMAT,2
METRIC
; #@! TA.AperFunction,Plated,PTH,ComponentDrill
T1C0.750
; #@! TA.AperFunction,Plated,PTH,ViaDrill
T2C0.800
; #@! TA.AperFunction,Plated,PTH,ComponentDrill
T3C0.800
; #@! TA.AperFunction,Plated,PTH,ComponentDrill
T4C0.900
; #@! TA.AperFunction,Plated,PTH,ComponentDrill
T5C1.016
; #@! TA.AperFunction,Plated,PTH,ComponentDrill
T6C1.020
; #@! TA.AperFunction,Plated,PTH,ComponentDrill
T7C1.200
; #@! TA.AperFunction,Plated,PTH,ComponentDrill
T8C1.300
%
G90
G05
T1
X152.2Y-115.0
X153.47Y-115.0
X154.74Y-115.0
T2
X128.68Y-125.34
X131.651Y-121.63
X134.0Y-64.3
X134.0Y-68.7
T3
X133.935Y-71.7
X134.99Y-105.6
X136.475Y-71.7
X139.015Y-71.7
X140.6Y-76.9
X140.6Y-84.52
X141.555Y-71.7
X142.61Y-105.6
X144.0Y-76.9
X144.0Y-84.52
X147.4Y-90.39
X147.4Y-98.01
X149.99Y-94.3
X149.99Y-97.4
X150.095Y-101.0
X150.095Y-103.54
X150.095Y-106.08
X150.095Y-108.62
X153.49Y-91.3
X157.61Y-94.3
X157.61Y-97.4
X157.715Y-101.0
X157.715Y-103.54
X157.715Y-106.08
X157.715Y-108.62
X161.11Y-91.3
T4
X135.6Y-98.2
X138.1Y-98.2
X140.6Y-98.2
T5
X147.38Y-68.64
X148.8Y-73.56
X148.8Y-76.1
X148.8Y-78.64
X148.8Y-81.18
X148.8Y-83.72
X148.8Y-86.26
X149.92Y-68.64
X152.46Y-68.64
X155.0Y-68.64
X157.54Y-68.64
X158.96Y-73.56
X158.96Y-76.1
X158.96Y-78.64
X158.96Y-81.18
X158.96Y-83.72
X158.96Y-86.26
X160.08Y-68.64
X162.62Y-68.64
X165.16Y-68.64
X167.7Y-68.64
X170.24Y-68.64
T6
X101.3Y-72.485
X101.3Y-75.025
X101.3Y-77.565
X101.3Y-80.105
X101.3Y-82.645
X101.3Y-85.185
X101.3Y-87.725
X101.3Y-90.265
X101.3Y-92.805
X101.3Y-95.345
X101.3Y-97.885
X101.3Y-100.425
X101.3Y-102.965
X101.3Y-105.505
X101.3Y-108.045
X126.7Y-72.485
X126.7Y-75.025
X126.7Y-77.565
X126.7Y-80.105
X126.7Y-82.645
X126.7Y-85.185
X126.7Y-87.725
X126.7Y-90.265
X126.7Y-92.805
X126.7Y-95.345
X126.7Y-97.885
X126.7Y-100.425
X126.7Y-102.965
X126.7Y-105.505
X126.7Y-108.045
T7
X132.895Y-111.3
X137.975Y-111.3
X143.055Y-111.3
T8
X109.68Y-130.0
X114.76Y-130.0
X119.84Y-130.0
X124.92Y-130.0
X127.76Y-55.0
X130.0Y-130.0
X132.84Y-55.0
X137.92Y-55.0
X143.0Y-55.0
X143.76Y-130.0
X148.08Y-55.0
X148.84Y-130.0
X153.92Y-130.0
X159.0Y-130.0
X164.08Y-130.0
M30
